<?xml version="1.0" encoding="UTF-8" standalone="no"?>
<!DOCTYPE svg PUBLIC "-//W3C//DTD SVG 1.1//EN"
 "http://www.w3.org/Graphics/SVG/1.1/DTD/svg11.dtd">
<!-- Generated by graphviz version 2.38.0 (20140413.2041)
 -->
<!-- Title: ticketlock.h Pages: 1 -->
<svg width="337pt" height="140pt"
 viewBox="0.00 0.00 336.50 140.00" xmlns="http://www.w3.org/2000/svg" xmlns:xlink="http://www.w3.org/1999/xlink">
<g id="graph0" class="graph" transform="scale(1 1) rotate(0) translate(4 136)">
<title>ticketlock.h</title>
<polygon fill="white" stroke="none" points="-4,4 -4,-136 332.5,-136 332.5,4 -4,4"/>
<!-- Node0 -->
<g id="node1" class="node"><title>Node0</title>
<polygon fill="#bfbfbf" stroke="black" points="101.5,-112.5 101.5,-131.5 172.5,-131.5 172.5,-112.5 101.5,-112.5"/>
<text text-anchor="middle" x="137" y="-119.5" font-family="Helvetica,sans-Serif" font-size="10.00">ticketlock.h</text>
</g>
<!-- Node1 -->
<g id="node2" class="node"><title>Node1</title>
<polygon fill="white" stroke="#bfbfbf" points="0,-56.5 0,-75.5 126,-75.5 126,-56.5 0,-56.5"/>
<text text-anchor="middle" x="63" y="-63.5" font-family="Helvetica,sans-Serif" font-size="10.00">odp/api/abi/ticketlock.h</text>
</g>
<!-- Node0&#45;&gt;Node1 -->
<g id="edge1" class="edge"><title>Node0&#45;&gt;Node1</title>
<path fill="none" stroke="midnightblue" d="M125.111,-112.324C113.85,-104.107 96.7134,-91.6017 83.2909,-81.8069"/>
<polygon fill="midnightblue" stroke="midnightblue" points="85.2468,-78.9014 75.1057,-75.8339 81.1205,-84.5559 85.2468,-78.9014"/>
</g>
<!-- Node2 -->
<g id="node3" class="node"><title>Node2</title>
<g id="a_node3"><a xlink:href="api_2spec_2ticketlock_8h.html" target="_top" xlink:title="ODP ticketlock. ">
<polygon fill="white" stroke="black" points="144,-56.5 144,-75.5 278,-75.5 278,-56.5 144,-56.5"/>
<text text-anchor="middle" x="211" y="-63.5" font-family="Helvetica,sans-Serif" font-size="10.00">odp/api/spec/ticketlock.h</text>
</a>
</g>
</g>
<!-- Node0&#45;&gt;Node2 -->
<g id="edge2" class="edge"><title>Node0&#45;&gt;Node2</title>
<path fill="none" stroke="midnightblue" d="M148.889,-112.324C160.15,-104.107 177.287,-91.6017 190.709,-81.8069"/>
<polygon fill="midnightblue" stroke="midnightblue" points="192.88,-84.5559 198.894,-75.8339 188.753,-78.9014 192.88,-84.5559"/>
</g>
<!-- Node3 -->
<g id="node4" class="node"><title>Node3</title>
<g id="a_node4"><a xlink:href="visibility__begin_8h_source.html" target="_top" xlink:title="odp/visibility_begin.h">
<polygon fill="white" stroke="black" points="88.5,-0.5 88.5,-19.5 203.5,-19.5 203.5,-0.5 88.5,-0.5"/>
<text text-anchor="middle" x="146" y="-7.5" font-family="Helvetica,sans-Serif" font-size="10.00">odp/visibility_begin.h</text>
</a>
</g>
</g>
<!-- Node2&#45;&gt;Node3 -->
<g id="edge3" class="edge"><title>Node2&#45;&gt;Node3</title>
<path fill="none" stroke="midnightblue" d="M200.557,-56.324C190.854,-48.2631 176.185,-36.0765 164.5,-26.3695"/>
<polygon fill="midnightblue" stroke="midnightblue" points="166.562,-23.532 156.633,-19.8339 162.089,-28.9163 166.562,-23.532"/>
</g>
<!-- Node4 -->
<g id="node5" class="node"><title>Node4</title>
<g id="a_node5"><a xlink:href="visibility__end_8h_source.html" target="_top" xlink:title="odp/visibility_end.h">
<polygon fill="white" stroke="black" points="221.5,-0.5 221.5,-19.5 328.5,-19.5 328.5,-0.5 221.5,-0.5"/>
<text text-anchor="middle" x="275" y="-7.5" font-family="Helvetica,sans-Serif" font-size="10.00">odp/visibility_end.h</text>
</a>
</g>
</g>
<!-- Node2&#45;&gt;Node4 -->
<g id="edge4" class="edge"><title>Node2&#45;&gt;Node4</title>
<path fill="none" stroke="midnightblue" d="M221.283,-56.324C230.836,-48.2631 245.28,-36.0765 256.784,-26.3695"/>
<polygon fill="midnightblue" stroke="midnightblue" points="259.144,-28.9577 264.53,-19.8339 254.63,-23.6076 259.144,-28.9577"/>
</g>
</g>
</svg>
