<?xml version="1.0" encoding="UTF-8" standalone="no"?>
<!DOCTYPE svg PUBLIC "-//W3C//DTD SVG 1.1//EN"
 "http://www.w3.org/Graphics/SVG/1.1/DTD/svg11.dtd">
<!-- Generated by graphviz version 2.38.0 (20140413.2041)
 -->
<!-- Title: thread.h Pages: 1 -->
<svg width="1104pt" height="476pt"
 viewBox="0.00 0.00 1103.50 476.00" xmlns="http://www.w3.org/2000/svg" xmlns:xlink="http://www.w3.org/1999/xlink">
<g id="graph0" class="graph" transform="scale(1 1) rotate(0) translate(4 472)">
<title>thread.h</title>
<polygon fill="white" stroke="none" points="-4,4 -4,-472 1099.5,-472 1099.5,4 -4,4"/>
<!-- Node1 -->
<g id="node1" class="node"><title>Node1</title>
<polygon fill="#bfbfbf" stroke="black" points="635.5,-448.5 635.5,-467.5 692.5,-467.5 692.5,-448.5 635.5,-448.5"/>
<text text-anchor="middle" x="664" y="-455.5" font-family="Helvetica,sans-Serif" font-size="10.00">thread.h</text>
</g>
<!-- Node2 -->
<g id="node2" class="node"><title>Node2</title>
<g id="a_node2"><a xlink:href="arch_2arm32-linux_2odp_2api_2abi_2thread_8h_source.html" target="_top" xlink:title="thread.h">
<polygon fill="white" stroke="black" points="410.5,-392.5 410.5,-411.5 467.5,-411.5 467.5,-392.5 410.5,-392.5"/>
<text text-anchor="middle" x="439" y="-399.5" font-family="Helvetica,sans-Serif" font-size="10.00">thread.h</text>
</a>
</g>
</g>
<!-- Node1&#45;&gt;Node2 -->
<g id="edge1" class="edge"><title>Node1&#45;&gt;Node2</title>
<path fill="none" stroke="midnightblue" d="M625.118,-447.668C580.353,-436.925 507.864,-419.527 467.843,-409.922"/>
<polygon fill="midnightblue" stroke="midnightblue" points="624.505,-451.121 635.046,-450.051 626.139,-444.314 624.505,-451.121"/>
</g>
<!-- Node3 -->
<g id="node3" class="node"><title>Node3</title>
<g id="a_node3"><a xlink:href="arch_2arm64-linux_2odp_2api_2abi_2thread_8h_source.html" target="_top" xlink:title="thread.h">
<polygon fill="white" stroke="black" points="485.5,-392.5 485.5,-411.5 542.5,-411.5 542.5,-392.5 485.5,-392.5"/>
<text text-anchor="middle" x="514" y="-399.5" font-family="Helvetica,sans-Serif" font-size="10.00">thread.h</text>
</a>
</g>
</g>
<!-- Node1&#45;&gt;Node3 -->
<g id="edge2" class="edge"><title>Node1&#45;&gt;Node3</title>
<path fill="none" stroke="midnightblue" d="M630.775,-445.039C602.552,-434.879 562.738,-420.546 537.657,-411.516"/>
<polygon fill="midnightblue" stroke="midnightblue" points="629.638,-448.349 640.232,-448.444 632.009,-441.763 629.638,-448.349"/>
</g>
<!-- Node4 -->
<g id="node4" class="node"><title>Node4</title>
<g id="a_node4"><a xlink:href="arch_2default-linux_2odp_2api_2abi_2thread_8h_source.html" target="_top" xlink:title="thread.h">
<polygon fill="white" stroke="black" points="560.5,-392.5 560.5,-411.5 617.5,-411.5 617.5,-392.5 560.5,-392.5"/>
<text text-anchor="middle" x="589" y="-399.5" font-family="Helvetica,sans-Serif" font-size="10.00">thread.h</text>
</a>
</g>
</g>
<!-- Node1&#45;&gt;Node4 -->
<g id="edge3" class="edge"><title>Node1&#45;&gt;Node4</title>
<path fill="none" stroke="midnightblue" d="M643.695,-442.38C630.139,-432.62 612.758,-420.106 601.269,-411.834"/>
<polygon fill="midnightblue" stroke="midnightblue" points="641.79,-445.321 651.95,-448.324 645.88,-439.641 641.79,-445.321"/>
</g>
<!-- Node5 -->
<g id="node5" class="node"><title>Node5</title>
<g id="a_node5"><a xlink:href="arch_2mips64-linux_2odp_2api_2abi_2thread_8h_source.html" target="_top" xlink:title="thread.h">
<polygon fill="white" stroke="black" points="635.5,-392.5 635.5,-411.5 692.5,-411.5 692.5,-392.5 635.5,-392.5"/>
<text text-anchor="middle" x="664" y="-399.5" font-family="Helvetica,sans-Serif" font-size="10.00">thread.h</text>
</a>
</g>
</g>
<!-- Node1&#45;&gt;Node5 -->
<g id="edge4" class="edge"><title>Node1&#45;&gt;Node5</title>
<path fill="none" stroke="midnightblue" d="M664,-437.805C664,-428.91 664,-418.78 664,-411.751"/>
<polygon fill="midnightblue" stroke="midnightblue" points="660.5,-438.083 664,-448.083 667.5,-438.083 660.5,-438.083"/>
</g>
<!-- Node6 -->
<g id="node6" class="node"><title>Node6</title>
<g id="a_node6"><a xlink:href="arch_2power64-linux_2odp_2api_2abi_2thread_8h_source.html" target="_top" xlink:title="thread.h">
<polygon fill="white" stroke="black" points="710.5,-392.5 710.5,-411.5 767.5,-411.5 767.5,-392.5 710.5,-392.5"/>
<text text-anchor="middle" x="739" y="-399.5" font-family="Helvetica,sans-Serif" font-size="10.00">thread.h</text>
</a>
</g>
</g>
<!-- Node1&#45;&gt;Node6 -->
<g id="edge5" class="edge"><title>Node1&#45;&gt;Node6</title>
<path fill="none" stroke="midnightblue" d="M684.305,-442.38C697.861,-432.62 715.242,-420.106 726.731,-411.834"/>
<polygon fill="midnightblue" stroke="midnightblue" points="682.12,-439.641 676.05,-448.324 686.21,-445.321 682.12,-439.641"/>
</g>
<!-- Node7 -->
<g id="node7" class="node"><title>Node7</title>
<g id="a_node7"><a xlink:href="arch_2x86__32-linux_2odp_2api_2abi_2thread_8h_source.html" target="_top" xlink:title="thread.h">
<polygon fill="white" stroke="black" points="785.5,-392.5 785.5,-411.5 842.5,-411.5 842.5,-392.5 785.5,-392.5"/>
<text text-anchor="middle" x="814" y="-399.5" font-family="Helvetica,sans-Serif" font-size="10.00">thread.h</text>
</a>
</g>
</g>
<!-- Node1&#45;&gt;Node7 -->
<g id="edge6" class="edge"><title>Node1&#45;&gt;Node7</title>
<path fill="none" stroke="midnightblue" d="M697.225,-445.039C725.448,-434.879 765.262,-420.546 790.343,-411.516"/>
<polygon fill="midnightblue" stroke="midnightblue" points="695.991,-441.763 687.768,-448.444 698.362,-448.349 695.991,-441.763"/>
</g>
<!-- Node8 -->
<g id="node8" class="node"><title>Node8</title>
<g id="a_node8"><a xlink:href="arch_2x86__64-linux_2odp_2api_2abi_2thread_8h_source.html" target="_top" xlink:title="thread.h">
<polygon fill="white" stroke="black" points="860.5,-392.5 860.5,-411.5 917.5,-411.5 917.5,-392.5 860.5,-392.5"/>
<text text-anchor="middle" x="889" y="-399.5" font-family="Helvetica,sans-Serif" font-size="10.00">thread.h</text>
</a>
</g>
</g>
<!-- Node1&#45;&gt;Node8 -->
<g id="edge7" class="edge"><title>Node1&#45;&gt;Node8</title>
<path fill="none" stroke="midnightblue" d="M702.801,-447.757C740.821,-438.688 800.41,-424.449 852,-412 854.699,-411.349 857.508,-410.669 860.319,-409.987"/>
<polygon fill="midnightblue" stroke="midnightblue" points="701.589,-444.447 692.673,-450.171 703.212,-451.256 701.589,-444.447"/>
</g>
<!-- Node9 -->
<g id="node9" class="node"><title>Node9</title>
<g id="a_node9"><a xlink:href="api_2thread_8h.html" target="_top" xlink:title="ODP thread API. ">
<polygon fill="white" stroke="black" points="860.5,-336.5 860.5,-355.5 917.5,-355.5 917.5,-336.5 860.5,-336.5"/>
<text text-anchor="middle" x="889" y="-343.5" font-family="Helvetica,sans-Serif" font-size="10.00">thread.h</text>
</a>
</g>
</g>
<!-- Node8&#45;&gt;Node9 -->
<g id="edge8" class="edge"><title>Node8&#45;&gt;Node9</title>
<path fill="none" stroke="midnightblue" d="M889,-381.805C889,-372.91 889,-362.78 889,-355.751"/>
<polygon fill="midnightblue" stroke="midnightblue" points="885.5,-382.083 889,-392.083 892.5,-382.083 885.5,-382.083"/>
</g>
<!-- Node10 -->
<g id="node10" class="node"><title>Node10</title>
<g id="a_node10"><a xlink:href="api_2abi-default_2rwlock__recursive_8h.html" target="_top" xlink:title="ODP recursive read/write lock. ">
<polygon fill="white" stroke="black" points="427,-280.5 427,-299.5 531,-299.5 531,-280.5 427,-280.5"/>
<text text-anchor="middle" x="479" y="-287.5" font-family="Helvetica,sans-Serif" font-size="10.00">rwlock_recursive.h</text>
</a>
</g>
</g>
<!-- Node9&#45;&gt;Node10 -->
<g id="edge9" class="edge"><title>Node9&#45;&gt;Node10</title>
<path fill="none" stroke="midnightblue" d="M850.232,-339.894C776.24,-330.149 614.834,-308.89 531.348,-297.895"/>
<polygon fill="midnightblue" stroke="midnightblue" points="850.124,-343.41 860.495,-341.246 851.038,-336.47 850.124,-343.41"/>
</g>
<!-- Node19 -->
<g id="node19" class="node"><title>Node19</title>
<g id="a_node19"><a xlink:href="odp__api_8h.html" target="_top" xlink:title="The OpenDataPlane API. ">
<polygon fill="white" stroke="black" points="882.5,-56.5 882.5,-75.5 945.5,-75.5 945.5,-56.5 882.5,-56.5"/>
<text text-anchor="middle" x="914" y="-63.5" font-family="Helvetica,sans-Serif" font-size="10.00">odp_api.h</text>
</a>
</g>
</g>
<!-- Node9&#45;&gt;Node19 -->
<g id="edge28" class="edge"><title>Node9&#45;&gt;Node19</title>
<path fill="none" stroke="midnightblue" d="M882.238,-326.808C874.834,-305.226 864,-268.005 864,-235 864,-235 864,-235 864,-177 864,-135.884 893.309,-93.2469 907.048,-75.5193"/>
<polygon fill="midnightblue" stroke="midnightblue" points="878.972,-328.07 885.628,-336.313 885.565,-325.718 878.972,-328.07"/>
</g>
<!-- Node21 -->
<g id="node21" class="node"><title>Node21</title>
<g id="a_node21"><a xlink:href="api_2cpu_8h.html" target="_top" xlink:title="ODP CPU. ">
<polygon fill="white" stroke="black" points="892.5,-168.5 892.5,-187.5 935.5,-187.5 935.5,-168.5 892.5,-168.5"/>
<text text-anchor="middle" x="914" y="-175.5" font-family="Helvetica,sans-Serif" font-size="10.00">cpu.h</text>
</a>
</g>
</g>
<!-- Node9&#45;&gt;Node21 -->
<g id="edge20" class="edge"><title>Node9&#45;&gt;Node21</title>
<path fill="none" stroke="midnightblue" d="M891.872,-325.93C897.295,-289.92 908.845,-213.231 912.71,-187.568"/>
<polygon fill="midnightblue" stroke="midnightblue" points="888.372,-325.665 890.344,-336.075 895.294,-326.708 888.372,-325.665"/>
</g>
<!-- Node22 -->
<g id="node22" class="node"><title>Node22</title>
<g id="a_node22"><a xlink:href="api_2spec_2init_8h.html" target="_top" xlink:title="init.h">
<polygon fill="white" stroke="black" points="937,-280.5 937,-299.5 977,-299.5 977,-280.5 937,-280.5"/>
<text text-anchor="middle" x="957" y="-287.5" font-family="Helvetica,sans-Serif" font-size="10.00">init.h</text>
</a>
</g>
</g>
<!-- Node9&#45;&gt;Node22 -->
<g id="edge22" class="edge"><title>Node9&#45;&gt;Node22</title>
<path fill="none" stroke="midnightblue" d="M907.762,-330.101C920,-320.382 935.559,-308.027 945.876,-299.834"/>
<polygon fill="midnightblue" stroke="midnightblue" points="905.58,-327.364 899.925,-336.324 909.933,-332.846 905.58,-327.364"/>
</g>
<!-- Node11 -->
<g id="node11" class="node"><title>Node11</title>
<g id="a_node11"><a xlink:href="arch_2arm32-linux_2odp_2api_2abi_2rwlock__recursive_8h_source.html" target="_top" xlink:title="rwlock_recursive.h">
<polygon fill="white" stroke="black" points="0,-224.5 0,-243.5 104,-243.5 104,-224.5 0,-224.5"/>
<text text-anchor="middle" x="52" y="-231.5" font-family="Helvetica,sans-Serif" font-size="10.00">rwlock_recursive.h</text>
</a>
</g>
</g>
<!-- Node10&#45;&gt;Node11 -->
<g id="edge10" class="edge"><title>Node10&#45;&gt;Node11</title>
<path fill="none" stroke="midnightblue" d="M416.446,-281.775C343.529,-273.244 219.425,-258.391 113,-244 110.136,-243.613 107.197,-243.207 104.232,-242.791"/>
<polygon fill="midnightblue" stroke="midnightblue" points="416.486,-285.303 426.825,-282.987 417.298,-278.35 416.486,-285.303"/>
</g>
<!-- Node12 -->
<g id="node12" class="node"><title>Node12</title>
<g id="a_node12"><a xlink:href="arch_2arm64-linux_2odp_2api_2abi_2rwlock__recursive_8h_source.html" target="_top" xlink:title="rwlock_recursive.h">
<polygon fill="white" stroke="black" points="122,-224.5 122,-243.5 226,-243.5 226,-224.5 122,-224.5"/>
<text text-anchor="middle" x="174" y="-231.5" font-family="Helvetica,sans-Serif" font-size="10.00">rwlock_recursive.h</text>
</a>
</g>
</g>
<!-- Node10&#45;&gt;Node12 -->
<g id="edge11" class="edge"><title>Node10&#45;&gt;Node12</title>
<path fill="none" stroke="midnightblue" d="M420.622,-278.664C362.982,-268.459 275.885,-253.039 222.102,-243.516"/>
<polygon fill="midnightblue" stroke="midnightblue" points="420.215,-282.146 430.672,-280.444 421.435,-275.254 420.215,-282.146"/>
</g>
<!-- Node13 -->
<g id="node13" class="node"><title>Node13</title>
<g id="a_node13"><a xlink:href="arch_2default-linux_2odp_2api_2abi_2rwlock__recursive_8h_source.html" target="_top" xlink:title="rwlock_recursive.h">
<polygon fill="white" stroke="black" points="244,-224.5 244,-243.5 348,-243.5 348,-224.5 244,-224.5"/>
<text text-anchor="middle" x="296" y="-231.5" font-family="Helvetica,sans-Serif" font-size="10.00">rwlock_recursive.h</text>
</a>
</g>
</g>
<!-- Node10&#45;&gt;Node13 -->
<g id="edge12" class="edge"><title>Node10&#45;&gt;Node13</title>
<path fill="none" stroke="midnightblue" d="M440.257,-277.568C405.735,-267.381 355.995,-252.703 324.861,-243.516"/>
<polygon fill="midnightblue" stroke="midnightblue" points="439.421,-280.97 450.003,-280.444 441.403,-274.256 439.421,-280.97"/>
</g>
<!-- Node14 -->
<g id="node14" class="node"><title>Node14</title>
<g id="a_node14"><a xlink:href="arch_2mips64-linux_2odp_2api_2abi_2rwlock__recursive_8h_source.html" target="_top" xlink:title="rwlock_recursive.h">
<polygon fill="white" stroke="black" points="366,-224.5 366,-243.5 470,-243.5 470,-224.5 366,-224.5"/>
<text text-anchor="middle" x="418" y="-231.5" font-family="Helvetica,sans-Serif" font-size="10.00">rwlock_recursive.h</text>
</a>
</g>
</g>
<!-- Node10&#45;&gt;Node14 -->
<g id="edge13" class="edge"><title>Node10&#45;&gt;Node14</title>
<path fill="none" stroke="midnightblue" d="M461.533,-273.537C450.656,-263.909 437.056,-251.869 427.979,-243.834"/>
<polygon fill="midnightblue" stroke="midnightblue" points="459.392,-276.316 469.199,-280.324 464.032,-271.075 459.392,-276.316"/>
</g>
<!-- Node15 -->
<g id="node15" class="node"><title>Node15</title>
<g id="a_node15"><a xlink:href="arch_2power64-linux_2odp_2api_2abi_2rwlock__recursive_8h_source.html" target="_top" xlink:title="rwlock_recursive.h">
<polygon fill="white" stroke="black" points="488,-224.5 488,-243.5 592,-243.5 592,-224.5 488,-224.5"/>
<text text-anchor="middle" x="540" y="-231.5" font-family="Helvetica,sans-Serif" font-size="10.00">rwlock_recursive.h</text>
</a>
</g>
</g>
<!-- Node10&#45;&gt;Node15 -->
<g id="edge14" class="edge"><title>Node10&#45;&gt;Node15</title>
<path fill="none" stroke="midnightblue" d="M496.467,-273.537C507.344,-263.909 520.944,-251.869 530.021,-243.834"/>
<polygon fill="midnightblue" stroke="midnightblue" points="493.968,-271.075 488.801,-280.324 498.608,-276.316 493.968,-271.075"/>
</g>
<!-- Node16 -->
<g id="node16" class="node"><title>Node16</title>
<g id="a_node16"><a xlink:href="arch_2x86__32-linux_2odp_2api_2abi_2rwlock__recursive_8h_source.html" target="_top" xlink:title="rwlock_recursive.h">
<polygon fill="white" stroke="black" points="610,-224.5 610,-243.5 714,-243.5 714,-224.5 610,-224.5"/>
<text text-anchor="middle" x="662" y="-231.5" font-family="Helvetica,sans-Serif" font-size="10.00">rwlock_recursive.h</text>
</a>
</g>
</g>
<!-- Node10&#45;&gt;Node16 -->
<g id="edge15" class="edge"><title>Node10&#45;&gt;Node16</title>
<path fill="none" stroke="midnightblue" d="M517.743,-277.568C552.265,-267.381 602.005,-252.703 633.139,-243.516"/>
<polygon fill="midnightblue" stroke="midnightblue" points="516.597,-274.256 507.997,-280.444 518.579,-280.97 516.597,-274.256"/>
</g>
<!-- Node17 -->
<g id="node17" class="node"><title>Node17</title>
<g id="a_node17"><a xlink:href="arch_2x86__64-linux_2odp_2api_2abi_2rwlock__recursive_8h_source.html" target="_top" xlink:title="rwlock_recursive.h">
<polygon fill="white" stroke="black" points="732,-224.5 732,-243.5 836,-243.5 836,-224.5 732,-224.5"/>
<text text-anchor="middle" x="784" y="-231.5" font-family="Helvetica,sans-Serif" font-size="10.00">rwlock_recursive.h</text>
</a>
</g>
</g>
<!-- Node10&#45;&gt;Node17 -->
<g id="edge16" class="edge"><title>Node10&#45;&gt;Node17</title>
<path fill="none" stroke="midnightblue" d="M537.378,-278.664C595.018,-268.459 682.115,-253.039 735.898,-243.516"/>
<polygon fill="midnightblue" stroke="midnightblue" points="536.565,-275.254 527.328,-280.444 537.785,-282.146 536.565,-275.254"/>
</g>
<!-- Node18 -->
<g id="node18" class="node"><title>Node18</title>
<g id="a_node18"><a xlink:href="api_2rwlock__recursive_8h.html" target="_top" xlink:title="ODP resursive read/write lock. ">
<polygon fill="white" stroke="black" points="732,-112.5 732,-131.5 836,-131.5 836,-112.5 732,-112.5"/>
<text text-anchor="middle" x="784" y="-119.5" font-family="Helvetica,sans-Serif" font-size="10.00">rwlock_recursive.h</text>
</a>
</g>
</g>
<!-- Node17&#45;&gt;Node18 -->
<g id="edge17" class="edge"><title>Node17&#45;&gt;Node18</title>
<path fill="none" stroke="midnightblue" d="M784,-214.348C784,-190.254 784,-149.308 784,-131.591"/>
<polygon fill="midnightblue" stroke="midnightblue" points="780.5,-214.368 784,-224.368 787.5,-214.369 780.5,-214.368"/>
</g>
<!-- Node18&#45;&gt;Node19 -->
<g id="edge18" class="edge"><title>Node18&#45;&gt;Node19</title>
<path fill="none" stroke="midnightblue" d="M814.085,-108.503C838.457,-98.3795 872.14,-84.388 893.497,-75.5164"/>
<polygon fill="midnightblue" stroke="midnightblue" points="812.491,-105.375 804.599,-112.444 815.177,-111.84 812.491,-105.375"/>
</g>
<!-- Node20 -->
<g id="node20" class="node"><title>Node20</title>
<g id="a_node20"><a xlink:href="odp_8h.html" target="_top" xlink:title="WARNING: THIS FILE IS DEPRECATED AND WILL BE REMOVED!!! ODP APPLICATIONS SHOULD NOW INCLUDE odp_api...">
<polygon fill="white" stroke="black" points="892,-0.5 892,-19.5 936,-19.5 936,-0.5 892,-0.5"/>
<text text-anchor="middle" x="914" y="-7.5" font-family="Helvetica,sans-Serif" font-size="10.00">odp.h</text>
</a>
</g>
</g>
<!-- Node19&#45;&gt;Node20 -->
<g id="edge19" class="edge"><title>Node19&#45;&gt;Node20</title>
<path fill="none" stroke="midnightblue" d="M914,-45.8045C914,-36.9102 914,-26.7798 914,-19.7511"/>
<polygon fill="midnightblue" stroke="midnightblue" points="910.5,-46.083 914,-56.083 917.5,-46.083 910.5,-46.083"/>
</g>
<!-- Node21&#45;&gt;Node19 -->
<g id="edge21" class="edge"><title>Node21&#45;&gt;Node19</title>
<path fill="none" stroke="midnightblue" d="M914,-158.348C914,-134.254 914,-93.3079 914,-75.5914"/>
<polygon fill="midnightblue" stroke="midnightblue" points="910.5,-158.368 914,-168.368 917.5,-158.369 910.5,-158.368"/>
</g>
<!-- Node23 -->
<g id="node23" class="node"><title>Node23</title>
<g id="a_node23"><a xlink:href="api_2init_8h.html" target="_top" xlink:title="ODP initialization. ">
<polygon fill="white" stroke="black" points="944,-224.5 944,-243.5 984,-243.5 984,-224.5 944,-224.5"/>
<text text-anchor="middle" x="964" y="-231.5" font-family="Helvetica,sans-Serif" font-size="10.00">init.h</text>
</a>
</g>
</g>
<!-- Node22&#45;&gt;Node23 -->
<g id="edge23" class="edge"><title>Node22&#45;&gt;Node23</title>
<path fill="none" stroke="midnightblue" d="M959.45,-270.101C960.612,-261.136 961.944,-250.858 962.866,-243.751"/>
<polygon fill="midnightblue" stroke="midnightblue" points="955.971,-269.716 958.156,-280.083 962.912,-270.616 955.971,-269.716"/>
</g>
<!-- Node23&#45;&gt;Node19 -->
<g id="edge27" class="edge"><title>Node23&#45;&gt;Node19</title>
<path fill="none" stroke="midnightblue" d="M958.651,-214.511C954.871,-201.495 949.668,-183.669 945,-168 937.573,-143.072 935.641,-136.863 928,-112 924.106,-99.3303 919.534,-84.6753 916.702,-75.6213"/>
<polygon fill="midnightblue" stroke="midnightblue" points="955.302,-215.53 961.447,-224.16 962.025,-213.581 955.302,-215.53"/>
</g>
<!-- Node24 -->
<g id="node24" class="node"><title>Node24</title>
<g id="a_node24"><a xlink:href="api_2spec_2shared__memory_8h.html" target="_top" xlink:title="ODP shared memory. ">
<polygon fill="white" stroke="black" points="992.5,-168.5 992.5,-187.5 1095.5,-187.5 1095.5,-168.5 992.5,-168.5"/>
<text text-anchor="middle" x="1044" y="-175.5" font-family="Helvetica,sans-Serif" font-size="10.00">shared_memory.h</text>
</a>
</g>
</g>
<!-- Node23&#45;&gt;Node24 -->
<g id="edge24" class="edge"><title>Node23&#45;&gt;Node24</title>
<path fill="none" stroke="midnightblue" d="M985.301,-218.622C999.915,-208.757 1018.83,-195.992 1031.18,-187.655"/>
<polygon fill="midnightblue" stroke="midnightblue" points="983.184,-215.828 976.853,-224.324 987.1,-221.63 983.184,-215.828"/>
</g>
<!-- Node25 -->
<g id="node25" class="node"><title>Node25</title>
<g id="a_node25"><a xlink:href="api_2shared__memory_8h.html" target="_top" xlink:title="ODP shared memory. ">
<polygon fill="white" stroke="black" points="992.5,-112.5 992.5,-131.5 1095.5,-131.5 1095.5,-112.5 992.5,-112.5"/>
<text text-anchor="middle" x="1044" y="-119.5" font-family="Helvetica,sans-Serif" font-size="10.00">shared_memory.h</text>
</a>
</g>
</g>
<!-- Node24&#45;&gt;Node25 -->
<g id="edge25" class="edge"><title>Node24&#45;&gt;Node25</title>
<path fill="none" stroke="midnightblue" d="M1044,-157.805C1044,-148.91 1044,-138.78 1044,-131.751"/>
<polygon fill="midnightblue" stroke="midnightblue" points="1040.5,-158.083 1044,-168.083 1047.5,-158.083 1040.5,-158.083"/>
</g>
<!-- Node25&#45;&gt;Node19 -->
<g id="edge26" class="edge"><title>Node25&#45;&gt;Node19</title>
<path fill="none" stroke="midnightblue" d="M1013.91,-108.503C989.543,-98.3795 955.86,-84.388 934.503,-75.5164"/>
<polygon fill="midnightblue" stroke="midnightblue" points="1012.82,-111.84 1023.4,-112.444 1015.51,-105.375 1012.82,-111.84"/>
</g>
</g>
</svg>
