<?xml version="1.0" encoding="UTF-8" standalone="no"?>
<!DOCTYPE svg PUBLIC "-//W3C//DTD SVG 1.1//EN"
 "http://www.w3.org/Graphics/SVG/1.1/DTD/svg11.dtd">
<!-- Generated by graphviz version 2.38.0 (20140413.2041)
 -->
<!-- Title: align.h Pages: 1 -->
<svg width="2367pt" height="532pt"
 viewBox="0.00 0.00 2366.50 532.00" xmlns="http://www.w3.org/2000/svg" xmlns:xlink="http://www.w3.org/1999/xlink">
<g id="graph0" class="graph" transform="scale(1 1) rotate(0) translate(4 528)">
<title>align.h</title>
<polygon fill="white" stroke="none" points="-4,4 -4,-528 2362.5,-528 2362.5,4 -4,4"/>
<!-- Node3 -->
<g id="node1" class="node"><title>Node3</title>
<polygon fill="#bfbfbf" stroke="black" points="1715,-504.5 1715,-523.5 1763,-523.5 1763,-504.5 1715,-504.5"/>
<text text-anchor="middle" x="1739" y="-511.5" font-family="Helvetica,sans-Serif" font-size="10.00">align.h</text>
</g>
<!-- Node4 -->
<g id="node2" class="node"><title>Node4</title>
<g id="a_node2"><a xlink:href="api_2align_8h.html" target="_top" xlink:title="ODP alignments. ">
<polygon fill="white" stroke="black" points="1715,-448.5 1715,-467.5 1763,-467.5 1763,-448.5 1715,-448.5"/>
<text text-anchor="middle" x="1739" y="-455.5" font-family="Helvetica,sans-Serif" font-size="10.00">align.h</text>
</a>
</g>
</g>
<!-- Node3&#45;&gt;Node4 -->
<g id="edge1" class="edge"><title>Node3&#45;&gt;Node4</title>
<path fill="none" stroke="midnightblue" d="M1739,-493.805C1739,-484.91 1739,-474.78 1739,-467.751"/>
<polygon fill="midnightblue" stroke="midnightblue" points="1735.5,-494.083 1739,-504.083 1742.5,-494.083 1735.5,-494.083"/>
</g>
<!-- Node5 -->
<g id="node3" class="node"><title>Node5</title>
<g id="a_node3"><a xlink:href="api_2abi-default_2atomic_8h.html" target="_top" xlink:title="ODP atomic operations. ">
<polygon fill="white" stroke="black" points="902.5,-392.5 902.5,-411.5 961.5,-411.5 961.5,-392.5 902.5,-392.5"/>
<text text-anchor="middle" x="932" y="-399.5" font-family="Helvetica,sans-Serif" font-size="10.00">atomic.h</text>
</a>
</g>
</g>
<!-- Node4&#45;&gt;Node5 -->
<g id="edge2" class="edge"><title>Node4&#45;&gt;Node5</title>
<path fill="none" stroke="midnightblue" d="M1704.8,-454.711C1571.4,-445.785 1087.27,-413.39 961.841,-404.997"/>
<polygon fill="midnightblue" stroke="midnightblue" points="1704.64,-458.208 1714.85,-455.384 1705.1,-451.224 1704.64,-458.208"/>
</g>
<!-- Node23 -->
<g id="node21" class="node"><title>Node23</title>
<g id="a_node21"><a xlink:href="odp__api_8h.html" target="_top" xlink:title="The OpenDataPlane API. ">
<polygon fill="white" stroke="black" points="1120.5,-56.5 1120.5,-75.5 1183.5,-75.5 1183.5,-56.5 1120.5,-56.5"/>
<text text-anchor="middle" x="1152" y="-63.5" font-family="Helvetica,sans-Serif" font-size="10.00">odp_api.h</text>
</a>
</g>
</g>
<!-- Node4&#45;&gt;Node23 -->
<g id="edge53" class="edge"><title>Node4&#45;&gt;Node23</title>
<path fill="none" stroke="midnightblue" d="M1739,-438.251C1739,-416.357 1739,-379.052 1739,-347 1739,-347 1739,-347 1739,-177 1739,-119.974 1305.49,-79.7236 1183.56,-69.5309"/>
<polygon fill="midnightblue" stroke="midnightblue" points="1735.5,-438.442 1739,-448.442 1742.5,-438.442 1735.5,-438.442"/>
</g>
<!-- Node52 -->
<g id="node39" class="node"><title>Node52</title>
<g id="a_node39"><a xlink:href="api_2abi-default_2cpumask_8h.html" target="_top" xlink:title="ODP CPU masks and enumeration. ">
<polygon fill="white" stroke="black" points="1984.5,-392.5 1984.5,-411.5 2053.5,-411.5 2053.5,-392.5 1984.5,-392.5"/>
<text text-anchor="middle" x="2019" y="-399.5" font-family="Helvetica,sans-Serif" font-size="10.00">cpumask.h</text>
</a>
</g>
</g>
<!-- Node4&#45;&gt;Node52 -->
<g id="edge40" class="edge"><title>Node4&#45;&gt;Node52</title>
<path fill="none" stroke="midnightblue" d="M1773.41,-450.365C1827.08,-440.012 1930.19,-420.128 1984.14,-409.723"/>
<polygon fill="midnightblue" stroke="midnightblue" points="1772.51,-446.972 1763.36,-452.302 1773.84,-453.845 1772.51,-446.972"/>
</g>
<!-- Node6 -->
<g id="node4" class="node"><title>Node6</title>
<g id="a_node4"><a xlink:href="arch_2arm32-linux_2odp_2api_2abi_2atomic_8h_source.html" target="_top" xlink:title="atomic.h">
<polygon fill="white" stroke="black" points="632.5,-336.5 632.5,-355.5 691.5,-355.5 691.5,-336.5 632.5,-336.5"/>
<text text-anchor="middle" x="662" y="-343.5" font-family="Helvetica,sans-Serif" font-size="10.00">atomic.h</text>
</a>
</g>
</g>
<!-- Node5&#45;&gt;Node6 -->
<g id="edge3" class="edge"><title>Node5&#45;&gt;Node6</title>
<path fill="none" stroke="midnightblue" d="M892.334,-393.818C846.061,-385.321 767.307,-370.492 700,-356 697.349,-355.429 694.598,-354.817 691.845,-354.19"/>
<polygon fill="midnightblue" stroke="midnightblue" points="891.79,-397.276 902.256,-395.634 893.05,-390.39 891.79,-397.276"/>
</g>
<!-- Node7 -->
<g id="node5" class="node"><title>Node7</title>
<g id="a_node5"><a xlink:href="arch_2arm64-linux_2odp_2api_2abi_2atomic_8h_source.html" target="_top" xlink:title="atomic.h">
<polygon fill="white" stroke="black" points="709.5,-336.5 709.5,-355.5 768.5,-355.5 768.5,-336.5 709.5,-336.5"/>
<text text-anchor="middle" x="739" y="-343.5" font-family="Helvetica,sans-Serif" font-size="10.00">atomic.h</text>
</a>
</g>
</g>
<!-- Node5&#45;&gt;Node7 -->
<g id="edge4" class="edge"><title>Node5&#45;&gt;Node7</title>
<path fill="none" stroke="midnightblue" d="M892.401,-389.92C855.705,-379.653 801.933,-364.608 768.767,-355.329"/>
<polygon fill="midnightblue" stroke="midnightblue" points="891.693,-393.357 902.267,-392.681 893.58,-386.616 891.693,-393.357"/>
</g>
<!-- Node8 -->
<g id="node6" class="node"><title>Node8</title>
<g id="a_node6"><a xlink:href="arch_2default-linux_2odp_2api_2abi_2atomic_8h_source.html" target="_top" xlink:title="atomic.h">
<polygon fill="white" stroke="black" points="786.5,-336.5 786.5,-355.5 845.5,-355.5 845.5,-336.5 786.5,-336.5"/>
<text text-anchor="middle" x="816" y="-343.5" font-family="Helvetica,sans-Serif" font-size="10.00">atomic.h</text>
</a>
</g>
</g>
<!-- Node5&#45;&gt;Node8 -->
<g id="edge5" class="edge"><title>Node5&#45;&gt;Node8</title>
<path fill="none" stroke="midnightblue" d="M904.28,-388.096C882.608,-378.007 853.098,-364.27 834.295,-355.516"/>
<polygon fill="midnightblue" stroke="midnightblue" points="903.077,-391.396 913.619,-392.444 906.031,-385.05 903.077,-391.396"/>
</g>
<!-- Node9 -->
<g id="node7" class="node"><title>Node9</title>
<g id="a_node7"><a xlink:href="arch_2mips64-linux_2odp_2api_2abi_2atomic_8h_source.html" target="_top" xlink:title="atomic.h">
<polygon fill="white" stroke="black" points="863.5,-336.5 863.5,-355.5 922.5,-355.5 922.5,-336.5 863.5,-336.5"/>
<text text-anchor="middle" x="893" y="-343.5" font-family="Helvetica,sans-Serif" font-size="10.00">atomic.h</text>
</a>
</g>
</g>
<!-- Node5&#45;&gt;Node9 -->
<g id="edge6" class="edge"><title>Node5&#45;&gt;Node9</title>
<path fill="none" stroke="midnightblue" d="M919.618,-383.855C912.865,-374.505 904.791,-363.327 899.32,-355.751"/>
<polygon fill="midnightblue" stroke="midnightblue" points="916.868,-386.025 925.56,-392.083 922.542,-381.927 916.868,-386.025"/>
</g>
<!-- Node10 -->
<g id="node8" class="node"><title>Node10</title>
<g id="a_node8"><a xlink:href="arch_2power64-linux_2odp_2api_2abi_2atomic_8h_source.html" target="_top" xlink:title="atomic.h">
<polygon fill="white" stroke="black" points="940.5,-336.5 940.5,-355.5 999.5,-355.5 999.5,-336.5 940.5,-336.5"/>
<text text-anchor="middle" x="970" y="-343.5" font-family="Helvetica,sans-Serif" font-size="10.00">atomic.h</text>
</a>
</g>
</g>
<!-- Node5&#45;&gt;Node10 -->
<g id="edge7" class="edge"><title>Node5&#45;&gt;Node10</title>
<path fill="none" stroke="midnightblue" d="M944.065,-383.855C950.645,-374.505 958.511,-363.327 963.842,-355.751"/>
<polygon fill="midnightblue" stroke="midnightblue" points="941.168,-381.891 938.275,-392.083 946.892,-385.919 941.168,-381.891"/>
</g>
<!-- Node11 -->
<g id="node9" class="node"><title>Node11</title>
<g id="a_node9"><a xlink:href="arch_2x86__32-linux_2odp_2api_2abi_2atomic_8h_source.html" target="_top" xlink:title="atomic.h">
<polygon fill="white" stroke="black" points="1017.5,-336.5 1017.5,-355.5 1076.5,-355.5 1076.5,-336.5 1017.5,-336.5"/>
<text text-anchor="middle" x="1047" y="-343.5" font-family="Helvetica,sans-Serif" font-size="10.00">atomic.h</text>
</a>
</g>
</g>
<!-- Node5&#45;&gt;Node11 -->
<g id="edge8" class="edge"><title>Node5&#45;&gt;Node11</title>
<path fill="none" stroke="midnightblue" d="M959.481,-388.096C980.966,-378.007 1010.22,-364.27 1028.86,-355.516"/>
<polygon fill="midnightblue" stroke="midnightblue" points="957.786,-385.025 950.222,-392.444 960.762,-391.361 957.786,-385.025"/>
</g>
<!-- Node12 -->
<g id="node10" class="node"><title>Node12</title>
<g id="a_node10"><a xlink:href="arch_2x86__64-linux_2odp_2api_2abi_2atomic_8h_source.html" target="_top" xlink:title="atomic.h">
<polygon fill="white" stroke="black" points="1094.5,-336.5 1094.5,-355.5 1153.5,-355.5 1153.5,-336.5 1094.5,-336.5"/>
<text text-anchor="middle" x="1124" y="-343.5" font-family="Helvetica,sans-Serif" font-size="10.00">atomic.h</text>
</a>
</g>
</g>
<!-- Node5&#45;&gt;Node12 -->
<g id="edge9" class="edge"><title>Node5&#45;&gt;Node12</title>
<path fill="none" stroke="midnightblue" d="M971.394,-389.92C1007.9,-379.653 1061.39,-364.608 1094.39,-355.329"/>
<polygon fill="midnightblue" stroke="midnightblue" points="970.258,-386.604 961.579,-392.681 972.153,-393.343 970.258,-386.604"/>
</g>
<!-- Node13 -->
<g id="node11" class="node"><title>Node13</title>
<g id="a_node11"><a xlink:href="api_2atomic_8h.html" target="_top" xlink:title="ODP atomic operations. ">
<polygon fill="white" stroke="black" points="637.5,-280.5 637.5,-299.5 696.5,-299.5 696.5,-280.5 637.5,-280.5"/>
<text text-anchor="middle" x="667" y="-287.5" font-family="Helvetica,sans-Serif" font-size="10.00">atomic.h</text>
</a>
</g>
</g>
<!-- Node12&#45;&gt;Node13 -->
<g id="edge10" class="edge"><title>Node12&#45;&gt;Node13</title>
<path fill="none" stroke="midnightblue" d="M1084.3,-335.884C933.562,-310.575 763.942,-297.482 696.64,-292.898"/>
<polygon fill="midnightblue" stroke="midnightblue" points="1083.76,-339.342 1094.2,-337.569 1084.93,-332.441 1083.76,-339.342"/>
</g>
<!-- Node14 -->
<g id="node12" class="node"><title>Node14</title>
<g id="a_node12"><a xlink:href="api_2abi-default_2barrier_8h.html" target="_top" xlink:title="ODP barrier. ">
<polygon fill="white" stroke="black" points="259,-224.5 259,-243.5 315,-243.5 315,-224.5 259,-224.5"/>
<text text-anchor="middle" x="287" y="-231.5" font-family="Helvetica,sans-Serif" font-size="10.00">barrier.h</text>
</a>
</g>
</g>
<!-- Node13&#45;&gt;Node14 -->
<g id="edge11" class="edge"><title>Node13&#45;&gt;Node14</title>
<path fill="none" stroke="midnightblue" d="M627.242,-283.35C550.136,-272.393 381.998,-248.5 315.188,-239.006"/>
<polygon fill="midnightblue" stroke="midnightblue" points="627.105,-286.866 637.498,-284.808 628.09,-279.935 627.105,-286.866"/>
</g>
<!-- Node22 -->
<g id="node20" class="node"><title>Node22</title>
<g id="a_node20"><a xlink:href="api_2barrier_8h.html" target="_top" xlink:title="ODP execution barriers. ">
<polygon fill="white" stroke="black" points="482,-112.5 482,-131.5 538,-131.5 538,-112.5 482,-112.5"/>
<text text-anchor="middle" x="510" y="-119.5" font-family="Helvetica,sans-Serif" font-size="10.00">barrier.h</text>
</a>
</g>
</g>
<!-- Node13&#45;&gt;Node22 -->
<g id="edge38" class="edge"><title>Node13&#45;&gt;Node22</title>
<path fill="none" stroke="midnightblue" d="M627.611,-282.313C602.907,-276.219 572.051,-264.846 552,-244 520.4,-211.146 512.477,-153.318 510.574,-131.582"/>
<polygon fill="midnightblue" stroke="midnightblue" points="626.9,-285.74 637.427,-284.542 628.451,-278.914 626.9,-285.74"/>
</g>
<!-- Node13&#45;&gt;Node23 -->
<g id="edge39" class="edge"><title>Node13&#45;&gt;Node23</title>
<path fill="none" stroke="midnightblue" d="M644.853,-274.708C611.364,-251.372 554.785,-204.073 585,-168 654.42,-85.1215 1011.15,-70.1925 1120.26,-67.5545"/>
<polygon fill="midnightblue" stroke="midnightblue" points="642.958,-277.652 653.2,-280.365 646.886,-271.857 642.958,-277.652"/>
</g>
<!-- Node25 -->
<g id="node23" class="node"><title>Node25</title>
<g id="a_node23"><a xlink:href="api_2abi-default_2rwlock_8h.html" target="_top" xlink:title="ODP rwlock. ">
<polygon fill="white" stroke="black" points="776.5,-224.5 776.5,-243.5 831.5,-243.5 831.5,-224.5 776.5,-224.5"/>
<text text-anchor="middle" x="804" y="-231.5" font-family="Helvetica,sans-Serif" font-size="10.00">rwlock.h</text>
</a>
</g>
</g>
<!-- Node13&#45;&gt;Node25 -->
<g id="edge22" class="edge"><title>Node13&#45;&gt;Node25</title>
<path fill="none" stroke="midnightblue" d="M698.023,-276.772C723.757,-266.629 759.686,-252.467 782.394,-243.516"/>
<polygon fill="midnightblue" stroke="midnightblue" points="696.728,-273.52 688.708,-280.444 699.295,-280.033 696.728,-273.52"/>
</g>
<!-- Node43 -->
<g id="node31" class="node"><title>Node43</title>
<g id="a_node31"><a xlink:href="api_2abi-default_2ticketlock_8h.html" target="_top" xlink:title="ODP ticketlock. ">
<polygon fill="white" stroke="black" points="1327.5,-224.5 1327.5,-243.5 1398.5,-243.5 1398.5,-224.5 1327.5,-224.5"/>
<text text-anchor="middle" x="1363" y="-231.5" font-family="Helvetica,sans-Serif" font-size="10.00">ticketlock.h</text>
</a>
</g>
</g>
<!-- Node13&#45;&gt;Node43 -->
<g id="edge30" class="edge"><title>Node13&#45;&gt;Node43</title>
<path fill="none" stroke="midnightblue" d="M707.115,-285.888C831.397,-276.245 1208.76,-246.967 1327.11,-237.785"/>
<polygon fill="midnightblue" stroke="midnightblue" points="706.606,-282.417 696.906,-286.68 707.147,-289.396 706.606,-282.417"/>
</g>
<!-- Node15 -->
<g id="node13" class="node"><title>Node15</title>
<g id="a_node13"><a xlink:href="arch_2arm32-linux_2odp_2api_2abi_2barrier_8h_source.html" target="_top" xlink:title="barrier.h">
<polygon fill="white" stroke="black" points="0,-168.5 0,-187.5 56,-187.5 56,-168.5 0,-168.5"/>
<text text-anchor="middle" x="28" y="-175.5" font-family="Helvetica,sans-Serif" font-size="10.00">barrier.h</text>
</a>
</g>
</g>
<!-- Node14&#45;&gt;Node15 -->
<g id="edge12" class="edge"><title>Node14&#45;&gt;Node15</title>
<path fill="none" stroke="midnightblue" d="M248.853,-225.732C204.551,-217.184 129.318,-202.336 65,-188 62.1609,-187.367 59.2047,-186.686 56.2555,-185.992"/>
<polygon fill="midnightblue" stroke="midnightblue" points="248.409,-229.211 258.891,-227.663 249.732,-222.337 248.409,-229.211"/>
</g>
<!-- Node16 -->
<g id="node14" class="node"><title>Node16</title>
<g id="a_node14"><a xlink:href="arch_2arm64-linux_2odp_2api_2abi_2barrier_8h_source.html" target="_top" xlink:title="barrier.h">
<polygon fill="white" stroke="black" points="74,-168.5 74,-187.5 130,-187.5 130,-168.5 74,-168.5"/>
<text text-anchor="middle" x="102" y="-175.5" font-family="Helvetica,sans-Serif" font-size="10.00">barrier.h</text>
</a>
</g>
</g>
<!-- Node14&#45;&gt;Node16 -->
<g id="edge13" class="edge"><title>Node14&#45;&gt;Node16</title>
<path fill="none" stroke="midnightblue" d="M248.951,-221.894C213.603,-211.576 161.781,-196.45 130.058,-187.19"/>
<polygon fill="midnightblue" stroke="midnightblue" points="248.322,-225.356 258.902,-224.799 250.284,-218.637 248.322,-225.356"/>
</g>
<!-- Node17 -->
<g id="node15" class="node"><title>Node17</title>
<g id="a_node15"><a xlink:href="arch_2default-linux_2odp_2api_2abi_2barrier_8h_source.html" target="_top" xlink:title="barrier.h">
<polygon fill="white" stroke="black" points="148,-168.5 148,-187.5 204,-187.5 204,-168.5 148,-168.5"/>
<text text-anchor="middle" x="176" y="-175.5" font-family="Helvetica,sans-Serif" font-size="10.00">barrier.h</text>
</a>
</g>
</g>
<!-- Node14&#45;&gt;Node17 -->
<g id="edge14" class="edge"><title>Node14&#45;&gt;Node17</title>
<path fill="none" stroke="midnightblue" d="M259.995,-219.862C239.412,-209.849 211.655,-196.346 193.79,-187.655"/>
<polygon fill="midnightblue" stroke="midnightblue" points="258.642,-223.097 269.166,-224.324 261.705,-216.802 258.642,-223.097"/>
</g>
<!-- Node18 -->
<g id="node16" class="node"><title>Node18</title>
<g id="a_node16"><a xlink:href="arch_2mips64-linux_2odp_2api_2abi_2barrier_8h_source.html" target="_top" xlink:title="barrier.h">
<polygon fill="white" stroke="black" points="222,-168.5 222,-187.5 278,-187.5 278,-168.5 222,-168.5"/>
<text text-anchor="middle" x="250" y="-175.5" font-family="Helvetica,sans-Serif" font-size="10.00">barrier.h</text>
</a>
</g>
</g>
<!-- Node14&#45;&gt;Node18 -->
<g id="edge15" class="edge"><title>Node14&#45;&gt;Node18</title>
<path fill="none" stroke="midnightblue" d="M275.054,-215.566C268.688,-206.275 261.133,-195.248 255.996,-187.751"/>
<polygon fill="midnightblue" stroke="midnightblue" points="272.351,-217.812 280.89,-224.083 278.125,-213.855 272.351,-217.812"/>
</g>
<!-- Node19 -->
<g id="node17" class="node"><title>Node19</title>
<g id="a_node17"><a xlink:href="arch_2power64-linux_2odp_2api_2abi_2barrier_8h_source.html" target="_top" xlink:title="barrier.h">
<polygon fill="white" stroke="black" points="296,-168.5 296,-187.5 352,-187.5 352,-168.5 296,-168.5"/>
<text text-anchor="middle" x="324" y="-175.5" font-family="Helvetica,sans-Serif" font-size="10.00">barrier.h</text>
</a>
</g>
</g>
<!-- Node14&#45;&gt;Node19 -->
<g id="edge16" class="edge"><title>Node14&#45;&gt;Node19</title>
<path fill="none" stroke="midnightblue" d="M298.946,-215.566C305.312,-206.275 312.867,-195.248 318.004,-187.751"/>
<polygon fill="midnightblue" stroke="midnightblue" points="295.875,-213.855 293.11,-224.083 301.649,-217.812 295.875,-213.855"/>
</g>
<!-- Node20 -->
<g id="node18" class="node"><title>Node20</title>
<g id="a_node18"><a xlink:href="arch_2x86__32-linux_2odp_2api_2abi_2barrier_8h_source.html" target="_top" xlink:title="barrier.h">
<polygon fill="white" stroke="black" points="370,-168.5 370,-187.5 426,-187.5 426,-168.5 370,-168.5"/>
<text text-anchor="middle" x="398" y="-175.5" font-family="Helvetica,sans-Serif" font-size="10.00">barrier.h</text>
</a>
</g>
</g>
<!-- Node14&#45;&gt;Node20 -->
<g id="edge17" class="edge"><title>Node14&#45;&gt;Node20</title>
<path fill="none" stroke="midnightblue" d="M314.005,-219.862C334.588,-209.849 362.345,-196.346 380.21,-187.655"/>
<polygon fill="midnightblue" stroke="midnightblue" points="312.295,-216.802 304.834,-224.324 315.358,-223.097 312.295,-216.802"/>
</g>
<!-- Node21 -->
<g id="node19" class="node"><title>Node21</title>
<g id="a_node19"><a xlink:href="arch_2x86__64-linux_2odp_2api_2abi_2barrier_8h_source.html" target="_top" xlink:title="barrier.h">
<polygon fill="white" stroke="black" points="444,-168.5 444,-187.5 500,-187.5 500,-168.5 444,-168.5"/>
<text text-anchor="middle" x="472" y="-175.5" font-family="Helvetica,sans-Serif" font-size="10.00">barrier.h</text>
</a>
</g>
</g>
<!-- Node14&#45;&gt;Node21 -->
<g id="edge18" class="edge"><title>Node14&#45;&gt;Node21</title>
<path fill="none" stroke="midnightblue" d="M325.049,-221.894C360.397,-211.576 412.219,-196.45 443.942,-187.19"/>
<polygon fill="midnightblue" stroke="midnightblue" points="323.716,-218.637 315.098,-224.799 325.678,-225.356 323.716,-218.637"/>
</g>
<!-- Node21&#45;&gt;Node22 -->
<g id="edge19" class="edge"><title>Node21&#45;&gt;Node22</title>
<path fill="none" stroke="midnightblue" d="M484.065,-159.855C490.645,-150.505 498.511,-139.327 503.842,-131.751"/>
<polygon fill="midnightblue" stroke="midnightblue" points="481.168,-157.891 478.275,-168.083 486.892,-161.919 481.168,-157.891"/>
</g>
<!-- Node22&#45;&gt;Node23 -->
<g id="edge20" class="edge"><title>Node22&#45;&gt;Node23</title>
<path fill="none" stroke="midnightblue" d="M548.216,-112.582C549.491,-112.374 550.754,-112.179 552,-112 767.834,-80.9288 1030.63,-70.6087 1120.28,-67.8576"/>
<polygon fill="midnightblue" stroke="midnightblue" points="547.584,-109.139 538.372,-114.373 548.837,-116.026 547.584,-109.139"/>
</g>
<!-- Node24 -->
<g id="node22" class="node"><title>Node24</title>
<g id="a_node22"><a xlink:href="odp_8h.html" target="_top" xlink:title="WARNING: THIS FILE IS DEPRECATED AND WILL BE REMOVED!!! ODP APPLICATIONS SHOULD NOW INCLUDE odp_api...">
<polygon fill="white" stroke="black" points="1130,-0.5 1130,-19.5 1174,-19.5 1174,-0.5 1130,-0.5"/>
<text text-anchor="middle" x="1152" y="-7.5" font-family="Helvetica,sans-Serif" font-size="10.00">odp.h</text>
</a>
</g>
</g>
<!-- Node23&#45;&gt;Node24 -->
<g id="edge21" class="edge"><title>Node23&#45;&gt;Node24</title>
<path fill="none" stroke="midnightblue" d="M1152,-45.8045C1152,-36.9102 1152,-26.7798 1152,-19.7511"/>
<polygon fill="midnightblue" stroke="midnightblue" points="1148.5,-46.083 1152,-56.083 1155.5,-46.083 1148.5,-46.083"/>
</g>
<!-- Node26 -->
<g id="node24" class="node"><title>Node26</title>
<g id="a_node24"><a xlink:href="arch_2arm32-linux_2odp_2api_2abi_2rwlock_8h_source.html" target="_top" xlink:title="rwlock.h">
<polygon fill="white" stroke="black" points="594.5,-168.5 594.5,-187.5 649.5,-187.5 649.5,-168.5 594.5,-168.5"/>
<text text-anchor="middle" x="622" y="-175.5" font-family="Helvetica,sans-Serif" font-size="10.00">rwlock.h</text>
</a>
</g>
</g>
<!-- Node25&#45;&gt;Node26 -->
<g id="edge23" class="edge"><title>Node25&#45;&gt;Node26</title>
<path fill="none" stroke="midnightblue" d="M766.568,-221.894C731.793,-211.576 680.812,-196.45 649.603,-187.19"/>
<polygon fill="midnightblue" stroke="midnightblue" points="765.776,-225.309 776.358,-224.799 767.767,-218.599 765.776,-225.309"/>
</g>
<!-- Node27 -->
<g id="node25" class="node"><title>Node27</title>
<g id="a_node25"><a xlink:href="arch_2arm64-linux_2odp_2api_2abi_2rwlock_8h_source.html" target="_top" xlink:title="rwlock.h">
<polygon fill="white" stroke="black" points="667.5,-168.5 667.5,-187.5 722.5,-187.5 722.5,-168.5 667.5,-168.5"/>
<text text-anchor="middle" x="695" y="-175.5" font-family="Helvetica,sans-Serif" font-size="10.00">rwlock.h</text>
</a>
</g>
</g>
<!-- Node25&#45;&gt;Node27 -->
<g id="edge24" class="edge"><title>Node25&#45;&gt;Node27</title>
<path fill="none" stroke="midnightblue" d="M777.481,-219.862C757.27,-209.849 730.013,-196.346 712.469,-187.655"/>
<polygon fill="midnightblue" stroke="midnightblue" points="775.973,-223.021 786.487,-224.324 779.08,-216.748 775.973,-223.021"/>
</g>
<!-- Node28 -->
<g id="node26" class="node"><title>Node28</title>
<g id="a_node26"><a xlink:href="arch_2default-linux_2odp_2api_2abi_2rwlock_8h_source.html" target="_top" xlink:title="rwlock.h">
<polygon fill="white" stroke="black" points="740.5,-168.5 740.5,-187.5 795.5,-187.5 795.5,-168.5 740.5,-168.5"/>
<text text-anchor="middle" x="768" y="-175.5" font-family="Helvetica,sans-Serif" font-size="10.00">rwlock.h</text>
</a>
</g>
</g>
<!-- Node25&#45;&gt;Node28 -->
<g id="edge25" class="edge"><title>Node25&#45;&gt;Node28</title>
<path fill="none" stroke="midnightblue" d="M792.377,-215.566C786.183,-206.275 778.832,-195.248 773.834,-187.751"/>
<polygon fill="midnightblue" stroke="midnightblue" points="789.596,-217.704 798.055,-224.083 795.42,-213.821 789.596,-217.704"/>
</g>
<!-- Node29 -->
<g id="node27" class="node"><title>Node29</title>
<g id="a_node27"><a xlink:href="arch_2mips64-linux_2odp_2api_2abi_2rwlock_8h_source.html" target="_top" xlink:title="rwlock.h">
<polygon fill="white" stroke="black" points="813.5,-168.5 813.5,-187.5 868.5,-187.5 868.5,-168.5 813.5,-168.5"/>
<text text-anchor="middle" x="841" y="-175.5" font-family="Helvetica,sans-Serif" font-size="10.00">rwlock.h</text>
</a>
</g>
</g>
<!-- Node25&#45;&gt;Node29 -->
<g id="edge26" class="edge"><title>Node25&#45;&gt;Node29</title>
<path fill="none" stroke="midnightblue" d="M815.946,-215.566C822.312,-206.275 829.867,-195.248 835.004,-187.751"/>
<polygon fill="midnightblue" stroke="midnightblue" points="812.875,-213.855 810.11,-224.083 818.649,-217.812 812.875,-213.855"/>
</g>
<!-- Node30 -->
<g id="node28" class="node"><title>Node30</title>
<g id="a_node28"><a xlink:href="arch_2power64-linux_2odp_2api_2abi_2rwlock_8h_source.html" target="_top" xlink:title="rwlock.h">
<polygon fill="white" stroke="black" points="886.5,-168.5 886.5,-187.5 941.5,-187.5 941.5,-168.5 886.5,-168.5"/>
<text text-anchor="middle" x="914" y="-175.5" font-family="Helvetica,sans-Serif" font-size="10.00">rwlock.h</text>
</a>
</g>
</g>
<!-- Node25&#45;&gt;Node30 -->
<g id="edge27" class="edge"><title>Node25&#45;&gt;Node30</title>
<path fill="none" stroke="midnightblue" d="M830.762,-219.862C851.159,-209.849 878.666,-196.346 896.37,-187.655"/>
<polygon fill="midnightblue" stroke="midnightblue" points="829.108,-216.775 821.673,-224.324 832.192,-223.059 829.108,-216.775"/>
</g>
<!-- Node31 -->
<g id="node29" class="node"><title>Node31</title>
<g id="a_node29"><a xlink:href="arch_2x86__32-linux_2odp_2api_2abi_2rwlock_8h_source.html" target="_top" xlink:title="rwlock.h">
<polygon fill="white" stroke="black" points="959.5,-168.5 959.5,-187.5 1014.5,-187.5 1014.5,-168.5 959.5,-168.5"/>
<text text-anchor="middle" x="987" y="-175.5" font-family="Helvetica,sans-Serif" font-size="10.00">rwlock.h</text>
</a>
</g>
</g>
<!-- Node25&#45;&gt;Node31 -->
<g id="edge28" class="edge"><title>Node25&#45;&gt;Node31</title>
<path fill="none" stroke="midnightblue" d="M841.637,-221.894C876.604,-211.576 927.865,-196.45 959.245,-187.19"/>
<polygon fill="midnightblue" stroke="midnightblue" points="840.394,-218.611 831.794,-224.799 842.375,-225.325 840.394,-218.611"/>
</g>
<!-- Node32 -->
<g id="node30" class="node"><title>Node32</title>
<g id="a_node30"><a xlink:href="arch_2x86__64-linux_2odp_2api_2abi_2rwlock_8h_source.html" target="_top" xlink:title="rwlock.h">
<polygon fill="white" stroke="red" points="1032.5,-168.5 1032.5,-187.5 1087.5,-187.5 1087.5,-168.5 1032.5,-168.5"/>
<text text-anchor="middle" x="1060" y="-175.5" font-family="Helvetica,sans-Serif" font-size="10.00">rwlock.h</text>
</a>
</g>
</g>
<!-- Node25&#45;&gt;Node32 -->
<g id="edge29" class="edge"><title>Node25&#45;&gt;Node32</title>
<path fill="none" stroke="midnightblue" d="M841.452,-225.851C885.319,-217.36 960.121,-202.511 1024,-188 1026.64,-187.401 1029.38,-186.756 1032.12,-186.096"/>
<polygon fill="midnightblue" stroke="midnightblue" points="840.676,-222.436 831.52,-227.767 842.002,-229.309 840.676,-222.436"/>
</g>
<!-- Node44 -->
<g id="node32" class="node"><title>Node44</title>
<g id="a_node32"><a xlink:href="arch_2arm32-linux_2odp_2api_2abi_2ticketlock_8h_source.html" target="_top" xlink:title="ticketlock.h">
<polygon fill="white" stroke="black" points="1105.5,-168.5 1105.5,-187.5 1176.5,-187.5 1176.5,-168.5 1105.5,-168.5"/>
<text text-anchor="middle" x="1141" y="-175.5" font-family="Helvetica,sans-Serif" font-size="10.00">ticketlock.h</text>
</a>
</g>
</g>
<!-- Node43&#45;&gt;Node44 -->
<g id="edge31" class="edge"><title>Node43&#45;&gt;Node44</title>
<path fill="none" stroke="midnightblue" d="M1317.88,-222.024C1275.94,-211.823 1214.35,-196.841 1176.01,-187.516"/>
<polygon fill="midnightblue" stroke="midnightblue" points="1317.28,-225.481 1327.82,-224.444 1318.93,-218.679 1317.28,-225.481"/>
</g>
<!-- Node45 -->
<g id="node33" class="node"><title>Node45</title>
<g id="a_node33"><a xlink:href="arch_2arm64-linux_2odp_2api_2abi_2ticketlock_8h_source.html" target="_top" xlink:title="ticketlock.h">
<polygon fill="white" stroke="black" points="1194.5,-168.5 1194.5,-187.5 1265.5,-187.5 1265.5,-168.5 1194.5,-168.5"/>
<text text-anchor="middle" x="1230" y="-175.5" font-family="Helvetica,sans-Serif" font-size="10.00">ticketlock.h</text>
</a>
</g>
</g>
<!-- Node43&#45;&gt;Node45 -->
<g id="edge32" class="edge"><title>Node43&#45;&gt;Node45</title>
<path fill="none" stroke="midnightblue" d="M1332.55,-220.638C1307.59,-210.504 1272.92,-196.427 1250.98,-187.516"/>
<polygon fill="midnightblue" stroke="midnightblue" points="1331.34,-223.924 1341.93,-224.444 1333.98,-217.439 1331.34,-223.924"/>
</g>
<!-- Node46 -->
<g id="node34" class="node"><title>Node46</title>
<g id="a_node34"><a xlink:href="arch_2default-linux_2odp_2api_2abi_2ticketlock_8h_source.html" target="_top" xlink:title="ticketlock.h">
<polygon fill="white" stroke="black" points="1283.5,-168.5 1283.5,-187.5 1354.5,-187.5 1354.5,-168.5 1283.5,-168.5"/>
<text text-anchor="middle" x="1319" y="-175.5" font-family="Helvetica,sans-Serif" font-size="10.00">ticketlock.h</text>
</a>
</g>
</g>
<!-- Node43&#45;&gt;Node46 -->
<g id="edge33" class="edge"><title>Node43&#45;&gt;Node46</title>
<path fill="none" stroke="midnightblue" d="M1349.27,-216.144C1341.6,-206.736 1332.37,-195.405 1326.13,-187.751"/>
<polygon fill="midnightblue" stroke="midnightblue" points="1346.7,-218.541 1355.73,-224.083 1352.13,-214.12 1346.7,-218.541"/>
</g>
<!-- Node47 -->
<g id="node35" class="node"><title>Node47</title>
<g id="a_node35"><a xlink:href="arch_2mips64-linux_2odp_2api_2abi_2ticketlock_8h_source.html" target="_top" xlink:title="ticketlock.h">
<polygon fill="white" stroke="black" points="1372.5,-168.5 1372.5,-187.5 1443.5,-187.5 1443.5,-168.5 1372.5,-168.5"/>
<text text-anchor="middle" x="1408" y="-175.5" font-family="Helvetica,sans-Serif" font-size="10.00">ticketlock.h</text>
</a>
</g>
</g>
<!-- Node43&#45;&gt;Node47 -->
<g id="edge34" class="edge"><title>Node43&#45;&gt;Node47</title>
<path fill="none" stroke="midnightblue" d="M1377.05,-216.144C1384.89,-206.736 1394.33,-195.405 1400.71,-187.751"/>
<polygon fill="midnightblue" stroke="midnightblue" points="1374.14,-214.16 1370.43,-224.083 1379.52,-218.641 1374.14,-214.16"/>
</g>
<!-- Node48 -->
<g id="node36" class="node"><title>Node48</title>
<g id="a_node36"><a xlink:href="arch_2power64-linux_2odp_2api_2abi_2ticketlock_8h_source.html" target="_top" xlink:title="ticketlock.h">
<polygon fill="white" stroke="black" points="1461.5,-168.5 1461.5,-187.5 1532.5,-187.5 1532.5,-168.5 1461.5,-168.5"/>
<text text-anchor="middle" x="1497" y="-175.5" font-family="Helvetica,sans-Serif" font-size="10.00">ticketlock.h</text>
</a>
</g>
</g>
<!-- Node43&#45;&gt;Node48 -->
<g id="edge35" class="edge"><title>Node43&#45;&gt;Node48</title>
<path fill="none" stroke="midnightblue" d="M1393.68,-220.638C1418.82,-210.504 1453.75,-196.427 1475.87,-187.516"/>
<polygon fill="midnightblue" stroke="midnightblue" points="1392.2,-217.459 1384.23,-224.444 1394.82,-223.952 1392.2,-217.459"/>
</g>
<!-- Node49 -->
<g id="node37" class="node"><title>Node49</title>
<g id="a_node37"><a xlink:href="arch_2x86__32-linux_2odp_2api_2abi_2ticketlock_8h_source.html" target="_top" xlink:title="ticketlock.h">
<polygon fill="white" stroke="black" points="1550.5,-168.5 1550.5,-187.5 1621.5,-187.5 1621.5,-168.5 1550.5,-168.5"/>
<text text-anchor="middle" x="1586" y="-175.5" font-family="Helvetica,sans-Serif" font-size="10.00">ticketlock.h</text>
</a>
</g>
</g>
<!-- Node43&#45;&gt;Node49 -->
<g id="edge36" class="edge"><title>Node43&#45;&gt;Node49</title>
<path fill="none" stroke="midnightblue" d="M1408.06,-222.088C1450.19,-211.887 1512.24,-196.861 1550.83,-187.516"/>
<polygon fill="midnightblue" stroke="midnightblue" points="1407.23,-218.688 1398.34,-224.444 1408.88,-225.492 1407.23,-218.688"/>
</g>
<!-- Node50 -->
<g id="node38" class="node"><title>Node50</title>
<g id="a_node38"><a xlink:href="arch_2x86__64-linux_2odp_2api_2abi_2ticketlock_8h_source.html" target="_top" xlink:title="ticketlock.h">
<polygon fill="white" stroke="red" points="1639.5,-168.5 1639.5,-187.5 1710.5,-187.5 1710.5,-168.5 1639.5,-168.5"/>
<text text-anchor="middle" x="1675" y="-175.5" font-family="Helvetica,sans-Serif" font-size="10.00">ticketlock.h</text>
</a>
</g>
</g>
<!-- Node43&#45;&gt;Node50 -->
<g id="edge37" class="edge"><title>Node43&#45;&gt;Node50</title>
<path fill="none" stroke="midnightblue" d="M1408.79,-225.818C1462.21,-217.32 1553.16,-202.49 1631,-188 1633.76,-187.486 1636.61,-186.939 1639.48,-186.378"/>
<polygon fill="midnightblue" stroke="midnightblue" points="1407.95,-222.407 1398.62,-227.431 1409.04,-229.321 1407.95,-222.407"/>
</g>
<!-- Node53 -->
<g id="node40" class="node"><title>Node53</title>
<g id="a_node40"><a xlink:href="arch_2arm32-linux_2odp_2api_2abi_2cpumask_8h_source.html" target="_top" xlink:title="cpumask.h">
<polygon fill="white" stroke="black" points="1767.5,-336.5 1767.5,-355.5 1836.5,-355.5 1836.5,-336.5 1767.5,-336.5"/>
<text text-anchor="middle" x="1802" y="-343.5" font-family="Helvetica,sans-Serif" font-size="10.00">cpumask.h</text>
</a>
</g>
</g>
<!-- Node52&#45;&gt;Node53 -->
<g id="edge41" class="edge"><title>Node52&#45;&gt;Node53</title>
<path fill="none" stroke="midnightblue" d="M1974.89,-390.024C1933.9,-379.823 1873.7,-364.841 1836.22,-355.516"/>
<polygon fill="midnightblue" stroke="midnightblue" points="1974.07,-393.425 1984.62,-392.444 1975.76,-386.632 1974.07,-393.425"/>
</g>
<!-- Node54 -->
<g id="node41" class="node"><title>Node54</title>
<g id="a_node41"><a xlink:href="arch_2arm64-linux_2odp_2api_2abi_2cpumask_8h_source.html" target="_top" xlink:title="cpumask.h">
<polygon fill="white" stroke="black" points="1854.5,-336.5 1854.5,-355.5 1923.5,-355.5 1923.5,-336.5 1854.5,-336.5"/>
<text text-anchor="middle" x="1889" y="-343.5" font-family="Helvetica,sans-Serif" font-size="10.00">cpumask.h</text>
</a>
</g>
</g>
<!-- Node52&#45;&gt;Node54 -->
<g id="edge42" class="edge"><title>Node52&#45;&gt;Node54</title>
<path fill="none" stroke="midnightblue" d="M1988.91,-388.503C1964.54,-378.38 1930.86,-364.388 1909.5,-355.516"/>
<polygon fill="midnightblue" stroke="midnightblue" points="1987.82,-391.84 1998.4,-392.444 1990.51,-385.375 1987.82,-391.84"/>
</g>
<!-- Node55 -->
<g id="node42" class="node"><title>Node55</title>
<g id="a_node42"><a xlink:href="arch_2default-linux_2odp_2api_2abi_2cpumask_8h_source.html" target="_top" xlink:title="cpumask.h">
<polygon fill="white" stroke="black" points="1941.5,-336.5 1941.5,-355.5 2010.5,-355.5 2010.5,-336.5 1941.5,-336.5"/>
<text text-anchor="middle" x="1976" y="-343.5" font-family="Helvetica,sans-Serif" font-size="10.00">cpumask.h</text>
</a>
</g>
</g>
<!-- Node52&#45;&gt;Node55 -->
<g id="edge43" class="edge"><title>Node52&#45;&gt;Node55</title>
<path fill="none" stroke="midnightblue" d="M2005.58,-384.144C1998.09,-374.736 1989.06,-363.405 1982.97,-355.751"/>
<polygon fill="midnightblue" stroke="midnightblue" points="2002.93,-386.44 2011.9,-392.083 2008.41,-382.08 2002.93,-386.44"/>
</g>
<!-- Node56 -->
<g id="node43" class="node"><title>Node56</title>
<g id="a_node43"><a xlink:href="arch_2mips64-linux_2odp_2api_2abi_2cpumask_8h_source.html" target="_top" xlink:title="cpumask.h">
<polygon fill="white" stroke="black" points="2028.5,-336.5 2028.5,-355.5 2097.5,-355.5 2097.5,-336.5 2028.5,-336.5"/>
<text text-anchor="middle" x="2063" y="-343.5" font-family="Helvetica,sans-Serif" font-size="10.00">cpumask.h</text>
</a>
</g>
</g>
<!-- Node52&#45;&gt;Node56 -->
<g id="edge44" class="edge"><title>Node52&#45;&gt;Node56</title>
<path fill="none" stroke="midnightblue" d="M2032.73,-384.144C2040.4,-374.736 2049.63,-363.405 2055.87,-355.751"/>
<polygon fill="midnightblue" stroke="midnightblue" points="2029.87,-382.12 2026.27,-392.083 2035.3,-386.541 2029.87,-382.12"/>
</g>
<!-- Node57 -->
<g id="node44" class="node"><title>Node57</title>
<g id="a_node44"><a xlink:href="arch_2power64-linux_2odp_2api_2abi_2cpumask_8h_source.html" target="_top" xlink:title="cpumask.h">
<polygon fill="white" stroke="black" points="2115.5,-336.5 2115.5,-355.5 2184.5,-355.5 2184.5,-336.5 2115.5,-336.5"/>
<text text-anchor="middle" x="2150" y="-343.5" font-family="Helvetica,sans-Serif" font-size="10.00">cpumask.h</text>
</a>
</g>
</g>
<!-- Node52&#45;&gt;Node57 -->
<g id="edge45" class="edge"><title>Node52&#45;&gt;Node57</title>
<path fill="none" stroke="midnightblue" d="M2049.32,-388.503C2073.88,-378.38 2107.82,-364.388 2129.34,-355.516"/>
<polygon fill="midnightblue" stroke="midnightblue" points="2047.67,-385.397 2039.76,-392.444 2050.34,-391.868 2047.67,-385.397"/>
</g>
<!-- Node58 -->
<g id="node45" class="node"><title>Node58</title>
<g id="a_node45"><a xlink:href="arch_2x86__32-linux_2odp_2api_2abi_2cpumask_8h_source.html" target="_top" xlink:title="cpumask.h">
<polygon fill="white" stroke="black" points="2202.5,-336.5 2202.5,-355.5 2271.5,-355.5 2271.5,-336.5 2202.5,-336.5"/>
<text text-anchor="middle" x="2237" y="-343.5" font-family="Helvetica,sans-Serif" font-size="10.00">cpumask.h</text>
</a>
</g>
</g>
<!-- Node52&#45;&gt;Node58 -->
<g id="edge46" class="edge"><title>Node52&#45;&gt;Node58</title>
<path fill="none" stroke="midnightblue" d="M2063.31,-390.024C2104.49,-379.823 2164.97,-364.841 2202.62,-355.516"/>
<polygon fill="midnightblue" stroke="midnightblue" points="2062.41,-386.642 2053.54,-392.444 2064.09,-393.436 2062.41,-386.642"/>
</g>
<!-- Node59 -->
<g id="node46" class="node"><title>Node59</title>
<g id="a_node46"><a xlink:href="arch_2x86__64-linux_2odp_2api_2abi_2cpumask_8h_source.html" target="_top" xlink:title="cpumask.h">
<polygon fill="white" stroke="black" points="2289.5,-336.5 2289.5,-355.5 2358.5,-355.5 2358.5,-336.5 2289.5,-336.5"/>
<text text-anchor="middle" x="2324" y="-343.5" font-family="Helvetica,sans-Serif" font-size="10.00">cpumask.h</text>
</a>
</g>
</g>
<!-- Node52&#45;&gt;Node59 -->
<g id="edge47" class="edge"><title>Node52&#45;&gt;Node59</title>
<path fill="none" stroke="midnightblue" d="M2063.77,-393.818C2116,-385.32 2204.92,-370.491 2281,-356 2283.7,-355.486 2286.49,-354.939 2289.29,-354.378"/>
<polygon fill="midnightblue" stroke="midnightblue" points="2063.13,-390.374 2053.82,-395.431 2064.26,-397.284 2063.13,-390.374"/>
</g>
<!-- Node60 -->
<g id="node47" class="node"><title>Node60</title>
<g id="a_node47"><a xlink:href="api_2cpumask_8h.html" target="_top" xlink:title="ODP CPU masks and enumeration. ">
<polygon fill="white" stroke="black" points="2185.5,-280.5 2185.5,-299.5 2254.5,-299.5 2254.5,-280.5 2185.5,-280.5"/>
<text text-anchor="middle" x="2220" y="-287.5" font-family="Helvetica,sans-Serif" font-size="10.00">cpumask.h</text>
</a>
</g>
</g>
<!-- Node59&#45;&gt;Node60 -->
<g id="edge48" class="edge"><title>Node59&#45;&gt;Node60</title>
<path fill="none" stroke="midnightblue" d="M2298.17,-331.59C2278.94,-321.605 2253.26,-308.267 2236.67,-299.655"/>
<polygon fill="midnightblue" stroke="midnightblue" points="2296.8,-334.822 2307.29,-336.324 2300.03,-328.61 2296.8,-334.822"/>
</g>
<!-- Node60&#45;&gt;Node23 -->
<g id="edge52" class="edge"><title>Node60&#45;&gt;Node23</title>
<path fill="none" stroke="midnightblue" d="M2193.34,-275.75C2123.27,-241.625 1927.26,-150.695 1753,-112 1642.81,-87.532 1291.48,-72.3439 1183.73,-68.1729"/>
<polygon fill="midnightblue" stroke="midnightblue" points="2192.23,-279.103 2202.75,-280.36 2195.31,-272.817 2192.23,-279.103"/>
</g>
<!-- Node61 -->
<g id="node48" class="node"><title>Node61</title>
<g id="a_node48"><a xlink:href="api_2abi-default_2thrmask_8h.html" target="_top" xlink:title="ODP thread masks. ">
<polygon fill="white" stroke="red" points="2152.5,-224.5 2152.5,-243.5 2217.5,-243.5 2217.5,-224.5 2152.5,-224.5"/>
<text text-anchor="middle" x="2185" y="-231.5" font-family="Helvetica,sans-Serif" font-size="10.00">thrmask.h</text>
</a>
</g>
</g>
<!-- Node60&#45;&gt;Node61 -->
<g id="edge49" class="edge"><title>Node60&#45;&gt;Node61</title>
<path fill="none" stroke="midnightblue" d="M2208.7,-271.566C2202.68,-262.275 2195.53,-251.248 2190.67,-243.751"/>
<polygon fill="midnightblue" stroke="midnightblue" points="2205.84,-273.595 2214.22,-280.083 2211.72,-269.788 2205.84,-273.595"/>
</g>
<!-- Node72 -->
<g id="node50" class="node"><title>Node72</title>
<g id="a_node50"><a xlink:href="api_2spec_2init_8h.html" target="_top" xlink:title="init.h">
<polygon fill="white" stroke="red" points="2236,-224.5 2236,-243.5 2276,-243.5 2276,-224.5 2236,-224.5"/>
<text text-anchor="middle" x="2256" y="-231.5" font-family="Helvetica,sans-Serif" font-size="10.00">init.h</text>
</a>
</g>
</g>
<!-- Node60&#45;&gt;Node72 -->
<g id="edge51" class="edge"><title>Node60&#45;&gt;Node72</title>
<path fill="none" stroke="midnightblue" d="M2231.62,-271.566C2237.82,-262.275 2245.17,-251.248 2250.17,-243.751"/>
<polygon fill="midnightblue" stroke="midnightblue" points="2228.58,-269.821 2225.94,-280.083 2234.4,-273.704 2228.58,-269.821"/>
</g>
<!-- Node62 -->
<g id="node49" class="node"><title>Node62</title>
<g id="a_node49"><a xlink:href="arch_2arm32-linux_2odp_2api_2abi_2thrmask_8h_source.html" target="_top" xlink:title="thrmask.h">
<polygon fill="white" stroke="black" points="2152.5,-168.5 2152.5,-187.5 2217.5,-187.5 2217.5,-168.5 2152.5,-168.5"/>
<text text-anchor="middle" x="2185" y="-175.5" font-family="Helvetica,sans-Serif" font-size="10.00">thrmask.h</text>
</a>
</g>
</g>
<!-- Node61&#45;&gt;Node62 -->
<g id="edge50" class="edge"><title>Node61&#45;&gt;Node62</title>
<path fill="none" stroke="midnightblue" d="M2185,-213.805C2185,-204.91 2185,-194.78 2185,-187.751"/>
<polygon fill="midnightblue" stroke="midnightblue" points="2181.5,-214.083 2185,-224.083 2188.5,-214.083 2181.5,-214.083"/>
</g>
</g>
</svg>
