<?xml version="1.0" encoding="UTF-8" standalone="no"?>
<!DOCTYPE svg PUBLIC "-//W3C//DTD SVG 1.1//EN"
 "http://www.w3.org/Graphics/SVG/1.1/DTD/svg11.dtd">
<!-- Generated by graphviz version 2.38.0 (20140413.2041)
 -->
<!-- Title: rwlock.h Pages: 1 -->
<svg width="314pt" height="140pt"
 viewBox="0.00 0.00 313.50 140.00" xmlns="http://www.w3.org/2000/svg" xmlns:xlink="http://www.w3.org/1999/xlink">
<g id="graph0" class="graph" transform="scale(1 1) rotate(0) translate(4 136)">
<title>rwlock.h</title>
<polygon fill="white" stroke="none" points="-4,4 -4,-136 309.5,-136 309.5,4 -4,4"/>
<!-- Node0 -->
<g id="node1" class="node"><title>Node0</title>
<polygon fill="#bfbfbf" stroke="black" points="93.5,-112.5 93.5,-131.5 148.5,-131.5 148.5,-112.5 93.5,-112.5"/>
<text text-anchor="middle" x="121" y="-119.5" font-family="Helvetica,sans-Serif" font-size="10.00">rwlock.h</text>
</g>
<!-- Node1 -->
<g id="node2" class="node"><title>Node1</title>
<polygon fill="white" stroke="#bfbfbf" points="0,-56.5 0,-75.5 110,-75.5 110,-56.5 0,-56.5"/>
<text text-anchor="middle" x="55" y="-63.5" font-family="Helvetica,sans-Serif" font-size="10.00">odp/api/abi/rwlock.h</text>
</g>
<!-- Node0&#45;&gt;Node1 -->
<g id="edge1" class="edge"><title>Node0&#45;&gt;Node1</title>
<path fill="none" stroke="midnightblue" d="M110.396,-112.324C100.544,-104.263 85.6491,-92.0765 73.7849,-82.3695"/>
<polygon fill="midnightblue" stroke="midnightblue" points="75.7529,-79.4575 65.797,-75.8339 71.3202,-84.8752 75.7529,-79.4575"/>
</g>
<!-- Node2 -->
<g id="node3" class="node"><title>Node2</title>
<g id="a_node3"><a xlink:href="api_2spec_2rwlock_8h.html" target="_top" xlink:title="ODP RW Locks. ">
<polygon fill="white" stroke="black" points="128.5,-56.5 128.5,-75.5 247.5,-75.5 247.5,-56.5 128.5,-56.5"/>
<text text-anchor="middle" x="188" y="-63.5" font-family="Helvetica,sans-Serif" font-size="10.00">odp/api/spec/rwlock.h</text>
</a>
</g>
</g>
<!-- Node0&#45;&gt;Node2 -->
<g id="edge2" class="edge"><title>Node0&#45;&gt;Node2</title>
<path fill="none" stroke="midnightblue" d="M131.765,-112.324C141.766,-104.263 156.887,-92.0765 168.93,-82.3695"/>
<polygon fill="midnightblue" stroke="midnightblue" points="171.45,-84.8343 177.039,-75.8339 167.057,-79.3841 171.45,-84.8343"/>
</g>
<!-- Node3 -->
<g id="node4" class="node"><title>Node3</title>
<g id="a_node4"><a xlink:href="visibility__begin_8h_source.html" target="_top" xlink:title="odp/visibility_begin.h">
<polygon fill="white" stroke="black" points="65.5,-0.5 65.5,-19.5 180.5,-19.5 180.5,-0.5 65.5,-0.5"/>
<text text-anchor="middle" x="123" y="-7.5" font-family="Helvetica,sans-Serif" font-size="10.00">odp/visibility_begin.h</text>
</a>
</g>
</g>
<!-- Node2&#45;&gt;Node3 -->
<g id="edge3" class="edge"><title>Node2&#45;&gt;Node3</title>
<path fill="none" stroke="midnightblue" d="M177.557,-56.324C167.854,-48.2631 153.185,-36.0765 141.5,-26.3695"/>
<polygon fill="midnightblue" stroke="midnightblue" points="143.562,-23.532 133.633,-19.8339 139.089,-28.9163 143.562,-23.532"/>
</g>
<!-- Node4 -->
<g id="node5" class="node"><title>Node4</title>
<g id="a_node5"><a xlink:href="visibility__end_8h_source.html" target="_top" xlink:title="odp/visibility_end.h">
<polygon fill="white" stroke="black" points="198.5,-0.5 198.5,-19.5 305.5,-19.5 305.5,-0.5 198.5,-0.5"/>
<text text-anchor="middle" x="252" y="-7.5" font-family="Helvetica,sans-Serif" font-size="10.00">odp/visibility_end.h</text>
</a>
</g>
</g>
<!-- Node2&#45;&gt;Node4 -->
<g id="edge4" class="edge"><title>Node2&#45;&gt;Node4</title>
<path fill="none" stroke="midnightblue" d="M198.283,-56.324C207.836,-48.2631 222.28,-36.0765 233.784,-26.3695"/>
<polygon fill="midnightblue" stroke="midnightblue" points="236.144,-28.9577 241.53,-19.8339 231.63,-23.6076 236.144,-28.9577"/>
</g>
</g>
</svg>
