<?xml version="1.0" encoding="UTF-8" standalone="no"?>
<!DOCTYPE svg PUBLIC "-//W3C//DTD SVG 1.1//EN"
 "http://www.w3.org/Graphics/SVG/1.1/DTD/svg11.dtd">
<!-- Generated by graphviz version 2.38.0 (20140413.2041)
 -->
<!-- Title: hash.h Pages: 1 -->
<svg width="466pt" height="252pt"
 viewBox="0.00 0.00 466.00 252.00" xmlns="http://www.w3.org/2000/svg" xmlns:xlink="http://www.w3.org/1999/xlink">
<g id="graph0" class="graph" transform="scale(1 1) rotate(0) translate(4 248)">
<title>hash.h</title>
<polygon fill="white" stroke="none" points="-4,4 -4,-248 462,-248 462,4 -4,4"/>
<!-- Node1 -->
<g id="node1" class="node"><title>Node1</title>
<polygon fill="#bfbfbf" stroke="black" points="201,-224.5 201,-243.5 250,-243.5 250,-224.5 201,-224.5"/>
<text text-anchor="middle" x="225.5" y="-231.5" font-family="Helvetica,sans-Serif" font-size="10.00">hash.h</text>
</g>
<!-- Node2 -->
<g id="node2" class="node"><title>Node2</title>
<g id="a_node2"><a xlink:href="arch_2arm32-linux_2odp_2api_2abi_2hash_8h_source.html" target="_top" xlink:title="hash.h">
<polygon fill="white" stroke="black" points="-3.55271e-15,-168.5 -3.55271e-15,-187.5 49,-187.5 49,-168.5 -3.55271e-15,-168.5"/>
<text text-anchor="middle" x="24.5" y="-175.5" font-family="Helvetica,sans-Serif" font-size="10.00">hash.h</text>
</a>
</g>
</g>
<!-- Node1&#45;&gt;Node2 -->
<g id="edge1" class="edge"><title>Node1&#45;&gt;Node2</title>
<path fill="none" stroke="midnightblue" d="M191.165,-223.776C150.746,-212.917 84.629,-195.154 49.0334,-185.591"/>
<polygon fill="midnightblue" stroke="midnightblue" points="190.288,-227.164 200.853,-226.379 192.104,-220.404 190.288,-227.164"/>
</g>
<!-- Node3 -->
<g id="node3" class="node"><title>Node3</title>
<g id="a_node3"><a xlink:href="arch_2arm64-linux_2odp_2api_2abi_2hash_8h_source.html" target="_top" xlink:title="hash.h">
<polygon fill="white" stroke="black" points="67,-168.5 67,-187.5 116,-187.5 116,-168.5 67,-168.5"/>
<text text-anchor="middle" x="91.5" y="-175.5" font-family="Helvetica,sans-Serif" font-size="10.00">hash.h</text>
</a>
</g>
</g>
<!-- Node1&#45;&gt;Node3 -->
<g id="edge2" class="edge"><title>Node1&#45;&gt;Node3</title>
<path fill="none" stroke="midnightblue" d="M194.823,-220.638C169.677,-210.504 134.746,-196.427 112.633,-187.516"/>
<polygon fill="midnightblue" stroke="midnightblue" points="193.684,-223.952 204.267,-224.444 196.3,-217.459 193.684,-223.952"/>
</g>
<!-- Node4 -->
<g id="node4" class="node"><title>Node4</title>
<g id="a_node4"><a xlink:href="arch_2default-linux_2odp_2api_2abi_2hash_8h_source.html" target="_top" xlink:title="hash.h">
<polygon fill="white" stroke="black" points="134,-168.5 134,-187.5 183,-187.5 183,-168.5 134,-168.5"/>
<text text-anchor="middle" x="158.5" y="-175.5" font-family="Helvetica,sans-Serif" font-size="10.00">hash.h</text>
</a>
</g>
</g>
<!-- Node1&#45;&gt;Node4 -->
<g id="edge3" class="edge"><title>Node1&#45;&gt;Node4</title>
<path fill="none" stroke="midnightblue" d="M206.665,-217.82C194.662,-208.145 179.528,-195.948 169.461,-187.834"/>
<polygon fill="midnightblue" stroke="midnightblue" points="204.753,-220.774 214.735,-224.324 209.146,-215.324 204.753,-220.774"/>
</g>
<!-- Node5 -->
<g id="node5" class="node"><title>Node5</title>
<g id="a_node5"><a xlink:href="arch_2mips64-linux_2odp_2api_2abi_2hash_8h_source.html" target="_top" xlink:title="hash.h">
<polygon fill="white" stroke="black" points="201,-168.5 201,-187.5 250,-187.5 250,-168.5 201,-168.5"/>
<text text-anchor="middle" x="225.5" y="-175.5" font-family="Helvetica,sans-Serif" font-size="10.00">hash.h</text>
</a>
</g>
</g>
<!-- Node1&#45;&gt;Node5 -->
<g id="edge4" class="edge"><title>Node1&#45;&gt;Node5</title>
<path fill="none" stroke="midnightblue" d="M225.5,-213.805C225.5,-204.91 225.5,-194.78 225.5,-187.751"/>
<polygon fill="midnightblue" stroke="midnightblue" points="222,-214.083 225.5,-224.083 229,-214.083 222,-214.083"/>
</g>
<!-- Node6 -->
<g id="node6" class="node"><title>Node6</title>
<g id="a_node6"><a xlink:href="arch_2power64-linux_2odp_2api_2abi_2hash_8h_source.html" target="_top" xlink:title="hash.h">
<polygon fill="white" stroke="black" points="268,-168.5 268,-187.5 317,-187.5 317,-168.5 268,-168.5"/>
<text text-anchor="middle" x="292.5" y="-175.5" font-family="Helvetica,sans-Serif" font-size="10.00">hash.h</text>
</a>
</g>
</g>
<!-- Node1&#45;&gt;Node6 -->
<g id="edge5" class="edge"><title>Node1&#45;&gt;Node6</title>
<path fill="none" stroke="midnightblue" d="M244.335,-217.82C256.338,-208.145 271.472,-195.948 281.539,-187.834"/>
<polygon fill="midnightblue" stroke="midnightblue" points="241.854,-215.324 236.265,-224.324 246.247,-220.774 241.854,-215.324"/>
</g>
<!-- Node7 -->
<g id="node7" class="node"><title>Node7</title>
<g id="a_node7"><a xlink:href="arch_2x86__32-linux_2odp_2api_2abi_2hash_8h_source.html" target="_top" xlink:title="hash.h">
<polygon fill="white" stroke="black" points="335,-168.5 335,-187.5 384,-187.5 384,-168.5 335,-168.5"/>
<text text-anchor="middle" x="359.5" y="-175.5" font-family="Helvetica,sans-Serif" font-size="10.00">hash.h</text>
</a>
</g>
</g>
<!-- Node1&#45;&gt;Node7 -->
<g id="edge6" class="edge"><title>Node1&#45;&gt;Node7</title>
<path fill="none" stroke="midnightblue" d="M256.177,-220.638C281.323,-210.504 316.254,-196.427 338.367,-187.516"/>
<polygon fill="midnightblue" stroke="midnightblue" points="254.7,-217.459 246.733,-224.444 257.316,-223.952 254.7,-217.459"/>
</g>
<!-- Node8 -->
<g id="node8" class="node"><title>Node8</title>
<g id="a_node8"><a xlink:href="arch_2x86__64-linux_2odp_2api_2abi_2hash_8h_source.html" target="_top" xlink:title="hash.h">
<polygon fill="white" stroke="black" points="402,-168.5 402,-187.5 451,-187.5 451,-168.5 402,-168.5"/>
<text text-anchor="middle" x="426.5" y="-175.5" font-family="Helvetica,sans-Serif" font-size="10.00">hash.h</text>
</a>
</g>
</g>
<!-- Node1&#45;&gt;Node8 -->
<g id="edge7" class="edge"><title>Node1&#45;&gt;Node8</title>
<path fill="none" stroke="midnightblue" d="M260.171,-223.762C294.15,-214.697 347.404,-200.459 393.5,-188 396.252,-187.256 399.132,-186.475 401.995,-185.696"/>
<polygon fill="midnightblue" stroke="midnightblue" points="259.035,-220.443 250.274,-226.402 260.839,-227.207 259.035,-220.443"/>
</g>
<!-- Node9 -->
<g id="node9" class="node"><title>Node9</title>
<g id="a_node9"><a xlink:href="api_2hash_8h.html" target="_top" xlink:title="ODP Hash function. ">
<polygon fill="white" stroke="black" points="402,-112.5 402,-131.5 451,-131.5 451,-112.5 402,-112.5"/>
<text text-anchor="middle" x="426.5" y="-119.5" font-family="Helvetica,sans-Serif" font-size="10.00">hash.h</text>
</a>
</g>
</g>
<!-- Node8&#45;&gt;Node9 -->
<g id="edge8" class="edge"><title>Node8&#45;&gt;Node9</title>
<path fill="none" stroke="midnightblue" d="M426.5,-157.805C426.5,-148.91 426.5,-138.78 426.5,-131.751"/>
<polygon fill="midnightblue" stroke="midnightblue" points="423,-158.083 426.5,-168.083 430,-158.083 423,-158.083"/>
</g>
<!-- Node10 -->
<g id="node10" class="node"><title>Node10</title>
<g id="a_node10"><a xlink:href="odp__api_8h.html" target="_top" xlink:title="The OpenDataPlane API. ">
<polygon fill="white" stroke="black" points="395,-56.5 395,-75.5 458,-75.5 458,-56.5 395,-56.5"/>
<text text-anchor="middle" x="426.5" y="-63.5" font-family="Helvetica,sans-Serif" font-size="10.00">odp_api.h</text>
</a>
</g>
</g>
<!-- Node9&#45;&gt;Node10 -->
<g id="edge9" class="edge"><title>Node9&#45;&gt;Node10</title>
<path fill="none" stroke="midnightblue" d="M426.5,-101.805C426.5,-92.9102 426.5,-82.7798 426.5,-75.7511"/>
<polygon fill="midnightblue" stroke="midnightblue" points="423,-102.083 426.5,-112.083 430,-102.083 423,-102.083"/>
</g>
<!-- Node11 -->
<g id="node11" class="node"><title>Node11</title>
<g id="a_node11"><a xlink:href="odp_8h.html" target="_top" xlink:title="WARNING: THIS FILE IS DEPRECATED AND WILL BE REMOVED!!! ODP APPLICATIONS SHOULD NOW INCLUDE odp_api...">
<polygon fill="white" stroke="black" points="404.5,-0.5 404.5,-19.5 448.5,-19.5 448.5,-0.5 404.5,-0.5"/>
<text text-anchor="middle" x="426.5" y="-7.5" font-family="Helvetica,sans-Serif" font-size="10.00">odp.h</text>
</a>
</g>
</g>
<!-- Node10&#45;&gt;Node11 -->
<g id="edge10" class="edge"><title>Node10&#45;&gt;Node11</title>
<path fill="none" stroke="midnightblue" d="M426.5,-45.8045C426.5,-36.9102 426.5,-26.7798 426.5,-19.7511"/>
<polygon fill="midnightblue" stroke="midnightblue" points="423,-46.083 426.5,-56.083 430,-46.083 423,-46.083"/>
</g>
</g>
</svg>
