<?xml version="1.0" encoding="UTF-8" standalone="no"?>
<!DOCTYPE svg PUBLIC "-//W3C//DTD SVG 1.1//EN"
 "http://www.w3.org/Graphics/SVG/1.1/DTD/svg11.dtd">
<!-- Generated by graphviz version 2.38.0 (20140413.2041)
 -->
<!-- Title: thread.h Pages: 1 -->
<svg width="448pt" height="151pt"
 viewBox="0.00 0.00 447.50 151.00" xmlns="http://www.w3.org/2000/svg" xmlns:xlink="http://www.w3.org/1999/xlink">
<g id="graph0" class="graph" transform="scale(1 1) rotate(0) translate(4 147)">
<title>thread.h</title>
<polygon fill="white" stroke="none" points="-4,4 -4,-147 443.5,-147 443.5,4 -4,4"/>
<!-- Node0 -->
<g id="node1" class="node"><title>Node0</title>
<polygon fill="#bfbfbf" stroke="black" points="158.5,-123.5 158.5,-142.5 215.5,-142.5 215.5,-123.5 158.5,-123.5"/>
<text text-anchor="middle" x="187" y="-130.5" font-family="Helvetica,sans-Serif" font-size="10.00">thread.h</text>
</g>
<!-- Node1 -->
<g id="node2" class="node"><title>Node1</title>
<g id="a_node2"><a xlink:href="thread__types_8h.html" target="_top" xlink:title="ODP thread API types. ">
<polygon fill="white" stroke="black" points="-7.10543e-15,-56.5 -7.10543e-15,-86.5 112,-86.5 112,-56.5 -7.10543e-15,-56.5"/>
<text text-anchor="start" x="8" y="-74.5" font-family="Helvetica,sans-Serif" font-size="10.00">odp/api/spec/thread</text>
<text text-anchor="middle" x="56" y="-63.5" font-family="Helvetica,sans-Serif" font-size="10.00">_types.h</text>
</a>
</g>
</g>
<!-- Node0&#45;&gt;Node1 -->
<g id="edge1" class="edge"><title>Node0&#45;&gt;Node1</title>
<path fill="none" stroke="midnightblue" d="M168.231,-123.475C149.494,-114.965 120.111,-101.619 96.1102,-90.718"/>
<polygon fill="midnightblue" stroke="midnightblue" points="97.4264,-87.4717 86.8741,-86.523 94.5316,-93.8451 97.4264,-87.4717"/>
</g>
<!-- Node2 -->
<g id="node3" class="node"><title>Node2</title>
<polygon fill="white" stroke="#bfbfbf" points="130.5,-62 130.5,-81 243.5,-81 243.5,-62 130.5,-62"/>
<text text-anchor="middle" x="187" y="-69" font-family="Helvetica,sans-Serif" font-size="10.00">odp/api/abi/thread.h</text>
</g>
<!-- Node0&#45;&gt;Node2 -->
<g id="edge2" class="edge"><title>Node0&#45;&gt;Node2</title>
<path fill="none" stroke="midnightblue" d="M187,-123.475C187,-115.08 187,-101.981 187,-91.1631"/>
<polygon fill="midnightblue" stroke="midnightblue" points="190.5,-91.0091 187,-81.0091 183.5,-91.0091 190.5,-91.0091"/>
</g>
<!-- Node3 -->
<g id="node4" class="node"><title>Node3</title>
<g id="a_node4"><a xlink:href="api_2spec_2thread_8h.html" target="_top" xlink:title="ODP thread API. ">
<polygon fill="white" stroke="black" points="261.5,-62 261.5,-81 382.5,-81 382.5,-62 261.5,-62"/>
<text text-anchor="middle" x="322" y="-69" font-family="Helvetica,sans-Serif" font-size="10.00">odp/api/spec/thread.h</text>
</a>
</g>
</g>
<!-- Node0&#45;&gt;Node3 -->
<g id="edge3" class="edge"><title>Node0&#45;&gt;Node3</title>
<path fill="none" stroke="midnightblue" d="M206.342,-123.475C229.099,-113.445 267.092,-96.7002 293.288,-85.1546"/>
<polygon fill="midnightblue" stroke="midnightblue" points="294.955,-88.2449 302.694,-81.0091 292.131,-81.8395 294.955,-88.2449"/>
</g>
<!-- Node4 -->
<g id="node5" class="node"><title>Node4</title>
<g id="a_node5"><a xlink:href="visibility__begin_8h_source.html" target="_top" xlink:title="odp/visibility_begin.h">
<polygon fill="white" stroke="black" points="199.5,-0.5 199.5,-19.5 314.5,-19.5 314.5,-0.5 199.5,-0.5"/>
<text text-anchor="middle" x="257" y="-7.5" font-family="Helvetica,sans-Serif" font-size="10.00">odp/visibility_begin.h</text>
</a>
</g>
</g>
<!-- Node3&#45;&gt;Node4 -->
<g id="edge4" class="edge"><title>Node3&#45;&gt;Node4</title>
<path fill="none" stroke="midnightblue" d="M312.687,-61.9751C302.551,-52.6966 286.136,-37.6706 273.748,-26.331"/>
<polygon fill="midnightblue" stroke="midnightblue" points="276.035,-23.6795 266.296,-19.5091 271.309,-28.8429 276.035,-23.6795"/>
</g>
<!-- Node5 -->
<g id="node6" class="node"><title>Node5</title>
<g id="a_node6"><a xlink:href="visibility__end_8h_source.html" target="_top" xlink:title="odp/visibility_end.h">
<polygon fill="white" stroke="black" points="332.5,-0.5 332.5,-19.5 439.5,-19.5 439.5,-0.5 332.5,-0.5"/>
<text text-anchor="middle" x="386" y="-7.5" font-family="Helvetica,sans-Serif" font-size="10.00">odp/visibility_end.h</text>
</a>
</g>
</g>
<!-- Node3&#45;&gt;Node5 -->
<g id="edge5" class="edge"><title>Node3&#45;&gt;Node5</title>
<path fill="none" stroke="midnightblue" d="M331.17,-61.9751C341.15,-52.6966 357.312,-37.6706 369.509,-26.331"/>
<polygon fill="midnightblue" stroke="midnightblue" points="371.907,-28.8814 376.847,-19.5091 367.14,-23.7547 371.907,-28.8814"/>
</g>
</g>
</svg>
