<?xml version="1.0" encoding="UTF-8" standalone="no"?>
<!DOCTYPE svg PUBLIC "-//W3C//DTD SVG 1.1//EN"
 "http://www.w3.org/Graphics/SVG/1.1/DTD/svg11.dtd">
<!-- Generated by graphviz version 2.38.0 (20140413.2041)
 -->
<!-- Title: init.h Pages: 1 -->
<svg width="408pt" height="364pt"
 viewBox="0.00 0.00 407.50 364.00" xmlns="http://www.w3.org/2000/svg" xmlns:xlink="http://www.w3.org/1999/xlink">
<g id="graph0" class="graph" transform="scale(1 1) rotate(0) translate(4 360)">
<title>init.h</title>
<polygon fill="white" stroke="none" points="-4,4 -4,-360 403.5,-360 403.5,4 -4,4"/>
<!-- Node7 -->
<g id="node1" class="node"><title>Node7</title>
<polygon fill="#bfbfbf" stroke="black" points="174,-336.5 174,-355.5 214,-355.5 214,-336.5 174,-336.5"/>
<text text-anchor="middle" x="194" y="-343.5" font-family="Helvetica,sans-Serif" font-size="10.00">init.h</text>
</g>
<!-- Node8 -->
<g id="node2" class="node"><title>Node8</title>
<g id="a_node2"><a xlink:href="arch_2arm32-linux_2odp_2api_2abi_2init_8h_source.html" target="_top" xlink:title="init.h">
<polygon fill="white" stroke="black" points="0,-280.5 0,-299.5 40,-299.5 40,-280.5 0,-280.5"/>
<text text-anchor="middle" x="20" y="-287.5" font-family="Helvetica,sans-Serif" font-size="10.00">init.h</text>
</a>
</g>
</g>
<!-- Node7&#45;&gt;Node8 -->
<g id="edge1" class="edge"><title>Node7&#45;&gt;Node8</title>
<path fill="none" stroke="midnightblue" d="M163.911,-335.662C128.479,-324.666 70.6095,-306.706 40.1712,-297.26"/>
<polygon fill="midnightblue" stroke="midnightblue" points="163.111,-339.078 173.699,-338.7 165.186,-332.393 163.111,-339.078"/>
</g>
<!-- Node9 -->
<g id="node3" class="node"><title>Node9</title>
<g id="a_node3"><a xlink:href="arch_2arm64-linux_2odp_2api_2abi_2init_8h_source.html" target="_top" xlink:title="init.h">
<polygon fill="white" stroke="black" points="58,-280.5 58,-299.5 98,-299.5 98,-280.5 58,-280.5"/>
<text text-anchor="middle" x="78" y="-287.5" font-family="Helvetica,sans-Serif" font-size="10.00">init.h</text>
</a>
</g>
</g>
<!-- Node7&#45;&gt;Node9 -->
<g id="edge2" class="edge"><title>Node7&#45;&gt;Node9</title>
<path fill="none" stroke="midnightblue" d="M166.28,-332.096C144.608,-322.007 115.098,-308.27 96.2946,-299.516"/>
<polygon fill="midnightblue" stroke="midnightblue" points="165.077,-335.396 175.619,-336.444 168.031,-329.05 165.077,-335.396"/>
</g>
<!-- Node10 -->
<g id="node4" class="node"><title>Node10</title>
<g id="a_node4"><a xlink:href="arch_2default-linux_2odp_2api_2abi_2init_8h_source.html" target="_top" xlink:title="init.h">
<polygon fill="white" stroke="black" points="116,-280.5 116,-299.5 156,-299.5 156,-280.5 116,-280.5"/>
<text text-anchor="middle" x="136" y="-287.5" font-family="Helvetica,sans-Serif" font-size="10.00">init.h</text>
</a>
</g>
</g>
<!-- Node7&#45;&gt;Node10 -->
<g id="edge3" class="edge"><title>Node7&#45;&gt;Node10</title>
<path fill="none" stroke="midnightblue" d="M177.087,-329.253C166.797,-319.673 154.034,-307.791 145.488,-299.834"/>
<polygon fill="midnightblue" stroke="midnightblue" points="174.977,-332.071 184.681,-336.324 179.747,-326.948 174.977,-332.071"/>
</g>
<!-- Node11 -->
<g id="node5" class="node"><title>Node11</title>
<g id="a_node5"><a xlink:href="arch_2mips64-linux_2odp_2api_2abi_2init_8h_source.html" target="_top" xlink:title="init.h">
<polygon fill="white" stroke="black" points="174,-280.5 174,-299.5 214,-299.5 214,-280.5 174,-280.5"/>
<text text-anchor="middle" x="194" y="-287.5" font-family="Helvetica,sans-Serif" font-size="10.00">init.h</text>
</a>
</g>
</g>
<!-- Node7&#45;&gt;Node11 -->
<g id="edge4" class="edge"><title>Node7&#45;&gt;Node11</title>
<path fill="none" stroke="midnightblue" d="M194,-325.805C194,-316.91 194,-306.78 194,-299.751"/>
<polygon fill="midnightblue" stroke="midnightblue" points="190.5,-326.083 194,-336.083 197.5,-326.083 190.5,-326.083"/>
</g>
<!-- Node12 -->
<g id="node6" class="node"><title>Node12</title>
<g id="a_node6"><a xlink:href="arch_2power64-linux_2odp_2api_2abi_2init_8h_source.html" target="_top" xlink:title="init.h">
<polygon fill="white" stroke="black" points="232,-280.5 232,-299.5 272,-299.5 272,-280.5 232,-280.5"/>
<text text-anchor="middle" x="252" y="-287.5" font-family="Helvetica,sans-Serif" font-size="10.00">init.h</text>
</a>
</g>
</g>
<!-- Node7&#45;&gt;Node12 -->
<g id="edge5" class="edge"><title>Node7&#45;&gt;Node12</title>
<path fill="none" stroke="midnightblue" d="M210.913,-329.253C221.203,-319.673 233.966,-307.791 242.512,-299.834"/>
<polygon fill="midnightblue" stroke="midnightblue" points="208.253,-326.948 203.319,-336.324 213.023,-332.071 208.253,-326.948"/>
</g>
<!-- Node13 -->
<g id="node7" class="node"><title>Node13</title>
<g id="a_node7"><a xlink:href="arch_2x86__32-linux_2odp_2api_2abi_2init_8h_source.html" target="_top" xlink:title="init.h">
<polygon fill="white" stroke="black" points="290,-280.5 290,-299.5 330,-299.5 330,-280.5 290,-280.5"/>
<text text-anchor="middle" x="310" y="-287.5" font-family="Helvetica,sans-Serif" font-size="10.00">init.h</text>
</a>
</g>
</g>
<!-- Node7&#45;&gt;Node13 -->
<g id="edge6" class="edge"><title>Node7&#45;&gt;Node13</title>
<path fill="none" stroke="midnightblue" d="M221.72,-332.096C243.392,-322.007 272.902,-308.27 291.705,-299.516"/>
<polygon fill="midnightblue" stroke="midnightblue" points="219.969,-329.05 212.381,-336.444 222.923,-335.396 219.969,-329.05"/>
</g>
<!-- Node14 -->
<g id="node8" class="node"><title>Node14</title>
<g id="a_node8"><a xlink:href="arch_2x86__64-linux_2odp_2api_2abi_2init_8h_source.html" target="_top" xlink:title="init.h">
<polygon fill="white" stroke="black" points="348,-280.5 348,-299.5 388,-299.5 388,-280.5 348,-280.5"/>
<text text-anchor="middle" x="368" y="-287.5" font-family="Helvetica,sans-Serif" font-size="10.00">init.h</text>
</a>
</g>
</g>
<!-- Node7&#45;&gt;Node14 -->
<g id="edge7" class="edge"><title>Node7&#45;&gt;Node14</title>
<path fill="none" stroke="midnightblue" d="M224.089,-335.662C259.521,-324.666 317.391,-306.706 347.829,-297.26"/>
<polygon fill="midnightblue" stroke="midnightblue" points="222.814,-332.393 214.301,-338.7 224.889,-339.078 222.814,-332.393"/>
</g>
<!-- Node15 -->
<g id="node9" class="node"><title>Node15</title>
<g id="a_node9"><a xlink:href="api_2init_8h.html" target="_top" xlink:title="ODP initialization. ">
<polygon fill="white" stroke="black" points="348,-224.5 348,-243.5 388,-243.5 388,-224.5 348,-224.5"/>
<text text-anchor="middle" x="368" y="-231.5" font-family="Helvetica,sans-Serif" font-size="10.00">init.h</text>
</a>
</g>
</g>
<!-- Node14&#45;&gt;Node15 -->
<g id="edge8" class="edge"><title>Node14&#45;&gt;Node15</title>
<path fill="none" stroke="midnightblue" d="M368,-269.805C368,-260.91 368,-250.78 368,-243.751"/>
<polygon fill="midnightblue" stroke="midnightblue" points="364.5,-270.083 368,-280.083 371.5,-270.083 364.5,-270.083"/>
</g>
<!-- Node16 -->
<g id="node10" class="node"><title>Node16</title>
<g id="a_node10"><a xlink:href="api_2spec_2shared__memory_8h.html" target="_top" xlink:title="ODP shared memory. ">
<polygon fill="white" stroke="black" points="276.5,-168.5 276.5,-187.5 379.5,-187.5 379.5,-168.5 276.5,-168.5"/>
<text text-anchor="middle" x="328" y="-175.5" font-family="Helvetica,sans-Serif" font-size="10.00">shared_memory.h</text>
</a>
</g>
</g>
<!-- Node15&#45;&gt;Node16 -->
<g id="edge9" class="edge"><title>Node15&#45;&gt;Node16</title>
<path fill="none" stroke="midnightblue" d="M355.3,-215.855C348.374,-206.505 340.094,-195.327 334.482,-187.751"/>
<polygon fill="midnightblue" stroke="midnightblue" points="352.63,-218.131 361.395,-224.083 358.255,-213.964 352.63,-218.131"/>
</g>
<!-- Node18 -->
<g id="node12" class="node"><title>Node18</title>
<g id="a_node12"><a xlink:href="odp__api_8h.html" target="_top" xlink:title="The OpenDataPlane API. ">
<polygon fill="white" stroke="black" points="336.5,-56.5 336.5,-75.5 399.5,-75.5 399.5,-56.5 336.5,-56.5"/>
<text text-anchor="middle" x="368" y="-63.5" font-family="Helvetica,sans-Serif" font-size="10.00">odp_api.h</text>
</a>
</g>
</g>
<!-- Node15&#45;&gt;Node18 -->
<g id="edge13" class="edge"><title>Node15&#45;&gt;Node18</title>
<path fill="none" stroke="midnightblue" d="M378.279,-215.626C382.493,-207.524 386.876,-197.574 389,-188 396.316,-155.024 396.316,-144.976 389,-112 386.012,-98.5333 378.556,-84.3218 373.384,-75.557"/>
<polygon fill="midnightblue" stroke="midnightblue" points="375.178,-214.001 373.384,-224.443 381.298,-217.399 375.178,-214.001"/>
</g>
<!-- Node17 -->
<g id="node11" class="node"><title>Node17</title>
<g id="a_node11"><a xlink:href="api_2shared__memory_8h.html" target="_top" xlink:title="ODP shared memory. ">
<polygon fill="white" stroke="black" points="276.5,-112.5 276.5,-131.5 379.5,-131.5 379.5,-112.5 276.5,-112.5"/>
<text text-anchor="middle" x="328" y="-119.5" font-family="Helvetica,sans-Serif" font-size="10.00">shared_memory.h</text>
</a>
</g>
</g>
<!-- Node16&#45;&gt;Node17 -->
<g id="edge10" class="edge"><title>Node16&#45;&gt;Node17</title>
<path fill="none" stroke="midnightblue" d="M328,-157.805C328,-148.91 328,-138.78 328,-131.751"/>
<polygon fill="midnightblue" stroke="midnightblue" points="324.5,-158.083 328,-168.083 331.5,-158.083 324.5,-158.083"/>
</g>
<!-- Node17&#45;&gt;Node18 -->
<g id="edge11" class="edge"><title>Node17&#45;&gt;Node18</title>
<path fill="none" stroke="midnightblue" d="M340.7,-103.855C347.626,-94.5048 355.906,-83.3265 361.518,-75.7511"/>
<polygon fill="midnightblue" stroke="midnightblue" points="337.745,-101.964 334.605,-112.083 343.37,-106.131 337.745,-101.964"/>
</g>
<!-- Node19 -->
<g id="node13" class="node"><title>Node19</title>
<g id="a_node13"><a xlink:href="odp_8h.html" target="_top" xlink:title="WARNING: THIS FILE IS DEPRECATED AND WILL BE REMOVED!!! ODP APPLICATIONS SHOULD NOW INCLUDE odp_api...">
<polygon fill="white" stroke="black" points="346,-0.5 346,-19.5 390,-19.5 390,-0.5 346,-0.5"/>
<text text-anchor="middle" x="368" y="-7.5" font-family="Helvetica,sans-Serif" font-size="10.00">odp.h</text>
</a>
</g>
</g>
<!-- Node18&#45;&gt;Node19 -->
<g id="edge12" class="edge"><title>Node18&#45;&gt;Node19</title>
<path fill="none" stroke="midnightblue" d="M368,-45.8045C368,-36.9102 368,-26.7798 368,-19.7511"/>
<polygon fill="midnightblue" stroke="midnightblue" points="364.5,-46.083 368,-56.083 371.5,-46.083 364.5,-46.083"/>
</g>
</g>
</svg>
