<?xml version="1.0" encoding="UTF-8" standalone="no"?>
<!DOCTYPE svg PUBLIC "-//W3C//DTD SVG 1.1//EN"
 "http://www.w3.org/Graphics/SVG/1.1/DTD/svg11.dtd">
<!-- Generated by graphviz version 2.38.0 (20140413.2041)
 -->
<!-- Title: rwlock.h Pages: 1 -->
<svg width="864pt" height="364pt"
 viewBox="0.00 0.00 863.50 364.00" xmlns="http://www.w3.org/2000/svg" xmlns:xlink="http://www.w3.org/1999/xlink">
<g id="graph0" class="graph" transform="scale(1 1) rotate(0) translate(4 360)">
<title>rwlock.h</title>
<polygon fill="white" stroke="none" points="-4,4 -4,-360 859.5,-360 859.5,4 -4,4"/>
<!-- Node3 -->
<g id="node1" class="node"><title>Node3</title>
<polygon fill="#bfbfbf" stroke="black" points="674.5,-336.5 674.5,-355.5 729.5,-355.5 729.5,-336.5 674.5,-336.5"/>
<text text-anchor="middle" x="702" y="-343.5" font-family="Helvetica,sans-Serif" font-size="10.00">rwlock.h</text>
</g>
<!-- Node4 -->
<g id="node2" class="node"><title>Node4</title>
<g id="a_node2"><a xlink:href="api_2rwlock_8h.html" target="_top" xlink:title="ODP RW Locks. ">
<polygon fill="white" stroke="black" points="674.5,-280.5 674.5,-299.5 729.5,-299.5 729.5,-280.5 674.5,-280.5"/>
<text text-anchor="middle" x="702" y="-287.5" font-family="Helvetica,sans-Serif" font-size="10.00">rwlock.h</text>
</a>
</g>
</g>
<!-- Node3&#45;&gt;Node4 -->
<g id="edge1" class="edge"><title>Node3&#45;&gt;Node4</title>
<path fill="none" stroke="midnightblue" d="M702,-325.805C702,-316.91 702,-306.78 702,-299.751"/>
<polygon fill="midnightblue" stroke="midnightblue" points="698.5,-326.083 702,-336.083 705.5,-326.083 698.5,-326.083"/>
</g>
<!-- Node5 -->
<g id="node3" class="node"><title>Node5</title>
<g id="a_node3"><a xlink:href="api_2abi-default_2rwlock__recursive_8h.html" target="_top" xlink:title="ODP recursive read/write lock. ">
<polygon fill="white" stroke="black" points="427,-224.5 427,-243.5 531,-243.5 531,-224.5 427,-224.5"/>
<text text-anchor="middle" x="479" y="-231.5" font-family="Helvetica,sans-Serif" font-size="10.00">rwlock_recursive.h</text>
</a>
</g>
</g>
<!-- Node4&#45;&gt;Node5 -->
<g id="edge2" class="edge"><title>Node4&#45;&gt;Node5</title>
<path fill="none" stroke="midnightblue" d="M664.374,-279.889C622.407,-269.726 555.057,-253.417 514.13,-243.507"/>
<polygon fill="midnightblue" stroke="midnightblue" points="663.665,-283.318 674.208,-282.27 665.312,-276.515 663.665,-283.318"/>
</g>
<!-- Node14 -->
<g id="node12" class="node"><title>Node14</title>
<g id="a_node12"><a xlink:href="odp__api_8h.html" target="_top" xlink:title="The OpenDataPlane API. ">
<polygon fill="white" stroke="black" points="792.5,-56.5 792.5,-75.5 855.5,-75.5 855.5,-56.5 792.5,-56.5"/>
<text text-anchor="middle" x="824" y="-63.5" font-family="Helvetica,sans-Serif" font-size="10.00">odp_api.h</text>
</a>
</g>
</g>
<!-- Node4&#45;&gt;Node14 -->
<g id="edge13" class="edge"><title>Node4&#45;&gt;Node14</title>
<path fill="none" stroke="midnightblue" d="M734.913,-276.539C769.496,-261.451 821.999,-232.405 845,-188 860.536,-158.007 852.316,-144.976 845,-112 842.012,-98.5333 834.556,-84.3218 829.384,-75.557"/>
<polygon fill="midnightblue" stroke="midnightblue" points="733.534,-273.322 725.673,-280.425 736.248,-279.774 733.534,-273.322"/>
</g>
<!-- Node6 -->
<g id="node4" class="node"><title>Node6</title>
<g id="a_node4"><a xlink:href="arch_2arm32-linux_2odp_2api_2abi_2rwlock__recursive_8h_source.html" target="_top" xlink:title="rwlock_recursive.h">
<polygon fill="white" stroke="black" points="0,-168.5 0,-187.5 104,-187.5 104,-168.5 0,-168.5"/>
<text text-anchor="middle" x="52" y="-175.5" font-family="Helvetica,sans-Serif" font-size="10.00">rwlock_recursive.h</text>
</a>
</g>
</g>
<!-- Node5&#45;&gt;Node6 -->
<g id="edge3" class="edge"><title>Node5&#45;&gt;Node6</title>
<path fill="none" stroke="midnightblue" d="M416.446,-225.775C343.529,-217.244 219.425,-202.391 113,-188 110.136,-187.613 107.197,-187.207 104.232,-186.791"/>
<polygon fill="midnightblue" stroke="midnightblue" points="416.486,-229.303 426.825,-226.987 417.298,-222.35 416.486,-229.303"/>
</g>
<!-- Node7 -->
<g id="node5" class="node"><title>Node7</title>
<g id="a_node5"><a xlink:href="arch_2arm64-linux_2odp_2api_2abi_2rwlock__recursive_8h_source.html" target="_top" xlink:title="rwlock_recursive.h">
<polygon fill="white" stroke="black" points="122,-168.5 122,-187.5 226,-187.5 226,-168.5 122,-168.5"/>
<text text-anchor="middle" x="174" y="-175.5" font-family="Helvetica,sans-Serif" font-size="10.00">rwlock_recursive.h</text>
</a>
</g>
</g>
<!-- Node5&#45;&gt;Node7 -->
<g id="edge4" class="edge"><title>Node5&#45;&gt;Node7</title>
<path fill="none" stroke="midnightblue" d="M420.622,-222.664C362.982,-212.459 275.885,-197.039 222.102,-187.516"/>
<polygon fill="midnightblue" stroke="midnightblue" points="420.215,-226.146 430.672,-224.444 421.435,-219.254 420.215,-226.146"/>
</g>
<!-- Node8 -->
<g id="node6" class="node"><title>Node8</title>
<g id="a_node6"><a xlink:href="arch_2default-linux_2odp_2api_2abi_2rwlock__recursive_8h_source.html" target="_top" xlink:title="rwlock_recursive.h">
<polygon fill="white" stroke="black" points="244,-168.5 244,-187.5 348,-187.5 348,-168.5 244,-168.5"/>
<text text-anchor="middle" x="296" y="-175.5" font-family="Helvetica,sans-Serif" font-size="10.00">rwlock_recursive.h</text>
</a>
</g>
</g>
<!-- Node5&#45;&gt;Node8 -->
<g id="edge5" class="edge"><title>Node5&#45;&gt;Node8</title>
<path fill="none" stroke="midnightblue" d="M440.257,-221.568C405.735,-211.381 355.995,-196.703 324.861,-187.516"/>
<polygon fill="midnightblue" stroke="midnightblue" points="439.421,-224.97 450.003,-224.444 441.403,-218.256 439.421,-224.97"/>
</g>
<!-- Node9 -->
<g id="node7" class="node"><title>Node9</title>
<g id="a_node7"><a xlink:href="arch_2mips64-linux_2odp_2api_2abi_2rwlock__recursive_8h_source.html" target="_top" xlink:title="rwlock_recursive.h">
<polygon fill="white" stroke="black" points="366,-168.5 366,-187.5 470,-187.5 470,-168.5 366,-168.5"/>
<text text-anchor="middle" x="418" y="-175.5" font-family="Helvetica,sans-Serif" font-size="10.00">rwlock_recursive.h</text>
</a>
</g>
</g>
<!-- Node5&#45;&gt;Node9 -->
<g id="edge6" class="edge"><title>Node5&#45;&gt;Node9</title>
<path fill="none" stroke="midnightblue" d="M461.533,-217.537C450.656,-207.909 437.056,-195.869 427.979,-187.834"/>
<polygon fill="midnightblue" stroke="midnightblue" points="459.392,-220.316 469.199,-224.324 464.032,-215.075 459.392,-220.316"/>
</g>
<!-- Node10 -->
<g id="node8" class="node"><title>Node10</title>
<g id="a_node8"><a xlink:href="arch_2power64-linux_2odp_2api_2abi_2rwlock__recursive_8h_source.html" target="_top" xlink:title="rwlock_recursive.h">
<polygon fill="white" stroke="black" points="488,-168.5 488,-187.5 592,-187.5 592,-168.5 488,-168.5"/>
<text text-anchor="middle" x="540" y="-175.5" font-family="Helvetica,sans-Serif" font-size="10.00">rwlock_recursive.h</text>
</a>
</g>
</g>
<!-- Node5&#45;&gt;Node10 -->
<g id="edge7" class="edge"><title>Node5&#45;&gt;Node10</title>
<path fill="none" stroke="midnightblue" d="M496.467,-217.537C507.344,-207.909 520.944,-195.869 530.021,-187.834"/>
<polygon fill="midnightblue" stroke="midnightblue" points="493.968,-215.075 488.801,-224.324 498.608,-220.316 493.968,-215.075"/>
</g>
<!-- Node11 -->
<g id="node9" class="node"><title>Node11</title>
<g id="a_node9"><a xlink:href="arch_2x86__32-linux_2odp_2api_2abi_2rwlock__recursive_8h_source.html" target="_top" xlink:title="rwlock_recursive.h">
<polygon fill="white" stroke="black" points="610,-168.5 610,-187.5 714,-187.5 714,-168.5 610,-168.5"/>
<text text-anchor="middle" x="662" y="-175.5" font-family="Helvetica,sans-Serif" font-size="10.00">rwlock_recursive.h</text>
</a>
</g>
</g>
<!-- Node5&#45;&gt;Node11 -->
<g id="edge8" class="edge"><title>Node5&#45;&gt;Node11</title>
<path fill="none" stroke="midnightblue" d="M517.743,-221.568C552.265,-211.381 602.005,-196.703 633.139,-187.516"/>
<polygon fill="midnightblue" stroke="midnightblue" points="516.597,-218.256 507.997,-224.444 518.579,-224.97 516.597,-218.256"/>
</g>
<!-- Node12 -->
<g id="node10" class="node"><title>Node12</title>
<g id="a_node10"><a xlink:href="arch_2x86__64-linux_2odp_2api_2abi_2rwlock__recursive_8h_source.html" target="_top" xlink:title="rwlock_recursive.h">
<polygon fill="white" stroke="black" points="732,-168.5 732,-187.5 836,-187.5 836,-168.5 732,-168.5"/>
<text text-anchor="middle" x="784" y="-175.5" font-family="Helvetica,sans-Serif" font-size="10.00">rwlock_recursive.h</text>
</a>
</g>
</g>
<!-- Node5&#45;&gt;Node12 -->
<g id="edge9" class="edge"><title>Node5&#45;&gt;Node12</title>
<path fill="none" stroke="midnightblue" d="M537.378,-222.664C595.018,-212.459 682.115,-197.039 735.898,-187.516"/>
<polygon fill="midnightblue" stroke="midnightblue" points="536.565,-219.254 527.328,-224.444 537.785,-226.146 536.565,-219.254"/>
</g>
<!-- Node13 -->
<g id="node11" class="node"><title>Node13</title>
<g id="a_node11"><a xlink:href="api_2rwlock__recursive_8h.html" target="_top" xlink:title="ODP resursive read/write lock. ">
<polygon fill="white" stroke="black" points="732,-112.5 732,-131.5 836,-131.5 836,-112.5 732,-112.5"/>
<text text-anchor="middle" x="784" y="-119.5" font-family="Helvetica,sans-Serif" font-size="10.00">rwlock_recursive.h</text>
</a>
</g>
</g>
<!-- Node12&#45;&gt;Node13 -->
<g id="edge10" class="edge"><title>Node12&#45;&gt;Node13</title>
<path fill="none" stroke="midnightblue" d="M784,-157.805C784,-148.91 784,-138.78 784,-131.751"/>
<polygon fill="midnightblue" stroke="midnightblue" points="780.5,-158.083 784,-168.083 787.5,-158.083 780.5,-158.083"/>
</g>
<!-- Node13&#45;&gt;Node14 -->
<g id="edge11" class="edge"><title>Node13&#45;&gt;Node14</title>
<path fill="none" stroke="midnightblue" d="M796.7,-103.855C803.626,-94.5048 811.906,-83.3265 817.518,-75.7511"/>
<polygon fill="midnightblue" stroke="midnightblue" points="793.745,-101.964 790.605,-112.083 799.37,-106.131 793.745,-101.964"/>
</g>
<!-- Node15 -->
<g id="node13" class="node"><title>Node15</title>
<g id="a_node13"><a xlink:href="odp_8h.html" target="_top" xlink:title="WARNING: THIS FILE IS DEPRECATED AND WILL BE REMOVED!!! ODP APPLICATIONS SHOULD NOW INCLUDE odp_api...">
<polygon fill="white" stroke="black" points="802,-0.5 802,-19.5 846,-19.5 846,-0.5 802,-0.5"/>
<text text-anchor="middle" x="824" y="-7.5" font-family="Helvetica,sans-Serif" font-size="10.00">odp.h</text>
</a>
</g>
</g>
<!-- Node14&#45;&gt;Node15 -->
<g id="edge12" class="edge"><title>Node14&#45;&gt;Node15</title>
<path fill="none" stroke="midnightblue" d="M824,-45.8045C824,-36.9102 824,-26.7798 824,-19.7511"/>
<polygon fill="midnightblue" stroke="midnightblue" points="820.5,-46.083 824,-56.083 827.5,-46.083 820.5,-46.083"/>
</g>
</g>
</svg>
