<?xml version="1.0" encoding="UTF-8" standalone="no"?>
<!DOCTYPE svg PUBLIC "-//W3C//DTD SVG 1.1//EN"
 "http://www.w3.org/Graphics/SVG/1.1/DTD/svg11.dtd">
<!-- Generated by graphviz version 2.38.0 (20140413.2041)
 -->
<!-- Title: shared_memory.h Pages: 1 -->
<svg width="1325pt" height="498pt"
 viewBox="0.00 0.00 1325.00 498.00" xmlns="http://www.w3.org/2000/svg" xmlns:xlink="http://www.w3.org/1999/xlink">
<g id="graph0" class="graph" transform="scale(1 1) rotate(0) translate(4 494)">
<title>shared_memory.h</title>
<polygon fill="white" stroke="none" points="-4,4 -4,-494 1321,-494 1321,4 -4,4"/>
<!-- Node0 -->
<g id="node1" class="node"><title>Node0</title>
<polygon fill="#bfbfbf" stroke="black" points="545.5,-470.5 545.5,-489.5 648.5,-489.5 648.5,-470.5 545.5,-470.5"/>
<text text-anchor="middle" x="597" y="-477.5" font-family="Helvetica,sans-Serif" font-size="10.00">shared_memory.h</text>
</g>
<!-- Node1 -->
<g id="node2" class="node"><title>Node1</title>
<polygon fill="white" stroke="#bfbfbf" points="481.5,-403.5 481.5,-433.5 586.5,-433.5 586.5,-403.5 481.5,-403.5"/>
<text text-anchor="start" x="489.5" y="-421.5" font-family="Helvetica,sans-Serif" font-size="10.00">odp/api/abi/shared</text>
<text text-anchor="middle" x="534" y="-410.5" font-family="Helvetica,sans-Serif" font-size="10.00">_memory.h</text>
</g>
<!-- Node0&#45;&gt;Node1 -->
<g id="edge1" class="edge"><title>Node0&#45;&gt;Node1</title>
<path fill="none" stroke="midnightblue" d="M587.974,-470.475C579.76,-462.718 567.293,-450.943 556.409,-440.665"/>
<polygon fill="midnightblue" stroke="midnightblue" points="558.521,-437.845 548.848,-433.523 553.715,-442.934 558.521,-437.845"/>
</g>
<!-- Node2 -->
<g id="node3" class="node"><title>Node2</title>
<g id="a_node3"><a xlink:href="api_2spec_2shared__memory_8h.html" target="_top" xlink:title="ODP shared memory. ">
<polygon fill="white" stroke="black" points="604.5,-403.5 604.5,-433.5 717.5,-433.5 717.5,-403.5 604.5,-403.5"/>
<text text-anchor="start" x="612.5" y="-421.5" font-family="Helvetica,sans-Serif" font-size="10.00">odp/api/spec/shared</text>
<text text-anchor="middle" x="661" y="-410.5" font-family="Helvetica,sans-Serif" font-size="10.00">_memory.h</text>
</a>
</g>
</g>
<!-- Node0&#45;&gt;Node2 -->
<g id="edge2" class="edge"><title>Node0&#45;&gt;Node2</title>
<path fill="none" stroke="midnightblue" d="M606.17,-470.475C614.595,-462.643 627.425,-450.714 638.556,-440.366"/>
<polygon fill="midnightblue" stroke="midnightblue" points="640.976,-442.895 645.916,-433.523 636.209,-437.769 640.976,-442.895"/>
</g>
<!-- Node3 -->
<g id="node4" class="node"><title>Node3</title>
<g id="a_node4"><a xlink:href="visibility__begin_8h_source.html" target="_top" xlink:title="odp/visibility_begin.h">
<polygon fill="white" stroke="black" points="150.5,-0.5 150.5,-19.5 265.5,-19.5 265.5,-0.5 150.5,-0.5"/>
<text text-anchor="middle" x="208" y="-7.5" font-family="Helvetica,sans-Serif" font-size="10.00">odp/visibility_begin.h</text>
</a>
</g>
</g>
<!-- Node2&#45;&gt;Node3 -->
<g id="edge3" class="edge"><title>Node2&#45;&gt;Node3</title>
<path fill="none" stroke="midnightblue" d="M604.154,-404.829C601.061,-404.197 597.994,-403.583 595,-403 463.356,-377.381 0,-436.114 0,-302 0,-302 0,-302 0,-132 0,-94.6244 7.22558,-79.8531 36,-56 65.0897,-31.8855 105.689,-20.5437 140.138,-15.2732"/>
<polygon fill="midnightblue" stroke="midnightblue" points="140.72,-18.726 150.143,-13.8834 139.757,-11.7926 140.72,-18.726"/>
</g>
<!-- Node4 -->
<g id="node5" class="node"><title>Node4</title>
<g id="a_node5"><a xlink:href="api_2init_8h.html" target="_top" xlink:title="ODP initialization. ">
<polygon fill="white" stroke="black" points="622,-347.5 622,-366.5 700,-366.5 700,-347.5 622,-347.5"/>
<text text-anchor="middle" x="661" y="-354.5" font-family="Helvetica,sans-Serif" font-size="10.00">odp/api/init.h</text>
</a>
</g>
</g>
<!-- Node2&#45;&gt;Node4 -->
<g id="edge4" class="edge"><title>Node2&#45;&gt;Node4</title>
<path fill="none" stroke="midnightblue" d="M661,-403.399C661,-395.466 661,-385.458 661,-376.858"/>
<polygon fill="midnightblue" stroke="midnightblue" points="664.5,-376.658 661,-366.658 657.5,-376.658 664.5,-376.658"/>
</g>
<!-- Node11 -->
<g id="node12" class="node"><title>Node11</title>
<g id="a_node12"><a xlink:href="visibility__end_8h_source.html" target="_top" xlink:title="odp/visibility_end.h">
<polygon fill="white" stroke="black" points="886.5,-0.5 886.5,-19.5 993.5,-19.5 993.5,-0.5 886.5,-0.5"/>
<text text-anchor="middle" x="940" y="-7.5" font-family="Helvetica,sans-Serif" font-size="10.00">odp/visibility_end.h</text>
</a>
</g>
</g>
<!-- Node2&#45;&gt;Node11 -->
<g id="edge35" class="edge"><title>Node2&#45;&gt;Node11</title>
<path fill="none" stroke="midnightblue" d="M717.783,-413.469C877.144,-401.401 1317,-362.603 1317,-302 1317,-302 1317,-302 1317,-132 1317,-94.9962 1312.7,-78.0689 1283,-56 1234.91,-20.2663 1079.98,-27.6466 1003.81,-19.9088"/>
<polygon fill="midnightblue" stroke="midnightblue" points="1003.95,-16.4008 993.609,-18.7106 1003.13,-23.353 1003.95,-16.4008"/>
</g>
<!-- Node5 -->
<g id="node6" class="node"><title>Node5</title>
<polygon fill="white" stroke="#bfbfbf" points="554.5,-291.5 554.5,-310.5 649.5,-310.5 649.5,-291.5 554.5,-291.5"/>
<text text-anchor="middle" x="602" y="-298.5" font-family="Helvetica,sans-Serif" font-size="10.00">odp/api/abi/init.h</text>
</g>
<!-- Node4&#45;&gt;Node5 -->
<g id="edge5" class="edge"><title>Node4&#45;&gt;Node5</title>
<path fill="none" stroke="midnightblue" d="M651.521,-347.324C642.799,-339.341 629.657,-327.313 619.102,-317.653"/>
<polygon fill="midnightblue" stroke="midnightblue" points="621.392,-315.004 611.652,-310.834 616.666,-320.167 621.392,-315.004"/>
</g>
<!-- Node6 -->
<g id="node7" class="node"><title>Node6</title>
<g id="a_node7"><a xlink:href="api_2spec_2init_8h.html" target="_top" xlink:title="odp/api/spec/init.h">
<polygon fill="white" stroke="black" points="668,-291.5 668,-310.5 772,-310.5 772,-291.5 668,-291.5"/>
<text text-anchor="middle" x="720" y="-298.5" font-family="Helvetica,sans-Serif" font-size="10.00">odp/api/spec/init.h</text>
</a>
</g>
</g>
<!-- Node4&#45;&gt;Node6 -->
<g id="edge6" class="edge"><title>Node4&#45;&gt;Node6</title>
<path fill="none" stroke="midnightblue" d="M670.479,-347.324C679.201,-339.341 692.343,-327.313 702.898,-317.653"/>
<polygon fill="midnightblue" stroke="midnightblue" points="705.334,-320.167 710.348,-310.834 700.608,-315.004 705.334,-320.167"/>
</g>
<!-- Node6&#45;&gt;Node3 -->
<g id="edge7" class="edge"><title>Node6&#45;&gt;Node3</title>
<path fill="none" stroke="midnightblue" d="M667.779,-292.129C664.811,-291.734 661.869,-291.354 659,-291 520.24,-273.874 38,-329.813 38,-190 38,-190 38,-190 38,-132 38,-97.1827 32.9362,-81.1631 57,-56 78.5628,-33.4522 110.884,-22.0634 140.097,-16.366"/>
<polygon fill="midnightblue" stroke="midnightblue" points="141.034,-19.7552 150.278,-14.5791 139.823,-12.8606 141.034,-19.7552"/>
</g>
<!-- Node7 -->
<g id="node8" class="node"><title>Node7</title>
<g id="a_node8"><a xlink:href="api_2std__types_8h.html" target="_top" xlink:title="Standard C language types and definitions for ODP. ">
<polygon fill="white" stroke="black" points="979,-123.5 979,-142.5 1089,-142.5 1089,-123.5 979,-123.5"/>
<text text-anchor="middle" x="1034" y="-130.5" font-family="Helvetica,sans-Serif" font-size="10.00">odp/api/std_types.h</text>
</a>
</g>
</g>
<!-- Node6&#45;&gt;Node7 -->
<g id="edge8" class="edge"><title>Node6&#45;&gt;Node7</title>
<path fill="none" stroke="midnightblue" d="M759.736,-291.466C791.845,-283.882 837.815,-271.449 876,-255 921.013,-235.61 932.487,-229.314 971,-199 989.612,-184.35 1008.15,-164.42 1020.24,-150.505"/>
<polygon fill="midnightblue" stroke="midnightblue" points="1023.06,-152.598 1026.88,-142.719 1017.73,-148.055 1023.06,-152.598"/>
</g>
<!-- Node6&#45;&gt;Node11 -->
<g id="edge34" class="edge"><title>Node6&#45;&gt;Node11</title>
<path fill="none" stroke="midnightblue" d="M772.087,-300.7C910.859,-301.172 1279,-292.742 1279,-190 1279,-190 1279,-190 1279,-132 1279,-97.1827 1285.89,-79.2833 1260,-56 1219.22,-19.3184 1075.16,-27.1558 1003.98,-19.9122"/>
<polygon fill="midnightblue" stroke="midnightblue" points="1003.96,-16.3852 993.615,-18.6694 1003.13,-23.3354 1003.96,-16.3852"/>
</g>
<!-- Node12 -->
<g id="node13" class="node"><title>Node12</title>
<g id="a_node13"><a xlink:href="hints_8h.html" target="_top" xlink:title="ODP compiler hints. ">
<polygon fill="white" stroke="black" points="306.5,-235.5 306.5,-254.5 393.5,-254.5 393.5,-235.5 306.5,-235.5"/>
<text text-anchor="middle" x="350" y="-242.5" font-family="Helvetica,sans-Serif" font-size="10.00">odp/api/hints.h</text>
</a>
</g>
</g>
<!-- Node6&#45;&gt;Node12 -->
<g id="edge14" class="edge"><title>Node6&#45;&gt;Node12</title>
<path fill="none" stroke="midnightblue" d="M667.758,-292.286C664.795,-291.85 661.86,-291.419 659,-291 569.505,-277.881 465.411,-262.748 403.763,-253.798"/>
<polygon fill="midnightblue" stroke="midnightblue" points="403.9,-250.282 393.501,-252.309 402.894,-257.209 403.9,-250.282"/>
</g>
<!-- Node14 -->
<g id="node15" class="node"><title>Node14</title>
<g id="a_node15"><a xlink:href="feature_8h.html" target="_top" xlink:title="ODP features. ">
<polygon fill="white" stroke="black" points="769,-235.5 769,-254.5 867,-254.5 867,-235.5 769,-235.5"/>
<text text-anchor="middle" x="818" y="-242.5" font-family="Helvetica,sans-Serif" font-size="10.00">odp/api/feature.h</text>
</a>
</g>
</g>
<!-- Node6&#45;&gt;Node14 -->
<g id="edge18" class="edge"><title>Node6&#45;&gt;Node14</title>
<path fill="none" stroke="midnightblue" d="M735.745,-291.324C751.319,-282.743 775.377,-269.486 793.459,-259.522"/>
<polygon fill="midnightblue" stroke="midnightblue" points="795.224,-262.546 802.294,-254.655 791.846,-256.415 795.224,-262.546"/>
</g>
<!-- Node16 -->
<g id="node17" class="node"><title>Node16</title>
<g id="a_node17"><a xlink:href="api_2thread_8h.html" target="_top" xlink:title="ODP thread API. ">
<polygon fill="white" stroke="black" points="443.5,-123.5 443.5,-142.5 538.5,-142.5 538.5,-123.5 443.5,-123.5"/>
<text text-anchor="middle" x="491" y="-130.5" font-family="Helvetica,sans-Serif" font-size="10.00">odp/api/thread.h</text>
</a>
</g>
</g>
<!-- Node6&#45;&gt;Node16 -->
<g id="edge23" class="edge"><title>Node6&#45;&gt;Node16</title>
<path fill="none" stroke="midnightblue" d="M708.01,-291.309C670.912,-264.416 557.702,-182.352 511.233,-148.666"/>
<polygon fill="midnightblue" stroke="midnightblue" points="513.022,-145.64 502.871,-142.605 508.913,-151.308 513.022,-145.64"/>
</g>
<!-- Node20 -->
<g id="node21" class="node"><title>Node20</title>
<g id="a_node21"><a xlink:href="api_2cpumask_8h.html" target="_top" xlink:title="ODP CPU masks and enumeration. ">
<polygon fill="white" stroke="black" points="666.5,-123.5 666.5,-142.5 773.5,-142.5 773.5,-123.5 666.5,-123.5"/>
<text text-anchor="middle" x="720" y="-130.5" font-family="Helvetica,sans-Serif" font-size="10.00">odp/api/cpumask.h</text>
</a>
</g>
</g>
<!-- Node6&#45;&gt;Node20 -->
<g id="edge29" class="edge"><title>Node6&#45;&gt;Node20</title>
<path fill="none" stroke="midnightblue" d="M720,-291.075C720,-264.945 720,-188.211 720,-152.577"/>
<polygon fill="midnightblue" stroke="midnightblue" points="723.5,-152.568 720,-142.568 716.5,-152.568 723.5,-152.568"/>
</g>
<!-- Node8 -->
<g id="node9" class="node"><title>Node8</title>
<polygon fill="white" stroke="#bfbfbf" points="1123,-62 1123,-81 1251,-81 1251,-62 1123,-62"/>
<text text-anchor="middle" x="1187" y="-69" font-family="Helvetica,sans-Serif" font-size="10.00">odp/api/abi/std_types.h</text>
</g>
<!-- Node7&#45;&gt;Node8 -->
<g id="edge9" class="edge"><title>Node7&#45;&gt;Node8</title>
<path fill="none" stroke="midnightblue" d="M1055.92,-123.475C1082.05,-113.313 1125.91,-96.2564 1155.63,-84.6996"/>
<polygon fill="midnightblue" stroke="midnightblue" points="1157.07,-87.8956 1165.12,-81.0091 1154.53,-81.3716 1157.07,-87.8956"/>
</g>
<!-- Node9 -->
<g id="node10" class="node"><title>Node9</title>
<g id="a_node10"><a xlink:href="api_2spec_2std__types_8h.html" target="_top" xlink:title="Standard C language types and definitions for ODP. ">
<polygon fill="white" stroke="black" points="969,-62 969,-81 1105,-81 1105,-62 969,-62"/>
<text text-anchor="middle" x="1037" y="-69" font-family="Helvetica,sans-Serif" font-size="10.00">odp/api/spec/std_types.h</text>
</a>
</g>
</g>
<!-- Node7&#45;&gt;Node9 -->
<g id="edge10" class="edge"><title>Node7&#45;&gt;Node9</title>
<path fill="none" stroke="midnightblue" d="M1034.43,-123.475C1034.85,-115.08 1035.51,-101.981 1036.06,-91.1631"/>
<polygon fill="midnightblue" stroke="midnightblue" points="1039.56,-91.1727 1036.57,-81.0091 1032.57,-90.8201 1039.56,-91.1727"/>
</g>
<!-- Node9&#45;&gt;Node3 -->
<g id="edge11" class="edge"><title>Node9&#45;&gt;Node3</title>
<path fill="none" stroke="midnightblue" d="M975.008,-61.9628C957.861,-59.798 939.229,-57.6275 922,-56 685.364,-33.6466 403.523,-19.5666 276.298,-13.8821"/>
<polygon fill="midnightblue" stroke="midnightblue" points="276.085,-10.3692 265.94,-13.4225 275.775,-17.3624 276.085,-10.3692"/>
</g>
<!-- Node10 -->
<g id="node11" class="node"><title>Node10</title>
<polygon fill="white" stroke="#bfbfbf" points="1011.5,-0.5 1011.5,-19.5 1064.5,-19.5 1064.5,-0.5 1011.5,-0.5"/>
<text text-anchor="middle" x="1038" y="-7.5" font-family="Helvetica,sans-Serif" font-size="10.00">stdint.h</text>
</g>
<!-- Node9&#45;&gt;Node10 -->
<g id="edge12" class="edge"><title>Node9&#45;&gt;Node10</title>
<path fill="none" stroke="midnightblue" d="M1037.14,-61.9751C1037.28,-53.5803 1037.5,-40.4806 1037.69,-29.6631"/>
<polygon fill="midnightblue" stroke="midnightblue" points="1041.19,-29.5665 1037.86,-19.5091 1034.19,-29.4488 1041.19,-29.5665"/>
</g>
<!-- Node9&#45;&gt;Node11 -->
<g id="edge13" class="edge"><title>Node9&#45;&gt;Node11</title>
<path fill="none" stroke="midnightblue" d="M1023.1,-61.9751C1007.33,-52.2989 981.363,-36.3721 962.651,-24.8941"/>
<polygon fill="midnightblue" stroke="midnightblue" points="964.226,-21.7544 953.872,-19.5091 960.566,-27.7213 964.226,-21.7544"/>
</g>
<!-- Node13 -->
<g id="node14" class="node"><title>Node13</title>
<g id="a_node14"><a xlink:href="spec_2hints_8h.html" target="_top" xlink:title="ODP compiler hints. ">
<polygon fill="white" stroke="black" points="66.5,-62 66.5,-81 179.5,-81 179.5,-62 66.5,-62"/>
<text text-anchor="middle" x="123" y="-69" font-family="Helvetica,sans-Serif" font-size="10.00">odp/api/spec/hints.h</text>
</a>
</g>
</g>
<!-- Node12&#45;&gt;Node13 -->
<g id="edge15" class="edge"><title>Node12&#45;&gt;Node13</title>
<path fill="none" stroke="midnightblue" d="M334.217,-235.25C305.206,-218.856 241.986,-181.664 194,-143 173,-126.08 151.359,-103.754 137.577,-88.8015"/>
<polygon fill="midnightblue" stroke="midnightblue" points="140.102,-86.3756 130.783,-81.3343 134.924,-91.0865 140.102,-86.3756"/>
</g>
<!-- Node13&#45;&gt;Node3 -->
<g id="edge16" class="edge"><title>Node13&#45;&gt;Node3</title>
<path fill="none" stroke="midnightblue" d="M135.178,-61.9751C148.812,-52.4315 171.132,-36.8073 187.474,-25.3683"/>
<polygon fill="midnightblue" stroke="midnightblue" points="189.659,-28.1111 195.844,-19.5091 185.645,-22.3764 189.659,-28.1111"/>
</g>
<!-- Node13&#45;&gt;Node11 -->
<g id="edge17" class="edge"><title>Node13&#45;&gt;Node11</title>
<path fill="none" stroke="midnightblue" d="M178.499,-61.972C194.154,-59.7815 211.22,-57.5957 227,-56 465.855,-31.8464 751.119,-18.4922 876.068,-13.4146"/>
<polygon fill="midnightblue" stroke="midnightblue" points="876.37,-16.9054 886.221,-13.006 876.088,-9.91109 876.37,-16.9054"/>
</g>
<!-- Node15 -->
<g id="node16" class="node"><title>Node15</title>
<g id="a_node16"><a xlink:href="spec_2feature_8h.html" target="_top" xlink:title="ODP features. ">
<polygon fill="white" stroke="black" points="838,-179.5 838,-198.5 962,-198.5 962,-179.5 838,-179.5"/>
<text text-anchor="middle" x="900" y="-186.5" font-family="Helvetica,sans-Serif" font-size="10.00">odp/api/spec/feature.h</text>
</a>
</g>
</g>
<!-- Node14&#45;&gt;Node15 -->
<g id="edge19" class="edge"><title>Node14&#45;&gt;Node15</title>
<path fill="none" stroke="midnightblue" d="M831.175,-235.324C843.847,-226.979 863.233,-214.212 878.206,-204.352"/>
<polygon fill="midnightblue" stroke="midnightblue" points="880.431,-207.078 886.858,-198.655 876.581,-201.231 880.431,-207.078"/>
</g>
<!-- Node15&#45;&gt;Node3 -->
<g id="edge20" class="edge"><title>Node15&#45;&gt;Node3</title>
<path fill="none" stroke="midnightblue" d="M837.732,-185.314C747.934,-180.69 577.133,-169.081 434,-143 340.237,-125.915 293.741,-155.037 227,-87 212.22,-71.9328 208.377,-47.2046 207.643,-30.0654"/>
<polygon fill="midnightblue" stroke="midnightblue" points="211.138,-29.5874 207.534,-19.6242 204.138,-29.6599 211.138,-29.5874"/>
</g>
<!-- Node15&#45;&gt;Node7 -->
<g id="edge21" class="edge"><title>Node15&#45;&gt;Node7</title>
<path fill="none" stroke="midnightblue" d="M921.233,-179.444C943.384,-170.517 978.319,-156.439 1003.44,-146.317"/>
<polygon fill="midnightblue" stroke="midnightblue" points="1004.9,-149.501 1012.87,-142.516 1002.28,-143.008 1004.9,-149.501"/>
</g>
<!-- Node15&#45;&gt;Node11 -->
<g id="edge22" class="edge"><title>Node15&#45;&gt;Node11</title>
<path fill="none" stroke="midnightblue" d="M901.929,-179.463C908.039,-152.428 927.065,-68.2392 935.682,-30.109"/>
<polygon fill="midnightblue" stroke="midnightblue" points="939.205,-30.3939 937.996,-19.8684 932.378,-28.8509 939.205,-30.3939"/>
</g>
<!-- Node17 -->
<g id="node18" class="node"><title>Node17</title>
<g id="a_node18"><a xlink:href="thread__types_8h.html" target="_top" xlink:title="ODP thread API types. ">
<polygon fill="white" stroke="black" points="236,-56.5 236,-86.5 348,-86.5 348,-56.5 236,-56.5"/>
<text text-anchor="start" x="244" y="-74.5" font-family="Helvetica,sans-Serif" font-size="10.00">odp/api/spec/thread</text>
<text text-anchor="middle" x="292" y="-63.5" font-family="Helvetica,sans-Serif" font-size="10.00">_types.h</text>
</a>
</g>
</g>
<!-- Node16&#45;&gt;Node17 -->
<g id="edge24" class="edge"><title>Node16&#45;&gt;Node17</title>
<path fill="none" stroke="midnightblue" d="M462.488,-123.475C432.892,-114.626 385.81,-100.549 348.615,-89.4277"/>
<polygon fill="midnightblue" stroke="midnightblue" points="349.484,-86.0344 338.9,-86.523 347.479,-92.741 349.484,-86.0344"/>
</g>
<!-- Node18 -->
<g id="node19" class="node"><title>Node18</title>
<polygon fill="white" stroke="#bfbfbf" points="366.5,-62 366.5,-81 479.5,-81 479.5,-62 366.5,-62"/>
<text text-anchor="middle" x="423" y="-69" font-family="Helvetica,sans-Serif" font-size="10.00">odp/api/abi/thread.h</text>
</g>
<!-- Node16&#45;&gt;Node18 -->
<g id="edge25" class="edge"><title>Node16&#45;&gt;Node18</title>
<path fill="none" stroke="midnightblue" d="M481.257,-123.475C470.653,-114.197 453.481,-99.1706 440.521,-87.831"/>
<polygon fill="midnightblue" stroke="midnightblue" points="442.555,-84.9601 432.725,-81.0091 437.946,-90.2282 442.555,-84.9601"/>
</g>
<!-- Node19 -->
<g id="node20" class="node"><title>Node19</title>
<g id="a_node20"><a xlink:href="api_2spec_2thread_8h.html" target="_top" xlink:title="ODP thread API. ">
<polygon fill="white" stroke="black" points="497.5,-62 497.5,-81 618.5,-81 618.5,-62 497.5,-62"/>
<text text-anchor="middle" x="558" y="-69" font-family="Helvetica,sans-Serif" font-size="10.00">odp/api/spec/thread.h</text>
</a>
</g>
</g>
<!-- Node16&#45;&gt;Node19 -->
<g id="edge26" class="edge"><title>Node16&#45;&gt;Node19</title>
<path fill="none" stroke="midnightblue" d="M500.599,-123.475C511.048,-114.197 527.968,-99.1706 540.736,-87.831"/>
<polygon fill="midnightblue" stroke="midnightblue" points="543.265,-90.2663 548.418,-81.0091 538.617,-85.0323 543.265,-90.2663"/>
</g>
<!-- Node19&#45;&gt;Node3 -->
<g id="edge27" class="edge"><title>Node19&#45;&gt;Node3</title>
<path fill="none" stroke="midnightblue" d="M518.45,-61.9843C508.525,-59.9366 497.887,-57.8176 488,-56 415.596,-42.6898 332.251,-29.5765 275.446,-20.9708"/>
<polygon fill="midnightblue" stroke="midnightblue" points="275.919,-17.5027 265.509,-19.4703 274.874,-24.4242 275.919,-17.5027"/>
</g>
<!-- Node19&#45;&gt;Node11 -->
<g id="edge28" class="edge"><title>Node19&#45;&gt;Node11</title>
<path fill="none" stroke="midnightblue" d="M597.163,-61.9483C607.192,-59.8793 617.976,-57.7593 628,-56 713.527,-40.9885 812.888,-27.2986 876.081,-19.0586"/>
<polygon fill="midnightblue" stroke="midnightblue" points="876.823,-22.4917 886.29,-17.7339 875.922,-15.5499 876.823,-22.4917"/>
</g>
<!-- Node21 -->
<g id="node22" class="node"><title>Node21</title>
<polygon fill="white" stroke="#bfbfbf" points="636.5,-62 636.5,-81 761.5,-81 761.5,-62 636.5,-62"/>
<text text-anchor="middle" x="699" y="-69" font-family="Helvetica,sans-Serif" font-size="10.00">odp/api/abi/cpumask.h</text>
</g>
<!-- Node20&#45;&gt;Node21 -->
<g id="edge30" class="edge"><title>Node20&#45;&gt;Node21</title>
<path fill="none" stroke="midnightblue" d="M716.991,-123.475C713.966,-114.904 709.21,-101.427 705.347,-90.483"/>
<polygon fill="midnightblue" stroke="midnightblue" points="708.632,-89.2741 702.003,-81.0091 702.031,-91.6039 708.632,-89.2741"/>
</g>
<!-- Node22 -->
<g id="node23" class="node"><title>Node22</title>
<g id="a_node23"><a xlink:href="api_2spec_2cpumask_8h.html" target="_top" xlink:title="ODP CPU masks and enumeration. ">
<polygon fill="white" stroke="black" points="779.5,-62 779.5,-81 912.5,-81 912.5,-62 779.5,-62"/>
<text text-anchor="middle" x="846" y="-69" font-family="Helvetica,sans-Serif" font-size="10.00">odp/api/spec/cpumask.h</text>
</a>
</g>
</g>
<!-- Node20&#45;&gt;Node22 -->
<g id="edge31" class="edge"><title>Node20&#45;&gt;Node22</title>
<path fill="none" stroke="midnightblue" d="M738.053,-123.475C759.198,-113.49 794.44,-96.8476 818.878,-85.3075"/>
<polygon fill="midnightblue" stroke="midnightblue" points="820.433,-88.4441 827.981,-81.0091 817.444,-82.1143 820.433,-88.4441"/>
</g>
<!-- Node22&#45;&gt;Node3 -->
<g id="edge32" class="edge"><title>Node22&#45;&gt;Node3</title>
<path fill="none" stroke="midnightblue" d="M806.434,-61.9971C795.04,-59.7806 782.564,-57.575 771,-56 593.29,-31.7956 382.115,-19.2065 276.016,-13.9909"/>
<polygon fill="midnightblue" stroke="midnightblue" points="275.929,-10.4827 265.772,-13.4943 275.59,-17.4745 275.929,-10.4827"/>
</g>
<!-- Node22&#45;&gt;Node11 -->
<g id="edge33" class="edge"><title>Node22&#45;&gt;Node11</title>
<path fill="none" stroke="midnightblue" d="M859.468,-61.9751C874.685,-52.3431 899.687,-36.5175 917.801,-25.0517"/>
<polygon fill="midnightblue" stroke="midnightblue" points="919.979,-27.8149 926.557,-19.5091 916.236,-21.9002 919.979,-27.8149"/>
</g>
</g>
</svg>
