<?xml version="1.0" encoding="UTF-8" standalone="no"?>
<!DOCTYPE svg PUBLIC "-//W3C//DTD SVG 1.1//EN"
 "http://www.w3.org/Graphics/SVG/1.1/DTD/svg11.dtd">
<!-- Generated by graphviz version 2.38.0 (20140413.2041)
 -->
<!-- Title: traffic_mngr.h Pages: 1 -->
<svg width="697pt" height="252pt"
 viewBox="0.00 0.00 697.00 252.00" xmlns="http://www.w3.org/2000/svg" xmlns:xlink="http://www.w3.org/1999/xlink">
<g id="graph0" class="graph" transform="scale(1 1) rotate(0) translate(4 248)">
<title>traffic_mngr.h</title>
<polygon fill="white" stroke="none" points="-4,4 -4,-248 693,-248 693,4 -4,4"/>
<!-- Node7 -->
<g id="node1" class="node"><title>Node7</title>
<polygon fill="#bfbfbf" stroke="black" points="303,-224.5 303,-243.5 386,-243.5 386,-224.5 303,-224.5"/>
<text text-anchor="middle" x="344.5" y="-231.5" font-family="Helvetica,sans-Serif" font-size="10.00">traffic_mngr.h</text>
</g>
<!-- Node8 -->
<g id="node2" class="node"><title>Node8</title>
<g id="a_node2"><a xlink:href="arch_2arm32-linux_2odp_2api_2abi_2traffic__mngr_8h_source.html" target="_top" xlink:title="traffic_mngr.h">
<polygon fill="white" stroke="black" points="0,-168.5 0,-187.5 83,-187.5 83,-168.5 0,-168.5"/>
<text text-anchor="middle" x="41.5" y="-175.5" font-family="Helvetica,sans-Serif" font-size="10.00">traffic_mngr.h</text>
</a>
</g>
</g>
<!-- Node7&#45;&gt;Node8 -->
<g id="edge1" class="edge"><title>Node7&#45;&gt;Node8</title>
<path fill="none" stroke="midnightblue" d="M292.808,-223.788C233.688,-213.251 138.033,-196.204 83.3698,-186.462"/>
<polygon fill="midnightblue" stroke="midnightblue" points="292.228,-227.239 302.687,-225.548 293.457,-220.348 292.228,-227.239"/>
</g>
<!-- Node9 -->
<g id="node3" class="node"><title>Node9</title>
<g id="a_node3"><a xlink:href="arch_2arm64-linux_2odp_2api_2abi_2traffic__mngr_8h_source.html" target="_top" xlink:title="traffic_mngr.h">
<polygon fill="white" stroke="black" points="101,-168.5 101,-187.5 184,-187.5 184,-168.5 101,-168.5"/>
<text text-anchor="middle" x="142.5" y="-175.5" font-family="Helvetica,sans-Serif" font-size="10.00">traffic_mngr.h</text>
</a>
</g>
</g>
<!-- Node7&#45;&gt;Node9 -->
<g id="edge2" class="edge"><title>Node7&#45;&gt;Node9</title>
<path fill="none" stroke="midnightblue" d="M302.712,-221.829C264.573,-211.633 209.019,-196.782 174.358,-187.516"/>
<polygon fill="midnightblue" stroke="midnightblue" points="301.928,-225.242 312.492,-224.444 303.736,-218.48 301.928,-225.242"/>
</g>
<!-- Node10 -->
<g id="node4" class="node"><title>Node10</title>
<g id="a_node4"><a xlink:href="arch_2default-linux_2odp_2api_2abi_2traffic__mngr_8h_source.html" target="_top" xlink:title="traffic_mngr.h">
<polygon fill="white" stroke="black" points="202,-168.5 202,-187.5 285,-187.5 285,-168.5 202,-168.5"/>
<text text-anchor="middle" x="243.5" y="-175.5" font-family="Helvetica,sans-Serif" font-size="10.00">traffic_mngr.h</text>
</a>
</g>
</g>
<!-- Node7&#45;&gt;Node10 -->
<g id="edge3" class="edge"><title>Node7&#45;&gt;Node10</title>
<path fill="none" stroke="midnightblue" d="M319.417,-219.59C300.743,-209.605 275.796,-196.267 259.687,-187.655"/>
<polygon fill="midnightblue" stroke="midnightblue" points="317.804,-222.696 328.273,-224.324 321.104,-216.522 317.804,-222.696"/>
</g>
<!-- Node11 -->
<g id="node5" class="node"><title>Node11</title>
<g id="a_node5"><a xlink:href="arch_2mips64-linux_2odp_2api_2abi_2traffic__mngr_8h_source.html" target="_top" xlink:title="traffic_mngr.h">
<polygon fill="white" stroke="black" points="303,-168.5 303,-187.5 386,-187.5 386,-168.5 303,-168.5"/>
<text text-anchor="middle" x="344.5" y="-175.5" font-family="Helvetica,sans-Serif" font-size="10.00">traffic_mngr.h</text>
</a>
</g>
</g>
<!-- Node7&#45;&gt;Node11 -->
<g id="edge4" class="edge"><title>Node7&#45;&gt;Node11</title>
<path fill="none" stroke="midnightblue" d="M344.5,-213.805C344.5,-204.91 344.5,-194.78 344.5,-187.751"/>
<polygon fill="midnightblue" stroke="midnightblue" points="341,-214.083 344.5,-224.083 348,-214.083 341,-214.083"/>
</g>
<!-- Node12 -->
<g id="node6" class="node"><title>Node12</title>
<g id="a_node6"><a xlink:href="arch_2power64-linux_2odp_2api_2abi_2traffic__mngr_8h_source.html" target="_top" xlink:title="traffic_mngr.h">
<polygon fill="white" stroke="black" points="404,-168.5 404,-187.5 487,-187.5 487,-168.5 404,-168.5"/>
<text text-anchor="middle" x="445.5" y="-175.5" font-family="Helvetica,sans-Serif" font-size="10.00">traffic_mngr.h</text>
</a>
</g>
</g>
<!-- Node7&#45;&gt;Node12 -->
<g id="edge5" class="edge"><title>Node7&#45;&gt;Node12</title>
<path fill="none" stroke="midnightblue" d="M369.583,-219.59C388.257,-209.605 413.204,-196.267 429.313,-187.655"/>
<polygon fill="midnightblue" stroke="midnightblue" points="367.896,-216.522 360.727,-224.324 371.196,-222.696 367.896,-216.522"/>
</g>
<!-- Node13 -->
<g id="node7" class="node"><title>Node13</title>
<g id="a_node7"><a xlink:href="arch_2x86__32-linux_2odp_2api_2abi_2traffic__mngr_8h_source.html" target="_top" xlink:title="traffic_mngr.h">
<polygon fill="white" stroke="black" points="505,-168.5 505,-187.5 588,-187.5 588,-168.5 505,-168.5"/>
<text text-anchor="middle" x="546.5" y="-175.5" font-family="Helvetica,sans-Serif" font-size="10.00">traffic_mngr.h</text>
</a>
</g>
</g>
<!-- Node7&#45;&gt;Node13 -->
<g id="edge6" class="edge"><title>Node7&#45;&gt;Node13</title>
<path fill="none" stroke="midnightblue" d="M386.288,-221.829C424.427,-211.633 479.981,-196.782 514.642,-187.516"/>
<polygon fill="midnightblue" stroke="midnightblue" points="385.264,-218.48 376.508,-224.444 387.072,-225.242 385.264,-218.48"/>
</g>
<!-- Node14 -->
<g id="node8" class="node"><title>Node14</title>
<g id="a_node8"><a xlink:href="arch_2x86__64-linux_2odp_2api_2abi_2traffic__mngr_8h_source.html" target="_top" xlink:title="traffic_mngr.h">
<polygon fill="white" stroke="black" points="606,-168.5 606,-187.5 689,-187.5 689,-168.5 606,-168.5"/>
<text text-anchor="middle" x="647.5" y="-175.5" font-family="Helvetica,sans-Serif" font-size="10.00">traffic_mngr.h</text>
</a>
</g>
</g>
<!-- Node7&#45;&gt;Node14 -->
<g id="edge7" class="edge"><title>Node7&#45;&gt;Node14</title>
<path fill="none" stroke="midnightblue" d="M396.279,-223.823C447.42,-214.751 527.861,-200.461 597.5,-188 600.191,-187.518 602.964,-187.021 605.759,-186.52"/>
<polygon fill="midnightblue" stroke="midnightblue" points="395.375,-220.428 386.14,-225.621 396.597,-227.321 395.375,-220.428"/>
</g>
<!-- Node15 -->
<g id="node9" class="node"><title>Node15</title>
<g id="a_node9"><a xlink:href="api_2traffic__mngr_8h.html" target="_top" xlink:title="ODP Traffic manager. ">
<polygon fill="white" stroke="black" points="606,-112.5 606,-131.5 689,-131.5 689,-112.5 606,-112.5"/>
<text text-anchor="middle" x="647.5" y="-119.5" font-family="Helvetica,sans-Serif" font-size="10.00">traffic_mngr.h</text>
</a>
</g>
</g>
<!-- Node14&#45;&gt;Node15 -->
<g id="edge8" class="edge"><title>Node14&#45;&gt;Node15</title>
<path fill="none" stroke="midnightblue" d="M647.5,-157.805C647.5,-148.91 647.5,-138.78 647.5,-131.751"/>
<polygon fill="midnightblue" stroke="midnightblue" points="644,-158.083 647.5,-168.083 651,-158.083 644,-158.083"/>
</g>
<!-- Node16 -->
<g id="node10" class="node"><title>Node16</title>
<g id="a_node10"><a xlink:href="odp__api_8h.html" target="_top" xlink:title="The OpenDataPlane API. ">
<polygon fill="white" stroke="black" points="616,-56.5 616,-75.5 679,-75.5 679,-56.5 616,-56.5"/>
<text text-anchor="middle" x="647.5" y="-63.5" font-family="Helvetica,sans-Serif" font-size="10.00">odp_api.h</text>
</a>
</g>
</g>
<!-- Node15&#45;&gt;Node16 -->
<g id="edge9" class="edge"><title>Node15&#45;&gt;Node16</title>
<path fill="none" stroke="midnightblue" d="M647.5,-101.805C647.5,-92.9102 647.5,-82.7798 647.5,-75.7511"/>
<polygon fill="midnightblue" stroke="midnightblue" points="644,-102.083 647.5,-112.083 651,-102.083 644,-102.083"/>
</g>
<!-- Node17 -->
<g id="node11" class="node"><title>Node17</title>
<g id="a_node11"><a xlink:href="odp_8h.html" target="_top" xlink:title="WARNING: THIS FILE IS DEPRECATED AND WILL BE REMOVED!!! ODP APPLICATIONS SHOULD NOW INCLUDE odp_api...">
<polygon fill="white" stroke="black" points="625.5,-0.5 625.5,-19.5 669.5,-19.5 669.5,-0.5 625.5,-0.5"/>
<text text-anchor="middle" x="647.5" y="-7.5" font-family="Helvetica,sans-Serif" font-size="10.00">odp.h</text>
</a>
</g>
</g>
<!-- Node16&#45;&gt;Node17 -->
<g id="edge10" class="edge"><title>Node16&#45;&gt;Node17</title>
<path fill="none" stroke="midnightblue" d="M647.5,-45.8045C647.5,-36.9102 647.5,-26.7798 647.5,-19.7511"/>
<polygon fill="midnightblue" stroke="midnightblue" points="644,-46.083 647.5,-56.083 651,-46.083 644,-46.083"/>
</g>
</g>
</svg>
