<?xml version="1.0" encoding="UTF-8" standalone="no"?>
<!DOCTYPE svg PUBLIC "-//W3C//DTD SVG 1.1//EN"
 "http://www.w3.org/Graphics/SVG/1.1/DTD/svg11.dtd">
<!-- Generated by graphviz version 2.38.0 (20140413.2041)
 -->
<!-- Title: crypto.h Pages: 1 -->
<svg width="1601pt" height="610pt"
 viewBox="0.00 0.00 1601.48 610.00" xmlns="http://www.w3.org/2000/svg" xmlns:xlink="http://www.w3.org/1999/xlink">
<g id="graph0" class="graph" transform="scale(1 1) rotate(0) translate(4 606)">
<title>crypto.h</title>
<polygon fill="white" stroke="none" points="-4,4 -4,-606 1597.48,-606 1597.48,4 -4,4"/>
<!-- Node0 -->
<g id="node1" class="node"><title>Node0</title>
<polygon fill="#bfbfbf" stroke="black" points="365.983,-582.5 365.983,-601.5 421.983,-601.5 421.983,-582.5 365.983,-582.5"/>
<text text-anchor="middle" x="393.983" y="-589.5" font-family="Helvetica,sans-Serif" font-size="10.00">crypto.h</text>
</g>
<!-- Node1 -->
<g id="node2" class="node"><title>Node1</title>
<g id="a_node2"><a xlink:href="api_2std__types_8h.html" target="_top" xlink:title="Standard C language types and definitions for ODP. ">
<polygon fill="white" stroke="black" points="364.983,-112.5 364.983,-131.5 474.983,-131.5 474.983,-112.5 364.983,-112.5"/>
<text text-anchor="middle" x="419.983" y="-119.5" font-family="Helvetica,sans-Serif" font-size="10.00">odp/api/std_types.h</text>
</a>
</g>
</g>
<!-- Node0&#45;&gt;Node1 -->
<g id="edge1" class="edge"><title>Node0&#45;&gt;Node1</title>
<path fill="none" stroke="midnightblue" d="M365.884,-587.573C287.3,-577.211 70.9833,-543.053 70.9833,-481 70.9833,-481 70.9833,-481 70.9833,-423 70.9833,-335.688 -36.6291,-306.146 13.9833,-235 53.4645,-179.502 250.491,-145.465 354.857,-131.045"/>
<polygon fill="midnightblue" stroke="midnightblue" points="355.529,-134.486 364.966,-129.669 354.585,-127.55 355.529,-134.486"/>
</g>
<!-- Node7 -->
<g id="node8" class="node"><title>Node7</title>
<polygon fill="white" stroke="#bfbfbf" points="187.483,-235.5 187.483,-254.5 300.483,-254.5 300.483,-235.5 187.483,-235.5"/>
<text text-anchor="middle" x="243.983" y="-242.5" font-family="Helvetica,sans-Serif" font-size="10.00">odp/api/abi/packet.h</text>
</g>
<!-- Node0&#45;&gt;Node7 -->
<g id="edge7" class="edge"><title>Node0&#45;&gt;Node7</title>
<path fill="none" stroke="midnightblue" d="M365.791,-585.569C318.901,-574.719 229.983,-545.625 229.983,-481 229.983,-481 229.983,-481 229.983,-367 229.983,-330.653 236.294,-288.57 240.441,-264.837"/>
<polygon fill="midnightblue" stroke="midnightblue" points="243.927,-265.229 242.267,-254.765 237.039,-263.981 243.927,-265.229"/>
</g>
<!-- Node8 -->
<g id="node9" class="node"><title>Node8</title>
<polygon fill="white" stroke="#bfbfbf" points="1482.48,-526.5 1482.48,-545.5 1593.48,-545.5 1593.48,-526.5 1482.48,-526.5"/>
<text text-anchor="middle" x="1537.98" y="-533.5" font-family="Helvetica,sans-Serif" font-size="10.00">odp/api/abi/crypto.h</text>
</g>
<!-- Node0&#45;&gt;Node8 -->
<g id="edge8" class="edge"><title>Node0&#45;&gt;Node8</title>
<path fill="none" stroke="midnightblue" d="M422.25,-590.708C546.121,-589.241 1053.31,-581.279 1467.98,-546 1469.29,-545.889 1470.61,-545.772 1471.93,-545.648"/>
<polygon fill="midnightblue" stroke="midnightblue" points="1472.65,-549.094 1482.25,-544.605 1471.94,-542.13 1472.65,-549.094"/>
</g>
<!-- Node9 -->
<g id="node10" class="node"><title>Node9</title>
<polygon fill="white" stroke="#bfbfbf" points="22.9833,-235.5 22.9833,-254.5 130.983,-254.5 130.983,-235.5 22.9833,-235.5"/>
<text text-anchor="middle" x="76.9833" y="-242.5" font-family="Helvetica,sans-Serif" font-size="10.00">odp/api/abi/buffer.h</text>
</g>
<!-- Node0&#45;&gt;Node9 -->
<g id="edge9" class="edge"><title>Node0&#45;&gt;Node9</title>
<path fill="none" stroke="midnightblue" d="M365.871,-590.868C293.74,-589.978 104.451,-583.988 56.9833,-546 32.9397,-526.758 32.9833,-511.795 32.9833,-481 32.9833,-481 32.9833,-481 32.9833,-367 32.9833,-328.252 53.1581,-286.499 66.1854,-263.577"/>
<polygon fill="midnightblue" stroke="midnightblue" points="69.3496,-265.101 71.4107,-254.709 63.3187,-261.548 69.3496,-265.101"/>
</g>
<!-- Node10 -->
<g id="node11" class="node"><title>Node10</title>
<polygon fill="white" stroke="#bfbfbf" points="1405.48,-235.5 1405.48,-254.5 1506.48,-254.5 1506.48,-235.5 1405.48,-235.5"/>
<text text-anchor="middle" x="1455.98" y="-242.5" font-family="Helvetica,sans-Serif" font-size="10.00">odp/api/abi/pool.h</text>
</g>
<!-- Node0&#45;&gt;Node10 -->
<g id="edge10" class="edge"><title>Node0&#45;&gt;Node10</title>
<path fill="none" stroke="midnightblue" d="M422.063,-591.114C589.971,-591.437 1453.98,-587.905 1453.98,-481 1453.98,-481 1453.98,-481 1453.98,-367 1453.98,-330.709 1454.89,-288.303 1455.49,-264.557"/>
<polygon fill="midnightblue" stroke="midnightblue" points="1458.99,-264.595 1455.75,-254.508 1451.99,-264.414 1458.99,-264.595"/>
</g>
<!-- Node11 -->
<g id="node12" class="node"><title>Node11</title>
<g id="a_node12"><a xlink:href="api_2queue_8h.html" target="_top" xlink:title="ODP queue. ">
<polygon fill="white" stroke="black" points="346.983,-526.5 346.983,-545.5 440.983,-545.5 440.983,-526.5 346.983,-526.5"/>
<text text-anchor="middle" x="393.983" y="-533.5" font-family="Helvetica,sans-Serif" font-size="10.00">odp/api/queue.h</text>
</a>
</g>
</g>
<!-- Node0&#45;&gt;Node11 -->
<g id="edge11" class="edge"><title>Node0&#45;&gt;Node11</title>
<path fill="none" stroke="midnightblue" d="M393.983,-582.083C393.983,-575.006 393.983,-564.861 393.983,-555.986"/>
<polygon fill="midnightblue" stroke="midnightblue" points="397.483,-555.751 393.983,-545.751 390.483,-555.751 397.483,-555.751"/>
</g>
<!-- Node31 -->
<g id="node32" class="node"><title>Node31</title>
<g id="a_node32"><a xlink:href="api_2spec_2crypto_8h.html" target="_top" xlink:title="ODP crypto. ">
<polygon fill="white" stroke="black" points="1120.48,-358.5 1120.48,-377.5 1239.48,-377.5 1239.48,-358.5 1120.48,-358.5"/>
<text text-anchor="middle" x="1179.98" y="-365.5" font-family="Helvetica,sans-Serif" font-size="10.00">odp/api/spec/crypto.h</text>
</a>
</g>
</g>
<!-- Node0&#45;&gt;Node31 -->
<g id="edge57" class="edge"><title>Node0&#45;&gt;Node31</title>
<path fill="none" stroke="midnightblue" d="M422.422,-582.968C541.503,-549.334 1000.32,-419.744 1139.64,-380.395"/>
<polygon fill="midnightblue" stroke="midnightblue" points="1140.81,-383.7 1149.49,-377.614 1138.91,-376.964 1140.81,-383.7"/>
</g>
<!-- Node2 -->
<g id="node3" class="node"><title>Node2</title>
<polygon fill="white" stroke="#bfbfbf" points="288.983,-56.5 288.983,-75.5 416.983,-75.5 416.983,-56.5 288.983,-56.5"/>
<text text-anchor="middle" x="352.983" y="-63.5" font-family="Helvetica,sans-Serif" font-size="10.00">odp/api/abi/std_types.h</text>
</g>
<!-- Node1&#45;&gt;Node2 -->
<g id="edge2" class="edge"><title>Node1&#45;&gt;Node2</title>
<path fill="none" stroke="midnightblue" d="M409.219,-112.324C399.217,-104.263 384.097,-92.0765 372.053,-82.3695"/>
<polygon fill="midnightblue" stroke="midnightblue" points="373.926,-79.3841 363.944,-75.8339 369.534,-84.8343 373.926,-79.3841"/>
</g>
<!-- Node3 -->
<g id="node4" class="node"><title>Node3</title>
<g id="a_node4"><a xlink:href="api_2spec_2std__types_8h.html" target="_top" xlink:title="Standard C language types and definitions for ODP. ">
<polygon fill="white" stroke="black" points="434.983,-56.5 434.983,-75.5 570.983,-75.5 570.983,-56.5 434.983,-56.5"/>
<text text-anchor="middle" x="502.983" y="-63.5" font-family="Helvetica,sans-Serif" font-size="10.00">odp/api/spec/std_types.h</text>
</a>
</g>
</g>
<!-- Node1&#45;&gt;Node3 -->
<g id="edge3" class="edge"><title>Node1&#45;&gt;Node3</title>
<path fill="none" stroke="midnightblue" d="M433.319,-112.324C446.145,-103.979 465.768,-91.2122 480.923,-81.3524"/>
<polygon fill="midnightblue" stroke="midnightblue" points="483.208,-84.0417 489.681,-75.6545 479.39,-78.1742 483.208,-84.0417"/>
</g>
<!-- Node4 -->
<g id="node5" class="node"><title>Node4</title>
<g id="a_node5"><a xlink:href="visibility__begin_8h_source.html" target="_top" xlink:title="odp/visibility_begin.h">
<polygon fill="white" stroke="black" points="621.483,-0.5 621.483,-19.5 736.483,-19.5 736.483,-0.5 621.483,-0.5"/>
<text text-anchor="middle" x="678.983" y="-7.5" font-family="Helvetica,sans-Serif" font-size="10.00">odp/visibility_begin.h</text>
</a>
</g>
</g>
<!-- Node3&#45;&gt;Node4 -->
<g id="edge4" class="edge"><title>Node3&#45;&gt;Node4</title>
<path fill="none" stroke="midnightblue" d="M530.871,-56.4435C560.737,-47.2801 608.298,-32.6876 641.439,-22.5192"/>
<polygon fill="midnightblue" stroke="midnightblue" points="642.693,-25.7958 651.226,-19.5164 640.639,-19.1037 642.693,-25.7958"/>
</g>
<!-- Node5 -->
<g id="node6" class="node"><title>Node5</title>
<polygon fill="white" stroke="#bfbfbf" points="476.483,-0.5 476.483,-19.5 529.483,-19.5 529.483,-0.5 476.483,-0.5"/>
<text text-anchor="middle" x="502.983" y="-7.5" font-family="Helvetica,sans-Serif" font-size="10.00">stdint.h</text>
</g>
<!-- Node3&#45;&gt;Node5 -->
<g id="edge5" class="edge"><title>Node3&#45;&gt;Node5</title>
<path fill="none" stroke="midnightblue" d="M502.983,-56.083C502.983,-49.0059 502.983,-38.8611 502.983,-29.9865"/>
<polygon fill="midnightblue" stroke="midnightblue" points="506.483,-29.751 502.983,-19.7511 499.483,-29.7511 506.483,-29.751"/>
</g>
<!-- Node6 -->
<g id="node7" class="node"><title>Node6</title>
<g id="a_node7"><a xlink:href="visibility__end_8h_source.html" target="_top" xlink:title="odp/visibility_end.h">
<polygon fill="white" stroke="black" points="1121.48,-0.5 1121.48,-19.5 1228.48,-19.5 1228.48,-0.5 1121.48,-0.5"/>
<text text-anchor="middle" x="1174.98" y="-7.5" font-family="Helvetica,sans-Serif" font-size="10.00">odp/visibility_end.h</text>
</a>
</g>
</g>
<!-- Node3&#45;&gt;Node6 -->
<g id="edge6" class="edge"><title>Node3&#45;&gt;Node6</title>
<path fill="none" stroke="midnightblue" d="M571.116,-59.525C701.424,-49.0539 984.261,-26.3259 1111.14,-16.1303"/>
<polygon fill="midnightblue" stroke="midnightblue" points="1111.78,-19.5906 1121.46,-15.3007 1111.21,-12.6131 1111.78,-19.5906"/>
</g>
<!-- Node11&#45;&gt;Node1 -->
<g id="edge12" class="edge"><title>Node11&#45;&gt;Node1</title>
<path fill="none" stroke="midnightblue" d="M401.447,-526.371C411.809,-513.289 427.996,-488.051 415.983,-470 393.027,-435.504 363.425,-458.466 329.983,-434 240.161,-368.287 118.051,-328.778 177.983,-235 216.612,-174.556 297.135,-146.251 354.686,-133.323"/>
<polygon fill="midnightblue" stroke="midnightblue" points="355.746,-136.675 364.79,-131.157 354.278,-129.831 355.746,-136.675"/>
</g>
<!-- Node11&#45;&gt;Node9 -->
<g id="edge15" class="edge"><title>Node11&#45;&gt;Node9</title>
<path fill="none" stroke="midnightblue" d="M346.96,-534.553C274.541,-531.105 143.983,-512.724 143.983,-425 143.983,-425 143.983,-425 143.983,-367 143.983,-325.054 112.787,-284.013 92.969,-262.173"/>
<polygon fill="midnightblue" stroke="midnightblue" points="95.4189,-259.669 86.0192,-254.781 90.3188,-264.464 95.4189,-259.669"/>
</g>
<!-- Node11&#45;&gt;Node10 -->
<g id="edge16" class="edge"><title>Node11&#45;&gt;Node10</title>
<path fill="none" stroke="midnightblue" d="M441.227,-534.944C642.223,-534.096 1415.98,-524.377 1415.98,-425 1415.98,-425 1415.98,-425 1415.98,-367 1415.98,-328.647 1434.32,-286.754 1446.17,-263.701"/>
<polygon fill="midnightblue" stroke="midnightblue" points="1449.31,-265.248 1450.92,-254.776 1443.13,-261.959 1449.31,-265.248"/>
</g>
<!-- Node12 -->
<g id="node13" class="node"><title>Node12</title>
<polygon fill="white" stroke="#bfbfbf" points="356.983,-235.5 356.983,-254.5 464.983,-254.5 464.983,-235.5 356.983,-235.5"/>
<text text-anchor="middle" x="410.983" y="-242.5" font-family="Helvetica,sans-Serif" font-size="10.00">odp/api/abi/event.h</text>
</g>
<!-- Node11&#45;&gt;Node12 -->
<g id="edge13" class="edge"><title>Node11&#45;&gt;Node12</title>
<path fill="none" stroke="midnightblue" d="M346.804,-527.448C324.711,-521.29 300.364,-510.144 286.983,-490 282.065,-482.596 284.76,-478.606 286.983,-470 308.823,-385.455 370.162,-298.762 397.519,-263.001"/>
<polygon fill="midnightblue" stroke="midnightblue" points="400.618,-264.717 403.987,-254.673 395.089,-260.424 400.618,-264.717"/>
</g>
<!-- Node13 -->
<g id="node14" class="node"><title>Node13</title>
<polygon fill="white" stroke="#bfbfbf" points="296.483,-470.5 296.483,-489.5 407.483,-489.5 407.483,-470.5 296.483,-470.5"/>
<text text-anchor="middle" x="351.983" y="-477.5" font-family="Helvetica,sans-Serif" font-size="10.00">odp/api/abi/queue.h</text>
</g>
<!-- Node11&#45;&gt;Node13 -->
<g id="edge14" class="edge"><title>Node11&#45;&gt;Node13</title>
<path fill="none" stroke="midnightblue" d="M387.048,-526.083C381.054,-518.377 372.231,-507.033 364.936,-497.653"/>
<polygon fill="midnightblue" stroke="midnightblue" points="367.692,-495.496 358.79,-489.751 362.166,-499.793 367.692,-495.496"/>
</g>
<!-- Node14 -->
<g id="node15" class="node"><title>Node14</title>
<g id="a_node15"><a xlink:href="api_2spec_2queue_8h.html" target="_top" xlink:title="ODP queue. ">
<polygon fill="white" stroke="black" points="486.483,-470.5 486.483,-489.5 605.483,-489.5 605.483,-470.5 486.483,-470.5"/>
<text text-anchor="middle" x="545.983" y="-477.5" font-family="Helvetica,sans-Serif" font-size="10.00">odp/api/spec/queue.h</text>
</a>
</g>
</g>
<!-- Node11&#45;&gt;Node14 -->
<g id="edge17" class="edge"><title>Node11&#45;&gt;Node14</title>
<path fill="none" stroke="midnightblue" d="M418.068,-526.444C443.528,-517.399 483.877,-503.064 512.442,-492.916"/>
<polygon fill="midnightblue" stroke="midnightblue" points="513.76,-496.162 522.011,-489.516 511.416,-489.566 513.76,-496.162"/>
</g>
<!-- Node14&#45;&gt;Node4 -->
<g id="edge18" class="edge"><title>Node14&#45;&gt;Node4</title>
<path fill="none" stroke="midnightblue" d="M533.999,-470.36C522.425,-461.756 504.686,-447.864 490.983,-434 422.024,-364.231 197.454,-129 262.983,-56 274.465,-43.2093 496.402,-24.7313 611.294,-15.9693"/>
<polygon fill="midnightblue" stroke="midnightblue" points="611.689,-19.4495 621.395,-15.203 611.159,-12.4696 611.689,-19.4495"/>
</g>
<!-- Node14&#45;&gt;Node6 -->
<g id="edge56" class="edge"><title>Node14&#45;&gt;Node6</title>
<path fill="none" stroke="midnightblue" d="M605.676,-474.269C753.271,-461.96 1131.79,-426.488 1247.98,-378 1323.69,-346.408 1376.98,-328.03 1376.98,-246 1376.98,-246 1376.98,-246 1376.98,-121 1376.98,-57.0167 1297.85,-30.0351 1238.64,-18.802"/>
<polygon fill="midnightblue" stroke="midnightblue" points="1239.04,-15.3187 1228.59,-17.0064 1237.81,-22.2097 1239.04,-15.3187"/>
</g>
<!-- Node15 -->
<g id="node16" class="node"><title>Node15</title>
<g id="a_node16"><a xlink:href="api_2event_8h.html" target="_top" xlink:title="ODP event. ">
<polygon fill="white" stroke="black" points="500.483,-414.5 500.483,-433.5 591.483,-433.5 591.483,-414.5 500.483,-414.5"/>
<text text-anchor="middle" x="545.983" y="-421.5" font-family="Helvetica,sans-Serif" font-size="10.00">odp/api/event.h</text>
</a>
</g>
</g>
<!-- Node14&#45;&gt;Node15 -->
<g id="edge19" class="edge"><title>Node14&#45;&gt;Node15</title>
<path fill="none" stroke="midnightblue" d="M545.983,-470.083C545.983,-463.006 545.983,-452.861 545.983,-443.986"/>
<polygon fill="midnightblue" stroke="midnightblue" points="549.483,-443.751 545.983,-433.751 542.483,-443.751 549.483,-443.751"/>
</g>
<!-- Node23 -->
<g id="node24" class="node"><title>Node23</title>
<g id="a_node24"><a xlink:href="queue__types_8h.html" target="_top" xlink:title="ODP queue types. ">
<polygon fill="white" stroke="black" points="934.983,-291.5 934.983,-321.5 1044.98,-321.5 1044.98,-291.5 934.983,-291.5"/>
<text text-anchor="start" x="942.983" y="-309.5" font-family="Helvetica,sans-Serif" font-size="10.00">odp/api/spec/queue</text>
<text text-anchor="middle" x="989.983" y="-298.5" font-family="Helvetica,sans-Serif" font-size="10.00">_types.h</text>
</a>
</g>
</g>
<!-- Node14&#45;&gt;Node23 -->
<g id="edge40" class="edge"><title>Node14&#45;&gt;Node23</title>
<path fill="none" stroke="midnightblue" d="M568.001,-470.495C636.953,-443.862 849.727,-361.676 944.098,-325.224"/>
<polygon fill="midnightblue" stroke="midnightblue" points="945.594,-328.398 953.661,-321.53 943.071,-321.868 945.594,-328.398"/>
</g>
<!-- Node15&#45;&gt;Node12 -->
<g id="edge20" class="edge"><title>Node15&#45;&gt;Node12</title>
<path fill="none" stroke="midnightblue" d="M531.584,-414.36C518.768,-406.161 500.077,-392.904 486.983,-378 455.398,-342.046 430.489,-290.958 418.601,-264.102"/>
<polygon fill="midnightblue" stroke="midnightblue" points="421.752,-262.57 414.571,-254.78 415.327,-265.348 421.752,-262.57"/>
</g>
<!-- Node16 -->
<g id="node17" class="node"><title>Node16</title>
<g id="a_node17"><a xlink:href="api_2spec_2event_8h.html" target="_top" xlink:title="ODP event. ">
<polygon fill="white" stroke="black" points="495.983,-358.5 495.983,-377.5 611.983,-377.5 611.983,-358.5 495.983,-358.5"/>
<text text-anchor="middle" x="553.983" y="-365.5" font-family="Helvetica,sans-Serif" font-size="10.00">odp/api/spec/event.h</text>
</a>
</g>
</g>
<!-- Node15&#45;&gt;Node16 -->
<g id="edge21" class="edge"><title>Node15&#45;&gt;Node16</title>
<path fill="none" stroke="midnightblue" d="M547.304,-414.083C548.364,-406.927 549.889,-396.635 551.214,-387.691"/>
<polygon fill="midnightblue" stroke="midnightblue" points="554.684,-388.156 552.687,-377.751 547.759,-387.13 554.684,-388.156"/>
</g>
<!-- Node16&#45;&gt;Node4 -->
<g id="edge22" class="edge"><title>Node16&#45;&gt;Node4</title>
<path fill="none" stroke="midnightblue" d="M544.308,-358.469C535.081,-349.945 521.256,-336.111 511.983,-322 488.812,-286.738 499.452,-268.641 473.983,-235 403.17,-141.465 201.814,-143.481 279.983,-56 290.878,-43.8077 500.166,-25.3123 611.159,-16.3042"/>
<polygon fill="midnightblue" stroke="midnightblue" points="611.572,-19.7823 621.258,-15.4887 611.009,-12.805 611.572,-19.7823"/>
</g>
<!-- Node16&#45;&gt;Node6 -->
<g id="edge39" class="edge"><title>Node16&#45;&gt;Node6</title>
<path fill="none" stroke="midnightblue" d="M612.062,-366.609C767.538,-364.286 1187.74,-349.238 1280.98,-255 1303.89,-231.848 1300.98,-217.07 1300.98,-184.5 1300.98,-184.5 1300.98,-184.5 1300.98,-121 1300.98,-71.9526 1246.13,-39.7416 1208.81,-23.5016"/>
<polygon fill="midnightblue" stroke="midnightblue" points="1209.85,-20.1446 1199.28,-19.5298 1207.16,-26.6064 1209.85,-20.1446"/>
</g>
<!-- Node17 -->
<g id="node18" class="node"><title>Node17</title>
<g id="a_node18"><a xlink:href="api_2packet_8h.html" target="_top" xlink:title="ODP packet descriptor. ">
<polygon fill="white" stroke="black" points="520.983,-297 520.983,-316 616.983,-316 616.983,-297 520.983,-297"/>
<text text-anchor="middle" x="568.983" y="-304" font-family="Helvetica,sans-Serif" font-size="10.00">odp/api/packet.h</text>
</a>
</g>
</g>
<!-- Node16&#45;&gt;Node17 -->
<g id="edge23" class="edge"><title>Node16&#45;&gt;Node17</title>
<path fill="none" stroke="midnightblue" d="M556.132,-358.475C558.271,-349.992 561.621,-336.704 564.364,-325.822"/>
<polygon fill="midnightblue" stroke="midnightblue" points="567.787,-326.561 566.838,-316.009 561,-324.85 567.787,-326.561"/>
</g>
<!-- Node17&#45;&gt;Node1 -->
<g id="edge24" class="edge"><title>Node17&#45;&gt;Node1</title>
<path fill="none" stroke="midnightblue" d="M561.797,-296.698C538.44,-268.09 464.409,-177.415 433.621,-139.703"/>
<polygon fill="midnightblue" stroke="midnightblue" points="436.133,-137.247 427.098,-131.714 430.711,-141.674 436.133,-137.247"/>
</g>
<!-- Node17&#45;&gt;Node7 -->
<g id="edge27" class="edge"><title>Node17&#45;&gt;Node7</title>
<path fill="none" stroke="midnightblue" d="M522.419,-296.975C463.894,-286.261 363.507,-267.882 300.605,-256.366"/>
<polygon fill="midnightblue" stroke="midnightblue" points="300.928,-252.867 290.462,-254.509 299.668,-259.753 300.928,-252.867"/>
</g>
<!-- Node17&#45;&gt;Node9 -->
<g id="edge28" class="edge"><title>Node17&#45;&gt;Node9</title>
<path fill="none" stroke="midnightblue" d="M520.912,-299.687C431.847,-288.915 241.164,-265.855 141.177,-253.763"/>
<polygon fill="midnightblue" stroke="midnightblue" points="141.552,-250.283 131.204,-252.557 140.711,-257.233 141.552,-250.283"/>
</g>
<!-- Node17&#45;&gt;Node10 -->
<g id="edge29" class="edge"><title>Node17&#45;&gt;Node10</title>
<path fill="none" stroke="midnightblue" d="M616.987,-302.28C767.309,-292.196 1228.83,-261.237 1395.31,-250.07"/>
<polygon fill="midnightblue" stroke="midnightblue" points="1395.63,-253.556 1405.37,-249.395 1395.16,-246.572 1395.63,-253.556"/>
</g>
<!-- Node17&#45;&gt;Node12 -->
<g id="edge25" class="edge"><title>Node17&#45;&gt;Node12</title>
<path fill="none" stroke="midnightblue" d="M546.346,-296.975C519.243,-286.769 473.673,-269.608 442.979,-258.049"/>
<polygon fill="midnightblue" stroke="midnightblue" points="444.171,-254.758 433.579,-254.509 441.704,-261.309 444.171,-254.758"/>
</g>
<!-- Node18 -->
<g id="node19" class="node"><title>Node18</title>
<polygon fill="white" stroke="#bfbfbf" points="737.483,-235.5 737.483,-254.5 864.483,-254.5 864.483,-235.5 737.483,-235.5"/>
<text text-anchor="middle" x="800.983" y="-242.5" font-family="Helvetica,sans-Serif" font-size="10.00">odp/api/abi/packet_io.h</text>
</g>
<!-- Node17&#45;&gt;Node18 -->
<g id="edge26" class="edge"><title>Node17&#45;&gt;Node18</title>
<path fill="none" stroke="midnightblue" d="M602.223,-296.975C643.225,-286.459 713.012,-268.562 758.037,-257.014"/>
<polygon fill="midnightblue" stroke="midnightblue" points="758.988,-260.384 767.805,-254.509 757.249,-253.603 758.988,-260.384"/>
</g>
<!-- Node19 -->
<g id="node20" class="node"><title>Node19</title>
<g id="a_node20"><a xlink:href="api_2spec_2packet_8h.html" target="_top" xlink:title="ODP packet descriptor. ">
<polygon fill="white" stroke="black" points="596.983,-235.5 596.983,-254.5 718.983,-254.5 718.983,-235.5 596.983,-235.5"/>
<text text-anchor="middle" x="657.983" y="-242.5" font-family="Helvetica,sans-Serif" font-size="10.00">odp/api/spec/packet.h</text>
</a>
</g>
</g>
<!-- Node17&#45;&gt;Node19 -->
<g id="edge30" class="edge"><title>Node17&#45;&gt;Node19</title>
<path fill="none" stroke="midnightblue" d="M581.735,-296.975C596.01,-287.431 619.381,-271.807 636.491,-260.368"/>
<polygon fill="midnightblue" stroke="midnightblue" points="638.887,-262.977 645.255,-254.509 634.997,-257.157 638.887,-262.977"/>
</g>
<!-- Node19&#45;&gt;Node4 -->
<g id="edge31" class="edge"><title>Node19&#45;&gt;Node4</title>
<path fill="none" stroke="midnightblue" d="M649.232,-235.286C641.42,-226.84 630.532,-213.246 625.983,-199 621.792,-185.875 624.186,-181.66 625.983,-168 632.707,-116.908 637.488,-104.099 655.983,-56 659.565,-46.6848 664.505,-36.7632 668.889,-28.6132"/>
<polygon fill="midnightblue" stroke="midnightblue" points="672.038,-30.1524 673.832,-19.7106 665.917,-26.7545 672.038,-30.1524"/>
</g>
<!-- Node19&#45;&gt;Node6 -->
<g id="edge38" class="edge"><title>Node19&#45;&gt;Node6</title>
<path fill="none" stroke="midnightblue" d="M719.054,-236.04C722.072,-235.681 725.061,-235.332 727.983,-235 808.967,-225.802 1020.06,-235.405 1092.98,-199 1159.4,-165.843 1179.03,-145.17 1205.98,-76 1212.61,-58.99 1201.59,-40.2379 1190.9,-27.2648"/>
<polygon fill="midnightblue" stroke="midnightblue" points="1193.38,-24.7852 1184.11,-19.6506 1188.16,-29.4438 1193.38,-24.7852"/>
</g>
<!-- Node20 -->
<g id="node21" class="node"><title>Node20</title>
<g id="a_node21"><a xlink:href="api_2time_8h.html" target="_top" xlink:title="ODP time. ">
<polygon fill="white" stroke="black" points="634.983,-174 634.983,-193 720.983,-193 720.983,-174 634.983,-174"/>
<text text-anchor="middle" x="677.983" y="-181" font-family="Helvetica,sans-Serif" font-size="10.00">odp/api/time.h</text>
</a>
</g>
</g>
<!-- Node19&#45;&gt;Node20 -->
<g id="edge32" class="edge"><title>Node19&#45;&gt;Node20</title>
<path fill="none" stroke="midnightblue" d="M660.849,-235.475C663.7,-226.992 668.167,-213.704 671.825,-202.822"/>
<polygon fill="midnightblue" stroke="midnightblue" points="675.254,-203.603 675.123,-193.009 668.619,-201.373 675.254,-203.603"/>
</g>
<!-- Node20&#45;&gt;Node1 -->
<g id="edge33" class="edge"><title>Node20&#45;&gt;Node1</title>
<path fill="none" stroke="midnightblue" d="M641.018,-173.975C595.134,-163.393 516.834,-145.336 466.799,-133.797"/>
<polygon fill="midnightblue" stroke="midnightblue" points="467.411,-130.346 456.88,-131.509 465.838,-137.167 467.411,-130.346"/>
</g>
<!-- Node21 -->
<g id="node22" class="node"><title>Node21</title>
<polygon fill="white" stroke="#bfbfbf" points="673.483,-112.5 673.483,-131.5 776.483,-131.5 776.483,-112.5 673.483,-112.5"/>
<text text-anchor="middle" x="724.983" y="-119.5" font-family="Helvetica,sans-Serif" font-size="10.00">odp/api/abi/time.h</text>
</g>
<!-- Node20&#45;&gt;Node21 -->
<g id="edge34" class="edge"><title>Node20&#45;&gt;Node21</title>
<path fill="none" stroke="midnightblue" d="M684.717,-173.975C691.767,-165.05 703.018,-150.807 711.837,-139.643"/>
<polygon fill="midnightblue" stroke="midnightblue" points="714.81,-141.526 718.262,-131.509 709.317,-137.187 714.81,-141.526"/>
</g>
<!-- Node22 -->
<g id="node23" class="node"><title>Node22</title>
<g id="a_node23"><a xlink:href="api_2spec_2time_8h.html" target="_top" xlink:title="ODP time. ">
<polygon fill="white" stroke="black" points="665.483,-56.5 665.483,-75.5 776.483,-75.5 776.483,-56.5 665.483,-56.5"/>
<text text-anchor="middle" x="720.983" y="-63.5" font-family="Helvetica,sans-Serif" font-size="10.00">odp/api/spec/time.h</text>
</a>
</g>
</g>
<!-- Node20&#45;&gt;Node22 -->
<g id="edge35" class="edge"><title>Node20&#45;&gt;Node22</title>
<path fill="none" stroke="midnightblue" d="M672.908,-173.81C665.583,-160.043 653.97,-132.662 663.983,-112 670.38,-98.7996 682.736,-88.3032 694.312,-80.7794"/>
<polygon fill="midnightblue" stroke="midnightblue" points="696.139,-83.7653 702.902,-75.6099 692.529,-77.7678 696.139,-83.7653"/>
</g>
<!-- Node22&#45;&gt;Node4 -->
<g id="edge36" class="edge"><title>Node22&#45;&gt;Node4</title>
<path fill="none" stroke="midnightblue" d="M714.048,-56.083C708.054,-48.3768 699.231,-37.0333 691.936,-27.6531"/>
<polygon fill="midnightblue" stroke="midnightblue" points="694.692,-25.4958 685.79,-19.7511 689.166,-29.7934 694.692,-25.4958"/>
</g>
<!-- Node22&#45;&gt;Node6 -->
<g id="edge37" class="edge"><title>Node22&#45;&gt;Node6</title>
<path fill="none" stroke="midnightblue" d="M776.653,-58.3785C861.352,-48.3042 1022.13,-29.1802 1111.34,-18.5694"/>
<polygon fill="midnightblue" stroke="midnightblue" points="1111.81,-22.0383 1121.33,-17.3816 1110.99,-15.0873 1111.81,-22.0383"/>
</g>
<!-- Node23&#45;&gt;Node4 -->
<g id="edge41" class="edge"><title>Node23&#45;&gt;Node4</title>
<path fill="none" stroke="midnightblue" d="M934.638,-302.55C829.776,-296.392 610.553,-280.582 587.983,-255 526.293,-185.075 623.074,-69.443 663.019,-27.141"/>
<polygon fill="midnightblue" stroke="midnightblue" points="665.774,-29.3258 670.187,-19.6936 660.731,-24.4717 665.774,-29.3258"/>
</g>
<!-- Node23&#45;&gt;Node6 -->
<g id="edge55" class="edge"><title>Node23&#45;&gt;Node6</title>
<path fill="none" stroke="midnightblue" d="M1015.34,-291.35C1059.35,-265.494 1149.86,-206.367 1198.98,-132 1218.44,-102.554 1235.84,-88.4556 1221.98,-56 1216.84,-43.9469 1206.7,-33.5764 1197.16,-25.8389"/>
<polygon fill="midnightblue" stroke="midnightblue" points="1199.16,-22.9619 1189.06,-19.7409 1194.94,-28.5532 1199.16,-22.9619"/>
</g>
<!-- Node24 -->
<g id="node25" class="node"><title>Node24</title>
<g id="a_node25"><a xlink:href="api_2schedule__types_8h.html" target="_top" xlink:title="ODP schedule. ">
<polygon fill="white" stroke="black" points="920.983,-235.5 920.983,-254.5 1058.98,-254.5 1058.98,-235.5 920.983,-235.5"/>
<text text-anchor="middle" x="989.983" y="-242.5" font-family="Helvetica,sans-Serif" font-size="10.00">odp/api/schedule_types.h</text>
</a>
</g>
</g>
<!-- Node23&#45;&gt;Node24 -->
<g id="edge42" class="edge"><title>Node23&#45;&gt;Node24</title>
<path fill="none" stroke="midnightblue" d="M989.983,-291.399C989.983,-283.466 989.983,-273.458 989.983,-264.858"/>
<polygon fill="midnightblue" stroke="midnightblue" points="993.483,-264.658 989.983,-254.658 986.483,-264.658 993.483,-264.658"/>
</g>
<!-- Node29 -->
<g id="node30" class="node"><title>Node29</title>
<g id="a_node30"><a xlink:href="deprecated_8h.html" target="_top" xlink:title="Control deprecated API definitions. ">
<polygon fill="white" stroke="black" points="1153.48,-235.5 1153.48,-254.5 1272.48,-254.5 1272.48,-235.5 1153.48,-235.5"/>
<text text-anchor="middle" x="1212.98" y="-242.5" font-family="Helvetica,sans-Serif" font-size="10.00">odp/api/deprecated.h</text>
</a>
</g>
</g>
<!-- Node23&#45;&gt;Node29 -->
<g id="edge51" class="edge"><title>Node23&#45;&gt;Node29</title>
<path fill="none" stroke="midnightblue" d="M1042.55,-291.475C1081.86,-280.986 1134.89,-266.837 1171.3,-257.122"/>
<polygon fill="midnightblue" stroke="midnightblue" points="1172.34,-260.466 1181.1,-254.506 1170.54,-253.703 1172.34,-260.466"/>
</g>
<!-- Node25 -->
<g id="node26" class="node"><title>Node25</title>
<polygon fill="white" stroke="#bfbfbf" points="828.483,-168.5 828.483,-198.5 943.483,-198.5 943.483,-168.5 828.483,-168.5"/>
<text text-anchor="start" x="836.483" y="-186.5" font-family="Helvetica,sans-Serif" font-size="10.00">odp/api/abi/schedule</text>
<text text-anchor="middle" x="885.983" y="-175.5" font-family="Helvetica,sans-Serif" font-size="10.00">_types.h</text>
</g>
<!-- Node24&#45;&gt;Node25 -->
<g id="edge43" class="edge"><title>Node24&#45;&gt;Node25</title>
<path fill="none" stroke="midnightblue" d="M975.083,-235.475C960.602,-227.191 938.114,-214.325 919.353,-203.591"/>
<polygon fill="midnightblue" stroke="midnightblue" points="920.912,-200.451 910.494,-198.523 917.436,-206.527 920.912,-200.451"/>
</g>
<!-- Node26 -->
<g id="node27" class="node"><title>Node26</title>
<g id="a_node27"><a xlink:href="api_2spec_2schedule__types_8h.html" target="_top" xlink:title="ODP schedule types. ">
<polygon fill="white" stroke="black" points="961.483,-168.5 961.483,-198.5 1084.48,-198.5 1084.48,-168.5 961.483,-168.5"/>
<text text-anchor="start" x="969.483" y="-186.5" font-family="Helvetica,sans-Serif" font-size="10.00">odp/api/spec/schedule</text>
<text text-anchor="middle" x="1022.98" y="-175.5" font-family="Helvetica,sans-Serif" font-size="10.00">_types.h</text>
</a>
</g>
</g>
<!-- Node24&#45;&gt;Node26 -->
<g id="edge44" class="edge"><title>Node24&#45;&gt;Node26</title>
<path fill="none" stroke="midnightblue" d="M994.711,-235.475C998.763,-228.17 1004.79,-217.302 1010.24,-207.475"/>
<polygon fill="midnightblue" stroke="midnightblue" points="1013.42,-208.966 1015.21,-198.523 1007.29,-205.57 1013.42,-208.966"/>
</g>
<!-- Node26&#45;&gt;Node4 -->
<g id="edge45" class="edge"><title>Node26&#45;&gt;Node4</title>
<path fill="none" stroke="midnightblue" d="M965.969,-168.412C940.12,-160.341 910.031,-148.477 885.983,-132 848.837,-106.548 856.658,-80.6631 818.983,-56 794.076,-39.6951 762.814,-28.9075 736.153,-21.9938"/>
<polygon fill="midnightblue" stroke="midnightblue" points="736.73,-18.5313 726.183,-19.5303 735.051,-25.327 736.73,-18.5313"/>
</g>
<!-- Node26&#45;&gt;Node6 -->
<g id="edge50" class="edge"><title>Node26&#45;&gt;Node6</title>
<path fill="none" stroke="midnightblue" d="M1021.05,-168.454C1018.35,-142.901 1016.52,-88.4613 1043.98,-56 1060.84,-36.0731 1086.96,-24.9543 1111.45,-18.7567"/>
<polygon fill="midnightblue" stroke="midnightblue" points="1112.48,-22.1102 1121.45,-16.4651 1110.92,-15.287 1112.48,-22.1102"/>
</g>
<!-- Node27 -->
<g id="node28" class="node"><title>Node27</title>
<g id="a_node28"><a xlink:href="support_8h.html" target="_top" xlink:title="ODP support API &#45; platform specific header. ">
<polygon fill="white" stroke="black" points="895.483,-112.5 895.483,-131.5 996.483,-131.5 996.483,-112.5 895.483,-112.5"/>
<text text-anchor="middle" x="945.983" y="-119.5" font-family="Helvetica,sans-Serif" font-size="10.00">odp/api/support.h</text>
</a>
</g>
</g>
<!-- Node26&#45;&gt;Node27 -->
<g id="edge46" class="edge"><title>Node26&#45;&gt;Node27</title>
<path fill="none" stroke="midnightblue" d="M1004.74,-168.399C992.854,-159.218 977.376,-147.258 965.289,-137.918"/>
<polygon fill="midnightblue" stroke="midnightblue" points="967.24,-135.003 957.188,-131.658 962.96,-140.542 967.24,-135.003"/>
</g>
<!-- Node28 -->
<g id="node29" class="node"><title>Node28</title>
<g id="a_node29"><a xlink:href="spec_2support_8h.html" target="_top" xlink:title="ODP support API. ">
<polygon fill="white" stroke="black" points="870.983,-56.5 870.983,-75.5 996.983,-75.5 996.983,-56.5 870.983,-56.5"/>
<text text-anchor="middle" x="933.983" y="-63.5" font-family="Helvetica,sans-Serif" font-size="10.00">odp/api/spec/support.h</text>
</a>
</g>
</g>
<!-- Node27&#45;&gt;Node28 -->
<g id="edge47" class="edge"><title>Node27&#45;&gt;Node28</title>
<path fill="none" stroke="midnightblue" d="M944.002,-112.083C942.412,-104.927 940.124,-94.6353 938.137,-85.6911"/>
<polygon fill="midnightblue" stroke="midnightblue" points="941.514,-84.7537 935.928,-75.7511 934.681,-86.2722 941.514,-84.7537"/>
</g>
<!-- Node28&#45;&gt;Node4 -->
<g id="edge48" class="edge"><title>Node28&#45;&gt;Node4</title>
<path fill="none" stroke="midnightblue" d="M893.578,-56.4435C849,-47.0036 777.215,-31.802 729.091,-21.6111"/>
<polygon fill="midnightblue" stroke="midnightblue" points="729.708,-18.1641 719.2,-19.5164 728.258,-25.0123 729.708,-18.1641"/>
</g>
<!-- Node28&#45;&gt;Node6 -->
<g id="edge49" class="edge"><title>Node28&#45;&gt;Node6</title>
<path fill="none" stroke="midnightblue" d="M972.17,-56.4435C1014.12,-47.0431 1081.58,-31.9291 1127.05,-21.7393"/>
<polygon fill="midnightblue" stroke="midnightblue" points="1127.98,-25.1183 1136.97,-19.5164 1126.45,-18.2876 1127.98,-25.1183"/>
</g>
<!-- Node30 -->
<g id="node31" class="node"><title>Node30</title>
<g id="a_node31"><a xlink:href="spec_2deprecated_8h.html" target="_top" xlink:title="Macro for deprecated API definitions. ">
<polygon fill="white" stroke="black" points="1052.98,-56.5 1052.98,-75.5 1196.98,-75.5 1196.98,-56.5 1052.98,-56.5"/>
<text text-anchor="middle" x="1124.98" y="-63.5" font-family="Helvetica,sans-Serif" font-size="10.00">odp/api/spec/deprecated.h</text>
</a>
</g>
</g>
<!-- Node29&#45;&gt;Node30 -->
<g id="edge52" class="edge"><title>Node29&#45;&gt;Node30</title>
<path fill="none" stroke="midnightblue" d="M1208.74,-235.463C1195.18,-208.195 1152.72,-122.783 1134,-85.1332"/>
<polygon fill="midnightblue" stroke="midnightblue" points="1136.98,-83.2646 1129.39,-75.8684 1130.71,-86.3809 1136.98,-83.2646"/>
</g>
<!-- Node30&#45;&gt;Node4 -->
<g id="edge53" class="edge"><title>Node30&#45;&gt;Node4</title>
<path fill="none" stroke="midnightblue" d="M1054.31,-56.4435C969.9,-46.2231 829.706,-29.2489 746.645,-19.1922"/>
<polygon fill="midnightblue" stroke="midnightblue" points="746.907,-15.6984 736.558,-17.971 746.065,-22.6477 746.907,-15.6984"/>
</g>
<!-- Node30&#45;&gt;Node6 -->
<g id="edge54" class="edge"><title>Node30&#45;&gt;Node6</title>
<path fill="none" stroke="midnightblue" d="M1133.24,-56.083C1140.45,-48.2982 1151.09,-36.8015 1159.83,-27.3665"/>
<polygon fill="midnightblue" stroke="midnightblue" points="1162.65,-29.4666 1166.88,-19.7511 1157.52,-24.7108 1162.65,-29.4666"/>
</g>
<!-- Node31&#45;&gt;Node4 -->
<g id="edge58" class="edge"><title>Node31&#45;&gt;Node4</title>
<path fill="none" stroke="midnightblue" d="M1120.42,-362.115C1055.54,-355.82 956.857,-343.099 925.983,-322 888.602,-296.454 904.338,-267.663 872.983,-235 853.008,-214.192 835.463,-222.673 818.983,-199 781.661,-145.384 827.137,-105.907 784.983,-56 771.354,-39.8637 750.92,-29.3818 731.62,-22.6356"/>
<polygon fill="midnightblue" stroke="midnightblue" points="732.565,-19.2628 721.973,-19.5269 730.418,-25.9254 732.565,-19.2628"/>
</g>
<!-- Node31&#45;&gt;Node6 -->
<g id="edge62" class="edge"><title>Node31&#45;&gt;Node6</title>
<path fill="none" stroke="midnightblue" d="M1211.78,-358.46C1258.18,-343.845 1338.98,-309.306 1338.98,-246 1338.98,-246 1338.98,-246 1338.98,-121 1338.98,-90.2048 1337.22,-77.3056 1314.98,-56 1294.39,-36.2656 1265.1,-25.1854 1238.64,-18.9643"/>
<polygon fill="midnightblue" stroke="midnightblue" points="1239.17,-15.4986 1228.66,-16.81 1237.69,-22.341 1239.17,-15.4986"/>
</g>
<!-- Node31&#45;&gt;Node17 -->
<g id="edge61" class="edge"><title>Node31&#45;&gt;Node17</title>
<path fill="none" stroke="midnightblue" d="M1120.29,-361.187C1002.96,-349.762 743.662,-324.51 627.39,-313.188"/>
<polygon fill="midnightblue" stroke="midnightblue" points="627.554,-309.687 617.261,-312.201 626.875,-316.654 627.554,-309.687"/>
</g>
<!-- Node31&#45;&gt;Node27 -->
<g id="edge60" class="edge"><title>Node31&#45;&gt;Node27</title>
<path fill="none" stroke="midnightblue" d="M1177.29,-358.412C1166.33,-323.885 1124.09,-195.719 1092.98,-168 1069.28,-146.875 1035.85,-135.666 1006.87,-129.719"/>
<polygon fill="midnightblue" stroke="midnightblue" points="1007.3,-126.239 996.825,-127.827 1006,-133.118 1007.3,-126.239"/>
</g>
<!-- Node31&#45;&gt;Node29 -->
<g id="edge59" class="edge"><title>Node31&#45;&gt;Node29</title>
<path fill="none" stroke="midnightblue" d="M1182.36,-358.298C1187.68,-338.763 1200.69,-291.065 1207.93,-264.547"/>
<polygon fill="midnightblue" stroke="midnightblue" points="1211.38,-265.192 1210.63,-254.623 1204.62,-263.35 1211.38,-265.192"/>
</g>
</g>
</svg>
