<?xml version="1.0" encoding="UTF-8" standalone="no"?>
<!DOCTYPE svg PUBLIC "-//W3C//DTD SVG 1.1//EN"
 "http://www.w3.org/Graphics/SVG/1.1/DTD/svg11.dtd">
<!-- Generated by graphviz version 2.38.0 (20140413.2041)
 -->
<!-- Title: std_types.h Pages: 1 -->
<svg width="2386pt" height="364pt"
 viewBox="0.00 0.00 2386.43 364.00" xmlns="http://www.w3.org/2000/svg" xmlns:xlink="http://www.w3.org/1999/xlink">
<g id="graph0" class="graph" transform="scale(1 1) rotate(0) translate(4 360)">
<title>std_types.h</title>
<polygon fill="white" stroke="none" points="-4,4 -4,-360 2382.43,-360 2382.43,4 -4,4"/>
<!-- Node4 -->
<g id="node1" class="node"><title>Node4</title>
<polygon fill="#bfbfbf" stroke="black" points="621.427,-336.5 621.427,-355.5 693.427,-355.5 693.427,-336.5 621.427,-336.5"/>
<text text-anchor="middle" x="657.427" y="-343.5" font-family="Helvetica,sans-Serif" font-size="10.00">std_types.h</text>
</g>
<!-- Node5 -->
<g id="node2" class="node"><title>Node5</title>
<g id="a_node2"><a xlink:href="arch_2arm32-linux_2odp_2api_2abi_2std__types_8h_source.html" target="_top" xlink:title="std_types.h">
<polygon fill="white" stroke="black" points="351.427,-280.5 351.427,-299.5 423.427,-299.5 423.427,-280.5 351.427,-280.5"/>
<text text-anchor="middle" x="387.427" y="-287.5" font-family="Helvetica,sans-Serif" font-size="10.00">std_types.h</text>
</a>
</g>
</g>
<!-- Node4&#45;&gt;Node5 -->
<g id="edge1" class="edge"><title>Node4&#45;&gt;Node5</title>
<path fill="none" stroke="midnightblue" d="M611.473,-335.809C558.453,-325.205 472.353,-307.985 423.777,-298.27"/>
<polygon fill="midnightblue" stroke="midnightblue" points="610.801,-339.244 621.294,-337.773 612.174,-332.38 610.801,-339.244"/>
</g>
<!-- Node6 -->
<g id="node3" class="node"><title>Node6</title>
<g id="a_node3"><a xlink:href="arch_2arm64-linux_2odp_2api_2abi_2std__types_8h_source.html" target="_top" xlink:title="std_types.h">
<polygon fill="white" stroke="black" points="441.427,-280.5 441.427,-299.5 513.427,-299.5 513.427,-280.5 441.427,-280.5"/>
<text text-anchor="middle" x="477.427" y="-287.5" font-family="Helvetica,sans-Serif" font-size="10.00">std_types.h</text>
</a>
</g>
</g>
<!-- Node4&#45;&gt;Node6 -->
<g id="edge2" class="edge"><title>Node4&#45;&gt;Node6</title>
<path fill="none" stroke="midnightblue" d="M619.319,-333.568C585.363,-323.381 536.438,-308.703 505.815,-299.516"/>
<polygon fill="midnightblue" stroke="midnightblue" points="618.321,-336.922 628.905,-336.444 620.333,-330.218 618.321,-336.922"/>
</g>
<!-- Node7 -->
<g id="node4" class="node"><title>Node7</title>
<g id="a_node4"><a xlink:href="arch_2default-linux_2odp_2api_2abi_2std__types_8h_source.html" target="_top" xlink:title="std_types.h">
<polygon fill="white" stroke="black" points="531.427,-280.5 531.427,-299.5 603.427,-299.5 603.427,-280.5 531.427,-280.5"/>
<text text-anchor="middle" x="567.427" y="-287.5" font-family="Helvetica,sans-Serif" font-size="10.00">std_types.h</text>
</a>
</g>
</g>
<!-- Node4&#45;&gt;Node7 -->
<g id="edge3" class="edge"><title>Node4&#45;&gt;Node7</title>
<path fill="none" stroke="midnightblue" d="M634.389,-331.177C617.828,-321.241 596.009,-308.149 581.851,-299.655"/>
<polygon fill="midnightblue" stroke="midnightblue" points="632.591,-334.18 642.967,-336.324 636.193,-328.178 632.591,-334.18"/>
</g>
<!-- Node8 -->
<g id="node5" class="node"><title>Node8</title>
<g id="a_node5"><a xlink:href="arch_2mips64-linux_2odp_2api_2abi_2std__types_8h_source.html" target="_top" xlink:title="std_types.h">
<polygon fill="white" stroke="black" points="621.427,-280.5 621.427,-299.5 693.427,-299.5 693.427,-280.5 621.427,-280.5"/>
<text text-anchor="middle" x="657.427" y="-287.5" font-family="Helvetica,sans-Serif" font-size="10.00">std_types.h</text>
</a>
</g>
</g>
<!-- Node4&#45;&gt;Node8 -->
<g id="edge4" class="edge"><title>Node4&#45;&gt;Node8</title>
<path fill="none" stroke="midnightblue" d="M657.427,-325.805C657.427,-316.91 657.427,-306.78 657.427,-299.751"/>
<polygon fill="midnightblue" stroke="midnightblue" points="653.927,-326.083 657.427,-336.083 660.927,-326.083 653.927,-326.083"/>
</g>
<!-- Node9 -->
<g id="node6" class="node"><title>Node9</title>
<g id="a_node6"><a xlink:href="arch_2power64-linux_2odp_2api_2abi_2std__types_8h_source.html" target="_top" xlink:title="std_types.h">
<polygon fill="white" stroke="black" points="711.427,-280.5 711.427,-299.5 783.427,-299.5 783.427,-280.5 711.427,-280.5"/>
<text text-anchor="middle" x="747.427" y="-287.5" font-family="Helvetica,sans-Serif" font-size="10.00">std_types.h</text>
</a>
</g>
</g>
<!-- Node4&#45;&gt;Node9 -->
<g id="edge5" class="edge"><title>Node4&#45;&gt;Node9</title>
<path fill="none" stroke="midnightblue" d="M680.464,-331.177C697.026,-321.241 718.845,-308.149 733.003,-299.655"/>
<polygon fill="midnightblue" stroke="midnightblue" points="678.661,-328.178 671.887,-336.324 682.263,-334.18 678.661,-328.178"/>
</g>
<!-- Node10 -->
<g id="node7" class="node"><title>Node10</title>
<g id="a_node7"><a xlink:href="arch_2x86__32-linux_2odp_2api_2abi_2std__types_8h_source.html" target="_top" xlink:title="std_types.h">
<polygon fill="white" stroke="black" points="801.427,-280.5 801.427,-299.5 873.427,-299.5 873.427,-280.5 801.427,-280.5"/>
<text text-anchor="middle" x="837.427" y="-287.5" font-family="Helvetica,sans-Serif" font-size="10.00">std_types.h</text>
</a>
</g>
</g>
<!-- Node4&#45;&gt;Node10 -->
<g id="edge6" class="edge"><title>Node4&#45;&gt;Node10</title>
<path fill="none" stroke="midnightblue" d="M695.534,-333.568C729.49,-323.381 778.415,-308.703 809.039,-299.516"/>
<polygon fill="midnightblue" stroke="midnightblue" points="694.521,-330.218 685.948,-336.444 696.532,-336.922 694.521,-330.218"/>
</g>
<!-- Node11 -->
<g id="node8" class="node"><title>Node11</title>
<g id="a_node8"><a xlink:href="arch_2x86__64-linux_2odp_2api_2abi_2std__types_8h_source.html" target="_top" xlink:title="std_types.h">
<polygon fill="white" stroke="black" points="891.427,-280.5 891.427,-299.5 963.427,-299.5 963.427,-280.5 891.427,-280.5"/>
<text text-anchor="middle" x="927.427" y="-287.5" font-family="Helvetica,sans-Serif" font-size="10.00">std_types.h</text>
</a>
</g>
</g>
<!-- Node4&#45;&gt;Node11 -->
<g id="edge7" class="edge"><title>Node4&#45;&gt;Node11</title>
<path fill="none" stroke="midnightblue" d="M703.38,-335.809C756.401,-325.205 842.501,-307.985 891.076,-298.27"/>
<polygon fill="midnightblue" stroke="midnightblue" points="702.679,-332.38 693.56,-337.773 704.052,-339.244 702.679,-332.38"/>
</g>
<!-- Node12 -->
<g id="node9" class="node"><title>Node12</title>
<g id="a_node9"><a xlink:href="api_2std__clib_8h_source.html" target="_top" xlink:title="std_clib.h">
<polygon fill="white" stroke="black" points="555.427,-224.5 555.427,-243.5 617.427,-243.5 617.427,-224.5 555.427,-224.5"/>
<text text-anchor="middle" x="586.427" y="-231.5" font-family="Helvetica,sans-Serif" font-size="10.00">std_clib.h</text>
</a>
</g>
</g>
<!-- Node11&#45;&gt;Node12 -->
<g id="edge8" class="edge"><title>Node11&#45;&gt;Node12</title>
<path fill="none" stroke="midnightblue" d="M881.242,-279.856C779.085,-262.057 669.974,-246.503 617.614,-239.255"/>
<polygon fill="midnightblue" stroke="midnightblue" points="880.651,-283.305 891.105,-281.585 881.86,-276.41 880.651,-283.305"/>
</g>
<!-- Node15 -->
<g id="node12" class="node"><title>Node15</title>
<g id="a_node12"><a xlink:href="api_2std__types_8h.html" target="_top" xlink:title="Standard C language types and definitions for ODP. ">
<polygon fill="white" stroke="black" points="1231.43,-224.5 1231.43,-243.5 1303.43,-243.5 1303.43,-224.5 1231.43,-224.5"/>
<text text-anchor="middle" x="1267.43" y="-231.5" font-family="Helvetica,sans-Serif" font-size="10.00">std_types.h</text>
</a>
</g>
</g>
<!-- Node11&#45;&gt;Node15 -->
<g id="edge11" class="edge"><title>Node11&#45;&gt;Node15</title>
<path fill="none" stroke="midnightblue" d="M973.551,-281.674C1041.99,-270.805 1169.02,-250.629 1231.22,-240.75"/>
<polygon fill="midnightblue" stroke="midnightblue" points="972.818,-278.247 963.491,-283.272 973.916,-285.16 972.818,-278.247"/>
</g>
<!-- Node13 -->
<g id="node10" class="node"><title>Node13</title>
<g id="a_node10"><a xlink:href="odp__api_8h.html" target="_top" xlink:title="The OpenDataPlane API. ">
<polygon fill="white" stroke="black" points="1295.93,-56.5 1295.93,-75.5 1358.93,-75.5 1358.93,-56.5 1295.93,-56.5"/>
<text text-anchor="middle" x="1327.43" y="-63.5" font-family="Helvetica,sans-Serif" font-size="10.00">odp_api.h</text>
</a>
</g>
</g>
<!-- Node12&#45;&gt;Node13 -->
<g id="edge9" class="edge"><title>Node12&#45;&gt;Node13</title>
<path fill="none" stroke="midnightblue" d="M545.154,-232.224C440.559,-229.796 167.442,-220.443 83.4268,-188 39.4473,-171.017 -23.3358,-145.9 9.42676,-112 55.5432,-64.2821 1099.41,-66.0881 1295.75,-66.8523"/>
<polygon fill="midnightblue" stroke="midnightblue" points="545.244,-235.727 555.32,-232.45 545.4,-228.729 545.244,-235.727"/>
</g>
<!-- Node14 -->
<g id="node11" class="node"><title>Node14</title>
<g id="a_node11"><a xlink:href="odp_8h.html" target="_top" xlink:title="WARNING: THIS FILE IS DEPRECATED AND WILL BE REMOVED!!! ODP APPLICATIONS SHOULD NOW INCLUDE odp_api...">
<polygon fill="white" stroke="black" points="1305.43,-0.5 1305.43,-19.5 1349.43,-19.5 1349.43,-0.5 1305.43,-0.5"/>
<text text-anchor="middle" x="1327.43" y="-7.5" font-family="Helvetica,sans-Serif" font-size="10.00">odp.h</text>
</a>
</g>
</g>
<!-- Node13&#45;&gt;Node14 -->
<g id="edge10" class="edge"><title>Node13&#45;&gt;Node14</title>
<path fill="none" stroke="midnightblue" d="M1327.43,-45.8045C1327.43,-36.9102 1327.43,-26.7798 1327.43,-19.7511"/>
<polygon fill="midnightblue" stroke="midnightblue" points="1323.93,-46.083 1327.43,-56.083 1330.93,-46.083 1323.93,-46.083"/>
</g>
<!-- Node15&#45;&gt;Node13 -->
<g id="edge64" class="edge"><title>Node15&#45;&gt;Node13</title>
<path fill="none" stroke="midnightblue" d="M1250,-217.354C1225.52,-193.437 1186.46,-146.89 1210.43,-112 1229.46,-84.2833 1268.14,-73.6312 1295.81,-69.5414"/>
<polygon fill="midnightblue" stroke="midnightblue" points="1247.67,-219.962 1257.34,-224.281 1252.47,-214.872 1247.67,-219.962"/>
</g>
<!-- Node16 -->
<g id="node13" class="node"><title>Node16</title>
<g id="a_node13"><a xlink:href="api_2abi-default_2atomic_8h.html" target="_top" xlink:title="ODP atomic operations. ">
<polygon fill="white" stroke="red" points="119.927,-168.5 119.927,-187.5 178.927,-187.5 178.927,-168.5 119.927,-168.5"/>
<text text-anchor="middle" x="149.427" y="-175.5" font-family="Helvetica,sans-Serif" font-size="10.00">atomic.h</text>
</a>
</g>
</g>
<!-- Node15&#45;&gt;Node16 -->
<g id="edge12" class="edge"><title>Node15&#45;&gt;Node16</title>
<path fill="none" stroke="midnightblue" d="M1221.22,-232.212C1042.01,-228.981 392.689,-215.586 188.427,-188 185.397,-187.591 182.256,-187.056 179.133,-186.452"/>
<polygon fill="midnightblue" stroke="midnightblue" points="1221.31,-235.714 1231.37,-232.393 1221.43,-228.715 1221.31,-235.714"/>
</g>
<!-- Node25 -->
<g id="node19" class="node"><title>Node25</title>
<g id="a_node19"><a xlink:href="api_2abi-default_2barrier_8h.html" target="_top" xlink:title="ODP barrier. ">
<polygon fill="white" stroke="red" points="197.427,-168.5 197.427,-187.5 253.427,-187.5 253.427,-168.5 197.427,-168.5"/>
<text text-anchor="middle" x="225.427" y="-175.5" font-family="Helvetica,sans-Serif" font-size="10.00">barrier.h</text>
</a>
</g>
</g>
<!-- Node15&#45;&gt;Node25 -->
<g id="edge18" class="edge"><title>Node15&#45;&gt;Node25</title>
<path fill="none" stroke="midnightblue" d="M1221.04,-232.117C1049.5,-228.666 451.261,-214.934 262.427,-188 259.547,-187.589 256.564,-187.054 253.599,-186.449"/>
<polygon fill="midnightblue" stroke="midnightblue" points="1221.18,-235.62 1231.24,-232.32 1221.31,-228.622 1221.18,-235.62"/>
</g>
<!-- Node61 -->
<g id="node20" class="node"><title>Node61</title>
<g id="a_node20"><a xlink:href="api_2abi-default_2byteorder_8h.html" target="_top" xlink:title="ODP byteorder. ">
<polygon fill="white" stroke="red" points="271.927,-168.5 271.927,-187.5 342.927,-187.5 342.927,-168.5 271.927,-168.5"/>
<text text-anchor="middle" x="307.427" y="-175.5" font-family="Helvetica,sans-Serif" font-size="10.00">byteorder.h</text>
</a>
</g>
</g>
<!-- Node15&#45;&gt;Node61 -->
<g id="edge19" class="edge"><title>Node15&#45;&gt;Node61</title>
<path fill="none" stroke="midnightblue" d="M1220.64,-233.215C1085.4,-233.298 682.489,-229.743 351.427,-188 348.797,-187.668 346.089,-187.266 343.371,-186.818"/>
<polygon fill="midnightblue" stroke="midnightblue" points="1221.04,-236.715 1231.03,-233.201 1221.03,-229.715 1221.04,-236.715"/>
</g>
<!-- Node70 -->
<g id="node21" class="node"><title>Node70</title>
<g id="a_node21"><a xlink:href="api_2abi-default_2cpumask_8h.html" target="_top" xlink:title="ODP CPU masks and enumeration. ">
<polygon fill="white" stroke="red" points="360.927,-168.5 360.927,-187.5 429.927,-187.5 429.927,-168.5 360.927,-168.5"/>
<text text-anchor="middle" x="395.427" y="-175.5" font-family="Helvetica,sans-Serif" font-size="10.00">cpumask.h</text>
</a>
</g>
</g>
<!-- Node15&#45;&gt;Node70 -->
<g id="edge20" class="edge"><title>Node15&#45;&gt;Node70</title>
<path fill="none" stroke="midnightblue" d="M1221.29,-232.872C1095.39,-232.011 735.588,-226.126 439.427,-188 436.333,-187.602 433.133,-187.108 429.933,-186.559"/>
<polygon fill="midnightblue" stroke="midnightblue" points="1221.32,-236.373 1231.34,-232.934 1221.36,-229.373 1221.32,-236.373"/>
</g>
<!-- Node94 -->
<g id="node22" class="node"><title>Node94</title>
<g id="a_node22"><a xlink:href="api_2abi-default_2init_8h.html" target="_top" xlink:title="ODP initialization. ">
<polygon fill="white" stroke="red" points="448.427,-168.5 448.427,-187.5 488.427,-187.5 488.427,-168.5 448.427,-168.5"/>
<text text-anchor="middle" x="468.427" y="-175.5" font-family="Helvetica,sans-Serif" font-size="10.00">init.h</text>
</a>
</g>
</g>
<!-- Node15&#45;&gt;Node94 -->
<g id="edge21" class="edge"><title>Node15&#45;&gt;Node94</title>
<path fill="none" stroke="midnightblue" d="M1220.77,-231.756C1076.29,-227.67 637.532,-213.444 497.427,-188 494.522,-187.473 491.501,-186.745 488.552,-185.931"/>
<polygon fill="midnightblue" stroke="midnightblue" points="1220.96,-235.263 1231.06,-232.044 1221.16,-228.265 1220.96,-235.263"/>
</g>
<!-- Node102 -->
<g id="node23" class="node"><title>Node102</title>
<g id="a_node23"><a xlink:href="api_2abi-default_2ipsec_8h.html" target="_top" xlink:title="ODP IPSEC API &#45; platform specific types. ">
<polygon fill="white" stroke="red" points="506.427,-168.5 506.427,-187.5 556.427,-187.5 556.427,-168.5 506.427,-168.5"/>
<text text-anchor="middle" x="531.427" y="-175.5" font-family="Helvetica,sans-Serif" font-size="10.00">ipsec.h</text>
</a>
</g>
</g>
<!-- Node15&#45;&gt;Node102 -->
<g id="edge22" class="edge"><title>Node15&#45;&gt;Node102</title>
<path fill="none" stroke="midnightblue" d="M1221.35,-233.136C1108.62,-232.799 810.309,-227.869 565.427,-188 562.534,-187.529 559.531,-186.918 556.56,-186.237"/>
<polygon fill="midnightblue" stroke="midnightblue" points="1221.35,-236.636 1231.35,-233.155 1221.36,-229.636 1221.35,-236.636"/>
</g>
<!-- Node111 -->
<g id="node24" class="node"><title>Node111</title>
<g id="a_node24"><a xlink:href="api_2abi-default_2packet__io_8h.html" target="_top" xlink:title="ODP Packet IO. ">
<polygon fill="white" stroke="red" points="574.927,-168.5 574.927,-187.5 645.927,-187.5 645.927,-168.5 574.927,-168.5"/>
<text text-anchor="middle" x="610.427" y="-175.5" font-family="Helvetica,sans-Serif" font-size="10.00">packet_io.h</text>
</a>
</g>
</g>
<!-- Node15&#45;&gt;Node111 -->
<g id="edge23" class="edge"><title>Node15&#45;&gt;Node111</title>
<path fill="none" stroke="midnightblue" d="M1221.1,-231.555C1118.68,-227.931 865.451,-216.612 655.427,-188 652.427,-187.591 649.326,-187.106 646.22,-186.575"/>
<polygon fill="midnightblue" stroke="midnightblue" points="1221.28,-235.063 1231.39,-231.911 1221.52,-228.067 1221.28,-235.063"/>
</g>
<!-- Node43 -->
<g id="node25" class="node"><title>Node43</title>
<g id="a_node25"><a xlink:href="api_2abi-default_2rwlock__recursive_8h.html" target="_top" xlink:title="ODP recursive read/write lock. ">
<polygon fill="white" stroke="red" points="664.427,-168.5 664.427,-187.5 768.427,-187.5 768.427,-168.5 664.427,-168.5"/>
<text text-anchor="middle" x="716.427" y="-175.5" font-family="Helvetica,sans-Serif" font-size="10.00">rwlock_recursive.h</text>
</a>
</g>
</g>
<!-- Node15&#45;&gt;Node43 -->
<g id="edge24" class="edge"><title>Node15&#45;&gt;Node43</title>
<path fill="none" stroke="midnightblue" d="M1221.33,-229.615C1134.38,-223.043 940.242,-207.472 777.427,-188 774.557,-187.657 771.614,-187.286 768.645,-186.897"/>
<polygon fill="midnightblue" stroke="midnightblue" points="1221.16,-233.112 1231.39,-230.372 1221.68,-226.132 1221.16,-233.112"/>
</g>
<!-- Node137 -->
<g id="node26" class="node"><title>Node137</title>
<g id="a_node26"><a xlink:href="api_2abi-default_2schedule_8h.html" target="_top" xlink:title="ODP schedule. ">
<polygon fill="white" stroke="red" points="786.427,-168.5 786.427,-187.5 854.427,-187.5 854.427,-168.5 786.427,-168.5"/>
<text text-anchor="middle" x="820.427" y="-175.5" font-family="Helvetica,sans-Serif" font-size="10.00">schedule.h</text>
</a>
</g>
</g>
<!-- Node15&#45;&gt;Node137 -->
<g id="edge25" class="edge"><title>Node15&#45;&gt;Node137</title>
<path fill="none" stroke="midnightblue" d="M1221.08,-229.199C1145.93,-222.729 992.942,-208.276 864.427,-188 861.192,-187.49 857.834,-186.905 854.481,-186.283"/>
<polygon fill="midnightblue" stroke="midnightblue" points="1220.89,-232.696 1231.15,-230.059 1221.49,-225.722 1220.89,-232.696"/>
</g>
<!-- Node145 -->
<g id="node27" class="node"><title>Node145</title>
<g id="a_node27"><a xlink:href="api_2abi-default_2spinlock__recursive_8h.html" target="_top" xlink:title="ODP recursive spinlock. ">
<polygon fill="white" stroke="red" points="872.927,-168.5 872.927,-187.5 985.927,-187.5 985.927,-168.5 872.927,-168.5"/>
<text text-anchor="middle" x="929.427" y="-175.5" font-family="Helvetica,sans-Serif" font-size="10.00">spinlock_recursive.h</text>
</a>
</g>
</g>
<!-- Node15&#45;&gt;Node145 -->
<g id="edge26" class="edge"><title>Node15&#45;&gt;Node145</title>
<path fill="none" stroke="midnightblue" d="M1221.33,-225.635C1159.11,-215.695 1048.49,-198.022 982.757,-187.52"/>
<polygon fill="midnightblue" stroke="midnightblue" points="1220.83,-229.1 1231.25,-227.221 1221.93,-222.187 1220.83,-229.1"/>
</g>
<!-- Node154 -->
<g id="node28" class="node"><title>Node154</title>
<g id="a_node28"><a xlink:href="api_2abi-default_2traffic__mngr_8h.html" target="_top" xlink:title="ODP traffic mngr. ">
<polygon fill="white" stroke="red" points="1003.93,-168.5 1003.93,-187.5 1086.93,-187.5 1086.93,-168.5 1003.93,-168.5"/>
<text text-anchor="middle" x="1045.43" y="-175.5" font-family="Helvetica,sans-Serif" font-size="10.00">traffic_mngr.h</text>
</a>
</g>
</g>
<!-- Node15&#45;&gt;Node154 -->
<g id="edge27" class="edge"><title>Node15&#45;&gt;Node154</title>
<path fill="none" stroke="midnightblue" d="M1222.3,-222.024C1180.37,-211.823 1118.77,-196.841 1080.44,-187.516"/>
<polygon fill="midnightblue" stroke="midnightblue" points="1221.71,-225.481 1232.25,-224.444 1223.36,-218.679 1221.71,-225.481"/>
</g>
<!-- Node33 -->
<g id="node29" class="node"><title>Node33</title>
<g id="a_node29"><a xlink:href="api_2barrier_8h.html" target="_top" xlink:title="ODP execution barriers. ">
<polygon fill="white" stroke="black" points="1219.43,-112.5 1219.43,-131.5 1275.43,-131.5 1275.43,-112.5 1219.43,-112.5"/>
<text text-anchor="middle" x="1247.43" y="-119.5" font-family="Helvetica,sans-Serif" font-size="10.00">barrier.h</text>
</a>
</g>
</g>
<!-- Node15&#45;&gt;Node33 -->
<g id="edge28" class="edge"><title>Node15&#45;&gt;Node33</title>
<path fill="none" stroke="midnightblue" d="M1260.77,-214.67C1258.08,-206.593 1255.21,-196.927 1253.43,-188 1249.48,-168.217 1248.12,-144.52 1247.66,-131.916"/>
<polygon fill="midnightblue" stroke="midnightblue" points="1257.48,-215.884 1264.08,-224.178 1264.1,-213.583 1257.48,-215.884"/>
</g>
<!-- Node162 -->
<g id="node30" class="node"><title>Node162</title>
<g id="a_node30"><a xlink:href="api_2buffer_8h.html" target="_top" xlink:title="ODP buffer descriptor. ">
<polygon fill="white" stroke="black" points="1435.93,-112.5 1435.93,-131.5 1488.93,-131.5 1488.93,-112.5 1435.93,-112.5"/>
<text text-anchor="middle" x="1462.43" y="-119.5" font-family="Helvetica,sans-Serif" font-size="10.00">buffer.h</text>
</a>
</g>
</g>
<!-- Node15&#45;&gt;Node162 -->
<g id="edge30" class="edge"><title>Node15&#45;&gt;Node162</title>
<path fill="none" stroke="midnightblue" d="M1296.81,-220.31C1315.84,-211.791 1340.99,-199.974 1362.43,-188 1395.33,-169.623 1431.99,-144.523 1450.44,-131.547"/>
<polygon fill="midnightblue" stroke="midnightblue" points="1295.19,-217.198 1287.47,-224.447 1298.03,-223.599 1295.19,-217.198"/>
</g>
<!-- Node119 -->
<g id="node31" class="node"><title>Node119</title>
<g id="a_node31"><a xlink:href="api_2classification_8h.html" target="_top" xlink:title="ODP classification descriptor. ">
<polygon fill="white" stroke="red" points="1507.43,-112.5 1507.43,-131.5 1593.43,-131.5 1593.43,-112.5 1507.43,-112.5"/>
<text text-anchor="middle" x="1550.43" y="-119.5" font-family="Helvetica,sans-Serif" font-size="10.00">classification.h</text>
</a>
</g>
</g>
<!-- Node15&#45;&gt;Node119 -->
<g id="edge32" class="edge"><title>Node15&#45;&gt;Node119</title>
<path fill="none" stroke="midnightblue" d="M1301.51,-221.045C1326.49,-212.18 1361.19,-199.661 1391.43,-188 1441.51,-168.684 1499.77,-144.396 1529.95,-131.678"/>
<polygon fill="midnightblue" stroke="midnightblue" points="1300.03,-217.855 1291.77,-224.49 1302.36,-224.455 1300.03,-217.855"/>
</g>
<!-- Node125 -->
<g id="node32" class="node"><title>Node125</title>
<g id="a_node32"><a xlink:href="api_2crypto_8h.html" target="_top" xlink:title="ODP crypto. ">
<polygon fill="white" stroke="red" points="2322.43,-112.5 2322.43,-131.5 2378.43,-131.5 2378.43,-112.5 2322.43,-112.5"/>
<text text-anchor="middle" x="2350.43" y="-119.5" font-family="Helvetica,sans-Serif" font-size="10.00">crypto.h</text>
</a>
</g>
</g>
<!-- Node15&#45;&gt;Node125 -->
<g id="edge34" class="edge"><title>Node15&#45;&gt;Node125</title>
<path fill="none" stroke="midnightblue" d="M1313.86,-232.534C1513.53,-230.339 2290.85,-219.776 2331.43,-188 2348.64,-174.518 2350.87,-146.314 2350.8,-131.898"/>
<polygon fill="midnightblue" stroke="midnightblue" points="1313.67,-229.036 1303.7,-232.644 1313.74,-236.035 1313.67,-229.036"/>
</g>
<!-- Node121 -->
<g id="node33" class="node"><title>Node121</title>
<g id="a_node33"><a xlink:href="api_2packet_8h.html" target="_top" xlink:title="ODP packet descriptor. ">
<polygon fill="white" stroke="red" points="1295.43,-168.5 1295.43,-187.5 1353.43,-187.5 1353.43,-168.5 1295.43,-168.5"/>
<text text-anchor="middle" x="1324.43" y="-175.5" font-family="Helvetica,sans-Serif" font-size="10.00">packet.h</text>
</a>
</g>
</g>
<!-- Node15&#45;&gt;Node121 -->
<g id="edge36" class="edge"><title>Node15&#45;&gt;Node121</title>
<path fill="none" stroke="midnightblue" d="M1284.05,-217.253C1294.16,-207.673 1306.7,-195.791 1315.1,-187.834"/>
<polygon fill="midnightblue" stroke="midnightblue" points="1281.44,-214.906 1276.58,-224.324 1286.25,-219.987 1281.44,-214.906"/>
</g>
<!-- Node135 -->
<g id="node34" class="node"><title>Node135</title>
<g id="a_node34"><a xlink:href="api_2spec_2packet__flags_8h.html" target="_top" xlink:title="ODP packet flags. ">
<polygon fill="white" stroke="red" points="1293.43,-112.5 1293.43,-131.5 1379.43,-131.5 1379.43,-112.5 1293.43,-112.5"/>
<text text-anchor="middle" x="1336.43" y="-119.5" font-family="Helvetica,sans-Serif" font-size="10.00">packet_flags.h</text>
</a>
</g>
</g>
<!-- Node15&#45;&gt;Node135 -->
<g id="edge51" class="edge"><title>Node15&#45;&gt;Node135</title>
<path fill="none" stroke="midnightblue" d="M1270.08,-214.273C1272.65,-200.636 1277.53,-182.153 1286.43,-168 1295.87,-152.971 1311.73,-139.925 1323.05,-131.805"/>
<polygon fill="midnightblue" stroke="midnightblue" points="1266.58,-213.952 1268.42,-224.387 1273.49,-215.087 1266.58,-213.952"/>
</g>
<!-- Node131 -->
<g id="node35" class="node"><title>Node131</title>
<g id="a_node35"><a xlink:href="api_2packet__io_8h.html" target="_top" xlink:title="ODP Packet IO. ">
<polygon fill="white" stroke="red" points="2138.93,-168.5 2138.93,-187.5 2209.93,-187.5 2209.93,-168.5 2138.93,-168.5"/>
<text text-anchor="middle" x="2174.43" y="-175.5" font-family="Helvetica,sans-Serif" font-size="10.00">packet_io.h</text>
</a>
</g>
</g>
<!-- Node15&#45;&gt;Node131 -->
<g id="edge39" class="edge"><title>Node15&#45;&gt;Node131</title>
<path fill="none" stroke="midnightblue" d="M1314.14,-233.015C1444.09,-232.528 1820.65,-227.532 2130.43,-188 2133.06,-187.664 2135.76,-187.259 2138.48,-186.809"/>
<polygon fill="midnightblue" stroke="midnightblue" points="1313.76,-229.516 1303.77,-233.046 1313.78,-236.516 1313.76,-229.516"/>
</g>
<!-- Node133 -->
<g id="node36" class="node"><title>Node133</title>
<g id="a_node36"><a xlink:href="api_2spec_2traffic__mngr_8h.html" target="_top" xlink:title="Copyright (c) 2015&#45;2018, Linaro Limited All rights reserved. ">
<polygon fill="white" stroke="red" points="1723.93,-112.5 1723.93,-131.5 1806.93,-131.5 1806.93,-112.5 1723.93,-112.5"/>
<text text-anchor="middle" x="1765.43" y="-119.5" font-family="Helvetica,sans-Serif" font-size="10.00">traffic_mngr.h</text>
</a>
</g>
</g>
<!-- Node15&#45;&gt;Node133 -->
<g id="edge57" class="edge"><title>Node15&#45;&gt;Node133</title>
<path fill="none" stroke="midnightblue" d="M1312.63,-222.044C1345.38,-213.72 1390.55,-201.441 1429.43,-188 1451.27,-180.448 1455.18,-174.273 1477.43,-168 1563.15,-143.823 1667.13,-131.62 1723.74,-126.354"/>
<polygon fill="midnightblue" stroke="midnightblue" points="1311.73,-218.661 1302.89,-224.497 1313.44,-225.45 1311.73,-218.661"/>
</g>
<!-- Node129 -->
<g id="node37" class="node"><title>Node129</title>
<g id="a_node37"><a xlink:href="api_2queue_8h.html" target="_top" xlink:title="ODP queue. ">
<polygon fill="white" stroke="red" points="2266.43,-168.5 2266.43,-187.5 2322.43,-187.5 2322.43,-168.5 2266.43,-168.5"/>
<text text-anchor="middle" x="2294.43" y="-175.5" font-family="Helvetica,sans-Serif" font-size="10.00">queue.h</text>
</a>
</g>
</g>
<!-- Node15&#45;&gt;Node129 -->
<g id="edge42" class="edge"><title>Node15&#45;&gt;Node129</title>
<path fill="none" stroke="midnightblue" d="M1313.9,-233.596C1455.44,-234.829 1893.42,-234.342 2252.43,-188 2256.86,-187.427 2261.53,-186.629 2266.07,-185.741"/>
<polygon fill="midnightblue" stroke="midnightblue" points="1313.87,-230.096 1303.84,-233.501 1313.81,-237.095 1313.87,-230.096"/>
</g>
<!-- Node88 -->
<g id="node38" class="node"><title>Node88</title>
<g id="a_node38"><a xlink:href="api_2spec_2schedule_8h.html" target="_top" xlink:title="ODP schedule. ">
<polygon fill="white" stroke="red" points="2198.43,-112.5 2198.43,-131.5 2266.43,-131.5 2266.43,-112.5 2198.43,-112.5"/>
<text text-anchor="middle" x="2232.43" y="-119.5" font-family="Helvetica,sans-Serif" font-size="10.00">schedule.h</text>
</a>
</g>
</g>
<!-- Node15&#45;&gt;Node88 -->
<g id="edge53" class="edge"><title>Node15&#45;&gt;Node88</title>
<path fill="none" stroke="midnightblue" d="M1313.79,-232.381C1499.95,-229.695 2184.76,-217.817 2219.43,-188 2235.66,-174.042 2235.16,-146.054 2233.68,-131.791"/>
<polygon fill="midnightblue" stroke="midnightblue" points="1313.47,-228.885 1303.52,-232.527 1313.57,-235.884 1313.47,-228.885"/>
</g>
<!-- Node163 -->
<g id="node39" class="node"><title>Node163</title>
<g id="a_node39"><a xlink:href="spec_2chksum_8h.html" target="_top" xlink:title="ODP checksum functions. ">
<polygon fill="white" stroke="red" points="1485.93,-168.5 1485.93,-187.5 1548.93,-187.5 1548.93,-168.5 1485.93,-168.5"/>
<text text-anchor="middle" x="1517.43" y="-175.5" font-family="Helvetica,sans-Serif" font-size="10.00">chksum.h</text>
</a>
</g>
</g>
<!-- Node15&#45;&gt;Node163 -->
<g id="edge46" class="edge"><title>Node15&#45;&gt;Node163</title>
<path fill="none" stroke="midnightblue" d="M1313.43,-223.064C1363.47,-212.255 1442.13,-195.264 1485.71,-185.851"/>
<polygon fill="midnightblue" stroke="midnightblue" points="1312.55,-219.673 1303.51,-225.206 1314.03,-226.515 1312.55,-219.673"/>
</g>
<!-- Node165 -->
<g id="node40" class="node"><title>Node165</title>
<g id="a_node40"><a xlink:href="api_2spec_2cpu_8h.html" target="_top" xlink:title="ODP CPU API. ">
<polygon fill="white" stroke="red" points="1566.93,-168.5 1566.93,-187.5 1609.93,-187.5 1609.93,-168.5 1566.93,-168.5"/>
<text text-anchor="middle" x="1588.43" y="-175.5" font-family="Helvetica,sans-Serif" font-size="10.00">cpu.h</text>
</a>
</g>
</g>
<!-- Node15&#45;&gt;Node165 -->
<g id="edge47" class="edge"><title>Node15&#45;&gt;Node165</title>
<path fill="none" stroke="midnightblue" d="M1313.83,-227.83C1371.57,-220.938 1473,-207.323 1558.43,-188 1561.18,-187.376 1564.06,-186.634 1566.89,-185.848"/>
<polygon fill="midnightblue" stroke="midnightblue" points="1313.09,-224.393 1303.57,-229.039 1313.91,-231.345 1313.09,-224.393"/>
</g>
<!-- Node167 -->
<g id="node41" class="node"><title>Node167</title>
<g id="a_node41"><a xlink:href="spec_2feature_8h.html" target="_top" xlink:title="ODP features. ">
<polygon fill="white" stroke="red" points="1628.43,-168.5 1628.43,-187.5 1688.43,-187.5 1688.43,-168.5 1628.43,-168.5"/>
<text text-anchor="middle" x="1658.43" y="-175.5" font-family="Helvetica,sans-Serif" font-size="10.00">feature.h</text>
</a>
</g>
</g>
<!-- Node15&#45;&gt;Node167 -->
<g id="edge48" class="edge"><title>Node15&#45;&gt;Node167</title>
<path fill="none" stroke="midnightblue" d="M1313.89,-228.551C1381.45,-221.744 1510.63,-207.459 1619.43,-188 1622.3,-187.486 1625.28,-186.899 1628.25,-186.276"/>
<polygon fill="midnightblue" stroke="midnightblue" points="1313.19,-225.103 1303.59,-229.579 1313.88,-232.069 1313.19,-225.103"/>
</g>
<!-- Node169 -->
<g id="node42" class="node"><title>Node169</title>
<g id="a_node42"><a xlink:href="api_2spec_2hash_8h.html" target="_top" xlink:title="ODP Hash functions. ">
<polygon fill="white" stroke="red" points="1706.93,-168.5 1706.93,-187.5 1755.93,-187.5 1755.93,-168.5 1706.93,-168.5"/>
<text text-anchor="middle" x="1731.43" y="-175.5" font-family="Helvetica,sans-Serif" font-size="10.00">hash.h</text>
</a>
</g>
</g>
<!-- Node15&#45;&gt;Node169 -->
<g id="edge49" class="edge"><title>Node15&#45;&gt;Node169</title>
<path fill="none" stroke="midnightblue" d="M1313.78,-230.503C1392.96,-225.715 1559.12,-213.385 1697.43,-188 1700.43,-187.449 1703.56,-186.77 1706.64,-186.033"/>
<polygon fill="midnightblue" stroke="midnightblue" points="1313.43,-227.018 1303.65,-231.103 1313.84,-234.006 1313.43,-227.018"/>
</g>
<!-- Node90 -->
<g id="node43" class="node"><title>Node90</title>
<g id="a_node43"><a xlink:href="api_2spec_2init_8h.html" target="_top" xlink:title="init.h">
<polygon fill="white" stroke="red" points="1774.43,-168.5 1774.43,-187.5 1814.43,-187.5 1814.43,-168.5 1774.43,-168.5"/>
<text text-anchor="middle" x="1794.43" y="-175.5" font-family="Helvetica,sans-Serif" font-size="10.00">init.h</text>
</a>
</g>
</g>
<!-- Node15&#45;&gt;Node90 -->
<g id="edge50" class="edge"><title>Node15&#45;&gt;Node90</title>
<path fill="none" stroke="midnightblue" d="M1313.99,-232.057C1402.67,-229.544 1601.56,-220.453 1765.43,-188 1768.32,-187.426 1771.34,-186.673 1774.29,-185.846"/>
<polygon fill="midnightblue" stroke="midnightblue" points="1313.63,-228.565 1303.73,-232.332 1313.82,-235.563 1313.63,-228.565"/>
</g>
<!-- Node171 -->
<g id="node44" class="node"><title>Node171</title>
<g id="a_node44"><a xlink:href="api_2spec_2pool_8h.html" target="_top" xlink:title="ODP pool. ">
<polygon fill="white" stroke="red" points="1832.43,-168.5 1832.43,-187.5 1878.43,-187.5 1878.43,-168.5 1832.43,-168.5"/>
<text text-anchor="middle" x="1855.43" y="-175.5" font-family="Helvetica,sans-Serif" font-size="10.00">pool.h</text>
</a>
</g>
</g>
<!-- Node15&#45;&gt;Node171 -->
<g id="edge52" class="edge"><title>Node15&#45;&gt;Node171</title>
<path fill="none" stroke="midnightblue" d="M1313.73,-232.27C1409.59,-230.098 1636.45,-221.533 1823.43,-188 1826.27,-187.491 1829.22,-186.837 1832.13,-186.115"/>
<polygon fill="midnightblue" stroke="midnightblue" points="1313.44,-228.775 1303.51,-232.488 1313.58,-235.774 1313.44,-228.775"/>
</g>
<!-- Node173 -->
<g id="node45" class="node"><title>Node173</title>
<g id="a_node45"><a xlink:href="api_2spec_2stash_8h.html" target="_top" xlink:title="ODP stash. ">
<polygon fill="white" stroke="red" points="1896.43,-168.5 1896.43,-187.5 1948.43,-187.5 1948.43,-168.5 1896.43,-168.5"/>
<text text-anchor="middle" x="1922.43" y="-175.5" font-family="Helvetica,sans-Serif" font-size="10.00">stash.h</text>
</a>
</g>
</g>
<!-- Node15&#45;&gt;Node173 -->
<g id="edge54" class="edge"><title>Node15&#45;&gt;Node173</title>
<path fill="none" stroke="midnightblue" d="M1313.8,-232.466C1417.36,-230.656 1675.05,-222.725 1887.43,-188 1890.28,-187.534 1893.23,-186.945 1896.16,-186.293"/>
<polygon fill="midnightblue" stroke="midnightblue" points="1313.62,-228.968 1303.68,-232.632 1313.74,-235.967 1313.62,-228.968"/>
</g>
<!-- Node175 -->
<g id="node46" class="node"><title>Node175</title>
<g id="a_node46"><a xlink:href="spec_2threshold_8h.html" target="_top" xlink:title="ODP threshold descriptor. ">
<polygon fill="white" stroke="red" points="1966.93,-168.5 1966.93,-187.5 2037.93,-187.5 2037.93,-168.5 1966.93,-168.5"/>
<text text-anchor="middle" x="2002.43" y="-175.5" font-family="Helvetica,sans-Serif" font-size="10.00">threshold.h</text>
</a>
</g>
</g>
<!-- Node15&#45;&gt;Node175 -->
<g id="edge55" class="edge"><title>Node15&#45;&gt;Node175</title>
<path fill="none" stroke="midnightblue" d="M1313.71,-232.093C1425.05,-229.452 1716.46,-219.812 1957.43,-188 1960.43,-187.604 1963.53,-187.127 1966.64,-186.602"/>
<polygon fill="midnightblue" stroke="midnightblue" points="1313.42,-228.599 1303.51,-232.327 1313.58,-235.597 1313.42,-228.599"/>
</g>
<!-- Node177 -->
<g id="node47" class="node"><title>Node177</title>
<g id="a_node47"><a xlink:href="api_2spec_2thrmask_8h.html" target="_top" xlink:title="ODP thread masks. ">
<polygon fill="white" stroke="red" points="2055.93,-168.5 2055.93,-187.5 2120.93,-187.5 2120.93,-168.5 2055.93,-168.5"/>
<text text-anchor="middle" x="2088.43" y="-175.5" font-family="Helvetica,sans-Serif" font-size="10.00">thrmask.h</text>
</a>
</g>
</g>
<!-- Node15&#45;&gt;Node177 -->
<g id="edge56" class="edge"><title>Node15&#45;&gt;Node177</title>
<path fill="none" stroke="midnightblue" d="M1313.82,-232.88C1435.04,-232.016 1770.95,-226.076 2047.43,-188 2050.17,-187.622 2053,-187.158 2055.84,-186.642"/>
<polygon fill="midnightblue" stroke="midnightblue" points="1313.76,-229.381 1303.78,-232.944 1313.8,-236.38 1313.76,-229.381"/>
</g>
<!-- Node178 -->
<g id="node48" class="node"><title>Node178</title>
<g id="a_node48"><a xlink:href="system__info_8h.html" target="_top" xlink:title="ODP system information. ">
<polygon fill="white" stroke="black" points="18.9268,-112.5 18.9268,-131.5 101.927,-131.5 101.927,-112.5 18.9268,-112.5"/>
<text text-anchor="middle" x="60.4268" y="-119.5" font-family="Helvetica,sans-Serif" font-size="10.00">system_info.h</text>
</a>
</g>
</g>
<!-- Node15&#45;&gt;Node178 -->
<g id="edge58" class="edge"><title>Node15&#45;&gt;Node178</title>
<path fill="none" stroke="midnightblue" d="M1221.35,-232.298C1012.25,-228.975 160.533,-213.894 110.427,-188 86.6484,-175.712 70.8292,-146.417 64.1029,-131.721"/>
<polygon fill="midnightblue" stroke="midnightblue" points="1221.33,-235.798 1231.39,-232.457 1221.44,-228.799 1221.33,-235.798"/>
</g>
<!-- Node179 -->
<g id="node49" class="node"><title>Node179</title>
<g id="a_node49"><a xlink:href="api_2time_8h.html" target="_top" xlink:title="ODP time. ">
<polygon fill="white" stroke="red" points="1047.93,-112.5 1047.93,-131.5 1094.93,-131.5 1094.93,-112.5 1047.93,-112.5"/>
<text text-anchor="middle" x="1071.43" y="-119.5" font-family="Helvetica,sans-Serif" font-size="10.00">time.h</text>
</a>
</g>
</g>
<!-- Node15&#45;&gt;Node179 -->
<g id="edge60" class="edge"><title>Node15&#45;&gt;Node179</title>
<path fill="none" stroke="midnightblue" d="M1231.57,-221.008C1209.52,-212.99 1181.06,-201.461 1157.43,-188 1127.67,-171.049 1096.51,-145.117 1081.16,-131.707"/>
<polygon fill="midnightblue" stroke="midnightblue" points="1230.61,-224.383 1241.21,-224.44 1232.96,-217.789 1230.61,-224.383"/>
</g>
<!-- Node181 -->
<g id="node50" class="node"><title>Node181</title>
<g id="a_node50"><a xlink:href="api_2timer_8h.html" target="_top" xlink:title="ODP timer service. ">
<polygon fill="white" stroke="black" points="1113.43,-112.5 1113.43,-131.5 1163.43,-131.5 1163.43,-112.5 1113.43,-112.5"/>
<text text-anchor="middle" x="1138.43" y="-119.5" font-family="Helvetica,sans-Serif" font-size="10.00">timer.h</text>
</a>
</g>
</g>
<!-- Node15&#45;&gt;Node181 -->
<g id="edge62" class="edge"><title>Node15&#45;&gt;Node181</title>
<path fill="none" stroke="midnightblue" d="M1231.53,-220.575C1213.77,-213.139 1192.89,-202.321 1177.43,-188 1159.66,-171.547 1147.29,-145.166 1141.73,-131.628"/>
<polygon fill="midnightblue" stroke="midnightblue" points="1230.43,-223.905 1241.01,-224.358 1233.02,-217.403 1230.43,-223.905"/>
</g>
<!-- Node17 -->
<g id="node14" class="node"><title>Node17</title>
<g id="a_node14"><a xlink:href="arch_2arm32-linux_2odp_2api_2abi_2atomic_8h_source.html" target="_top" xlink:title="atomic.h">
<polygon fill="white" stroke="black" points="196.927,-112.5 196.927,-131.5 255.927,-131.5 255.927,-112.5 196.927,-112.5"/>
<text text-anchor="middle" x="226.427" y="-119.5" font-family="Helvetica,sans-Serif" font-size="10.00">atomic.h</text>
</a>
</g>
</g>
<!-- Node16&#45;&gt;Node17 -->
<g id="edge13" class="edge"><title>Node16&#45;&gt;Node17</title>
<path fill="none" stroke="midnightblue" d="M170.328,-162.342C184.338,-152.517 202.31,-139.913 214.086,-131.655"/>
<polygon fill="midnightblue" stroke="midnightblue" points="167.976,-159.717 161.798,-168.324 171.995,-165.448 167.976,-159.717"/>
</g>
<!-- Node18 -->
<g id="node15" class="node"><title>Node18</title>
<g id="a_node15"><a xlink:href="arch_2arm64-linux_2odp_2api_2abi_2atomic_8h_source.html" target="_top" xlink:title="atomic.h">
<polygon fill="white" stroke="black" points="273.927,-112.5 273.927,-131.5 332.927,-131.5 332.927,-112.5 273.927,-112.5"/>
<text text-anchor="middle" x="303.427" y="-119.5" font-family="Helvetica,sans-Serif" font-size="10.00">atomic.h</text>
</a>
</g>
</g>
<!-- Node16&#45;&gt;Node18 -->
<g id="edge14" class="edge"><title>Node16&#45;&gt;Node18</title>
<path fill="none" stroke="midnightblue" d="M183.537,-165.039C212.514,-154.879 253.389,-140.546 279.139,-131.516"/>
<polygon fill="midnightblue" stroke="midnightblue" points="182.107,-161.832 173.829,-168.444 184.423,-168.437 182.107,-161.832"/>
</g>
<!-- Node19 -->
<g id="node16" class="node"><title>Node19</title>
<g id="a_node16"><a xlink:href="arch_2default-linux_2odp_2api_2abi_2atomic_8h_source.html" target="_top" xlink:title="atomic.h">
<polygon fill="white" stroke="black" points="350.927,-112.5 350.927,-131.5 409.927,-131.5 409.927,-112.5 350.927,-112.5"/>
<text text-anchor="middle" x="380.427" y="-119.5" font-family="Helvetica,sans-Serif" font-size="10.00">atomic.h</text>
</a>
</g>
</g>
<!-- Node16&#45;&gt;Node19 -->
<g id="edge15" class="edge"><title>Node16&#45;&gt;Node19</title>
<path fill="none" stroke="midnightblue" d="M189.056,-167.736C234.991,-156.998 309.64,-139.548 350.815,-129.922"/>
<polygon fill="midnightblue" stroke="midnightblue" points="188.094,-164.367 179.153,-170.051 189.687,-171.183 188.094,-164.367"/>
</g>
<!-- Node20 -->
<g id="node17" class="node"><title>Node20</title>
<g id="a_node17"><a xlink:href="arch_2mips64-linux_2odp_2api_2abi_2atomic_8h_source.html" target="_top" xlink:title="atomic.h">
<polygon fill="white" stroke="black" points="427.927,-112.5 427.927,-131.5 486.927,-131.5 486.927,-112.5 427.927,-112.5"/>
<text text-anchor="middle" x="457.427" y="-119.5" font-family="Helvetica,sans-Serif" font-size="10.00">atomic.h</text>
</a>
</g>
</g>
<!-- Node16&#45;&gt;Node20 -->
<g id="edge16" class="edge"><title>Node16&#45;&gt;Node20</title>
<path fill="none" stroke="midnightblue" d="M189.029,-168.011C291.704,-148.533 319.917,-151.051 418.427,-132 421.429,-131.419 424.551,-130.773 427.663,-130.099"/>
<polygon fill="midnightblue" stroke="midnightblue" points="188.351,-164.577 179.191,-169.901 189.671,-171.451 188.351,-164.577"/>
</g>
<!-- Node21 -->
<g id="node18" class="node"><title>Node21</title>
<g id="a_node18"><a xlink:href="arch_2power64-linux_2odp_2api_2abi_2atomic_8h_source.html" target="_top" xlink:title="atomic.h">
<polygon fill="white" stroke="black" points="119.927,-112.5 119.927,-131.5 178.927,-131.5 178.927,-112.5 119.927,-112.5"/>
<text text-anchor="middle" x="149.427" y="-119.5" font-family="Helvetica,sans-Serif" font-size="10.00">atomic.h</text>
</a>
</g>
</g>
<!-- Node16&#45;&gt;Node21 -->
<g id="edge17" class="edge"><title>Node16&#45;&gt;Node21</title>
<path fill="none" stroke="midnightblue" d="M149.427,-157.805C149.427,-148.91 149.427,-138.78 149.427,-131.751"/>
<polygon fill="midnightblue" stroke="midnightblue" points="145.927,-158.083 149.427,-168.083 152.927,-158.083 145.927,-158.083"/>
</g>
<!-- Node33&#45;&gt;Node13 -->
<g id="edge29" class="edge"><title>Node33&#45;&gt;Node13</title>
<path fill="none" stroke="midnightblue" d="M1268.73,-106.622C1283.34,-96.7574 1302.25,-83.9919 1314.61,-75.6545"/>
<polygon fill="midnightblue" stroke="midnightblue" points="1266.61,-103.828 1260.28,-112.324 1270.53,-109.63 1266.61,-103.828"/>
</g>
<!-- Node162&#45;&gt;Node13 -->
<g id="edge31" class="edge"><title>Node162&#45;&gt;Node13</title>
<path fill="none" stroke="midnightblue" d="M1431.52,-108.638C1406.19,-98.504 1371,-84.4274 1348.72,-75.5164"/>
<polygon fill="midnightblue" stroke="midnightblue" points="1430.45,-111.979 1441.04,-112.444 1433.05,-105.48 1430.45,-111.979"/>
</g>
<!-- Node119&#45;&gt;Node13 -->
<g id="edge33" class="edge"><title>Node119&#45;&gt;Node13</title>
<path fill="none" stroke="midnightblue" d="M1505.34,-110.083C1461.87,-99.5568 1397.22,-83.8999 1358.99,-74.6433"/>
<polygon fill="midnightblue" stroke="midnightblue" points="1504.55,-113.492 1515.09,-112.444 1506.2,-106.688 1504.55,-113.492"/>
</g>
<!-- Node125&#45;&gt;Node13 -->
<g id="edge35" class="edge"><title>Node125&#45;&gt;Node13</title>
<path fill="none" stroke="midnightblue" d="M2312.22,-112.534C2310.94,-112.34 2309.67,-112.161 2308.43,-112 1937.28,-64.0563 1481.39,-65.2458 1358.93,-66.5596"/>
<polygon fill="midnightblue" stroke="midnightblue" points="2311.62,-115.982 2322.07,-114.259 2312.82,-109.087 2311.62,-115.982"/>
</g>
<!-- Node121&#45;&gt;Node13 -->
<g id="edge38" class="edge"><title>Node121&#45;&gt;Node13</title>
<path fill="none" stroke="midnightblue" d="M1354.98,-163.559C1367.76,-156.217 1381.27,-145.774 1388.43,-132 1400.77,-108.24 1368.57,-86.9089 1346.4,-75.5746"/>
<polygon fill="midnightblue" stroke="midnightblue" points="1353.11,-160.588 1345.91,-168.36 1356.39,-166.775 1353.11,-160.588"/>
</g>
<!-- Node121&#45;&gt;Node135 -->
<g id="edge37" class="edge"><title>Node121&#45;&gt;Node135</title>
<path fill="none" stroke="midnightblue" d="M1328.63,-158.101C1330.62,-149.136 1332.9,-138.858 1334.48,-131.751"/>
<polygon fill="midnightblue" stroke="midnightblue" points="1325.16,-157.562 1326.41,-168.083 1331.99,-159.08 1325.16,-157.562"/>
</g>
<!-- Node131&#45;&gt;Node13 -->
<g id="edge41" class="edge"><title>Node131&#45;&gt;Node13</title>
<path fill="none" stroke="midnightblue" d="M2128.7,-167.692C1989.53,-140.858 1953.62,-130.512 1816.43,-112 1644.49,-88.7996 1436.91,-74.0487 1359,-68.9742"/>
<polygon fill="midnightblue" stroke="midnightblue" points="2128.42,-171.202 2138.9,-169.653 2129.74,-164.328 2128.42,-171.202"/>
</g>
<!-- Node131&#45;&gt;Node133 -->
<g id="edge40" class="edge"><title>Node131&#45;&gt;Node133</title>
<path fill="none" stroke="midnightblue" d="M2128.57,-167.792C2006.59,-148.138 1873.36,-133.737 1807.18,-127.062"/>
<polygon fill="midnightblue" stroke="midnightblue" points="2128.02,-171.248 2138.45,-169.4 2129.14,-164.339 2128.02,-171.248"/>
</g>
<!-- Node129&#45;&gt;Node13 -->
<g id="edge45" class="edge"><title>Node129&#45;&gt;Node13</title>
<path fill="none" stroke="midnightblue" d="M2294.44,-157.869C2293.33,-142.866 2289.12,-122.779 2275.43,-112 2238.63,-83.0321 1519.35,-70.0227 1358.95,-67.4755"/>
<polygon fill="midnightblue" stroke="midnightblue" points="2290.95,-158.24 2294.8,-168.112 2297.95,-157.997 2290.95,-158.24"/>
</g>
<!-- Node129&#45;&gt;Node125 -->
<g id="edge43" class="edge"><title>Node129&#45;&gt;Node125</title>
<path fill="none" stroke="midnightblue" d="M2310.76,-161.253C2320.69,-151.673 2333.01,-139.791 2341.27,-131.834"/>
<polygon fill="midnightblue" stroke="midnightblue" points="2308.19,-158.863 2303.42,-168.324 2313.05,-163.902 2308.19,-158.863"/>
</g>
<!-- Node129&#45;&gt;Node88 -->
<g id="edge44" class="edge"><title>Node129&#45;&gt;Node88</title>
<path fill="none" stroke="midnightblue" d="M2276.67,-161.537C2265.62,-151.909 2251.8,-139.869 2242.57,-131.834"/>
<polygon fill="midnightblue" stroke="midnightblue" points="2274.63,-164.395 2284.47,-168.324 2279.22,-159.117 2274.63,-164.395"/>
</g>
<!-- Node178&#45;&gt;Node13 -->
<g id="edge59" class="edge"><title>Node178&#45;&gt;Node13</title>
<path fill="none" stroke="midnightblue" d="M112.191,-111.985C370.625,-85.7126 1131.24,-70.5896 1295.81,-67.5638"/>
<polygon fill="midnightblue" stroke="midnightblue" points="111.685,-108.519 102.105,-113.044 112.416,-115.481 111.685,-108.519"/>
</g>
<!-- Node179&#45;&gt;Node13 -->
<g id="edge61" class="edge"><title>Node179&#45;&gt;Node13</title>
<path fill="none" stroke="midnightblue" d="M1105.12,-111.966C1179.09,-94.6242 1254.42,-80.284 1295.89,-72.6733"/>
<polygon fill="midnightblue" stroke="midnightblue" points="1104.1,-108.612 1095.17,-114.32 1105.71,-115.424 1104.1,-108.612"/>
</g>
<!-- Node181&#45;&gt;Node13 -->
<g id="edge63" class="edge"><title>Node181&#45;&gt;Node13</title>
<path fill="none" stroke="midnightblue" d="M1173.49,-110.981C1209.17,-100.788 1263.87,-85.16 1297.55,-75.5371"/>
<polygon fill="midnightblue" stroke="midnightblue" points="1172.18,-107.717 1163.52,-113.829 1174.1,-114.447 1172.18,-107.717"/>
</g>
</g>
</svg>
