<?xml version="1.0" encoding="UTF-8" standalone="no"?>
<!DOCTYPE svg PUBLIC "-//W3C//DTD SVG 1.1//EN"
 "http://www.w3.org/Graphics/SVG/1.1/DTD/svg11.dtd">
<!-- Generated by graphviz version 2.38.0 (20140413.2041)
 -->
<!-- Title: byteorder.h Pages: 1 -->
<svg width="338pt" height="140pt"
 viewBox="0.00 0.00 338.00 140.00" xmlns="http://www.w3.org/2000/svg" xmlns:xlink="http://www.w3.org/1999/xlink">
<g id="graph0" class="graph" transform="scale(1 1) rotate(0) translate(4 136)">
<title>byteorder.h</title>
<polygon fill="white" stroke="none" points="-4,4 -4,-136 334,-136 334,4 -4,4"/>
<!-- Node0 -->
<g id="node1" class="node"><title>Node0</title>
<polygon fill="#bfbfbf" stroke="black" points="102,-112.5 102,-131.5 173,-131.5 173,-112.5 102,-112.5"/>
<text text-anchor="middle" x="137.5" y="-119.5" font-family="Helvetica,sans-Serif" font-size="10.00">byteorder.h</text>
</g>
<!-- Node1 -->
<g id="node2" class="node"><title>Node1</title>
<polygon fill="white" stroke="#bfbfbf" points="0,-56.5 0,-75.5 127,-75.5 127,-56.5 0,-56.5"/>
<text text-anchor="middle" x="63.5" y="-63.5" font-family="Helvetica,sans-Serif" font-size="10.00">odp/api/abi/byteorder.h</text>
</g>
<!-- Node0&#45;&gt;Node1 -->
<g id="edge1" class="edge"><title>Node0&#45;&gt;Node1</title>
<path fill="none" stroke="midnightblue" d="M125.611,-112.324C114.35,-104.107 97.2134,-91.6017 83.7909,-81.8069"/>
<polygon fill="midnightblue" stroke="midnightblue" points="85.7468,-78.9014 75.6057,-75.8339 81.6205,-84.5559 85.7468,-78.9014"/>
</g>
<!-- Node2 -->
<g id="node3" class="node"><title>Node2</title>
<g id="a_node3"><a xlink:href="api_2spec_2byteorder_8h.html" target="_top" xlink:title="ODP byteorder. ">
<polygon fill="white" stroke="black" points="145,-56.5 145,-75.5 280,-75.5 280,-56.5 145,-56.5"/>
<text text-anchor="middle" x="212.5" y="-63.5" font-family="Helvetica,sans-Serif" font-size="10.00">odp/api/spec/byteorder.h</text>
</a>
</g>
</g>
<!-- Node0&#45;&gt;Node2 -->
<g id="edge2" class="edge"><title>Node0&#45;&gt;Node2</title>
<path fill="none" stroke="midnightblue" d="M149.55,-112.324C160.963,-104.107 178.331,-91.6017 191.935,-81.8069"/>
<polygon fill="midnightblue" stroke="midnightblue" points="194.16,-84.5174 200.231,-75.8339 190.07,-78.8366 194.16,-84.5174"/>
</g>
<!-- Node3 -->
<g id="node4" class="node"><title>Node3</title>
<g id="a_node4"><a xlink:href="visibility__begin_8h_source.html" target="_top" xlink:title="odp/visibility_begin.h">
<polygon fill="white" stroke="black" points="90,-0.5 90,-19.5 205,-19.5 205,-0.5 90,-0.5"/>
<text text-anchor="middle" x="147.5" y="-7.5" font-family="Helvetica,sans-Serif" font-size="10.00">odp/visibility_begin.h</text>
</a>
</g>
</g>
<!-- Node2&#45;&gt;Node3 -->
<g id="edge3" class="edge"><title>Node2&#45;&gt;Node3</title>
<path fill="none" stroke="midnightblue" d="M202.057,-56.324C192.354,-48.2631 177.685,-36.0765 166,-26.3695"/>
<polygon fill="midnightblue" stroke="midnightblue" points="168.062,-23.532 158.133,-19.8339 163.589,-28.9163 168.062,-23.532"/>
</g>
<!-- Node4 -->
<g id="node5" class="node"><title>Node4</title>
<g id="a_node5"><a xlink:href="visibility__end_8h_source.html" target="_top" xlink:title="odp/visibility_end.h">
<polygon fill="white" stroke="black" points="223,-0.5 223,-19.5 330,-19.5 330,-0.5 223,-0.5"/>
<text text-anchor="middle" x="276.5" y="-7.5" font-family="Helvetica,sans-Serif" font-size="10.00">odp/visibility_end.h</text>
</a>
</g>
</g>
<!-- Node2&#45;&gt;Node4 -->
<g id="edge4" class="edge"><title>Node2&#45;&gt;Node4</title>
<path fill="none" stroke="midnightblue" d="M222.783,-56.324C232.336,-48.2631 246.78,-36.0765 258.284,-26.3695"/>
<polygon fill="midnightblue" stroke="midnightblue" points="260.644,-28.9577 266.03,-19.8339 256.13,-23.6076 260.644,-28.9577"/>
</g>
</g>
</svg>
