<?xml version="1.0" encoding="UTF-8" standalone="no"?>
<!DOCTYPE svg PUBLIC "-//W3C//DTD SVG 1.1//EN"
 "http://www.w3.org/Graphics/SVG/1.1/DTD/svg11.dtd">
<!-- Generated by graphviz version 2.38.0 (20140413.2041)
 -->
<!-- Title: packet_flags.h Pages: 1 -->
<svg width="718pt" height="252pt"
 viewBox="0.00 0.00 718.00 252.00" xmlns="http://www.w3.org/2000/svg" xmlns:xlink="http://www.w3.org/1999/xlink">
<g id="graph0" class="graph" transform="scale(1 1) rotate(0) translate(4 248)">
<title>packet_flags.h</title>
<polygon fill="white" stroke="none" points="-4,4 -4,-248 714,-248 714,4 -4,4"/>
<!-- Node1 -->
<g id="node1" class="node"><title>Node1</title>
<polygon fill="#bfbfbf" stroke="black" points="312,-224.5 312,-243.5 398,-243.5 398,-224.5 312,-224.5"/>
<text text-anchor="middle" x="355" y="-231.5" font-family="Helvetica,sans-Serif" font-size="10.00">packet_flags.h</text>
</g>
<!-- Node2 -->
<g id="node2" class="node"><title>Node2</title>
<g id="a_node2"><a xlink:href="arch_2arm32-linux_2odp_2api_2abi_2packet__flags_8h_source.html" target="_top" xlink:title="packet_flags.h">
<polygon fill="white" stroke="black" points="0,-168.5 0,-187.5 86,-187.5 86,-168.5 0,-168.5"/>
<text text-anchor="middle" x="43" y="-175.5" font-family="Helvetica,sans-Serif" font-size="10.00">packet_flags.h</text>
</a>
</g>
</g>
<!-- Node1&#45;&gt;Node2 -->
<g id="edge1" class="edge"><title>Node1&#45;&gt;Node2</title>
<path fill="none" stroke="midnightblue" d="M301.773,-223.788C240.896,-213.251 142.4,-196.204 86.1135,-186.462"/>
<polygon fill="midnightblue" stroke="midnightblue" points="301.495,-227.291 311.945,-225.548 302.689,-220.394 301.495,-227.291"/>
</g>
<!-- Node3 -->
<g id="node3" class="node"><title>Node3</title>
<g id="a_node3"><a xlink:href="arch_2arm64-linux_2odp_2api_2abi_2packet__flags_8h_source.html" target="_top" xlink:title="packet_flags.h">
<polygon fill="white" stroke="black" points="104,-168.5 104,-187.5 190,-187.5 190,-168.5 104,-168.5"/>
<text text-anchor="middle" x="147" y="-175.5" font-family="Helvetica,sans-Serif" font-size="10.00">packet_flags.h</text>
</a>
</g>
</g>
<!-- Node1&#45;&gt;Node3 -->
<g id="edge2" class="edge"><title>Node1&#45;&gt;Node3</title>
<path fill="none" stroke="midnightblue" d="M312.222,-221.894C272.942,-211.697 215.571,-196.802 179.804,-187.516"/>
<polygon fill="midnightblue" stroke="midnightblue" points="311.483,-225.318 322.042,-224.444 313.242,-218.543 311.483,-225.318"/>
</g>
<!-- Node4 -->
<g id="node4" class="node"><title>Node4</title>
<g id="a_node4"><a xlink:href="arch_2default-linux_2odp_2api_2abi_2packet__flags_8h_source.html" target="_top" xlink:title="packet_flags.h">
<polygon fill="white" stroke="black" points="208,-168.5 208,-187.5 294,-187.5 294,-168.5 208,-168.5"/>
<text text-anchor="middle" x="251" y="-175.5" font-family="Helvetica,sans-Serif" font-size="10.00">packet_flags.h</text>
</a>
</g>
</g>
<!-- Node1&#45;&gt;Node4 -->
<g id="edge3" class="edge"><title>Node1&#45;&gt;Node4</title>
<path fill="none" stroke="midnightblue" d="M329.172,-219.59C309.943,-209.605 284.255,-196.267 267.668,-187.655"/>
<polygon fill="midnightblue" stroke="midnightblue" points="327.803,-222.822 338.291,-224.324 331.029,-216.61 327.803,-222.822"/>
</g>
<!-- Node5 -->
<g id="node5" class="node"><title>Node5</title>
<g id="a_node5"><a xlink:href="arch_2mips64-linux_2odp_2api_2abi_2packet__flags_8h_source.html" target="_top" xlink:title="packet_flags.h">
<polygon fill="white" stroke="black" points="312,-168.5 312,-187.5 398,-187.5 398,-168.5 312,-168.5"/>
<text text-anchor="middle" x="355" y="-175.5" font-family="Helvetica,sans-Serif" font-size="10.00">packet_flags.h</text>
</a>
</g>
</g>
<!-- Node1&#45;&gt;Node5 -->
<g id="edge4" class="edge"><title>Node1&#45;&gt;Node5</title>
<path fill="none" stroke="midnightblue" d="M355,-213.805C355,-204.91 355,-194.78 355,-187.751"/>
<polygon fill="midnightblue" stroke="midnightblue" points="351.5,-214.083 355,-224.083 358.5,-214.083 351.5,-214.083"/>
</g>
<!-- Node6 -->
<g id="node6" class="node"><title>Node6</title>
<g id="a_node6"><a xlink:href="arch_2power64-linux_2odp_2api_2abi_2packet__flags_8h_source.html" target="_top" xlink:title="packet_flags.h">
<polygon fill="white" stroke="black" points="416,-168.5 416,-187.5 502,-187.5 502,-168.5 416,-168.5"/>
<text text-anchor="middle" x="459" y="-175.5" font-family="Helvetica,sans-Serif" font-size="10.00">packet_flags.h</text>
</a>
</g>
</g>
<!-- Node1&#45;&gt;Node6 -->
<g id="edge5" class="edge"><title>Node1&#45;&gt;Node6</title>
<path fill="none" stroke="midnightblue" d="M380.828,-219.59C400.057,-209.605 425.745,-196.267 442.332,-187.655"/>
<polygon fill="midnightblue" stroke="midnightblue" points="378.971,-216.61 371.709,-224.324 382.197,-222.822 378.971,-216.61"/>
</g>
<!-- Node7 -->
<g id="node7" class="node"><title>Node7</title>
<g id="a_node7"><a xlink:href="arch_2x86__32-linux_2odp_2api_2abi_2packet__flags_8h_source.html" target="_top" xlink:title="packet_flags.h">
<polygon fill="white" stroke="black" points="520,-168.5 520,-187.5 606,-187.5 606,-168.5 520,-168.5"/>
<text text-anchor="middle" x="563" y="-175.5" font-family="Helvetica,sans-Serif" font-size="10.00">packet_flags.h</text>
</a>
</g>
</g>
<!-- Node1&#45;&gt;Node7 -->
<g id="edge6" class="edge"><title>Node1&#45;&gt;Node7</title>
<path fill="none" stroke="midnightblue" d="M397.778,-221.894C437.058,-211.697 494.429,-196.802 530.196,-187.516"/>
<polygon fill="midnightblue" stroke="midnightblue" points="396.758,-218.543 387.958,-224.444 398.517,-225.318 396.758,-218.543"/>
</g>
<!-- Node8 -->
<g id="node8" class="node"><title>Node8</title>
<g id="a_node8"><a xlink:href="arch_2x86__64-linux_2odp_2api_2abi_2packet__flags_8h_source.html" target="_top" xlink:title="packet_flags.h">
<polygon fill="white" stroke="black" points="624,-168.5 624,-187.5 710,-187.5 710,-168.5 624,-168.5"/>
<text text-anchor="middle" x="667" y="-175.5" font-family="Helvetica,sans-Serif" font-size="10.00">packet_flags.h</text>
</a>
</g>
</g>
<!-- Node1&#45;&gt;Node8 -->
<g id="edge7" class="edge"><title>Node1&#45;&gt;Node8</title>
<path fill="none" stroke="midnightblue" d="M408.227,-223.788C469.104,-213.251 567.6,-196.204 623.887,-186.462"/>
<polygon fill="midnightblue" stroke="midnightblue" points="407.311,-220.394 398.055,-225.548 408.505,-227.291 407.311,-220.394"/>
</g>
<!-- Node9 -->
<g id="node9" class="node"><title>Node9</title>
<g id="a_node9"><a xlink:href="api_2packet__flags_8h.html" target="_top" xlink:title="ODP packet flags. ">
<polygon fill="white" stroke="black" points="624,-112.5 624,-131.5 710,-131.5 710,-112.5 624,-112.5"/>
<text text-anchor="middle" x="667" y="-119.5" font-family="Helvetica,sans-Serif" font-size="10.00">packet_flags.h</text>
</a>
</g>
</g>
<!-- Node8&#45;&gt;Node9 -->
<g id="edge8" class="edge"><title>Node8&#45;&gt;Node9</title>
<path fill="none" stroke="midnightblue" d="M667,-157.805C667,-148.91 667,-138.78 667,-131.751"/>
<polygon fill="midnightblue" stroke="midnightblue" points="663.5,-158.083 667,-168.083 670.5,-158.083 663.5,-158.083"/>
</g>
<!-- Node10 -->
<g id="node10" class="node"><title>Node10</title>
<g id="a_node10"><a xlink:href="odp__api_8h.html" target="_top" xlink:title="The OpenDataPlane API. ">
<polygon fill="white" stroke="black" points="635.5,-56.5 635.5,-75.5 698.5,-75.5 698.5,-56.5 635.5,-56.5"/>
<text text-anchor="middle" x="667" y="-63.5" font-family="Helvetica,sans-Serif" font-size="10.00">odp_api.h</text>
</a>
</g>
</g>
<!-- Node9&#45;&gt;Node10 -->
<g id="edge9" class="edge"><title>Node9&#45;&gt;Node10</title>
<path fill="none" stroke="midnightblue" d="M667,-101.805C667,-92.9102 667,-82.7798 667,-75.7511"/>
<polygon fill="midnightblue" stroke="midnightblue" points="663.5,-102.083 667,-112.083 670.5,-102.083 663.5,-102.083"/>
</g>
<!-- Node11 -->
<g id="node11" class="node"><title>Node11</title>
<g id="a_node11"><a xlink:href="odp_8h.html" target="_top" xlink:title="WARNING: THIS FILE IS DEPRECATED AND WILL BE REMOVED!!! ODP APPLICATIONS SHOULD NOW INCLUDE odp_api...">
<polygon fill="white" stroke="black" points="645,-0.5 645,-19.5 689,-19.5 689,-0.5 645,-0.5"/>
<text text-anchor="middle" x="667" y="-7.5" font-family="Helvetica,sans-Serif" font-size="10.00">odp.h</text>
</a>
</g>
</g>
<!-- Node10&#45;&gt;Node11 -->
<g id="edge10" class="edge"><title>Node10&#45;&gt;Node11</title>
<path fill="none" stroke="midnightblue" d="M667,-45.8045C667,-36.9102 667,-26.7798 667,-19.7511"/>
<polygon fill="midnightblue" stroke="midnightblue" points="663.5,-46.083 667,-56.083 670.5,-46.083 663.5,-46.083"/>
</g>
</g>
</svg>
