<?xml version="1.0" encoding="UTF-8" standalone="no"?>
<!DOCTYPE svg PUBLIC "-//W3C//DTD SVG 1.1//EN"
 "http://www.w3.org/Graphics/SVG/1.1/DTD/svg11.dtd">
<!-- Generated by graphviz version 2.38.0 (20140413.2041)
 -->
<!-- Title: schedule.h Pages: 1 -->
<svg width="374pt" height="196pt"
 viewBox="0.00 0.00 373.50 196.00" xmlns="http://www.w3.org/2000/svg" xmlns:xlink="http://www.w3.org/1999/xlink">
<g id="graph0" class="graph" transform="scale(1 1) rotate(0) translate(4 192)">
<title>schedule.h</title>
<polygon fill="white" stroke="none" points="-4,4 -4,-192 369.5,-192 369.5,4 -4,4"/>
<!-- Node0 -->
<g id="node1" class="node"><title>Node0</title>
<polygon fill="#bfbfbf" stroke="black" points="105,-168.5 105,-187.5 173,-187.5 173,-168.5 105,-168.5"/>
<text text-anchor="middle" x="139" y="-175.5" font-family="Helvetica,sans-Serif" font-size="10.00">schedule.h</text>
</g>
<!-- Node1 -->
<g id="node2" class="node"><title>Node1</title>
<g id="a_node2"><a xlink:href="api_2std__types_8h.html" target="_top" xlink:title="Standard C language types and definitions for ODP. ">
<polygon fill="white" stroke="black" points="84,-112.5 84,-131.5 194,-131.5 194,-112.5 84,-112.5"/>
<text text-anchor="middle" x="139" y="-119.5" font-family="Helvetica,sans-Serif" font-size="10.00">odp/api/std_types.h</text>
</a>
</g>
</g>
<!-- Node0&#45;&gt;Node1 -->
<g id="edge1" class="edge"><title>Node0&#45;&gt;Node1</title>
<path fill="none" stroke="midnightblue" d="M139,-168.083C139,-161.006 139,-150.861 139,-141.986"/>
<polygon fill="midnightblue" stroke="midnightblue" points="142.5,-141.751 139,-131.751 135.5,-141.751 142.5,-141.751"/>
</g>
<!-- Node2 -->
<g id="node3" class="node"><title>Node2</title>
<polygon fill="white" stroke="#bfbfbf" points="0,-56.5 0,-75.5 128,-75.5 128,-56.5 0,-56.5"/>
<text text-anchor="middle" x="64" y="-63.5" font-family="Helvetica,sans-Serif" font-size="10.00">odp/api/abi/std_types.h</text>
</g>
<!-- Node1&#45;&gt;Node2 -->
<g id="edge2" class="edge"><title>Node1&#45;&gt;Node2</title>
<path fill="none" stroke="midnightblue" d="M126.95,-112.324C115.537,-104.107 98.169,-91.6017 84.5651,-81.8069"/>
<polygon fill="midnightblue" stroke="midnightblue" points="86.4297,-78.8366 76.2693,-75.8339 82.3396,-84.5174 86.4297,-78.8366"/>
</g>
<!-- Node3 -->
<g id="node4" class="node"><title>Node3</title>
<g id="a_node4"><a xlink:href="api_2spec_2std__types_8h.html" target="_top" xlink:title="Standard C language types and definitions for ODP. ">
<polygon fill="white" stroke="black" points="146,-56.5 146,-75.5 282,-75.5 282,-56.5 146,-56.5"/>
<text text-anchor="middle" x="214" y="-63.5" font-family="Helvetica,sans-Serif" font-size="10.00">odp/api/spec/std_types.h</text>
</a>
</g>
</g>
<!-- Node1&#45;&gt;Node3 -->
<g id="edge3" class="edge"><title>Node1&#45;&gt;Node3</title>
<path fill="none" stroke="midnightblue" d="M151.05,-112.324C162.463,-104.107 179.831,-91.6017 193.435,-81.8069"/>
<polygon fill="midnightblue" stroke="midnightblue" points="195.66,-84.5174 201.731,-75.8339 191.57,-78.8366 195.66,-84.5174"/>
</g>
<!-- Node4 -->
<g id="node5" class="node"><title>Node4</title>
<g id="a_node5"><a xlink:href="visibility__begin_8h_source.html" target="_top" xlink:title="odp/visibility_begin.h">
<polygon fill="white" stroke="black" points="54.5,-0.5 54.5,-19.5 169.5,-19.5 169.5,-0.5 54.5,-0.5"/>
<text text-anchor="middle" x="112" y="-7.5" font-family="Helvetica,sans-Serif" font-size="10.00">odp/visibility_begin.h</text>
</a>
</g>
</g>
<!-- Node3&#45;&gt;Node4 -->
<g id="edge4" class="edge"><title>Node3&#45;&gt;Node4</title>
<path fill="none" stroke="midnightblue" d="M197.612,-56.324C181.329,-47.7034 156.133,-34.3643 137.284,-24.3855"/>
<polygon fill="midnightblue" stroke="midnightblue" points="138.823,-21.2402 128.347,-19.6545 135.548,-27.4267 138.823,-21.2402"/>
</g>
<!-- Node5 -->
<g id="node6" class="node"><title>Node5</title>
<polygon fill="white" stroke="#bfbfbf" points="187.5,-0.5 187.5,-19.5 240.5,-19.5 240.5,-0.5 187.5,-0.5"/>
<text text-anchor="middle" x="214" y="-7.5" font-family="Helvetica,sans-Serif" font-size="10.00">stdint.h</text>
</g>
<!-- Node3&#45;&gt;Node5 -->
<g id="edge5" class="edge"><title>Node3&#45;&gt;Node5</title>
<path fill="none" stroke="midnightblue" d="M214,-56.083C214,-49.0059 214,-38.8611 214,-29.9865"/>
<polygon fill="midnightblue" stroke="midnightblue" points="217.5,-29.751 214,-19.7511 210.5,-29.7511 217.5,-29.751"/>
</g>
<!-- Node6 -->
<g id="node7" class="node"><title>Node6</title>
<g id="a_node7"><a xlink:href="visibility__end_8h_source.html" target="_top" xlink:title="odp/visibility_end.h">
<polygon fill="white" stroke="black" points="258.5,-0.5 258.5,-19.5 365.5,-19.5 365.5,-0.5 258.5,-0.5"/>
<text text-anchor="middle" x="312" y="-7.5" font-family="Helvetica,sans-Serif" font-size="10.00">odp/visibility_end.h</text>
</a>
</g>
</g>
<!-- Node3&#45;&gt;Node6 -->
<g id="edge6" class="edge"><title>Node3&#45;&gt;Node6</title>
<path fill="none" stroke="midnightblue" d="M229.745,-56.324C245.319,-47.7428 269.377,-34.486 287.459,-24.5224"/>
<polygon fill="midnightblue" stroke="midnightblue" points="289.224,-27.546 296.294,-19.6545 285.846,-21.4152 289.224,-27.546"/>
</g>
</g>
</svg>
