<?xml version="1.0" encoding="UTF-8" standalone="no"?>
<!DOCTYPE svg PUBLIC "-//W3C//DTD SVG 1.1//EN"
 "http://www.w3.org/Graphics/SVG/1.1/DTD/svg11.dtd">
<!-- Generated by graphviz version 2.38.0 (20140413.2041)
 -->
<!-- Title: schedule.h Pages: 1 -->
<svg width="592pt" height="252pt"
 viewBox="0.00 0.00 592.00 252.00" xmlns="http://www.w3.org/2000/svg" xmlns:xlink="http://www.w3.org/1999/xlink">
<g id="graph0" class="graph" transform="scale(1 1) rotate(0) translate(4 248)">
<title>schedule.h</title>
<polygon fill="white" stroke="none" points="-4,4 -4,-248 588,-248 588,4 -4,4"/>
<!-- Node7 -->
<g id="node1" class="node"><title>Node7</title>
<polygon fill="#bfbfbf" stroke="black" points="258,-224.5 258,-243.5 326,-243.5 326,-224.5 258,-224.5"/>
<text text-anchor="middle" x="292" y="-231.5" font-family="Helvetica,sans-Serif" font-size="10.00">schedule.h</text>
</g>
<!-- Node8 -->
<g id="node2" class="node"><title>Node8</title>
<g id="a_node2"><a xlink:href="arch_2arm32-linux_2odp_2api_2abi_2schedule_8h_source.html" target="_top" xlink:title="schedule.h">
<polygon fill="white" stroke="black" points="0,-168.5 0,-187.5 68,-187.5 68,-168.5 0,-168.5"/>
<text text-anchor="middle" x="34" y="-175.5" font-family="Helvetica,sans-Serif" font-size="10.00">schedule.h</text>
</a>
</g>
</g>
<!-- Node7&#45;&gt;Node8 -->
<g id="edge1" class="edge"><title>Node7&#45;&gt;Node8</title>
<path fill="none" stroke="midnightblue" d="M247.706,-223.729C196.89,-213.093 114.641,-195.878 68.4021,-186.2"/>
<polygon fill="midnightblue" stroke="midnightblue" points="247.235,-227.206 257.74,-225.829 248.669,-220.355 247.235,-227.206"/>
</g>
<!-- Node9 -->
<g id="node3" class="node"><title>Node9</title>
<g id="a_node3"><a xlink:href="arch_2arm64-linux_2odp_2api_2abi_2schedule_8h_source.html" target="_top" xlink:title="schedule.h">
<polygon fill="white" stroke="black" points="86,-168.5 86,-187.5 154,-187.5 154,-168.5 86,-168.5"/>
<text text-anchor="middle" x="120" y="-175.5" font-family="Helvetica,sans-Serif" font-size="10.00">schedule.h</text>
</a>
</g>
</g>
<!-- Node7&#45;&gt;Node9 -->
<g id="edge2" class="edge"><title>Node7&#45;&gt;Node9</title>
<path fill="none" stroke="midnightblue" d="M255.168,-221.436C222.738,-211.255 176.263,-196.664 147.126,-187.516"/>
<polygon fill="midnightblue" stroke="midnightblue" points="254.157,-224.787 264.746,-224.444 256.254,-218.109 254.157,-224.787"/>
</g>
<!-- Node10 -->
<g id="node4" class="node"><title>Node10</title>
<g id="a_node4"><a xlink:href="arch_2default-linux_2odp_2api_2abi_2schedule_8h_source.html" target="_top" xlink:title="schedule.h">
<polygon fill="white" stroke="black" points="172,-168.5 172,-187.5 240,-187.5 240,-168.5 172,-168.5"/>
<text text-anchor="middle" x="206" y="-175.5" font-family="Helvetica,sans-Serif" font-size="10.00">schedule.h</text>
</a>
</g>
</g>
<!-- Node7&#45;&gt;Node10 -->
<g id="edge3" class="edge"><title>Node7&#45;&gt;Node10</title>
<path fill="none" stroke="midnightblue" d="M269.545,-218.901C253.776,-208.999 233.186,-196.071 219.783,-187.655"/>
<polygon fill="midnightblue" stroke="midnightblue" points="267.852,-221.97 278.183,-224.324 271.575,-216.042 267.852,-221.97"/>
</g>
<!-- Node11 -->
<g id="node5" class="node"><title>Node11</title>
<g id="a_node5"><a xlink:href="arch_2mips64-linux_2odp_2api_2abi_2schedule_8h_source.html" target="_top" xlink:title="schedule.h">
<polygon fill="white" stroke="black" points="258,-168.5 258,-187.5 326,-187.5 326,-168.5 258,-168.5"/>
<text text-anchor="middle" x="292" y="-175.5" font-family="Helvetica,sans-Serif" font-size="10.00">schedule.h</text>
</a>
</g>
</g>
<!-- Node7&#45;&gt;Node11 -->
<g id="edge4" class="edge"><title>Node7&#45;&gt;Node11</title>
<path fill="none" stroke="midnightblue" d="M292,-213.805C292,-204.91 292,-194.78 292,-187.751"/>
<polygon fill="midnightblue" stroke="midnightblue" points="288.5,-214.083 292,-224.083 295.5,-214.083 288.5,-214.083"/>
</g>
<!-- Node12 -->
<g id="node6" class="node"><title>Node12</title>
<g id="a_node6"><a xlink:href="arch_2power64-linux_2odp_2api_2abi_2schedule_8h_source.html" target="_top" xlink:title="schedule.h">
<polygon fill="white" stroke="black" points="344,-168.5 344,-187.5 412,-187.5 412,-168.5 344,-168.5"/>
<text text-anchor="middle" x="378" y="-175.5" font-family="Helvetica,sans-Serif" font-size="10.00">schedule.h</text>
</a>
</g>
</g>
<!-- Node7&#45;&gt;Node12 -->
<g id="edge5" class="edge"><title>Node7&#45;&gt;Node12</title>
<path fill="none" stroke="midnightblue" d="M314.455,-218.901C330.224,-208.999 350.814,-196.071 364.217,-187.655"/>
<polygon fill="midnightblue" stroke="midnightblue" points="312.425,-216.042 305.817,-224.324 316.148,-221.97 312.425,-216.042"/>
</g>
<!-- Node13 -->
<g id="node7" class="node"><title>Node13</title>
<g id="a_node7"><a xlink:href="arch_2x86__32-linux_2odp_2api_2abi_2schedule_8h_source.html" target="_top" xlink:title="schedule.h">
<polygon fill="white" stroke="black" points="430,-168.5 430,-187.5 498,-187.5 498,-168.5 430,-168.5"/>
<text text-anchor="middle" x="464" y="-175.5" font-family="Helvetica,sans-Serif" font-size="10.00">schedule.h</text>
</a>
</g>
</g>
<!-- Node7&#45;&gt;Node13 -->
<g id="edge6" class="edge"><title>Node7&#45;&gt;Node13</title>
<path fill="none" stroke="midnightblue" d="M328.832,-221.436C361.262,-211.255 407.737,-196.664 436.874,-187.516"/>
<polygon fill="midnightblue" stroke="midnightblue" points="327.746,-218.109 319.254,-224.444 329.843,-224.787 327.746,-218.109"/>
</g>
<!-- Node14 -->
<g id="node8" class="node"><title>Node14</title>
<g id="a_node8"><a xlink:href="arch_2x86__64-linux_2odp_2api_2abi_2schedule_8h_source.html" target="_top" xlink:title="schedule.h">
<polygon fill="white" stroke="black" points="516,-168.5 516,-187.5 584,-187.5 584,-168.5 516,-168.5"/>
<text text-anchor="middle" x="550" y="-175.5" font-family="Helvetica,sans-Serif" font-size="10.00">schedule.h</text>
</a>
</g>
</g>
<!-- Node7&#45;&gt;Node14 -->
<g id="edge7" class="edge"><title>Node7&#45;&gt;Node14</title>
<path fill="none" stroke="midnightblue" d="M336.294,-223.729C387.11,-213.093 469.359,-195.878 515.598,-186.2"/>
<polygon fill="midnightblue" stroke="midnightblue" points="335.331,-220.355 326.26,-225.829 336.765,-227.206 335.331,-220.355"/>
</g>
<!-- Node15 -->
<g id="node9" class="node"><title>Node15</title>
<g id="a_node9"><a xlink:href="api_2schedule_8h.html" target="_top" xlink:title="ODP schedule. ">
<polygon fill="white" stroke="black" points="516,-112.5 516,-131.5 584,-131.5 584,-112.5 516,-112.5"/>
<text text-anchor="middle" x="550" y="-119.5" font-family="Helvetica,sans-Serif" font-size="10.00">schedule.h</text>
</a>
</g>
</g>
<!-- Node14&#45;&gt;Node15 -->
<g id="edge8" class="edge"><title>Node14&#45;&gt;Node15</title>
<path fill="none" stroke="midnightblue" d="M550,-157.805C550,-148.91 550,-138.78 550,-131.751"/>
<polygon fill="midnightblue" stroke="midnightblue" points="546.5,-158.083 550,-168.083 553.5,-158.083 546.5,-158.083"/>
</g>
<!-- Node16 -->
<g id="node10" class="node"><title>Node16</title>
<g id="a_node10"><a xlink:href="odp__api_8h.html" target="_top" xlink:title="The OpenDataPlane API. ">
<polygon fill="white" stroke="black" points="518.5,-56.5 518.5,-75.5 581.5,-75.5 581.5,-56.5 518.5,-56.5"/>
<text text-anchor="middle" x="550" y="-63.5" font-family="Helvetica,sans-Serif" font-size="10.00">odp_api.h</text>
</a>
</g>
</g>
<!-- Node15&#45;&gt;Node16 -->
<g id="edge9" class="edge"><title>Node15&#45;&gt;Node16</title>
<path fill="none" stroke="midnightblue" d="M550,-101.805C550,-92.9102 550,-82.7798 550,-75.7511"/>
<polygon fill="midnightblue" stroke="midnightblue" points="546.5,-102.083 550,-112.083 553.5,-102.083 546.5,-102.083"/>
</g>
<!-- Node17 -->
<g id="node11" class="node"><title>Node17</title>
<g id="a_node11"><a xlink:href="odp_8h.html" target="_top" xlink:title="WARNING: THIS FILE IS DEPRECATED AND WILL BE REMOVED!!! ODP APPLICATIONS SHOULD NOW INCLUDE odp_api...">
<polygon fill="white" stroke="black" points="528,-0.5 528,-19.5 572,-19.5 572,-0.5 528,-0.5"/>
<text text-anchor="middle" x="550" y="-7.5" font-family="Helvetica,sans-Serif" font-size="10.00">odp.h</text>
</a>
</g>
</g>
<!-- Node16&#45;&gt;Node17 -->
<g id="edge10" class="edge"><title>Node16&#45;&gt;Node17</title>
<path fill="none" stroke="midnightblue" d="M550,-45.8045C550,-36.9102 550,-26.7798 550,-19.7511"/>
<polygon fill="midnightblue" stroke="midnightblue" points="546.5,-46.083 550,-56.083 553.5,-46.083 546.5,-46.083"/>
</g>
</g>
</svg>
