<?xml version="1.0" encoding="UTF-8" standalone="no"?>
<!DOCTYPE svg PUBLIC "-//W3C//DTD SVG 1.1//EN"
 "http://www.w3.org/Graphics/SVG/1.1/DTD/svg11.dtd">
<!-- Generated by graphviz version 2.38.0 (20140413.2041)
 -->
<!-- Title: sync.h Pages: 1 -->
<svg width="453pt" height="252pt"
 viewBox="0.00 0.00 453.00 252.00" xmlns="http://www.w3.org/2000/svg" xmlns:xlink="http://www.w3.org/1999/xlink">
<g id="graph0" class="graph" transform="scale(1 1) rotate(0) translate(4 248)">
<title>sync.h</title>
<polygon fill="white" stroke="none" points="-4,4 -4,-248 449,-248 449,4 -4,4"/>
<!-- Node1 -->
<g id="node1" class="node"><title>Node1</title>
<polygon fill="#bfbfbf" stroke="black" points="195,-224.5 195,-243.5 242,-243.5 242,-224.5 195,-224.5"/>
<text text-anchor="middle" x="218.5" y="-231.5" font-family="Helvetica,sans-Serif" font-size="10.00">sync.h</text>
</g>
<!-- Node2 -->
<g id="node2" class="node"><title>Node2</title>
<g id="a_node2"><a xlink:href="arch_2arm32-linux_2odp_2api_2abi_2sync_8h_source.html" target="_top" xlink:title="sync.h">
<polygon fill="white" stroke="black" points="0,-168.5 0,-187.5 47,-187.5 47,-168.5 0,-168.5"/>
<text text-anchor="middle" x="23.5" y="-175.5" font-family="Helvetica,sans-Serif" font-size="10.00">sync.h</text>
</a>
</g>
</g>
<!-- Node1&#45;&gt;Node2 -->
<g id="edge1" class="edge"><title>Node1&#45;&gt;Node2</title>
<path fill="none" stroke="midnightblue" d="M185.33,-223.815C146.056,-212.939 81.6318,-195.098 47.105,-185.537"/>
<polygon fill="midnightblue" stroke="midnightblue" points="184.407,-227.191 194.978,-226.486 186.275,-220.444 184.407,-227.191"/>
</g>
<!-- Node3 -->
<g id="node3" class="node"><title>Node3</title>
<g id="a_node3"><a xlink:href="arch_2arm64-linux_2odp_2api_2abi_2sync_8h_source.html" target="_top" xlink:title="sync.h">
<polygon fill="white" stroke="black" points="65,-168.5 65,-187.5 112,-187.5 112,-168.5 65,-168.5"/>
<text text-anchor="middle" x="88.5" y="-175.5" font-family="Helvetica,sans-Serif" font-size="10.00">sync.h</text>
</a>
</g>
</g>
<!-- Node1&#45;&gt;Node3 -->
<g id="edge2" class="edge"><title>Node1&#45;&gt;Node3</title>
<path fill="none" stroke="midnightblue" d="M188.415,-220.503C164.043,-210.38 130.36,-196.388 109.003,-187.516"/>
<polygon fill="midnightblue" stroke="midnightblue" points="187.323,-223.84 197.901,-224.444 190.009,-217.375 187.323,-223.84"/>
</g>
<!-- Node4 -->
<g id="node4" class="node"><title>Node4</title>
<g id="a_node4"><a xlink:href="arch_2default-linux_2odp_2api_2abi_2sync_8h_source.html" target="_top" xlink:title="sync.h">
<polygon fill="white" stroke="black" points="130,-168.5 130,-187.5 177,-187.5 177,-168.5 130,-168.5"/>
<text text-anchor="middle" x="153.5" y="-175.5" font-family="Helvetica,sans-Serif" font-size="10.00">sync.h</text>
</a>
</g>
</g>
<!-- Node1&#45;&gt;Node4 -->
<g id="edge3" class="edge"><title>Node1&#45;&gt;Node4</title>
<path fill="none" stroke="midnightblue" d="M200.227,-217.82C188.582,-208.145 173.901,-195.948 164.133,-187.834"/>
<polygon fill="midnightblue" stroke="midnightblue" points="198.128,-220.626 208.057,-224.324 202.601,-215.242 198.128,-220.626"/>
</g>
<!-- Node5 -->
<g id="node5" class="node"><title>Node5</title>
<g id="a_node5"><a xlink:href="arch_2mips64-linux_2odp_2api_2abi_2sync_8h_source.html" target="_top" xlink:title="sync.h">
<polygon fill="white" stroke="black" points="195,-168.5 195,-187.5 242,-187.5 242,-168.5 195,-168.5"/>
<text text-anchor="middle" x="218.5" y="-175.5" font-family="Helvetica,sans-Serif" font-size="10.00">sync.h</text>
</a>
</g>
</g>
<!-- Node1&#45;&gt;Node5 -->
<g id="edge4" class="edge"><title>Node1&#45;&gt;Node5</title>
<path fill="none" stroke="midnightblue" d="M218.5,-213.805C218.5,-204.91 218.5,-194.78 218.5,-187.751"/>
<polygon fill="midnightblue" stroke="midnightblue" points="215,-214.083 218.5,-224.083 222,-214.083 215,-214.083"/>
</g>
<!-- Node6 -->
<g id="node6" class="node"><title>Node6</title>
<g id="a_node6"><a xlink:href="arch_2power64-linux_2odp_2api_2abi_2sync_8h_source.html" target="_top" xlink:title="sync.h">
<polygon fill="white" stroke="black" points="260,-168.5 260,-187.5 307,-187.5 307,-168.5 260,-168.5"/>
<text text-anchor="middle" x="283.5" y="-175.5" font-family="Helvetica,sans-Serif" font-size="10.00">sync.h</text>
</a>
</g>
</g>
<!-- Node1&#45;&gt;Node6 -->
<g id="edge5" class="edge"><title>Node1&#45;&gt;Node6</title>
<path fill="none" stroke="midnightblue" d="M236.773,-217.82C248.418,-208.145 263.099,-195.948 272.867,-187.834"/>
<polygon fill="midnightblue" stroke="midnightblue" points="234.399,-215.242 228.943,-224.324 238.872,-220.626 234.399,-215.242"/>
</g>
<!-- Node7 -->
<g id="node7" class="node"><title>Node7</title>
<g id="a_node7"><a xlink:href="arch_2x86__32-linux_2odp_2api_2abi_2sync_8h_source.html" target="_top" xlink:title="sync.h">
<polygon fill="white" stroke="black" points="325,-168.5 325,-187.5 372,-187.5 372,-168.5 325,-168.5"/>
<text text-anchor="middle" x="348.5" y="-175.5" font-family="Helvetica,sans-Serif" font-size="10.00">sync.h</text>
</a>
</g>
</g>
<!-- Node1&#45;&gt;Node7 -->
<g id="edge6" class="edge"><title>Node1&#45;&gt;Node7</title>
<path fill="none" stroke="midnightblue" d="M248.585,-220.503C272.957,-210.38 306.64,-196.388 327.997,-187.516"/>
<polygon fill="midnightblue" stroke="midnightblue" points="246.991,-217.375 239.099,-224.444 249.677,-223.84 246.991,-217.375"/>
</g>
<!-- Node8 -->
<g id="node8" class="node"><title>Node8</title>
<g id="a_node8"><a xlink:href="arch_2x86__64-linux_2odp_2api_2abi_2sync_8h_source.html" target="_top" xlink:title="sync.h">
<polygon fill="white" stroke="black" points="390,-168.5 390,-187.5 437,-187.5 437,-168.5 390,-168.5"/>
<text text-anchor="middle" x="413.5" y="-175.5" font-family="Helvetica,sans-Serif" font-size="10.00">sync.h</text>
</a>
</g>
</g>
<!-- Node1&#45;&gt;Node8 -->
<g id="edge7" class="edge"><title>Node1&#45;&gt;Node8</title>
<path fill="none" stroke="midnightblue" d="M252.285,-223.724C285.259,-214.658 336.843,-200.444 381.5,-188 384.168,-187.256 386.961,-186.475 389.738,-185.697"/>
<polygon fill="midnightblue" stroke="midnightblue" points="250.98,-220.453 242.265,-226.478 252.835,-227.202 250.98,-220.453"/>
</g>
<!-- Node9 -->
<g id="node9" class="node"><title>Node9</title>
<g id="a_node9"><a xlink:href="api_2sync_8h.html" target="_top" xlink:title="ODP synchronisation. ">
<polygon fill="white" stroke="black" points="390,-112.5 390,-131.5 437,-131.5 437,-112.5 390,-112.5"/>
<text text-anchor="middle" x="413.5" y="-119.5" font-family="Helvetica,sans-Serif" font-size="10.00">sync.h</text>
</a>
</g>
</g>
<!-- Node8&#45;&gt;Node9 -->
<g id="edge8" class="edge"><title>Node8&#45;&gt;Node9</title>
<path fill="none" stroke="midnightblue" d="M413.5,-157.805C413.5,-148.91 413.5,-138.78 413.5,-131.751"/>
<polygon fill="midnightblue" stroke="midnightblue" points="410,-158.083 413.5,-168.083 417,-158.083 410,-158.083"/>
</g>
<!-- Node10 -->
<g id="node10" class="node"><title>Node10</title>
<g id="a_node10"><a xlink:href="odp__api_8h.html" target="_top" xlink:title="The OpenDataPlane API. ">
<polygon fill="white" stroke="black" points="382,-56.5 382,-75.5 445,-75.5 445,-56.5 382,-56.5"/>
<text text-anchor="middle" x="413.5" y="-63.5" font-family="Helvetica,sans-Serif" font-size="10.00">odp_api.h</text>
</a>
</g>
</g>
<!-- Node9&#45;&gt;Node10 -->
<g id="edge9" class="edge"><title>Node9&#45;&gt;Node10</title>
<path fill="none" stroke="midnightblue" d="M413.5,-101.805C413.5,-92.9102 413.5,-82.7798 413.5,-75.7511"/>
<polygon fill="midnightblue" stroke="midnightblue" points="410,-102.083 413.5,-112.083 417,-102.083 410,-102.083"/>
</g>
<!-- Node11 -->
<g id="node11" class="node"><title>Node11</title>
<g id="a_node11"><a xlink:href="odp_8h.html" target="_top" xlink:title="WARNING: THIS FILE IS DEPRECATED AND WILL BE REMOVED!!! ODP APPLICATIONS SHOULD NOW INCLUDE odp_api...">
<polygon fill="white" stroke="black" points="391.5,-0.5 391.5,-19.5 435.5,-19.5 435.5,-0.5 391.5,-0.5"/>
<text text-anchor="middle" x="413.5" y="-7.5" font-family="Helvetica,sans-Serif" font-size="10.00">odp.h</text>
</a>
</g>
</g>
<!-- Node10&#45;&gt;Node11 -->
<g id="edge10" class="edge"><title>Node10&#45;&gt;Node11</title>
<path fill="none" stroke="midnightblue" d="M413.5,-45.8045C413.5,-36.9102 413.5,-26.7798 413.5,-19.7511"/>
<polygon fill="midnightblue" stroke="midnightblue" points="410,-46.083 413.5,-56.083 417,-46.083 410,-46.083"/>
</g>
</g>
</svg>
