<?xml version="1.0" encoding="UTF-8" standalone="no"?>
<!DOCTYPE svg PUBLIC "-//W3C//DTD SVG 1.1//EN"
 "http://www.w3.org/Graphics/SVG/1.1/DTD/svg11.dtd">
<!-- Generated by graphviz version 2.38.0 (20140413.2041)
 -->
<!-- Title: thrmask.h Pages: 1 -->
<svg width="571pt" height="364pt"
 viewBox="0.00 0.00 571.00 364.00" xmlns="http://www.w3.org/2000/svg" xmlns:xlink="http://www.w3.org/1999/xlink">
<g id="graph0" class="graph" transform="scale(1 1) rotate(0) translate(4 360)">
<title>thrmask.h</title>
<polygon fill="white" stroke="none" points="-4,4 -4,-360 567,-360 567,4 -4,4"/>
<!-- Node6 -->
<g id="node1" class="node"><title>Node6</title>
<polygon fill="#bfbfbf" stroke="black" points="249,-336.5 249,-355.5 314,-355.5 314,-336.5 249,-336.5"/>
<text text-anchor="middle" x="281.5" y="-343.5" font-family="Helvetica,sans-Serif" font-size="10.00">thrmask.h</text>
</g>
<!-- Node7 -->
<g id="node2" class="node"><title>Node7</title>
<g id="a_node2"><a xlink:href="arch_2arm32-linux_2odp_2api_2abi_2thrmask_8h_source.html" target="_top" xlink:title="thrmask.h">
<polygon fill="white" stroke="black" points="0,-280.5 0,-299.5 65,-299.5 65,-280.5 0,-280.5"/>
<text text-anchor="middle" x="32.5" y="-287.5" font-family="Helvetica,sans-Serif" font-size="10.00">thrmask.h</text>
</a>
</g>
</g>
<!-- Node6&#45;&gt;Node7 -->
<g id="edge1" class="edge"><title>Node6&#45;&gt;Node7</title>
<path fill="none" stroke="midnightblue" d="M238.926,-335.767C189.66,-325.083 109.616,-307.724 65.0604,-298.061"/>
<polygon fill="midnightblue" stroke="midnightblue" points="238.433,-339.241 248.948,-337.94 239.917,-332.4 238.433,-339.241"/>
</g>
<!-- Node8 -->
<g id="node3" class="node"><title>Node8</title>
<g id="a_node3"><a xlink:href="arch_2arm64-linux_2odp_2api_2abi_2thrmask_8h_source.html" target="_top" xlink:title="thrmask.h">
<polygon fill="white" stroke="black" points="83,-280.5 83,-299.5 148,-299.5 148,-280.5 83,-280.5"/>
<text text-anchor="middle" x="115.5" y="-287.5" font-family="Helvetica,sans-Serif" font-size="10.00">thrmask.h</text>
</a>
</g>
</g>
<!-- Node6&#45;&gt;Node8 -->
<g id="edge2" class="edge"><title>Node6&#45;&gt;Node8</title>
<path fill="none" stroke="midnightblue" d="M245.547,-333.304C214.268,-323.129 169.679,-308.625 141.68,-299.516"/>
<polygon fill="midnightblue" stroke="midnightblue" points="244.605,-336.678 255.197,-336.444 246.77,-330.022 244.605,-336.678"/>
</g>
<!-- Node9 -->
<g id="node4" class="node"><title>Node9</title>
<g id="a_node4"><a xlink:href="arch_2default-linux_2odp_2api_2abi_2thrmask_8h_source.html" target="_top" xlink:title="thrmask.h">
<polygon fill="white" stroke="black" points="166,-280.5 166,-299.5 231,-299.5 231,-280.5 166,-280.5"/>
<text text-anchor="middle" x="198.5" y="-287.5" font-family="Helvetica,sans-Serif" font-size="10.00">thrmask.h</text>
</a>
</g>
</g>
<!-- Node6&#45;&gt;Node9 -->
<g id="edge3" class="edge"><title>Node6&#45;&gt;Node9</title>
<path fill="none" stroke="midnightblue" d="M259.401,-330.622C244.238,-320.757 224.617,-307.992 211.802,-299.655"/>
<polygon fill="midnightblue" stroke="midnightblue" points="257.874,-333.804 268.165,-336.324 261.691,-327.937 257.874,-333.804"/>
</g>
<!-- Node10 -->
<g id="node5" class="node"><title>Node10</title>
<g id="a_node5"><a xlink:href="arch_2mips64-linux_2odp_2api_2abi_2thrmask_8h_source.html" target="_top" xlink:title="thrmask.h">
<polygon fill="white" stroke="black" points="249,-280.5 249,-299.5 314,-299.5 314,-280.5 249,-280.5"/>
<text text-anchor="middle" x="281.5" y="-287.5" font-family="Helvetica,sans-Serif" font-size="10.00">thrmask.h</text>
</a>
</g>
</g>
<!-- Node6&#45;&gt;Node10 -->
<g id="edge4" class="edge"><title>Node6&#45;&gt;Node10</title>
<path fill="none" stroke="midnightblue" d="M281.5,-325.805C281.5,-316.91 281.5,-306.78 281.5,-299.751"/>
<polygon fill="midnightblue" stroke="midnightblue" points="278,-326.083 281.5,-336.083 285,-326.083 278,-326.083"/>
</g>
<!-- Node11 -->
<g id="node6" class="node"><title>Node11</title>
<g id="a_node6"><a xlink:href="arch_2power64-linux_2odp_2api_2abi_2thrmask_8h_source.html" target="_top" xlink:title="thrmask.h">
<polygon fill="white" stroke="black" points="332,-280.5 332,-299.5 397,-299.5 397,-280.5 332,-280.5"/>
<text text-anchor="middle" x="364.5" y="-287.5" font-family="Helvetica,sans-Serif" font-size="10.00">thrmask.h</text>
</a>
</g>
</g>
<!-- Node6&#45;&gt;Node11 -->
<g id="edge5" class="edge"><title>Node6&#45;&gt;Node11</title>
<path fill="none" stroke="midnightblue" d="M303.599,-330.622C318.762,-320.757 338.383,-307.992 351.198,-299.655"/>
<polygon fill="midnightblue" stroke="midnightblue" points="301.309,-327.937 294.835,-336.324 305.126,-333.804 301.309,-327.937"/>
</g>
<!-- Node12 -->
<g id="node7" class="node"><title>Node12</title>
<g id="a_node7"><a xlink:href="arch_2x86__32-linux_2odp_2api_2abi_2thrmask_8h_source.html" target="_top" xlink:title="thrmask.h">
<polygon fill="white" stroke="black" points="415,-280.5 415,-299.5 480,-299.5 480,-280.5 415,-280.5"/>
<text text-anchor="middle" x="447.5" y="-287.5" font-family="Helvetica,sans-Serif" font-size="10.00">thrmask.h</text>
</a>
</g>
</g>
<!-- Node6&#45;&gt;Node12 -->
<g id="edge6" class="edge"><title>Node6&#45;&gt;Node12</title>
<path fill="none" stroke="midnightblue" d="M317.453,-333.304C348.732,-323.129 393.321,-308.625 421.32,-299.516"/>
<polygon fill="midnightblue" stroke="midnightblue" points="316.23,-330.022 307.803,-336.444 318.395,-336.678 316.23,-330.022"/>
</g>
<!-- Node13 -->
<g id="node8" class="node"><title>Node13</title>
<g id="a_node8"><a xlink:href="arch_2x86__64-linux_2odp_2api_2abi_2thrmask_8h_source.html" target="_top" xlink:title="thrmask.h">
<polygon fill="white" stroke="black" points="498,-280.5 498,-299.5 563,-299.5 563,-280.5 498,-280.5"/>
<text text-anchor="middle" x="530.5" y="-287.5" font-family="Helvetica,sans-Serif" font-size="10.00">thrmask.h</text>
</a>
</g>
</g>
<!-- Node6&#45;&gt;Node13 -->
<g id="edge7" class="edge"><title>Node6&#45;&gt;Node13</title>
<path fill="none" stroke="midnightblue" d="M324.183,-335.805C366.236,-326.737 432.306,-312.464 489.5,-300 492.206,-299.41 495.012,-298.797 497.828,-298.181"/>
<polygon fill="midnightblue" stroke="midnightblue" points="323.327,-332.409 314.29,-337.938 324.803,-339.252 323.327,-332.409"/>
</g>
<!-- Node14 -->
<g id="node9" class="node"><title>Node14</title>
<g id="a_node9"><a xlink:href="api_2thrmask_8h.html" target="_top" xlink:title="ODP thread masks. ">
<polygon fill="white" stroke="black" points="498,-224.5 498,-243.5 563,-243.5 563,-224.5 498,-224.5"/>
<text text-anchor="middle" x="530.5" y="-231.5" font-family="Helvetica,sans-Serif" font-size="10.00">thrmask.h</text>
</a>
</g>
</g>
<!-- Node13&#45;&gt;Node14 -->
<g id="edge8" class="edge"><title>Node13&#45;&gt;Node14</title>
<path fill="none" stroke="midnightblue" d="M530.5,-269.805C530.5,-260.91 530.5,-250.78 530.5,-243.751"/>
<polygon fill="midnightblue" stroke="midnightblue" points="527,-270.083 530.5,-280.083 534,-270.083 527,-270.083"/>
</g>
<!-- Node15 -->
<g id="node10" class="node"><title>Node15</title>
<g id="a_node10"><a xlink:href="api_2spec_2schedule_8h.html" target="_top" xlink:title="ODP schedule. ">
<polygon fill="white" stroke="black" points="465.5,-168.5 465.5,-187.5 533.5,-187.5 533.5,-168.5 465.5,-168.5"/>
<text text-anchor="middle" x="499.5" y="-175.5" font-family="Helvetica,sans-Serif" font-size="10.00">schedule.h</text>
</a>
</g>
</g>
<!-- Node14&#45;&gt;Node15 -->
<g id="edge9" class="edge"><title>Node14&#45;&gt;Node15</title>
<path fill="none" stroke="midnightblue" d="M520.324,-215.275C515.026,-206.045 508.783,-195.17 504.524,-187.751"/>
<polygon fill="midnightblue" stroke="midnightblue" points="517.367,-217.153 525.381,-224.083 523.438,-213.668 517.367,-217.153"/>
</g>
<!-- Node17 -->
<g id="node12" class="node"><title>Node17</title>
<g id="a_node12"><a xlink:href="odp__api_8h.html" target="_top" xlink:title="The OpenDataPlane API. ">
<polygon fill="white" stroke="black" points="499,-56.5 499,-75.5 562,-75.5 562,-56.5 499,-56.5"/>
<text text-anchor="middle" x="530.5" y="-63.5" font-family="Helvetica,sans-Serif" font-size="10.00">odp_api.h</text>
</a>
</g>
</g>
<!-- Node14&#45;&gt;Node17 -->
<g id="edge13" class="edge"><title>Node14&#45;&gt;Node17</title>
<path fill="none" stroke="midnightblue" d="M536.63,-214.39C538.966,-206.367 541.344,-196.819 542.5,-188 546.889,-154.509 546.889,-145.491 542.5,-112 540.819,-99.1729 536.552,-84.8015 533.588,-75.8268"/>
<polygon fill="midnightblue" stroke="midnightblue" points="533.215,-213.585 533.588,-224.173 539.899,-215.663 533.215,-213.585"/>
</g>
<!-- Node16 -->
<g id="node11" class="node"><title>Node16</title>
<g id="a_node11"><a xlink:href="api_2schedule_8h.html" target="_top" xlink:title="ODP schedule. ">
<polygon fill="white" stroke="black" points="465.5,-112.5 465.5,-131.5 533.5,-131.5 533.5,-112.5 465.5,-112.5"/>
<text text-anchor="middle" x="499.5" y="-119.5" font-family="Helvetica,sans-Serif" font-size="10.00">schedule.h</text>
</a>
</g>
</g>
<!-- Node15&#45;&gt;Node16 -->
<g id="edge10" class="edge"><title>Node15&#45;&gt;Node16</title>
<path fill="none" stroke="midnightblue" d="M499.5,-157.805C499.5,-148.91 499.5,-138.78 499.5,-131.751"/>
<polygon fill="midnightblue" stroke="midnightblue" points="496,-158.083 499.5,-168.083 503,-158.083 496,-158.083"/>
</g>
<!-- Node16&#45;&gt;Node17 -->
<g id="edge11" class="edge"><title>Node16&#45;&gt;Node17</title>
<path fill="none" stroke="midnightblue" d="M509.676,-103.275C514.974,-94.0454 521.217,-83.1703 525.476,-75.7511"/>
<polygon fill="midnightblue" stroke="midnightblue" points="506.562,-101.668 504.619,-112.083 512.633,-105.153 506.562,-101.668"/>
</g>
<!-- Node18 -->
<g id="node13" class="node"><title>Node18</title>
<g id="a_node13"><a xlink:href="odp_8h.html" target="_top" xlink:title="WARNING: THIS FILE IS DEPRECATED AND WILL BE REMOVED!!! ODP APPLICATIONS SHOULD NOW INCLUDE odp_api...">
<polygon fill="white" stroke="black" points="508.5,-0.5 508.5,-19.5 552.5,-19.5 552.5,-0.5 508.5,-0.5"/>
<text text-anchor="middle" x="530.5" y="-7.5" font-family="Helvetica,sans-Serif" font-size="10.00">odp.h</text>
</a>
</g>
</g>
<!-- Node17&#45;&gt;Node18 -->
<g id="edge12" class="edge"><title>Node17&#45;&gt;Node18</title>
<path fill="none" stroke="midnightblue" d="M530.5,-45.8045C530.5,-36.9102 530.5,-26.7798 530.5,-19.7511"/>
<polygon fill="midnightblue" stroke="midnightblue" points="527,-46.083 530.5,-56.083 534,-46.083 527,-46.083"/>
</g>
</g>
</svg>
