<?xml version="1.0" encoding="UTF-8" standalone="no"?>
<!DOCTYPE svg PUBLIC "-//W3C//DTD SVG 1.1//EN"
 "http://www.w3.org/Graphics/SVG/1.1/DTD/svg11.dtd">
<!-- Generated by graphviz version 2.38.0 (20140413.2041)
 -->
<!-- Title: rwlock_recursive.h Pages: 1 -->
<svg width="956pt" height="207pt"
 viewBox="0.00 0.00 956.00 207.00" xmlns="http://www.w3.org/2000/svg" xmlns:xlink="http://www.w3.org/1999/xlink">
<g id="graph0" class="graph" transform="scale(1 1) rotate(0) translate(4 203)">
<title>rwlock_recursive.h</title>
<polygon fill="white" stroke="none" points="-4,4 -4,-203 952,-203 952,4 -4,4"/>
<!-- Node0 -->
<g id="node1" class="node"><title>Node0</title>
<polygon fill="#bfbfbf" stroke="black" points="474,-179.5 474,-198.5 578,-198.5 578,-179.5 474,-179.5"/>
<text text-anchor="middle" x="526" y="-186.5" font-family="Helvetica,sans-Serif" font-size="10.00">rwlock_recursive.h</text>
</g>
<!-- Node1 -->
<g id="node2" class="node"><title>Node1</title>
<g id="a_node2"><a xlink:href="api_2rwlock_8h.html" target="_top" xlink:title="ODP RW Locks. ">
<polygon fill="white" stroke="black" points="479.5,-123.5 479.5,-142.5 572.5,-142.5 572.5,-123.5 479.5,-123.5"/>
<text text-anchor="middle" x="526" y="-130.5" font-family="Helvetica,sans-Serif" font-size="10.00">odp/api/rwlock.h</text>
</a>
</g>
</g>
<!-- Node0&#45;&gt;Node1 -->
<g id="edge1" class="edge"><title>Node0&#45;&gt;Node1</title>
<path fill="none" stroke="midnightblue" d="M526,-179.083C526,-172.006 526,-161.861 526,-152.986"/>
<polygon fill="midnightblue" stroke="midnightblue" points="529.5,-152.751 526,-142.751 522.5,-152.751 529.5,-152.751"/>
</g>
<!-- Node6 -->
<g id="node7" class="node"><title>Node6</title>
<g id="a_node7"><a xlink:href="api_2std__types_8h.html" target="_top" xlink:title="Standard C language types and definitions for ODP. ">
<polygon fill="white" stroke="black" points="675,-123.5 675,-142.5 785,-142.5 785,-123.5 675,-123.5"/>
<text text-anchor="middle" x="730" y="-130.5" font-family="Helvetica,sans-Serif" font-size="10.00">odp/api/std_types.h</text>
</a>
</g>
</g>
<!-- Node0&#45;&gt;Node6 -->
<g id="edge6" class="edge"><title>Node0&#45;&gt;Node6</title>
<path fill="none" stroke="midnightblue" d="M558.324,-179.444C593.389,-170.162 649.498,-155.309 687.965,-145.127"/>
<polygon fill="midnightblue" stroke="midnightblue" points="689.055,-148.459 697.827,-142.516 687.264,-141.692 689.055,-148.459"/>
</g>
<!-- Node10 -->
<g id="node11" class="node"><title>Node10</title>
<g id="a_node11"><a xlink:href="api_2thread_8h.html" target="_top" xlink:title="ODP thread API. ">
<polygon fill="white" stroke="black" points="207.5,-123.5 207.5,-142.5 302.5,-142.5 302.5,-123.5 207.5,-123.5"/>
<text text-anchor="middle" x="255" y="-130.5" font-family="Helvetica,sans-Serif" font-size="10.00">odp/api/thread.h</text>
</a>
</g>
</g>
<!-- Node0&#45;&gt;Node10 -->
<g id="edge12" class="edge"><title>Node0&#45;&gt;Node10</title>
<path fill="none" stroke="midnightblue" d="M483.059,-179.444C435.487,-169.964 358.756,-154.675 307.611,-144.483"/>
<polygon fill="midnightblue" stroke="midnightblue" points="308.231,-141.038 297.74,-142.516 306.863,-147.903 308.231,-141.038"/>
</g>
<!-- Node2 -->
<g id="node3" class="node"><title>Node2</title>
<polygon fill="white" stroke="#bfbfbf" points="538,-62 538,-81 648,-81 648,-62 538,-62"/>
<text text-anchor="middle" x="593" y="-69" font-family="Helvetica,sans-Serif" font-size="10.00">odp/api/abi/rwlock.h</text>
</g>
<!-- Node1&#45;&gt;Node2 -->
<g id="edge2" class="edge"><title>Node1&#45;&gt;Node2</title>
<path fill="none" stroke="midnightblue" d="M535.599,-123.475C546.048,-114.197 562.968,-99.1706 575.736,-87.831"/>
<polygon fill="midnightblue" stroke="midnightblue" points="578.265,-90.2663 583.418,-81.0091 573.617,-85.0323 578.265,-90.2663"/>
</g>
<!-- Node3 -->
<g id="node4" class="node"><title>Node3</title>
<g id="a_node4"><a xlink:href="api_2spec_2rwlock_8h.html" target="_top" xlink:title="ODP RW Locks. ">
<polygon fill="white" stroke="black" points="400.5,-62 400.5,-81 519.5,-81 519.5,-62 400.5,-62"/>
<text text-anchor="middle" x="460" y="-69" font-family="Helvetica,sans-Serif" font-size="10.00">odp/api/spec/rwlock.h</text>
</a>
</g>
</g>
<!-- Node1&#45;&gt;Node3 -->
<g id="edge3" class="edge"><title>Node1&#45;&gt;Node3</title>
<path fill="none" stroke="midnightblue" d="M516.544,-123.475C506.252,-114.197 489.584,-99.1706 477.006,-87.831"/>
<polygon fill="midnightblue" stroke="midnightblue" points="479.21,-85.1054 469.439,-81.0091 474.522,-90.3046 479.21,-85.1054"/>
</g>
<!-- Node4 -->
<g id="node5" class="node"><title>Node4</title>
<g id="a_node5"><a xlink:href="visibility__begin_8h_source.html" target="_top" xlink:title="odp/visibility_begin.h">
<polygon fill="white" stroke="black" points="337.5,-0.5 337.5,-19.5 452.5,-19.5 452.5,-0.5 337.5,-0.5"/>
<text text-anchor="middle" x="395" y="-7.5" font-family="Helvetica,sans-Serif" font-size="10.00">odp/visibility_begin.h</text>
</a>
</g>
</g>
<!-- Node3&#45;&gt;Node4 -->
<g id="edge4" class="edge"><title>Node3&#45;&gt;Node4</title>
<path fill="none" stroke="midnightblue" d="M450.687,-61.9751C440.551,-52.6966 424.136,-37.6706 411.748,-26.331"/>
<polygon fill="midnightblue" stroke="midnightblue" points="414.035,-23.6795 404.296,-19.5091 409.309,-28.8429 414.035,-23.6795"/>
</g>
<!-- Node5 -->
<g id="node6" class="node"><title>Node5</title>
<g id="a_node6"><a xlink:href="visibility__end_8h_source.html" target="_top" xlink:title="odp/visibility_end.h">
<polygon fill="white" stroke="black" points="470.5,-0.5 470.5,-19.5 577.5,-19.5 577.5,-0.5 470.5,-0.5"/>
<text text-anchor="middle" x="524" y="-7.5" font-family="Helvetica,sans-Serif" font-size="10.00">odp/visibility_end.h</text>
</a>
</g>
</g>
<!-- Node3&#45;&gt;Node5 -->
<g id="edge5" class="edge"><title>Node3&#45;&gt;Node5</title>
<path fill="none" stroke="midnightblue" d="M469.17,-61.9751C479.15,-52.6966 495.312,-37.6706 507.509,-26.331"/>
<polygon fill="midnightblue" stroke="midnightblue" points="509.907,-28.8814 514.847,-19.5091 505.14,-23.7547 509.907,-28.8814"/>
</g>
<!-- Node7 -->
<g id="node8" class="node"><title>Node7</title>
<polygon fill="white" stroke="#bfbfbf" points="666,-62 666,-81 794,-81 794,-62 666,-62"/>
<text text-anchor="middle" x="730" y="-69" font-family="Helvetica,sans-Serif" font-size="10.00">odp/api/abi/std_types.h</text>
</g>
<!-- Node6&#45;&gt;Node7 -->
<g id="edge7" class="edge"><title>Node6&#45;&gt;Node7</title>
<path fill="none" stroke="midnightblue" d="M730,-123.475C730,-115.08 730,-101.981 730,-91.1631"/>
<polygon fill="midnightblue" stroke="midnightblue" points="733.5,-91.0091 730,-81.0091 726.5,-91.0091 733.5,-91.0091"/>
</g>
<!-- Node8 -->
<g id="node9" class="node"><title>Node8</title>
<g id="a_node9"><a xlink:href="api_2spec_2std__types_8h.html" target="_top" xlink:title="Standard C language types and definitions for ODP. ">
<polygon fill="white" stroke="black" points="812,-62 812,-81 948,-81 948,-62 812,-62"/>
<text text-anchor="middle" x="880" y="-69" font-family="Helvetica,sans-Serif" font-size="10.00">odp/api/spec/std_types.h</text>
</a>
</g>
</g>
<!-- Node6&#45;&gt;Node8 -->
<g id="edge8" class="edge"><title>Node6&#45;&gt;Node8</title>
<path fill="none" stroke="midnightblue" d="M751.491,-123.475C777.11,-113.313 820.11,-96.2564 849.245,-84.6996"/>
<polygon fill="midnightblue" stroke="midnightblue" points="850.544,-87.9497 858.549,-81.0091 847.963,-81.4429 850.544,-87.9497"/>
</g>
<!-- Node8&#45;&gt;Node4 -->
<g id="edge9" class="edge"><title>Node8&#45;&gt;Node4</title>
<path fill="none" stroke="midnightblue" d="M838.143,-61.9781C826.772,-59.8382 814.44,-57.6765 803,-56 655.024,-34.3156 614.466,-38.1469 462.737,-20.1734"/>
<polygon fill="midnightblue" stroke="midnightblue" points="462.925,-16.671 452.58,-18.9575 462.093,-23.6214 462.925,-16.671"/>
</g>
<!-- Node8&#45;&gt;Node5 -->
<g id="edge11" class="edge"><title>Node8&#45;&gt;Node5</title>
<path fill="none" stroke="midnightblue" d="M835.654,-61.9436C824.971,-59.9392 813.586,-57.8501 803,-56 729.292,-43.118 644.388,-29.614 587.786,-20.801"/>
<polygon fill="midnightblue" stroke="midnightblue" points="587.975,-17.2883 577.556,-19.2112 586.9,-24.2053 587.975,-17.2883"/>
</g>
<!-- Node9 -->
<g id="node10" class="node"><title>Node9</title>
<polygon fill="white" stroke="#bfbfbf" points="853.5,-0.5 853.5,-19.5 906.5,-19.5 906.5,-0.5 853.5,-0.5"/>
<text text-anchor="middle" x="880" y="-7.5" font-family="Helvetica,sans-Serif" font-size="10.00">stdint.h</text>
</g>
<!-- Node8&#45;&gt;Node9 -->
<g id="edge10" class="edge"><title>Node8&#45;&gt;Node9</title>
<path fill="none" stroke="midnightblue" d="M880,-61.9751C880,-53.5803 880,-40.4806 880,-29.6631"/>
<polygon fill="midnightblue" stroke="midnightblue" points="883.5,-29.5091 880,-19.5091 876.5,-29.5091 883.5,-29.5091"/>
</g>
<!-- Node11 -->
<g id="node12" class="node"><title>Node11</title>
<g id="a_node12"><a xlink:href="thread__types_8h.html" target="_top" xlink:title="ODP thread API types. ">
<polygon fill="white" stroke="black" points="0,-56.5 0,-86.5 112,-86.5 112,-56.5 0,-56.5"/>
<text text-anchor="start" x="8" y="-74.5" font-family="Helvetica,sans-Serif" font-size="10.00">odp/api/spec/thread</text>
<text text-anchor="middle" x="56" y="-63.5" font-family="Helvetica,sans-Serif" font-size="10.00">_types.h</text>
</a>
</g>
</g>
<!-- Node10&#45;&gt;Node11 -->
<g id="edge13" class="edge"><title>Node10&#45;&gt;Node11</title>
<path fill="none" stroke="midnightblue" d="M226.488,-123.475C196.892,-114.626 149.81,-100.549 112.615,-89.4277"/>
<polygon fill="midnightblue" stroke="midnightblue" points="113.484,-86.0344 102.9,-86.523 111.479,-92.741 113.484,-86.0344"/>
</g>
<!-- Node12 -->
<g id="node13" class="node"><title>Node12</title>
<polygon fill="white" stroke="#bfbfbf" points="130.5,-62 130.5,-81 243.5,-81 243.5,-62 130.5,-62"/>
<text text-anchor="middle" x="187" y="-69" font-family="Helvetica,sans-Serif" font-size="10.00">odp/api/abi/thread.h</text>
</g>
<!-- Node10&#45;&gt;Node12 -->
<g id="edge14" class="edge"><title>Node10&#45;&gt;Node12</title>
<path fill="none" stroke="midnightblue" d="M245.257,-123.475C234.653,-114.197 217.481,-99.1706 204.521,-87.831"/>
<polygon fill="midnightblue" stroke="midnightblue" points="206.555,-84.9601 196.725,-81.0091 201.946,-90.2282 206.555,-84.9601"/>
</g>
<!-- Node13 -->
<g id="node14" class="node"><title>Node13</title>
<g id="a_node14"><a xlink:href="api_2spec_2thread_8h.html" target="_top" xlink:title="ODP thread API. ">
<polygon fill="white" stroke="black" points="261.5,-62 261.5,-81 382.5,-81 382.5,-62 261.5,-62"/>
<text text-anchor="middle" x="322" y="-69" font-family="Helvetica,sans-Serif" font-size="10.00">odp/api/spec/thread.h</text>
</a>
</g>
</g>
<!-- Node10&#45;&gt;Node13 -->
<g id="edge15" class="edge"><title>Node10&#45;&gt;Node13</title>
<path fill="none" stroke="midnightblue" d="M264.599,-123.475C275.048,-114.197 291.968,-99.1706 304.736,-87.831"/>
<polygon fill="midnightblue" stroke="midnightblue" points="307.265,-90.2663 312.418,-81.0091 302.617,-85.0323 307.265,-90.2663"/>
</g>
<!-- Node13&#45;&gt;Node4 -->
<g id="edge16" class="edge"><title>Node13&#45;&gt;Node4</title>
<path fill="none" stroke="midnightblue" d="M332.459,-61.9751C343.951,-52.6082 362.63,-37.3839 376.587,-26.0081"/>
<polygon fill="midnightblue" stroke="midnightblue" points="379.02,-28.54 384.56,-19.5091 374.598,-23.114 379.02,-28.54"/>
</g>
<!-- Node13&#45;&gt;Node5 -->
<g id="edge17" class="edge"><title>Node13&#45;&gt;Node5</title>
<path fill="none" stroke="midnightblue" d="M350.942,-61.9751C386.267,-51.5699 446.131,-33.9367 485.365,-22.3801"/>
<polygon fill="midnightblue" stroke="midnightblue" points="486.508,-25.6921 495.112,-19.5091 484.531,-18.9773 486.508,-25.6921"/>
</g>
</g>
</svg>
