<?xml version="1.0" encoding="UTF-8" standalone="no"?>
<!DOCTYPE svg PUBLIC "-//W3C//DTD SVG 1.1//EN"
 "http://www.w3.org/Graphics/SVG/1.1/DTD/svg11.dtd">
<!-- Generated by graphviz version 2.38.0 (20140413.2041)
 -->
<!-- Title: barrier.h Pages: 1 -->
<svg width="790pt" height="207pt"
 viewBox="0.00 0.00 790.00 207.00" xmlns="http://www.w3.org/2000/svg" xmlns:xlink="http://www.w3.org/1999/xlink">
<g id="graph0" class="graph" transform="scale(1 1) rotate(0) translate(4 203)">
<title>barrier.h</title>
<polygon fill="white" stroke="none" points="-4,4 -4,-203 786,-203 786,4 -4,4"/>
<!-- Node0 -->
<g id="node1" class="node"><title>Node0</title>
<polygon fill="#bfbfbf" stroke="black" points="452,-179.5 452,-198.5 508,-198.5 508,-179.5 452,-179.5"/>
<text text-anchor="middle" x="480" y="-186.5" font-family="Helvetica,sans-Serif" font-size="10.00">barrier.h</text>
</g>
<!-- Node1 -->
<g id="node2" class="node"><title>Node1</title>
<g id="a_node2"><a xlink:href="api_2std__types_8h.html" target="_top" xlink:title="Standard C language types and definitions for ODP. ">
<polygon fill="white" stroke="black" points="163,-118 163,-137 273,-137 273,-118 163,-118"/>
<text text-anchor="middle" x="218" y="-125" font-family="Helvetica,sans-Serif" font-size="10.00">odp/api/std_types.h</text>
</a>
</g>
</g>
<!-- Node0&#45;&gt;Node1 -->
<g id="edge1" class="edge"><title>Node0&#45;&gt;Node1</title>
<path fill="none" stroke="midnightblue" d="M451.961,-181.632C407.347,-171.501 319.691,-151.594 265.255,-139.231"/>
<polygon fill="midnightblue" stroke="midnightblue" points="266.022,-135.817 255.495,-137.015 264.471,-142.643 266.022,-135.817"/>
</g>
<!-- Node7 -->
<g id="node8" class="node"><title>Node7</title>
<g id="a_node8"><a xlink:href="api_2atomic_8h.html" target="_top" xlink:title="ODP atomic operations. ">
<polygon fill="white" stroke="black" points="431.5,-118 431.5,-137 528.5,-137 528.5,-118 431.5,-118"/>
<text text-anchor="middle" x="480" y="-125" font-family="Helvetica,sans-Serif" font-size="10.00">odp/api/atomic.h</text>
</a>
</g>
</g>
<!-- Node0&#45;&gt;Node7 -->
<g id="edge7" class="edge"><title>Node0&#45;&gt;Node7</title>
<path fill="none" stroke="midnightblue" d="M480,-179.475C480,-171.08 480,-157.981 480,-147.163"/>
<polygon fill="midnightblue" stroke="midnightblue" points="483.5,-147.009 480,-137.009 476.5,-147.009 483.5,-147.009"/>
</g>
<!-- Node10 -->
<g id="node11" class="node"><title>Node10</title>
<polygon fill="white" stroke="#bfbfbf" points="546.5,-112.5 546.5,-142.5 651.5,-142.5 651.5,-112.5 546.5,-112.5"/>
<text text-anchor="start" x="554.5" y="-130.5" font-family="Helvetica,sans-Serif" font-size="10.00">odp/api/abi/shared</text>
<text text-anchor="middle" x="599" y="-119.5" font-family="Helvetica,sans-Serif" font-size="10.00">_memory.h</text>
</g>
<!-- Node0&#45;&gt;Node10 -->
<g id="edge12" class="edge"><title>Node0&#45;&gt;Node10</title>
<path fill="none" stroke="midnightblue" d="M497.05,-179.475C513.92,-171.04 540.29,-157.855 561.984,-147.008"/>
<polygon fill="midnightblue" stroke="midnightblue" points="563.575,-150.126 570.954,-142.523 560.445,-143.865 563.575,-150.126"/>
</g>
<!-- Node11 -->
<g id="node12" class="node"><title>Node11</title>
<polygon fill="white" stroke="#bfbfbf" points="670,-118 670,-137 782,-137 782,-118 670,-118"/>
<text text-anchor="middle" x="726" y="-125" font-family="Helvetica,sans-Serif" font-size="10.00">odp/api/abi/barrier.h</text>
</g>
<!-- Node0&#45;&gt;Node11 -->
<g id="edge13" class="edge"><title>Node0&#45;&gt;Node11</title>
<path fill="none" stroke="midnightblue" d="M508.219,-181.175C550.37,-170.98 630.201,-151.671 680.616,-139.477"/>
<polygon fill="midnightblue" stroke="midnightblue" points="681.698,-142.816 690.595,-137.063 680.052,-136.013 681.698,-142.816"/>
</g>
<!-- Node12 -->
<g id="node13" class="node"><title>Node12</title>
<g id="a_node13"><a xlink:href="api_2spec_2barrier_8h.html" target="_top" xlink:title="ODP execution barriers. ">
<polygon fill="white" stroke="black" points="300,-56.5 300,-75.5 420,-75.5 420,-56.5 300,-56.5"/>
<text text-anchor="middle" x="360" y="-63.5" font-family="Helvetica,sans-Serif" font-size="10.00">odp/api/spec/barrier.h</text>
</a>
</g>
</g>
<!-- Node0&#45;&gt;Node12 -->
<g id="edge14" class="edge"><title>Node0&#45;&gt;Node12</title>
<path fill="none" stroke="midnightblue" d="M467.345,-179.448C455.127,-170.909 436.412,-157.064 422,-143 402.847,-124.31 383.845,-99.9257 372.026,-83.882"/>
<polygon fill="midnightblue" stroke="midnightblue" points="374.655,-81.5455 365.95,-75.5057 368.988,-85.6555 374.655,-81.5455"/>
</g>
<!-- Node2 -->
<g id="node3" class="node"><title>Node2</title>
<polygon fill="white" stroke="#bfbfbf" points="154,-56.5 154,-75.5 282,-75.5 282,-56.5 154,-56.5"/>
<text text-anchor="middle" x="218" y="-63.5" font-family="Helvetica,sans-Serif" font-size="10.00">odp/api/abi/std_types.h</text>
</g>
<!-- Node1&#45;&gt;Node2 -->
<g id="edge2" class="edge"><title>Node1&#45;&gt;Node2</title>
<path fill="none" stroke="midnightblue" d="M218,-117.975C218,-109.58 218,-96.4806 218,-85.6631"/>
<polygon fill="midnightblue" stroke="midnightblue" points="221.5,-85.5091 218,-75.5091 214.5,-85.5091 221.5,-85.5091"/>
</g>
<!-- Node3 -->
<g id="node4" class="node"><title>Node3</title>
<g id="a_node4"><a xlink:href="api_2spec_2std__types_8h.html" target="_top" xlink:title="Standard C language types and definitions for ODP. ">
<polygon fill="white" stroke="black" points="0,-56.5 0,-75.5 136,-75.5 136,-56.5 0,-56.5"/>
<text text-anchor="middle" x="68" y="-63.5" font-family="Helvetica,sans-Serif" font-size="10.00">odp/api/spec/std_types.h</text>
</a>
</g>
</g>
<!-- Node1&#45;&gt;Node3 -->
<g id="edge3" class="edge"><title>Node1&#45;&gt;Node3</title>
<path fill="none" stroke="midnightblue" d="M196.509,-117.975C170.89,-107.813 127.89,-90.7564 98.7553,-79.1996"/>
<polygon fill="midnightblue" stroke="midnightblue" points="100.037,-75.9429 89.4515,-75.5091 97.4564,-82.4497 100.037,-75.9429"/>
</g>
<!-- Node4 -->
<g id="node5" class="node"><title>Node4</title>
<g id="a_node5"><a xlink:href="visibility__begin_8h_source.html" target="_top" xlink:title="odp/visibility_begin.h">
<polygon fill="white" stroke="black" points="366.5,-0.5 366.5,-19.5 481.5,-19.5 481.5,-0.5 366.5,-0.5"/>
<text text-anchor="middle" x="424" y="-7.5" font-family="Helvetica,sans-Serif" font-size="10.00">odp/visibility_begin.h</text>
</a>
</g>
</g>
<!-- Node3&#45;&gt;Node4 -->
<g id="edge4" class="edge"><title>Node3&#45;&gt;Node4</title>
<path fill="none" stroke="midnightblue" d="M124.409,-56.4435C187.815,-46.8259 290.648,-31.2275 357.804,-21.0409"/>
<polygon fill="midnightblue" stroke="midnightblue" points="358.493,-24.4766 367.855,-19.5164 357.443,-17.5558 358.493,-24.4766"/>
</g>
<!-- Node5 -->
<g id="node6" class="node"><title>Node5</title>
<polygon fill="white" stroke="#bfbfbf" points="41.5,-0.5 41.5,-19.5 94.5,-19.5 94.5,-0.5 41.5,-0.5"/>
<text text-anchor="middle" x="68" y="-7.5" font-family="Helvetica,sans-Serif" font-size="10.00">stdint.h</text>
</g>
<!-- Node3&#45;&gt;Node5 -->
<g id="edge5" class="edge"><title>Node3&#45;&gt;Node5</title>
<path fill="none" stroke="midnightblue" d="M68,-56.083C68,-49.0059 68,-38.8611 68,-29.9865"/>
<polygon fill="midnightblue" stroke="midnightblue" points="71.5001,-29.751 68,-19.7511 64.5001,-29.7511 71.5001,-29.751"/>
</g>
<!-- Node6 -->
<g id="node7" class="node"><title>Node6</title>
<g id="a_node7"><a xlink:href="visibility__end_8h_source.html" target="_top" xlink:title="odp/visibility_end.h">
<polygon fill="white" stroke="black" points="241.5,-0.5 241.5,-19.5 348.5,-19.5 348.5,-0.5 241.5,-0.5"/>
<text text-anchor="middle" x="295" y="-7.5" font-family="Helvetica,sans-Serif" font-size="10.00">odp/visibility_end.h</text>
</a>
</g>
</g>
<!-- Node3&#45;&gt;Node6 -->
<g id="edge6" class="edge"><title>Node3&#45;&gt;Node6</title>
<path fill="none" stroke="midnightblue" d="M103.969,-56.4435C143.319,-47.0826 206.487,-32.0561 249.314,-21.868"/>
<polygon fill="midnightblue" stroke="midnightblue" points="250.281,-25.2358 259.199,-19.5164 248.661,-18.4258 250.281,-25.2358"/>
</g>
<!-- Node8 -->
<g id="node9" class="node"><title>Node8</title>
<polygon fill="white" stroke="#bfbfbf" points="438,-56.5 438,-75.5 552,-75.5 552,-56.5 438,-56.5"/>
<text text-anchor="middle" x="495" y="-63.5" font-family="Helvetica,sans-Serif" font-size="10.00">odp/api/abi/atomic.h</text>
</g>
<!-- Node7&#45;&gt;Node8 -->
<g id="edge8" class="edge"><title>Node7&#45;&gt;Node8</title>
<path fill="none" stroke="midnightblue" d="M482.149,-117.975C484.288,-109.492 487.638,-96.2043 490.381,-85.3222"/>
<polygon fill="midnightblue" stroke="midnightblue" points="493.804,-86.0613 492.855,-75.5091 487.016,-84.3501 493.804,-86.0613"/>
</g>
<!-- Node9 -->
<g id="node10" class="node"><title>Node9</title>
<g id="a_node10"><a xlink:href="api_2spec_2atomic_8h.html" target="_top" xlink:title="ODP atomic operations. ">
<polygon fill="white" stroke="black" points="570,-56.5 570,-75.5 692,-75.5 692,-56.5 570,-56.5"/>
<text text-anchor="middle" x="631" y="-63.5" font-family="Helvetica,sans-Serif" font-size="10.00">odp/api/spec/atomic.h</text>
</a>
</g>
</g>
<!-- Node7&#45;&gt;Node9 -->
<g id="edge9" class="edge"><title>Node7&#45;&gt;Node9</title>
<path fill="none" stroke="midnightblue" d="M501.635,-117.975C527.424,-107.813 570.711,-90.7564 600.04,-79.1996"/>
<polygon fill="midnightblue" stroke="midnightblue" points="601.385,-82.4315 609.406,-75.5091 598.819,-75.9189 601.385,-82.4315"/>
</g>
<!-- Node9&#45;&gt;Node4 -->
<g id="edge10" class="edge"><title>Node9&#45;&gt;Node4</title>
<path fill="none" stroke="midnightblue" d="M598.2,-56.4435C562.62,-47.1616 505.686,-32.3093 466.653,-22.127"/>
<polygon fill="midnightblue" stroke="midnightblue" points="467.206,-18.6541 456.646,-19.5164 465.439,-25.4274 467.206,-18.6541"/>
</g>
<!-- Node9&#45;&gt;Node6 -->
<g id="edge11" class="edge"><title>Node9&#45;&gt;Node6</title>
<path fill="none" stroke="midnightblue" d="M577.76,-56.4435C518.04,-46.8456 421.259,-31.2916 357.868,-21.1037"/>
<polygon fill="midnightblue" stroke="midnightblue" points="358.42,-17.6476 347.991,-19.5164 357.309,-24.559 358.42,-17.6476"/>
</g>
<!-- Node12&#45;&gt;Node4 -->
<g id="edge15" class="edge"><title>Node12&#45;&gt;Node4</title>
<path fill="none" stroke="midnightblue" d="M370.283,-56.324C379.836,-48.2631 394.28,-36.0765 405.784,-26.3695"/>
<polygon fill="midnightblue" stroke="midnightblue" points="408.144,-28.9577 413.53,-19.8339 403.63,-23.6076 408.144,-28.9577"/>
</g>
<!-- Node12&#45;&gt;Node6 -->
<g id="edge16" class="edge"><title>Node12&#45;&gt;Node6</title>
<path fill="none" stroke="midnightblue" d="M349.557,-56.324C339.854,-48.2631 325.185,-36.0765 313.5,-26.3695"/>
<polygon fill="midnightblue" stroke="midnightblue" points="315.562,-23.532 305.633,-19.8339 311.089,-28.9163 315.562,-23.532"/>
</g>
</g>
</svg>
