<?xml version="1.0" encoding="UTF-8" standalone="no"?>
<!DOCTYPE svg PUBLIC "-//W3C//DTD SVG 1.1//EN"
 "http://www.w3.org/Graphics/SVG/1.1/DTD/svg11.dtd">
<!-- Generated by graphviz version 2.38.0 (20140413.2041)
 -->
<!-- Title: packet.h Pages: 1 -->
<svg width="656pt" height="700pt"
 viewBox="0.00 0.00 656.00 700.00" xmlns="http://www.w3.org/2000/svg" xmlns:xlink="http://www.w3.org/1999/xlink">
<g id="graph0" class="graph" transform="scale(1 1) rotate(0) translate(4 696)">
<title>packet.h</title>
<polygon fill="white" stroke="none" points="-4,4 -4,-696 652,-696 652,4 -4,4"/>
<!-- Node16 -->
<g id="node1" class="node"><title>Node16</title>
<polygon fill="#bfbfbf" stroke="black" points="232,-672.5 232,-691.5 290,-691.5 290,-672.5 232,-672.5"/>
<text text-anchor="middle" x="261" y="-679.5" font-family="Helvetica,sans-Serif" font-size="10.00">packet.h</text>
</g>
<!-- Node17 -->
<g id="node2" class="node"><title>Node17</title>
<g id="a_node2"><a xlink:href="api_2spec_2comp_8h.html" target="_top" xlink:title="ODP Compression. ">
<polygon fill="white" stroke="black" points="80.5,-616.5 80.5,-635.5 133.5,-635.5 133.5,-616.5 80.5,-616.5"/>
<text text-anchor="middle" x="107" y="-623.5" font-family="Helvetica,sans-Serif" font-size="10.00">comp.h</text>
</a>
</g>
</g>
<!-- Node16&#45;&gt;Node17 -->
<g id="edge1" class="edge"><title>Node16&#45;&gt;Node17</title>
<path fill="none" stroke="midnightblue" d="M226.889,-669.039C197.913,-658.879 157.038,-644.546 131.288,-635.516"/>
<polygon fill="midnightblue" stroke="midnightblue" points="226.003,-672.437 236.598,-672.444 228.32,-665.832 226.003,-672.437"/>
</g>
<!-- Node19 -->
<g id="node4" class="node"><title>Node19</title>
<g id="a_node4"><a xlink:href="odp__api_8h.html" target="_top" xlink:title="The OpenDataPlane API. ">
<polygon fill="white" stroke="black" points="223.5,-56.5 223.5,-75.5 286.5,-75.5 286.5,-56.5 223.5,-56.5"/>
<text text-anchor="middle" x="255" y="-63.5" font-family="Helvetica,sans-Serif" font-size="10.00">odp_api.h</text>
</a>
</g>
</g>
<!-- Node16&#45;&gt;Node19 -->
<g id="edge37" class="edge"><title>Node16&#45;&gt;Node19</title>
<path fill="none" stroke="midnightblue" d="M221.639,-681.541C148.724,-680.268 0,-666.024 0,-571 0,-571 0,-571 0,-177 0,-80.6921 155.251,-67.7063 223.476,-66.6493"/>
<polygon fill="midnightblue" stroke="midnightblue" points="221.785,-685.042 231.82,-681.643 221.855,-678.043 221.785,-685.042"/>
</g>
<!-- Node21 -->
<g id="node6" class="node"><title>Node21</title>
<g id="a_node6"><a xlink:href="api_2spec_2crypto_8h.html" target="_top" xlink:title="ODP crypto. ">
<polygon fill="white" stroke="black" points="264,-448.5 264,-467.5 320,-467.5 320,-448.5 264,-448.5"/>
<text text-anchor="middle" x="292" y="-455.5" font-family="Helvetica,sans-Serif" font-size="10.00">crypto.h</text>
</a>
</g>
</g>
<!-- Node16&#45;&gt;Node21 -->
<g id="edge5" class="edge"><title>Node16&#45;&gt;Node21</title>
<path fill="none" stroke="midnightblue" d="M263.612,-662.295C269.987,-616.644 286.156,-500.854 290.759,-467.884"/>
<polygon fill="midnightblue" stroke="midnightblue" points="260.132,-661.909 262.215,-672.297 267.065,-662.878 260.132,-661.909"/>
</g>
<!-- Node25 -->
<g id="node10" class="node"><title>Node25</title>
<g id="a_node10"><a xlink:href="api_2spec_2event_8h.html" target="_top" xlink:title="ODP event. ">
<polygon fill="white" stroke="black" points="187.5,-616.5 187.5,-635.5 240.5,-635.5 240.5,-616.5 187.5,-616.5"/>
<text text-anchor="middle" x="214" y="-623.5" font-family="Helvetica,sans-Serif" font-size="10.00">event.h</text>
</a>
</g>
</g>
<!-- Node16&#45;&gt;Node25 -->
<g id="edge11" class="edge"><title>Node16&#45;&gt;Node25</title>
<path fill="none" stroke="midnightblue" d="M246.579,-664.431C238.342,-654.967 228.346,-643.483 221.617,-635.751"/>
<polygon fill="midnightblue" stroke="midnightblue" points="244.034,-666.838 253.239,-672.083 249.314,-662.242 244.034,-666.838"/>
</g>
<!-- Node29 -->
<g id="node14" class="node"><title>Node29</title>
<g id="a_node14"><a xlink:href="api_2spec_2packet__io_8h.html" target="_top" xlink:title="ODP Packet IO. ">
<polygon fill="white" stroke="black" points="321.5,-392.5 321.5,-411.5 392.5,-411.5 392.5,-392.5 321.5,-392.5"/>
<text text-anchor="middle" x="357" y="-399.5" font-family="Helvetica,sans-Serif" font-size="10.00">packet_io.h</text>
</a>
</g>
</g>
<!-- Node16&#45;&gt;Node29 -->
<g id="edge36" class="edge"><title>Node16&#45;&gt;Node29</title>
<path fill="none" stroke="midnightblue" d="M284.151,-666.884C311.111,-648.47 352,-613.532 352,-571 352,-571 352,-571 352,-513 352,-475.148 354.991,-430.046 356.346,-411.552"/>
<polygon fill="midnightblue" stroke="midnightblue" points="282.06,-664.069 275.621,-672.482 285.901,-669.921 282.06,-664.069"/>
</g>
<!-- Node37 -->
<g id="node22" class="node"><title>Node37</title>
<g id="a_node22"><a xlink:href="api_2spec_2packet__flags_8h.html" target="_top" xlink:title="ODP packet flags. ">
<polygon fill="white" stroke="black" points="476,-560.5 476,-579.5 562,-579.5 562,-560.5 476,-560.5"/>
<text text-anchor="middle" x="519" y="-567.5" font-family="Helvetica,sans-Serif" font-size="10.00">packet_flags.h</text>
</a>
</g>
</g>
<!-- Node16&#45;&gt;Node37 -->
<g id="edge33" class="edge"><title>Node16&#45;&gt;Node37</title>
<path fill="none" stroke="midnightblue" d="M290.445,-668.446C343.431,-645.855 453.535,-598.911 498.849,-579.591"/>
<polygon fill="midnightblue" stroke="midnightblue" points="289.071,-665.227 281.245,-672.368 291.816,-671.666 289.071,-665.227"/>
</g>
<!-- Node18 -->
<g id="node3" class="node"><title>Node18</title>
<g id="a_node3"><a xlink:href="api_2comp_8h.html" target="_top" xlink:title="ODP crypto. ">
<polygon fill="white" stroke="black" points="28.5,-504.5 28.5,-523.5 81.5,-523.5 81.5,-504.5 28.5,-504.5"/>
<text text-anchor="middle" x="55" y="-511.5" font-family="Helvetica,sans-Serif" font-size="10.00">comp.h</text>
</a>
</g>
</g>
<!-- Node17&#45;&gt;Node18 -->
<g id="edge2" class="edge"><title>Node17&#45;&gt;Node18</title>
<path fill="none" stroke="midnightblue" d="M98.6421,-607.32C87.3202,-583.37 67.5502,-541.548 59.0614,-523.591"/>
<polygon fill="midnightblue" stroke="midnightblue" points="95.4815,-608.824 102.92,-616.368 101.81,-605.832 95.4815,-608.824"/>
</g>
<!-- Node18&#45;&gt;Node19 -->
<g id="edge3" class="edge"><title>Node18&#45;&gt;Node19</title>
<path fill="none" stroke="midnightblue" d="M55,-494.251C55,-472.357 55,-435.052 55,-403 55,-403 55,-403 55,-177 55,-146.205 56.1285,-132.621 79,-112 119.171,-75.7809 184.507,-67.8939 223.263,-66.6334"/>
<polygon fill="midnightblue" stroke="midnightblue" points="51.5001,-494.442 55,-504.442 58.5001,-494.442 51.5001,-494.442"/>
</g>
<!-- Node20 -->
<g id="node5" class="node"><title>Node20</title>
<g id="a_node5"><a xlink:href="odp_8h.html" target="_top" xlink:title="WARNING: THIS FILE IS DEPRECATED AND WILL BE REMOVED!!! ODP APPLICATIONS SHOULD NOW INCLUDE odp_api...">
<polygon fill="white" stroke="black" points="233,-0.5 233,-19.5 277,-19.5 277,-0.5 233,-0.5"/>
<text text-anchor="middle" x="255" y="-7.5" font-family="Helvetica,sans-Serif" font-size="10.00">odp.h</text>
</a>
</g>
</g>
<!-- Node19&#45;&gt;Node20 -->
<g id="edge4" class="edge"><title>Node19&#45;&gt;Node20</title>
<path fill="none" stroke="midnightblue" d="M255,-45.8045C255,-36.9102 255,-26.7798 255,-19.7511"/>
<polygon fill="midnightblue" stroke="midnightblue" points="251.5,-46.083 255,-56.083 258.5,-46.083 251.5,-46.083"/>
</g>
<!-- Node22 -->
<g id="node7" class="node"><title>Node22</title>
<g id="a_node7"><a xlink:href="api_2crypto_8h.html" target="_top" xlink:title="ODP crypto. ">
<polygon fill="white" stroke="black" points="255,-336.5 255,-355.5 311,-355.5 311,-336.5 255,-336.5"/>
<text text-anchor="middle" x="283" y="-343.5" font-family="Helvetica,sans-Serif" font-size="10.00">crypto.h</text>
</a>
</g>
</g>
<!-- Node21&#45;&gt;Node22 -->
<g id="edge6" class="edge"><title>Node21&#45;&gt;Node22</title>
<path fill="none" stroke="midnightblue" d="M290.474,-438.348C288.503,-414.254 285.152,-373.308 283.703,-355.591"/>
<polygon fill="midnightblue" stroke="midnightblue" points="286.99,-438.687 291.294,-448.368 293.967,-438.116 286.99,-438.687"/>
</g>
<!-- Node22&#45;&gt;Node19 -->
<g id="edge10" class="edge"><title>Node22&#45;&gt;Node19</title>
<path fill="none" stroke="midnightblue" d="M275.427,-326.88C267.134,-305.366 255,-268.21 255,-235 255,-235 255,-235 255,-177 255,-139.188 255,-94.0636 255,-75.5578"/>
<polygon fill="midnightblue" stroke="midnightblue" points="272.254,-328.372 279.224,-336.351 278.751,-325.767 272.254,-328.372"/>
</g>
<!-- Node23 -->
<g id="node8" class="node"><title>Node23</title>
<g id="a_node8"><a xlink:href="api_2spec_2ipsec_8h.html" target="_top" xlink:title="ODP IPSEC API. ">
<polygon fill="white" stroke="black" points="295,-168.5 295,-187.5 345,-187.5 345,-168.5 295,-168.5"/>
<text text-anchor="middle" x="320" y="-175.5" font-family="Helvetica,sans-Serif" font-size="10.00">ipsec.h</text>
</a>
</g>
</g>
<!-- Node22&#45;&gt;Node23 -->
<g id="edge7" class="edge"><title>Node22&#45;&gt;Node23</title>
<path fill="none" stroke="midnightblue" d="M287.251,-325.93C295.277,-289.92 312.37,-213.231 318.09,-187.568"/>
<polygon fill="midnightblue" stroke="midnightblue" points="283.749,-325.553 284.989,-336.075 290.581,-327.076 283.749,-325.553"/>
</g>
<!-- Node24 -->
<g id="node9" class="node"><title>Node24</title>
<g id="a_node9"><a xlink:href="api_2ipsec_8h.html" target="_top" xlink:title="ODP IPSEC API &#45; platform specific header. ">
<polygon fill="white" stroke="black" points="289,-112.5 289,-131.5 339,-131.5 339,-112.5 289,-112.5"/>
<text text-anchor="middle" x="314" y="-119.5" font-family="Helvetica,sans-Serif" font-size="10.00">ipsec.h</text>
</a>
</g>
</g>
<!-- Node23&#45;&gt;Node24 -->
<g id="edge8" class="edge"><title>Node23&#45;&gt;Node24</title>
<path fill="none" stroke="midnightblue" d="M317.9,-158.101C316.904,-149.136 315.762,-138.858 314.972,-131.751"/>
<polygon fill="midnightblue" stroke="midnightblue" points="314.426,-158.531 319.009,-168.083 321.383,-157.758 314.426,-158.531"/>
</g>
<!-- Node24&#45;&gt;Node19 -->
<g id="edge9" class="edge"><title>Node24&#45;&gt;Node19</title>
<path fill="none" stroke="midnightblue" d="M297.105,-105.537C286.585,-95.9087 273.431,-83.8694 264.652,-75.8339"/>
<polygon fill="midnightblue" stroke="midnightblue" points="294.781,-108.154 304.521,-112.324 299.507,-102.99 294.781,-108.154"/>
</g>
<!-- Node26 -->
<g id="node11" class="node"><title>Node26</title>
<g id="a_node11"><a xlink:href="api_2event_8h.html" target="_top" xlink:title="ODP event. ">
<polygon fill="white" stroke="black" points="149.5,-560.5 149.5,-579.5 202.5,-579.5 202.5,-560.5 149.5,-560.5"/>
<text text-anchor="middle" x="176" y="-567.5" font-family="Helvetica,sans-Serif" font-size="10.00">event.h</text>
</a>
</g>
</g>
<!-- Node25&#45;&gt;Node26 -->
<g id="edge12" class="edge"><title>Node25&#45;&gt;Node26</title>
<path fill="none" stroke="midnightblue" d="M201.935,-607.855C195.355,-598.505 187.489,-587.327 182.158,-579.751"/>
<polygon fill="midnightblue" stroke="midnightblue" points="199.108,-609.919 207.725,-616.083 204.832,-605.891 199.108,-609.919"/>
</g>
<!-- Node26&#45;&gt;Node19 -->
<g id="edge32" class="edge"><title>Node26&#45;&gt;Node19</title>
<path fill="none" stroke="midnightblue" d="M164.614,-551.67C141.874,-515.333 93,-427.832 93,-347 93,-347 93,-347 93,-177 93,-114.618 176.235,-85.1484 223.38,-73.4603"/>
<polygon fill="midnightblue" stroke="midnightblue" points="161.696,-553.604 170.031,-560.145 167.594,-549.834 161.696,-553.604"/>
</g>
<!-- Node27 -->
<g id="node12" class="node"><title>Node27</title>
<g id="a_node12"><a xlink:href="api_2spec_2queue_8h.html" target="_top" xlink:title="ODP queue. ">
<polygon fill="white" stroke="black" points="188,-504.5 188,-523.5 244,-523.5 244,-504.5 188,-504.5"/>
<text text-anchor="middle" x="216" y="-511.5" font-family="Helvetica,sans-Serif" font-size="10.00">queue.h</text>
</a>
</g>
</g>
<!-- Node26&#45;&gt;Node27 -->
<g id="edge13" class="edge"><title>Node26&#45;&gt;Node27</title>
<path fill="none" stroke="midnightblue" d="M188.7,-551.855C195.626,-542.505 203.906,-531.327 209.518,-523.751"/>
<polygon fill="midnightblue" stroke="midnightblue" points="185.745,-549.964 182.605,-560.083 191.37,-554.131 185.745,-549.964"/>
</g>
<!-- Node35 -->
<g id="node20" class="node"><title>Node35</title>
<g id="a_node20"><a xlink:href="api_2spec_2schedule_8h.html" target="_top" xlink:title="ODP schedule. ">
<polygon fill="white" stroke="black" points="121,-392.5 121,-411.5 189,-411.5 189,-392.5 121,-392.5"/>
<text text-anchor="middle" x="155" y="-399.5" font-family="Helvetica,sans-Serif" font-size="10.00">schedule.h</text>
</a>
</g>
</g>
<!-- Node26&#45;&gt;Node35 -->
<g id="edge31" class="edge"><title>Node26&#45;&gt;Node35</title>
<path fill="none" stroke="midnightblue" d="M173.587,-549.93C169.032,-513.92 159.33,-437.231 156.084,-411.568"/>
<polygon fill="midnightblue" stroke="midnightblue" points="170.143,-550.593 174.871,-560.075 177.088,-549.715 170.143,-550.593"/>
</g>
<!-- Node28 -->
<g id="node13" class="node"><title>Node28</title>
<g id="a_node13"><a xlink:href="api_2queue_8h.html" target="_top" xlink:title="ODP queue. ">
<polygon fill="white" stroke="black" points="189,-448.5 189,-467.5 245,-467.5 245,-448.5 189,-448.5"/>
<text text-anchor="middle" x="217" y="-455.5" font-family="Helvetica,sans-Serif" font-size="10.00">queue.h</text>
</a>
</g>
</g>
<!-- Node27&#45;&gt;Node28 -->
<g id="edge14" class="edge"><title>Node27&#45;&gt;Node28</title>
<path fill="none" stroke="midnightblue" d="M216.355,-493.805C216.52,-484.91 216.708,-474.78 216.838,-467.751"/>
<polygon fill="midnightblue" stroke="midnightblue" points="212.851,-494.02 216.165,-504.083 219.85,-494.15 212.851,-494.02"/>
</g>
<!-- Node28&#45;&gt;Node19 -->
<g id="edge30" class="edge"><title>Node28&#45;&gt;Node19</title>
<path fill="none" stroke="midnightblue" d="M217,-438.251C217,-416.357 217,-379.052 217,-347 217,-347 217,-347 217,-177 217,-137.399 239.275,-93.957 249.716,-75.769"/>
<polygon fill="midnightblue" stroke="midnightblue" points="213.5,-438.442 217,-448.442 220.5,-438.442 213.5,-438.442"/>
</g>
<!-- Node28&#45;&gt;Node22 -->
<g id="edge15" class="edge"><title>Node28&#45;&gt;Node22</title>
<path fill="none" stroke="midnightblue" d="M227.416,-439.64C241.754,-415.744 267.023,-373.629 277.845,-355.591"/>
<polygon fill="midnightblue" stroke="midnightblue" points="224.323,-437.993 222.179,-448.368 230.325,-441.594 224.323,-437.993"/>
</g>
<!-- Node28&#45;&gt;Node29 -->
<g id="edge16" class="edge"><title>Node28&#45;&gt;Node29</title>
<path fill="none" stroke="midnightblue" d="M248.702,-444.772C275,-434.629 311.716,-420.467 334.92,-411.516"/>
<polygon fill="midnightblue" stroke="midnightblue" points="247.254,-441.579 239.183,-448.444 249.773,-448.11 247.254,-441.579"/>
</g>
<!-- Node28&#45;&gt;Node35 -->
<g id="edge27" class="edge"><title>Node28&#45;&gt;Node35</title>
<path fill="none" stroke="midnightblue" d="M199.246,-441.537C188.192,-431.909 174.369,-419.869 165.143,-411.834"/>
<polygon fill="midnightblue" stroke="midnightblue" points="197.199,-444.395 207.039,-448.324 201.797,-439.117 197.199,-444.395"/>
</g>
<!-- Node30 -->
<g id="node15" class="node"><title>Node30</title>
<g id="a_node15"><a xlink:href="api_2packet__io_8h.html" target="_top" xlink:title="ODP Packet IO. ">
<polygon fill="white" stroke="black" points="366.5,-336.5 366.5,-355.5 437.5,-355.5 437.5,-336.5 366.5,-336.5"/>
<text text-anchor="middle" x="402" y="-343.5" font-family="Helvetica,sans-Serif" font-size="10.00">packet_io.h</text>
</a>
</g>
</g>
<!-- Node29&#45;&gt;Node30 -->
<g id="edge17" class="edge"><title>Node29&#45;&gt;Node30</title>
<path fill="none" stroke="midnightblue" d="M371.047,-384.144C378.887,-374.736 388.329,-363.405 394.707,-355.751"/>
<polygon fill="midnightblue" stroke="midnightblue" points="368.144,-382.16 364.431,-392.083 373.521,-386.641 368.144,-382.16"/>
</g>
<!-- Node30&#45;&gt;Node19 -->
<g id="edge26" class="edge"><title>Node30&#45;&gt;Node19</title>
<path fill="none" stroke="midnightblue" d="M424.207,-330.352C434.596,-322.474 446.339,-311.929 454,-300 470.265,-274.675 473,-265.098 473,-235 473,-235 473,-235 473,-177 473,-94.5468 347.161,-73.887 286.699,-68.7192"/>
<polygon fill="midnightblue" stroke="midnightblue" points="421.992,-327.633 415.918,-336.314 426.08,-333.316 421.992,-327.633"/>
</g>
<!-- Node30&#45;&gt;Node23 -->
<g id="edge22" class="edge"><title>Node30&#45;&gt;Node23</title>
<path fill="none" stroke="midnightblue" d="M379.579,-330.486C369.138,-322.641 357.413,-312.085 350,-300 327.027,-262.55 321.624,-208.408 320.371,-187.596"/>
<polygon fill="midnightblue" stroke="midnightblue" points="377.745,-333.477 387.925,-336.413 381.798,-327.769 377.745,-333.477"/>
</g>
<!-- Node31 -->
<g id="node16" class="node"><title>Node31</title>
<g id="a_node16"><a xlink:href="api_2spec_2classification_8h.html" target="_top" xlink:title="ODP classification descriptor. ">
<polygon fill="white" stroke="black" points="359,-280.5 359,-299.5 445,-299.5 445,-280.5 359,-280.5"/>
<text text-anchor="middle" x="402" y="-287.5" font-family="Helvetica,sans-Serif" font-size="10.00">classification.h</text>
</a>
</g>
</g>
<!-- Node30&#45;&gt;Node31 -->
<g id="edge18" class="edge"><title>Node30&#45;&gt;Node31</title>
<path fill="none" stroke="midnightblue" d="M402,-325.805C402,-316.91 402,-306.78 402,-299.751"/>
<polygon fill="midnightblue" stroke="midnightblue" points="398.5,-326.083 402,-336.083 405.5,-326.083 398.5,-326.083"/>
</g>
<!-- Node33 -->
<g id="node18" class="node"><title>Node33</title>
<g id="a_node18"><a xlink:href="api_2spec_2traffic__mngr_8h.html" target="_top" xlink:title="Copyright (c) 2015&#45;2018, Linaro Limited All rights reserved. ">
<polygon fill="white" stroke="black" points="501.5,-280.5 501.5,-299.5 584.5,-299.5 584.5,-280.5 501.5,-280.5"/>
<text text-anchor="middle" x="543" y="-287.5" font-family="Helvetica,sans-Serif" font-size="10.00">traffic_mngr.h</text>
</a>
</g>
</g>
<!-- Node30&#45;&gt;Node33 -->
<g id="edge23" class="edge"><title>Node30&#45;&gt;Node33</title>
<path fill="none" stroke="midnightblue" d="M433.929,-332.772C460.414,-322.629 497.392,-308.467 520.763,-299.516"/>
<polygon fill="midnightblue" stroke="midnightblue" points="432.429,-329.599 424.342,-336.444 434.932,-336.136 432.429,-329.599"/>
</g>
<!-- Node32 -->
<g id="node17" class="node"><title>Node32</title>
<g id="a_node17"><a xlink:href="api_2classification_8h.html" target="_top" xlink:title="ODP classification descriptor. ">
<polygon fill="white" stroke="black" points="359,-224.5 359,-243.5 445,-243.5 445,-224.5 359,-224.5"/>
<text text-anchor="middle" x="402" y="-231.5" font-family="Helvetica,sans-Serif" font-size="10.00">classification.h</text>
</a>
</g>
</g>
<!-- Node31&#45;&gt;Node32 -->
<g id="edge19" class="edge"><title>Node31&#45;&gt;Node32</title>
<path fill="none" stroke="midnightblue" d="M402,-269.805C402,-260.91 402,-250.78 402,-243.751"/>
<polygon fill="midnightblue" stroke="midnightblue" points="398.5,-270.083 402,-280.083 405.5,-270.083 398.5,-270.083"/>
</g>
<!-- Node32&#45;&gt;Node19 -->
<g id="edge21" class="edge"><title>Node32&#45;&gt;Node19</title>
<path fill="none" stroke="midnightblue" d="M397.921,-214.204C391.426,-188.256 376.456,-141.349 348,-112 330.77,-94.2289 305.091,-82.5408 285.08,-75.5415"/>
<polygon fill="midnightblue" stroke="midnightblue" points="394.579,-215.281 400.264,-224.221 401.395,-213.687 394.579,-215.281"/>
</g>
<!-- Node32&#45;&gt;Node23 -->
<g id="edge20" class="edge"><title>Node32&#45;&gt;Node23</title>
<path fill="none" stroke="midnightblue" d="M380.167,-218.622C365.187,-208.757 345.803,-195.992 333.142,-187.655"/>
<polygon fill="midnightblue" stroke="midnightblue" points="378.549,-221.747 388.825,-224.324 382.399,-215.901 378.549,-221.747"/>
</g>
<!-- Node34 -->
<g id="node19" class="node"><title>Node34</title>
<g id="a_node19"><a xlink:href="api_2traffic__mngr_8h.html" target="_top" xlink:title="ODP Traffic manager. ">
<polygon fill="white" stroke="black" points="501.5,-168.5 501.5,-187.5 584.5,-187.5 584.5,-168.5 501.5,-168.5"/>
<text text-anchor="middle" x="543" y="-175.5" font-family="Helvetica,sans-Serif" font-size="10.00">traffic_mngr.h</text>
</a>
</g>
</g>
<!-- Node33&#45;&gt;Node34 -->
<g id="edge24" class="edge"><title>Node33&#45;&gt;Node34</title>
<path fill="none" stroke="midnightblue" d="M543,-270.348C543,-246.254 543,-205.308 543,-187.591"/>
<polygon fill="midnightblue" stroke="midnightblue" points="539.5,-270.368 543,-280.368 546.5,-270.369 539.5,-270.368"/>
</g>
<!-- Node34&#45;&gt;Node19 -->
<g id="edge25" class="edge"><title>Node34&#45;&gt;Node19</title>
<path fill="none" stroke="midnightblue" d="M532.591,-159.329C522.777,-144.303 506.659,-123.403 487,-112 422.763,-74.7397 333.386,-67.6726 286.53,-66.7298"/>
<polygon fill="midnightblue" stroke="midnightblue" points="529.852,-161.552 538.104,-168.196 535.796,-157.856 529.852,-161.552"/>
</g>
<!-- Node36 -->
<g id="node21" class="node"><title>Node36</title>
<g id="a_node21"><a xlink:href="api_2schedule_8h.html" target="_top" xlink:title="ODP schedule. ">
<polygon fill="white" stroke="black" points="121,-224.5 121,-243.5 189,-243.5 189,-224.5 121,-224.5"/>
<text text-anchor="middle" x="155" y="-231.5" font-family="Helvetica,sans-Serif" font-size="10.00">schedule.h</text>
</a>
</g>
</g>
<!-- Node35&#45;&gt;Node36 -->
<g id="edge28" class="edge"><title>Node35&#45;&gt;Node36</title>
<path fill="none" stroke="midnightblue" d="M155,-381.93C155,-345.92 155,-269.231 155,-243.568"/>
<polygon fill="midnightblue" stroke="midnightblue" points="151.5,-382.075 155,-392.075 158.5,-382.075 151.5,-382.075"/>
</g>
<!-- Node36&#45;&gt;Node19 -->
<g id="edge29" class="edge"><title>Node36&#45;&gt;Node19</title>
<path fill="none" stroke="midnightblue" d="M159.381,-214.453C165.912,-189.479 179.964,-144.436 203,-112 213.646,-97.01 230.301,-83.7704 241.883,-75.5997"/>
<polygon fill="midnightblue" stroke="midnightblue" points="155.925,-213.849 156.904,-224.398 162.717,-215.54 155.925,-213.849"/>
</g>
<!-- Node38 -->
<g id="node23" class="node"><title>Node38</title>
<g id="a_node23"><a xlink:href="api_2packet__flags_8h.html" target="_top" xlink:title="ODP packet flags. ">
<polygon fill="white" stroke="black" points="562,-112.5 562,-131.5 648,-131.5 648,-112.5 562,-112.5"/>
<text text-anchor="middle" x="605" y="-119.5" font-family="Helvetica,sans-Serif" font-size="10.00">packet_flags.h</text>
</a>
</g>
</g>
<!-- Node37&#45;&gt;Node38 -->
<g id="edge34" class="edge"><title>Node37&#45;&gt;Node38</title>
<path fill="none" stroke="midnightblue" d="M542.99,-555.022C570.84,-536.786 613,-502.068 613,-459 613,-459 613,-459 613,-233 613,-195.088 608.214,-150.018 606.046,-131.542"/>
<polygon fill="midnightblue" stroke="midnightblue" points="541.12,-552.063 534.522,-560.353 544.849,-557.987 541.12,-552.063"/>
</g>
<!-- Node38&#45;&gt;Node19 -->
<g id="edge35" class="edge"><title>Node38&#45;&gt;Node19</title>
<path fill="none" stroke="midnightblue" d="M551.713,-112.779C477.924,-101.394 346.94,-81.185 286.797,-71.9059"/>
<polygon fill="midnightblue" stroke="midnightblue" points="551.315,-116.259 561.732,-114.324 552.383,-109.34 551.315,-116.259"/>
</g>
</g>
</svg>
