<?xml version="1.0" encoding="UTF-8" standalone="no"?>
<!DOCTYPE svg PUBLIC "-//W3C//DTD SVG 1.1//EN"
 "http://www.w3.org/Graphics/SVG/1.1/DTD/svg11.dtd">
<!-- Generated by graphviz version 2.38.0 (20140413.2041)
 -->
<!-- Title: thrmask.h Pages: 1 -->
<svg width="106pt" height="252pt"
 viewBox="0.00 0.00 105.50 252.00" xmlns="http://www.w3.org/2000/svg" xmlns:xlink="http://www.w3.org/1999/xlink">
<g id="graph0" class="graph" transform="scale(1 1) rotate(0) translate(4 248)">
<title>thrmask.h</title>
<polygon fill="white" stroke="none" points="-4,4 -4,-248 101.5,-248 101.5,4 -4,4"/>
<!-- Node9 -->
<g id="node1" class="node"><title>Node9</title>
<polygon fill="#bfbfbf" stroke="black" points="32.5,-224.5 32.5,-243.5 97.5,-243.5 97.5,-224.5 32.5,-224.5"/>
<text text-anchor="middle" x="65" y="-231.5" font-family="Helvetica,sans-Serif" font-size="10.00">thrmask.h</text>
</g>
<!-- Node10 -->
<g id="node2" class="node"><title>Node10</title>
<g id="a_node2"><a xlink:href="api_2spec_2schedule_8h.html" target="_top" xlink:title="ODP schedule. ">
<polygon fill="white" stroke="black" points="0,-168.5 0,-187.5 68,-187.5 68,-168.5 0,-168.5"/>
<text text-anchor="middle" x="34" y="-175.5" font-family="Helvetica,sans-Serif" font-size="10.00">schedule.h</text>
</a>
</g>
</g>
<!-- Node9&#45;&gt;Node10 -->
<g id="edge1" class="edge"><title>Node9&#45;&gt;Node10</title>
<path fill="none" stroke="midnightblue" d="M54.8244,-215.275C49.5261,-206.045 43.283,-195.17 39.0238,-187.751"/>
<polygon fill="midnightblue" stroke="midnightblue" points="51.8669,-217.153 59.881,-224.083 57.9376,-213.668 51.8669,-217.153"/>
</g>
<!-- Node12 -->
<g id="node4" class="node"><title>Node12</title>
<g id="a_node4"><a xlink:href="odp__api_8h.html" target="_top" xlink:title="The OpenDataPlane API. ">
<polygon fill="white" stroke="black" points="33.5,-56.5 33.5,-75.5 96.5,-75.5 96.5,-56.5 33.5,-56.5"/>
<text text-anchor="middle" x="65" y="-63.5" font-family="Helvetica,sans-Serif" font-size="10.00">odp_api.h</text>
</a>
</g>
</g>
<!-- Node9&#45;&gt;Node12 -->
<g id="edge5" class="edge"><title>Node9&#45;&gt;Node12</title>
<path fill="none" stroke="midnightblue" d="M71.1297,-214.39C73.4663,-206.367 75.8444,-196.819 77,-188 81.3888,-154.509 81.3888,-145.491 77,-112 75.3191,-99.1729 71.0518,-84.8015 68.0877,-75.8268"/>
<polygon fill="midnightblue" stroke="midnightblue" points="67.7148,-213.585 68.0877,-224.173 74.3991,-215.663 67.7148,-213.585"/>
</g>
<!-- Node11 -->
<g id="node3" class="node"><title>Node11</title>
<g id="a_node3"><a xlink:href="api_2schedule_8h.html" target="_top" xlink:title="ODP schedule. ">
<polygon fill="white" stroke="black" points="0,-112.5 0,-131.5 68,-131.5 68,-112.5 0,-112.5"/>
<text text-anchor="middle" x="34" y="-119.5" font-family="Helvetica,sans-Serif" font-size="10.00">schedule.h</text>
</a>
</g>
</g>
<!-- Node10&#45;&gt;Node11 -->
<g id="edge2" class="edge"><title>Node10&#45;&gt;Node11</title>
<path fill="none" stroke="midnightblue" d="M34,-157.805C34,-148.91 34,-138.78 34,-131.751"/>
<polygon fill="midnightblue" stroke="midnightblue" points="30.5001,-158.083 34,-168.083 37.5001,-158.083 30.5001,-158.083"/>
</g>
<!-- Node11&#45;&gt;Node12 -->
<g id="edge3" class="edge"><title>Node11&#45;&gt;Node12</title>
<path fill="none" stroke="midnightblue" d="M44.1756,-103.275C49.4739,-94.0454 55.717,-83.1703 59.9762,-75.7511"/>
<polygon fill="midnightblue" stroke="midnightblue" points="41.0624,-101.668 39.119,-112.083 47.1331,-105.153 41.0624,-101.668"/>
</g>
<!-- Node13 -->
<g id="node5" class="node"><title>Node13</title>
<g id="a_node5"><a xlink:href="odp_8h.html" target="_top" xlink:title="WARNING: THIS FILE IS DEPRECATED AND WILL BE REMOVED!!! ODP APPLICATIONS SHOULD NOW INCLUDE odp_api...">
<polygon fill="white" stroke="black" points="43,-0.5 43,-19.5 87,-19.5 87,-0.5 43,-0.5"/>
<text text-anchor="middle" x="65" y="-7.5" font-family="Helvetica,sans-Serif" font-size="10.00">odp.h</text>
</a>
</g>
</g>
<!-- Node12&#45;&gt;Node13 -->
<g id="edge4" class="edge"><title>Node12&#45;&gt;Node13</title>
<path fill="none" stroke="midnightblue" d="M65,-45.8045C65,-36.9102 65,-26.7798 65,-19.7511"/>
<polygon fill="midnightblue" stroke="midnightblue" points="61.5001,-46.083 65,-56.083 68.5001,-46.083 61.5001,-46.083"/>
</g>
</g>
</svg>
