<?xml version="1.0" encoding="UTF-8" standalone="no"?>
<!DOCTYPE svg PUBLIC "-//W3C//DTD SVG 1.1//EN"
 "http://www.w3.org/Graphics/SVG/1.1/DTD/svg11.dtd">
<!-- Generated by graphviz version 2.38.0 (20140413.2041)
 -->
<!-- Title: stash.h Pages: 1 -->
<svg width="416pt" height="252pt"
 viewBox="0.00 0.00 416.00 252.00" xmlns="http://www.w3.org/2000/svg" xmlns:xlink="http://www.w3.org/1999/xlink">
<g id="graph0" class="graph" transform="scale(1 1) rotate(0) translate(4 248)">
<title>stash.h</title>
<polygon fill="white" stroke="none" points="-4,4 -4,-248 412,-248 412,4 -4,4"/>
<!-- Node0 -->
<g id="node1" class="node"><title>Node0</title>
<polygon fill="#bfbfbf" stroke="black" points="92.5,-224.5 92.5,-243.5 144.5,-243.5 144.5,-224.5 92.5,-224.5"/>
<text text-anchor="middle" x="118.5" y="-231.5" font-family="Helvetica,sans-Serif" font-size="10.00">stash.h</text>
</g>
<!-- Node1 -->
<g id="node2" class="node"><title>Node1</title>
<polygon fill="white" stroke="#bfbfbf" points="0,-168.5 0,-187.5 107,-187.5 107,-168.5 0,-168.5"/>
<text text-anchor="middle" x="53.5" y="-175.5" font-family="Helvetica,sans-Serif" font-size="10.00">odp/api/abi/stash.h</text>
</g>
<!-- Node0&#45;&gt;Node1 -->
<g id="edge1" class="edge"><title>Node0&#45;&gt;Node1</title>
<path fill="none" stroke="midnightblue" d="M108.057,-224.324C98.3538,-216.263 83.6847,-204.077 72.0003,-194.369"/>
<polygon fill="midnightblue" stroke="midnightblue" points="74.0619,-191.532 64.1334,-187.834 69.5887,-196.916 74.0619,-191.532"/>
</g>
<!-- Node2 -->
<g id="node3" class="node"><title>Node2</title>
<g id="a_node3"><a xlink:href="api_2spec_2stash_8h.html" target="_top" xlink:title="ODP stash. ">
<polygon fill="white" stroke="black" points="125.5,-168.5 125.5,-187.5 241.5,-187.5 241.5,-168.5 125.5,-168.5"/>
<text text-anchor="middle" x="183.5" y="-175.5" font-family="Helvetica,sans-Serif" font-size="10.00">odp/api/spec/stash.h</text>
</a>
</g>
</g>
<!-- Node0&#45;&gt;Node2 -->
<g id="edge2" class="edge"><title>Node0&#45;&gt;Node2</title>
<path fill="none" stroke="midnightblue" d="M128.943,-224.324C138.646,-216.263 153.315,-204.077 165,-194.369"/>
<polygon fill="midnightblue" stroke="midnightblue" points="167.411,-196.916 172.867,-187.834 162.938,-191.532 167.411,-196.916"/>
</g>
<!-- Node3 -->
<g id="node4" class="node"><title>Node3</title>
<g id="a_node4"><a xlink:href="visibility__begin_8h_source.html" target="_top" xlink:title="odp/visibility_begin.h">
<polygon fill="white" stroke="black" points="28,-0.5 28,-19.5 143,-19.5 143,-0.5 28,-0.5"/>
<text text-anchor="middle" x="85.5" y="-7.5" font-family="Helvetica,sans-Serif" font-size="10.00">odp/visibility_begin.h</text>
</a>
</g>
</g>
<!-- Node2&#45;&gt;Node3 -->
<g id="edge3" class="edge"><title>Node2&#45;&gt;Node3</title>
<path fill="none" stroke="midnightblue" d="M158.445,-168.447C123.504,-154.998 61.5078,-125.235 35.5,-76 25.4422,-56.9595 44.7225,-37.7286 62.1847,-25.1787"/>
<polygon fill="midnightblue" stroke="midnightblue" points="64.1431,-28.0795 70.4745,-19.5846 60.2275,-22.2771 64.1431,-28.0795"/>
</g>
<!-- Node4 -->
<g id="node5" class="node"><title>Node4</title>
<g id="a_node5"><a xlink:href="api_2std__types_8h.html" target="_top" xlink:title="Standard C language types and definitions for ODP. ">
<polygon fill="white" stroke="black" points="128.5,-112.5 128.5,-131.5 238.5,-131.5 238.5,-112.5 128.5,-112.5"/>
<text text-anchor="middle" x="183.5" y="-119.5" font-family="Helvetica,sans-Serif" font-size="10.00">odp/api/std_types.h</text>
</a>
</g>
</g>
<!-- Node2&#45;&gt;Node4 -->
<g id="edge4" class="edge"><title>Node2&#45;&gt;Node4</title>
<path fill="none" stroke="midnightblue" d="M183.5,-168.083C183.5,-161.006 183.5,-150.861 183.5,-141.986"/>
<polygon fill="midnightblue" stroke="midnightblue" points="187,-141.751 183.5,-131.751 180,-141.751 187,-141.751"/>
</g>
<!-- Node8 -->
<g id="node9" class="node"><title>Node8</title>
<g id="a_node9"><a xlink:href="visibility__end_8h_source.html" target="_top" xlink:title="odp/visibility_end.h">
<polygon fill="white" stroke="black" points="301,-0.5 301,-19.5 408,-19.5 408,-0.5 301,-0.5"/>
<text text-anchor="middle" x="354.5" y="-7.5" font-family="Helvetica,sans-Serif" font-size="10.00">odp/visibility_end.h</text>
</a>
</g>
</g>
<!-- Node2&#45;&gt;Node8 -->
<g id="edge10" class="edge"><title>Node2&#45;&gt;Node8</title>
<path fill="none" stroke="midnightblue" d="M205.148,-168.438C238.23,-154.245 301.138,-122.701 335.5,-76 345.407,-62.5352 350.171,-43.9757 352.448,-30.1347"/>
<polygon fill="midnightblue" stroke="midnightblue" points="355.969,-30.2109 353.834,-19.8334 349.031,-29.2772 355.969,-30.2109"/>
</g>
<!-- Node5 -->
<g id="node6" class="node"><title>Node5</title>
<polygon fill="white" stroke="#bfbfbf" points="44.5,-56.5 44.5,-75.5 172.5,-75.5 172.5,-56.5 44.5,-56.5"/>
<text text-anchor="middle" x="108.5" y="-63.5" font-family="Helvetica,sans-Serif" font-size="10.00">odp/api/abi/std_types.h</text>
</g>
<!-- Node4&#45;&gt;Node5 -->
<g id="edge5" class="edge"><title>Node4&#45;&gt;Node5</title>
<path fill="none" stroke="midnightblue" d="M171.45,-112.324C160.037,-104.107 142.669,-91.6017 129.065,-81.8069"/>
<polygon fill="midnightblue" stroke="midnightblue" points="130.93,-78.8366 120.769,-75.8339 126.84,-84.5174 130.93,-78.8366"/>
</g>
<!-- Node6 -->
<g id="node7" class="node"><title>Node6</title>
<g id="a_node7"><a xlink:href="api_2spec_2std__types_8h.html" target="_top" xlink:title="Standard C language types and definitions for ODP. ">
<polygon fill="white" stroke="black" points="190.5,-56.5 190.5,-75.5 326.5,-75.5 326.5,-56.5 190.5,-56.5"/>
<text text-anchor="middle" x="258.5" y="-63.5" font-family="Helvetica,sans-Serif" font-size="10.00">odp/api/spec/std_types.h</text>
</a>
</g>
</g>
<!-- Node4&#45;&gt;Node6 -->
<g id="edge6" class="edge"><title>Node4&#45;&gt;Node6</title>
<path fill="none" stroke="midnightblue" d="M195.55,-112.324C206.963,-104.107 224.331,-91.6017 237.935,-81.8069"/>
<polygon fill="midnightblue" stroke="midnightblue" points="240.16,-84.5174 246.231,-75.8339 236.07,-78.8366 240.16,-84.5174"/>
</g>
<!-- Node6&#45;&gt;Node3 -->
<g id="edge7" class="edge"><title>Node6&#45;&gt;Node3</title>
<path fill="none" stroke="midnightblue" d="M231.088,-56.4435C201.731,-47.2801 154.981,-32.6876 122.404,-22.5192"/>
<polygon fill="midnightblue" stroke="midnightblue" points="123.373,-19.1551 112.784,-19.5164 121.287,-25.8371 123.373,-19.1551"/>
</g>
<!-- Node7 -->
<g id="node8" class="node"><title>Node7</title>
<polygon fill="white" stroke="#bfbfbf" points="230,-0.5 230,-19.5 283,-19.5 283,-0.5 230,-0.5"/>
<text text-anchor="middle" x="256.5" y="-7.5" font-family="Helvetica,sans-Serif" font-size="10.00">stdint.h</text>
</g>
<!-- Node6&#45;&gt;Node7 -->
<g id="edge8" class="edge"><title>Node6&#45;&gt;Node7</title>
<path fill="none" stroke="midnightblue" d="M258.17,-56.083C257.908,-49.0059 257.532,-38.8611 257.203,-29.9865"/>
<polygon fill="midnightblue" stroke="midnightblue" points="260.692,-29.6147 256.824,-19.7511 253.697,-29.8738 260.692,-29.6147"/>
</g>
<!-- Node6&#45;&gt;Node8 -->
<g id="edge9" class="edge"><title>Node6&#45;&gt;Node8</title>
<path fill="none" stroke="midnightblue" d="M273.924,-56.324C289.04,-47.8215 312.315,-34.7288 329.971,-24.7975"/>
<polygon fill="midnightblue" stroke="midnightblue" points="332.114,-27.6077 339.114,-19.6545 328.683,-21.5066 332.114,-27.6077"/>
</g>
</g>
</svg>
