<?xml version="1.0" encoding="UTF-8" standalone="no"?>
<!DOCTYPE svg PUBLIC "-//W3C//DTD SVG 1.1//EN"
 "http://www.w3.org/Graphics/SVG/1.1/DTD/svg11.dtd">
<!-- Generated by graphviz version 2.38.0 (20140413.2041)
 -->
<!-- Title: align.h Pages: 1 -->
<svg width="1833pt" height="588pt"
 viewBox="0.00 0.00 1832.50 588.00" xmlns="http://www.w3.org/2000/svg" xmlns:xlink="http://www.w3.org/1999/xlink">
<g id="graph0" class="graph" transform="scale(1 1) rotate(0) translate(4 584)">
<title>align.h</title>
<polygon fill="white" stroke="none" points="-4,4 -4,-584 1828.5,-584 1828.5,4 -4,4"/>
<!-- Node2 -->
<g id="node1" class="node"><title>Node2</title>
<polygon fill="#bfbfbf" stroke="black" points="983,-560.5 983,-579.5 1031,-579.5 1031,-560.5 983,-560.5"/>
<text text-anchor="middle" x="1007" y="-567.5" font-family="Helvetica,sans-Serif" font-size="10.00">align.h</text>
</g>
<!-- Node3 -->
<g id="node2" class="node"><title>Node3</title>
<g id="a_node2"><a xlink:href="arch_2arm32-linux_2odp_2api_2abi_2align_8h_source.html" target="_top" xlink:title="align.h">
<polygon fill="white" stroke="black" points="785,-504.5 785,-523.5 833,-523.5 833,-504.5 785,-504.5"/>
<text text-anchor="middle" x="809" y="-511.5" font-family="Helvetica,sans-Serif" font-size="10.00">align.h</text>
</a>
</g>
</g>
<!-- Node2&#45;&gt;Node3 -->
<g id="edge1" class="edge"><title>Node2&#45;&gt;Node3</title>
<path fill="none" stroke="midnightblue" d="M972.924,-559.707C933.086,-548.842 868.157,-531.134 833.167,-521.591"/>
<polygon fill="midnightblue" stroke="midnightblue" points="972.153,-563.124 982.721,-562.379 973.995,-556.371 972.153,-563.124"/>
</g>
<!-- Node4 -->
<g id="node3" class="node"><title>Node4</title>
<g id="a_node3"><a xlink:href="arch_2arm64-linux_2odp_2api_2abi_2align_8h_source.html" target="_top" xlink:title="align.h">
<polygon fill="white" stroke="black" points="851,-504.5 851,-523.5 899,-523.5 899,-504.5 851,-504.5"/>
<text text-anchor="middle" x="875" y="-511.5" font-family="Helvetica,sans-Serif" font-size="10.00">align.h</text>
</a>
</g>
</g>
<!-- Node2&#45;&gt;Node4 -->
<g id="edge2" class="edge"><title>Node2&#45;&gt;Node4</title>
<path fill="none" stroke="midnightblue" d="M976.781,-556.638C952.01,-546.504 917.6,-532.427 895.818,-523.516"/>
<polygon fill="midnightblue" stroke="midnightblue" points="975.503,-559.897 986.084,-560.444 978.154,-553.418 975.503,-559.897"/>
</g>
<!-- Node5 -->
<g id="node4" class="node"><title>Node5</title>
<g id="a_node4"><a xlink:href="arch_2default-linux_2odp_2api_2abi_2align_8h_source.html" target="_top" xlink:title="align.h">
<polygon fill="white" stroke="black" points="917,-504.5 917,-523.5 965,-523.5 965,-504.5 917,-504.5"/>
<text text-anchor="middle" x="941" y="-511.5" font-family="Helvetica,sans-Serif" font-size="10.00">align.h</text>
</a>
</g>
</g>
<!-- Node2&#45;&gt;Node5 -->
<g id="edge3" class="edge"><title>Node2&#45;&gt;Node5</title>
<path fill="none" stroke="midnightblue" d="M988.446,-553.82C976.622,-544.145 961.714,-531.948 951.797,-523.834"/>
<polygon fill="midnightblue" stroke="midnightblue" points="986.44,-556.7 996.396,-560.324 990.873,-551.283 986.44,-556.7"/>
</g>
<!-- Node6 -->
<g id="node5" class="node"><title>Node6</title>
<g id="a_node5"><a xlink:href="arch_2mips64-linux_2odp_2api_2abi_2align_8h_source.html" target="_top" xlink:title="align.h">
<polygon fill="white" stroke="black" points="983,-504.5 983,-523.5 1031,-523.5 1031,-504.5 983,-504.5"/>
<text text-anchor="middle" x="1007" y="-511.5" font-family="Helvetica,sans-Serif" font-size="10.00">align.h</text>
</a>
</g>
</g>
<!-- Node2&#45;&gt;Node6 -->
<g id="edge4" class="edge"><title>Node2&#45;&gt;Node6</title>
<path fill="none" stroke="midnightblue" d="M1007,-549.805C1007,-540.91 1007,-530.78 1007,-523.751"/>
<polygon fill="midnightblue" stroke="midnightblue" points="1003.5,-550.083 1007,-560.083 1010.5,-550.083 1003.5,-550.083"/>
</g>
<!-- Node7 -->
<g id="node6" class="node"><title>Node7</title>
<g id="a_node6"><a xlink:href="arch_2power64-linux_2odp_2api_2abi_2align_8h_source.html" target="_top" xlink:title="align.h">
<polygon fill="white" stroke="black" points="1049,-504.5 1049,-523.5 1097,-523.5 1097,-504.5 1049,-504.5"/>
<text text-anchor="middle" x="1073" y="-511.5" font-family="Helvetica,sans-Serif" font-size="10.00">align.h</text>
</a>
</g>
</g>
<!-- Node2&#45;&gt;Node7 -->
<g id="edge5" class="edge"><title>Node2&#45;&gt;Node7</title>
<path fill="none" stroke="midnightblue" d="M1025.55,-553.82C1037.38,-544.145 1052.29,-531.948 1062.2,-523.834"/>
<polygon fill="midnightblue" stroke="midnightblue" points="1023.13,-551.283 1017.6,-560.324 1027.56,-556.7 1023.13,-551.283"/>
</g>
<!-- Node8 -->
<g id="node7" class="node"><title>Node8</title>
<g id="a_node7"><a xlink:href="arch_2x86__32-linux_2odp_2api_2abi_2align_8h_source.html" target="_top" xlink:title="align.h">
<polygon fill="white" stroke="black" points="1115,-504.5 1115,-523.5 1163,-523.5 1163,-504.5 1115,-504.5"/>
<text text-anchor="middle" x="1139" y="-511.5" font-family="Helvetica,sans-Serif" font-size="10.00">align.h</text>
</a>
</g>
</g>
<!-- Node2&#45;&gt;Node8 -->
<g id="edge6" class="edge"><title>Node2&#45;&gt;Node8</title>
<path fill="none" stroke="midnightblue" d="M1037.22,-556.638C1061.99,-546.504 1096.4,-532.427 1118.18,-523.516"/>
<polygon fill="midnightblue" stroke="midnightblue" points="1035.85,-553.418 1027.92,-560.444 1038.5,-559.897 1035.85,-553.418"/>
</g>
<!-- Node9 -->
<g id="node8" class="node"><title>Node9</title>
<g id="a_node8"><a xlink:href="arch_2x86__64-linux_2odp_2api_2abi_2align_8h_source.html" target="_top" xlink:title="align.h">
<polygon fill="white" stroke="black" points="1181,-504.5 1181,-523.5 1229,-523.5 1229,-504.5 1181,-504.5"/>
<text text-anchor="middle" x="1205" y="-511.5" font-family="Helvetica,sans-Serif" font-size="10.00">align.h</text>
</a>
</g>
</g>
<!-- Node2&#45;&gt;Node9 -->
<g id="edge7" class="edge"><title>Node2&#45;&gt;Node9</title>
<path fill="none" stroke="midnightblue" d="M1041.08,-559.707C1080.91,-548.842 1145.84,-531.134 1180.83,-521.591"/>
<polygon fill="midnightblue" stroke="midnightblue" points="1040.01,-556.371 1031.28,-562.379 1041.85,-563.124 1040.01,-556.371"/>
</g>
<!-- Node10 -->
<g id="node9" class="node"><title>Node10</title>
<g id="a_node9"><a xlink:href="api_2align_8h.html" target="_top" xlink:title="ODP alignments. ">
<polygon fill="white" stroke="black" points="1181,-448.5 1181,-467.5 1229,-467.5 1229,-448.5 1181,-448.5"/>
<text text-anchor="middle" x="1205" y="-455.5" font-family="Helvetica,sans-Serif" font-size="10.00">align.h</text>
</a>
</g>
</g>
<!-- Node9&#45;&gt;Node10 -->
<g id="edge8" class="edge"><title>Node9&#45;&gt;Node10</title>
<path fill="none" stroke="midnightblue" d="M1205,-493.805C1205,-484.91 1205,-474.78 1205,-467.751"/>
<polygon fill="midnightblue" stroke="midnightblue" points="1201.5,-494.083 1205,-504.083 1208.5,-494.083 1201.5,-494.083"/>
</g>
<!-- Node11 -->
<g id="node10" class="node"><title>Node11</title>
<g id="a_node10"><a xlink:href="api_2abi-default_2atomic_8h.html" target="_top" xlink:title="ODP atomic operations. ">
<polygon fill="white" stroke="black" points="635.5,-392.5 635.5,-411.5 694.5,-411.5 694.5,-392.5 635.5,-392.5"/>
<text text-anchor="middle" x="665" y="-399.5" font-family="Helvetica,sans-Serif" font-size="10.00">atomic.h</text>
</a>
</g>
</g>
<!-- Node10&#45;&gt;Node11 -->
<g id="edge9" class="edge"><title>Node10&#45;&gt;Node11</title>
<path fill="none" stroke="midnightblue" d="M1170.7,-453.57C1071.83,-443.683 787.441,-415.244 694.661,-405.966"/>
<polygon fill="midnightblue" stroke="midnightblue" points="1170.45,-457.062 1180.75,-454.575 1171.15,-450.097 1170.45,-457.062"/>
</g>
<!-- Node29 -->
<g id="node28" class="node"><title>Node29</title>
<g id="a_node28"><a xlink:href="odp__api_8h.html" target="_top" xlink:title="The OpenDataPlane API. ">
<polygon fill="white" stroke="black" points="853.5,-56.5 853.5,-75.5 916.5,-75.5 916.5,-56.5 853.5,-56.5"/>
<text text-anchor="middle" x="885" y="-63.5" font-family="Helvetica,sans-Serif" font-size="10.00">odp_api.h</text>
</a>
</g>
</g>
<!-- Node10&#45;&gt;Node29 -->
<g id="edge53" class="edge"><title>Node10&#45;&gt;Node29</title>
<path fill="none" stroke="midnightblue" d="M1205,-438.251C1205,-416.357 1205,-379.052 1205,-347 1205,-347 1205,-347 1205,-177 1205,-116.418 997.29,-82.053 916.559,-70.9844"/>
<polygon fill="midnightblue" stroke="midnightblue" points="1201.5,-438.442 1205,-448.442 1208.5,-438.442 1201.5,-438.442"/>
</g>
<!-- Node58 -->
<g id="node40" class="node"><title>Node58</title>
<g id="a_node40"><a xlink:href="api_2abi-default_2cpumask_8h.html" target="_top" xlink:title="ODP CPU masks and enumeration. ">
<polygon fill="white" stroke="black" points="1450.5,-392.5 1450.5,-411.5 1519.5,-411.5 1519.5,-392.5 1450.5,-392.5"/>
<text text-anchor="middle" x="1485" y="-399.5" font-family="Helvetica,sans-Serif" font-size="10.00">cpumask.h</text>
</a>
</g>
</g>
<!-- Node10&#45;&gt;Node58 -->
<g id="edge41" class="edge"><title>Node10&#45;&gt;Node58</title>
<path fill="none" stroke="midnightblue" d="M1239.41,-450.365C1293.08,-440.012 1396.19,-420.128 1450.14,-409.723"/>
<polygon fill="midnightblue" stroke="midnightblue" points="1238.51,-446.972 1229.36,-452.302 1239.84,-453.845 1238.51,-446.972"/>
</g>
<!-- Node12 -->
<g id="node11" class="node"><title>Node12</title>
<g id="a_node11"><a xlink:href="arch_2arm32-linux_2odp_2api_2abi_2atomic_8h_source.html" target="_top" xlink:title="atomic.h">
<polygon fill="white" stroke="black" points="365.5,-336.5 365.5,-355.5 424.5,-355.5 424.5,-336.5 365.5,-336.5"/>
<text text-anchor="middle" x="395" y="-343.5" font-family="Helvetica,sans-Serif" font-size="10.00">atomic.h</text>
</a>
</g>
</g>
<!-- Node11&#45;&gt;Node12 -->
<g id="edge10" class="edge"><title>Node11&#45;&gt;Node12</title>
<path fill="none" stroke="midnightblue" d="M625.521,-393.737C579.463,-385.165 501.063,-370.266 434,-356 431.009,-355.364 427.895,-354.681 424.787,-353.985"/>
<polygon fill="midnightblue" stroke="midnightblue" points="624.927,-397.186 635.397,-395.57 626.204,-390.304 624.927,-397.186"/>
</g>
<!-- Node13 -->
<g id="node12" class="node"><title>Node13</title>
<g id="a_node12"><a xlink:href="arch_2arm64-linux_2odp_2api_2abi_2atomic_8h_source.html" target="_top" xlink:title="atomic.h">
<polygon fill="white" stroke="black" points="442.5,-336.5 442.5,-355.5 501.5,-355.5 501.5,-336.5 442.5,-336.5"/>
<text text-anchor="middle" x="472" y="-343.5" font-family="Helvetica,sans-Serif" font-size="10.00">atomic.h</text>
</a>
</g>
</g>
<!-- Node11&#45;&gt;Node13 -->
<g id="edge11" class="edge"><title>Node11&#45;&gt;Node13</title>
<path fill="none" stroke="midnightblue" d="M625.401,-389.92C588.705,-379.653 534.933,-364.608 501.767,-355.329"/>
<polygon fill="midnightblue" stroke="midnightblue" points="624.693,-393.357 635.267,-392.681 626.58,-386.616 624.693,-393.357"/>
</g>
<!-- Node14 -->
<g id="node13" class="node"><title>Node14</title>
<g id="a_node13"><a xlink:href="arch_2default-linux_2odp_2api_2abi_2atomic_8h_source.html" target="_top" xlink:title="atomic.h">
<polygon fill="white" stroke="black" points="519.5,-336.5 519.5,-355.5 578.5,-355.5 578.5,-336.5 519.5,-336.5"/>
<text text-anchor="middle" x="549" y="-343.5" font-family="Helvetica,sans-Serif" font-size="10.00">atomic.h</text>
</a>
</g>
</g>
<!-- Node11&#45;&gt;Node14 -->
<g id="edge12" class="edge"><title>Node11&#45;&gt;Node14</title>
<path fill="none" stroke="midnightblue" d="M637.28,-388.096C615.608,-378.007 586.098,-364.27 567.295,-355.516"/>
<polygon fill="midnightblue" stroke="midnightblue" points="636.077,-391.396 646.619,-392.444 639.031,-385.05 636.077,-391.396"/>
</g>
<!-- Node15 -->
<g id="node14" class="node"><title>Node15</title>
<g id="a_node14"><a xlink:href="arch_2mips64-linux_2odp_2api_2abi_2atomic_8h_source.html" target="_top" xlink:title="atomic.h">
<polygon fill="white" stroke="black" points="596.5,-336.5 596.5,-355.5 655.5,-355.5 655.5,-336.5 596.5,-336.5"/>
<text text-anchor="middle" x="626" y="-343.5" font-family="Helvetica,sans-Serif" font-size="10.00">atomic.h</text>
</a>
</g>
</g>
<!-- Node11&#45;&gt;Node15 -->
<g id="edge13" class="edge"><title>Node11&#45;&gt;Node15</title>
<path fill="none" stroke="midnightblue" d="M652.618,-383.855C645.865,-374.505 637.791,-363.327 632.32,-355.751"/>
<polygon fill="midnightblue" stroke="midnightblue" points="649.868,-386.025 658.56,-392.083 655.542,-381.927 649.868,-386.025"/>
</g>
<!-- Node16 -->
<g id="node15" class="node"><title>Node16</title>
<g id="a_node15"><a xlink:href="arch_2power64-linux_2odp_2api_2abi_2atomic_8h_source.html" target="_top" xlink:title="atomic.h">
<polygon fill="white" stroke="black" points="673.5,-336.5 673.5,-355.5 732.5,-355.5 732.5,-336.5 673.5,-336.5"/>
<text text-anchor="middle" x="703" y="-343.5" font-family="Helvetica,sans-Serif" font-size="10.00">atomic.h</text>
</a>
</g>
</g>
<!-- Node11&#45;&gt;Node16 -->
<g id="edge14" class="edge"><title>Node11&#45;&gt;Node16</title>
<path fill="none" stroke="midnightblue" d="M677.065,-383.855C683.645,-374.505 691.511,-363.327 696.842,-355.751"/>
<polygon fill="midnightblue" stroke="midnightblue" points="674.168,-381.891 671.275,-392.083 679.892,-385.919 674.168,-381.891"/>
</g>
<!-- Node17 -->
<g id="node16" class="node"><title>Node17</title>
<g id="a_node16"><a xlink:href="arch_2x86__32-linux_2odp_2api_2abi_2atomic_8h_source.html" target="_top" xlink:title="atomic.h">
<polygon fill="white" stroke="black" points="750.5,-336.5 750.5,-355.5 809.5,-355.5 809.5,-336.5 750.5,-336.5"/>
<text text-anchor="middle" x="780" y="-343.5" font-family="Helvetica,sans-Serif" font-size="10.00">atomic.h</text>
</a>
</g>
</g>
<!-- Node11&#45;&gt;Node17 -->
<g id="edge15" class="edge"><title>Node11&#45;&gt;Node17</title>
<path fill="none" stroke="midnightblue" d="M692.481,-388.096C713.966,-378.007 743.222,-364.27 761.863,-355.516"/>
<polygon fill="midnightblue" stroke="midnightblue" points="690.786,-385.025 683.222,-392.444 693.762,-391.361 690.786,-385.025"/>
</g>
<!-- Node18 -->
<g id="node17" class="node"><title>Node18</title>
<g id="a_node17"><a xlink:href="arch_2x86__64-linux_2odp_2api_2abi_2atomic_8h_source.html" target="_top" xlink:title="atomic.h">
<polygon fill="white" stroke="black" points="827.5,-336.5 827.5,-355.5 886.5,-355.5 886.5,-336.5 827.5,-336.5"/>
<text text-anchor="middle" x="857" y="-343.5" font-family="Helvetica,sans-Serif" font-size="10.00">atomic.h</text>
</a>
</g>
</g>
<!-- Node11&#45;&gt;Node18 -->
<g id="edge16" class="edge"><title>Node11&#45;&gt;Node18</title>
<path fill="none" stroke="midnightblue" d="M704.394,-389.92C740.899,-379.653 794.394,-364.608 827.387,-355.329"/>
<polygon fill="midnightblue" stroke="midnightblue" points="703.258,-386.604 694.579,-392.681 705.153,-393.343 703.258,-386.604"/>
</g>
<!-- Node19 -->
<g id="node18" class="node"><title>Node19</title>
<g id="a_node18"><a xlink:href="api_2atomic_8h.html" target="_top" xlink:title="ODP atomic operations. ">
<polygon fill="white" stroke="black" points="637.5,-280.5 637.5,-299.5 696.5,-299.5 696.5,-280.5 637.5,-280.5"/>
<text text-anchor="middle" x="667" y="-287.5" font-family="Helvetica,sans-Serif" font-size="10.00">atomic.h</text>
</a>
</g>
</g>
<!-- Node18&#45;&gt;Node19 -->
<g id="edge17" class="edge"><title>Node18&#45;&gt;Node19</title>
<path fill="none" stroke="midnightblue" d="M817.642,-333.814C781.706,-323.601 729.366,-308.725 696.792,-299.467"/>
<polygon fill="midnightblue" stroke="midnightblue" points="816.737,-337.195 827.312,-336.562 818.65,-330.462 816.737,-337.195"/>
</g>
<!-- Node20 -->
<g id="node19" class="node"><title>Node20</title>
<g id="a_node19"><a xlink:href="api_2abi-default_2barrier_8h.html" target="_top" xlink:title="ODP barrier. ">
<polygon fill="white" stroke="black" points="259,-224.5 259,-243.5 315,-243.5 315,-224.5 259,-224.5"/>
<text text-anchor="middle" x="287" y="-231.5" font-family="Helvetica,sans-Serif" font-size="10.00">barrier.h</text>
</a>
</g>
</g>
<!-- Node19&#45;&gt;Node20 -->
<g id="edge18" class="edge"><title>Node19&#45;&gt;Node20</title>
<path fill="none" stroke="midnightblue" d="M627.242,-283.35C550.136,-272.393 381.998,-248.5 315.188,-239.006"/>
<polygon fill="midnightblue" stroke="midnightblue" points="627.105,-286.866 637.498,-284.808 628.09,-279.935 627.105,-286.866"/>
</g>
<!-- Node28 -->
<g id="node27" class="node"><title>Node28</title>
<g id="a_node27"><a xlink:href="api_2barrier_8h.html" target="_top" xlink:title="ODP execution barriers. ">
<polygon fill="white" stroke="black" points="482,-112.5 482,-131.5 538,-131.5 538,-112.5 482,-112.5"/>
<text text-anchor="middle" x="510" y="-119.5" font-family="Helvetica,sans-Serif" font-size="10.00">barrier.h</text>
</a>
</g>
</g>
<!-- Node19&#45;&gt;Node28 -->
<g id="edge39" class="edge"><title>Node19&#45;&gt;Node28</title>
<path fill="none" stroke="midnightblue" d="M627.611,-282.313C602.907,-276.219 572.051,-264.846 552,-244 520.4,-211.146 512.477,-153.318 510.574,-131.582"/>
<polygon fill="midnightblue" stroke="midnightblue" points="626.9,-285.74 637.427,-284.542 628.451,-278.914 626.9,-285.74"/>
</g>
<!-- Node19&#45;&gt;Node29 -->
<g id="edge40" class="edge"><title>Node19&#45;&gt;Node29</title>
<path fill="none" stroke="midnightblue" d="M644.802,-274.535C612.429,-251.628 558.919,-205.732 586,-168 648.458,-80.9768 789.896,-67.9653 853.26,-66.6756"/>
<polygon fill="midnightblue" stroke="midnightblue" points="643.062,-277.586 653.288,-280.361 647.024,-271.815 643.062,-277.586"/>
</g>
<!-- Node31 -->
<g id="node30" class="node"><title>Node31</title>
<g id="a_node30"><a xlink:href="api_2abi-default_2rwlock_8h.html" target="_top" xlink:title="ODP rwlock. ">
<polygon fill="white" stroke="black" points="776.5,-224.5 776.5,-243.5 831.5,-243.5 831.5,-224.5 776.5,-224.5"/>
<text text-anchor="middle" x="804" y="-231.5" font-family="Helvetica,sans-Serif" font-size="10.00">rwlock.h</text>
</a>
</g>
</g>
<!-- Node19&#45;&gt;Node31 -->
<g id="edge29" class="edge"><title>Node19&#45;&gt;Node31</title>
<path fill="none" stroke="midnightblue" d="M698.023,-276.772C723.757,-266.629 759.686,-252.467 782.394,-243.516"/>
<polygon fill="midnightblue" stroke="midnightblue" points="696.728,-273.52 688.708,-280.444 699.295,-280.033 696.728,-273.52"/>
</g>
<!-- Node49 -->
<g id="node38" class="node"><title>Node49</title>
<g id="a_node38"><a xlink:href="api_2abi-default_2ticketlock_8h.html" target="_top" xlink:title="ODP ticketlock. ">
<polygon fill="white" stroke="red" points="995.5,-224.5 995.5,-243.5 1066.5,-243.5 1066.5,-224.5 995.5,-224.5"/>
<text text-anchor="middle" x="1031" y="-231.5" font-family="Helvetica,sans-Serif" font-size="10.00">ticketlock.h</text>
</a>
</g>
</g>
<!-- Node19&#45;&gt;Node49 -->
<g id="edge37" class="edge"><title>Node19&#45;&gt;Node49</title>
<path fill="none" stroke="midnightblue" d="M706.748,-283.103C778.202,-272.503 927.253,-250.391 995.498,-240.267"/>
<polygon fill="midnightblue" stroke="midnightblue" points="706.166,-279.651 696.788,-284.581 707.193,-286.576 706.166,-279.651"/>
</g>
<!-- Node21 -->
<g id="node20" class="node"><title>Node21</title>
<g id="a_node20"><a xlink:href="arch_2arm32-linux_2odp_2api_2abi_2barrier_8h_source.html" target="_top" xlink:title="barrier.h">
<polygon fill="white" stroke="black" points="0,-168.5 0,-187.5 56,-187.5 56,-168.5 0,-168.5"/>
<text text-anchor="middle" x="28" y="-175.5" font-family="Helvetica,sans-Serif" font-size="10.00">barrier.h</text>
</a>
</g>
</g>
<!-- Node20&#45;&gt;Node21 -->
<g id="edge19" class="edge"><title>Node20&#45;&gt;Node21</title>
<path fill="none" stroke="midnightblue" d="M248.853,-225.732C204.551,-217.184 129.318,-202.336 65,-188 62.1609,-187.367 59.2047,-186.686 56.2555,-185.992"/>
<polygon fill="midnightblue" stroke="midnightblue" points="248.409,-229.211 258.891,-227.663 249.732,-222.337 248.409,-229.211"/>
</g>
<!-- Node22 -->
<g id="node21" class="node"><title>Node22</title>
<g id="a_node21"><a xlink:href="arch_2arm64-linux_2odp_2api_2abi_2barrier_8h_source.html" target="_top" xlink:title="barrier.h">
<polygon fill="white" stroke="black" points="74,-168.5 74,-187.5 130,-187.5 130,-168.5 74,-168.5"/>
<text text-anchor="middle" x="102" y="-175.5" font-family="Helvetica,sans-Serif" font-size="10.00">barrier.h</text>
</a>
</g>
</g>
<!-- Node20&#45;&gt;Node22 -->
<g id="edge20" class="edge"><title>Node20&#45;&gt;Node22</title>
<path fill="none" stroke="midnightblue" d="M248.951,-221.894C213.603,-211.576 161.781,-196.45 130.058,-187.19"/>
<polygon fill="midnightblue" stroke="midnightblue" points="248.322,-225.356 258.902,-224.799 250.284,-218.637 248.322,-225.356"/>
</g>
<!-- Node23 -->
<g id="node22" class="node"><title>Node23</title>
<g id="a_node22"><a xlink:href="arch_2default-linux_2odp_2api_2abi_2barrier_8h_source.html" target="_top" xlink:title="barrier.h">
<polygon fill="white" stroke="black" points="148,-168.5 148,-187.5 204,-187.5 204,-168.5 148,-168.5"/>
<text text-anchor="middle" x="176" y="-175.5" font-family="Helvetica,sans-Serif" font-size="10.00">barrier.h</text>
</a>
</g>
</g>
<!-- Node20&#45;&gt;Node23 -->
<g id="edge21" class="edge"><title>Node20&#45;&gt;Node23</title>
<path fill="none" stroke="midnightblue" d="M259.995,-219.862C239.412,-209.849 211.655,-196.346 193.79,-187.655"/>
<polygon fill="midnightblue" stroke="midnightblue" points="258.642,-223.097 269.166,-224.324 261.705,-216.802 258.642,-223.097"/>
</g>
<!-- Node24 -->
<g id="node23" class="node"><title>Node24</title>
<g id="a_node23"><a xlink:href="arch_2mips64-linux_2odp_2api_2abi_2barrier_8h_source.html" target="_top" xlink:title="barrier.h">
<polygon fill="white" stroke="black" points="222,-168.5 222,-187.5 278,-187.5 278,-168.5 222,-168.5"/>
<text text-anchor="middle" x="250" y="-175.5" font-family="Helvetica,sans-Serif" font-size="10.00">barrier.h</text>
</a>
</g>
</g>
<!-- Node20&#45;&gt;Node24 -->
<g id="edge22" class="edge"><title>Node20&#45;&gt;Node24</title>
<path fill="none" stroke="midnightblue" d="M275.054,-215.566C268.688,-206.275 261.133,-195.248 255.996,-187.751"/>
<polygon fill="midnightblue" stroke="midnightblue" points="272.351,-217.812 280.89,-224.083 278.125,-213.855 272.351,-217.812"/>
</g>
<!-- Node25 -->
<g id="node24" class="node"><title>Node25</title>
<g id="a_node24"><a xlink:href="arch_2power64-linux_2odp_2api_2abi_2barrier_8h_source.html" target="_top" xlink:title="barrier.h">
<polygon fill="white" stroke="black" points="296,-168.5 296,-187.5 352,-187.5 352,-168.5 296,-168.5"/>
<text text-anchor="middle" x="324" y="-175.5" font-family="Helvetica,sans-Serif" font-size="10.00">barrier.h</text>
</a>
</g>
</g>
<!-- Node20&#45;&gt;Node25 -->
<g id="edge23" class="edge"><title>Node20&#45;&gt;Node25</title>
<path fill="none" stroke="midnightblue" d="M298.946,-215.566C305.312,-206.275 312.867,-195.248 318.004,-187.751"/>
<polygon fill="midnightblue" stroke="midnightblue" points="295.875,-213.855 293.11,-224.083 301.649,-217.812 295.875,-213.855"/>
</g>
<!-- Node26 -->
<g id="node25" class="node"><title>Node26</title>
<g id="a_node25"><a xlink:href="arch_2x86__32-linux_2odp_2api_2abi_2barrier_8h_source.html" target="_top" xlink:title="barrier.h">
<polygon fill="white" stroke="black" points="370,-168.5 370,-187.5 426,-187.5 426,-168.5 370,-168.5"/>
<text text-anchor="middle" x="398" y="-175.5" font-family="Helvetica,sans-Serif" font-size="10.00">barrier.h</text>
</a>
</g>
</g>
<!-- Node20&#45;&gt;Node26 -->
<g id="edge24" class="edge"><title>Node20&#45;&gt;Node26</title>
<path fill="none" stroke="midnightblue" d="M314.005,-219.862C334.588,-209.849 362.345,-196.346 380.21,-187.655"/>
<polygon fill="midnightblue" stroke="midnightblue" points="312.295,-216.802 304.834,-224.324 315.358,-223.097 312.295,-216.802"/>
</g>
<!-- Node27 -->
<g id="node26" class="node"><title>Node27</title>
<g id="a_node26"><a xlink:href="arch_2x86__64-linux_2odp_2api_2abi_2barrier_8h_source.html" target="_top" xlink:title="barrier.h">
<polygon fill="white" stroke="black" points="444,-168.5 444,-187.5 500,-187.5 500,-168.5 444,-168.5"/>
<text text-anchor="middle" x="472" y="-175.5" font-family="Helvetica,sans-Serif" font-size="10.00">barrier.h</text>
</a>
</g>
</g>
<!-- Node20&#45;&gt;Node27 -->
<g id="edge25" class="edge"><title>Node20&#45;&gt;Node27</title>
<path fill="none" stroke="midnightblue" d="M325.049,-221.894C360.397,-211.576 412.219,-196.45 443.942,-187.19"/>
<polygon fill="midnightblue" stroke="midnightblue" points="323.716,-218.637 315.098,-224.799 325.678,-225.356 323.716,-218.637"/>
</g>
<!-- Node27&#45;&gt;Node28 -->
<g id="edge26" class="edge"><title>Node27&#45;&gt;Node28</title>
<path fill="none" stroke="midnightblue" d="M484.065,-159.855C490.645,-150.505 498.511,-139.327 503.842,-131.751"/>
<polygon fill="midnightblue" stroke="midnightblue" points="481.168,-157.891 478.275,-168.083 486.892,-161.919 481.168,-157.891"/>
</g>
<!-- Node28&#45;&gt;Node29 -->
<g id="edge27" class="edge"><title>Node28&#45;&gt;Node29</title>
<path fill="none" stroke="midnightblue" d="M548.232,-112.678C549.502,-112.443 550.76,-112.216 552,-112 662.055,-92.8014 793.796,-77.1449 853.194,-70.4742"/>
<polygon fill="midnightblue" stroke="midnightblue" points="547.549,-109.245 538.409,-114.604 548.895,-116.115 547.549,-109.245"/>
</g>
<!-- Node30 -->
<g id="node29" class="node"><title>Node30</title>
<g id="a_node29"><a xlink:href="odp_8h.html" target="_top" xlink:title="WARNING: THIS FILE IS DEPRECATED AND WILL BE REMOVED!!! ODP APPLICATIONS SHOULD NOW INCLUDE odp_api...">
<polygon fill="white" stroke="black" points="863,-0.5 863,-19.5 907,-19.5 907,-0.5 863,-0.5"/>
<text text-anchor="middle" x="885" y="-7.5" font-family="Helvetica,sans-Serif" font-size="10.00">odp.h</text>
</a>
</g>
</g>
<!-- Node29&#45;&gt;Node30 -->
<g id="edge28" class="edge"><title>Node29&#45;&gt;Node30</title>
<path fill="none" stroke="midnightblue" d="M885,-45.8045C885,-36.9102 885,-26.7798 885,-19.7511"/>
<polygon fill="midnightblue" stroke="midnightblue" points="881.5,-46.083 885,-56.083 888.5,-46.083 881.5,-46.083"/>
</g>
<!-- Node32 -->
<g id="node31" class="node"><title>Node32</title>
<g id="a_node31"><a xlink:href="arch_2arm32-linux_2odp_2api_2abi_2rwlock_8h_source.html" target="_top" xlink:title="rwlock.h">
<polygon fill="white" stroke="black" points="594.5,-168.5 594.5,-187.5 649.5,-187.5 649.5,-168.5 594.5,-168.5"/>
<text text-anchor="middle" x="622" y="-175.5" font-family="Helvetica,sans-Serif" font-size="10.00">rwlock.h</text>
</a>
</g>
</g>
<!-- Node31&#45;&gt;Node32 -->
<g id="edge30" class="edge"><title>Node31&#45;&gt;Node32</title>
<path fill="none" stroke="midnightblue" d="M766.568,-221.894C731.793,-211.576 680.812,-196.45 649.603,-187.19"/>
<polygon fill="midnightblue" stroke="midnightblue" points="765.776,-225.309 776.358,-224.799 767.767,-218.599 765.776,-225.309"/>
</g>
<!-- Node33 -->
<g id="node32" class="node"><title>Node33</title>
<g id="a_node32"><a xlink:href="arch_2arm64-linux_2odp_2api_2abi_2rwlock_8h_source.html" target="_top" xlink:title="rwlock.h">
<polygon fill="white" stroke="black" points="667.5,-168.5 667.5,-187.5 722.5,-187.5 722.5,-168.5 667.5,-168.5"/>
<text text-anchor="middle" x="695" y="-175.5" font-family="Helvetica,sans-Serif" font-size="10.00">rwlock.h</text>
</a>
</g>
</g>
<!-- Node31&#45;&gt;Node33 -->
<g id="edge31" class="edge"><title>Node31&#45;&gt;Node33</title>
<path fill="none" stroke="midnightblue" d="M777.481,-219.862C757.27,-209.849 730.013,-196.346 712.469,-187.655"/>
<polygon fill="midnightblue" stroke="midnightblue" points="775.973,-223.021 786.487,-224.324 779.08,-216.748 775.973,-223.021"/>
</g>
<!-- Node34 -->
<g id="node33" class="node"><title>Node34</title>
<g id="a_node33"><a xlink:href="arch_2default-linux_2odp_2api_2abi_2rwlock_8h_source.html" target="_top" xlink:title="rwlock.h">
<polygon fill="white" stroke="black" points="740.5,-168.5 740.5,-187.5 795.5,-187.5 795.5,-168.5 740.5,-168.5"/>
<text text-anchor="middle" x="768" y="-175.5" font-family="Helvetica,sans-Serif" font-size="10.00">rwlock.h</text>
</a>
</g>
</g>
<!-- Node31&#45;&gt;Node34 -->
<g id="edge32" class="edge"><title>Node31&#45;&gt;Node34</title>
<path fill="none" stroke="midnightblue" d="M792.377,-215.566C786.183,-206.275 778.832,-195.248 773.834,-187.751"/>
<polygon fill="midnightblue" stroke="midnightblue" points="789.596,-217.704 798.055,-224.083 795.42,-213.821 789.596,-217.704"/>
</g>
<!-- Node35 -->
<g id="node34" class="node"><title>Node35</title>
<g id="a_node34"><a xlink:href="arch_2mips64-linux_2odp_2api_2abi_2rwlock_8h_source.html" target="_top" xlink:title="rwlock.h">
<polygon fill="white" stroke="black" points="813.5,-168.5 813.5,-187.5 868.5,-187.5 868.5,-168.5 813.5,-168.5"/>
<text text-anchor="middle" x="841" y="-175.5" font-family="Helvetica,sans-Serif" font-size="10.00">rwlock.h</text>
</a>
</g>
</g>
<!-- Node31&#45;&gt;Node35 -->
<g id="edge33" class="edge"><title>Node31&#45;&gt;Node35</title>
<path fill="none" stroke="midnightblue" d="M815.946,-215.566C822.312,-206.275 829.867,-195.248 835.004,-187.751"/>
<polygon fill="midnightblue" stroke="midnightblue" points="812.875,-213.855 810.11,-224.083 818.649,-217.812 812.875,-213.855"/>
</g>
<!-- Node36 -->
<g id="node35" class="node"><title>Node36</title>
<g id="a_node35"><a xlink:href="arch_2power64-linux_2odp_2api_2abi_2rwlock_8h_source.html" target="_top" xlink:title="rwlock.h">
<polygon fill="white" stroke="black" points="886.5,-168.5 886.5,-187.5 941.5,-187.5 941.5,-168.5 886.5,-168.5"/>
<text text-anchor="middle" x="914" y="-175.5" font-family="Helvetica,sans-Serif" font-size="10.00">rwlock.h</text>
</a>
</g>
</g>
<!-- Node31&#45;&gt;Node36 -->
<g id="edge34" class="edge"><title>Node31&#45;&gt;Node36</title>
<path fill="none" stroke="midnightblue" d="M830.762,-219.862C851.159,-209.849 878.666,-196.346 896.37,-187.655"/>
<polygon fill="midnightblue" stroke="midnightblue" points="829.108,-216.775 821.673,-224.324 832.192,-223.059 829.108,-216.775"/>
</g>
<!-- Node37 -->
<g id="node36" class="node"><title>Node37</title>
<g id="a_node36"><a xlink:href="arch_2x86__32-linux_2odp_2api_2abi_2rwlock_8h_source.html" target="_top" xlink:title="rwlock.h">
<polygon fill="white" stroke="black" points="959.5,-168.5 959.5,-187.5 1014.5,-187.5 1014.5,-168.5 959.5,-168.5"/>
<text text-anchor="middle" x="987" y="-175.5" font-family="Helvetica,sans-Serif" font-size="10.00">rwlock.h</text>
</a>
</g>
</g>
<!-- Node31&#45;&gt;Node37 -->
<g id="edge35" class="edge"><title>Node31&#45;&gt;Node37</title>
<path fill="none" stroke="midnightblue" d="M841.637,-221.894C876.604,-211.576 927.865,-196.45 959.245,-187.19"/>
<polygon fill="midnightblue" stroke="midnightblue" points="840.394,-218.611 831.794,-224.799 842.375,-225.325 840.394,-218.611"/>
</g>
<!-- Node38 -->
<g id="node37" class="node"><title>Node38</title>
<g id="a_node37"><a xlink:href="arch_2x86__64-linux_2odp_2api_2abi_2rwlock_8h_source.html" target="_top" xlink:title="rwlock.h">
<polygon fill="white" stroke="red" points="1032.5,-168.5 1032.5,-187.5 1087.5,-187.5 1087.5,-168.5 1032.5,-168.5"/>
<text text-anchor="middle" x="1060" y="-175.5" font-family="Helvetica,sans-Serif" font-size="10.00">rwlock.h</text>
</a>
</g>
</g>
<!-- Node31&#45;&gt;Node38 -->
<g id="edge36" class="edge"><title>Node31&#45;&gt;Node38</title>
<path fill="none" stroke="midnightblue" d="M841.452,-225.851C885.319,-217.36 960.121,-202.511 1024,-188 1026.64,-187.401 1029.38,-186.756 1032.12,-186.096"/>
<polygon fill="midnightblue" stroke="midnightblue" points="840.676,-222.436 831.52,-227.767 842.002,-229.309 840.676,-222.436"/>
</g>
<!-- Node50 -->
<g id="node39" class="node"><title>Node50</title>
<g id="a_node39"><a xlink:href="arch_2arm32-linux_2odp_2api_2abi_2ticketlock_8h_source.html" target="_top" xlink:title="ticketlock.h">
<polygon fill="white" stroke="black" points="1105.5,-168.5 1105.5,-187.5 1176.5,-187.5 1176.5,-168.5 1105.5,-168.5"/>
<text text-anchor="middle" x="1141" y="-175.5" font-family="Helvetica,sans-Serif" font-size="10.00">ticketlock.h</text>
</a>
</g>
</g>
<!-- Node49&#45;&gt;Node50 -->
<g id="edge38" class="edge"><title>Node49&#45;&gt;Node50</title>
<path fill="none" stroke="midnightblue" d="M1057.76,-219.862C1078.16,-209.849 1105.67,-196.346 1123.37,-187.655"/>
<polygon fill="midnightblue" stroke="midnightblue" points="1056.11,-216.775 1048.67,-224.324 1059.19,-223.059 1056.11,-216.775"/>
</g>
<!-- Node59 -->
<g id="node41" class="node"><title>Node59</title>
<g id="a_node41"><a xlink:href="arch_2arm32-linux_2odp_2api_2abi_2cpumask_8h_source.html" target="_top" xlink:title="cpumask.h">
<polygon fill="white" stroke="black" points="1233.5,-336.5 1233.5,-355.5 1302.5,-355.5 1302.5,-336.5 1233.5,-336.5"/>
<text text-anchor="middle" x="1268" y="-343.5" font-family="Helvetica,sans-Serif" font-size="10.00">cpumask.h</text>
</a>
</g>
</g>
<!-- Node58&#45;&gt;Node59 -->
<g id="edge42" class="edge"><title>Node58&#45;&gt;Node59</title>
<path fill="none" stroke="midnightblue" d="M1440.89,-390.024C1399.9,-379.823 1339.7,-364.841 1302.22,-355.516"/>
<polygon fill="midnightblue" stroke="midnightblue" points="1440.07,-393.425 1450.62,-392.444 1441.76,-386.632 1440.07,-393.425"/>
</g>
<!-- Node60 -->
<g id="node42" class="node"><title>Node60</title>
<g id="a_node42"><a xlink:href="arch_2arm64-linux_2odp_2api_2abi_2cpumask_8h_source.html" target="_top" xlink:title="cpumask.h">
<polygon fill="white" stroke="black" points="1320.5,-336.5 1320.5,-355.5 1389.5,-355.5 1389.5,-336.5 1320.5,-336.5"/>
<text text-anchor="middle" x="1355" y="-343.5" font-family="Helvetica,sans-Serif" font-size="10.00">cpumask.h</text>
</a>
</g>
</g>
<!-- Node58&#45;&gt;Node60 -->
<g id="edge43" class="edge"><title>Node58&#45;&gt;Node60</title>
<path fill="none" stroke="midnightblue" d="M1454.91,-388.503C1430.54,-378.38 1396.86,-364.388 1375.5,-355.516"/>
<polygon fill="midnightblue" stroke="midnightblue" points="1453.82,-391.84 1464.4,-392.444 1456.51,-385.375 1453.82,-391.84"/>
</g>
<!-- Node61 -->
<g id="node43" class="node"><title>Node61</title>
<g id="a_node43"><a xlink:href="arch_2default-linux_2odp_2api_2abi_2cpumask_8h_source.html" target="_top" xlink:title="cpumask.h">
<polygon fill="white" stroke="black" points="1407.5,-336.5 1407.5,-355.5 1476.5,-355.5 1476.5,-336.5 1407.5,-336.5"/>
<text text-anchor="middle" x="1442" y="-343.5" font-family="Helvetica,sans-Serif" font-size="10.00">cpumask.h</text>
</a>
</g>
</g>
<!-- Node58&#45;&gt;Node61 -->
<g id="edge44" class="edge"><title>Node58&#45;&gt;Node61</title>
<path fill="none" stroke="midnightblue" d="M1471.58,-384.144C1464.09,-374.736 1455.06,-363.405 1448.97,-355.751"/>
<polygon fill="midnightblue" stroke="midnightblue" points="1468.93,-386.44 1477.9,-392.083 1474.41,-382.08 1468.93,-386.44"/>
</g>
<!-- Node62 -->
<g id="node44" class="node"><title>Node62</title>
<g id="a_node44"><a xlink:href="arch_2mips64-linux_2odp_2api_2abi_2cpumask_8h_source.html" target="_top" xlink:title="cpumask.h">
<polygon fill="white" stroke="black" points="1494.5,-336.5 1494.5,-355.5 1563.5,-355.5 1563.5,-336.5 1494.5,-336.5"/>
<text text-anchor="middle" x="1529" y="-343.5" font-family="Helvetica,sans-Serif" font-size="10.00">cpumask.h</text>
</a>
</g>
</g>
<!-- Node58&#45;&gt;Node62 -->
<g id="edge45" class="edge"><title>Node58&#45;&gt;Node62</title>
<path fill="none" stroke="midnightblue" d="M1498.73,-384.144C1506.4,-374.736 1515.63,-363.405 1521.87,-355.751"/>
<polygon fill="midnightblue" stroke="midnightblue" points="1495.87,-382.12 1492.27,-392.083 1501.3,-386.541 1495.87,-382.12"/>
</g>
<!-- Node63 -->
<g id="node45" class="node"><title>Node63</title>
<g id="a_node45"><a xlink:href="arch_2power64-linux_2odp_2api_2abi_2cpumask_8h_source.html" target="_top" xlink:title="cpumask.h">
<polygon fill="white" stroke="black" points="1581.5,-336.5 1581.5,-355.5 1650.5,-355.5 1650.5,-336.5 1581.5,-336.5"/>
<text text-anchor="middle" x="1616" y="-343.5" font-family="Helvetica,sans-Serif" font-size="10.00">cpumask.h</text>
</a>
</g>
</g>
<!-- Node58&#45;&gt;Node63 -->
<g id="edge46" class="edge"><title>Node58&#45;&gt;Node63</title>
<path fill="none" stroke="midnightblue" d="M1515.32,-388.503C1539.88,-378.38 1573.82,-364.388 1595.34,-355.516"/>
<polygon fill="midnightblue" stroke="midnightblue" points="1513.67,-385.397 1505.76,-392.444 1516.34,-391.868 1513.67,-385.397"/>
</g>
<!-- Node64 -->
<g id="node46" class="node"><title>Node64</title>
<g id="a_node46"><a xlink:href="arch_2x86__32-linux_2odp_2api_2abi_2cpumask_8h_source.html" target="_top" xlink:title="cpumask.h">
<polygon fill="white" stroke="black" points="1668.5,-336.5 1668.5,-355.5 1737.5,-355.5 1737.5,-336.5 1668.5,-336.5"/>
<text text-anchor="middle" x="1703" y="-343.5" font-family="Helvetica,sans-Serif" font-size="10.00">cpumask.h</text>
</a>
</g>
</g>
<!-- Node58&#45;&gt;Node64 -->
<g id="edge47" class="edge"><title>Node58&#45;&gt;Node64</title>
<path fill="none" stroke="midnightblue" d="M1529.31,-390.024C1570.49,-379.823 1630.97,-364.841 1668.62,-355.516"/>
<polygon fill="midnightblue" stroke="midnightblue" points="1528.41,-386.642 1519.54,-392.444 1530.09,-393.436 1528.41,-386.642"/>
</g>
<!-- Node65 -->
<g id="node47" class="node"><title>Node65</title>
<g id="a_node47"><a xlink:href="arch_2x86__64-linux_2odp_2api_2abi_2cpumask_8h_source.html" target="_top" xlink:title="cpumask.h">
<polygon fill="white" stroke="black" points="1755.5,-336.5 1755.5,-355.5 1824.5,-355.5 1824.5,-336.5 1755.5,-336.5"/>
<text text-anchor="middle" x="1790" y="-343.5" font-family="Helvetica,sans-Serif" font-size="10.00">cpumask.h</text>
</a>
</g>
</g>
<!-- Node58&#45;&gt;Node65 -->
<g id="edge48" class="edge"><title>Node58&#45;&gt;Node65</title>
<path fill="none" stroke="midnightblue" d="M1529.77,-393.818C1582,-385.32 1670.92,-370.491 1747,-356 1749.7,-355.486 1752.49,-354.939 1755.29,-354.378"/>
<polygon fill="midnightblue" stroke="midnightblue" points="1529.13,-390.374 1519.82,-395.431 1530.26,-397.284 1529.13,-390.374"/>
</g>
<!-- Node66 -->
<g id="node48" class="node"><title>Node66</title>
<g id="a_node48"><a xlink:href="api_2cpumask_8h.html" target="_top" xlink:title="ODP CPU masks and enumeration. ">
<polygon fill="white" stroke="black" points="1651.5,-280.5 1651.5,-299.5 1720.5,-299.5 1720.5,-280.5 1651.5,-280.5"/>
<text text-anchor="middle" x="1686" y="-287.5" font-family="Helvetica,sans-Serif" font-size="10.00">cpumask.h</text>
</a>
</g>
</g>
<!-- Node65&#45;&gt;Node66 -->
<g id="edge49" class="edge"><title>Node65&#45;&gt;Node66</title>
<path fill="none" stroke="midnightblue" d="M1764.17,-331.59C1744.94,-321.605 1719.26,-308.267 1702.67,-299.655"/>
<polygon fill="midnightblue" stroke="midnightblue" points="1762.8,-334.822 1773.29,-336.324 1766.03,-328.61 1762.8,-334.822"/>
</g>
<!-- Node66&#45;&gt;Node29 -->
<g id="edge52" class="edge"><title>Node66&#45;&gt;Node29</title>
<path fill="none" stroke="midnightblue" d="M1658.65,-276.086C1587.77,-243.183 1391.59,-155.721 1219,-112 1110.1,-84.4131 976.675,-72.8941 916.769,-68.8587"/>
<polygon fill="midnightblue" stroke="midnightblue" points="1657.26,-279.301 1667.81,-280.357 1660.22,-272.957 1657.26,-279.301"/>
</g>
<!-- Node67 -->
<g id="node49" class="node"><title>Node67</title>
<g id="a_node49"><a xlink:href="api_2abi-default_2thrmask_8h.html" target="_top" xlink:title="ODP thread masks. ">
<polygon fill="white" stroke="red" points="1618.5,-224.5 1618.5,-243.5 1683.5,-243.5 1683.5,-224.5 1618.5,-224.5"/>
<text text-anchor="middle" x="1651" y="-231.5" font-family="Helvetica,sans-Serif" font-size="10.00">thrmask.h</text>
</a>
</g>
</g>
<!-- Node66&#45;&gt;Node67 -->
<g id="edge50" class="edge"><title>Node66&#45;&gt;Node67</title>
<path fill="none" stroke="midnightblue" d="M1674.7,-271.566C1668.68,-262.275 1661.53,-251.248 1656.67,-243.751"/>
<polygon fill="midnightblue" stroke="midnightblue" points="1671.84,-273.595 1680.22,-280.083 1677.72,-269.788 1671.84,-273.595"/>
</g>
<!-- Node78 -->
<g id="node50" class="node"><title>Node78</title>
<g id="a_node50"><a xlink:href="api_2spec_2init_8h.html" target="_top" xlink:title="init.h">
<polygon fill="white" stroke="red" points="1702,-224.5 1702,-243.5 1742,-243.5 1742,-224.5 1702,-224.5"/>
<text text-anchor="middle" x="1722" y="-231.5" font-family="Helvetica,sans-Serif" font-size="10.00">init.h</text>
</a>
</g>
</g>
<!-- Node66&#45;&gt;Node78 -->
<g id="edge51" class="edge"><title>Node66&#45;&gt;Node78</title>
<path fill="none" stroke="midnightblue" d="M1697.62,-271.566C1703.82,-262.275 1711.17,-251.248 1716.17,-243.751"/>
<polygon fill="midnightblue" stroke="midnightblue" points="1694.58,-269.821 1691.94,-280.083 1700.4,-273.704 1694.58,-269.821"/>
</g>
</g>
</svg>
