<?xml version="1.0" encoding="UTF-8" standalone="no"?>
<!DOCTYPE svg PUBLIC "-//W3C//DTD SVG 1.1//EN"
 "http://www.w3.org/Graphics/SVG/1.1/DTD/svg11.dtd">
<!-- Generated by graphviz version 2.38.0 (20140413.2041)
 -->
<!-- Title: spinlock_recursive.h Pages: 1 -->
<svg width="574pt" height="196pt"
 viewBox="0.00 0.00 573.50 196.00" xmlns="http://www.w3.org/2000/svg" xmlns:xlink="http://www.w3.org/1999/xlink">
<g id="graph0" class="graph" transform="scale(1 1) rotate(0) translate(4 192)">
<title>spinlock_recursive.h</title>
<polygon fill="white" stroke="none" points="-4,4 -4,-192 569.5,-192 569.5,4 -4,4"/>
<!-- Node0 -->
<g id="node1" class="node"><title>Node0</title>
<polygon fill="#bfbfbf" stroke="black" points="220,-168.5 220,-187.5 333,-187.5 333,-168.5 220,-168.5"/>
<text text-anchor="middle" x="276.5" y="-175.5" font-family="Helvetica,sans-Serif" font-size="10.00">spinlock_recursive.h</text>
</g>
<!-- Node1 -->
<g id="node2" class="node"><title>Node1</title>
<g id="a_node2"><a xlink:href="api_2spinlock_8h.html" target="_top" xlink:title="ODP spinlock. ">
<polygon fill="white" stroke="black" points="150.5,-112.5 150.5,-131.5 252.5,-131.5 252.5,-112.5 150.5,-112.5"/>
<text text-anchor="middle" x="201.5" y="-119.5" font-family="Helvetica,sans-Serif" font-size="10.00">odp/api/spinlock.h</text>
</a>
</g>
</g>
<!-- Node0&#45;&gt;Node1 -->
<g id="edge1" class="edge"><title>Node0&#45;&gt;Node1</title>
<path fill="none" stroke="midnightblue" d="M264.45,-168.324C253.037,-160.107 235.669,-147.602 222.065,-137.807"/>
<polygon fill="midnightblue" stroke="midnightblue" points="223.93,-134.837 213.769,-131.834 219.84,-140.517 223.93,-134.837"/>
</g>
<!-- Node6 -->
<g id="node7" class="node"><title>Node6</title>
<g id="a_node7"><a xlink:href="api_2std__types_8h.html" target="_top" xlink:title="Standard C language types and definitions for ODP. ">
<polygon fill="white" stroke="black" points="296.5,-112.5 296.5,-131.5 406.5,-131.5 406.5,-112.5 296.5,-112.5"/>
<text text-anchor="middle" x="351.5" y="-119.5" font-family="Helvetica,sans-Serif" font-size="10.00">odp/api/std_types.h</text>
</a>
</g>
</g>
<!-- Node0&#45;&gt;Node6 -->
<g id="edge6" class="edge"><title>Node0&#45;&gt;Node6</title>
<path fill="none" stroke="midnightblue" d="M288.55,-168.324C299.963,-160.107 317.331,-147.602 330.935,-137.807"/>
<polygon fill="midnightblue" stroke="midnightblue" points="333.16,-140.517 339.231,-131.834 329.07,-134.837 333.16,-140.517"/>
</g>
<!-- Node2 -->
<g id="node3" class="node"><title>Node2</title>
<polygon fill="white" stroke="#bfbfbf" points="0,-56.5 0,-75.5 119,-75.5 119,-56.5 0,-56.5"/>
<text text-anchor="middle" x="59.5" y="-63.5" font-family="Helvetica,sans-Serif" font-size="10.00">odp/api/abi/spinlock.h</text>
</g>
<!-- Node1&#45;&gt;Node2 -->
<g id="edge2" class="edge"><title>Node1&#45;&gt;Node2</title>
<path fill="none" stroke="midnightblue" d="M179,-112.444C155.423,-103.478 118.178,-89.314 91.536,-79.1827"/>
<polygon fill="midnightblue" stroke="midnightblue" points="92.4861,-75.7995 81.8951,-75.5164 89.9979,-82.3424 92.4861,-75.7995"/>
</g>
<!-- Node3 -->
<g id="node4" class="node"><title>Node3</title>
<g id="a_node4"><a xlink:href="api_2spec_2spinlock_8h.html" target="_top" xlink:title="ODP spinlock. ">
<polygon fill="white" stroke="black" points="137.5,-56.5 137.5,-75.5 265.5,-75.5 265.5,-56.5 137.5,-56.5"/>
<text text-anchor="middle" x="201.5" y="-63.5" font-family="Helvetica,sans-Serif" font-size="10.00">odp/api/spec/spinlock.h</text>
</a>
</g>
</g>
<!-- Node1&#45;&gt;Node3 -->
<g id="edge3" class="edge"><title>Node1&#45;&gt;Node3</title>
<path fill="none" stroke="midnightblue" d="M201.5,-112.083C201.5,-105.006 201.5,-94.8611 201.5,-85.9865"/>
<polygon fill="midnightblue" stroke="midnightblue" points="205,-85.751 201.5,-75.7511 198,-85.7511 205,-85.751"/>
</g>
<!-- Node4 -->
<g id="node5" class="node"><title>Node4</title>
<g id="a_node5"><a xlink:href="visibility__begin_8h_source.html" target="_top" xlink:title="odp/visibility_begin.h">
<polygon fill="white" stroke="black" points="273,-0.5 273,-19.5 388,-19.5 388,-0.5 273,-0.5"/>
<text text-anchor="middle" x="330.5" y="-7.5" font-family="Helvetica,sans-Serif" font-size="10.00">odp/visibility_begin.h</text>
</a>
</g>
</g>
<!-- Node3&#45;&gt;Node4 -->
<g id="edge4" class="edge"><title>Node3&#45;&gt;Node4</title>
<path fill="none" stroke="midnightblue" d="M221.94,-56.4435C243.17,-47.5566 276.599,-33.5632 300.755,-23.4514"/>
<polygon fill="midnightblue" stroke="midnightblue" points="302.282,-26.6064 310.155,-19.5164 299.579,-20.1493 302.282,-26.6064"/>
</g>
<!-- Node5 -->
<g id="node6" class="node"><title>Node5</title>
<g id="a_node6"><a xlink:href="visibility__end_8h_source.html" target="_top" xlink:title="odp/visibility_end.h">
<polygon fill="white" stroke="black" points="148,-0.5 148,-19.5 255,-19.5 255,-0.5 148,-0.5"/>
<text text-anchor="middle" x="201.5" y="-7.5" font-family="Helvetica,sans-Serif" font-size="10.00">odp/visibility_end.h</text>
</a>
</g>
</g>
<!-- Node3&#45;&gt;Node5 -->
<g id="edge5" class="edge"><title>Node3&#45;&gt;Node5</title>
<path fill="none" stroke="midnightblue" d="M201.5,-56.083C201.5,-49.0059 201.5,-38.8611 201.5,-29.9865"/>
<polygon fill="midnightblue" stroke="midnightblue" points="205,-29.751 201.5,-19.7511 198,-29.7511 205,-29.751"/>
</g>
<!-- Node7 -->
<g id="node8" class="node"><title>Node7</title>
<polygon fill="white" stroke="#bfbfbf" points="437.5,-56.5 437.5,-75.5 565.5,-75.5 565.5,-56.5 437.5,-56.5"/>
<text text-anchor="middle" x="501.5" y="-63.5" font-family="Helvetica,sans-Serif" font-size="10.00">odp/api/abi/std_types.h</text>
</g>
<!-- Node6&#45;&gt;Node7 -->
<g id="edge7" class="edge"><title>Node6&#45;&gt;Node7</title>
<path fill="none" stroke="midnightblue" d="M375.268,-112.444C400.393,-103.399 440.211,-89.064 468.4,-78.9158"/>
<polygon fill="midnightblue" stroke="midnightblue" points="469.62,-82.1968 477.843,-75.5164 467.249,-75.6106 469.62,-82.1968"/>
</g>
<!-- Node8 -->
<g id="node9" class="node"><title>Node8</title>
<g id="a_node9"><a xlink:href="api_2spec_2std__types_8h.html" target="_top" xlink:title="Standard C language types and definitions for ODP. ">
<polygon fill="white" stroke="black" points="283.5,-56.5 283.5,-75.5 419.5,-75.5 419.5,-56.5 283.5,-56.5"/>
<text text-anchor="middle" x="351.5" y="-63.5" font-family="Helvetica,sans-Serif" font-size="10.00">odp/api/spec/std_types.h</text>
</a>
</g>
</g>
<!-- Node6&#45;&gt;Node8 -->
<g id="edge8" class="edge"><title>Node6&#45;&gt;Node8</title>
<path fill="none" stroke="midnightblue" d="M351.5,-112.083C351.5,-105.006 351.5,-94.8611 351.5,-85.9865"/>
<polygon fill="midnightblue" stroke="midnightblue" points="355,-85.751 351.5,-75.7511 348,-85.7511 355,-85.751"/>
</g>
<!-- Node8&#45;&gt;Node4 -->
<g id="edge9" class="edge"><title>Node8&#45;&gt;Node4</title>
<path fill="none" stroke="midnightblue" d="M348.032,-56.083C345.188,-48.77 341.071,-38.1814 337.54,-29.1034"/>
<polygon fill="midnightblue" stroke="midnightblue" points="340.79,-27.8025 333.903,-19.7511 334.266,-30.3397 340.79,-27.8025"/>
</g>
<!-- Node8&#45;&gt;Node5 -->
<g id="edge11" class="edge"><title>Node8&#45;&gt;Node5</title>
<path fill="none" stroke="midnightblue" d="M327.732,-56.4435C302.607,-47.3986 262.789,-33.064 234.6,-22.9158"/>
<polygon fill="midnightblue" stroke="midnightblue" points="235.751,-19.6106 225.157,-19.5164 233.38,-26.1968 235.751,-19.6106"/>
</g>
<!-- Node9 -->
<g id="node10" class="node"><title>Node9</title>
<polygon fill="white" stroke="#bfbfbf" points="406,-0.5 406,-19.5 459,-19.5 459,-0.5 406,-0.5"/>
<text text-anchor="middle" x="432.5" y="-7.5" font-family="Helvetica,sans-Serif" font-size="10.00">stdint.h</text>
</g>
<!-- Node8&#45;&gt;Node9 -->
<g id="edge10" class="edge"><title>Node8&#45;&gt;Node9</title>
<path fill="none" stroke="midnightblue" d="M364.514,-56.324C377.032,-47.979 396.182,-35.2122 410.971,-25.3524"/>
<polygon fill="midnightblue" stroke="midnightblue" points="413.139,-28.1137 419.518,-19.6545 409.256,-22.2894 413.139,-28.1137"/>
</g>
</g>
</svg>
