<?xml version="1.0" encoding="UTF-8" standalone="no"?>
<!DOCTYPE svg PUBLIC "-//W3C//DTD SVG 1.1//EN"
 "http://www.w3.org/Graphics/SVG/1.1/DTD/svg11.dtd">
<!-- Generated by graphviz version 2.38.0 (20140413.2041)
 -->
<!-- Title: time.h Pages: 1 -->
<svg width="727pt" height="868pt"
 viewBox="0.00 0.00 727.00 868.00" xmlns="http://www.w3.org/2000/svg" xmlns:xlink="http://www.w3.org/1999/xlink">
<g id="graph0" class="graph" transform="scale(1 1) rotate(0) translate(4 864)">
<title>time.h</title>
<polygon fill="white" stroke="none" points="-4,4 -4,-864 723,-864 723,4 -4,4"/>
<!-- Node3 -->
<g id="node1" class="node"><title>Node3</title>
<polygon fill="#bfbfbf" stroke="black" points="14.5,-840.5 14.5,-859.5 61.5,-859.5 61.5,-840.5 14.5,-840.5"/>
<text text-anchor="middle" x="38" y="-847.5" font-family="Helvetica,sans-Serif" font-size="10.00">time.h</text>
</g>
<!-- Node4 -->
<g id="node2" class="node"><title>Node4</title>
<g id="a_node2"><a xlink:href="api_2time_8h.html" target="_top" xlink:title="ODP time. ">
<polygon fill="white" stroke="black" points="14.5,-784.5 14.5,-803.5 61.5,-803.5 61.5,-784.5 14.5,-784.5"/>
<text text-anchor="middle" x="38" y="-791.5" font-family="Helvetica,sans-Serif" font-size="10.00">time.h</text>
</a>
</g>
</g>
<!-- Node3&#45;&gt;Node4 -->
<g id="edge1" class="edge"><title>Node3&#45;&gt;Node4</title>
<path fill="none" stroke="midnightblue" d="M38,-829.805C38,-820.91 38,-810.78 38,-803.751"/>
<polygon fill="midnightblue" stroke="midnightblue" points="34.5001,-830.083 38,-840.083 41.5001,-830.083 34.5001,-830.083"/>
</g>
<!-- Node5 -->
<g id="node3" class="node"><title>Node5</title>
<g id="a_node3"><a xlink:href="api_2spec_2packet_8h.html" target="_top" xlink:title="ODP packet descriptor. ">
<polygon fill="white" stroke="black" points="193,-728.5 193,-747.5 251,-747.5 251,-728.5 193,-728.5"/>
<text text-anchor="middle" x="222" y="-735.5" font-family="Helvetica,sans-Serif" font-size="10.00">packet.h</text>
</a>
</g>
</g>
<!-- Node4&#45;&gt;Node5 -->
<g id="edge2" class="edge"><title>Node4&#45;&gt;Node5</title>
<path fill="none" stroke="midnightblue" d="M71.3653,-783.208C106.093,-773.016 159.931,-757.216 192.96,-747.522"/>
<polygon fill="midnightblue" stroke="midnightblue" points="70.2878,-779.877 61.6781,-786.051 72.259,-786.593 70.2878,-779.877"/>
</g>
<!-- Node9 -->
<g id="node7" class="node"><title>Node9</title>
<g id="a_node7"><a xlink:href="odp__api_8h.html" target="_top" xlink:title="The OpenDataPlane API. ">
<polygon fill="white" stroke="black" points="346.5,-56.5 346.5,-75.5 409.5,-75.5 409.5,-56.5 346.5,-56.5"/>
<text text-anchor="middle" x="378" y="-63.5" font-family="Helvetica,sans-Serif" font-size="10.00">odp_api.h</text>
</a>
</g>
</g>
<!-- Node4&#45;&gt;Node9 -->
<g id="edge42" class="edge"><title>Node4&#45;&gt;Node9</title>
<path fill="none" stroke="midnightblue" d="M27.8573,-775.429C16.6005,-754.236 0,-717.187 0,-683 0,-683 0,-683 0,-177 0,-132.89 34.9197,-130.419 75,-112 122.96,-89.96 278.718,-75.0438 346.267,-69.4551"/>
<polygon fill="midnightblue" stroke="midnightblue" points="24.8191,-777.168 32.7163,-784.231 30.9473,-773.785 24.8191,-777.168"/>
</g>
<!-- Node19 -->
<g id="node17" class="node"><title>Node19</title>
<g id="a_node17"><a xlink:href="api_2spec_2packet__io_8h.html" target="_top" xlink:title="ODP Packet IO. ">
<polygon fill="white" stroke="black" points="183.5,-392.5 183.5,-411.5 254.5,-411.5 254.5,-392.5 183.5,-392.5"/>
<text text-anchor="middle" x="219" y="-399.5" font-family="Helvetica,sans-Serif" font-size="10.00">packet_io.h</text>
</a>
</g>
</g>
<!-- Node4&#45;&gt;Node19 -->
<g id="edge41" class="edge"><title>Node4&#45;&gt;Node19</title>
<path fill="none" stroke="midnightblue" d="M38,-774.251C38,-752.357 38,-715.052 38,-683 38,-683 38,-683 38,-513 38,-445.708 130.491,-418.412 183.24,-408.317"/>
<polygon fill="midnightblue" stroke="midnightblue" points="34.5001,-774.442 38,-784.442 41.5001,-774.442 34.5001,-774.442"/>
</g>
<!-- Node6 -->
<g id="node4" class="node"><title>Node6</title>
<g id="a_node4"><a xlink:href="api_2packet_8h.html" target="_top" xlink:title="ODP packet descriptor. ">
<polygon fill="white" stroke="black" points="320,-672.5 320,-691.5 378,-691.5 378,-672.5 320,-672.5"/>
<text text-anchor="middle" x="349" y="-679.5" font-family="Helvetica,sans-Serif" font-size="10.00">packet.h</text>
</a>
</g>
</g>
<!-- Node5&#45;&gt;Node6 -->
<g id="edge3" class="edge"><title>Node5&#45;&gt;Node6</title>
<path fill="none" stroke="midnightblue" d="M251.391,-724.503C275.2,-714.38 308.106,-700.388 328.971,-691.516"/>
<polygon fill="midnightblue" stroke="midnightblue" points="249.957,-721.31 242.124,-728.444 252.696,-727.751 249.957,-721.31"/>
</g>
<!-- Node7 -->
<g id="node5" class="node"><title>Node7</title>
<g id="a_node5"><a xlink:href="api_2spec_2comp_8h.html" target="_top" xlink:title="ODP Compression. ">
<polygon fill="white" stroke="black" points="177.5,-616.5 177.5,-635.5 230.5,-635.5 230.5,-616.5 177.5,-616.5"/>
<text text-anchor="middle" x="204" y="-623.5" font-family="Helvetica,sans-Serif" font-size="10.00">comp.h</text>
</a>
</g>
</g>
<!-- Node6&#45;&gt;Node7 -->
<g id="edge4" class="edge"><title>Node6&#45;&gt;Node7</title>
<path fill="none" stroke="midnightblue" d="M316.525,-668.906C289.264,-658.754 251.008,-644.506 226.868,-635.516"/>
<polygon fill="midnightblue" stroke="midnightblue" points="315.432,-672.233 326.024,-672.444 317.875,-665.674 315.432,-672.233"/>
</g>
<!-- Node6&#45;&gt;Node9 -->
<g id="edge40" class="edge"><title>Node6&#45;&gt;Node9</title>
<path fill="none" stroke="midnightblue" d="M388.404,-681.243C460.202,-679.399 605,-664.134 605,-571 605,-571 605,-571 605,-177 605,-91.1656 471.937,-72.2852 409.563,-68.15"/>
<polygon fill="midnightblue" stroke="midnightblue" points="388.301,-677.744 378.366,-681.425 388.428,-684.743 388.301,-677.744"/>
</g>
<!-- Node11 -->
<g id="node9" class="node"><title>Node11</title>
<g id="a_node9"><a xlink:href="api_2spec_2crypto_8h.html" target="_top" xlink:title="ODP crypto. ">
<polygon fill="white" stroke="black" points="321,-448.5 321,-467.5 377,-467.5 377,-448.5 321,-448.5"/>
<text text-anchor="middle" x="349" y="-455.5" font-family="Helvetica,sans-Serif" font-size="10.00">crypto.h</text>
</a>
</g>
</g>
<!-- Node6&#45;&gt;Node11 -->
<g id="edge8" class="edge"><title>Node6&#45;&gt;Node11</title>
<path fill="none" stroke="midnightblue" d="M349,-662.295C349,-616.644 349,-500.854 349,-467.884"/>
<polygon fill="midnightblue" stroke="midnightblue" points="345.5,-662.297 349,-672.297 352.5,-662.297 345.5,-662.297"/>
</g>
<!-- Node15 -->
<g id="node13" class="node"><title>Node15</title>
<g id="a_node13"><a xlink:href="api_2spec_2event_8h.html" target="_top" xlink:title="ODP event. ">
<polygon fill="white" stroke="black" points="406.5,-616.5 406.5,-635.5 459.5,-635.5 459.5,-616.5 406.5,-616.5"/>
<text text-anchor="middle" x="433" y="-623.5" font-family="Helvetica,sans-Serif" font-size="10.00">event.h</text>
</a>
</g>
</g>
<!-- Node6&#45;&gt;Node15 -->
<g id="edge14" class="edge"><title>Node6&#45;&gt;Node15</title>
<path fill="none" stroke="midnightblue" d="M370.932,-666.901C386.335,-656.999 406.446,-644.071 419.537,-635.655"/>
<polygon fill="midnightblue" stroke="midnightblue" points="369.015,-663.972 362.496,-672.324 372.801,-669.86 369.015,-663.972"/>
</g>
<!-- Node6&#45;&gt;Node19 -->
<g id="edge39" class="edge"><title>Node6&#45;&gt;Node19</title>
<path fill="none" stroke="midnightblue" d="M328.14,-666.085C304.141,-647.011 268,-611.555 268,-571 268,-571 268,-571 268,-513 268,-472.024 239.277,-429.312 225.813,-411.542"/>
<polygon fill="midnightblue" stroke="midnightblue" points="326.272,-669.062 336.344,-672.35 330.521,-663.499 326.272,-669.062"/>
</g>
<!-- Node27 -->
<g id="node25" class="node"><title>Node27</title>
<g id="a_node25"><a xlink:href="api_2spec_2packet__flags_8h.html" target="_top" xlink:title="ODP packet flags. ">
<polygon fill="white" stroke="black" points="633,-560.5 633,-579.5 719,-579.5 719,-560.5 633,-560.5"/>
<text text-anchor="middle" x="676" y="-567.5" font-family="Helvetica,sans-Serif" font-size="10.00">packet_flags.h</text>
</a>
</g>
</g>
<!-- Node6&#45;&gt;Node27 -->
<g id="edge36" class="edge"><title>Node6&#45;&gt;Node27</title>
<path fill="none" stroke="midnightblue" d="M388.721,-677.674C453.89,-671.675 580.161,-657.624 619,-636 643.391,-622.42 662.429,-594.26 671.016,-579.876"/>
<polygon fill="midnightblue" stroke="midnightblue" points="388.076,-674.217 378.431,-678.6 388.704,-681.189 388.076,-674.217"/>
</g>
<!-- Node8 -->
<g id="node6" class="node"><title>Node8</title>
<g id="a_node6"><a xlink:href="api_2comp_8h.html" target="_top" xlink:title="ODP crypto. ">
<polygon fill="white" stroke="black" points="168.5,-504.5 168.5,-523.5 221.5,-523.5 221.5,-504.5 168.5,-504.5"/>
<text text-anchor="middle" x="195" y="-511.5" font-family="Helvetica,sans-Serif" font-size="10.00">comp.h</text>
</a>
</g>
</g>
<!-- Node7&#45;&gt;Node8 -->
<g id="edge5" class="edge"><title>Node7&#45;&gt;Node8</title>
<path fill="none" stroke="midnightblue" d="M202.474,-606.348C200.503,-582.254 197.152,-541.308 195.703,-523.591"/>
<polygon fill="midnightblue" stroke="midnightblue" points="198.99,-606.687 203.294,-616.368 205.967,-606.116 198.99,-606.687"/>
</g>
<!-- Node8&#45;&gt;Node9 -->
<g id="edge6" class="edge"><title>Node8&#45;&gt;Node9</title>
<path fill="none" stroke="midnightblue" d="M179.133,-497.026C140.935,-456.792 47,-346.514 47,-235 47,-235 47,-235 47,-177 47,-129.795 87.8855,-131.222 131,-112 203.455,-79.6968 297.73,-70.5803 346.178,-68.0089"/>
<polygon fill="midnightblue" stroke="midnightblue" points="176.719,-499.564 186.185,-504.321 181.752,-494.699 176.719,-499.564"/>
</g>
<!-- Node10 -->
<g id="node8" class="node"><title>Node10</title>
<g id="a_node8"><a xlink:href="odp_8h.html" target="_top" xlink:title="WARNING: THIS FILE IS DEPRECATED AND WILL BE REMOVED!!! ODP APPLICATIONS SHOULD NOW INCLUDE odp_api...">
<polygon fill="white" stroke="black" points="356,-0.5 356,-19.5 400,-19.5 400,-0.5 356,-0.5"/>
<text text-anchor="middle" x="378" y="-7.5" font-family="Helvetica,sans-Serif" font-size="10.00">odp.h</text>
</a>
</g>
</g>
<!-- Node9&#45;&gt;Node10 -->
<g id="edge7" class="edge"><title>Node9&#45;&gt;Node10</title>
<path fill="none" stroke="midnightblue" d="M378,-45.8045C378,-36.9102 378,-26.7798 378,-19.7511"/>
<polygon fill="midnightblue" stroke="midnightblue" points="374.5,-46.083 378,-56.083 381.5,-46.083 374.5,-46.083"/>
</g>
<!-- Node12 -->
<g id="node10" class="node"><title>Node12</title>
<g id="a_node10"><a xlink:href="api_2crypto_8h.html" target="_top" xlink:title="ODP crypto. ">
<polygon fill="white" stroke="black" points="344,-336.5 344,-355.5 400,-355.5 400,-336.5 344,-336.5"/>
<text text-anchor="middle" x="372" y="-343.5" font-family="Helvetica,sans-Serif" font-size="10.00">crypto.h</text>
</a>
</g>
</g>
<!-- Node11&#45;&gt;Node12 -->
<g id="edge9" class="edge"><title>Node11&#45;&gt;Node12</title>
<path fill="none" stroke="midnightblue" d="M352.9,-438.348C357.938,-414.254 366.499,-373.308 370.204,-355.591"/>
<polygon fill="midnightblue" stroke="midnightblue" points="349.426,-437.864 350.805,-448.368 356.277,-439.297 349.426,-437.864"/>
</g>
<!-- Node12&#45;&gt;Node9 -->
<g id="edge13" class="edge"><title>Node12&#45;&gt;Node9</title>
<path fill="none" stroke="midnightblue" d="M380.792,-327.309C390.568,-305.972 405,-268.755 405,-235 405,-235 405,-235 405,-177 405,-138.262 389.011,-94.0045 381.641,-75.6622"/>
<polygon fill="midnightblue" stroke="midnightblue" points="377.591,-325.89 376.451,-336.424 383.911,-328.901 377.591,-325.89"/>
</g>
<!-- Node13 -->
<g id="node11" class="node"><title>Node13</title>
<g id="a_node11"><a xlink:href="api_2spec_2ipsec_8h.html" target="_top" xlink:title="ODP IPSEC API. ">
<polygon fill="white" stroke="black" points="187,-168.5 187,-187.5 237,-187.5 237,-168.5 187,-168.5"/>
<text text-anchor="middle" x="212" y="-175.5" font-family="Helvetica,sans-Serif" font-size="10.00">ipsec.h</text>
</a>
</g>
</g>
<!-- Node12&#45;&gt;Node13 -->
<g id="edge10" class="edge"><title>Node12&#45;&gt;Node13</title>
<path fill="none" stroke="midnightblue" d="M367.834,-326.421C364.067,-312.612 357.478,-293.845 347,-280 313.969,-236.353 257.16,-202.58 228.936,-187.544"/>
<polygon fill="midnightblue" stroke="midnightblue" points="364.466,-327.381 370.27,-336.245 371.26,-325.696 364.466,-327.381"/>
</g>
<!-- Node14 -->
<g id="node12" class="node"><title>Node14</title>
<g id="a_node12"><a xlink:href="api_2ipsec_8h.html" target="_top" xlink:title="ODP IPSEC API &#45; platform specific header. ">
<polygon fill="white" stroke="black" points="187,-112.5 187,-131.5 237,-131.5 237,-112.5 187,-112.5"/>
<text text-anchor="middle" x="212" y="-119.5" font-family="Helvetica,sans-Serif" font-size="10.00">ipsec.h</text>
</a>
</g>
</g>
<!-- Node13&#45;&gt;Node14 -->
<g id="edge11" class="edge"><title>Node13&#45;&gt;Node14</title>
<path fill="none" stroke="midnightblue" d="M212,-157.805C212,-148.91 212,-138.78 212,-131.751"/>
<polygon fill="midnightblue" stroke="midnightblue" points="208.5,-158.083 212,-168.083 215.5,-158.083 208.5,-158.083"/>
</g>
<!-- Node14&#45;&gt;Node9 -->
<g id="edge12" class="edge"><title>Node14&#45;&gt;Node9</title>
<path fill="none" stroke="midnightblue" d="M246.842,-109.666C278.134,-99.4866 323.388,-84.7652 351.727,-75.5467"/>
<polygon fill="midnightblue" stroke="midnightblue" points="245.639,-106.377 237.212,-112.799 247.804,-113.033 245.639,-106.377"/>
</g>
<!-- Node16 -->
<g id="node14" class="node"><title>Node16</title>
<g id="a_node14"><a xlink:href="api_2event_8h.html" target="_top" xlink:title="ODP event. ">
<polygon fill="white" stroke="black" points="406.5,-560.5 406.5,-579.5 459.5,-579.5 459.5,-560.5 406.5,-560.5"/>
<text text-anchor="middle" x="433" y="-567.5" font-family="Helvetica,sans-Serif" font-size="10.00">event.h</text>
</a>
</g>
</g>
<!-- Node15&#45;&gt;Node16 -->
<g id="edge15" class="edge"><title>Node15&#45;&gt;Node16</title>
<path fill="none" stroke="midnightblue" d="M433,-605.805C433,-596.91 433,-586.78 433,-579.751"/>
<polygon fill="midnightblue" stroke="midnightblue" points="429.5,-606.083 433,-616.083 436.5,-606.083 429.5,-606.083"/>
</g>
<!-- Node16&#45;&gt;Node9 -->
<g id="edge35" class="edge"><title>Node16&#45;&gt;Node9</title>
<path fill="none" stroke="midnightblue" d="M428.465,-550.596C426.691,-542.495 424.874,-532.83 424,-524 420.672,-490.387 422.498,-481.744 424,-448 428.226,-353.051 443,-330.043 443,-235 443,-235 443,-235 443,-177 443,-133.967 405.672,-92.9849 387.591,-75.6585"/>
<polygon fill="midnightblue" stroke="midnightblue" points="425.084,-551.506 430.765,-560.449 431.901,-549.915 425.084,-551.506"/>
</g>
<!-- Node17 -->
<g id="node15" class="node"><title>Node17</title>
<g id="a_node15"><a xlink:href="api_2spec_2queue_8h.html" target="_top" xlink:title="ODP queue. ">
<polygon fill="white" stroke="black" points="433,-504.5 433,-523.5 489,-523.5 489,-504.5 433,-504.5"/>
<text text-anchor="middle" x="461" y="-511.5" font-family="Helvetica,sans-Serif" font-size="10.00">queue.h</text>
</a>
</g>
</g>
<!-- Node16&#45;&gt;Node17 -->
<g id="edge16" class="edge"><title>Node16&#45;&gt;Node17</title>
<path fill="none" stroke="midnightblue" d="M442.342,-550.983C447.095,-541.817 452.656,-531.092 456.462,-523.751"/>
<polygon fill="midnightblue" stroke="midnightblue" points="439.12,-549.594 437.624,-560.083 445.334,-552.817 439.12,-549.594"/>
</g>
<!-- Node25 -->
<g id="node23" class="node"><title>Node25</title>
<g id="a_node23"><a xlink:href="api_2spec_2schedule_8h.html" target="_top" xlink:title="ODP schedule. ">
<polygon fill="white" stroke="black" points="509,-392.5 509,-411.5 577,-411.5 577,-392.5 509,-392.5"/>
<text text-anchor="middle" x="543" y="-399.5" font-family="Helvetica,sans-Serif" font-size="10.00">schedule.h</text>
</a>
</g>
</g>
<!-- Node16&#45;&gt;Node25 -->
<g id="edge34" class="edge"><title>Node16&#45;&gt;Node25</title>
<path fill="none" stroke="midnightblue" d="M460.019,-555.385C473.005,-547.687 487.902,-536.994 498,-524 525.919,-488.075 537.856,-433.04 541.602,-411.792"/>
<polygon fill="midnightblue" stroke="midnightblue" points="458.003,-552.503 450.997,-560.45 461.43,-558.606 458.003,-552.503"/>
</g>
<!-- Node18 -->
<g id="node16" class="node"><title>Node18</title>
<g id="a_node16"><a xlink:href="api_2queue_8h.html" target="_top" xlink:title="ODP queue. ">
<polygon fill="white" stroke="black" points="433,-448.5 433,-467.5 489,-467.5 489,-448.5 433,-448.5"/>
<text text-anchor="middle" x="461" y="-455.5" font-family="Helvetica,sans-Serif" font-size="10.00">queue.h</text>
</a>
</g>
</g>
<!-- Node17&#45;&gt;Node18 -->
<g id="edge17" class="edge"><title>Node17&#45;&gt;Node18</title>
<path fill="none" stroke="midnightblue" d="M461,-493.805C461,-484.91 461,-474.78 461,-467.751"/>
<polygon fill="midnightblue" stroke="midnightblue" points="457.5,-494.083 461,-504.083 464.5,-494.083 457.5,-494.083"/>
</g>
<!-- Node18&#45;&gt;Node9 -->
<g id="edge33" class="edge"><title>Node18&#45;&gt;Node9</title>
<path fill="none" stroke="midnightblue" d="M466.491,-438.408C472.412,-416.685 481,-379.562 481,-347 481,-347 481,-347 481,-177 481,-146.205 476.918,-135.487 457,-112 442.401,-94.7853 419.462,-82.7614 402.055,-75.5007"/>
<polygon fill="midnightblue" stroke="midnightblue" points="463.058,-437.683 463.697,-448.258 469.793,-439.592 463.058,-437.683"/>
</g>
<!-- Node18&#45;&gt;Node12 -->
<g id="edge18" class="edge"><title>Node18&#45;&gt;Node12</title>
<path fill="none" stroke="midnightblue" d="M447.719,-440.586C428.532,-416.871 393.74,-373.869 378.951,-355.591"/>
<polygon fill="midnightblue" stroke="midnightblue" points="445.005,-442.796 454.016,-448.368 450.447,-438.393 445.005,-442.796"/>
</g>
<!-- Node18&#45;&gt;Node19 -->
<g id="edge19" class="edge"><title>Node18&#45;&gt;Node19</title>
<path fill="none" stroke="midnightblue" d="M422.872,-448.492C376.817,-438.215 299.93,-421.059 254.897,-411.01"/>
<polygon fill="midnightblue" stroke="midnightblue" points="422.244,-451.938 432.766,-450.7 423.768,-445.106 422.244,-451.938"/>
</g>
<!-- Node18&#45;&gt;Node25 -->
<g id="edge30" class="edge"><title>Node18&#45;&gt;Node25</title>
<path fill="none" stroke="midnightblue" d="M482.833,-442.622C497.813,-432.757 517.197,-419.992 529.858,-411.655"/>
<polygon fill="midnightblue" stroke="midnightblue" points="480.601,-439.901 474.175,-448.324 484.451,-445.747 480.601,-439.901"/>
</g>
<!-- Node20 -->
<g id="node18" class="node"><title>Node20</title>
<g id="a_node18"><a xlink:href="api_2packet__io_8h.html" target="_top" xlink:title="ODP Packet IO. ">
<polygon fill="white" stroke="black" points="158.5,-336.5 158.5,-355.5 229.5,-355.5 229.5,-336.5 158.5,-336.5"/>
<text text-anchor="middle" x="194" y="-343.5" font-family="Helvetica,sans-Serif" font-size="10.00">packet_io.h</text>
</a>
</g>
</g>
<!-- Node19&#45;&gt;Node20 -->
<g id="edge20" class="edge"><title>Node19&#45;&gt;Node20</title>
<path fill="none" stroke="midnightblue" d="M210.659,-382.983C206.415,-373.817 201.45,-363.092 198.051,-355.751"/>
<polygon fill="midnightblue" stroke="midnightblue" points="207.494,-384.479 214.872,-392.083 213.847,-381.538 207.494,-384.479"/>
</g>
<!-- Node20&#45;&gt;Node9 -->
<g id="edge29" class="edge"><title>Node20&#45;&gt;Node9</title>
<path fill="none" stroke="midnightblue" d="M165.734,-331.772C133.437,-314.473 85,-280.881 85,-235 85,-235 85,-235 85,-177 85,-121.646 270.602,-84.7245 346.365,-71.9588"/>
<polygon fill="midnightblue" stroke="midnightblue" points="164.27,-334.955 174.764,-336.415 167.471,-328.73 164.27,-334.955"/>
</g>
<!-- Node20&#45;&gt;Node13 -->
<g id="edge25" class="edge"><title>Node20&#45;&gt;Node13</title>
<path fill="none" stroke="midnightblue" d="M169.631,-330.726C159.052,-323.089 147.777,-312.64 142,-300 138.305,-291.916 140.623,-288.782 142,-280 146.049,-254.172 145.581,-245.807 160,-224 170.009,-208.863 186.464,-195.837 198.182,-187.751"/>
<polygon fill="midnightblue" stroke="midnightblue" points="167.958,-333.818 178.217,-336.467 171.849,-327.999 167.958,-333.818"/>
</g>
<!-- Node21 -->
<g id="node19" class="node"><title>Node21</title>
<g id="a_node19"><a xlink:href="api_2spec_2classification_8h.html" target="_top" xlink:title="ODP classification descriptor. ">
<polygon fill="white" stroke="black" points="151,-280.5 151,-299.5 237,-299.5 237,-280.5 151,-280.5"/>
<text text-anchor="middle" x="194" y="-287.5" font-family="Helvetica,sans-Serif" font-size="10.00">classification.h</text>
</a>
</g>
</g>
<!-- Node20&#45;&gt;Node21 -->
<g id="edge21" class="edge"><title>Node20&#45;&gt;Node21</title>
<path fill="none" stroke="midnightblue" d="M194,-325.805C194,-316.91 194,-306.78 194,-299.751"/>
<polygon fill="midnightblue" stroke="midnightblue" points="190.5,-326.083 194,-336.083 197.5,-326.083 190.5,-326.083"/>
</g>
<!-- Node23 -->
<g id="node21" class="node"><title>Node23</title>
<g id="a_node21"><a xlink:href="api_2spec_2traffic__mngr_8h.html" target="_top" xlink:title="Copyright (c) 2015&#45;2018, Linaro Limited All rights reserved. ">
<polygon fill="white" stroke="black" points="255.5,-280.5 255.5,-299.5 338.5,-299.5 338.5,-280.5 255.5,-280.5"/>
<text text-anchor="middle" x="297" y="-287.5" font-family="Helvetica,sans-Serif" font-size="10.00">traffic_mngr.h</text>
</a>
</g>
</g>
<!-- Node20&#45;&gt;Node23 -->
<g id="edge26" class="edge"><title>Node20&#45;&gt;Node23</title>
<path fill="none" stroke="midnightblue" d="M219.579,-331.59C238.623,-321.605 264.064,-308.267 280.492,-299.655"/>
<polygon fill="midnightblue" stroke="midnightblue" points="217.78,-328.581 210.549,-336.324 221.031,-334.78 217.78,-328.581"/>
</g>
<!-- Node22 -->
<g id="node20" class="node"><title>Node22</title>
<g id="a_node20"><a xlink:href="api_2classification_8h.html" target="_top" xlink:title="ODP classification descriptor. ">
<polygon fill="white" stroke="black" points="169,-224.5 169,-243.5 255,-243.5 255,-224.5 169,-224.5"/>
<text text-anchor="middle" x="212" y="-231.5" font-family="Helvetica,sans-Serif" font-size="10.00">classification.h</text>
</a>
</g>
</g>
<!-- Node21&#45;&gt;Node22 -->
<g id="edge22" class="edge"><title>Node21&#45;&gt;Node22</title>
<path fill="none" stroke="midnightblue" d="M200.201,-270.396C203.213,-261.362 206.688,-250.936 209.083,-243.751"/>
<polygon fill="midnightblue" stroke="midnightblue" points="196.814,-269.489 196.972,-280.083 203.455,-271.703 196.814,-269.489"/>
</g>
<!-- Node22&#45;&gt;Node9 -->
<g id="edge24" class="edge"><title>Node22&#45;&gt;Node9</title>
<path fill="none" stroke="midnightblue" d="M228.349,-216.651C263.061,-181.939 343.102,-101.898 369.432,-75.5681"/>
<polygon fill="midnightblue" stroke="midnightblue" points="225.521,-214.529 220.925,-224.075 230.471,-219.479 225.521,-214.529"/>
</g>
<!-- Node22&#45;&gt;Node13 -->
<g id="edge23" class="edge"><title>Node22&#45;&gt;Node13</title>
<path fill="none" stroke="midnightblue" d="M212,-213.805C212,-204.91 212,-194.78 212,-187.751"/>
<polygon fill="midnightblue" stroke="midnightblue" points="208.5,-214.083 212,-224.083 215.5,-214.083 208.5,-214.083"/>
</g>
<!-- Node24 -->
<g id="node22" class="node"><title>Node24</title>
<g id="a_node22"><a xlink:href="api_2traffic__mngr_8h.html" target="_top" xlink:title="ODP Traffic manager. ">
<polygon fill="white" stroke="black" points="293.5,-168.5 293.5,-187.5 376.5,-187.5 376.5,-168.5 293.5,-168.5"/>
<text text-anchor="middle" x="335" y="-175.5" font-family="Helvetica,sans-Serif" font-size="10.00">traffic_mngr.h</text>
</a>
</g>
</g>
<!-- Node23&#45;&gt;Node24 -->
<g id="edge27" class="edge"><title>Node23&#45;&gt;Node24</title>
<path fill="none" stroke="midnightblue" d="M303.331,-270.674C311.639,-246.625 325.884,-205.388 332.032,-187.591"/>
<polygon fill="midnightblue" stroke="midnightblue" points="299.939,-269.774 299.982,-280.368 306.555,-272.059 299.939,-269.774"/>
</g>
<!-- Node24&#45;&gt;Node9 -->
<g id="edge28" class="edge"><title>Node24&#45;&gt;Node9</title>
<path fill="none" stroke="midnightblue" d="M342.037,-158.998C351.419,-134.997 367.653,-93.4683 374.642,-75.5914"/>
<polygon fill="midnightblue" stroke="midnightblue" points="338.755,-157.78 338.374,-168.368 345.275,-160.329 338.755,-157.78"/>
</g>
<!-- Node26 -->
<g id="node24" class="node"><title>Node26</title>
<g id="a_node24"><a xlink:href="api_2schedule_8h.html" target="_top" xlink:title="ODP schedule. ">
<polygon fill="white" stroke="black" points="509,-224.5 509,-243.5 577,-243.5 577,-224.5 509,-224.5"/>
<text text-anchor="middle" x="543" y="-231.5" font-family="Helvetica,sans-Serif" font-size="10.00">schedule.h</text>
</a>
</g>
</g>
<!-- Node25&#45;&gt;Node26 -->
<g id="edge31" class="edge"><title>Node25&#45;&gt;Node26</title>
<path fill="none" stroke="midnightblue" d="M543,-381.93C543,-345.92 543,-269.231 543,-243.568"/>
<polygon fill="midnightblue" stroke="midnightblue" points="539.5,-382.075 543,-392.075 546.5,-382.075 539.5,-382.075"/>
</g>
<!-- Node26&#45;&gt;Node9 -->
<g id="edge32" class="edge"><title>Node26&#45;&gt;Node9</title>
<path fill="none" stroke="midnightblue" d="M540.356,-214.28C535.708,-188.047 523.686,-140.387 495,-112 471.796,-89.038 435.616,-77.5351 409.632,-71.946"/>
<polygon fill="midnightblue" stroke="midnightblue" points="536.936,-215.061 541.965,-224.387 543.849,-213.961 536.936,-215.061"/>
</g>
<!-- Node28 -->
<g id="node26" class="node"><title>Node28</title>
<g id="a_node26"><a xlink:href="api_2packet__flags_8h.html" target="_top" xlink:title="ODP packet flags. ">
<polygon fill="white" stroke="black" points="633,-112.5 633,-131.5 719,-131.5 719,-112.5 633,-112.5"/>
<text text-anchor="middle" x="676" y="-119.5" font-family="Helvetica,sans-Serif" font-size="10.00">packet_flags.h</text>
</a>
</g>
</g>
<!-- Node27&#45;&gt;Node28 -->
<g id="edge37" class="edge"><title>Node27&#45;&gt;Node28</title>
<path fill="none" stroke="midnightblue" d="M676,-550.251C676,-528.357 676,-491.052 676,-459 676,-459 676,-459 676,-233 676,-195.188 676,-150.064 676,-131.558"/>
<polygon fill="midnightblue" stroke="midnightblue" points="672.5,-550.442 676,-560.442 679.5,-550.442 672.5,-550.442"/>
</g>
<!-- Node28&#45;&gt;Node9 -->
<g id="edge38" class="edge"><title>Node28&#45;&gt;Node9</title>
<path fill="none" stroke="midnightblue" d="M623.009,-111.398C561.029,-100.166 460.443,-81.9394 409.587,-72.7238"/>
<polygon fill="midnightblue" stroke="midnightblue" points="622.523,-114.866 632.986,-113.206 623.771,-107.979 622.523,-114.866"/>
</g>
</g>
</svg>
