<?xml version="1.0" encoding="UTF-8" standalone="no"?>
<!DOCTYPE svg PUBLIC "-//W3C//DTD SVG 1.1//EN"
 "http://www.w3.org/Graphics/SVG/1.1/DTD/svg11.dtd">
<!-- Generated by graphviz version 2.38.0 (20140413.2041)
 -->
<!-- Title: ipsec.h Pages: 1 -->
<svg width="473pt" height="252pt"
 viewBox="0.00 0.00 472.50 252.00" xmlns="http://www.w3.org/2000/svg" xmlns:xlink="http://www.w3.org/1999/xlink">
<g id="graph0" class="graph" transform="scale(1 1) rotate(0) translate(4 248)">
<title>ipsec.h</title>
<polygon fill="white" stroke="none" points="-4,4 -4,-248 468.5,-248 468.5,4 -4,4"/>
<!-- Node7 -->
<g id="node1" class="node"><title>Node7</title>
<polygon fill="#bfbfbf" stroke="black" points="204,-224.5 204,-243.5 254,-243.5 254,-224.5 204,-224.5"/>
<text text-anchor="middle" x="229" y="-231.5" font-family="Helvetica,sans-Serif" font-size="10.00">ipsec.h</text>
</g>
<!-- Node8 -->
<g id="node2" class="node"><title>Node8</title>
<g id="a_node2"><a xlink:href="arch_2arm32-linux_2odp_2api_2abi_2ipsec_8h_source.html" target="_top" xlink:title="ipsec.h">
<polygon fill="white" stroke="black" points="0,-168.5 0,-187.5 50,-187.5 50,-168.5 0,-168.5"/>
<text text-anchor="middle" x="25" y="-175.5" font-family="Helvetica,sans-Serif" font-size="10.00">ipsec.h</text>
</a>
</g>
</g>
<!-- Node7&#45;&gt;Node8 -->
<g id="edge1" class="edge"><title>Node7&#45;&gt;Node8</title>
<path fill="none" stroke="midnightblue" d="M194.181,-223.783C153.282,-212.957 86.4291,-195.261 50.219,-185.676"/>
<polygon fill="midnightblue" stroke="midnightblue" points="193.423,-227.203 203.986,-226.379 195.214,-220.436 193.423,-227.203"/>
</g>
<!-- Node9 -->
<g id="node3" class="node"><title>Node9</title>
<g id="a_node3"><a xlink:href="arch_2arm64-linux_2odp_2api_2abi_2ipsec_8h_source.html" target="_top" xlink:title="ipsec.h">
<polygon fill="white" stroke="black" points="68,-168.5 68,-187.5 118,-187.5 118,-168.5 68,-168.5"/>
<text text-anchor="middle" x="93" y="-175.5" font-family="Helvetica,sans-Serif" font-size="10.00">ipsec.h</text>
</a>
</g>
</g>
<!-- Node7&#45;&gt;Node9 -->
<g id="edge2" class="edge"><title>Node7&#45;&gt;Node9</title>
<path fill="none" stroke="midnightblue" d="M197.865,-220.638C172.343,-210.504 136.891,-196.427 114.449,-187.516"/>
<polygon fill="midnightblue" stroke="midnightblue" points="196.865,-224.006 207.45,-224.444 199.448,-217.5 196.865,-224.006"/>
</g>
<!-- Node10 -->
<g id="node4" class="node"><title>Node10</title>
<g id="a_node4"><a xlink:href="arch_2default-linux_2odp_2api_2abi_2ipsec_8h_source.html" target="_top" xlink:title="ipsec.h">
<polygon fill="white" stroke="black" points="136,-168.5 136,-187.5 186,-187.5 186,-168.5 136,-168.5"/>
<text text-anchor="middle" x="161" y="-175.5" font-family="Helvetica,sans-Serif" font-size="10.00">ipsec.h</text>
</a>
</g>
</g>
<!-- Node7&#45;&gt;Node10 -->
<g id="edge3" class="edge"><title>Node7&#45;&gt;Node10</title>
<path fill="none" stroke="midnightblue" d="M210.238,-218.101C198,-208.382 182.441,-196.027 172.124,-187.834"/>
<polygon fill="midnightblue" stroke="midnightblue" points="208.067,-220.846 218.075,-224.324 212.42,-215.364 208.067,-220.846"/>
</g>
<!-- Node11 -->
<g id="node5" class="node"><title>Node11</title>
<g id="a_node5"><a xlink:href="arch_2mips64-linux_2odp_2api_2abi_2ipsec_8h_source.html" target="_top" xlink:title="ipsec.h">
<polygon fill="white" stroke="black" points="204,-168.5 204,-187.5 254,-187.5 254,-168.5 204,-168.5"/>
<text text-anchor="middle" x="229" y="-175.5" font-family="Helvetica,sans-Serif" font-size="10.00">ipsec.h</text>
</a>
</g>
</g>
<!-- Node7&#45;&gt;Node11 -->
<g id="edge4" class="edge"><title>Node7&#45;&gt;Node11</title>
<path fill="none" stroke="midnightblue" d="M229,-213.805C229,-204.91 229,-194.78 229,-187.751"/>
<polygon fill="midnightblue" stroke="midnightblue" points="225.5,-214.083 229,-224.083 232.5,-214.083 225.5,-214.083"/>
</g>
<!-- Node12 -->
<g id="node6" class="node"><title>Node12</title>
<g id="a_node6"><a xlink:href="arch_2power64-linux_2odp_2api_2abi_2ipsec_8h_source.html" target="_top" xlink:title="ipsec.h">
<polygon fill="white" stroke="black" points="272,-168.5 272,-187.5 322,-187.5 322,-168.5 272,-168.5"/>
<text text-anchor="middle" x="297" y="-175.5" font-family="Helvetica,sans-Serif" font-size="10.00">ipsec.h</text>
</a>
</g>
</g>
<!-- Node7&#45;&gt;Node12 -->
<g id="edge5" class="edge"><title>Node7&#45;&gt;Node12</title>
<path fill="none" stroke="midnightblue" d="M247.762,-218.101C260,-208.382 275.559,-196.027 285.876,-187.834"/>
<polygon fill="midnightblue" stroke="midnightblue" points="245.58,-215.364 239.925,-224.324 249.933,-220.846 245.58,-215.364"/>
</g>
<!-- Node13 -->
<g id="node7" class="node"><title>Node13</title>
<g id="a_node7"><a xlink:href="arch_2x86__32-linux_2odp_2api_2abi_2ipsec_8h_source.html" target="_top" xlink:title="ipsec.h">
<polygon fill="white" stroke="black" points="340,-168.5 340,-187.5 390,-187.5 390,-168.5 340,-168.5"/>
<text text-anchor="middle" x="365" y="-175.5" font-family="Helvetica,sans-Serif" font-size="10.00">ipsec.h</text>
</a>
</g>
</g>
<!-- Node7&#45;&gt;Node13 -->
<g id="edge6" class="edge"><title>Node7&#45;&gt;Node13</title>
<path fill="none" stroke="midnightblue" d="M260.135,-220.638C285.657,-210.504 321.109,-196.427 343.551,-187.516"/>
<polygon fill="midnightblue" stroke="midnightblue" points="258.552,-217.5 250.55,-224.444 261.135,-224.006 258.552,-217.5"/>
</g>
<!-- Node14 -->
<g id="node8" class="node"><title>Node14</title>
<g id="a_node8"><a xlink:href="arch_2x86__64-linux_2odp_2api_2abi_2ipsec_8h_source.html" target="_top" xlink:title="ipsec.h">
<polygon fill="white" stroke="black" points="408,-168.5 408,-187.5 458,-187.5 458,-168.5 408,-168.5"/>
<text text-anchor="middle" x="433" y="-175.5" font-family="Helvetica,sans-Serif" font-size="10.00">ipsec.h</text>
</a>
</g>
</g>
<!-- Node7&#45;&gt;Node14 -->
<g id="edge7" class="edge"><title>Node7&#45;&gt;Node14</title>
<path fill="none" stroke="midnightblue" d="M263.819,-223.783C304.718,-212.957 371.571,-195.261 407.781,-185.676"/>
<polygon fill="midnightblue" stroke="midnightblue" points="262.786,-220.436 254.014,-226.379 264.577,-227.203 262.786,-220.436"/>
</g>
<!-- Node15 -->
<g id="node9" class="node"><title>Node15</title>
<g id="a_node9"><a xlink:href="api_2ipsec_8h.html" target="_top" xlink:title="ODP IPSEC API &#45; platform specific header. ">
<polygon fill="white" stroke="black" points="408,-112.5 408,-131.5 458,-131.5 458,-112.5 408,-112.5"/>
<text text-anchor="middle" x="433" y="-119.5" font-family="Helvetica,sans-Serif" font-size="10.00">ipsec.h</text>
</a>
</g>
</g>
<!-- Node14&#45;&gt;Node15 -->
<g id="edge8" class="edge"><title>Node14&#45;&gt;Node15</title>
<path fill="none" stroke="midnightblue" d="M433,-157.805C433,-148.91 433,-138.78 433,-131.751"/>
<polygon fill="midnightblue" stroke="midnightblue" points="429.5,-158.083 433,-168.083 436.5,-158.083 429.5,-158.083"/>
</g>
<!-- Node16 -->
<g id="node10" class="node"><title>Node16</title>
<g id="a_node10"><a xlink:href="odp__api_8h.html" target="_top" xlink:title="The OpenDataPlane API. ">
<polygon fill="white" stroke="black" points="401.5,-56.5 401.5,-75.5 464.5,-75.5 464.5,-56.5 401.5,-56.5"/>
<text text-anchor="middle" x="433" y="-63.5" font-family="Helvetica,sans-Serif" font-size="10.00">odp_api.h</text>
</a>
</g>
</g>
<!-- Node15&#45;&gt;Node16 -->
<g id="edge9" class="edge"><title>Node15&#45;&gt;Node16</title>
<path fill="none" stroke="midnightblue" d="M433,-101.805C433,-92.9102 433,-82.7798 433,-75.7511"/>
<polygon fill="midnightblue" stroke="midnightblue" points="429.5,-102.083 433,-112.083 436.5,-102.083 429.5,-102.083"/>
</g>
<!-- Node17 -->
<g id="node11" class="node"><title>Node17</title>
<g id="a_node11"><a xlink:href="odp_8h.html" target="_top" xlink:title="WARNING: THIS FILE IS DEPRECATED AND WILL BE REMOVED!!! ODP APPLICATIONS SHOULD NOW INCLUDE odp_api...">
<polygon fill="white" stroke="black" points="411,-0.5 411,-19.5 455,-19.5 455,-0.5 411,-0.5"/>
<text text-anchor="middle" x="433" y="-7.5" font-family="Helvetica,sans-Serif" font-size="10.00">odp.h</text>
</a>
</g>
</g>
<!-- Node16&#45;&gt;Node17 -->
<g id="edge10" class="edge"><title>Node16&#45;&gt;Node17</title>
<path fill="none" stroke="midnightblue" d="M433,-45.8045C433,-36.9102 433,-26.7798 433,-19.7511"/>
<polygon fill="midnightblue" stroke="midnightblue" points="429.5,-46.083 433,-56.083 436.5,-46.083 429.5,-46.083"/>
</g>
</g>
</svg>
