<?xml version="1.0" encoding="UTF-8" standalone="no"?>
<!DOCTYPE svg PUBLIC "-//W3C//DTD SVG 1.1//EN"
 "http://www.w3.org/Graphics/SVG/1.1/DTD/svg11.dtd">
<!-- Generated by graphviz version 2.38.0 (20140413.2041)
 -->
<!-- Title: align.h Pages: 1 -->
<svg width="304pt" height="140pt"
 viewBox="0.00 0.00 303.50 140.00" xmlns="http://www.w3.org/2000/svg" xmlns:xlink="http://www.w3.org/1999/xlink">
<g id="graph0" class="graph" transform="scale(1 1) rotate(0) translate(4 136)">
<title>align.h</title>
<polygon fill="white" stroke="none" points="-4,4 -4,-136 299.5,-136 299.5,4 -4,4"/>
<!-- Node0 -->
<g id="node1" class="node"><title>Node0</title>
<polygon fill="#bfbfbf" stroke="black" points="91,-112.5 91,-131.5 139,-131.5 139,-112.5 91,-112.5"/>
<text text-anchor="middle" x="115" y="-119.5" font-family="Helvetica,sans-Serif" font-size="10.00">align.h</text>
</g>
<!-- Node1 -->
<g id="node2" class="node"><title>Node1</title>
<polygon fill="white" stroke="#bfbfbf" points="0,-56.5 0,-75.5 104,-75.5 104,-56.5 0,-56.5"/>
<text text-anchor="middle" x="52" y="-63.5" font-family="Helvetica,sans-Serif" font-size="10.00">odp/api/abi/align.h</text>
</g>
<!-- Node0&#45;&gt;Node1 -->
<g id="edge1" class="edge"><title>Node0&#45;&gt;Node1</title>
<path fill="none" stroke="midnightblue" d="M104.878,-112.324C95.4736,-104.263 81.2559,-92.0765 69.931,-82.3695"/>
<polygon fill="midnightblue" stroke="midnightblue" points="72.1766,-79.6844 62.3062,-75.8339 67.621,-84.9993 72.1766,-79.6844"/>
</g>
<!-- Node2 -->
<g id="node3" class="node"><title>Node2</title>
<g id="a_node3"><a xlink:href="api_2spec_2align_8h.html" target="_top" xlink:title="ODP alignments. ">
<polygon fill="white" stroke="black" points="122,-56.5 122,-75.5 234,-75.5 234,-56.5 122,-56.5"/>
<text text-anchor="middle" x="178" y="-63.5" font-family="Helvetica,sans-Serif" font-size="10.00">odp/api/spec/align.h</text>
</a>
</g>
</g>
<!-- Node0&#45;&gt;Node2 -->
<g id="edge2" class="edge"><title>Node0&#45;&gt;Node2</title>
<path fill="none" stroke="midnightblue" d="M125.122,-112.324C134.526,-104.263 148.744,-92.0765 160.069,-82.3695"/>
<polygon fill="midnightblue" stroke="midnightblue" points="162.379,-84.9993 167.694,-75.8339 157.823,-79.6844 162.379,-84.9993"/>
</g>
<!-- Node3 -->
<g id="node4" class="node"><title>Node3</title>
<g id="a_node4"><a xlink:href="visibility__begin_8h_source.html" target="_top" xlink:title="odp/visibility_begin.h">
<polygon fill="white" stroke="black" points="55.5,-0.5 55.5,-19.5 170.5,-19.5 170.5,-0.5 55.5,-0.5"/>
<text text-anchor="middle" x="113" y="-7.5" font-family="Helvetica,sans-Serif" font-size="10.00">odp/visibility_begin.h</text>
</a>
</g>
</g>
<!-- Node2&#45;&gt;Node3 -->
<g id="edge3" class="edge"><title>Node2&#45;&gt;Node3</title>
<path fill="none" stroke="midnightblue" d="M167.557,-56.324C157.854,-48.2631 143.185,-36.0765 131.5,-26.3695"/>
<polygon fill="midnightblue" stroke="midnightblue" points="133.562,-23.532 123.633,-19.8339 129.089,-28.9163 133.562,-23.532"/>
</g>
<!-- Node4 -->
<g id="node5" class="node"><title>Node4</title>
<g id="a_node5"><a xlink:href="visibility__end_8h_source.html" target="_top" xlink:title="odp/visibility_end.h">
<polygon fill="white" stroke="black" points="188.5,-0.5 188.5,-19.5 295.5,-19.5 295.5,-0.5 188.5,-0.5"/>
<text text-anchor="middle" x="242" y="-7.5" font-family="Helvetica,sans-Serif" font-size="10.00">odp/visibility_end.h</text>
</a>
</g>
</g>
<!-- Node2&#45;&gt;Node4 -->
<g id="edge4" class="edge"><title>Node2&#45;&gt;Node4</title>
<path fill="none" stroke="midnightblue" d="M188.283,-56.324C197.836,-48.2631 212.28,-36.0765 223.784,-26.3695"/>
<polygon fill="midnightblue" stroke="midnightblue" points="226.144,-28.9577 231.53,-19.8339 221.63,-23.6076 226.144,-28.9577"/>
</g>
</g>
</svg>
