<?xml version="1.0" encoding="UTF-8" standalone="no"?>
<!DOCTYPE svg PUBLIC "-//W3C//DTD SVG 1.1//EN"
 "http://www.w3.org/Graphics/SVG/1.1/DTD/svg11.dtd">
<!-- Generated by graphviz version 2.38.0 (20140413.2041)
 -->
<!-- Title: event.h Pages: 1 -->
<svg width="462pt" height="588pt"
 viewBox="0.00 0.00 462.00 588.00" xmlns="http://www.w3.org/2000/svg" xmlns:xlink="http://www.w3.org/1999/xlink">
<g id="graph0" class="graph" transform="scale(1 1) rotate(0) translate(4 584)">
<title>event.h</title>
<polygon fill="white" stroke="none" points="-4,4 -4,-584 458,-584 458,4 -4,4"/>
<!-- Node18 -->
<g id="node1" class="node"><title>Node18</title>
<polygon fill="#bfbfbf" stroke="black" points="244.5,-560.5 244.5,-579.5 297.5,-579.5 297.5,-560.5 244.5,-560.5"/>
<text text-anchor="middle" x="271" y="-567.5" font-family="Helvetica,sans-Serif" font-size="10.00">event.h</text>
</g>
<!-- Node19 -->
<g id="node2" class="node"><title>Node19</title>
<g id="a_node2"><a xlink:href="api_2spec_2queue_8h.html" target="_top" xlink:title="ODP queue. ">
<polygon fill="white" stroke="black" points="243,-504.5 243,-523.5 299,-523.5 299,-504.5 243,-504.5"/>
<text text-anchor="middle" x="271" y="-511.5" font-family="Helvetica,sans-Serif" font-size="10.00">queue.h</text>
</a>
</g>
</g>
<!-- Node18&#45;&gt;Node19 -->
<g id="edge1" class="edge"><title>Node18&#45;&gt;Node19</title>
<path fill="none" stroke="midnightblue" d="M271,-549.805C271,-540.91 271,-530.78 271,-523.751"/>
<polygon fill="midnightblue" stroke="midnightblue" points="267.5,-550.083 271,-560.083 274.5,-550.083 267.5,-550.083"/>
</g>
<!-- Node24 -->
<g id="node7" class="node"><title>Node24</title>
<g id="a_node7"><a xlink:href="odp__api_8h.html" target="_top" xlink:title="The OpenDataPlane API. ">
<polygon fill="white" stroke="black" points="152.5,-56.5 152.5,-75.5 215.5,-75.5 215.5,-56.5 152.5,-56.5"/>
<text text-anchor="middle" x="184" y="-63.5" font-family="Helvetica,sans-Serif" font-size="10.00">odp_api.h</text>
</a>
</g>
</g>
<!-- Node18&#45;&gt;Node24 -->
<g id="edge25" class="edge"><title>Node18&#45;&gt;Node24</title>
<path fill="none" stroke="midnightblue" d="M234.165,-562.077C160.067,-547.095 0,-508.951 0,-459 0,-459 0,-459 0,-177 0,-106.845 99.761,-80.3644 152.369,-71.2775"/>
<polygon fill="midnightblue" stroke="midnightblue" points="233.534,-565.52 244.025,-564.036 234.899,-558.654 233.534,-565.52"/>
</g>
<!-- Node32 -->
<g id="node15" class="node"><title>Node32</title>
<g id="a_node15"><a xlink:href="api_2spec_2schedule_8h.html" target="_top" xlink:title="ODP schedule. ">
<polygon fill="white" stroke="black" points="386,-392.5 386,-411.5 454,-411.5 454,-392.5 386,-392.5"/>
<text text-anchor="middle" x="420" y="-399.5" font-family="Helvetica,sans-Serif" font-size="10.00">schedule.h</text>
</a>
</g>
</g>
<!-- Node18&#45;&gt;Node32 -->
<g id="edge24" class="edge"><title>Node18&#45;&gt;Node32</title>
<path fill="none" stroke="midnightblue" d="M286.071,-552.21C317.438,-517.264 388.776,-437.787 412.309,-411.568"/>
<polygon fill="midnightblue" stroke="midnightblue" points="283.086,-550.295 279.011,-560.075 288.295,-554.971 283.086,-550.295"/>
</g>
<!-- Node20 -->
<g id="node3" class="node"><title>Node20</title>
<g id="a_node3"><a xlink:href="api_2queue_8h.html" target="_top" xlink:title="ODP queue. ">
<polygon fill="white" stroke="black" points="243,-448.5 243,-467.5 299,-467.5 299,-448.5 243,-448.5"/>
<text text-anchor="middle" x="271" y="-455.5" font-family="Helvetica,sans-Serif" font-size="10.00">queue.h</text>
</a>
</g>
</g>
<!-- Node19&#45;&gt;Node20 -->
<g id="edge2" class="edge"><title>Node19&#45;&gt;Node20</title>
<path fill="none" stroke="midnightblue" d="M271,-493.805C271,-484.91 271,-474.78 271,-467.751"/>
<polygon fill="midnightblue" stroke="midnightblue" points="267.5,-494.083 271,-504.083 274.5,-494.083 267.5,-494.083"/>
</g>
<!-- Node21 -->
<g id="node4" class="node"><title>Node21</title>
<g id="a_node4"><a xlink:href="api_2crypto_8h.html" target="_top" xlink:title="ODP crypto. ">
<polygon fill="white" stroke="black" points="345,-224.5 345,-243.5 401,-243.5 401,-224.5 345,-224.5"/>
<text text-anchor="middle" x="373" y="-231.5" font-family="Helvetica,sans-Serif" font-size="10.00">crypto.h</text>
</a>
</g>
</g>
<!-- Node20&#45;&gt;Node21 -->
<g id="edge3" class="edge"><title>Node20&#45;&gt;Node21</title>
<path fill="none" stroke="midnightblue" d="M279.198,-439.157C299.891,-394.119 353.674,-277.063 368.918,-243.884"/>
<polygon fill="midnightblue" stroke="midnightblue" points="275.993,-437.749 274.999,-448.297 282.354,-440.672 275.993,-437.749"/>
</g>
<!-- Node20&#45;&gt;Node24 -->
<g id="edge23" class="edge"><title>Node20&#45;&gt;Node24</title>
<path fill="none" stroke="midnightblue" d="M232.857,-455.805C166.777,-451.482 38,-432.135 38,-347 38,-347 38,-347 38,-177 38,-120.192 109.38,-89.0468 152.32,-75.4503"/>
<polygon fill="midnightblue" stroke="midnightblue" points="232.712,-459.302 242.895,-456.378 233.11,-452.314 232.712,-459.302"/>
</g>
<!-- Node26 -->
<g id="node9" class="node"><title>Node26</title>
<g id="a_node9"><a xlink:href="api_2spec_2packet__io_8h.html" target="_top" xlink:title="ODP Packet IO. ">
<polygon fill="white" stroke="black" points="198.5,-392.5 198.5,-411.5 269.5,-411.5 269.5,-392.5 198.5,-392.5"/>
<text text-anchor="middle" x="234" y="-399.5" font-family="Helvetica,sans-Serif" font-size="10.00">packet_io.h</text>
</a>
</g>
</g>
<!-- Node20&#45;&gt;Node26 -->
<g id="edge9" class="edge"><title>Node20&#45;&gt;Node26</title>
<path fill="none" stroke="midnightblue" d="M259.054,-439.566C252.688,-430.275 245.133,-419.248 239.996,-411.751"/>
<polygon fill="midnightblue" stroke="midnightblue" points="256.351,-441.812 264.89,-448.083 262.125,-437.855 256.351,-441.812"/>
</g>
<!-- Node20&#45;&gt;Node32 -->
<g id="edge20" class="edge"><title>Node20&#45;&gt;Node32</title>
<path fill="none" stroke="midnightblue" d="M304.371,-444.906C332.384,-434.754 371.696,-420.506 396.501,-411.516"/>
<polygon fill="midnightblue" stroke="midnightblue" points="302.819,-441.746 294.609,-448.444 305.204,-448.327 302.819,-441.746"/>
</g>
<!-- Node22 -->
<g id="node5" class="node"><title>Node22</title>
<g id="a_node5"><a xlink:href="api_2spec_2ipsec_8h.html" target="_top" xlink:title="ODP IPSEC API. ">
<polygon fill="white" stroke="black" points="206,-168.5 206,-187.5 256,-187.5 256,-168.5 206,-168.5"/>
<text text-anchor="middle" x="231" y="-175.5" font-family="Helvetica,sans-Serif" font-size="10.00">ipsec.h</text>
</a>
</g>
</g>
<!-- Node21&#45;&gt;Node22 -->
<g id="edge4" class="edge"><title>Node21&#45;&gt;Node22</title>
<path fill="none" stroke="midnightblue" d="M340.845,-220.772C314.172,-210.629 276.931,-196.467 253.395,-187.516"/>
<polygon fill="midnightblue" stroke="midnightblue" points="339.909,-224.16 350.5,-224.444 342.397,-217.618 339.909,-224.16"/>
</g>
<!-- Node21&#45;&gt;Node24 -->
<g id="edge8" class="edge"><title>Node21&#45;&gt;Node24</title>
<path fill="none" stroke="midnightblue" d="M361.507,-215.939C343.902,-190.761 308.155,-143.267 269,-112 249.298,-96.267 223.265,-83.4378 205.225,-75.5606"/>
<polygon fill="midnightblue" stroke="midnightblue" points="358.786,-218.159 367.336,-224.415 364.554,-214.192 358.786,-218.159"/>
</g>
<!-- Node23 -->
<g id="node6" class="node"><title>Node23</title>
<g id="a_node6"><a xlink:href="api_2ipsec_8h.html" target="_top" xlink:title="ODP IPSEC API &#45; platform specific header. ">
<polygon fill="white" stroke="black" points="190,-112.5 190,-131.5 240,-131.5 240,-112.5 190,-112.5"/>
<text text-anchor="middle" x="215" y="-119.5" font-family="Helvetica,sans-Serif" font-size="10.00">ipsec.h</text>
</a>
</g>
</g>
<!-- Node22&#45;&gt;Node23 -->
<g id="edge5" class="edge"><title>Node22&#45;&gt;Node23</title>
<path fill="none" stroke="midnightblue" d="M225.488,-158.396C222.811,-149.362 219.722,-138.936 217.593,-131.751"/>
<polygon fill="midnightblue" stroke="midnightblue" points="222.161,-159.489 228.358,-168.083 228.873,-157.501 222.161,-159.489"/>
</g>
<!-- Node23&#45;&gt;Node24 -->
<g id="edge6" class="edge"><title>Node23&#45;&gt;Node24</title>
<path fill="none" stroke="midnightblue" d="M204.824,-103.275C199.526,-94.0454 193.283,-83.1703 189.024,-75.7511"/>
<polygon fill="midnightblue" stroke="midnightblue" points="201.867,-105.153 209.881,-112.083 207.938,-101.668 201.867,-105.153"/>
</g>
<!-- Node25 -->
<g id="node8" class="node"><title>Node25</title>
<g id="a_node8"><a xlink:href="odp_8h.html" target="_top" xlink:title="WARNING: THIS FILE IS DEPRECATED AND WILL BE REMOVED!!! ODP APPLICATIONS SHOULD NOW INCLUDE odp_api...">
<polygon fill="white" stroke="black" points="162,-0.5 162,-19.5 206,-19.5 206,-0.5 162,-0.5"/>
<text text-anchor="middle" x="184" y="-7.5" font-family="Helvetica,sans-Serif" font-size="10.00">odp.h</text>
</a>
</g>
</g>
<!-- Node24&#45;&gt;Node25 -->
<g id="edge7" class="edge"><title>Node24&#45;&gt;Node25</title>
<path fill="none" stroke="midnightblue" d="M184,-45.8045C184,-36.9102 184,-26.7798 184,-19.7511"/>
<polygon fill="midnightblue" stroke="midnightblue" points="180.5,-46.083 184,-56.083 187.5,-46.083 180.5,-46.083"/>
</g>
<!-- Node27 -->
<g id="node10" class="node"><title>Node27</title>
<g id="a_node10"><a xlink:href="api_2packet__io_8h.html" target="_top" xlink:title="ODP Packet IO. ">
<polygon fill="white" stroke="black" points="180.5,-336.5 180.5,-355.5 251.5,-355.5 251.5,-336.5 180.5,-336.5"/>
<text text-anchor="middle" x="216" y="-343.5" font-family="Helvetica,sans-Serif" font-size="10.00">packet_io.h</text>
</a>
</g>
</g>
<!-- Node26&#45;&gt;Node27 -->
<g id="edge10" class="edge"><title>Node26&#45;&gt;Node27</title>
<path fill="none" stroke="midnightblue" d="M227.799,-382.396C224.787,-373.362 221.312,-362.936 218.917,-355.751"/>
<polygon fill="midnightblue" stroke="midnightblue" points="224.545,-383.703 231.028,-392.083 231.186,-381.489 224.545,-383.703"/>
</g>
<!-- Node27&#45;&gt;Node22 -->
<g id="edge15" class="edge"><title>Node27&#45;&gt;Node22</title>
<path fill="none" stroke="midnightblue" d="M217.723,-325.93C220.977,-289.92 227.907,-213.231 230.226,-187.568"/>
<polygon fill="midnightblue" stroke="midnightblue" points="214.221,-325.801 216.806,-336.075 221.192,-326.431 214.221,-325.801"/>
</g>
<!-- Node27&#45;&gt;Node24 -->
<g id="edge19" class="edge"><title>Node27&#45;&gt;Node24</title>
<path fill="none" stroke="midnightblue" d="M170.426,-338.312C145.008,-332.328 114.614,-321.073 95,-300 74.4938,-277.969 76,-265.098 76,-235 76,-235 76,-235 76,-177 76,-126.685 134.245,-90.9466 165.188,-75.5104"/>
<polygon fill="midnightblue" stroke="midnightblue" points="169.736,-341.744 180.249,-340.428 171.209,-334.901 169.736,-341.744"/>
</g>
<!-- Node28 -->
<g id="node11" class="node"><title>Node28</title>
<g id="a_node11"><a xlink:href="api_2spec_2classification_8h.html" target="_top" xlink:title="ODP classification descriptor. ">
<polygon fill="white" stroke="black" points="244,-280.5 244,-299.5 330,-299.5 330,-280.5 244,-280.5"/>
<text text-anchor="middle" x="287" y="-287.5" font-family="Helvetica,sans-Serif" font-size="10.00">classification.h</text>
</a>
</g>
</g>
<!-- Node27&#45;&gt;Node28 -->
<g id="edge11" class="edge"><title>Node27&#45;&gt;Node28</title>
<path fill="none" stroke="midnightblue" d="M235.59,-330.101C248.368,-320.382 264.613,-308.027 275.385,-299.834"/>
<polygon fill="midnightblue" stroke="midnightblue" points="233.248,-327.484 227.407,-336.324 237.486,-333.056 233.248,-327.484"/>
</g>
<!-- Node30 -->
<g id="node13" class="node"><title>Node30</title>
<g id="a_node13"><a xlink:href="api_2spec_2traffic__mngr_8h.html" target="_top" xlink:title="Copyright (c) 2015&#45;2018, Linaro Limited All rights reserved. ">
<polygon fill="white" stroke="black" points="104.5,-280.5 104.5,-299.5 187.5,-299.5 187.5,-280.5 104.5,-280.5"/>
<text text-anchor="middle" x="146" y="-287.5" font-family="Helvetica,sans-Serif" font-size="10.00">traffic_mngr.h</text>
</a>
</g>
</g>
<!-- Node27&#45;&gt;Node30 -->
<g id="edge16" class="edge"><title>Node27&#45;&gt;Node30</title>
<path fill="none" stroke="midnightblue" d="M196.686,-330.101C184.088,-320.382 168.072,-308.027 157.451,-299.834"/>
<polygon fill="midnightblue" stroke="midnightblue" points="194.698,-332.987 204.753,-336.324 198.973,-327.445 194.698,-332.987"/>
</g>
<!-- Node29 -->
<g id="node12" class="node"><title>Node29</title>
<g id="a_node12"><a xlink:href="api_2classification_8h.html" target="_top" xlink:title="ODP classification descriptor. ">
<polygon fill="white" stroke="black" points="241,-224.5 241,-243.5 327,-243.5 327,-224.5 241,-224.5"/>
<text text-anchor="middle" x="284" y="-231.5" font-family="Helvetica,sans-Serif" font-size="10.00">classification.h</text>
</a>
</g>
</g>
<!-- Node28&#45;&gt;Node29 -->
<g id="edge12" class="edge"><title>Node28&#45;&gt;Node29</title>
<path fill="none" stroke="midnightblue" d="M285.934,-269.805C285.439,-260.91 284.877,-250.78 284.486,-243.751"/>
<polygon fill="midnightblue" stroke="midnightblue" points="282.455,-270.293 286.505,-280.083 289.444,-269.904 282.455,-270.293"/>
</g>
<!-- Node29&#45;&gt;Node22 -->
<g id="edge13" class="edge"><title>Node29&#45;&gt;Node22</title>
<path fill="none" stroke="midnightblue" d="M268.019,-216.718C258.678,-207.2 247.254,-195.561 239.589,-187.751"/>
<polygon fill="midnightblue" stroke="midnightblue" points="265.746,-219.398 275.248,-224.083 270.741,-214.494 265.746,-219.398"/>
</g>
<!-- Node29&#45;&gt;Node24 -->
<g id="edge14" class="edge"><title>Node29&#45;&gt;Node24</title>
<path fill="none" stroke="midnightblue" d="M282.467,-214.108C279.59,-188.742 271.475,-143.255 249,-112 237.221,-95.6193 217.537,-83.2131 202.911,-75.6181"/>
<polygon fill="midnightblue" stroke="midnightblue" points="278.999,-214.61 283.453,-224.223 285.966,-213.931 278.999,-214.61"/>
</g>
<!-- Node31 -->
<g id="node14" class="node"><title>Node31</title>
<g id="a_node14"><a xlink:href="api_2traffic__mngr_8h.html" target="_top" xlink:title="ODP Traffic manager. ">
<polygon fill="white" stroke="black" points="104.5,-168.5 104.5,-187.5 187.5,-187.5 187.5,-168.5 104.5,-168.5"/>
<text text-anchor="middle" x="146" y="-175.5" font-family="Helvetica,sans-Serif" font-size="10.00">traffic_mngr.h</text>
</a>
</g>
</g>
<!-- Node30&#45;&gt;Node31 -->
<g id="edge17" class="edge"><title>Node30&#45;&gt;Node31</title>
<path fill="none" stroke="midnightblue" d="M146,-270.348C146,-246.254 146,-205.308 146,-187.591"/>
<polygon fill="midnightblue" stroke="midnightblue" points="142.5,-270.368 146,-280.368 149.5,-270.369 142.5,-270.368"/>
</g>
<!-- Node31&#45;&gt;Node24 -->
<g id="edge18" class="edge"><title>Node31&#45;&gt;Node24</title>
<path fill="none" stroke="midnightblue" d="M152.331,-158.674C160.639,-134.625 174.884,-93.3881 181.032,-75.5914"/>
<polygon fill="midnightblue" stroke="midnightblue" points="148.939,-157.774 148.982,-168.368 155.555,-160.059 148.939,-157.774"/>
</g>
<!-- Node33 -->
<g id="node16" class="node"><title>Node33</title>
<g id="a_node16"><a xlink:href="api_2schedule_8h.html" target="_top" xlink:title="ODP schedule. ">
<polygon fill="white" stroke="black" points="383,-112.5 383,-131.5 451,-131.5 451,-112.5 383,-112.5"/>
<text text-anchor="middle" x="417" y="-119.5" font-family="Helvetica,sans-Serif" font-size="10.00">schedule.h</text>
</a>
</g>
</g>
<!-- Node32&#45;&gt;Node33 -->
<g id="edge21" class="edge"><title>Node32&#45;&gt;Node33</title>
<path fill="none" stroke="midnightblue" d="M422.467,-382.289C425.132,-360.431 429,-323.159 429,-291 429,-291 429,-291 429,-233 429,-194.963 421.822,-149.962 418.569,-131.523"/>
<polygon fill="midnightblue" stroke="midnightblue" points="418.963,-382.101 421.177,-392.462 425.907,-382.982 418.963,-382.101"/>
</g>
<!-- Node33&#45;&gt;Node24 -->
<g id="edge22" class="edge"><title>Node33&#45;&gt;Node24</title>
<path fill="none" stroke="midnightblue" d="M372.643,-110.72C326.699,-100.072 256.068,-83.7024 215.529,-74.3072"/>
<polygon fill="midnightblue" stroke="midnightblue" points="372.088,-114.184 382.62,-113.032 373.668,-107.365 372.088,-114.184"/>
</g>
</g>
</svg>
