<?xml version="1.0" encoding="UTF-8" standalone="no"?>
<!DOCTYPE svg PUBLIC "-//W3C//DTD SVG 1.1//EN"
 "http://www.w3.org/Graphics/SVG/1.1/DTD/svg11.dtd">
<!-- Generated by graphviz version 2.38.0 (20140413.2041)
 -->
<!-- Title: schedule_types.h Pages: 1 -->
<svg width="1171pt" height="756pt"
 viewBox="0.00 0.00 1171.39 756.00" xmlns="http://www.w3.org/2000/svg" xmlns:xlink="http://www.w3.org/1999/xlink">
<g id="graph0" class="graph" transform="scale(1 1) rotate(0) translate(4 752)">
<title>schedule_types.h</title>
<polygon fill="white" stroke="none" points="-4,4 -4,-752 1167.39,-752 1167.39,4 -4,4"/>
<!-- Node1 -->
<g id="node1" class="node"><title>Node1</title>
<polygon fill="#bfbfbf" stroke="black" points="354,-728.5 354,-747.5 454,-747.5 454,-728.5 354,-728.5"/>
<text text-anchor="middle" x="404" y="-735.5" font-family="Helvetica,sans-Serif" font-size="10.00">schedule_types.h</text>
</g>
<!-- Node2 -->
<g id="node2" class="node"><title>Node2</title>
<g id="a_node2"><a xlink:href="arch_2arm32-linux_2odp_2api_2abi_2schedule__types_8h_source.html" target="_top" xlink:title="schedule_types.h">
<polygon fill="white" stroke="black" points="0,-672.5 0,-691.5 100,-691.5 100,-672.5 0,-672.5"/>
<text text-anchor="middle" x="50" y="-679.5" font-family="Helvetica,sans-Serif" font-size="10.00">schedule_types.h</text>
</a>
</g>
</g>
<!-- Node1&#45;&gt;Node2 -->
<g id="edge1" class="edge"><title>Node1&#45;&gt;Node2</title>
<path fill="none" stroke="midnightblue" d="M343.43,-727.761C274.794,-717.291 164.178,-700.417 100.17,-690.653"/>
<polygon fill="midnightblue" stroke="midnightblue" points="343.243,-731.272 353.656,-729.32 344.299,-724.352 343.243,-731.272"/>
</g>
<!-- Node3 -->
<g id="node3" class="node"><title>Node3</title>
<g id="a_node3"><a xlink:href="arch_2arm64-linux_2odp_2api_2abi_2schedule__types_8h_source.html" target="_top" xlink:title="schedule_types.h">
<polygon fill="white" stroke="black" points="118,-672.5 118,-691.5 218,-691.5 218,-672.5 118,-672.5"/>
<text text-anchor="middle" x="168" y="-679.5" font-family="Helvetica,sans-Serif" font-size="10.00">schedule_types.h</text>
</a>
</g>
</g>
<!-- Node1&#45;&gt;Node3 -->
<g id="edge2" class="edge"><title>Node1&#45;&gt;Node3</title>
<path fill="none" stroke="midnightblue" d="M356.594,-726.153C312.003,-715.95 246.146,-700.881 205.22,-691.516"/>
<polygon fill="midnightblue" stroke="midnightblue" points="356.076,-729.625 366.605,-728.444 357.638,-722.801 356.076,-729.625"/>
</g>
<!-- Node4 -->
<g id="node4" class="node"><title>Node4</title>
<g id="a_node4"><a xlink:href="arch_2default-linux_2odp_2api_2abi_2schedule__types_8h_source.html" target="_top" xlink:title="schedule_types.h">
<polygon fill="white" stroke="black" points="236,-672.5 236,-691.5 336,-691.5 336,-672.5 236,-672.5"/>
<text text-anchor="middle" x="286" y="-679.5" font-family="Helvetica,sans-Serif" font-size="10.00">schedule_types.h</text>
</a>
</g>
</g>
<!-- Node1&#45;&gt;Node4 -->
<g id="edge3" class="edge"><title>Node1&#45;&gt;Node4</title>
<path fill="none" stroke="midnightblue" d="M376.1,-724.232C354.027,-714.131 323.824,-700.309 304.61,-691.516"/>
<polygon fill="midnightblue" stroke="midnightblue" points="374.753,-727.465 385.303,-728.444 377.666,-721.1 374.753,-727.465"/>
</g>
<!-- Node5 -->
<g id="node5" class="node"><title>Node5</title>
<g id="a_node5"><a xlink:href="arch_2mips64-linux_2odp_2api_2abi_2schedule__types_8h_source.html" target="_top" xlink:title="schedule_types.h">
<polygon fill="white" stroke="black" points="354,-672.5 354,-691.5 454,-691.5 454,-672.5 354,-672.5"/>
<text text-anchor="middle" x="404" y="-679.5" font-family="Helvetica,sans-Serif" font-size="10.00">schedule_types.h</text>
</a>
</g>
</g>
<!-- Node1&#45;&gt;Node5 -->
<g id="edge4" class="edge"><title>Node1&#45;&gt;Node5</title>
<path fill="none" stroke="midnightblue" d="M404,-717.805C404,-708.91 404,-698.78 404,-691.751"/>
<polygon fill="midnightblue" stroke="midnightblue" points="400.5,-718.083 404,-728.083 407.5,-718.083 400.5,-718.083"/>
</g>
<!-- Node6 -->
<g id="node6" class="node"><title>Node6</title>
<g id="a_node6"><a xlink:href="arch_2power64-linux_2odp_2api_2abi_2schedule__types_8h_source.html" target="_top" xlink:title="schedule_types.h">
<polygon fill="white" stroke="black" points="472,-672.5 472,-691.5 572,-691.5 572,-672.5 472,-672.5"/>
<text text-anchor="middle" x="522" y="-679.5" font-family="Helvetica,sans-Serif" font-size="10.00">schedule_types.h</text>
</a>
</g>
</g>
<!-- Node1&#45;&gt;Node6 -->
<g id="edge5" class="edge"><title>Node1&#45;&gt;Node6</title>
<path fill="none" stroke="midnightblue" d="M431.9,-724.232C453.973,-714.131 484.176,-700.309 503.39,-691.516"/>
<polygon fill="midnightblue" stroke="midnightblue" points="430.334,-721.1 422.697,-728.444 433.247,-727.465 430.334,-721.1"/>
</g>
<!-- Node7 -->
<g id="node7" class="node"><title>Node7</title>
<g id="a_node7"><a xlink:href="arch_2x86__32-linux_2odp_2api_2abi_2schedule__types_8h_source.html" target="_top" xlink:title="schedule_types.h">
<polygon fill="white" stroke="black" points="590,-672.5 590,-691.5 690,-691.5 690,-672.5 590,-672.5"/>
<text text-anchor="middle" x="640" y="-679.5" font-family="Helvetica,sans-Serif" font-size="10.00">schedule_types.h</text>
</a>
</g>
</g>
<!-- Node1&#45;&gt;Node7 -->
<g id="edge6" class="edge"><title>Node1&#45;&gt;Node7</title>
<path fill="none" stroke="midnightblue" d="M451.406,-726.153C495.997,-715.95 561.854,-700.881 602.78,-691.516"/>
<polygon fill="midnightblue" stroke="midnightblue" points="450.362,-722.801 441.395,-728.444 451.924,-729.625 450.362,-722.801"/>
</g>
<!-- Node8 -->
<g id="node8" class="node"><title>Node8</title>
<g id="a_node8"><a xlink:href="arch_2x86__64-linux_2odp_2api_2abi_2schedule__types_8h_source.html" target="_top" xlink:title="schedule_types.h">
<polygon fill="white" stroke="black" points="708,-672.5 708,-691.5 808,-691.5 808,-672.5 708,-672.5"/>
<text text-anchor="middle" x="758" y="-679.5" font-family="Helvetica,sans-Serif" font-size="10.00">schedule_types.h</text>
</a>
</g>
</g>
<!-- Node1&#45;&gt;Node8 -->
<g id="edge7" class="edge"><title>Node1&#45;&gt;Node8</title>
<path fill="none" stroke="midnightblue" d="M464.57,-727.761C533.206,-717.291 643.822,-700.417 707.83,-690.653"/>
<polygon fill="midnightblue" stroke="midnightblue" points="463.701,-724.352 454.344,-729.32 464.757,-731.272 463.701,-724.352"/>
</g>
<!-- Node9 -->
<g id="node9" class="node"><title>Node9</title>
<g id="a_node9"><a xlink:href="api_2schedule_8h.html" target="_top" xlink:title="ODP schedule. ">
<polygon fill="white" stroke="black" points="747,-336.5 747,-355.5 815,-355.5 815,-336.5 747,-336.5"/>
<text text-anchor="middle" x="781" y="-343.5" font-family="Helvetica,sans-Serif" font-size="10.00">schedule.h</text>
</a>
</g>
</g>
<!-- Node8&#45;&gt;Node9 -->
<g id="edge8" class="edge"><title>Node8&#45;&gt;Node9</title>
<path fill="none" stroke="midnightblue" d="M747.59,-663.463C736.037,-642.302 719,-605.284 719,-571 719,-571 719,-571 719,-457 719,-426.902 722.953,-418.066 738,-392 746.428,-377.401 760.552,-363.884 770.3,-355.552"/>
<polygon fill="midnightblue" stroke="midnightblue" points="744.597,-665.28 752.577,-672.25 750.685,-661.825 744.597,-665.28"/>
</g>
<!-- Node12 -->
<g id="node12" class="node"><title>Node12</title>
<g id="a_node12"><a xlink:href="api_2schedule__types_8h.html" target="_top" xlink:title="ODP schedule. ">
<polygon fill="white" stroke="black" points="747,-616.5 747,-635.5 847,-635.5 847,-616.5 747,-616.5"/>
<text text-anchor="middle" x="797" y="-623.5" font-family="Helvetica,sans-Serif" font-size="10.00">schedule_types.h</text>
</a>
</g>
</g>
<!-- Node8&#45;&gt;Node12 -->
<g id="edge11" class="edge"><title>Node8&#45;&gt;Node12</title>
<path fill="none" stroke="midnightblue" d="M770.382,-663.855C777.135,-654.505 785.209,-643.327 790.68,-635.751"/>
<polygon fill="midnightblue" stroke="midnightblue" points="767.458,-661.927 764.44,-672.083 773.132,-666.025 767.458,-661.927"/>
</g>
<!-- Node10 -->
<g id="node10" class="node"><title>Node10</title>
<g id="a_node10"><a xlink:href="odp__api_8h.html" target="_top" xlink:title="The OpenDataPlane API. ">
<polygon fill="white" stroke="black" points="922.5,-56.5 922.5,-75.5 985.5,-75.5 985.5,-56.5 922.5,-56.5"/>
<text text-anchor="middle" x="954" y="-63.5" font-family="Helvetica,sans-Serif" font-size="10.00">odp_api.h</text>
</a>
</g>
</g>
<!-- Node9&#45;&gt;Node10 -->
<g id="edge9" class="edge"><title>Node9&#45;&gt;Node10</title>
<path fill="none" stroke="midnightblue" d="M784.289,-326.319C787.842,-304.488 793,-267.242 793,-235 793,-235 793,-235 793,-177 793,-143.976 803.855,-133.408 829,-112 855.782,-89.1987 895.014,-77.5942 922.358,-71.9379"/>
<polygon fill="midnightblue" stroke="midnightblue" points="780.788,-326.033 782.569,-336.477 787.69,-327.202 780.788,-326.033"/>
</g>
<!-- Node11 -->
<g id="node11" class="node"><title>Node11</title>
<g id="a_node11"><a xlink:href="odp_8h.html" target="_top" xlink:title="WARNING: THIS FILE IS DEPRECATED AND WILL BE REMOVED!!! ODP APPLICATIONS SHOULD NOW INCLUDE odp_api...">
<polygon fill="white" stroke="black" points="932,-0.5 932,-19.5 976,-19.5 976,-0.5 932,-0.5"/>
<text text-anchor="middle" x="954" y="-7.5" font-family="Helvetica,sans-Serif" font-size="10.00">odp.h</text>
</a>
</g>
</g>
<!-- Node10&#45;&gt;Node11 -->
<g id="edge10" class="edge"><title>Node10&#45;&gt;Node11</title>
<path fill="none" stroke="midnightblue" d="M954,-45.8045C954,-36.9102 954,-26.7798 954,-19.7511"/>
<polygon fill="midnightblue" stroke="midnightblue" points="950.5,-46.083 954,-56.083 957.5,-46.083 950.5,-46.083"/>
</g>
<!-- Node13 -->
<g id="node13" class="node"><title>Node13</title>
<g id="a_node13"><a xlink:href="queue__types_8h.html" target="_top" xlink:title="ODP queue types. ">
<polygon fill="white" stroke="black" points="809.5,-560.5 809.5,-579.5 896.5,-579.5 896.5,-560.5 809.5,-560.5"/>
<text text-anchor="middle" x="853" y="-567.5" font-family="Helvetica,sans-Serif" font-size="10.00">queue_types.h</text>
</a>
</g>
</g>
<!-- Node12&#45;&gt;Node13 -->
<g id="edge12" class="edge"><title>Node12&#45;&gt;Node13</title>
<path fill="none" stroke="midnightblue" d="M813.33,-609.253C823.265,-599.673 835.588,-587.791 843.839,-579.834"/>
<polygon fill="midnightblue" stroke="midnightblue" points="810.766,-606.863 805.997,-616.324 815.625,-611.902 810.766,-606.863"/>
</g>
<!-- Node25 -->
<g id="node25" class="node"><title>Node25</title>
<g id="a_node25"><a xlink:href="api_2spec_2schedule_8h.html" target="_top" xlink:title="ODP schedule. ">
<polygon fill="white" stroke="black" points="747,-392.5 747,-411.5 815,-411.5 815,-392.5 747,-392.5"/>
<text text-anchor="middle" x="781" y="-399.5" font-family="Helvetica,sans-Serif" font-size="10.00">schedule.h</text>
</a>
</g>
</g>
<!-- Node12&#45;&gt;Node25 -->
<g id="edge34" class="edge"><title>Node12&#45;&gt;Node25</title>
<path fill="none" stroke="midnightblue" d="M795.652,-606.295C792.362,-560.644 784.016,-444.854 781.64,-411.884"/>
<polygon fill="midnightblue" stroke="midnightblue" points="792.163,-606.575 796.373,-616.297 799.145,-606.072 792.163,-606.575"/>
</g>
<!-- Node14 -->
<g id="node14" class="node"><title>Node14</title>
<g id="a_node14"><a xlink:href="api_2spec_2queue_8h.html" target="_top" xlink:title="ODP queue. ">
<polygon fill="white" stroke="black" points="825,-504.5 825,-523.5 881,-523.5 881,-504.5 825,-504.5"/>
<text text-anchor="middle" x="853" y="-511.5" font-family="Helvetica,sans-Serif" font-size="10.00">queue.h</text>
</a>
</g>
</g>
<!-- Node13&#45;&gt;Node14 -->
<g id="edge13" class="edge"><title>Node13&#45;&gt;Node14</title>
<path fill="none" stroke="midnightblue" d="M853,-549.805C853,-540.91 853,-530.78 853,-523.751"/>
<polygon fill="midnightblue" stroke="midnightblue" points="849.5,-550.083 853,-560.083 856.5,-550.083 849.5,-550.083"/>
</g>
<!-- Node15 -->
<g id="node15" class="node"><title>Node15</title>
<g id="a_node15"><a xlink:href="api_2queue_8h.html" target="_top" xlink:title="ODP queue. ">
<polygon fill="white" stroke="black" points="825,-448.5 825,-467.5 881,-467.5 881,-448.5 825,-448.5"/>
<text text-anchor="middle" x="853" y="-455.5" font-family="Helvetica,sans-Serif" font-size="10.00">queue.h</text>
</a>
</g>
</g>
<!-- Node14&#45;&gt;Node15 -->
<g id="edge14" class="edge"><title>Node14&#45;&gt;Node15</title>
<path fill="none" stroke="midnightblue" d="M853,-493.805C853,-484.91 853,-474.78 853,-467.751"/>
<polygon fill="midnightblue" stroke="midnightblue" points="849.5,-494.083 853,-504.083 856.5,-494.083 849.5,-494.083"/>
</g>
<!-- Node15&#45;&gt;Node10 -->
<g id="edge33" class="edge"><title>Node15&#45;&gt;Node10</title>
<path fill="none" stroke="midnightblue" d="M850.259,-438.298C847.298,-416.448 843,-379.184 843,-347 843,-347 843,-347 843,-177 843,-126.266 902.228,-90.9568 934.155,-75.6087"/>
<polygon fill="midnightblue" stroke="midnightblue" points="846.831,-439.053 851.693,-448.466 853.762,-438.075 846.831,-439.053"/>
</g>
<!-- Node16 -->
<g id="node16" class="node"><title>Node16</title>
<g id="a_node16"><a xlink:href="api_2crypto_8h.html" target="_top" xlink:title="ODP crypto. ">
<polygon fill="white" stroke="black" points="871,-224.5 871,-243.5 927,-243.5 927,-224.5 871,-224.5"/>
<text text-anchor="middle" x="899" y="-231.5" font-family="Helvetica,sans-Serif" font-size="10.00">crypto.h</text>
</a>
</g>
</g>
<!-- Node15&#45;&gt;Node16 -->
<g id="edge15" class="edge"><title>Node15&#45;&gt;Node16</title>
<path fill="none" stroke="midnightblue" d="M856.876,-438.295C866.335,-392.644 890.328,-276.854 897.159,-243.884"/>
<polygon fill="midnightblue" stroke="midnightblue" points="853.405,-437.795 854.803,-448.297 860.26,-439.216 853.405,-437.795"/>
</g>
<!-- Node19 -->
<g id="node19" class="node"><title>Node19</title>
<g id="a_node19"><a xlink:href="api_2spec_2packet__io_8h.html" target="_top" xlink:title="ODP Packet IO. ">
<polygon fill="white" stroke="black" points="947.5,-392.5 947.5,-411.5 1018.5,-411.5 1018.5,-392.5 947.5,-392.5"/>
<text text-anchor="middle" x="983" y="-399.5" font-family="Helvetica,sans-Serif" font-size="10.00">packet_io.h</text>
</a>
</g>
</g>
<!-- Node15&#45;&gt;Node19 -->
<g id="edge20" class="edge"><title>Node15&#45;&gt;Node19</title>
<path fill="none" stroke="midnightblue" d="M883.085,-444.503C907.457,-434.38 941.14,-420.388 962.497,-411.516"/>
<polygon fill="midnightblue" stroke="midnightblue" points="881.491,-441.375 873.599,-448.444 884.177,-447.84 881.491,-441.375"/>
</g>
<!-- Node15&#45;&gt;Node25 -->
<g id="edge31" class="edge"><title>Node15&#45;&gt;Node25</title>
<path fill="none" stroke="midnightblue" d="M833.134,-442.101C820.177,-432.382 803.703,-420.027 792.779,-411.834"/>
<polygon fill="midnightblue" stroke="midnightblue" points="831.332,-445.124 841.432,-448.324 835.532,-439.524 831.332,-445.124"/>
</g>
<!-- Node16&#45;&gt;Node10 -->
<g id="edge19" class="edge"><title>Node16&#45;&gt;Node10</title>
<path fill="none" stroke="midnightblue" d="M898.565,-214.247C898.711,-201.085 899.824,-183.193 904,-168 914.008,-131.588 937.344,-92.6728 948.224,-75.7242"/>
<polygon fill="midnightblue" stroke="midnightblue" points="895.066,-214.433 898.633,-224.409 902.066,-214.386 895.066,-214.433"/>
</g>
<!-- Node17 -->
<g id="node17" class="node"><title>Node17</title>
<g id="a_node17"><a xlink:href="api_2spec_2ipsec_8h.html" target="_top" xlink:title="ODP IPSEC API. ">
<polygon fill="white" stroke="black" points="1014,-168.5 1014,-187.5 1064,-187.5 1064,-168.5 1014,-168.5"/>
<text text-anchor="middle" x="1039" y="-175.5" font-family="Helvetica,sans-Serif" font-size="10.00">ipsec.h</text>
</a>
</g>
</g>
<!-- Node16&#45;&gt;Node17 -->
<g id="edge16" class="edge"><title>Node16&#45;&gt;Node17</title>
<path fill="none" stroke="midnightblue" d="M930.702,-220.772C957,-210.629 993.716,-196.467 1016.92,-187.516"/>
<polygon fill="midnightblue" stroke="midnightblue" points="929.254,-217.579 921.183,-224.444 931.773,-224.11 929.254,-217.579"/>
</g>
<!-- Node18 -->
<g id="node18" class="node"><title>Node18</title>
<g id="a_node18"><a xlink:href="api_2ipsec_8h.html" target="_top" xlink:title="ODP IPSEC API &#45; platform specific header. ">
<polygon fill="white" stroke="black" points="998,-112.5 998,-131.5 1048,-131.5 1048,-112.5 998,-112.5"/>
<text text-anchor="middle" x="1023" y="-119.5" font-family="Helvetica,sans-Serif" font-size="10.00">ipsec.h</text>
</a>
</g>
</g>
<!-- Node17&#45;&gt;Node18 -->
<g id="edge17" class="edge"><title>Node17&#45;&gt;Node18</title>
<path fill="none" stroke="midnightblue" d="M1033.49,-158.396C1030.81,-149.362 1027.72,-138.936 1025.59,-131.751"/>
<polygon fill="midnightblue" stroke="midnightblue" points="1030.16,-159.489 1036.36,-168.083 1036.87,-157.501 1030.16,-159.489"/>
</g>
<!-- Node18&#45;&gt;Node10 -->
<g id="edge18" class="edge"><title>Node18&#45;&gt;Node10</title>
<path fill="none" stroke="midnightblue" d="M1003.96,-106.101C991.544,-96.3824 975.757,-84.0269 965.288,-75.8339"/>
<polygon fill="midnightblue" stroke="midnightblue" points="1001.88,-108.917 1011.91,-112.324 1006.2,-103.405 1001.88,-108.917"/>
</g>
<!-- Node20 -->
<g id="node20" class="node"><title>Node20</title>
<g id="a_node20"><a xlink:href="api_2packet__io_8h.html" target="_top" xlink:title="ODP Packet IO. ">
<polygon fill="white" stroke="black" points="985.5,-336.5 985.5,-355.5 1056.5,-355.5 1056.5,-336.5 985.5,-336.5"/>
<text text-anchor="middle" x="1021" y="-343.5" font-family="Helvetica,sans-Serif" font-size="10.00">packet_io.h</text>
</a>
</g>
</g>
<!-- Node19&#45;&gt;Node20 -->
<g id="edge21" class="edge"><title>Node19&#45;&gt;Node20</title>
<path fill="none" stroke="midnightblue" d="M995.065,-383.855C1001.64,-374.505 1009.51,-363.327 1014.84,-355.751"/>
<polygon fill="midnightblue" stroke="midnightblue" points="992.168,-381.891 989.275,-392.083 997.892,-385.919 992.168,-381.891"/>
</g>
<!-- Node20&#45;&gt;Node10 -->
<g id="edge30" class="edge"><title>Node20&#45;&gt;Node10</title>
<path fill="none" stroke="midnightblue" d="M1066.78,-338.622C1092.72,-332.735 1123.91,-321.473 1144,-300 1164.56,-278.024 1163,-265.098 1163,-235 1163,-235 1163,-235 1163,-177 1163,-97.8633 1044.21,-75.5287 985.743,-69.3286"/>
<polygon fill="midnightblue" stroke="midnightblue" points="1065.85,-335.241 1056.77,-340.694 1067.27,-342.096 1065.85,-335.241"/>
</g>
<!-- Node20&#45;&gt;Node17 -->
<g id="edge26" class="edge"><title>Node20&#45;&gt;Node17</title>
<path fill="none" stroke="midnightblue" d="M1023.07,-325.93C1026.97,-289.92 1035.29,-213.231 1038.07,-187.568"/>
<polygon fill="midnightblue" stroke="midnightblue" points="1019.57,-325.756 1021.97,-336.075 1026.53,-326.511 1019.57,-325.756"/>
</g>
<!-- Node21 -->
<g id="node21" class="node"><title>Node21</title>
<g id="a_node21"><a xlink:href="api_2spec_2classification_8h.html" target="_top" xlink:title="ODP classification descriptor. ">
<polygon fill="white" stroke="black" points="1049,-280.5 1049,-299.5 1135,-299.5 1135,-280.5 1049,-280.5"/>
<text text-anchor="middle" x="1092" y="-287.5" font-family="Helvetica,sans-Serif" font-size="10.00">classification.h</text>
</a>
</g>
</g>
<!-- Node20&#45;&gt;Node21 -->
<g id="edge22" class="edge"><title>Node20&#45;&gt;Node21</title>
<path fill="none" stroke="midnightblue" d="M1040.59,-330.101C1053.37,-320.382 1069.61,-308.027 1080.39,-299.834"/>
<polygon fill="midnightblue" stroke="midnightblue" points="1038.25,-327.484 1032.41,-336.324 1042.49,-333.056 1038.25,-327.484"/>
</g>
<!-- Node23 -->
<g id="node23" class="node"><title>Node23</title>
<g id="a_node23"><a xlink:href="api_2spec_2traffic__mngr_8h.html" target="_top" xlink:title="Copyright (c) 2015&#45;2018, Linaro Limited All rights reserved. ">
<polygon fill="white" stroke="black" points="909.5,-280.5 909.5,-299.5 992.5,-299.5 992.5,-280.5 909.5,-280.5"/>
<text text-anchor="middle" x="951" y="-287.5" font-family="Helvetica,sans-Serif" font-size="10.00">traffic_mngr.h</text>
</a>
</g>
</g>
<!-- Node20&#45;&gt;Node23 -->
<g id="edge27" class="edge"><title>Node20&#45;&gt;Node23</title>
<path fill="none" stroke="midnightblue" d="M1001.69,-330.101C989.088,-320.382 973.072,-308.027 962.451,-299.834"/>
<polygon fill="midnightblue" stroke="midnightblue" points="999.698,-332.987 1009.75,-336.324 1003.97,-327.445 999.698,-332.987"/>
</g>
<!-- Node22 -->
<g id="node22" class="node"><title>Node22</title>
<g id="a_node22"><a xlink:href="api_2classification_8h.html" target="_top" xlink:title="ODP classification descriptor. ">
<polygon fill="white" stroke="black" points="1049,-224.5 1049,-243.5 1135,-243.5 1135,-224.5 1049,-224.5"/>
<text text-anchor="middle" x="1092" y="-231.5" font-family="Helvetica,sans-Serif" font-size="10.00">classification.h</text>
</a>
</g>
</g>
<!-- Node21&#45;&gt;Node22 -->
<g id="edge23" class="edge"><title>Node21&#45;&gt;Node22</title>
<path fill="none" stroke="midnightblue" d="M1092,-269.805C1092,-260.91 1092,-250.78 1092,-243.751"/>
<polygon fill="midnightblue" stroke="midnightblue" points="1088.5,-270.083 1092,-280.083 1095.5,-270.083 1088.5,-270.083"/>
</g>
<!-- Node22&#45;&gt;Node10 -->
<g id="edge25" class="edge"><title>Node22&#45;&gt;Node10</title>
<path fill="none" stroke="midnightblue" d="M1091.37,-214.165C1089.54,-188.171 1082.63,-141.209 1057,-112 1038.59,-91.0251 1008.61,-79.4418 985.731,-73.3028"/>
<polygon fill="midnightblue" stroke="midnightblue" points="1087.88,-214.397 1091.9,-224.201 1094.87,-214.033 1087.88,-214.397"/>
</g>
<!-- Node22&#45;&gt;Node17 -->
<g id="edge24" class="edge"><title>Node22&#45;&gt;Node17</title>
<path fill="none" stroke="midnightblue" d="M1076.02,-216.718C1066.68,-207.2 1055.25,-195.561 1047.59,-187.751"/>
<polygon fill="midnightblue" stroke="midnightblue" points="1073.75,-219.398 1083.25,-224.083 1078.74,-214.494 1073.75,-219.398"/>
</g>
<!-- Node24 -->
<g id="node24" class="node"><title>Node24</title>
<g id="a_node24"><a xlink:href="api_2traffic__mngr_8h.html" target="_top" xlink:title="ODP Traffic manager. ">
<polygon fill="white" stroke="black" points="912.5,-168.5 912.5,-187.5 995.5,-187.5 995.5,-168.5 912.5,-168.5"/>
<text text-anchor="middle" x="954" y="-175.5" font-family="Helvetica,sans-Serif" font-size="10.00">traffic_mngr.h</text>
</a>
</g>
</g>
<!-- Node23&#45;&gt;Node24 -->
<g id="edge28" class="edge"><title>Node23&#45;&gt;Node24</title>
<path fill="none" stroke="midnightblue" d="M951.509,-270.348C952.166,-246.254 953.283,-205.308 953.766,-187.591"/>
<polygon fill="midnightblue" stroke="midnightblue" points="948.009,-270.277 951.235,-280.368 955.007,-270.468 948.009,-270.277"/>
</g>
<!-- Node24&#45;&gt;Node10 -->
<g id="edge29" class="edge"><title>Node24&#45;&gt;Node10</title>
<path fill="none" stroke="midnightblue" d="M954,-158.348C954,-134.254 954,-93.3079 954,-75.5914"/>
<polygon fill="midnightblue" stroke="midnightblue" points="950.5,-158.368 954,-168.368 957.5,-158.369 950.5,-158.368"/>
</g>
<!-- Node25&#45;&gt;Node9 -->
<g id="edge32" class="edge"><title>Node25&#45;&gt;Node9</title>
<path fill="none" stroke="midnightblue" d="M781,-381.805C781,-372.91 781,-362.78 781,-355.751"/>
<polygon fill="midnightblue" stroke="midnightblue" points="777.5,-382.083 781,-392.083 784.5,-382.083 777.5,-382.083"/>
</g>
</g>
</svg>
