<?xml version="1.0" encoding="UTF-8" standalone="no"?>
<!DOCTYPE svg PUBLIC "-//W3C//DTD SVG 1.1//EN"
 "http://www.w3.org/Graphics/SVG/1.1/DTD/svg11.dtd">
<!-- Generated by graphviz version 2.38.0 (20140413.2041)
 -->
<!-- Title: schedule_types.h Pages: 1 -->
<svg width="424pt" height="700pt"
 viewBox="0.00 0.00 424.00 700.00" xmlns="http://www.w3.org/2000/svg" xmlns:xlink="http://www.w3.org/1999/xlink">
<g id="graph0" class="graph" transform="scale(1 1) rotate(0) translate(4 696)">
<title>schedule_types.h</title>
<polygon fill="white" stroke="none" points="-4,4 -4,-696 420,-696 420,4 -4,4"/>
<!-- Node5 -->
<g id="node1" class="node"><title>Node5</title>
<polygon fill="#bfbfbf" stroke="black" points="158,-672.5 158,-691.5 258,-691.5 258,-672.5 158,-672.5"/>
<text text-anchor="middle" x="208" y="-679.5" font-family="Helvetica,sans-Serif" font-size="10.00">schedule_types.h</text>
</g>
<!-- Node6 -->
<g id="node2" class="node"><title>Node6</title>
<g id="a_node2"><a xlink:href="api_2schedule__types_8h.html" target="_top" xlink:title="ODP schedule. ">
<polygon fill="white" stroke="black" points="158,-616.5 158,-635.5 258,-635.5 258,-616.5 158,-616.5"/>
<text text-anchor="middle" x="208" y="-623.5" font-family="Helvetica,sans-Serif" font-size="10.00">schedule_types.h</text>
</a>
</g>
</g>
<!-- Node5&#45;&gt;Node6 -->
<g id="edge1" class="edge"><title>Node5&#45;&gt;Node6</title>
<path fill="none" stroke="midnightblue" d="M208,-661.805C208,-652.91 208,-642.78 208,-635.751"/>
<polygon fill="midnightblue" stroke="midnightblue" points="204.5,-662.083 208,-672.083 211.5,-662.083 204.5,-662.083"/>
</g>
<!-- Node7 -->
<g id="node3" class="node"><title>Node7</title>
<g id="a_node3"><a xlink:href="queue__types_8h.html" target="_top" xlink:title="ODP queue types. ">
<polygon fill="white" stroke="black" points="126.5,-560.5 126.5,-579.5 213.5,-579.5 213.5,-560.5 126.5,-560.5"/>
<text text-anchor="middle" x="170" y="-567.5" font-family="Helvetica,sans-Serif" font-size="10.00">queue_types.h</text>
</a>
</g>
</g>
<!-- Node6&#45;&gt;Node7 -->
<g id="edge2" class="edge"><title>Node6&#45;&gt;Node7</title>
<path fill="none" stroke="midnightblue" d="M195.935,-607.855C189.355,-598.505 181.489,-587.327 176.158,-579.751"/>
<polygon fill="midnightblue" stroke="midnightblue" points="193.108,-609.919 201.725,-616.083 198.832,-605.891 193.108,-609.919"/>
</g>
<!-- Node21 -->
<g id="node17" class="node"><title>Node21</title>
<g id="a_node17"><a xlink:href="api_2spec_2schedule_8h.html" target="_top" xlink:title="ODP schedule. ">
<polygon fill="white" stroke="black" points="214,-392.5 214,-411.5 282,-411.5 282,-392.5 214,-392.5"/>
<text text-anchor="middle" x="248" y="-399.5" font-family="Helvetica,sans-Serif" font-size="10.00">schedule.h</text>
</a>
</g>
</g>
<!-- Node6&#45;&gt;Node21 -->
<g id="edge26" class="edge"><title>Node6&#45;&gt;Node21</title>
<path fill="none" stroke="midnightblue" d="M214.33,-606.924C216.999,-598.777 219.955,-588.986 222,-580 236.54,-516.099 244.775,-437.292 247.22,-411.561"/>
<polygon fill="midnightblue" stroke="midnightblue" points="210.986,-605.887 211.087,-616.482 217.615,-608.137 210.986,-605.887"/>
</g>
<!-- Node8 -->
<g id="node4" class="node"><title>Node8</title>
<g id="a_node4"><a xlink:href="api_2spec_2queue_8h.html" target="_top" xlink:title="ODP queue. ">
<polygon fill="white" stroke="black" points="134,-504.5 134,-523.5 190,-523.5 190,-504.5 134,-504.5"/>
<text text-anchor="middle" x="162" y="-511.5" font-family="Helvetica,sans-Serif" font-size="10.00">queue.h</text>
</a>
</g>
</g>
<!-- Node7&#45;&gt;Node8 -->
<g id="edge3" class="edge"><title>Node7&#45;&gt;Node8</title>
<path fill="none" stroke="midnightblue" d="M167.2,-550.101C165.872,-541.136 164.349,-530.858 163.296,-523.751"/>
<polygon fill="midnightblue" stroke="midnightblue" points="163.751,-550.704 168.679,-560.083 170.676,-549.678 163.751,-550.704"/>
</g>
<!-- Node9 -->
<g id="node5" class="node"><title>Node9</title>
<g id="a_node5"><a xlink:href="api_2queue_8h.html" target="_top" xlink:title="ODP queue. ">
<polygon fill="white" stroke="black" points="132,-448.5 132,-467.5 188,-467.5 188,-448.5 132,-448.5"/>
<text text-anchor="middle" x="160" y="-455.5" font-family="Helvetica,sans-Serif" font-size="10.00">queue.h</text>
</a>
</g>
</g>
<!-- Node8&#45;&gt;Node9 -->
<g id="edge4" class="edge"><title>Node8&#45;&gt;Node9</title>
<path fill="none" stroke="midnightblue" d="M161.289,-493.805C160.96,-484.91 160.584,-474.78 160.324,-467.751"/>
<polygon fill="midnightblue" stroke="midnightblue" points="157.802,-494.219 161.67,-504.083 164.797,-493.96 157.802,-494.219"/>
</g>
<!-- Node10 -->
<g id="node6" class="node"><title>Node10</title>
<g id="a_node6"><a xlink:href="api_2crypto_8h.html" target="_top" xlink:title="ODP crypto. ">
<polygon fill="white" stroke="black" points="28,-224.5 28,-243.5 84,-243.5 84,-224.5 28,-224.5"/>
<text text-anchor="middle" x="56" y="-231.5" font-family="Helvetica,sans-Serif" font-size="10.00">crypto.h</text>
</a>
</g>
</g>
<!-- Node9&#45;&gt;Node10 -->
<g id="edge5" class="edge"><title>Node9&#45;&gt;Node10</title>
<path fill="none" stroke="midnightblue" d="M141.168,-441.829C132.197,-433.771 121.938,-423.225 115,-412 78.8982,-353.586 62.1283,-270.535 57.4302,-243.712"/>
<polygon fill="midnightblue" stroke="midnightblue" points="139.045,-444.619 148.913,-448.477 143.605,-439.307 139.045,-444.619"/>
</g>
<!-- Node13 -->
<g id="node9" class="node"><title>Node13</title>
<g id="a_node9"><a xlink:href="odp__api_8h.html" target="_top" xlink:title="The OpenDataPlane API. ">
<polygon fill="white" stroke="black" points="184.5,-56.5 184.5,-75.5 247.5,-75.5 247.5,-56.5 184.5,-56.5"/>
<text text-anchor="middle" x="216" y="-63.5" font-family="Helvetica,sans-Serif" font-size="10.00">odp_api.h</text>
</a>
</g>
</g>
<!-- Node9&#45;&gt;Node13 -->
<g id="edge25" class="edge"><title>Node9&#45;&gt;Node13</title>
<path fill="none" stroke="midnightblue" d="M121.825,-448.578C74.4971,-435.625 0,-405.884 0,-347 0,-347 0,-347 0,-177 0,-95.3596 124.044,-74.2846 184.128,-68.8651"/>
<polygon fill="midnightblue" stroke="midnightblue" points="121.204,-452.034 131.764,-451.163 122.967,-445.259 121.204,-452.034"/>
</g>
<!-- Node15 -->
<g id="node11" class="node"><title>Node15</title>
<g id="a_node11"><a xlink:href="api_2spec_2packet__io_8h.html" target="_top" xlink:title="ODP Packet IO. ">
<polygon fill="white" stroke="black" points="124.5,-392.5 124.5,-411.5 195.5,-411.5 195.5,-392.5 124.5,-392.5"/>
<text text-anchor="middle" x="160" y="-399.5" font-family="Helvetica,sans-Serif" font-size="10.00">packet_io.h</text>
</a>
</g>
</g>
<!-- Node9&#45;&gt;Node15 -->
<g id="edge11" class="edge"><title>Node9&#45;&gt;Node15</title>
<path fill="none" stroke="midnightblue" d="M160,-437.805C160,-428.91 160,-418.78 160,-411.751"/>
<polygon fill="midnightblue" stroke="midnightblue" points="156.5,-438.083 160,-448.083 163.5,-438.083 156.5,-438.083"/>
</g>
<!-- Node9&#45;&gt;Node21 -->
<g id="edge22" class="edge"><title>Node9&#45;&gt;Node21</title>
<path fill="none" stroke="midnightblue" d="M182.977,-442.901C199.113,-432.999 220.181,-420.071 233.896,-411.655"/>
<polygon fill="midnightblue" stroke="midnightblue" points="180.831,-440.111 174.139,-448.324 184.493,-446.077 180.831,-440.111"/>
</g>
<!-- Node11 -->
<g id="node7" class="node"><title>Node11</title>
<g id="a_node7"><a xlink:href="api_2spec_2ipsec_8h.html" target="_top" xlink:title="ODP IPSEC API. ">
<polygon fill="white" stroke="black" points="100,-168.5 100,-187.5 150,-187.5 150,-168.5 100,-168.5"/>
<text text-anchor="middle" x="125" y="-175.5" font-family="Helvetica,sans-Serif" font-size="10.00">ipsec.h</text>
</a>
</g>
</g>
<!-- Node10&#45;&gt;Node11 -->
<g id="edge6" class="edge"><title>Node10&#45;&gt;Node11</title>
<path fill="none" stroke="midnightblue" d="M75.0379,-218.101C87.4558,-208.382 103.243,-196.027 113.712,-187.834"/>
<polygon fill="midnightblue" stroke="midnightblue" points="72.804,-215.405 67.086,-224.324 77.1182,-220.917 72.804,-215.405"/>
</g>
<!-- Node10&#45;&gt;Node13 -->
<g id="edge10" class="edge"><title>Node10&#45;&gt;Node13</title>
<path fill="none" stroke="midnightblue" d="M60.7666,-214.81C68.4084,-188.873 85.7073,-141.178 116,-112 135.059,-93.642 162.903,-81.9529 184.373,-75.103"/>
<polygon fill="midnightblue" stroke="midnightblue" points="57.3857,-213.904 58.073,-224.477 64.1288,-215.783 57.3857,-213.904"/>
</g>
<!-- Node12 -->
<g id="node8" class="node"><title>Node12</title>
<g id="a_node8"><a xlink:href="api_2ipsec_8h.html" target="_top" xlink:title="ODP IPSEC API &#45; platform specific header. ">
<polygon fill="white" stroke="black" points="125,-112.5 125,-131.5 175,-131.5 175,-112.5 125,-112.5"/>
<text text-anchor="middle" x="150" y="-119.5" font-family="Helvetica,sans-Serif" font-size="10.00">ipsec.h</text>
</a>
</g>
</g>
<!-- Node11&#45;&gt;Node12 -->
<g id="edge7" class="edge"><title>Node11&#45;&gt;Node12</title>
<path fill="none" stroke="midnightblue" d="M133.341,-158.983C137.585,-149.817 142.55,-139.092 145.949,-131.751"/>
<polygon fill="midnightblue" stroke="midnightblue" points="130.153,-157.538 129.128,-168.083 136.506,-160.479 130.153,-157.538"/>
</g>
<!-- Node12&#45;&gt;Node13 -->
<g id="edge8" class="edge"><title>Node12&#45;&gt;Node13</title>
<path fill="none" stroke="midnightblue" d="M168.554,-105.82C180.378,-96.1452 195.286,-83.9481 205.203,-75.8339"/>
<polygon fill="midnightblue" stroke="midnightblue" points="166.127,-103.283 160.604,-112.324 170.56,-108.7 166.127,-103.283"/>
</g>
<!-- Node14 -->
<g id="node10" class="node"><title>Node14</title>
<g id="a_node10"><a xlink:href="odp_8h.html" target="_top" xlink:title="WARNING: THIS FILE IS DEPRECATED AND WILL BE REMOVED!!! ODP APPLICATIONS SHOULD NOW INCLUDE odp_api...">
<polygon fill="white" stroke="black" points="194,-0.5 194,-19.5 238,-19.5 238,-0.5 194,-0.5"/>
<text text-anchor="middle" x="216" y="-7.5" font-family="Helvetica,sans-Serif" font-size="10.00">odp.h</text>
</a>
</g>
</g>
<!-- Node13&#45;&gt;Node14 -->
<g id="edge9" class="edge"><title>Node13&#45;&gt;Node14</title>
<path fill="none" stroke="midnightblue" d="M216,-45.8045C216,-36.9102 216,-26.7798 216,-19.7511"/>
<polygon fill="midnightblue" stroke="midnightblue" points="212.5,-46.083 216,-56.083 219.5,-46.083 212.5,-46.083"/>
</g>
<!-- Node16 -->
<g id="node12" class="node"><title>Node16</title>
<g id="a_node12"><a xlink:href="api_2packet__io_8h.html" target="_top" xlink:title="ODP Packet IO. ">
<polygon fill="white" stroke="black" points="147.5,-336.5 147.5,-355.5 218.5,-355.5 218.5,-336.5 147.5,-336.5"/>
<text text-anchor="middle" x="183" y="-343.5" font-family="Helvetica,sans-Serif" font-size="10.00">packet_io.h</text>
</a>
</g>
</g>
<!-- Node15&#45;&gt;Node16 -->
<g id="edge12" class="edge"><title>Node15&#45;&gt;Node16</title>
<path fill="none" stroke="midnightblue" d="M167.799,-382.69C171.675,-373.589 176.179,-363.014 179.273,-355.751"/>
<polygon fill="midnightblue" stroke="midnightblue" points="164.497,-381.511 163.798,-392.083 170.937,-384.254 164.497,-381.511"/>
</g>
<!-- Node16&#45;&gt;Node11 -->
<g id="edge17" class="edge"><title>Node16&#45;&gt;Node11</title>
<path fill="none" stroke="midnightblue" d="M158.696,-330.44C148.24,-322.789 137.048,-312.409 131,-300 112.386,-261.808 119.412,-208.551 123.204,-187.782"/>
<polygon fill="midnightblue" stroke="midnightblue" points="156.941,-333.479 167.177,-336.211 160.879,-327.692 156.941,-333.479"/>
</g>
<!-- Node16&#45;&gt;Node13 -->
<g id="edge21" class="edge"><title>Node16&#45;&gt;Node13</title>
<path fill="none" stroke="midnightblue" d="M207.369,-330.726C217.948,-323.089 229.223,-312.64 235,-300 271.78,-219.53 232.141,-107.149 219.563,-75.5583"/>
<polygon fill="midnightblue" stroke="midnightblue" points="205.151,-327.999 198.783,-336.467 209.042,-333.818 205.151,-327.999"/>
</g>
<!-- Node17 -->
<g id="node13" class="node"><title>Node17</title>
<g id="a_node13"><a xlink:href="api_2spec_2classification_8h.html" target="_top" xlink:title="ODP classification descriptor. ">
<polygon fill="white" stroke="black" points="140,-280.5 140,-299.5 226,-299.5 226,-280.5 140,-280.5"/>
<text text-anchor="middle" x="183" y="-287.5" font-family="Helvetica,sans-Serif" font-size="10.00">classification.h</text>
</a>
</g>
</g>
<!-- Node16&#45;&gt;Node17 -->
<g id="edge13" class="edge"><title>Node16&#45;&gt;Node17</title>
<path fill="none" stroke="midnightblue" d="M183,-325.805C183,-316.91 183,-306.78 183,-299.751"/>
<polygon fill="midnightblue" stroke="midnightblue" points="179.5,-326.083 183,-336.083 186.5,-326.083 179.5,-326.083"/>
</g>
<!-- Node19 -->
<g id="node15" class="node"><title>Node19</title>
<g id="a_node15"><a xlink:href="api_2spec_2traffic__mngr_8h.html" target="_top" xlink:title="Copyright (c) 2015&#45;2018, Linaro Limited All rights reserved. ">
<polygon fill="white" stroke="black" points="282.5,-280.5 282.5,-299.5 365.5,-299.5 365.5,-280.5 282.5,-280.5"/>
<text text-anchor="middle" x="324" y="-287.5" font-family="Helvetica,sans-Serif" font-size="10.00">traffic_mngr.h</text>
</a>
</g>
</g>
<!-- Node16&#45;&gt;Node19 -->
<g id="edge18" class="edge"><title>Node16&#45;&gt;Node19</title>
<path fill="none" stroke="midnightblue" d="M214.929,-332.772C241.414,-322.629 278.392,-308.467 301.763,-299.516"/>
<polygon fill="midnightblue" stroke="midnightblue" points="213.429,-329.599 205.342,-336.444 215.932,-336.136 213.429,-329.599"/>
</g>
<!-- Node18 -->
<g id="node14" class="node"><title>Node18</title>
<g id="a_node14"><a xlink:href="api_2classification_8h.html" target="_top" xlink:title="ODP classification descriptor. ">
<polygon fill="white" stroke="black" points="140,-224.5 140,-243.5 226,-243.5 226,-224.5 140,-224.5"/>
<text text-anchor="middle" x="183" y="-231.5" font-family="Helvetica,sans-Serif" font-size="10.00">classification.h</text>
</a>
</g>
</g>
<!-- Node17&#45;&gt;Node18 -->
<g id="edge14" class="edge"><title>Node17&#45;&gt;Node18</title>
<path fill="none" stroke="midnightblue" d="M183,-269.805C183,-260.91 183,-250.78 183,-243.751"/>
<polygon fill="midnightblue" stroke="midnightblue" points="179.5,-270.083 183,-280.083 186.5,-270.083 179.5,-270.083"/>
</g>
<!-- Node18&#45;&gt;Node11 -->
<g id="edge15" class="edge"><title>Node18&#45;&gt;Node11</title>
<path fill="none" stroke="midnightblue" d="M166.087,-217.253C155.797,-207.673 143.034,-195.791 134.488,-187.834"/>
<polygon fill="midnightblue" stroke="midnightblue" points="163.977,-220.071 173.681,-224.324 168.747,-214.948 163.977,-220.071"/>
</g>
<!-- Node18&#45;&gt;Node13 -->
<g id="edge16" class="edge"><title>Node18&#45;&gt;Node13</title>
<path fill="none" stroke="midnightblue" d="M186.791,-213.93C193.95,-177.92 209.195,-101.231 214.297,-75.5681"/>
<polygon fill="midnightblue" stroke="midnightblue" points="183.291,-213.585 184.774,-224.075 190.157,-214.95 183.291,-213.585"/>
</g>
<!-- Node20 -->
<g id="node16" class="node"><title>Node20</title>
<g id="a_node16"><a xlink:href="api_2traffic__mngr_8h.html" target="_top" xlink:title="ODP Traffic manager. ">
<polygon fill="white" stroke="black" points="282.5,-168.5 282.5,-187.5 365.5,-187.5 365.5,-168.5 282.5,-168.5"/>
<text text-anchor="middle" x="324" y="-175.5" font-family="Helvetica,sans-Serif" font-size="10.00">traffic_mngr.h</text>
</a>
</g>
</g>
<!-- Node19&#45;&gt;Node20 -->
<g id="edge19" class="edge"><title>Node19&#45;&gt;Node20</title>
<path fill="none" stroke="midnightblue" d="M324,-270.348C324,-246.254 324,-205.308 324,-187.591"/>
<polygon fill="midnightblue" stroke="midnightblue" points="320.5,-270.368 324,-280.368 327.5,-270.369 320.5,-270.368"/>
</g>
<!-- Node20&#45;&gt;Node13 -->
<g id="edge20" class="edge"><title>Node20&#45;&gt;Node13</title>
<path fill="none" stroke="midnightblue" d="M310.746,-160.293C299.779,-146.802 283.535,-127.569 268,-112 254.508,-98.4779 237.568,-84.2803 226.761,-75.5336"/>
<polygon fill="midnightblue" stroke="midnightblue" points="308.137,-162.633 317.131,-168.233 313.592,-158.247 308.137,-162.633"/>
</g>
<!-- Node22 -->
<g id="node18" class="node"><title>Node22</title>
<g id="a_node18"><a xlink:href="api_2schedule_8h.html" target="_top" xlink:title="ODP schedule. ">
<polygon fill="white" stroke="black" points="348,-112.5 348,-131.5 416,-131.5 416,-112.5 348,-112.5"/>
<text text-anchor="middle" x="382" y="-119.5" font-family="Helvetica,sans-Serif" font-size="10.00">schedule.h</text>
</a>
</g>
</g>
<!-- Node21&#45;&gt;Node22 -->
<g id="edge23" class="edge"><title>Node21&#45;&gt;Node22</title>
<path fill="none" stroke="midnightblue" d="M289.759,-389.198C332.906,-374.146 394,-343.555 394,-291 394,-291 394,-291 394,-233 394,-194.963 386.822,-149.962 383.569,-131.523"/>
<polygon fill="midnightblue" stroke="midnightblue" points="288.422,-385.954 280.04,-392.435 290.634,-392.596 288.422,-385.954"/>
</g>
<!-- Node22&#45;&gt;Node13 -->
<g id="edge24" class="edge"><title>Node22&#45;&gt;Node13</title>
<path fill="none" stroke="midnightblue" d="M346.047,-109.304C314.768,-99.1294 270.179,-84.6246 242.18,-75.5164"/>
<polygon fill="midnightblue" stroke="midnightblue" points="345.105,-112.678 355.697,-112.444 347.27,-106.022 345.105,-112.678"/>
</g>
</g>
</svg>
