<?xml version="1.0" encoding="UTF-8" standalone="no"?>
<!DOCTYPE svg PUBLIC "-//W3C//DTD SVG 1.1//EN"
 "http://www.w3.org/Graphics/SVG/1.1/DTD/svg11.dtd">
<!-- Generated by graphviz version 2.38.0 (20140413.2041)
 -->
<!-- Title: std_clib.h Pages: 1 -->
<svg width="551pt" height="252pt"
 viewBox="0.00 0.00 550.50 252.00" xmlns="http://www.w3.org/2000/svg" xmlns:xlink="http://www.w3.org/1999/xlink">
<g id="graph0" class="graph" transform="scale(1 1) rotate(0) translate(4 248)">
<title>std_clib.h</title>
<polygon fill="white" stroke="none" points="-4,4 -4,-248 546.5,-248 546.5,4 -4,4"/>
<!-- Node1 -->
<g id="node1" class="node"><title>Node1</title>
<polygon fill="#bfbfbf" stroke="black" points="240,-224.5 240,-243.5 302,-243.5 302,-224.5 240,-224.5"/>
<text text-anchor="middle" x="271" y="-231.5" font-family="Helvetica,sans-Serif" font-size="10.00">std_clib.h</text>
</g>
<!-- Node2 -->
<g id="node2" class="node"><title>Node2</title>
<g id="a_node2"><a xlink:href="arch_2arm32-linux_2odp_2api_2abi_2std__clib_8h_source.html" target="_top" xlink:title="std_clib.h">
<polygon fill="white" stroke="black" points="-3.55271e-15,-168.5 -3.55271e-15,-187.5 62,-187.5 62,-168.5 -3.55271e-15,-168.5"/>
<text text-anchor="middle" x="31" y="-175.5" font-family="Helvetica,sans-Serif" font-size="10.00">std_clib.h</text>
</a>
</g>
</g>
<!-- Node1&#45;&gt;Node2 -->
<g id="edge1" class="edge"><title>Node1&#45;&gt;Node2</title>
<path fill="none" stroke="midnightblue" d="M229.637,-223.693C181.985,-212.972 104.774,-195.599 62.0032,-185.976"/>
<polygon fill="midnightblue" stroke="midnightblue" points="229.1,-227.16 239.624,-225.94 230.636,-220.331 229.1,-227.16"/>
</g>
<!-- Node3 -->
<g id="node3" class="node"><title>Node3</title>
<g id="a_node3"><a xlink:href="arch_2arm64-linux_2odp_2api_2abi_2std__clib_8h_source.html" target="_top" xlink:title="std_clib.h">
<polygon fill="white" stroke="black" points="80,-168.5 80,-187.5 142,-187.5 142,-168.5 80,-168.5"/>
<text text-anchor="middle" x="111" y="-175.5" font-family="Helvetica,sans-Serif" font-size="10.00">std_clib.h</text>
</a>
</g>
</g>
<!-- Node1&#45;&gt;Node3 -->
<g id="edge2" class="edge"><title>Node1&#45;&gt;Node3</title>
<path fill="none" stroke="midnightblue" d="M235.954,-221.172C205.826,-211.004 163.104,-196.585 136.234,-187.516"/>
<polygon fill="midnightblue" stroke="midnightblue" points="235.053,-224.562 245.648,-224.444 237.292,-217.929 235.053,-224.562"/>
</g>
<!-- Node4 -->
<g id="node4" class="node"><title>Node4</title>
<g id="a_node4"><a xlink:href="arch_2default-linux_2odp_2api_2abi_2std__clib_8h_source.html" target="_top" xlink:title="std_clib.h">
<polygon fill="white" stroke="black" points="160,-168.5 160,-187.5 222,-187.5 222,-168.5 160,-168.5"/>
<text text-anchor="middle" x="191" y="-175.5" font-family="Helvetica,sans-Serif" font-size="10.00">std_clib.h</text>
</a>
</g>
</g>
<!-- Node1&#45;&gt;Node4 -->
<g id="edge3" class="edge"><title>Node1&#45;&gt;Node4</title>
<path fill="none" stroke="midnightblue" d="M249.699,-218.622C235.085,-208.757 216.173,-195.992 203.821,-187.655"/>
<polygon fill="midnightblue" stroke="midnightblue" points="247.9,-221.63 258.147,-224.324 251.816,-215.828 247.9,-221.63"/>
</g>
<!-- Node5 -->
<g id="node5" class="node"><title>Node5</title>
<g id="a_node5"><a xlink:href="arch_2mips64-linux_2odp_2api_2abi_2std__clib_8h_source.html" target="_top" xlink:title="std_clib.h">
<polygon fill="white" stroke="black" points="240,-168.5 240,-187.5 302,-187.5 302,-168.5 240,-168.5"/>
<text text-anchor="middle" x="271" y="-175.5" font-family="Helvetica,sans-Serif" font-size="10.00">std_clib.h</text>
</a>
</g>
</g>
<!-- Node1&#45;&gt;Node5 -->
<g id="edge4" class="edge"><title>Node1&#45;&gt;Node5</title>
<path fill="none" stroke="midnightblue" d="M271,-213.805C271,-204.91 271,-194.78 271,-187.751"/>
<polygon fill="midnightblue" stroke="midnightblue" points="267.5,-214.083 271,-224.083 274.5,-214.083 267.5,-214.083"/>
</g>
<!-- Node6 -->
<g id="node6" class="node"><title>Node6</title>
<g id="a_node6"><a xlink:href="arch_2power64-linux_2odp_2api_2abi_2std__clib_8h_source.html" target="_top" xlink:title="std_clib.h">
<polygon fill="white" stroke="black" points="320,-168.5 320,-187.5 382,-187.5 382,-168.5 320,-168.5"/>
<text text-anchor="middle" x="351" y="-175.5" font-family="Helvetica,sans-Serif" font-size="10.00">std_clib.h</text>
</a>
</g>
</g>
<!-- Node1&#45;&gt;Node6 -->
<g id="edge5" class="edge"><title>Node1&#45;&gt;Node6</title>
<path fill="none" stroke="midnightblue" d="M292.301,-218.622C306.915,-208.757 325.827,-195.992 338.179,-187.655"/>
<polygon fill="midnightblue" stroke="midnightblue" points="290.184,-215.828 283.853,-224.324 294.1,-221.63 290.184,-215.828"/>
</g>
<!-- Node7 -->
<g id="node7" class="node"><title>Node7</title>
<g id="a_node7"><a xlink:href="arch_2x86__32-linux_2odp_2api_2abi_2std__clib_8h_source.html" target="_top" xlink:title="std_clib.h">
<polygon fill="white" stroke="black" points="400,-168.5 400,-187.5 462,-187.5 462,-168.5 400,-168.5"/>
<text text-anchor="middle" x="431" y="-175.5" font-family="Helvetica,sans-Serif" font-size="10.00">std_clib.h</text>
</a>
</g>
</g>
<!-- Node1&#45;&gt;Node7 -->
<g id="edge6" class="edge"><title>Node1&#45;&gt;Node7</title>
<path fill="none" stroke="midnightblue" d="M306.046,-221.172C336.174,-211.004 378.896,-196.585 405.766,-187.516"/>
<polygon fill="midnightblue" stroke="midnightblue" points="304.708,-217.929 296.352,-224.444 306.947,-224.562 304.708,-217.929"/>
</g>
<!-- Node8 -->
<g id="node8" class="node"><title>Node8</title>
<g id="a_node8"><a xlink:href="arch_2x86__64-linux_2odp_2api_2abi_2std__clib_8h_source.html" target="_top" xlink:title="std_clib.h">
<polygon fill="white" stroke="black" points="480,-168.5 480,-187.5 542,-187.5 542,-168.5 480,-168.5"/>
<text text-anchor="middle" x="511" y="-175.5" font-family="Helvetica,sans-Serif" font-size="10.00">std_clib.h</text>
</a>
</g>
</g>
<!-- Node1&#45;&gt;Node8 -->
<g id="edge7" class="edge"><title>Node1&#45;&gt;Node8</title>
<path fill="none" stroke="midnightblue" d="M312.363,-223.693C360.015,-212.972 437.226,-195.599 479.997,-185.976"/>
<polygon fill="midnightblue" stroke="midnightblue" points="311.364,-220.331 302.376,-225.94 312.9,-227.16 311.364,-220.331"/>
</g>
<!-- Node9 -->
<g id="node9" class="node"><title>Node9</title>
<g id="a_node9"><a xlink:href="api_2std__clib_8h_source.html" target="_top" xlink:title="std_clib.h">
<polygon fill="white" stroke="black" points="480,-112.5 480,-131.5 542,-131.5 542,-112.5 480,-112.5"/>
<text text-anchor="middle" x="511" y="-119.5" font-family="Helvetica,sans-Serif" font-size="10.00">std_clib.h</text>
</a>
</g>
</g>
<!-- Node8&#45;&gt;Node9 -->
<g id="edge8" class="edge"><title>Node8&#45;&gt;Node9</title>
<path fill="none" stroke="midnightblue" d="M511,-157.805C511,-148.91 511,-138.78 511,-131.751"/>
<polygon fill="midnightblue" stroke="midnightblue" points="507.5,-158.083 511,-168.083 514.5,-158.083 507.5,-158.083"/>
</g>
<!-- Node10 -->
<g id="node10" class="node"><title>Node10</title>
<g id="a_node10"><a xlink:href="odp__api_8h.html" target="_top" xlink:title="The OpenDataPlane API. ">
<polygon fill="white" stroke="black" points="479.5,-56.5 479.5,-75.5 542.5,-75.5 542.5,-56.5 479.5,-56.5"/>
<text text-anchor="middle" x="511" y="-63.5" font-family="Helvetica,sans-Serif" font-size="10.00">odp_api.h</text>
</a>
</g>
</g>
<!-- Node9&#45;&gt;Node10 -->
<g id="edge9" class="edge"><title>Node9&#45;&gt;Node10</title>
<path fill="none" stroke="midnightblue" d="M511,-101.805C511,-92.9102 511,-82.7798 511,-75.7511"/>
<polygon fill="midnightblue" stroke="midnightblue" points="507.5,-102.083 511,-112.083 514.5,-102.083 507.5,-102.083"/>
</g>
<!-- Node11 -->
<g id="node11" class="node"><title>Node11</title>
<g id="a_node11"><a xlink:href="odp_8h.html" target="_top" xlink:title="WARNING: THIS FILE IS DEPRECATED AND WILL BE REMOVED!!! ODP APPLICATIONS SHOULD NOW INCLUDE odp_api...">
<polygon fill="white" stroke="black" points="489,-0.5 489,-19.5 533,-19.5 533,-0.5 489,-0.5"/>
<text text-anchor="middle" x="511" y="-7.5" font-family="Helvetica,sans-Serif" font-size="10.00">odp.h</text>
</a>
</g>
</g>
<!-- Node10&#45;&gt;Node11 -->
<g id="edge10" class="edge"><title>Node10&#45;&gt;Node11</title>
<path fill="none" stroke="midnightblue" d="M511,-45.8045C511,-36.9102 511,-26.7798 511,-19.7511"/>
<polygon fill="midnightblue" stroke="midnightblue" points="507.5,-46.083 511,-56.083 514.5,-46.083 507.5,-46.083"/>
</g>
</g>
</svg>
