<?xml version="1.0" encoding="UTF-8" standalone="no"?>
<!DOCTYPE svg PUBLIC "-//W3C//DTD SVG 1.1//EN"
 "http://www.w3.org/Graphics/SVG/1.1/DTD/svg11.dtd">
<!-- Generated by graphviz version 2.38.0 (20140413.2041)
 -->
<!-- Title: barrier.h Pages: 1 -->
<svg width="562pt" height="196pt"
 viewBox="0.00 0.00 562.00 196.00" xmlns="http://www.w3.org/2000/svg" xmlns:xlink="http://www.w3.org/1999/xlink">
<g id="graph0" class="graph" transform="scale(1 1) rotate(0) translate(4 192)">
<title>barrier.h</title>
<polygon fill="white" stroke="none" points="-4,4 -4,-192 558,-192 558,4 -4,4"/>
<!-- Node0 -->
<g id="node1" class="node"><title>Node0</title>
<polygon fill="#bfbfbf" stroke="black" points="261,-168.5 261,-187.5 317,-187.5 317,-168.5 261,-168.5"/>
<text text-anchor="middle" x="289" y="-175.5" font-family="Helvetica,sans-Serif" font-size="10.00">barrier.h</text>
</g>
<!-- Node1 -->
<g id="node2" class="node"><title>Node1</title>
<g id="a_node2"><a xlink:href="api_2std__types_8h.html" target="_top" xlink:title="Standard C language types and definitions for ODP. ">
<polygon fill="white" stroke="black" points="163,-112.5 163,-131.5 273,-131.5 273,-112.5 163,-112.5"/>
<text text-anchor="middle" x="218" y="-119.5" font-family="Helvetica,sans-Serif" font-size="10.00">odp/api/std_types.h</text>
</a>
</g>
</g>
<!-- Node0&#45;&gt;Node1 -->
<g id="edge1" class="edge"><title>Node0&#45;&gt;Node1</title>
<path fill="none" stroke="midnightblue" d="M277.593,-168.324C266.891,-160.185 250.659,-147.839 237.837,-138.087"/>
<polygon fill="midnightblue" stroke="midnightblue" points="239.693,-135.102 229.615,-131.834 235.456,-140.673 239.693,-135.102"/>
</g>
<!-- Node7 -->
<g id="node8" class="node"><title>Node7</title>
<g id="a_node8"><a xlink:href="api_2atomic_8h.html" target="_top" xlink:title="ODP atomic operations. ">
<polygon fill="white" stroke="black" points="312.5,-112.5 312.5,-131.5 409.5,-131.5 409.5,-112.5 312.5,-112.5"/>
<text text-anchor="middle" x="361" y="-119.5" font-family="Helvetica,sans-Serif" font-size="10.00">odp/api/atomic.h</text>
</a>
</g>
</g>
<!-- Node0&#45;&gt;Node7 -->
<g id="edge7" class="edge"><title>Node0&#45;&gt;Node7</title>
<path fill="none" stroke="midnightblue" d="M300.568,-168.324C311.42,-160.185 327.881,-147.839 340.883,-138.087"/>
<polygon fill="midnightblue" stroke="midnightblue" points="343.321,-140.634 349.221,-131.834 339.121,-135.034 343.321,-140.634"/>
</g>
<!-- Node2 -->
<g id="node3" class="node"><title>Node2</title>
<polygon fill="white" stroke="#bfbfbf" points="154,-56.5 154,-75.5 282,-75.5 282,-56.5 154,-56.5"/>
<text text-anchor="middle" x="218" y="-63.5" font-family="Helvetica,sans-Serif" font-size="10.00">odp/api/abi/std_types.h</text>
</g>
<!-- Node1&#45;&gt;Node2 -->
<g id="edge2" class="edge"><title>Node1&#45;&gt;Node2</title>
<path fill="none" stroke="midnightblue" d="M218,-112.083C218,-105.006 218,-94.8611 218,-85.9865"/>
<polygon fill="midnightblue" stroke="midnightblue" points="221.5,-85.751 218,-75.7511 214.5,-85.7511 221.5,-85.751"/>
</g>
<!-- Node3 -->
<g id="node4" class="node"><title>Node3</title>
<g id="a_node4"><a xlink:href="api_2spec_2std__types_8h.html" target="_top" xlink:title="Standard C language types and definitions for ODP. ">
<polygon fill="white" stroke="black" points="0,-56.5 0,-75.5 136,-75.5 136,-56.5 0,-56.5"/>
<text text-anchor="middle" x="68" y="-63.5" font-family="Helvetica,sans-Serif" font-size="10.00">odp/api/spec/std_types.h</text>
</a>
</g>
</g>
<!-- Node1&#45;&gt;Node3 -->
<g id="edge3" class="edge"><title>Node1&#45;&gt;Node3</title>
<path fill="none" stroke="midnightblue" d="M194.232,-112.444C169.107,-103.399 129.289,-89.064 101.1,-78.9158"/>
<polygon fill="midnightblue" stroke="midnightblue" points="102.251,-75.6106 91.6567,-75.5164 99.8801,-82.1968 102.251,-75.6106"/>
</g>
<!-- Node4 -->
<g id="node5" class="node"><title>Node4</title>
<g id="a_node5"><a xlink:href="visibility__begin_8h_source.html" target="_top" xlink:title="odp/visibility_begin.h">
<polygon fill="white" stroke="black" points="286.5,-0.5 286.5,-19.5 401.5,-19.5 401.5,-0.5 286.5,-0.5"/>
<text text-anchor="middle" x="344" y="-7.5" font-family="Helvetica,sans-Serif" font-size="10.00">odp/visibility_begin.h</text>
</a>
</g>
</g>
<!-- Node3&#45;&gt;Node4 -->
<g id="edge4" class="edge"><title>Node3&#45;&gt;Node4</title>
<path fill="none" stroke="midnightblue" d="M111.733,-56.4435C160.183,-46.9641 238.329,-31.6747 290.418,-21.4835"/>
<polygon fill="midnightblue" stroke="midnightblue" points="291.33,-24.8715 300.472,-19.5164 289.986,-18.0017 291.33,-24.8715"/>
</g>
<!-- Node5 -->
<g id="node6" class="node"><title>Node5</title>
<polygon fill="white" stroke="#bfbfbf" points="41.5,-0.5 41.5,-19.5 94.5,-19.5 94.5,-0.5 41.5,-0.5"/>
<text text-anchor="middle" x="68" y="-7.5" font-family="Helvetica,sans-Serif" font-size="10.00">stdint.h</text>
</g>
<!-- Node3&#45;&gt;Node5 -->
<g id="edge5" class="edge"><title>Node3&#45;&gt;Node5</title>
<path fill="none" stroke="midnightblue" d="M68,-56.083C68,-49.0059 68,-38.8611 68,-29.9865"/>
<polygon fill="midnightblue" stroke="midnightblue" points="71.5001,-29.751 68,-19.7511 64.5001,-29.7511 71.5001,-29.751"/>
</g>
<!-- Node6 -->
<g id="node7" class="node"><title>Node6</title>
<g id="a_node7"><a xlink:href="visibility__end_8h_source.html" target="_top" xlink:title="odp/visibility_end.h">
<polygon fill="white" stroke="black" points="145.5,-0.5 145.5,-19.5 252.5,-19.5 252.5,-0.5 145.5,-0.5"/>
<text text-anchor="middle" x="199" y="-7.5" font-family="Helvetica,sans-Serif" font-size="10.00">odp/visibility_end.h</text>
</a>
</g>
</g>
<!-- Node3&#45;&gt;Node6 -->
<g id="edge6" class="edge"><title>Node3&#45;&gt;Node6</title>
<path fill="none" stroke="midnightblue" d="M88.7573,-56.4435C110.316,-47.5566 144.263,-33.5632 168.794,-23.4514"/>
<polygon fill="midnightblue" stroke="midnightblue" points="170.428,-26.5634 178.34,-19.5164 167.761,-20.0917 170.428,-26.5634"/>
</g>
<!-- Node8 -->
<g id="node9" class="node"><title>Node8</title>
<polygon fill="white" stroke="#bfbfbf" points="440,-56.5 440,-75.5 554,-75.5 554,-56.5 440,-56.5"/>
<text text-anchor="middle" x="497" y="-63.5" font-family="Helvetica,sans-Serif" font-size="10.00">odp/api/abi/atomic.h</text>
</g>
<!-- Node7&#45;&gt;Node8 -->
<g id="edge8" class="edge"><title>Node7&#45;&gt;Node8</title>
<path fill="none" stroke="midnightblue" d="M382.55,-112.444C405.031,-103.517 440.488,-89.4387 465.98,-79.3168"/>
<polygon fill="midnightblue" stroke="midnightblue" points="467.549,-82.4598 475.551,-75.5164 464.965,-75.9539 467.549,-82.4598"/>
</g>
<!-- Node9 -->
<g id="node10" class="node"><title>Node9</title>
<g id="a_node10"><a xlink:href="api_2spec_2atomic_8h.html" target="_top" xlink:title="ODP atomic operations. ">
<polygon fill="white" stroke="black" points="300,-56.5 300,-75.5 422,-75.5 422,-56.5 300,-56.5"/>
<text text-anchor="middle" x="361" y="-63.5" font-family="Helvetica,sans-Serif" font-size="10.00">odp/api/spec/atomic.h</text>
</a>
</g>
</g>
<!-- Node7&#45;&gt;Node9 -->
<g id="edge9" class="edge"><title>Node7&#45;&gt;Node9</title>
<path fill="none" stroke="midnightblue" d="M361,-112.083C361,-105.006 361,-94.8611 361,-85.9865"/>
<polygon fill="midnightblue" stroke="midnightblue" points="364.5,-85.751 361,-75.7511 357.5,-85.7511 364.5,-85.751"/>
</g>
<!-- Node9&#45;&gt;Node4 -->
<g id="edge10" class="edge"><title>Node9&#45;&gt;Node4</title>
<path fill="none" stroke="midnightblue" d="M358.193,-56.083C355.915,-48.8486 352.629,-38.4087 349.792,-29.3968"/>
<polygon fill="midnightblue" stroke="midnightblue" points="353.096,-28.2385 346.755,-19.7511 346.419,-30.3406 353.096,-28.2385"/>
</g>
<!-- Node9&#45;&gt;Node6 -->
<g id="edge11" class="edge"><title>Node9&#45;&gt;Node6</title>
<path fill="none" stroke="midnightblue" d="M335.331,-56.4435C308.077,-47.3591 264.816,-32.9388 234.349,-22.7831"/>
<polygon fill="midnightblue" stroke="midnightblue" points="235.143,-19.3584 224.549,-19.5164 232.929,-25.9992 235.143,-19.3584"/>
</g>
</g>
</svg>
