<?xml version="1.0" encoding="UTF-8" standalone="no"?>
<!DOCTYPE svg PUBLIC "-//W3C//DTD SVG 1.1//EN"
 "http://www.w3.org/Graphics/SVG/1.1/DTD/svg11.dtd">
<!-- Generated by graphviz version 2.38.0 (20140413.2041)
 -->
<!-- Title: atomic.h Pages: 1 -->
<svg width="1660pt" height="588pt"
 viewBox="0.00 0.00 1659.50 588.00" xmlns="http://www.w3.org/2000/svg" xmlns:xlink="http://www.w3.org/1999/xlink">
<g id="graph0" class="graph" transform="scale(1 1) rotate(0) translate(4 584)">
<title>atomic.h</title>
<polygon fill="white" stroke="none" points="-4,4 -4,-584 1655.5,-584 1655.5,4 -4,4"/>
<!-- Node10 -->
<g id="node1" class="node"><title>Node10</title>
<polygon fill="#bfbfbf" stroke="black" points="305.5,-560.5 305.5,-579.5 364.5,-579.5 364.5,-560.5 305.5,-560.5"/>
<text text-anchor="middle" x="335" y="-567.5" font-family="Helvetica,sans-Serif" font-size="10.00">atomic.h</text>
</g>
<!-- Node11 -->
<g id="node2" class="node"><title>Node11</title>
<g id="a_node2"><a xlink:href="arch_2arm32-linux_2odp_2api_2abi_2atomic_8h_source.html" target="_top" xlink:title="atomic.h">
<polygon fill="white" stroke="black" points="74.5,-504.5 74.5,-523.5 133.5,-523.5 133.5,-504.5 74.5,-504.5"/>
<text text-anchor="middle" x="104" y="-511.5" font-family="Helvetica,sans-Serif" font-size="10.00">atomic.h</text>
</a>
</g>
</g>
<!-- Node10&#45;&gt;Node11 -->
<g id="edge1" class="edge"><title>Node10&#45;&gt;Node11</title>
<path fill="none" stroke="midnightblue" d="M295.371,-559.736C249.436,-548.998 174.787,-531.548 133.612,-521.922"/>
<polygon fill="midnightblue" stroke="midnightblue" points="294.739,-563.183 305.274,-562.051 296.333,-556.367 294.739,-563.183"/>
</g>
<!-- Node12 -->
<g id="node3" class="node"><title>Node12</title>
<g id="a_node3"><a xlink:href="arch_2arm64-linux_2odp_2api_2abi_2atomic_8h_source.html" target="_top" xlink:title="atomic.h">
<polygon fill="white" stroke="black" points="151.5,-504.5 151.5,-523.5 210.5,-523.5 210.5,-504.5 151.5,-504.5"/>
<text text-anchor="middle" x="181" y="-511.5" font-family="Helvetica,sans-Serif" font-size="10.00">atomic.h</text>
</a>
</g>
</g>
<!-- Node10&#45;&gt;Node12 -->
<g id="edge2" class="edge"><title>Node10&#45;&gt;Node12</title>
<path fill="none" stroke="midnightblue" d="M300.889,-557.039C271.913,-546.879 231.038,-532.546 205.288,-523.516"/>
<polygon fill="midnightblue" stroke="midnightblue" points="300.003,-560.437 310.598,-560.444 302.32,-553.832 300.003,-560.437"/>
</g>
<!-- Node13 -->
<g id="node4" class="node"><title>Node13</title>
<g id="a_node4"><a xlink:href="arch_2default-linux_2odp_2api_2abi_2atomic_8h_source.html" target="_top" xlink:title="atomic.h">
<polygon fill="white" stroke="black" points="228.5,-504.5 228.5,-523.5 287.5,-523.5 287.5,-504.5 228.5,-504.5"/>
<text text-anchor="middle" x="258" y="-511.5" font-family="Helvetica,sans-Serif" font-size="10.00">atomic.h</text>
</a>
</g>
</g>
<!-- Node10&#45;&gt;Node13 -->
<g id="edge3" class="edge"><title>Node10&#45;&gt;Node13</title>
<path fill="none" stroke="midnightblue" d="M314.099,-554.342C300.089,-544.517 282.117,-531.913 270.341,-523.655"/>
<polygon fill="midnightblue" stroke="midnightblue" points="312.432,-557.448 322.629,-560.324 316.451,-551.717 312.432,-557.448"/>
</g>
<!-- Node14 -->
<g id="node5" class="node"><title>Node14</title>
<g id="a_node5"><a xlink:href="arch_2mips64-linux_2odp_2api_2abi_2atomic_8h_source.html" target="_top" xlink:title="atomic.h">
<polygon fill="white" stroke="black" points="305.5,-504.5 305.5,-523.5 364.5,-523.5 364.5,-504.5 305.5,-504.5"/>
<text text-anchor="middle" x="335" y="-511.5" font-family="Helvetica,sans-Serif" font-size="10.00">atomic.h</text>
</a>
</g>
</g>
<!-- Node10&#45;&gt;Node14 -->
<g id="edge4" class="edge"><title>Node10&#45;&gt;Node14</title>
<path fill="none" stroke="midnightblue" d="M335,-549.805C335,-540.91 335,-530.78 335,-523.751"/>
<polygon fill="midnightblue" stroke="midnightblue" points="331.5,-550.083 335,-560.083 338.5,-550.083 331.5,-550.083"/>
</g>
<!-- Node15 -->
<g id="node6" class="node"><title>Node15</title>
<g id="a_node6"><a xlink:href="arch_2power64-linux_2odp_2api_2abi_2atomic_8h_source.html" target="_top" xlink:title="atomic.h">
<polygon fill="white" stroke="black" points="382.5,-504.5 382.5,-523.5 441.5,-523.5 441.5,-504.5 382.5,-504.5"/>
<text text-anchor="middle" x="412" y="-511.5" font-family="Helvetica,sans-Serif" font-size="10.00">atomic.h</text>
</a>
</g>
</g>
<!-- Node10&#45;&gt;Node15 -->
<g id="edge5" class="edge"><title>Node10&#45;&gt;Node15</title>
<path fill="none" stroke="midnightblue" d="M355.901,-554.342C369.911,-544.517 387.883,-531.913 399.659,-523.655"/>
<polygon fill="midnightblue" stroke="midnightblue" points="353.549,-551.717 347.371,-560.324 357.568,-557.448 353.549,-551.717"/>
</g>
<!-- Node16 -->
<g id="node7" class="node"><title>Node16</title>
<g id="a_node7"><a xlink:href="arch_2x86__32-linux_2odp_2api_2abi_2atomic_8h_source.html" target="_top" xlink:title="atomic.h">
<polygon fill="white" stroke="black" points="459.5,-504.5 459.5,-523.5 518.5,-523.5 518.5,-504.5 459.5,-504.5"/>
<text text-anchor="middle" x="489" y="-511.5" font-family="Helvetica,sans-Serif" font-size="10.00">atomic.h</text>
</a>
</g>
</g>
<!-- Node10&#45;&gt;Node16 -->
<g id="edge6" class="edge"><title>Node10&#45;&gt;Node16</title>
<path fill="none" stroke="midnightblue" d="M369.111,-557.039C398.087,-546.879 438.962,-532.546 464.712,-523.516"/>
<polygon fill="midnightblue" stroke="midnightblue" points="367.68,-553.832 359.402,-560.444 369.997,-560.437 367.68,-553.832"/>
</g>
<!-- Node17 -->
<g id="node8" class="node"><title>Node17</title>
<g id="a_node8"><a xlink:href="arch_2x86__64-linux_2odp_2api_2abi_2atomic_8h_source.html" target="_top" xlink:title="atomic.h">
<polygon fill="white" stroke="black" points="536.5,-504.5 536.5,-523.5 595.5,-523.5 595.5,-504.5 536.5,-504.5"/>
<text text-anchor="middle" x="566" y="-511.5" font-family="Helvetica,sans-Serif" font-size="10.00">atomic.h</text>
</a>
</g>
</g>
<!-- Node10&#45;&gt;Node17 -->
<g id="edge7" class="edge"><title>Node10&#45;&gt;Node17</title>
<path fill="none" stroke="midnightblue" d="M374.671,-559.793C413.695,-550.726 474.964,-536.464 528,-524 530.64,-523.38 533.383,-522.733 536.132,-522.084"/>
<polygon fill="midnightblue" stroke="midnightblue" points="373.713,-556.422 364.764,-562.094 375.297,-563.241 373.713,-556.422"/>
</g>
<!-- Node18 -->
<g id="node9" class="node"><title>Node18</title>
<g id="a_node9"><a xlink:href="api_2atomic_8h.html" target="_top" xlink:title="ODP atomic operations. ">
<polygon fill="white" stroke="black" points="536.5,-448.5 536.5,-467.5 595.5,-467.5 595.5,-448.5 536.5,-448.5"/>
<text text-anchor="middle" x="566" y="-455.5" font-family="Helvetica,sans-Serif" font-size="10.00">atomic.h</text>
</a>
</g>
</g>
<!-- Node17&#45;&gt;Node18 -->
<g id="edge8" class="edge"><title>Node17&#45;&gt;Node18</title>
<path fill="none" stroke="midnightblue" d="M566,-493.805C566,-484.91 566,-474.78 566,-467.751"/>
<polygon fill="midnightblue" stroke="midnightblue" points="562.5,-494.083 566,-504.083 569.5,-494.083 562.5,-494.083"/>
</g>
<!-- Node19 -->
<g id="node10" class="node"><title>Node19</title>
<g id="a_node10"><a xlink:href="api_2abi-default_2barrier_8h.html" target="_top" xlink:title="ODP barrier. ">
<polygon fill="white" stroke="black" points="259,-392.5 259,-411.5 315,-411.5 315,-392.5 259,-392.5"/>
<text text-anchor="middle" x="287" y="-399.5" font-family="Helvetica,sans-Serif" font-size="10.00">barrier.h</text>
</a>
</g>
</g>
<!-- Node18&#45;&gt;Node19 -->
<g id="edge9" class="edge"><title>Node18&#45;&gt;Node19</title>
<path fill="none" stroke="midnightblue" d="M526.296,-449.315C469.093,-438.244 364.903,-418.078 315.044,-408.428"/>
<polygon fill="midnightblue" stroke="midnightblue" points="525.923,-452.808 536.406,-451.272 527.254,-445.936 525.923,-452.808"/>
</g>
<!-- Node27 -->
<g id="node18" class="node"><title>Node27</title>
<g id="a_node18"><a xlink:href="api_2barrier_8h.html" target="_top" xlink:title="ODP execution barriers. ">
<polygon fill="white" stroke="black" points="482,-280.5 482,-299.5 538,-299.5 538,-280.5 482,-280.5"/>
<text text-anchor="middle" x="510" y="-287.5" font-family="Helvetica,sans-Serif" font-size="10.00">barrier.h</text>
</a>
</g>
</g>
<!-- Node18&#45;&gt;Node27 -->
<g id="edge50" class="edge"><title>Node18&#45;&gt;Node27</title>
<path fill="none" stroke="midnightblue" d="M559.724,-438.395C547.643,-402.585 521.585,-325.342 512.89,-299.568"/>
<polygon fill="midnightblue" stroke="midnightblue" points="556.476,-439.719 562.989,-448.075 563.109,-437.481 556.476,-439.719"/>
</g>
<!-- Node28 -->
<g id="node19" class="node"><title>Node28</title>
<g id="a_node19"><a xlink:href="odp__api_8h.html" target="_top" xlink:title="The OpenDataPlane API. ">
<polygon fill="white" stroke="black" points="577.5,-56.5 577.5,-75.5 640.5,-75.5 640.5,-56.5 577.5,-56.5"/>
<text text-anchor="middle" x="609" y="-63.5" font-family="Helvetica,sans-Serif" font-size="10.00">odp_api.h</text>
</a>
</g>
</g>
<!-- Node18&#45;&gt;Node28 -->
<g id="edge51" class="edge"><title>Node18&#45;&gt;Node28</title>
<path fill="none" stroke="midnightblue" d="M566,-438.251C566,-416.357 566,-379.052 566,-347 566,-347 566,-347 566,-177 566,-136.811 591.206,-93.6815 603.021,-75.6721"/>
<polygon fill="midnightblue" stroke="midnightblue" points="562.5,-438.442 566,-448.442 569.5,-438.442 562.5,-438.442"/>
</g>
<!-- Node30 -->
<g id="node21" class="node"><title>Node30</title>
<g id="a_node21"><a xlink:href="api_2abi-default_2rwlock_8h.html" target="_top" xlink:title="ODP rwlock. ">
<polygon fill="white" stroke="black" points="776.5,-392.5 776.5,-411.5 831.5,-411.5 831.5,-392.5 776.5,-392.5"/>
<text text-anchor="middle" x="804" y="-399.5" font-family="Helvetica,sans-Serif" font-size="10.00">rwlock.h</text>
</a>
</g>
</g>
<!-- Node18&#45;&gt;Node30 -->
<g id="edge20" class="edge"><title>Node18&#45;&gt;Node30</title>
<path fill="none" stroke="midnightblue" d="M605.435,-448.053C653.64,-437.115 733.993,-418.884 776.185,-409.311"/>
<polygon fill="midnightblue" stroke="midnightblue" points="604.639,-444.644 595.662,-450.27 606.188,-451.471 604.639,-444.644"/>
</g>
<!-- Node48 -->
<g id="node39" class="node"><title>Node48</title>
<g id="a_node39"><a xlink:href="api_2abi-default_2ticketlock_8h.html" target="_top" xlink:title="ODP ticketlock. ">
<polygon fill="white" stroke="black" points="1327.5,-392.5 1327.5,-411.5 1398.5,-411.5 1398.5,-392.5 1327.5,-392.5"/>
<text text-anchor="middle" x="1363" y="-399.5" font-family="Helvetica,sans-Serif" font-size="10.00">ticketlock.h</text>
</a>
</g>
</g>
<!-- Node18&#45;&gt;Node48 -->
<g id="edge40" class="edge"><title>Node18&#45;&gt;Node48</title>
<path fill="none" stroke="midnightblue" d="M605.882,-454.298C743.389,-444.981 1196.44,-414.285 1327.31,-405.418"/>
<polygon fill="midnightblue" stroke="midnightblue" points="605.529,-450.814 595.789,-454.982 606.003,-457.798 605.529,-450.814"/>
</g>
<!-- Node20 -->
<g id="node11" class="node"><title>Node20</title>
<g id="a_node11"><a xlink:href="arch_2arm32-linux_2odp_2api_2abi_2barrier_8h_source.html" target="_top" xlink:title="barrier.h">
<polygon fill="white" stroke="black" points="-3.55271e-15,-336.5 -3.55271e-15,-355.5 56,-355.5 56,-336.5 -3.55271e-15,-336.5"/>
<text text-anchor="middle" x="28" y="-343.5" font-family="Helvetica,sans-Serif" font-size="10.00">barrier.h</text>
</a>
</g>
</g>
<!-- Node19&#45;&gt;Node20 -->
<g id="edge10" class="edge"><title>Node19&#45;&gt;Node20</title>
<path fill="none" stroke="midnightblue" d="M248.853,-393.732C204.551,-385.184 129.318,-370.336 65,-356 62.1609,-355.367 59.2047,-354.686 56.2555,-353.992"/>
<polygon fill="midnightblue" stroke="midnightblue" points="248.409,-397.211 258.891,-395.663 249.732,-390.337 248.409,-397.211"/>
</g>
<!-- Node21 -->
<g id="node12" class="node"><title>Node21</title>
<g id="a_node12"><a xlink:href="arch_2arm64-linux_2odp_2api_2abi_2barrier_8h_source.html" target="_top" xlink:title="barrier.h">
<polygon fill="white" stroke="black" points="74,-336.5 74,-355.5 130,-355.5 130,-336.5 74,-336.5"/>
<text text-anchor="middle" x="102" y="-343.5" font-family="Helvetica,sans-Serif" font-size="10.00">barrier.h</text>
</a>
</g>
</g>
<!-- Node19&#45;&gt;Node21 -->
<g id="edge11" class="edge"><title>Node19&#45;&gt;Node21</title>
<path fill="none" stroke="midnightblue" d="M248.951,-389.894C213.603,-379.576 161.781,-364.45 130.058,-355.19"/>
<polygon fill="midnightblue" stroke="midnightblue" points="248.322,-393.356 258.902,-392.799 250.284,-386.637 248.322,-393.356"/>
</g>
<!-- Node22 -->
<g id="node13" class="node"><title>Node22</title>
<g id="a_node13"><a xlink:href="arch_2default-linux_2odp_2api_2abi_2barrier_8h_source.html" target="_top" xlink:title="barrier.h">
<polygon fill="white" stroke="black" points="148,-336.5 148,-355.5 204,-355.5 204,-336.5 148,-336.5"/>
<text text-anchor="middle" x="176" y="-343.5" font-family="Helvetica,sans-Serif" font-size="10.00">barrier.h</text>
</a>
</g>
</g>
<!-- Node19&#45;&gt;Node22 -->
<g id="edge12" class="edge"><title>Node19&#45;&gt;Node22</title>
<path fill="none" stroke="midnightblue" d="M259.995,-387.862C239.412,-377.849 211.655,-364.346 193.79,-355.655"/>
<polygon fill="midnightblue" stroke="midnightblue" points="258.642,-391.097 269.166,-392.324 261.705,-384.802 258.642,-391.097"/>
</g>
<!-- Node23 -->
<g id="node14" class="node"><title>Node23</title>
<g id="a_node14"><a xlink:href="arch_2mips64-linux_2odp_2api_2abi_2barrier_8h_source.html" target="_top" xlink:title="barrier.h">
<polygon fill="white" stroke="black" points="222,-336.5 222,-355.5 278,-355.5 278,-336.5 222,-336.5"/>
<text text-anchor="middle" x="250" y="-343.5" font-family="Helvetica,sans-Serif" font-size="10.00">barrier.h</text>
</a>
</g>
</g>
<!-- Node19&#45;&gt;Node23 -->
<g id="edge13" class="edge"><title>Node19&#45;&gt;Node23</title>
<path fill="none" stroke="midnightblue" d="M275.054,-383.566C268.688,-374.275 261.133,-363.248 255.996,-355.751"/>
<polygon fill="midnightblue" stroke="midnightblue" points="272.351,-385.812 280.89,-392.083 278.125,-381.855 272.351,-385.812"/>
</g>
<!-- Node24 -->
<g id="node15" class="node"><title>Node24</title>
<g id="a_node15"><a xlink:href="arch_2power64-linux_2odp_2api_2abi_2barrier_8h_source.html" target="_top" xlink:title="barrier.h">
<polygon fill="white" stroke="black" points="296,-336.5 296,-355.5 352,-355.5 352,-336.5 296,-336.5"/>
<text text-anchor="middle" x="324" y="-343.5" font-family="Helvetica,sans-Serif" font-size="10.00">barrier.h</text>
</a>
</g>
</g>
<!-- Node19&#45;&gt;Node24 -->
<g id="edge14" class="edge"><title>Node19&#45;&gt;Node24</title>
<path fill="none" stroke="midnightblue" d="M298.946,-383.566C305.312,-374.275 312.867,-363.248 318.004,-355.751"/>
<polygon fill="midnightblue" stroke="midnightblue" points="295.875,-381.855 293.11,-392.083 301.649,-385.812 295.875,-381.855"/>
</g>
<!-- Node25 -->
<g id="node16" class="node"><title>Node25</title>
<g id="a_node16"><a xlink:href="arch_2x86__32-linux_2odp_2api_2abi_2barrier_8h_source.html" target="_top" xlink:title="barrier.h">
<polygon fill="white" stroke="black" points="370,-336.5 370,-355.5 426,-355.5 426,-336.5 370,-336.5"/>
<text text-anchor="middle" x="398" y="-343.5" font-family="Helvetica,sans-Serif" font-size="10.00">barrier.h</text>
</a>
</g>
</g>
<!-- Node19&#45;&gt;Node25 -->
<g id="edge15" class="edge"><title>Node19&#45;&gt;Node25</title>
<path fill="none" stroke="midnightblue" d="M314.005,-387.862C334.588,-377.849 362.345,-364.346 380.21,-355.655"/>
<polygon fill="midnightblue" stroke="midnightblue" points="312.295,-384.802 304.834,-392.324 315.358,-391.097 312.295,-384.802"/>
</g>
<!-- Node26 -->
<g id="node17" class="node"><title>Node26</title>
<g id="a_node17"><a xlink:href="arch_2x86__64-linux_2odp_2api_2abi_2barrier_8h_source.html" target="_top" xlink:title="barrier.h">
<polygon fill="white" stroke="black" points="444,-336.5 444,-355.5 500,-355.5 500,-336.5 444,-336.5"/>
<text text-anchor="middle" x="472" y="-343.5" font-family="Helvetica,sans-Serif" font-size="10.00">barrier.h</text>
</a>
</g>
</g>
<!-- Node19&#45;&gt;Node26 -->
<g id="edge16" class="edge"><title>Node19&#45;&gt;Node26</title>
<path fill="none" stroke="midnightblue" d="M325.049,-389.894C360.397,-379.576 412.219,-364.45 443.942,-355.19"/>
<polygon fill="midnightblue" stroke="midnightblue" points="323.716,-386.637 315.098,-392.799 325.678,-393.356 323.716,-386.637"/>
</g>
<!-- Node26&#45;&gt;Node27 -->
<g id="edge17" class="edge"><title>Node26&#45;&gt;Node27</title>
<path fill="none" stroke="midnightblue" d="M484.065,-327.855C490.645,-318.505 498.511,-307.327 503.842,-299.751"/>
<polygon fill="midnightblue" stroke="midnightblue" points="481.168,-325.891 478.275,-336.083 486.892,-329.919 481.168,-325.891"/>
</g>
<!-- Node27&#45;&gt;Node28 -->
<g id="edge18" class="edge"><title>Node27&#45;&gt;Node28</title>
<path fill="none" stroke="midnightblue" d="M510.487,-270.149C512.185,-235.997 519.642,-162.735 552,-112 562.17,-96.0549 579.991,-83.346 593.006,-75.5551"/>
<polygon fill="midnightblue" stroke="midnightblue" points="506.976,-270.372 510.095,-280.497 513.971,-270.636 506.976,-270.372"/>
</g>
<!-- Node29 -->
<g id="node20" class="node"><title>Node29</title>
<g id="a_node20"><a xlink:href="odp_8h.html" target="_top" xlink:title="WARNING: THIS FILE IS DEPRECATED AND WILL BE REMOVED!!! ODP APPLICATIONS SHOULD NOW INCLUDE odp_api...">
<polygon fill="white" stroke="black" points="587,-0.5 587,-19.5 631,-19.5 631,-0.5 587,-0.5"/>
<text text-anchor="middle" x="609" y="-7.5" font-family="Helvetica,sans-Serif" font-size="10.00">odp.h</text>
</a>
</g>
</g>
<!-- Node28&#45;&gt;Node29 -->
<g id="edge19" class="edge"><title>Node28&#45;&gt;Node29</title>
<path fill="none" stroke="midnightblue" d="M609,-45.8045C609,-36.9102 609,-26.7798 609,-19.7511"/>
<polygon fill="midnightblue" stroke="midnightblue" points="605.5,-46.083 609,-56.083 612.5,-46.083 605.5,-46.083"/>
</g>
<!-- Node31 -->
<g id="node22" class="node"><title>Node31</title>
<g id="a_node22"><a xlink:href="arch_2arm32-linux_2odp_2api_2abi_2rwlock_8h_source.html" target="_top" xlink:title="rwlock.h">
<polygon fill="white" stroke="black" points="594.5,-336.5 594.5,-355.5 649.5,-355.5 649.5,-336.5 594.5,-336.5"/>
<text text-anchor="middle" x="622" y="-343.5" font-family="Helvetica,sans-Serif" font-size="10.00">rwlock.h</text>
</a>
</g>
</g>
<!-- Node30&#45;&gt;Node31 -->
<g id="edge21" class="edge"><title>Node30&#45;&gt;Node31</title>
<path fill="none" stroke="midnightblue" d="M766.568,-389.894C731.793,-379.576 680.812,-364.45 649.603,-355.19"/>
<polygon fill="midnightblue" stroke="midnightblue" points="765.776,-393.309 776.358,-392.799 767.767,-386.599 765.776,-393.309"/>
</g>
<!-- Node32 -->
<g id="node23" class="node"><title>Node32</title>
<g id="a_node23"><a xlink:href="arch_2arm64-linux_2odp_2api_2abi_2rwlock_8h_source.html" target="_top" xlink:title="rwlock.h">
<polygon fill="white" stroke="black" points="667.5,-336.5 667.5,-355.5 722.5,-355.5 722.5,-336.5 667.5,-336.5"/>
<text text-anchor="middle" x="695" y="-343.5" font-family="Helvetica,sans-Serif" font-size="10.00">rwlock.h</text>
</a>
</g>
</g>
<!-- Node30&#45;&gt;Node32 -->
<g id="edge22" class="edge"><title>Node30&#45;&gt;Node32</title>
<path fill="none" stroke="midnightblue" d="M777.481,-387.862C757.27,-377.849 730.013,-364.346 712.469,-355.655"/>
<polygon fill="midnightblue" stroke="midnightblue" points="775.973,-391.021 786.487,-392.324 779.08,-384.748 775.973,-391.021"/>
</g>
<!-- Node33 -->
<g id="node24" class="node"><title>Node33</title>
<g id="a_node24"><a xlink:href="arch_2default-linux_2odp_2api_2abi_2rwlock_8h_source.html" target="_top" xlink:title="rwlock.h">
<polygon fill="white" stroke="black" points="740.5,-336.5 740.5,-355.5 795.5,-355.5 795.5,-336.5 740.5,-336.5"/>
<text text-anchor="middle" x="768" y="-343.5" font-family="Helvetica,sans-Serif" font-size="10.00">rwlock.h</text>
</a>
</g>
</g>
<!-- Node30&#45;&gt;Node33 -->
<g id="edge23" class="edge"><title>Node30&#45;&gt;Node33</title>
<path fill="none" stroke="midnightblue" d="M792.377,-383.566C786.183,-374.275 778.832,-363.248 773.834,-355.751"/>
<polygon fill="midnightblue" stroke="midnightblue" points="789.596,-385.704 798.055,-392.083 795.42,-381.821 789.596,-385.704"/>
</g>
<!-- Node34 -->
<g id="node25" class="node"><title>Node34</title>
<g id="a_node25"><a xlink:href="arch_2mips64-linux_2odp_2api_2abi_2rwlock_8h_source.html" target="_top" xlink:title="rwlock.h">
<polygon fill="white" stroke="black" points="813.5,-336.5 813.5,-355.5 868.5,-355.5 868.5,-336.5 813.5,-336.5"/>
<text text-anchor="middle" x="841" y="-343.5" font-family="Helvetica,sans-Serif" font-size="10.00">rwlock.h</text>
</a>
</g>
</g>
<!-- Node30&#45;&gt;Node34 -->
<g id="edge24" class="edge"><title>Node30&#45;&gt;Node34</title>
<path fill="none" stroke="midnightblue" d="M815.946,-383.566C822.312,-374.275 829.867,-363.248 835.004,-355.751"/>
<polygon fill="midnightblue" stroke="midnightblue" points="812.875,-381.855 810.11,-392.083 818.649,-385.812 812.875,-381.855"/>
</g>
<!-- Node35 -->
<g id="node26" class="node"><title>Node35</title>
<g id="a_node26"><a xlink:href="arch_2power64-linux_2odp_2api_2abi_2rwlock_8h_source.html" target="_top" xlink:title="rwlock.h">
<polygon fill="white" stroke="black" points="886.5,-336.5 886.5,-355.5 941.5,-355.5 941.5,-336.5 886.5,-336.5"/>
<text text-anchor="middle" x="914" y="-343.5" font-family="Helvetica,sans-Serif" font-size="10.00">rwlock.h</text>
</a>
</g>
</g>
<!-- Node30&#45;&gt;Node35 -->
<g id="edge25" class="edge"><title>Node30&#45;&gt;Node35</title>
<path fill="none" stroke="midnightblue" d="M830.762,-387.862C851.159,-377.849 878.666,-364.346 896.37,-355.655"/>
<polygon fill="midnightblue" stroke="midnightblue" points="829.108,-384.775 821.673,-392.324 832.192,-391.059 829.108,-384.775"/>
</g>
<!-- Node36 -->
<g id="node27" class="node"><title>Node36</title>
<g id="a_node27"><a xlink:href="arch_2x86__32-linux_2odp_2api_2abi_2rwlock_8h_source.html" target="_top" xlink:title="rwlock.h">
<polygon fill="white" stroke="black" points="959.5,-336.5 959.5,-355.5 1014.5,-355.5 1014.5,-336.5 959.5,-336.5"/>
<text text-anchor="middle" x="987" y="-343.5" font-family="Helvetica,sans-Serif" font-size="10.00">rwlock.h</text>
</a>
</g>
</g>
<!-- Node30&#45;&gt;Node36 -->
<g id="edge26" class="edge"><title>Node30&#45;&gt;Node36</title>
<path fill="none" stroke="midnightblue" d="M841.637,-389.894C876.604,-379.576 927.865,-364.45 959.245,-355.19"/>
<polygon fill="midnightblue" stroke="midnightblue" points="840.394,-386.611 831.794,-392.799 842.375,-393.325 840.394,-386.611"/>
</g>
<!-- Node37 -->
<g id="node28" class="node"><title>Node37</title>
<g id="a_node28"><a xlink:href="arch_2x86__64-linux_2odp_2api_2abi_2rwlock_8h_source.html" target="_top" xlink:title="rwlock.h">
<polygon fill="white" stroke="black" points="1032.5,-336.5 1032.5,-355.5 1087.5,-355.5 1087.5,-336.5 1032.5,-336.5"/>
<text text-anchor="middle" x="1060" y="-343.5" font-family="Helvetica,sans-Serif" font-size="10.00">rwlock.h</text>
</a>
</g>
</g>
<!-- Node30&#45;&gt;Node37 -->
<g id="edge27" class="edge"><title>Node30&#45;&gt;Node37</title>
<path fill="none" stroke="midnightblue" d="M841.452,-393.851C885.319,-385.36 960.121,-370.511 1024,-356 1026.64,-355.401 1029.38,-354.756 1032.12,-354.096"/>
<polygon fill="midnightblue" stroke="midnightblue" points="840.676,-390.436 831.52,-395.767 842.002,-397.309 840.676,-390.436"/>
</g>
<!-- Node38 -->
<g id="node29" class="node"><title>Node38</title>
<g id="a_node29"><a xlink:href="api_2rwlock_8h.html" target="_top" xlink:title="ODP RW Locks. ">
<polygon fill="white" stroke="black" points="1027.5,-280.5 1027.5,-299.5 1082.5,-299.5 1082.5,-280.5 1027.5,-280.5"/>
<text text-anchor="middle" x="1055" y="-287.5" font-family="Helvetica,sans-Serif" font-size="10.00">rwlock.h</text>
</a>
</g>
</g>
<!-- Node37&#45;&gt;Node38 -->
<g id="edge28" class="edge"><title>Node37&#45;&gt;Node38</title>
<path fill="none" stroke="midnightblue" d="M1058.25,-326.101C1057.42,-317.136 1056.47,-306.858 1055.81,-299.751"/>
<polygon fill="midnightblue" stroke="midnightblue" points="1054.77,-326.448 1059.17,-336.083 1061.74,-325.803 1054.77,-326.448"/>
</g>
<!-- Node38&#45;&gt;Node28 -->
<g id="edge39" class="edge"><title>Node38&#45;&gt;Node28</title>
<path fill="none" stroke="midnightblue" d="M1017.32,-285.401C923.103,-275.609 681.076,-245.301 628,-188 598.377,-156.019 604.013,-97.6664 607.435,-75.6856"/>
<polygon fill="midnightblue" stroke="midnightblue" points="1016.97,-288.884 1027.27,-286.416 1017.68,-281.92 1016.97,-288.884"/>
</g>
<!-- Node39 -->
<g id="node30" class="node"><title>Node39</title>
<g id="a_node30"><a xlink:href="api_2abi-default_2rwlock__recursive_8h.html" target="_top" xlink:title="ODP recursive read/write lock. ">
<polygon fill="white" stroke="black" points="1003,-224.5 1003,-243.5 1107,-243.5 1107,-224.5 1003,-224.5"/>
<text text-anchor="middle" x="1055" y="-231.5" font-family="Helvetica,sans-Serif" font-size="10.00">rwlock_recursive.h</text>
</a>
</g>
</g>
<!-- Node38&#45;&gt;Node39 -->
<g id="edge29" class="edge"><title>Node38&#45;&gt;Node39</title>
<path fill="none" stroke="midnightblue" d="M1055,-269.805C1055,-260.91 1055,-250.78 1055,-243.751"/>
<polygon fill="midnightblue" stroke="midnightblue" points="1051.5,-270.083 1055,-280.083 1058.5,-270.083 1051.5,-270.083"/>
</g>
<!-- Node40 -->
<g id="node31" class="node"><title>Node40</title>
<g id="a_node31"><a xlink:href="arch_2arm32-linux_2odp_2api_2abi_2rwlock__recursive_8h_source.html" target="_top" xlink:title="rwlock_recursive.h">
<polygon fill="white" stroke="black" points="637,-168.5 637,-187.5 741,-187.5 741,-168.5 637,-168.5"/>
<text text-anchor="middle" x="689" y="-175.5" font-family="Helvetica,sans-Serif" font-size="10.00">rwlock_recursive.h</text>
</a>
</g>
</g>
<!-- Node39&#45;&gt;Node40 -->
<g id="edge30" class="edge"><title>Node39&#45;&gt;Node40</title>
<path fill="none" stroke="midnightblue" d="M992.828,-223.827C922.006,-213.378 807.53,-196.488 741.167,-186.697"/>
<polygon fill="midnightblue" stroke="midnightblue" points="992.546,-227.323 1002.95,-225.32 993.568,-220.398 992.546,-227.323"/>
</g>
<!-- Node41 -->
<g id="node32" class="node"><title>Node41</title>
<g id="a_node32"><a xlink:href="arch_2arm64-linux_2odp_2api_2abi_2rwlock__recursive_8h_source.html" target="_top" xlink:title="rwlock_recursive.h">
<polygon fill="white" stroke="black" points="759,-168.5 759,-187.5 863,-187.5 863,-168.5 759,-168.5"/>
<text text-anchor="middle" x="811" y="-175.5" font-family="Helvetica,sans-Serif" font-size="10.00">rwlock_recursive.h</text>
</a>
</g>
</g>
<!-- Node39&#45;&gt;Node41 -->
<g id="edge31" class="edge"><title>Node39&#45;&gt;Node41</title>
<path fill="none" stroke="midnightblue" d="M1006.57,-222.281C960.459,-212.077 891.973,-196.92 849.482,-187.516"/>
<polygon fill="midnightblue" stroke="midnightblue" points="1005.82,-225.7 1016.34,-224.444 1007.33,-218.865 1005.82,-225.7"/>
</g>
<!-- Node42 -->
<g id="node33" class="node"><title>Node42</title>
<g id="a_node33"><a xlink:href="arch_2default-linux_2odp_2api_2abi_2rwlock__recursive_8h_source.html" target="_top" xlink:title="rwlock_recursive.h">
<polygon fill="white" stroke="black" points="881,-168.5 881,-187.5 985,-187.5 985,-168.5 881,-168.5"/>
<text text-anchor="middle" x="933" y="-175.5" font-family="Helvetica,sans-Serif" font-size="10.00">rwlock_recursive.h</text>
</a>
</g>
</g>
<!-- Node39&#45;&gt;Node42 -->
<g id="edge32" class="edge"><title>Node39&#45;&gt;Node42</title>
<path fill="none" stroke="midnightblue" d="M1026.46,-220.368C1003.61,-210.255 972.195,-196.349 952.241,-187.516"/>
<polygon fill="midnightblue" stroke="midnightblue" points="1025.11,-223.597 1035.67,-224.444 1027.94,-217.196 1025.11,-223.597"/>
</g>
<!-- Node43 -->
<g id="node34" class="node"><title>Node43</title>
<g id="a_node34"><a xlink:href="arch_2mips64-linux_2odp_2api_2abi_2rwlock__recursive_8h_source.html" target="_top" xlink:title="rwlock_recursive.h">
<polygon fill="white" stroke="black" points="1003,-168.5 1003,-187.5 1107,-187.5 1107,-168.5 1003,-168.5"/>
<text text-anchor="middle" x="1055" y="-175.5" font-family="Helvetica,sans-Serif" font-size="10.00">rwlock_recursive.h</text>
</a>
</g>
</g>
<!-- Node39&#45;&gt;Node43 -->
<g id="edge33" class="edge"><title>Node39&#45;&gt;Node43</title>
<path fill="none" stroke="midnightblue" d="M1055,-213.805C1055,-204.91 1055,-194.78 1055,-187.751"/>
<polygon fill="midnightblue" stroke="midnightblue" points="1051.5,-214.083 1055,-224.083 1058.5,-214.083 1051.5,-214.083"/>
</g>
<!-- Node44 -->
<g id="node35" class="node"><title>Node44</title>
<g id="a_node35"><a xlink:href="arch_2power64-linux_2odp_2api_2abi_2rwlock__recursive_8h_source.html" target="_top" xlink:title="rwlock_recursive.h">
<polygon fill="white" stroke="black" points="1125,-168.5 1125,-187.5 1229,-187.5 1229,-168.5 1125,-168.5"/>
<text text-anchor="middle" x="1177" y="-175.5" font-family="Helvetica,sans-Serif" font-size="10.00">rwlock_recursive.h</text>
</a>
</g>
</g>
<!-- Node39&#45;&gt;Node44 -->
<g id="edge34" class="edge"><title>Node39&#45;&gt;Node44</title>
<path fill="none" stroke="midnightblue" d="M1083.54,-220.368C1106.39,-210.255 1137.81,-196.349 1157.76,-187.516"/>
<polygon fill="midnightblue" stroke="midnightblue" points="1082.06,-217.196 1074.33,-224.444 1084.89,-223.597 1082.06,-217.196"/>
</g>
<!-- Node45 -->
<g id="node36" class="node"><title>Node45</title>
<g id="a_node36"><a xlink:href="arch_2x86__32-linux_2odp_2api_2abi_2rwlock__recursive_8h_source.html" target="_top" xlink:title="rwlock_recursive.h">
<polygon fill="white" stroke="black" points="1247,-168.5 1247,-187.5 1351,-187.5 1351,-168.5 1247,-168.5"/>
<text text-anchor="middle" x="1299" y="-175.5" font-family="Helvetica,sans-Serif" font-size="10.00">rwlock_recursive.h</text>
</a>
</g>
</g>
<!-- Node39&#45;&gt;Node45 -->
<g id="edge35" class="edge"><title>Node39&#45;&gt;Node45</title>
<path fill="none" stroke="midnightblue" d="M1103.43,-222.281C1149.54,-212.077 1218.03,-196.92 1260.52,-187.516"/>
<polygon fill="midnightblue" stroke="midnightblue" points="1102.67,-218.865 1093.66,-224.444 1104.18,-225.7 1102.67,-218.865"/>
</g>
<!-- Node46 -->
<g id="node37" class="node"><title>Node46</title>
<g id="a_node37"><a xlink:href="arch_2x86__64-linux_2odp_2api_2abi_2rwlock__recursive_8h_source.html" target="_top" xlink:title="rwlock_recursive.h">
<polygon fill="white" stroke="black" points="1369,-168.5 1369,-187.5 1473,-187.5 1473,-168.5 1369,-168.5"/>
<text text-anchor="middle" x="1421" y="-175.5" font-family="Helvetica,sans-Serif" font-size="10.00">rwlock_recursive.h</text>
</a>
</g>
</g>
<!-- Node39&#45;&gt;Node46 -->
<g id="edge36" class="edge"><title>Node39&#45;&gt;Node46</title>
<path fill="none" stroke="midnightblue" d="M1117.17,-223.827C1187.99,-213.378 1302.47,-196.488 1368.83,-186.697"/>
<polygon fill="midnightblue" stroke="midnightblue" points="1116.43,-220.398 1107.05,-225.32 1117.45,-227.323 1116.43,-220.398"/>
</g>
<!-- Node47 -->
<g id="node38" class="node"><title>Node47</title>
<g id="a_node38"><a xlink:href="api_2rwlock__recursive_8h.html" target="_top" xlink:title="ODP resursive read/write lock. ">
<polygon fill="white" stroke="black" points="1003,-112.5 1003,-131.5 1107,-131.5 1107,-112.5 1003,-112.5"/>
<text text-anchor="middle" x="1055" y="-119.5" font-family="Helvetica,sans-Serif" font-size="10.00">rwlock_recursive.h</text>
</a>
</g>
</g>
<!-- Node46&#45;&gt;Node47 -->
<g id="edge37" class="edge"><title>Node46&#45;&gt;Node47</title>
<path fill="none" stroke="midnightblue" d="M1358.83,-167.827C1288.01,-157.378 1173.53,-140.488 1107.17,-130.697"/>
<polygon fill="midnightblue" stroke="midnightblue" points="1358.55,-171.323 1368.95,-169.32 1359.57,-164.398 1358.55,-171.323"/>
</g>
<!-- Node47&#45;&gt;Node28 -->
<g id="edge38" class="edge"><title>Node47&#45;&gt;Node28</title>
<path fill="none" stroke="midnightblue" d="M992.765,-113.465C896.243,-101.778 713.941,-79.7059 640.67,-70.8345"/>
<polygon fill="midnightblue" stroke="midnightblue" points="992.617,-116.972 1002.97,-114.7 993.458,-110.023 992.617,-116.972"/>
</g>
<!-- Node49 -->
<g id="node40" class="node"><title>Node49</title>
<g id="a_node40"><a xlink:href="arch_2arm32-linux_2odp_2api_2abi_2ticketlock_8h_source.html" target="_top" xlink:title="ticketlock.h">
<polygon fill="white" stroke="black" points="1105.5,-336.5 1105.5,-355.5 1176.5,-355.5 1176.5,-336.5 1105.5,-336.5"/>
<text text-anchor="middle" x="1141" y="-343.5" font-family="Helvetica,sans-Serif" font-size="10.00">ticketlock.h</text>
</a>
</g>
</g>
<!-- Node48&#45;&gt;Node49 -->
<g id="edge41" class="edge"><title>Node48&#45;&gt;Node49</title>
<path fill="none" stroke="midnightblue" d="M1317.88,-390.024C1275.94,-379.823 1214.35,-364.841 1176.01,-355.516"/>
<polygon fill="midnightblue" stroke="midnightblue" points="1317.28,-393.481 1327.82,-392.444 1318.93,-386.679 1317.28,-393.481"/>
</g>
<!-- Node50 -->
<g id="node41" class="node"><title>Node50</title>
<g id="a_node41"><a xlink:href="arch_2arm64-linux_2odp_2api_2abi_2ticketlock_8h_source.html" target="_top" xlink:title="ticketlock.h">
<polygon fill="white" stroke="black" points="1194.5,-336.5 1194.5,-355.5 1265.5,-355.5 1265.5,-336.5 1194.5,-336.5"/>
<text text-anchor="middle" x="1230" y="-343.5" font-family="Helvetica,sans-Serif" font-size="10.00">ticketlock.h</text>
</a>
</g>
</g>
<!-- Node48&#45;&gt;Node50 -->
<g id="edge42" class="edge"><title>Node48&#45;&gt;Node50</title>
<path fill="none" stroke="midnightblue" d="M1332.55,-388.638C1307.59,-378.504 1272.92,-364.427 1250.98,-355.516"/>
<polygon fill="midnightblue" stroke="midnightblue" points="1331.34,-391.924 1341.93,-392.444 1333.98,-385.439 1331.34,-391.924"/>
</g>
<!-- Node51 -->
<g id="node42" class="node"><title>Node51</title>
<g id="a_node42"><a xlink:href="arch_2default-linux_2odp_2api_2abi_2ticketlock_8h_source.html" target="_top" xlink:title="ticketlock.h">
<polygon fill="white" stroke="black" points="1283.5,-336.5 1283.5,-355.5 1354.5,-355.5 1354.5,-336.5 1283.5,-336.5"/>
<text text-anchor="middle" x="1319" y="-343.5" font-family="Helvetica,sans-Serif" font-size="10.00">ticketlock.h</text>
</a>
</g>
</g>
<!-- Node48&#45;&gt;Node51 -->
<g id="edge43" class="edge"><title>Node48&#45;&gt;Node51</title>
<path fill="none" stroke="midnightblue" d="M1349.27,-384.144C1341.6,-374.736 1332.37,-363.405 1326.13,-355.751"/>
<polygon fill="midnightblue" stroke="midnightblue" points="1346.7,-386.541 1355.73,-392.083 1352.13,-382.12 1346.7,-386.541"/>
</g>
<!-- Node52 -->
<g id="node43" class="node"><title>Node52</title>
<g id="a_node43"><a xlink:href="arch_2mips64-linux_2odp_2api_2abi_2ticketlock_8h_source.html" target="_top" xlink:title="ticketlock.h">
<polygon fill="white" stroke="black" points="1372.5,-336.5 1372.5,-355.5 1443.5,-355.5 1443.5,-336.5 1372.5,-336.5"/>
<text text-anchor="middle" x="1408" y="-343.5" font-family="Helvetica,sans-Serif" font-size="10.00">ticketlock.h</text>
</a>
</g>
</g>
<!-- Node48&#45;&gt;Node52 -->
<g id="edge44" class="edge"><title>Node48&#45;&gt;Node52</title>
<path fill="none" stroke="midnightblue" d="M1377.05,-384.144C1384.89,-374.736 1394.33,-363.405 1400.71,-355.751"/>
<polygon fill="midnightblue" stroke="midnightblue" points="1374.14,-382.16 1370.43,-392.083 1379.52,-386.641 1374.14,-382.16"/>
</g>
<!-- Node53 -->
<g id="node44" class="node"><title>Node53</title>
<g id="a_node44"><a xlink:href="arch_2power64-linux_2odp_2api_2abi_2ticketlock_8h_source.html" target="_top" xlink:title="ticketlock.h">
<polygon fill="white" stroke="black" points="1461.5,-336.5 1461.5,-355.5 1532.5,-355.5 1532.5,-336.5 1461.5,-336.5"/>
<text text-anchor="middle" x="1497" y="-343.5" font-family="Helvetica,sans-Serif" font-size="10.00">ticketlock.h</text>
</a>
</g>
</g>
<!-- Node48&#45;&gt;Node53 -->
<g id="edge45" class="edge"><title>Node48&#45;&gt;Node53</title>
<path fill="none" stroke="midnightblue" d="M1393.68,-388.638C1418.82,-378.504 1453.75,-364.427 1475.87,-355.516"/>
<polygon fill="midnightblue" stroke="midnightblue" points="1392.2,-385.459 1384.23,-392.444 1394.82,-391.952 1392.2,-385.459"/>
</g>
<!-- Node54 -->
<g id="node45" class="node"><title>Node54</title>
<g id="a_node45"><a xlink:href="arch_2x86__32-linux_2odp_2api_2abi_2ticketlock_8h_source.html" target="_top" xlink:title="ticketlock.h">
<polygon fill="white" stroke="black" points="1550.5,-336.5 1550.5,-355.5 1621.5,-355.5 1621.5,-336.5 1550.5,-336.5"/>
<text text-anchor="middle" x="1586" y="-343.5" font-family="Helvetica,sans-Serif" font-size="10.00">ticketlock.h</text>
</a>
</g>
</g>
<!-- Node48&#45;&gt;Node54 -->
<g id="edge46" class="edge"><title>Node48&#45;&gt;Node54</title>
<path fill="none" stroke="midnightblue" d="M1408.06,-390.088C1450.19,-379.887 1512.24,-364.861 1550.83,-355.516"/>
<polygon fill="midnightblue" stroke="midnightblue" points="1407.23,-386.688 1398.34,-392.444 1408.88,-393.492 1407.23,-386.688"/>
</g>
<!-- Node55 -->
<g id="node46" class="node"><title>Node55</title>
<g id="a_node46"><a xlink:href="arch_2x86__64-linux_2odp_2api_2abi_2ticketlock_8h_source.html" target="_top" xlink:title="ticketlock.h">
<polygon fill="white" stroke="black" points="1580.5,-280.5 1580.5,-299.5 1651.5,-299.5 1651.5,-280.5 1580.5,-280.5"/>
<text text-anchor="middle" x="1616" y="-287.5" font-family="Helvetica,sans-Serif" font-size="10.00">ticketlock.h</text>
</a>
</g>
</g>
<!-- Node48&#45;&gt;Node55 -->
<g id="edge47" class="edge"><title>Node48&#45;&gt;Node55</title>
<path fill="none" stroke="midnightblue" d="M1408.76,-400.162C1477.69,-397.823 1603.07,-389.017 1631,-356 1644.76,-339.732 1630.99,-313.27 1622.16,-299.672"/>
<polygon fill="midnightblue" stroke="midnightblue" points="1408.5,-396.668 1398.62,-400.473 1408.72,-403.665 1408.5,-396.668"/>
</g>
<!-- Node56 -->
<g id="node47" class="node"><title>Node56</title>
<g id="a_node47"><a xlink:href="api_2ticketlock_8h.html" target="_top" xlink:title="ODP ticketlock. ">
<polygon fill="white" stroke="black" points="1503.5,-224.5 1503.5,-243.5 1574.5,-243.5 1574.5,-224.5 1503.5,-224.5"/>
<text text-anchor="middle" x="1539" y="-231.5" font-family="Helvetica,sans-Serif" font-size="10.00">ticketlock.h</text>
</a>
</g>
</g>
<!-- Node55&#45;&gt;Node56 -->
<g id="edge48" class="edge"><title>Node55&#45;&gt;Node56</title>
<path fill="none" stroke="midnightblue" d="M1595.1,-274.342C1581.09,-264.517 1563.12,-251.913 1551.34,-243.655"/>
<polygon fill="midnightblue" stroke="midnightblue" points="1593.43,-277.448 1603.63,-280.324 1597.45,-271.717 1593.43,-277.448"/>
</g>
<!-- Node56&#45;&gt;Node28 -->
<g id="edge49" class="edge"><title>Node56&#45;&gt;Node28</title>
<path fill="none" stroke="midnightblue" d="M1528.72,-215.566C1518.79,-200.383 1502.27,-179.111 1482,-168 1332.65,-86.1468 779.865,-70.2459 640.874,-67.5171"/>
<polygon fill="midnightblue" stroke="midnightblue" points="1525.78,-217.453 1534.04,-224.088 1531.72,-213.75 1525.78,-217.453"/>
</g>
</g>
</svg>
