<?xml version="1.0" encoding="UTF-8" standalone="no"?>
<!DOCTYPE svg PUBLIC "-//W3C//DTD SVG 1.1//EN"
 "http://www.w3.org/Graphics/SVG/1.1/DTD/svg11.dtd">
<!-- Generated by graphviz version 2.38.0 (20140413.2041)
 -->
<!-- Title: thrmask.h Pages: 1 -->
<svg width="436pt" height="252pt"
 viewBox="0.00 0.00 436.00 252.00" xmlns="http://www.w3.org/2000/svg" xmlns:xlink="http://www.w3.org/1999/xlink">
<g id="graph0" class="graph" transform="scale(1 1) rotate(0) translate(4 248)">
<title>thrmask.h</title>
<polygon fill="white" stroke="none" points="-4,4 -4,-248 432,-248 432,4 -4,4"/>
<!-- Node0 -->
<g id="node1" class="node"><title>Node0</title>
<polygon fill="#bfbfbf" stroke="black" points="99,-224.5 99,-243.5 164,-243.5 164,-224.5 99,-224.5"/>
<text text-anchor="middle" x="131.5" y="-231.5" font-family="Helvetica,sans-Serif" font-size="10.00">thrmask.h</text>
</g>
<!-- Node1 -->
<g id="node2" class="node"><title>Node1</title>
<polygon fill="white" stroke="#bfbfbf" points="0,-168.5 0,-187.5 121,-187.5 121,-168.5 0,-168.5"/>
<text text-anchor="middle" x="60.5" y="-175.5" font-family="Helvetica,sans-Serif" font-size="10.00">odp/api/abi/thrmask.h</text>
</g>
<!-- Node0&#45;&gt;Node1 -->
<g id="edge1" class="edge"><title>Node0&#45;&gt;Node1</title>
<path fill="none" stroke="midnightblue" d="M120.093,-224.324C109.391,-216.185 93.1593,-203.839 80.3372,-194.087"/>
<polygon fill="midnightblue" stroke="midnightblue" points="82.1932,-191.102 72.1149,-187.834 77.9556,-196.673 82.1932,-191.102"/>
</g>
<!-- Node2 -->
<g id="node3" class="node"><title>Node2</title>
<g id="a_node3"><a xlink:href="api_2spec_2thrmask_8h.html" target="_top" xlink:title="ODP thread masks. ">
<polygon fill="white" stroke="black" points="139,-168.5 139,-187.5 268,-187.5 268,-168.5 139,-168.5"/>
<text text-anchor="middle" x="203.5" y="-175.5" font-family="Helvetica,sans-Serif" font-size="10.00">odp/api/spec/thrmask.h</text>
</a>
</g>
</g>
<!-- Node0&#45;&gt;Node2 -->
<g id="edge2" class="edge"><title>Node0&#45;&gt;Node2</title>
<path fill="none" stroke="midnightblue" d="M143.068,-224.324C153.92,-216.185 170.381,-203.839 183.383,-194.087"/>
<polygon fill="midnightblue" stroke="midnightblue" points="185.821,-196.634 191.721,-187.834 181.621,-191.034 185.821,-196.634"/>
</g>
<!-- Node3 -->
<g id="node4" class="node"><title>Node3</title>
<g id="a_node4"><a xlink:href="visibility__begin_8h_source.html" target="_top" xlink:title="odp/visibility_begin.h">
<polygon fill="white" stroke="black" points="48,-0.5 48,-19.5 163,-19.5 163,-0.5 48,-0.5"/>
<text text-anchor="middle" x="105.5" y="-7.5" font-family="Helvetica,sans-Serif" font-size="10.00">odp/visibility_begin.h</text>
</a>
</g>
</g>
<!-- Node2&#45;&gt;Node3 -->
<g id="edge3" class="edge"><title>Node2&#45;&gt;Node3</title>
<path fill="none" stroke="midnightblue" d="M178.445,-168.447C143.504,-154.998 81.5078,-125.235 55.5,-76 45.4422,-56.9595 64.7225,-37.7286 82.1847,-25.1787"/>
<polygon fill="midnightblue" stroke="midnightblue" points="84.1431,-28.0795 90.4745,-19.5846 80.2275,-22.2771 84.1431,-28.0795"/>
</g>
<!-- Node4 -->
<g id="node5" class="node"><title>Node4</title>
<g id="a_node5"><a xlink:href="api_2std__types_8h.html" target="_top" xlink:title="Standard C language types and definitions for ODP. ">
<polygon fill="white" stroke="black" points="148.5,-112.5 148.5,-131.5 258.5,-131.5 258.5,-112.5 148.5,-112.5"/>
<text text-anchor="middle" x="203.5" y="-119.5" font-family="Helvetica,sans-Serif" font-size="10.00">odp/api/std_types.h</text>
</a>
</g>
</g>
<!-- Node2&#45;&gt;Node4 -->
<g id="edge4" class="edge"><title>Node2&#45;&gt;Node4</title>
<path fill="none" stroke="midnightblue" d="M203.5,-168.083C203.5,-161.006 203.5,-150.861 203.5,-141.986"/>
<polygon fill="midnightblue" stroke="midnightblue" points="207,-141.751 203.5,-131.751 200,-141.751 207,-141.751"/>
</g>
<!-- Node8 -->
<g id="node9" class="node"><title>Node8</title>
<g id="a_node9"><a xlink:href="visibility__end_8h_source.html" target="_top" xlink:title="odp/visibility_end.h">
<polygon fill="white" stroke="black" points="321,-0.5 321,-19.5 428,-19.5 428,-0.5 321,-0.5"/>
<text text-anchor="middle" x="374.5" y="-7.5" font-family="Helvetica,sans-Serif" font-size="10.00">odp/visibility_end.h</text>
</a>
</g>
</g>
<!-- Node2&#45;&gt;Node8 -->
<g id="edge10" class="edge"><title>Node2&#45;&gt;Node8</title>
<path fill="none" stroke="midnightblue" d="M225.148,-168.438C258.23,-154.245 321.138,-122.701 355.5,-76 365.407,-62.5352 370.171,-43.9757 372.448,-30.1347"/>
<polygon fill="midnightblue" stroke="midnightblue" points="375.969,-30.2109 373.834,-19.8334 369.031,-29.2772 375.969,-30.2109"/>
</g>
<!-- Node5 -->
<g id="node6" class="node"><title>Node5</title>
<polygon fill="white" stroke="#bfbfbf" points="64.5,-56.5 64.5,-75.5 192.5,-75.5 192.5,-56.5 64.5,-56.5"/>
<text text-anchor="middle" x="128.5" y="-63.5" font-family="Helvetica,sans-Serif" font-size="10.00">odp/api/abi/std_types.h</text>
</g>
<!-- Node4&#45;&gt;Node5 -->
<g id="edge5" class="edge"><title>Node4&#45;&gt;Node5</title>
<path fill="none" stroke="midnightblue" d="M191.45,-112.324C180.037,-104.107 162.669,-91.6017 149.065,-81.8069"/>
<polygon fill="midnightblue" stroke="midnightblue" points="150.93,-78.8366 140.769,-75.8339 146.84,-84.5174 150.93,-78.8366"/>
</g>
<!-- Node6 -->
<g id="node7" class="node"><title>Node6</title>
<g id="a_node7"><a xlink:href="api_2spec_2std__types_8h.html" target="_top" xlink:title="Standard C language types and definitions for ODP. ">
<polygon fill="white" stroke="black" points="210.5,-56.5 210.5,-75.5 346.5,-75.5 346.5,-56.5 210.5,-56.5"/>
<text text-anchor="middle" x="278.5" y="-63.5" font-family="Helvetica,sans-Serif" font-size="10.00">odp/api/spec/std_types.h</text>
</a>
</g>
</g>
<!-- Node4&#45;&gt;Node6 -->
<g id="edge6" class="edge"><title>Node4&#45;&gt;Node6</title>
<path fill="none" stroke="midnightblue" d="M215.55,-112.324C226.963,-104.107 244.331,-91.6017 257.935,-81.8069"/>
<polygon fill="midnightblue" stroke="midnightblue" points="260.16,-84.5174 266.231,-75.8339 256.07,-78.8366 260.16,-84.5174"/>
</g>
<!-- Node6&#45;&gt;Node3 -->
<g id="edge7" class="edge"><title>Node6&#45;&gt;Node3</title>
<path fill="none" stroke="midnightblue" d="M251.088,-56.4435C221.731,-47.2801 174.981,-32.6876 142.404,-22.5192"/>
<polygon fill="midnightblue" stroke="midnightblue" points="143.373,-19.1551 132.784,-19.5164 141.287,-25.8371 143.373,-19.1551"/>
</g>
<!-- Node7 -->
<g id="node8" class="node"><title>Node7</title>
<polygon fill="white" stroke="#bfbfbf" points="250,-0.5 250,-19.5 303,-19.5 303,-0.5 250,-0.5"/>
<text text-anchor="middle" x="276.5" y="-7.5" font-family="Helvetica,sans-Serif" font-size="10.00">stdint.h</text>
</g>
<!-- Node6&#45;&gt;Node7 -->
<g id="edge8" class="edge"><title>Node6&#45;&gt;Node7</title>
<path fill="none" stroke="midnightblue" d="M278.17,-56.083C277.908,-49.0059 277.532,-38.8611 277.203,-29.9865"/>
<polygon fill="midnightblue" stroke="midnightblue" points="280.692,-29.6147 276.824,-19.7511 273.697,-29.8738 280.692,-29.6147"/>
</g>
<!-- Node6&#45;&gt;Node8 -->
<g id="edge9" class="edge"><title>Node6&#45;&gt;Node8</title>
<path fill="none" stroke="midnightblue" d="M293.924,-56.324C309.04,-47.8215 332.315,-34.7288 349.971,-24.7975"/>
<polygon fill="midnightblue" stroke="midnightblue" points="352.114,-27.6077 359.114,-19.6545 348.683,-21.5066 352.114,-27.6077"/>
</g>
</g>
</svg>
