<?xml version="1.0" encoding="UTF-8" standalone="no"?>
<!DOCTYPE svg PUBLIC "-//W3C//DTD SVG 1.1//EN"
 "http://www.w3.org/Graphics/SVG/1.1/DTD/svg11.dtd">
<!-- Generated by graphviz version 2.38.0 (20140413.2041)
 -->
<!-- Title: init.h Pages: 1 -->
<svg width="1253pt" height="319pt"
 viewBox="0.00 0.00 1252.64 319.00" xmlns="http://www.w3.org/2000/svg" xmlns:xlink="http://www.w3.org/1999/xlink">
<g id="graph0" class="graph" transform="scale(1 1) rotate(0) translate(4 315)">
<title>init.h</title>
<polygon fill="white" stroke="none" points="-4,4 -4,-315 1248.64,-315 1248.64,4 -4,4"/>
<!-- Node0 -->
<g id="node1" class="node"><title>Node0</title>
<polygon fill="#bfbfbf" stroke="black" points="430.766,-291.5 430.766,-310.5 470.766,-310.5 470.766,-291.5 430.766,-291.5"/>
<text text-anchor="middle" x="450.766" y="-298.5" font-family="Helvetica,sans-Serif" font-size="10.00">init.h</text>
</g>
<!-- Node1 -->
<g id="node2" class="node"><title>Node1</title>
<g id="a_node2"><a xlink:href="visibility__begin_8h_source.html" target="_top" xlink:title="odp/visibility_begin.h">
<polygon fill="white" stroke="black" points="324.266,-0.5 324.266,-19.5 439.266,-19.5 439.266,-0.5 324.266,-0.5"/>
<text text-anchor="middle" x="381.766" y="-7.5" font-family="Helvetica,sans-Serif" font-size="10.00">odp/visibility_begin.h</text>
</a>
</g>
</g>
<!-- Node0&#45;&gt;Node1 -->
<g id="edge1" class="edge"><title>Node0&#45;&gt;Node1</title>
<path fill="none" stroke="midnightblue" d="M430.601,-299.458C343.233,-296.577 1.76567,-279.586 1.76567,-190 1.76567,-190 1.76567,-190 1.76567,-132 1.76567,-97.1827 -5.29702,-79.0864 20.7657,-56 62.9174,-18.6618 221.496,-11.5062 313.857,-10.6017"/>
<polygon fill="midnightblue" stroke="midnightblue" points="313.983,-14.1009 323.956,-10.5251 313.93,-7.10114 313.983,-14.1009"/>
</g>
<!-- Node2 -->
<g id="node3" class="node"><title>Node2</title>
<g id="a_node3"><a xlink:href="api_2std__types_8h.html" target="_top" xlink:title="Standard C language types and definitions for ODP. ">
<polygon fill="white" stroke="black" points="193.766,-123.5 193.766,-142.5 303.766,-142.5 303.766,-123.5 193.766,-123.5"/>
<text text-anchor="middle" x="248.766" y="-130.5" font-family="Helvetica,sans-Serif" font-size="10.00">odp/api/std_types.h</text>
</a>
</g>
</g>
<!-- Node0&#45;&gt;Node2 -->
<g id="edge2" class="edge"><title>Node0&#45;&gt;Node2</title>
<path fill="none" stroke="midnightblue" d="M430.74,-300.679C395.569,-300.731 322.573,-295.562 281.766,-255 254.189,-227.588 249.027,-179.542 248.428,-152.987"/>
<polygon fill="midnightblue" stroke="midnightblue" points="251.927,-152.738 248.404,-142.747 244.927,-152.755 251.927,-152.738"/>
</g>
<!-- Node6 -->
<g id="node7" class="node"><title>Node6</title>
<g id="a_node7"><a xlink:href="visibility__end_8h_source.html" target="_top" xlink:title="odp/visibility_end.h">
<polygon fill="white" stroke="black" points="656.266,-0.5 656.266,-19.5 763.266,-19.5 763.266,-0.5 656.266,-0.5"/>
<text text-anchor="middle" x="709.766" y="-7.5" font-family="Helvetica,sans-Serif" font-size="10.00">odp/visibility_end.h</text>
</a>
</g>
</g>
<!-- Node0&#45;&gt;Node6 -->
<g id="edge28" class="edge"><title>Node0&#45;&gt;Node6</title>
<path fill="none" stroke="midnightblue" d="M471.139,-299.378C595.105,-295.331 1242.77,-270.342 1242.77,-190 1242.77,-190 1242.77,-190 1242.77,-132 1242.77,-97.1827 1250.25,-78.6045 1223.77,-56 1190.22,-27.37 904.16,-16.1592 773.903,-12.5095"/>
<polygon fill="midnightblue" stroke="midnightblue" points="773.764,-9.00443 763.672,-12.2294 773.572,-16.0018 773.764,-9.00443"/>
</g>
<!-- Node7 -->
<g id="node8" class="node"><title>Node7</title>
<g id="a_node8"><a xlink:href="hints_8h.html" target="_top" xlink:title="ODP compiler hints. ">
<polygon fill="white" stroke="black" points="407.266,-235.5 407.266,-254.5 494.266,-254.5 494.266,-235.5 407.266,-235.5"/>
<text text-anchor="middle" x="450.766" y="-242.5" font-family="Helvetica,sans-Serif" font-size="10.00">odp/api/hints.h</text>
</a>
</g>
</g>
<!-- Node0&#45;&gt;Node7 -->
<g id="edge8" class="edge"><title>Node0&#45;&gt;Node7</title>
<path fill="none" stroke="midnightblue" d="M450.766,-291.083C450.766,-284.006 450.766,-273.861 450.766,-264.986"/>
<polygon fill="midnightblue" stroke="midnightblue" points="454.266,-264.751 450.766,-254.751 447.266,-264.751 454.266,-264.751"/>
</g>
<!-- Node9 -->
<g id="node10" class="node"><title>Node9</title>
<g id="a_node10"><a xlink:href="feature_8h.html" target="_top" xlink:title="ODP features. ">
<polygon fill="white" stroke="black" points="290.766,-235.5 290.766,-254.5 388.766,-254.5 388.766,-235.5 290.766,-235.5"/>
<text text-anchor="middle" x="339.766" y="-242.5" font-family="Helvetica,sans-Serif" font-size="10.00">odp/api/feature.h</text>
</a>
</g>
</g>
<!-- Node0&#45;&gt;Node9 -->
<g id="edge12" class="edge"><title>Node0&#45;&gt;Node9</title>
<path fill="none" stroke="midnightblue" d="M432.932,-291.324C415.05,-282.625 387.291,-269.12 366.72,-259.113"/>
<polygon fill="midnightblue" stroke="midnightblue" points="368.079,-255.882 357.555,-254.655 365.017,-262.177 368.079,-255.882"/>
</g>
<!-- Node11 -->
<g id="node12" class="node"><title>Node11</title>
<g id="a_node12"><a xlink:href="api_2thread_8h.html" target="_top" xlink:title="ODP thread API. ">
<polygon fill="white" stroke="black" points="975.266,-123.5 975.266,-142.5 1070.27,-142.5 1070.27,-123.5 975.266,-123.5"/>
<text text-anchor="middle" x="1022.77" y="-130.5" font-family="Helvetica,sans-Serif" font-size="10.00">odp/api/thread.h</text>
</a>
</g>
</g>
<!-- Node0&#45;&gt;Node11 -->
<g id="edge17" class="edge"><title>Node0&#45;&gt;Node11</title>
<path fill="none" stroke="midnightblue" d="M470.788,-294.189C553.719,-270.122 871.168,-177.995 983.274,-145.461"/>
<polygon fill="midnightblue" stroke="midnightblue" points="984.532,-148.74 993.16,-142.592 982.581,-142.018 984.532,-148.74"/>
</g>
<!-- Node15 -->
<g id="node16" class="node"><title>Node15</title>
<g id="a_node16"><a xlink:href="api_2cpumask_8h.html" target="_top" xlink:title="ODP CPU masks and enumeration. ">
<polygon fill="white" stroke="black" points="512.266,-123.5 512.266,-142.5 619.266,-142.5 619.266,-123.5 512.266,-123.5"/>
<text text-anchor="middle" x="565.766" y="-130.5" font-family="Helvetica,sans-Serif" font-size="10.00">odp/api/cpumask.h</text>
</a>
</g>
</g>
<!-- Node0&#45;&gt;Node15 -->
<g id="edge23" class="edge"><title>Node0&#45;&gt;Node15</title>
<path fill="none" stroke="midnightblue" d="M463.085,-291.454C474.435,-283.127 491.218,-269.613 502.766,-255 528.731,-222.14 548.885,-176.943 558.867,-152.131"/>
<polygon fill="midnightblue" stroke="midnightblue" points="562.227,-153.149 562.616,-142.561 555.709,-150.595 562.227,-153.149"/>
</g>
<!-- Node3 -->
<g id="node4" class="node"><title>Node3</title>
<polygon fill="white" stroke="#bfbfbf" points="183.766,-62 183.766,-81 311.766,-81 311.766,-62 183.766,-62"/>
<text text-anchor="middle" x="247.766" y="-69" font-family="Helvetica,sans-Serif" font-size="10.00">odp/api/abi/std_types.h</text>
</g>
<!-- Node2&#45;&gt;Node3 -->
<g id="edge3" class="edge"><title>Node2&#45;&gt;Node3</title>
<path fill="none" stroke="midnightblue" d="M248.622,-123.475C248.481,-115.08 248.261,-101.981 248.079,-91.1631"/>
<polygon fill="midnightblue" stroke="midnightblue" points="251.576,-90.9488 247.909,-81.0091 244.577,-91.0665 251.576,-90.9488"/>
</g>
<!-- Node4 -->
<g id="node5" class="node"><title>Node4</title>
<g id="a_node5"><a xlink:href="api_2spec_2std__types_8h.html" target="_top" xlink:title="Standard C language types and definitions for ODP. ">
<polygon fill="white" stroke="black" points="29.7657,-62 29.7657,-81 165.766,-81 165.766,-62 29.7657,-62"/>
<text text-anchor="middle" x="97.7657" y="-69" font-family="Helvetica,sans-Serif" font-size="10.00">odp/api/spec/std_types.h</text>
</a>
</g>
</g>
<!-- Node2&#45;&gt;Node4 -->
<g id="edge4" class="edge"><title>Node2&#45;&gt;Node4</title>
<path fill="none" stroke="midnightblue" d="M227.131,-123.475C201.341,-113.313 158.055,-96.2564 128.726,-84.6996"/>
<polygon fill="midnightblue" stroke="midnightblue" points="129.947,-81.4189 119.36,-81.0091 127.381,-87.9315 129.947,-81.4189"/>
</g>
<!-- Node4&#45;&gt;Node1 -->
<g id="edge5" class="edge"><title>Node4&#45;&gt;Node1</title>
<path fill="none" stroke="midnightblue" d="M138.456,-61.9751C189.281,-51.3269 276.236,-33.1092 331.264,-21.5806"/>
<polygon fill="midnightblue" stroke="midnightblue" points="332.081,-24.9853 341.151,-19.5091 330.646,-18.1341 332.081,-24.9853"/>
</g>
<!-- Node5 -->
<g id="node6" class="node"><title>Node5</title>
<polygon fill="white" stroke="#bfbfbf" points="71.2657,-0.5 71.2657,-19.5 124.266,-19.5 124.266,-0.5 71.2657,-0.5"/>
<text text-anchor="middle" x="97.7657" y="-7.5" font-family="Helvetica,sans-Serif" font-size="10.00">stdint.h</text>
</g>
<!-- Node4&#45;&gt;Node5 -->
<g id="edge6" class="edge"><title>Node4&#45;&gt;Node5</title>
<path fill="none" stroke="midnightblue" d="M97.7657,-61.9751C97.7657,-53.5803 97.7657,-40.4806 97.7657,-29.6631"/>
<polygon fill="midnightblue" stroke="midnightblue" points="101.266,-29.5091 97.7657,-19.5091 94.2658,-29.5091 101.266,-29.5091"/>
</g>
<!-- Node4&#45;&gt;Node6 -->
<g id="edge7" class="edge"><title>Node4&#45;&gt;Node6</title>
<path fill="none" stroke="midnightblue" d="M138.799,-61.9686C150.389,-59.778 163.039,-57.5931 174.766,-56 344.203,-32.982 545.534,-19.8452 646.039,-14.248"/>
<polygon fill="midnightblue" stroke="midnightblue" points="646.24,-17.7423 656.032,-13.6979 645.855,-10.7529 646.24,-17.7423"/>
</g>
<!-- Node8 -->
<g id="node9" class="node"><title>Node8</title>
<g id="a_node9"><a xlink:href="spec_2hints_8h.html" target="_top" xlink:title="ODP compiler hints. ">
<polygon fill="white" stroke="black" points="368.266,-62 368.266,-81 481.266,-81 481.266,-62 368.266,-62"/>
<text text-anchor="middle" x="424.766" y="-69" font-family="Helvetica,sans-Serif" font-size="10.00">odp/api/spec/hints.h</text>
</a>
</g>
</g>
<!-- Node7&#45;&gt;Node8 -->
<g id="edge9" class="edge"><title>Node7&#45;&gt;Node8</title>
<path fill="none" stroke="midnightblue" d="M449.441,-235.26C445.407,-208.651 433.212,-128.215 427.622,-91.3382"/>
<polygon fill="midnightblue" stroke="midnightblue" points="431.017,-90.3817 426.057,-81.0194 424.096,-91.431 431.017,-90.3817"/>
</g>
<!-- Node8&#45;&gt;Node1 -->
<g id="edge10" class="edge"><title>Node8&#45;&gt;Node1</title>
<path fill="none" stroke="midnightblue" d="M418.605,-61.9751C412.155,-53.0501 401.862,-38.8071 393.793,-27.6425"/>
<polygon fill="midnightblue" stroke="midnightblue" points="396.609,-25.564 387.915,-19.5091 390.936,-29.6642 396.609,-25.564"/>
</g>
<!-- Node8&#45;&gt;Node6 -->
<g id="edge11" class="edge"><title>Node8&#45;&gt;Node6</title>
<path fill="none" stroke="midnightblue" d="M462.549,-61.9527C471.467,-59.9681 480.947,-57.8855 489.766,-56 546.709,-43.8258 612.098,-30.5388 656.691,-21.582"/>
<polygon fill="midnightblue" stroke="midnightblue" points="657.604,-24.9688 666.72,-19.5703 656.227,-18.1055 657.604,-24.9688"/>
</g>
<!-- Node10 -->
<g id="node11" class="node"><title>Node10</title>
<g id="a_node11"><a xlink:href="spec_2feature_8h.html" target="_top" xlink:title="ODP features. ">
<polygon fill="white" stroke="black" points="277.766,-179.5 277.766,-198.5 401.766,-198.5 401.766,-179.5 277.766,-179.5"/>
<text text-anchor="middle" x="339.766" y="-186.5" font-family="Helvetica,sans-Serif" font-size="10.00">odp/api/spec/feature.h</text>
</a>
</g>
</g>
<!-- Node9&#45;&gt;Node10 -->
<g id="edge13" class="edge"><title>Node9&#45;&gt;Node10</title>
<path fill="none" stroke="midnightblue" d="M339.766,-235.083C339.766,-228.006 339.766,-217.861 339.766,-208.986"/>
<polygon fill="midnightblue" stroke="midnightblue" points="343.266,-208.751 339.766,-198.751 336.266,-208.751 343.266,-208.751"/>
</g>
<!-- Node10&#45;&gt;Node1 -->
<g id="edge14" class="edge"><title>Node10&#45;&gt;Node1</title>
<path fill="none" stroke="midnightblue" d="M340.028,-179.445C340.889,-158.108 344.459,-101.013 358.766,-56 361.789,-46.4886 366.666,-36.5452 371.153,-28.4315"/>
<polygon fill="midnightblue" stroke="midnightblue" points="374.29,-30 376.282,-19.5942 368.235,-26.4863 374.29,-30"/>
</g>
<!-- Node10&#45;&gt;Node2 -->
<g id="edge15" class="edge"><title>Node10&#45;&gt;Node2</title>
<path fill="none" stroke="midnightblue" d="M325.145,-179.324C310.817,-170.822 288.753,-157.729 272.017,-147.797"/>
<polygon fill="midnightblue" stroke="midnightblue" points="273.736,-144.748 263.35,-142.655 270.164,-150.768 273.736,-144.748"/>
</g>
<!-- Node10&#45;&gt;Node6 -->
<g id="edge16" class="edge"><title>Node10&#45;&gt;Node6</title>
<path fill="none" stroke="midnightblue" d="M401.952,-186.989C538.6,-183.309 858.118,-166.231 923.766,-87 967.82,-33.8297 851.438,-17.8396 773.519,-13.043"/>
<polygon fill="midnightblue" stroke="midnightblue" points="773.456,-9.53397 763.274,-12.4623 773.06,-16.5228 773.456,-9.53397"/>
</g>
<!-- Node12 -->
<g id="node13" class="node"><title>Node12</title>
<g id="a_node13"><a xlink:href="thread__types_8h.html" target="_top" xlink:title="ODP thread API types. ">
<polygon fill="white" stroke="black" points="970.766,-56.5 970.766,-86.5 1082.77,-86.5 1082.77,-56.5 970.766,-56.5"/>
<text text-anchor="start" x="978.766" y="-74.5" font-family="Helvetica,sans-Serif" font-size="10.00">odp/api/spec/thread</text>
<text text-anchor="middle" x="1026.77" y="-63.5" font-family="Helvetica,sans-Serif" font-size="10.00">_types.h</text>
</a>
</g>
</g>
<!-- Node11&#45;&gt;Node12 -->
<g id="edge18" class="edge"><title>Node11&#45;&gt;Node12</title>
<path fill="none" stroke="midnightblue" d="M1023.34,-123.475C1023.81,-116.471 1024.5,-106.192 1025.14,-96.6956"/>
<polygon fill="midnightblue" stroke="midnightblue" points="1028.64,-96.7352 1025.82,-86.523 1021.66,-96.2657 1028.64,-96.7352"/>
</g>
<!-- Node13 -->
<g id="node14" class="node"><title>Node13</title>
<polygon fill="white" stroke="#bfbfbf" points="1101.27,-62 1101.27,-81 1214.27,-81 1214.27,-62 1101.27,-62"/>
<text text-anchor="middle" x="1157.77" y="-69" font-family="Helvetica,sans-Serif" font-size="10.00">odp/api/abi/thread.h</text>
</g>
<!-- Node11&#45;&gt;Node13 -->
<g id="edge19" class="edge"><title>Node11&#45;&gt;Node13</title>
<path fill="none" stroke="midnightblue" d="M1042.11,-123.475C1064.86,-113.445 1102.86,-96.7002 1129.05,-85.1546"/>
<polygon fill="midnightblue" stroke="midnightblue" points="1130.72,-88.2449 1138.46,-81.0091 1127.9,-81.8395 1130.72,-88.2449"/>
</g>
<!-- Node14 -->
<g id="node15" class="node"><title>Node14</title>
<g id="a_node15"><a xlink:href="api_2spec_2thread_8h.html" target="_top" xlink:title="ODP thread API. ">
<polygon fill="white" stroke="black" points="793.266,-62 793.266,-81 914.266,-81 914.266,-62 793.266,-62"/>
<text text-anchor="middle" x="853.766" y="-69" font-family="Helvetica,sans-Serif" font-size="10.00">odp/api/spec/thread.h</text>
</a>
</g>
</g>
<!-- Node11&#45;&gt;Node14 -->
<g id="edge20" class="edge"><title>Node11&#45;&gt;Node14</title>
<path fill="none" stroke="midnightblue" d="M998.552,-123.475C969.437,-113.225 920.398,-95.9593 887.564,-84.3994"/>
<polygon fill="midnightblue" stroke="midnightblue" points="888.529,-81.0287 877.934,-81.0091 886.204,-87.6314 888.529,-81.0287"/>
</g>
<!-- Node14&#45;&gt;Node1 -->
<g id="edge21" class="edge"><title>Node14&#45;&gt;Node1</title>
<path fill="none" stroke="midnightblue" d="M815.737,-61.954C805.401,-59.8141 794.184,-57.6584 783.766,-56 667.113,-37.4301 530.212,-23.8363 450.026,-16.696"/>
<polygon fill="midnightblue" stroke="midnightblue" points="449.845,-13.1665 439.576,-15.7735 449.229,-20.1394 449.845,-13.1665"/>
</g>
<!-- Node14&#45;&gt;Node6 -->
<g id="edge22" class="edge"><title>Node14&#45;&gt;Node6</title>
<path fill="none" stroke="midnightblue" d="M833.134,-61.9751C808.647,-51.8571 767.619,-34.9046 739.656,-23.3507"/>
<polygon fill="midnightblue" stroke="midnightblue" points="740.938,-20.0932 730.359,-19.5091 738.265,-26.5627 740.938,-20.0932"/>
</g>
<!-- Node16 -->
<g id="node17" class="node"><title>Node16</title>
<polygon fill="white" stroke="#bfbfbf" points="650.266,-62 650.266,-81 775.266,-81 775.266,-62 650.266,-62"/>
<text text-anchor="middle" x="712.766" y="-69" font-family="Helvetica,sans-Serif" font-size="10.00">odp/api/abi/cpumask.h</text>
</g>
<!-- Node15&#45;&gt;Node16 -->
<g id="edge24" class="edge"><title>Node15&#45;&gt;Node16</title>
<path fill="none" stroke="midnightblue" d="M586.827,-123.475C611.825,-113.357 653.707,-96.4046 682.252,-84.8507"/>
<polygon fill="midnightblue" stroke="midnightblue" points="683.787,-88.0054 691.743,-81.0091 681.161,-81.5168 683.787,-88.0054"/>
</g>
<!-- Node17 -->
<g id="node18" class="node"><title>Node17</title>
<g id="a_node18"><a xlink:href="api_2spec_2cpumask_8h.html" target="_top" xlink:title="ODP CPU masks and enumeration. ">
<polygon fill="white" stroke="black" points="499.266,-62 499.266,-81 632.266,-81 632.266,-62 499.266,-62"/>
<text text-anchor="middle" x="565.766" y="-69" font-family="Helvetica,sans-Serif" font-size="10.00">odp/api/spec/cpumask.h</text>
</a>
</g>
</g>
<!-- Node15&#45;&gt;Node17 -->
<g id="edge25" class="edge"><title>Node15&#45;&gt;Node17</title>
<path fill="none" stroke="midnightblue" d="M565.766,-123.475C565.766,-115.08 565.766,-101.981 565.766,-91.1631"/>
<polygon fill="midnightblue" stroke="midnightblue" points="569.266,-91.0091 565.766,-81.0091 562.266,-91.0091 569.266,-91.0091"/>
</g>
<!-- Node17&#45;&gt;Node1 -->
<g id="edge26" class="edge"><title>Node17&#45;&gt;Node1</title>
<path fill="none" stroke="midnightblue" d="M539.403,-61.9751C507.431,-51.6362 453.39,-34.1611 417.643,-22.6017"/>
<polygon fill="midnightblue" stroke="midnightblue" points="418.671,-19.2558 408.079,-19.5091 416.517,-25.9162 418.671,-19.2558"/>
</g>
<!-- Node17&#45;&gt;Node6 -->
<g id="edge27" class="edge"><title>Node17&#45;&gt;Node6</title>
<path fill="none" stroke="midnightblue" d="M586.397,-61.9751C610.885,-51.8571 651.913,-34.9046 679.875,-23.3507"/>
<polygon fill="midnightblue" stroke="midnightblue" points="681.267,-26.5627 689.172,-19.5091 678.594,-20.0932 681.267,-26.5627"/>
</g>
</g>
</svg>
