<?xml version="1.0" encoding="UTF-8" standalone="no"?>
<!DOCTYPE svg PUBLIC "-//W3C//DTD SVG 1.1//EN"
 "http://www.w3.org/Graphics/SVG/1.1/DTD/svg11.dtd">
<!-- Generated by graphviz version 2.38.0 (20140413.2041)
 -->
<!-- Title: std_types.h Pages: 1 -->
<svg width="319pt" height="84pt"
 viewBox="0.00 0.00 319.00 84.00" xmlns="http://www.w3.org/2000/svg" xmlns:xlink="http://www.w3.org/1999/xlink">
<g id="graph0" class="graph" transform="scale(1 1) rotate(0) translate(4 80)">
<title>std_types.h</title>
<polygon fill="white" stroke="none" points="-4,4 -4,-80 315,-80 315,4 -4,4"/>
<!-- Node0 -->
<g id="node1" class="node"><title>Node0</title>
<polygon fill="#bfbfbf" stroke="black" points="123.5,-56.5 123.5,-75.5 195.5,-75.5 195.5,-56.5 123.5,-56.5"/>
<text text-anchor="middle" x="159.5" y="-63.5" font-family="Helvetica,sans-Serif" font-size="10.00">std_types.h</text>
</g>
<!-- Node1 -->
<g id="node2" class="node"><title>Node1</title>
<g id="a_node2"><a xlink:href="visibility__begin_8h_source.html" target="_top" xlink:title="odp/visibility_begin.h">
<polygon fill="white" stroke="black" points="0,-0.5 0,-19.5 115,-19.5 115,-0.5 0,-0.5"/>
<text text-anchor="middle" x="57.5" y="-7.5" font-family="Helvetica,sans-Serif" font-size="10.00">odp/visibility_begin.h</text>
</a>
</g>
</g>
<!-- Node0&#45;&gt;Node1 -->
<g id="edge1" class="edge"><title>Node0&#45;&gt;Node1</title>
<path fill="none" stroke="midnightblue" d="M143.112,-56.324C126.829,-47.7034 101.633,-34.3643 82.7837,-24.3855"/>
<polygon fill="midnightblue" stroke="midnightblue" points="84.3229,-21.2402 73.8474,-19.6545 81.0477,-27.4267 84.3229,-21.2402"/>
</g>
<!-- Node2 -->
<g id="node3" class="node"><title>Node2</title>
<polygon fill="white" stroke="#bfbfbf" points="133,-0.5 133,-19.5 186,-19.5 186,-0.5 133,-0.5"/>
<text text-anchor="middle" x="159.5" y="-7.5" font-family="Helvetica,sans-Serif" font-size="10.00">stdint.h</text>
</g>
<!-- Node0&#45;&gt;Node2 -->
<g id="edge2" class="edge"><title>Node0&#45;&gt;Node2</title>
<path fill="none" stroke="midnightblue" d="M159.5,-56.083C159.5,-49.0059 159.5,-38.8611 159.5,-29.9865"/>
<polygon fill="midnightblue" stroke="midnightblue" points="163,-29.751 159.5,-19.7511 156,-29.7511 163,-29.751"/>
</g>
<!-- Node3 -->
<g id="node4" class="node"><title>Node3</title>
<g id="a_node4"><a xlink:href="visibility__end_8h_source.html" target="_top" xlink:title="odp/visibility_end.h">
<polygon fill="white" stroke="black" points="204,-0.5 204,-19.5 311,-19.5 311,-0.5 204,-0.5"/>
<text text-anchor="middle" x="257.5" y="-7.5" font-family="Helvetica,sans-Serif" font-size="10.00">odp/visibility_end.h</text>
</a>
</g>
</g>
<!-- Node0&#45;&gt;Node3 -->
<g id="edge3" class="edge"><title>Node0&#45;&gt;Node3</title>
<path fill="none" stroke="midnightblue" d="M175.245,-56.324C190.819,-47.7428 214.877,-34.486 232.959,-24.5224"/>
<polygon fill="midnightblue" stroke="midnightblue" points="234.724,-27.546 241.794,-19.6545 231.346,-21.4152 234.724,-27.546"/>
</g>
</g>
</svg>
