<?xml version="1.0" encoding="UTF-8" standalone="no"?>
<!DOCTYPE svg PUBLIC "-//W3C//DTD SVG 1.1//EN"
 "http://www.w3.org/Graphics/SVG/1.1/DTD/svg11.dtd">
<!-- Generated by graphviz version 2.38.0 (20140413.2041)
 -->
<!-- Title: init.h Pages: 1 -->
<svg width="131pt" height="252pt"
 viewBox="0.00 0.00 131.00 252.00" xmlns="http://www.w3.org/2000/svg" xmlns:xlink="http://www.w3.org/1999/xlink">
<g id="graph0" class="graph" transform="scale(1 1) rotate(0) translate(4 248)">
<title>init.h</title>
<polygon fill="white" stroke="none" points="-4,4 -4,-248 127,-248 127,4 -4,4"/>
<!-- Node20 -->
<g id="node1" class="node"><title>Node20</title>
<polygon fill="#bfbfbf" stroke="black" points="71.5,-224.5 71.5,-243.5 111.5,-243.5 111.5,-224.5 71.5,-224.5"/>
<text text-anchor="middle" x="91.5" y="-231.5" font-family="Helvetica,sans-Serif" font-size="10.00">init.h</text>
</g>
<!-- Node21 -->
<g id="node2" class="node"><title>Node21</title>
<g id="a_node2"><a xlink:href="api_2spec_2shared__memory_8h.html" target="_top" xlink:title="ODP shared memory. ">
<polygon fill="white" stroke="black" points="0,-168.5 0,-187.5 103,-187.5 103,-168.5 0,-168.5"/>
<text text-anchor="middle" x="51.5" y="-175.5" font-family="Helvetica,sans-Serif" font-size="10.00">shared_memory.h</text>
</a>
</g>
</g>
<!-- Node20&#45;&gt;Node21 -->
<g id="edge1" class="edge"><title>Node20&#45;&gt;Node21</title>
<path fill="none" stroke="midnightblue" d="M78.8003,-215.855C71.874,-206.505 63.5937,-195.327 57.9823,-187.751"/>
<polygon fill="midnightblue" stroke="midnightblue" points="76.13,-218.131 84.8948,-224.083 81.755,-213.964 76.13,-218.131"/>
</g>
<!-- Node23 -->
<g id="node4" class="node"><title>Node23</title>
<g id="a_node4"><a xlink:href="odp__api_8h.html" target="_top" xlink:title="The OpenDataPlane API. ">
<polygon fill="white" stroke="black" points="60,-56.5 60,-75.5 123,-75.5 123,-56.5 60,-56.5"/>
<text text-anchor="middle" x="91.5" y="-63.5" font-family="Helvetica,sans-Serif" font-size="10.00">odp_api.h</text>
</a>
</g>
</g>
<!-- Node20&#45;&gt;Node23 -->
<g id="edge5" class="edge"><title>Node20&#45;&gt;Node23</title>
<path fill="none" stroke="midnightblue" d="M101.425,-215.302C105.399,-207.238 109.503,-197.409 111.5,-188 118.512,-154.958 118.512,-145.042 111.5,-112 108.66,-98.619 101.558,-84.3861 96.6302,-75.5932"/>
<polygon fill="midnightblue" stroke="midnightblue" points="98.1933,-213.928 96.6302,-224.407 104.387,-217.19 98.1933,-213.928"/>
</g>
<!-- Node22 -->
<g id="node3" class="node"><title>Node22</title>
<g id="a_node3"><a xlink:href="api_2shared__memory_8h.html" target="_top" xlink:title="ODP shared memory. ">
<polygon fill="white" stroke="black" points="0,-112.5 0,-131.5 103,-131.5 103,-112.5 0,-112.5"/>
<text text-anchor="middle" x="51.5" y="-119.5" font-family="Helvetica,sans-Serif" font-size="10.00">shared_memory.h</text>
</a>
</g>
</g>
<!-- Node21&#45;&gt;Node22 -->
<g id="edge2" class="edge"><title>Node21&#45;&gt;Node22</title>
<path fill="none" stroke="midnightblue" d="M51.5,-157.805C51.5,-148.91 51.5,-138.78 51.5,-131.751"/>
<polygon fill="midnightblue" stroke="midnightblue" points="48.0001,-158.083 51.5,-168.083 55.0001,-158.083 48.0001,-158.083"/>
</g>
<!-- Node22&#45;&gt;Node23 -->
<g id="edge3" class="edge"><title>Node22&#45;&gt;Node23</title>
<path fill="none" stroke="midnightblue" d="M64.1997,-103.855C71.126,-94.5048 79.4063,-83.3265 85.0177,-75.7511"/>
<polygon fill="midnightblue" stroke="midnightblue" points="61.245,-101.964 58.1052,-112.083 66.87,-106.131 61.245,-101.964"/>
</g>
<!-- Node24 -->
<g id="node5" class="node"><title>Node24</title>
<g id="a_node5"><a xlink:href="odp_8h.html" target="_top" xlink:title="WARNING: THIS FILE IS DEPRECATED AND WILL BE REMOVED!!! ODP APPLICATIONS SHOULD NOW INCLUDE odp_api...">
<polygon fill="white" stroke="black" points="69.5,-0.5 69.5,-19.5 113.5,-19.5 113.5,-0.5 69.5,-0.5"/>
<text text-anchor="middle" x="91.5" y="-7.5" font-family="Helvetica,sans-Serif" font-size="10.00">odp.h</text>
</a>
</g>
</g>
<!-- Node23&#45;&gt;Node24 -->
<g id="edge4" class="edge"><title>Node23&#45;&gt;Node24</title>
<path fill="none" stroke="midnightblue" d="M91.5,-45.8045C91.5,-36.9102 91.5,-26.7798 91.5,-19.7511"/>
<polygon fill="midnightblue" stroke="midnightblue" points="88.0001,-46.083 91.5,-56.083 95.0001,-46.083 88.0001,-46.083"/>
</g>
</g>
</svg>
