<?xml version="1.0" encoding="UTF-8" standalone="no"?>
<!DOCTYPE svg PUBLIC "-//W3C//DTD SVG 1.1//EN"
 "http://www.w3.org/Graphics/SVG/1.1/DTD/svg11.dtd">
<!-- Generated by graphviz version 2.38.0 (20140413.2041)
 -->
<!-- Title: time.h Pages: 1 -->
<svg width="1103pt" height="924pt"
 viewBox="0.00 0.00 1102.50 924.00" xmlns="http://www.w3.org/2000/svg" xmlns:xlink="http://www.w3.org/1999/xlink">
<g id="graph0" class="graph" transform="scale(1 1) rotate(0) translate(4 920)">
<title>time.h</title>
<polygon fill="white" stroke="none" points="-4,4 -4,-920 1098.5,-920 1098.5,4 -4,4"/>
<!-- Node1 -->
<g id="node1" class="node"><title>Node1</title>
<polygon fill="#bfbfbf" stroke="black" points="195,-896.5 195,-915.5 242,-915.5 242,-896.5 195,-896.5"/>
<text text-anchor="middle" x="218.5" y="-903.5" font-family="Helvetica,sans-Serif" font-size="10.00">time.h</text>
</g>
<!-- Node2 -->
<g id="node2" class="node"><title>Node2</title>
<g id="a_node2"><a xlink:href="arch_2arm32-linux_2odp_2api_2abi_2time_8h_source.html" target="_top" xlink:title="time.h">
<polygon fill="white" stroke="black" points="0,-840.5 0,-859.5 47,-859.5 47,-840.5 0,-840.5"/>
<text text-anchor="middle" x="23.5" y="-847.5" font-family="Helvetica,sans-Serif" font-size="10.00">time.h</text>
</a>
</g>
</g>
<!-- Node1&#45;&gt;Node2 -->
<g id="edge1" class="edge"><title>Node1&#45;&gt;Node2</title>
<path fill="none" stroke="midnightblue" d="M184.715,-895.724C151.741,-886.658 100.157,-872.444 55.5,-860 52.8315,-859.256 50.0388,-858.475 47.2621,-857.697"/>
<polygon fill="midnightblue" stroke="midnightblue" points="184.165,-899.202 194.735,-898.478 186.02,-892.453 184.165,-899.202"/>
</g>
<!-- Node3 -->
<g id="node3" class="node"><title>Node3</title>
<g id="a_node3"><a xlink:href="arch_2arm64-linux_2odp_2api_2abi_2time_8h_source.html" target="_top" xlink:title="time.h">
<polygon fill="white" stroke="black" points="65,-840.5 65,-859.5 112,-859.5 112,-840.5 65,-840.5"/>
<text text-anchor="middle" x="88.5" y="-847.5" font-family="Helvetica,sans-Serif" font-size="10.00">time.h</text>
</a>
</g>
</g>
<!-- Node1&#45;&gt;Node3 -->
<g id="edge2" class="edge"><title>Node1&#45;&gt;Node3</title>
<path fill="none" stroke="midnightblue" d="M188.415,-892.503C164.043,-882.38 130.36,-868.388 109.003,-859.516"/>
<polygon fill="midnightblue" stroke="midnightblue" points="187.323,-895.84 197.901,-896.444 190.009,-889.375 187.323,-895.84"/>
</g>
<!-- Node4 -->
<g id="node4" class="node"><title>Node4</title>
<g id="a_node4"><a xlink:href="arch_2default-linux_2odp_2api_2abi_2time_8h_source.html" target="_top" xlink:title="time.h">
<polygon fill="white" stroke="black" points="130,-840.5 130,-859.5 177,-859.5 177,-840.5 130,-840.5"/>
<text text-anchor="middle" x="153.5" y="-847.5" font-family="Helvetica,sans-Serif" font-size="10.00">time.h</text>
</a>
</g>
</g>
<!-- Node1&#45;&gt;Node4 -->
<g id="edge3" class="edge"><title>Node1&#45;&gt;Node4</title>
<path fill="none" stroke="midnightblue" d="M200.227,-889.82C188.582,-880.145 173.901,-867.948 164.133,-859.834"/>
<polygon fill="midnightblue" stroke="midnightblue" points="198.128,-892.626 208.057,-896.324 202.601,-887.242 198.128,-892.626"/>
</g>
<!-- Node5 -->
<g id="node5" class="node"><title>Node5</title>
<g id="a_node5"><a xlink:href="arch_2mips64-linux_2odp_2api_2abi_2time_8h_source.html" target="_top" xlink:title="time.h">
<polygon fill="white" stroke="black" points="195,-840.5 195,-859.5 242,-859.5 242,-840.5 195,-840.5"/>
<text text-anchor="middle" x="218.5" y="-847.5" font-family="Helvetica,sans-Serif" font-size="10.00">time.h</text>
</a>
</g>
</g>
<!-- Node1&#45;&gt;Node5 -->
<g id="edge4" class="edge"><title>Node1&#45;&gt;Node5</title>
<path fill="none" stroke="midnightblue" d="M218.5,-885.805C218.5,-876.91 218.5,-866.78 218.5,-859.751"/>
<polygon fill="midnightblue" stroke="midnightblue" points="215,-886.083 218.5,-896.083 222,-886.083 215,-886.083"/>
</g>
<!-- Node6 -->
<g id="node6" class="node"><title>Node6</title>
<g id="a_node6"><a xlink:href="arch_2power64-linux_2odp_2api_2abi_2time_8h_source.html" target="_top" xlink:title="time.h">
<polygon fill="white" stroke="black" points="260,-840.5 260,-859.5 307,-859.5 307,-840.5 260,-840.5"/>
<text text-anchor="middle" x="283.5" y="-847.5" font-family="Helvetica,sans-Serif" font-size="10.00">time.h</text>
</a>
</g>
</g>
<!-- Node1&#45;&gt;Node6 -->
<g id="edge5" class="edge"><title>Node1&#45;&gt;Node6</title>
<path fill="none" stroke="midnightblue" d="M236.773,-889.82C248.418,-880.145 263.099,-867.948 272.867,-859.834"/>
<polygon fill="midnightblue" stroke="midnightblue" points="234.399,-887.242 228.943,-896.324 238.872,-892.626 234.399,-887.242"/>
</g>
<!-- Node7 -->
<g id="node7" class="node"><title>Node7</title>
<g id="a_node7"><a xlink:href="arch_2x86__32-linux_2odp_2api_2abi_2time_8h_source.html" target="_top" xlink:title="time.h">
<polygon fill="white" stroke="black" points="325,-840.5 325,-859.5 372,-859.5 372,-840.5 325,-840.5"/>
<text text-anchor="middle" x="348.5" y="-847.5" font-family="Helvetica,sans-Serif" font-size="10.00">time.h</text>
</a>
</g>
</g>
<!-- Node1&#45;&gt;Node7 -->
<g id="edge6" class="edge"><title>Node1&#45;&gt;Node7</title>
<path fill="none" stroke="midnightblue" d="M248.585,-892.503C272.957,-882.38 306.64,-868.388 327.997,-859.516"/>
<polygon fill="midnightblue" stroke="midnightblue" points="246.991,-889.375 239.099,-896.444 249.677,-895.84 246.991,-889.375"/>
</g>
<!-- Node8 -->
<g id="node8" class="node"><title>Node8</title>
<g id="a_node8"><a xlink:href="arch_2x86__64-linux_2odp_2api_2abi_2time_8h_source.html" target="_top" xlink:title="time.h">
<polygon fill="white" stroke="black" points="390,-840.5 390,-859.5 437,-859.5 437,-840.5 390,-840.5"/>
<text text-anchor="middle" x="413.5" y="-847.5" font-family="Helvetica,sans-Serif" font-size="10.00">time.h</text>
</a>
</g>
</g>
<!-- Node1&#45;&gt;Node8 -->
<g id="edge7" class="edge"><title>Node1&#45;&gt;Node8</title>
<path fill="none" stroke="midnightblue" d="M252.285,-895.724C285.259,-886.658 336.843,-872.444 381.5,-860 384.168,-859.256 386.961,-858.475 389.738,-857.697"/>
<polygon fill="midnightblue" stroke="midnightblue" points="250.98,-892.453 242.265,-898.478 252.835,-899.202 250.98,-892.453"/>
</g>
<!-- Node9 -->
<g id="node9" class="node"><title>Node9</title>
<g id="a_node9"><a xlink:href="api_2time_8h.html" target="_top" xlink:title="ODP time. ">
<polygon fill="white" stroke="black" points="390,-784.5 390,-803.5 437,-803.5 437,-784.5 390,-784.5"/>
<text text-anchor="middle" x="413.5" y="-791.5" font-family="Helvetica,sans-Serif" font-size="10.00">time.h</text>
</a>
</g>
</g>
<!-- Node8&#45;&gt;Node9 -->
<g id="edge8" class="edge"><title>Node8&#45;&gt;Node9</title>
<path fill="none" stroke="midnightblue" d="M413.5,-829.805C413.5,-820.91 413.5,-810.78 413.5,-803.751"/>
<polygon fill="midnightblue" stroke="midnightblue" points="410,-830.083 413.5,-840.083 417,-830.083 410,-830.083"/>
</g>
<!-- Node10 -->
<g id="node10" class="node"><title>Node10</title>
<g id="a_node10"><a xlink:href="api_2spec_2packet_8h.html" target="_top" xlink:title="ODP packet descriptor. ">
<polygon fill="white" stroke="black" points="568.5,-728.5 568.5,-747.5 626.5,-747.5 626.5,-728.5 568.5,-728.5"/>
<text text-anchor="middle" x="597.5" y="-735.5" font-family="Helvetica,sans-Serif" font-size="10.00">packet.h</text>
</a>
</g>
</g>
<!-- Node9&#45;&gt;Node10 -->
<g id="edge9" class="edge"><title>Node9&#45;&gt;Node10</title>
<path fill="none" stroke="midnightblue" d="M446.865,-783.208C481.593,-773.016 535.431,-757.216 568.46,-747.522"/>
<polygon fill="midnightblue" stroke="midnightblue" points="445.788,-779.877 437.178,-786.051 447.759,-786.593 445.788,-779.877"/>
</g>
<!-- Node14 -->
<g id="node14" class="node"><title>Node14</title>
<g id="a_node14"><a xlink:href="odp__api_8h.html" target="_top" xlink:title="The OpenDataPlane API. ">
<polygon fill="white" stroke="black" points="722,-56.5 722,-75.5 785,-75.5 785,-56.5 722,-56.5"/>
<text text-anchor="middle" x="753.5" y="-63.5" font-family="Helvetica,sans-Serif" font-size="10.00">odp_api.h</text>
</a>
</g>
</g>
<!-- Node9&#45;&gt;Node14 -->
<g id="edge49" class="edge"><title>Node9&#45;&gt;Node14</title>
<path fill="none" stroke="midnightblue" d="M403.357,-775.429C392.1,-754.236 375.5,-717.187 375.5,-683 375.5,-683 375.5,-683 375.5,-177 375.5,-133.225 409.781,-130.402 449.5,-112 497.607,-89.7124 654.252,-74.9079 721.907,-69.4011"/>
<polygon fill="midnightblue" stroke="midnightblue" points="400.319,-777.168 408.216,-784.231 406.447,-773.785 400.319,-777.168"/>
</g>
<!-- Node24 -->
<g id="node24" class="node"><title>Node24</title>
<g id="a_node24"><a xlink:href="api_2spec_2packet__io_8h.html" target="_top" xlink:title="ODP Packet IO. ">
<polygon fill="white" stroke="black" points="559,-392.5 559,-411.5 630,-411.5 630,-392.5 559,-392.5"/>
<text text-anchor="middle" x="594.5" y="-399.5" font-family="Helvetica,sans-Serif" font-size="10.00">packet_io.h</text>
</a>
</g>
</g>
<!-- Node9&#45;&gt;Node24 -->
<g id="edge48" class="edge"><title>Node9&#45;&gt;Node24</title>
<path fill="none" stroke="midnightblue" d="M413.5,-774.251C413.5,-752.357 413.5,-715.052 413.5,-683 413.5,-683 413.5,-683 413.5,-513 413.5,-445.708 505.991,-418.412 558.74,-408.317"/>
<polygon fill="midnightblue" stroke="midnightblue" points="410,-774.442 413.5,-784.442 417,-774.442 410,-774.442"/>
</g>
<!-- Node11 -->
<g id="node11" class="node"><title>Node11</title>
<g id="a_node11"><a xlink:href="api_2packet_8h.html" target="_top" xlink:title="ODP packet descriptor. ">
<polygon fill="white" stroke="black" points="695.5,-672.5 695.5,-691.5 753.5,-691.5 753.5,-672.5 695.5,-672.5"/>
<text text-anchor="middle" x="724.5" y="-679.5" font-family="Helvetica,sans-Serif" font-size="10.00">packet.h</text>
</a>
</g>
</g>
<!-- Node10&#45;&gt;Node11 -->
<g id="edge10" class="edge"><title>Node10&#45;&gt;Node11</title>
<path fill="none" stroke="midnightblue" d="M626.891,-724.503C650.7,-714.38 683.606,-700.388 704.471,-691.516"/>
<polygon fill="midnightblue" stroke="midnightblue" points="625.457,-721.31 617.624,-728.444 628.196,-727.751 625.457,-721.31"/>
</g>
<!-- Node12 -->
<g id="node12" class="node"><title>Node12</title>
<g id="a_node12"><a xlink:href="api_2spec_2comp_8h.html" target="_top" xlink:title="ODP Compression. ">
<polygon fill="white" stroke="black" points="553,-616.5 553,-635.5 606,-635.5 606,-616.5 553,-616.5"/>
<text text-anchor="middle" x="579.5" y="-623.5" font-family="Helvetica,sans-Serif" font-size="10.00">comp.h</text>
</a>
</g>
</g>
<!-- Node11&#45;&gt;Node12 -->
<g id="edge11" class="edge"><title>Node11&#45;&gt;Node12</title>
<path fill="none" stroke="midnightblue" d="M692.025,-668.906C664.764,-658.754 626.508,-644.506 602.368,-635.516"/>
<polygon fill="midnightblue" stroke="midnightblue" points="690.932,-672.233 701.524,-672.444 693.375,-665.674 690.932,-672.233"/>
</g>
<!-- Node11&#45;&gt;Node14 -->
<g id="edge47" class="edge"><title>Node11&#45;&gt;Node14</title>
<path fill="none" stroke="midnightblue" d="M763.904,-681.243C835.702,-679.399 980.5,-664.134 980.5,-571 980.5,-571 980.5,-571 980.5,-177 980.5,-91.1656 847.437,-72.2852 785.063,-68.15"/>
<polygon fill="midnightblue" stroke="midnightblue" points="763.801,-677.744 753.866,-681.425 763.928,-684.743 763.801,-677.744"/>
</g>
<!-- Node16 -->
<g id="node16" class="node"><title>Node16</title>
<g id="a_node16"><a xlink:href="api_2spec_2crypto_8h.html" target="_top" xlink:title="ODP crypto. ">
<polygon fill="white" stroke="black" points="696.5,-448.5 696.5,-467.5 752.5,-467.5 752.5,-448.5 696.5,-448.5"/>
<text text-anchor="middle" x="724.5" y="-455.5" font-family="Helvetica,sans-Serif" font-size="10.00">crypto.h</text>
</a>
</g>
</g>
<!-- Node11&#45;&gt;Node16 -->
<g id="edge15" class="edge"><title>Node11&#45;&gt;Node16</title>
<path fill="none" stroke="midnightblue" d="M724.5,-662.295C724.5,-616.644 724.5,-500.854 724.5,-467.884"/>
<polygon fill="midnightblue" stroke="midnightblue" points="721,-662.297 724.5,-672.297 728,-662.297 721,-662.297"/>
</g>
<!-- Node20 -->
<g id="node20" class="node"><title>Node20</title>
<g id="a_node20"><a xlink:href="api_2spec_2event_8h.html" target="_top" xlink:title="ODP event. ">
<polygon fill="white" stroke="black" points="782,-616.5 782,-635.5 835,-635.5 835,-616.5 782,-616.5"/>
<text text-anchor="middle" x="808.5" y="-623.5" font-family="Helvetica,sans-Serif" font-size="10.00">event.h</text>
</a>
</g>
</g>
<!-- Node11&#45;&gt;Node20 -->
<g id="edge21" class="edge"><title>Node11&#45;&gt;Node20</title>
<path fill="none" stroke="midnightblue" d="M746.432,-666.901C761.835,-656.999 781.946,-644.071 795.037,-635.655"/>
<polygon fill="midnightblue" stroke="midnightblue" points="744.515,-663.972 737.996,-672.324 748.301,-669.86 744.515,-663.972"/>
</g>
<!-- Node11&#45;&gt;Node24 -->
<g id="edge46" class="edge"><title>Node11&#45;&gt;Node24</title>
<path fill="none" stroke="midnightblue" d="M703.64,-666.085C679.641,-647.011 643.5,-611.555 643.5,-571 643.5,-571 643.5,-571 643.5,-513 643.5,-472.024 614.777,-429.312 601.313,-411.542"/>
<polygon fill="midnightblue" stroke="midnightblue" points="701.772,-669.062 711.844,-672.35 706.021,-663.499 701.772,-669.062"/>
</g>
<!-- Node32 -->
<g id="node32" class="node"><title>Node32</title>
<g id="a_node32"><a xlink:href="api_2spec_2packet__flags_8h.html" target="_top" xlink:title="ODP packet flags. ">
<polygon fill="white" stroke="black" points="1008.5,-560.5 1008.5,-579.5 1094.5,-579.5 1094.5,-560.5 1008.5,-560.5"/>
<text text-anchor="middle" x="1051.5" y="-567.5" font-family="Helvetica,sans-Serif" font-size="10.00">packet_flags.h</text>
</a>
</g>
</g>
<!-- Node11&#45;&gt;Node32 -->
<g id="edge43" class="edge"><title>Node11&#45;&gt;Node32</title>
<path fill="none" stroke="midnightblue" d="M764.221,-677.674C829.39,-671.675 955.661,-657.624 994.5,-636 1018.89,-622.42 1037.93,-594.26 1046.52,-579.876"/>
<polygon fill="midnightblue" stroke="midnightblue" points="763.576,-674.217 753.931,-678.6 764.204,-681.189 763.576,-674.217"/>
</g>
<!-- Node13 -->
<g id="node13" class="node"><title>Node13</title>
<g id="a_node13"><a xlink:href="api_2comp_8h.html" target="_top" xlink:title="ODP crypto. ">
<polygon fill="white" stroke="black" points="544,-504.5 544,-523.5 597,-523.5 597,-504.5 544,-504.5"/>
<text text-anchor="middle" x="570.5" y="-511.5" font-family="Helvetica,sans-Serif" font-size="10.00">comp.h</text>
</a>
</g>
</g>
<!-- Node12&#45;&gt;Node13 -->
<g id="edge12" class="edge"><title>Node12&#45;&gt;Node13</title>
<path fill="none" stroke="midnightblue" d="M577.974,-606.348C576.003,-582.254 572.652,-541.308 571.203,-523.591"/>
<polygon fill="midnightblue" stroke="midnightblue" points="574.49,-606.687 578.794,-616.368 581.467,-606.116 574.49,-606.687"/>
</g>
<!-- Node13&#45;&gt;Node14 -->
<g id="edge13" class="edge"><title>Node13&#45;&gt;Node14</title>
<path fill="none" stroke="midnightblue" d="M554.633,-497.026C516.435,-456.792 422.5,-346.514 422.5,-235 422.5,-235 422.5,-235 422.5,-177 422.5,-130.145 462.755,-131.188 505.5,-112 578.356,-79.2954 673.372,-70.3508 721.926,-67.9106"/>
<polygon fill="midnightblue" stroke="midnightblue" points="552.219,-499.564 561.685,-504.321 557.252,-494.699 552.219,-499.564"/>
</g>
<!-- Node15 -->
<g id="node15" class="node"><title>Node15</title>
<g id="a_node15"><a xlink:href="odp_8h.html" target="_top" xlink:title="WARNING: THIS FILE IS DEPRECATED AND WILL BE REMOVED!!! ODP APPLICATIONS SHOULD NOW INCLUDE odp_api...">
<polygon fill="white" stroke="black" points="731.5,-0.5 731.5,-19.5 775.5,-19.5 775.5,-0.5 731.5,-0.5"/>
<text text-anchor="middle" x="753.5" y="-7.5" font-family="Helvetica,sans-Serif" font-size="10.00">odp.h</text>
</a>
</g>
</g>
<!-- Node14&#45;&gt;Node15 -->
<g id="edge14" class="edge"><title>Node14&#45;&gt;Node15</title>
<path fill="none" stroke="midnightblue" d="M753.5,-45.8045C753.5,-36.9102 753.5,-26.7798 753.5,-19.7511"/>
<polygon fill="midnightblue" stroke="midnightblue" points="750,-46.083 753.5,-56.083 757,-46.083 750,-46.083"/>
</g>
<!-- Node17 -->
<g id="node17" class="node"><title>Node17</title>
<g id="a_node17"><a xlink:href="api_2crypto_8h.html" target="_top" xlink:title="ODP crypto. ">
<polygon fill="white" stroke="black" points="719.5,-336.5 719.5,-355.5 775.5,-355.5 775.5,-336.5 719.5,-336.5"/>
<text text-anchor="middle" x="747.5" y="-343.5" font-family="Helvetica,sans-Serif" font-size="10.00">crypto.h</text>
</a>
</g>
</g>
<!-- Node16&#45;&gt;Node17 -->
<g id="edge16" class="edge"><title>Node16&#45;&gt;Node17</title>
<path fill="none" stroke="midnightblue" d="M728.4,-438.348C733.438,-414.254 741.999,-373.308 745.704,-355.591"/>
<polygon fill="midnightblue" stroke="midnightblue" points="724.926,-437.864 726.305,-448.368 731.777,-439.297 724.926,-437.864"/>
</g>
<!-- Node17&#45;&gt;Node14 -->
<g id="edge20" class="edge"><title>Node17&#45;&gt;Node14</title>
<path fill="none" stroke="midnightblue" d="M756.292,-327.309C766.068,-305.972 780.5,-268.755 780.5,-235 780.5,-235 780.5,-235 780.5,-177 780.5,-138.262 764.511,-94.0045 757.141,-75.6622"/>
<polygon fill="midnightblue" stroke="midnightblue" points="753.091,-325.89 751.951,-336.424 759.411,-328.901 753.091,-325.89"/>
</g>
<!-- Node18 -->
<g id="node18" class="node"><title>Node18</title>
<g id="a_node18"><a xlink:href="api_2spec_2ipsec_8h.html" target="_top" xlink:title="ODP IPSEC API. ">
<polygon fill="white" stroke="black" points="562.5,-168.5 562.5,-187.5 612.5,-187.5 612.5,-168.5 562.5,-168.5"/>
<text text-anchor="middle" x="587.5" y="-175.5" font-family="Helvetica,sans-Serif" font-size="10.00">ipsec.h</text>
</a>
</g>
</g>
<!-- Node17&#45;&gt;Node18 -->
<g id="edge17" class="edge"><title>Node17&#45;&gt;Node18</title>
<path fill="none" stroke="midnightblue" d="M743.673,-326.411C740.146,-312.596 733.856,-293.827 723.5,-280 690.706,-236.217 633.773,-202.739 605.089,-187.704"/>
<polygon fill="midnightblue" stroke="midnightblue" points="740.281,-327.278 745.933,-336.239 747.102,-325.709 740.281,-327.278"/>
</g>
<!-- Node19 -->
<g id="node19" class="node"><title>Node19</title>
<g id="a_node19"><a xlink:href="api_2ipsec_8h.html" target="_top" xlink:title="ODP IPSEC API &#45; platform specific header. ">
<polygon fill="white" stroke="black" points="562.5,-112.5 562.5,-131.5 612.5,-131.5 612.5,-112.5 562.5,-112.5"/>
<text text-anchor="middle" x="587.5" y="-119.5" font-family="Helvetica,sans-Serif" font-size="10.00">ipsec.h</text>
</a>
</g>
</g>
<!-- Node18&#45;&gt;Node19 -->
<g id="edge18" class="edge"><title>Node18&#45;&gt;Node19</title>
<path fill="none" stroke="midnightblue" d="M587.5,-157.805C587.5,-148.91 587.5,-138.78 587.5,-131.751"/>
<polygon fill="midnightblue" stroke="midnightblue" points="584,-158.083 587.5,-168.083 591,-158.083 584,-158.083"/>
</g>
<!-- Node19&#45;&gt;Node14 -->
<g id="edge19" class="edge"><title>Node19&#45;&gt;Node14</title>
<path fill="none" stroke="midnightblue" d="M622.342,-109.666C653.634,-99.4866 698.888,-84.7652 727.227,-75.5467"/>
<polygon fill="midnightblue" stroke="midnightblue" points="621.139,-106.377 612.712,-112.799 623.304,-113.033 621.139,-106.377"/>
</g>
<!-- Node21 -->
<g id="node21" class="node"><title>Node21</title>
<g id="a_node21"><a xlink:href="api_2event_8h.html" target="_top" xlink:title="ODP event. ">
<polygon fill="white" stroke="black" points="782,-560.5 782,-579.5 835,-579.5 835,-560.5 782,-560.5"/>
<text text-anchor="middle" x="808.5" y="-567.5" font-family="Helvetica,sans-Serif" font-size="10.00">event.h</text>
</a>
</g>
</g>
<!-- Node20&#45;&gt;Node21 -->
<g id="edge22" class="edge"><title>Node20&#45;&gt;Node21</title>
<path fill="none" stroke="midnightblue" d="M808.5,-605.805C808.5,-596.91 808.5,-586.78 808.5,-579.751"/>
<polygon fill="midnightblue" stroke="midnightblue" points="805,-606.083 808.5,-616.083 812,-606.083 805,-606.083"/>
</g>
<!-- Node21&#45;&gt;Node14 -->
<g id="edge42" class="edge"><title>Node21&#45;&gt;Node14</title>
<path fill="none" stroke="midnightblue" d="M803.965,-550.596C802.191,-542.495 800.374,-532.83 799.5,-524 796.172,-490.387 797.998,-481.744 799.5,-448 803.726,-353.051 818.5,-330.043 818.5,-235 818.5,-235 818.5,-235 818.5,-177 818.5,-133.967 781.172,-92.9849 763.091,-75.6585"/>
<polygon fill="midnightblue" stroke="midnightblue" points="800.584,-551.506 806.265,-560.449 807.401,-549.915 800.584,-551.506"/>
</g>
<!-- Node22 -->
<g id="node22" class="node"><title>Node22</title>
<g id="a_node22"><a xlink:href="api_2spec_2queue_8h.html" target="_top" xlink:title="ODP queue. ">
<polygon fill="white" stroke="black" points="808.5,-504.5 808.5,-523.5 864.5,-523.5 864.5,-504.5 808.5,-504.5"/>
<text text-anchor="middle" x="836.5" y="-511.5" font-family="Helvetica,sans-Serif" font-size="10.00">queue.h</text>
</a>
</g>
</g>
<!-- Node21&#45;&gt;Node22 -->
<g id="edge23" class="edge"><title>Node21&#45;&gt;Node22</title>
<path fill="none" stroke="midnightblue" d="M817.842,-550.983C822.595,-541.817 828.156,-531.092 831.962,-523.751"/>
<polygon fill="midnightblue" stroke="midnightblue" points="814.62,-549.594 813.124,-560.083 820.834,-552.817 814.62,-549.594"/>
</g>
<!-- Node30 -->
<g id="node30" class="node"><title>Node30</title>
<g id="a_node30"><a xlink:href="api_2spec_2schedule_8h.html" target="_top" xlink:title="ODP schedule. ">
<polygon fill="white" stroke="black" points="884.5,-392.5 884.5,-411.5 952.5,-411.5 952.5,-392.5 884.5,-392.5"/>
<text text-anchor="middle" x="918.5" y="-399.5" font-family="Helvetica,sans-Serif" font-size="10.00">schedule.h</text>
</a>
</g>
</g>
<!-- Node21&#45;&gt;Node30 -->
<g id="edge41" class="edge"><title>Node21&#45;&gt;Node30</title>
<path fill="none" stroke="midnightblue" d="M835.519,-555.385C848.505,-547.687 863.402,-536.994 873.5,-524 901.419,-488.075 913.356,-433.04 917.102,-411.792"/>
<polygon fill="midnightblue" stroke="midnightblue" points="833.503,-552.503 826.497,-560.45 836.93,-558.606 833.503,-552.503"/>
</g>
<!-- Node23 -->
<g id="node23" class="node"><title>Node23</title>
<g id="a_node23"><a xlink:href="api_2queue_8h.html" target="_top" xlink:title="ODP queue. ">
<polygon fill="white" stroke="black" points="808.5,-448.5 808.5,-467.5 864.5,-467.5 864.5,-448.5 808.5,-448.5"/>
<text text-anchor="middle" x="836.5" y="-455.5" font-family="Helvetica,sans-Serif" font-size="10.00">queue.h</text>
</a>
</g>
</g>
<!-- Node22&#45;&gt;Node23 -->
<g id="edge24" class="edge"><title>Node22&#45;&gt;Node23</title>
<path fill="none" stroke="midnightblue" d="M836.5,-493.805C836.5,-484.91 836.5,-474.78 836.5,-467.751"/>
<polygon fill="midnightblue" stroke="midnightblue" points="833,-494.083 836.5,-504.083 840,-494.083 833,-494.083"/>
</g>
<!-- Node23&#45;&gt;Node14 -->
<g id="edge40" class="edge"><title>Node23&#45;&gt;Node14</title>
<path fill="none" stroke="midnightblue" d="M841.991,-438.408C847.912,-416.685 856.5,-379.562 856.5,-347 856.5,-347 856.5,-347 856.5,-177 856.5,-146.205 852.418,-135.487 832.5,-112 817.901,-94.7853 794.962,-82.7614 777.555,-75.5007"/>
<polygon fill="midnightblue" stroke="midnightblue" points="838.558,-437.683 839.197,-448.258 845.293,-439.592 838.558,-437.683"/>
</g>
<!-- Node23&#45;&gt;Node17 -->
<g id="edge25" class="edge"><title>Node23&#45;&gt;Node17</title>
<path fill="none" stroke="midnightblue" d="M823.219,-440.586C804.032,-416.871 769.24,-373.869 754.451,-355.591"/>
<polygon fill="midnightblue" stroke="midnightblue" points="820.505,-442.796 829.516,-448.368 825.947,-438.393 820.505,-442.796"/>
</g>
<!-- Node23&#45;&gt;Node24 -->
<g id="edge26" class="edge"><title>Node23&#45;&gt;Node24</title>
<path fill="none" stroke="midnightblue" d="M798.372,-448.492C752.317,-438.215 675.43,-421.059 630.397,-411.01"/>
<polygon fill="midnightblue" stroke="midnightblue" points="797.744,-451.938 808.266,-450.7 799.268,-445.106 797.744,-451.938"/>
</g>
<!-- Node23&#45;&gt;Node30 -->
<g id="edge37" class="edge"><title>Node23&#45;&gt;Node30</title>
<path fill="none" stroke="midnightblue" d="M858.333,-442.622C873.313,-432.757 892.697,-419.992 905.358,-411.655"/>
<polygon fill="midnightblue" stroke="midnightblue" points="856.101,-439.901 849.675,-448.324 859.951,-445.747 856.101,-439.901"/>
</g>
<!-- Node25 -->
<g id="node25" class="node"><title>Node25</title>
<g id="a_node25"><a xlink:href="api_2packet__io_8h.html" target="_top" xlink:title="ODP Packet IO. ">
<polygon fill="white" stroke="black" points="534,-336.5 534,-355.5 605,-355.5 605,-336.5 534,-336.5"/>
<text text-anchor="middle" x="569.5" y="-343.5" font-family="Helvetica,sans-Serif" font-size="10.00">packet_io.h</text>
</a>
</g>
</g>
<!-- Node24&#45;&gt;Node25 -->
<g id="edge27" class="edge"><title>Node24&#45;&gt;Node25</title>
<path fill="none" stroke="midnightblue" d="M586.159,-382.983C581.915,-373.817 576.95,-363.092 573.551,-355.751"/>
<polygon fill="midnightblue" stroke="midnightblue" points="582.994,-384.479 590.372,-392.083 589.347,-381.538 582.994,-384.479"/>
</g>
<!-- Node25&#45;&gt;Node14 -->
<g id="edge36" class="edge"><title>Node25&#45;&gt;Node14</title>
<path fill="none" stroke="midnightblue" d="M541.234,-331.772C508.937,-314.473 460.5,-280.881 460.5,-235 460.5,-235 460.5,-235 460.5,-177 460.5,-121.646 646.102,-84.7245 721.865,-71.9588"/>
<polygon fill="midnightblue" stroke="midnightblue" points="539.77,-334.955 550.264,-336.415 542.971,-328.73 539.77,-334.955"/>
</g>
<!-- Node25&#45;&gt;Node18 -->
<g id="edge32" class="edge"><title>Node25&#45;&gt;Node18</title>
<path fill="none" stroke="midnightblue" d="M545.131,-330.726C534.552,-323.089 523.277,-312.64 517.5,-300 513.805,-291.916 516.123,-288.782 517.5,-280 521.549,-254.172 521.081,-245.807 535.5,-224 545.509,-208.863 561.964,-195.837 573.682,-187.751"/>
<polygon fill="midnightblue" stroke="midnightblue" points="543.458,-333.818 553.717,-336.467 547.349,-327.999 543.458,-333.818"/>
</g>
<!-- Node26 -->
<g id="node26" class="node"><title>Node26</title>
<g id="a_node26"><a xlink:href="api_2spec_2classification_8h.html" target="_top" xlink:title="ODP classification descriptor. ">
<polygon fill="white" stroke="black" points="526.5,-280.5 526.5,-299.5 612.5,-299.5 612.5,-280.5 526.5,-280.5"/>
<text text-anchor="middle" x="569.5" y="-287.5" font-family="Helvetica,sans-Serif" font-size="10.00">classification.h</text>
</a>
</g>
</g>
<!-- Node25&#45;&gt;Node26 -->
<g id="edge28" class="edge"><title>Node25&#45;&gt;Node26</title>
<path fill="none" stroke="midnightblue" d="M569.5,-325.805C569.5,-316.91 569.5,-306.78 569.5,-299.751"/>
<polygon fill="midnightblue" stroke="midnightblue" points="566,-326.083 569.5,-336.083 573,-326.083 566,-326.083"/>
</g>
<!-- Node28 -->
<g id="node28" class="node"><title>Node28</title>
<g id="a_node28"><a xlink:href="api_2spec_2traffic__mngr_8h.html" target="_top" xlink:title="Copyright (c) 2015&#45;2018, Linaro Limited All rights reserved. ">
<polygon fill="white" stroke="black" points="631,-280.5 631,-299.5 714,-299.5 714,-280.5 631,-280.5"/>
<text text-anchor="middle" x="672.5" y="-287.5" font-family="Helvetica,sans-Serif" font-size="10.00">traffic_mngr.h</text>
</a>
</g>
</g>
<!-- Node25&#45;&gt;Node28 -->
<g id="edge33" class="edge"><title>Node25&#45;&gt;Node28</title>
<path fill="none" stroke="midnightblue" d="M595.079,-331.59C614.123,-321.605 639.564,-308.267 655.992,-299.655"/>
<polygon fill="midnightblue" stroke="midnightblue" points="593.28,-328.581 586.049,-336.324 596.531,-334.78 593.28,-328.581"/>
</g>
<!-- Node27 -->
<g id="node27" class="node"><title>Node27</title>
<g id="a_node27"><a xlink:href="api_2classification_8h.html" target="_top" xlink:title="ODP classification descriptor. ">
<polygon fill="white" stroke="black" points="544.5,-224.5 544.5,-243.5 630.5,-243.5 630.5,-224.5 544.5,-224.5"/>
<text text-anchor="middle" x="587.5" y="-231.5" font-family="Helvetica,sans-Serif" font-size="10.00">classification.h</text>
</a>
</g>
</g>
<!-- Node26&#45;&gt;Node27 -->
<g id="edge29" class="edge"><title>Node26&#45;&gt;Node27</title>
<path fill="none" stroke="midnightblue" d="M575.701,-270.396C578.713,-261.362 582.188,-250.936 584.583,-243.751"/>
<polygon fill="midnightblue" stroke="midnightblue" points="572.314,-269.489 572.472,-280.083 578.955,-271.703 572.314,-269.489"/>
</g>
<!-- Node27&#45;&gt;Node14 -->
<g id="edge31" class="edge"><title>Node27&#45;&gt;Node14</title>
<path fill="none" stroke="midnightblue" d="M603.849,-216.651C638.561,-181.939 718.602,-101.898 744.932,-75.5681"/>
<polygon fill="midnightblue" stroke="midnightblue" points="601.021,-214.529 596.425,-224.075 605.971,-219.479 601.021,-214.529"/>
</g>
<!-- Node27&#45;&gt;Node18 -->
<g id="edge30" class="edge"><title>Node27&#45;&gt;Node18</title>
<path fill="none" stroke="midnightblue" d="M587.5,-213.805C587.5,-204.91 587.5,-194.78 587.5,-187.751"/>
<polygon fill="midnightblue" stroke="midnightblue" points="584,-214.083 587.5,-224.083 591,-214.083 584,-214.083"/>
</g>
<!-- Node29 -->
<g id="node29" class="node"><title>Node29</title>
<g id="a_node29"><a xlink:href="api_2traffic__mngr_8h.html" target="_top" xlink:title="ODP Traffic manager. ">
<polygon fill="white" stroke="black" points="669,-168.5 669,-187.5 752,-187.5 752,-168.5 669,-168.5"/>
<text text-anchor="middle" x="710.5" y="-175.5" font-family="Helvetica,sans-Serif" font-size="10.00">traffic_mngr.h</text>
</a>
</g>
</g>
<!-- Node28&#45;&gt;Node29 -->
<g id="edge34" class="edge"><title>Node28&#45;&gt;Node29</title>
<path fill="none" stroke="midnightblue" d="M678.831,-270.674C687.139,-246.625 701.384,-205.388 707.532,-187.591"/>
<polygon fill="midnightblue" stroke="midnightblue" points="675.439,-269.774 675.482,-280.368 682.055,-272.059 675.439,-269.774"/>
</g>
<!-- Node29&#45;&gt;Node14 -->
<g id="edge35" class="edge"><title>Node29&#45;&gt;Node14</title>
<path fill="none" stroke="midnightblue" d="M717.537,-158.998C726.919,-134.997 743.153,-93.4683 750.142,-75.5914"/>
<polygon fill="midnightblue" stroke="midnightblue" points="714.255,-157.78 713.874,-168.368 720.775,-160.329 714.255,-157.78"/>
</g>
<!-- Node31 -->
<g id="node31" class="node"><title>Node31</title>
<g id="a_node31"><a xlink:href="api_2schedule_8h.html" target="_top" xlink:title="ODP schedule. ">
<polygon fill="white" stroke="black" points="884.5,-224.5 884.5,-243.5 952.5,-243.5 952.5,-224.5 884.5,-224.5"/>
<text text-anchor="middle" x="918.5" y="-231.5" font-family="Helvetica,sans-Serif" font-size="10.00">schedule.h</text>
</a>
</g>
</g>
<!-- Node30&#45;&gt;Node31 -->
<g id="edge38" class="edge"><title>Node30&#45;&gt;Node31</title>
<path fill="none" stroke="midnightblue" d="M918.5,-381.93C918.5,-345.92 918.5,-269.231 918.5,-243.568"/>
<polygon fill="midnightblue" stroke="midnightblue" points="915,-382.075 918.5,-392.075 922,-382.075 915,-382.075"/>
</g>
<!-- Node31&#45;&gt;Node14 -->
<g id="edge39" class="edge"><title>Node31&#45;&gt;Node14</title>
<path fill="none" stroke="midnightblue" d="M915.856,-214.28C911.208,-188.047 899.186,-140.387 870.5,-112 847.296,-89.038 811.116,-77.5351 785.132,-71.946"/>
<polygon fill="midnightblue" stroke="midnightblue" points="912.436,-215.061 917.465,-224.387 919.349,-213.961 912.436,-215.061"/>
</g>
<!-- Node33 -->
<g id="node33" class="node"><title>Node33</title>
<g id="a_node33"><a xlink:href="api_2packet__flags_8h.html" target="_top" xlink:title="ODP packet flags. ">
<polygon fill="white" stroke="black" points="1008.5,-112.5 1008.5,-131.5 1094.5,-131.5 1094.5,-112.5 1008.5,-112.5"/>
<text text-anchor="middle" x="1051.5" y="-119.5" font-family="Helvetica,sans-Serif" font-size="10.00">packet_flags.h</text>
</a>
</g>
</g>
<!-- Node32&#45;&gt;Node33 -->
<g id="edge44" class="edge"><title>Node32&#45;&gt;Node33</title>
<path fill="none" stroke="midnightblue" d="M1051.5,-550.251C1051.5,-528.357 1051.5,-491.052 1051.5,-459 1051.5,-459 1051.5,-459 1051.5,-233 1051.5,-195.188 1051.5,-150.064 1051.5,-131.558"/>
<polygon fill="midnightblue" stroke="midnightblue" points="1048,-550.442 1051.5,-560.442 1055,-550.442 1048,-550.442"/>
</g>
<!-- Node33&#45;&gt;Node14 -->
<g id="edge45" class="edge"><title>Node33&#45;&gt;Node14</title>
<path fill="none" stroke="midnightblue" d="M998.509,-111.398C936.529,-100.166 835.943,-81.9394 785.087,-72.7238"/>
<polygon fill="midnightblue" stroke="midnightblue" points="998.023,-114.866 1008.49,-113.206 999.271,-107.979 998.023,-114.866"/>
</g>
</g>
</svg>
