<?xml version="1.0" encoding="UTF-8" standalone="no"?>
<!DOCTYPE svg PUBLIC "-//W3C//DTD SVG 1.1//EN"
 "http://www.w3.org/Graphics/SVG/1.1/DTD/svg11.dtd">
<!-- Generated by graphviz version 2.38.0 (20140413.2041)
 -->
<!-- Title: pool.h Pages: 1 -->
<svg width="656pt" height="263pt"
 viewBox="0.00 0.00 656.00 263.00" xmlns="http://www.w3.org/2000/svg" xmlns:xlink="http://www.w3.org/1999/xlink">
<g id="graph0" class="graph" transform="scale(1 1) rotate(0) translate(4 259)">
<title>pool.h</title>
<polygon fill="white" stroke="none" points="-4,4 -4,-259 652,-259 652,4 -4,4"/>
<!-- Node0 -->
<g id="node1" class="node"><title>Node0</title>
<polygon fill="#bfbfbf" stroke="black" points="210.5,-235.5 210.5,-254.5 256.5,-254.5 256.5,-235.5 210.5,-235.5"/>
<text text-anchor="middle" x="233.5" y="-242.5" font-family="Helvetica,sans-Serif" font-size="10.00">pool.h</text>
</g>
<!-- Node1 -->
<g id="node2" class="node"><title>Node1</title>
<polygon fill="white" stroke="#bfbfbf" points="0,-174 0,-193 101,-193 101,-174 0,-174"/>
<text text-anchor="middle" x="50.5" y="-181" font-family="Helvetica,sans-Serif" font-size="10.00">odp/api/abi/pool.h</text>
</g>
<!-- Node0&#45;&gt;Node1 -->
<g id="edge1" class="edge"><title>Node0&#45;&gt;Node1</title>
<path fill="none" stroke="midnightblue" d="M210.323,-236.464C179.114,-226.317 123.268,-208.16 86.5492,-196.221"/>
<polygon fill="midnightblue" stroke="midnightblue" points="87.3284,-192.794 76.7362,-193.03 85.1639,-199.451 87.3284,-192.794"/>
</g>
<!-- Node2 -->
<g id="node3" class="node"><title>Node2</title>
<polygon fill="white" stroke="#bfbfbf" points="119,-168.5 119,-198.5 224,-198.5 224,-168.5 119,-168.5"/>
<text text-anchor="start" x="127" y="-186.5" font-family="Helvetica,sans-Serif" font-size="10.00">odp/api/abi/shared</text>
<text text-anchor="middle" x="171.5" y="-175.5" font-family="Helvetica,sans-Serif" font-size="10.00">_memory.h</text>
</g>
<!-- Node0&#45;&gt;Node2 -->
<g id="edge2" class="edge"><title>Node0&#45;&gt;Node2</title>
<path fill="none" stroke="midnightblue" d="M224.617,-235.475C216.534,-227.718 204.265,-215.943 193.554,-205.665"/>
<polygon fill="midnightblue" stroke="midnightblue" points="195.751,-202.922 186.112,-198.523 190.904,-207.972 195.751,-202.922"/>
</g>
<!-- Node3 -->
<g id="node4" class="node"><title>Node3</title>
<polygon fill="white" stroke="#bfbfbf" points="242.5,-174 242.5,-193 350.5,-193 350.5,-174 242.5,-174"/>
<text text-anchor="middle" x="296.5" y="-181" font-family="Helvetica,sans-Serif" font-size="10.00">odp/api/abi/event.h</text>
</g>
<!-- Node0&#45;&gt;Node3 -->
<g id="edge3" class="edge"><title>Node0&#45;&gt;Node3</title>
<path fill="none" stroke="midnightblue" d="M242.526,-235.475C252.257,-226.285 267.958,-211.456 279.923,-200.156"/>
<polygon fill="midnightblue" stroke="midnightblue" points="282.623,-202.42 287.49,-193.009 277.817,-197.331 282.623,-202.42"/>
</g>
<!-- Node4 -->
<g id="node5" class="node"><title>Node4</title>
<g id="a_node5"><a xlink:href="api_2spec_2pool_8h.html" target="_top" xlink:title="ODP pool. ">
<polygon fill="white" stroke="black" points="368.5,-174 368.5,-193 478.5,-193 478.5,-174 368.5,-174"/>
<text text-anchor="middle" x="423.5" y="-181" font-family="Helvetica,sans-Serif" font-size="10.00">odp/api/spec/pool.h</text>
</a>
</g>
</g>
<!-- Node0&#45;&gt;Node4 -->
<g id="edge4" class="edge"><title>Node0&#45;&gt;Node4</title>
<path fill="none" stroke="midnightblue" d="M256.798,-236.704C289.181,-226.563 348.139,-208.1 386.555,-196.07"/>
<polygon fill="midnightblue" stroke="midnightblue" points="387.831,-199.338 396.328,-193.009 385.739,-192.658 387.831,-199.338"/>
</g>
<!-- Node5 -->
<g id="node6" class="node"><title>Node5</title>
<g id="a_node6"><a xlink:href="visibility__begin_8h_source.html" target="_top" xlink:title="odp/visibility_begin.h">
<polygon fill="white" stroke="black" points="268,-0.5 268,-19.5 383,-19.5 383,-0.5 268,-0.5"/>
<text text-anchor="middle" x="325.5" y="-7.5" font-family="Helvetica,sans-Serif" font-size="10.00">odp/visibility_begin.h</text>
</a>
</g>
</g>
<!-- Node4&#45;&gt;Node5 -->
<g id="edge5" class="edge"><title>Node4&#45;&gt;Node5</title>
<path fill="none" stroke="midnightblue" d="M400.421,-173.919C365.843,-159.648 301.845,-127.415 275.5,-76 265.769,-57.0099 284.57,-37.9765 301.83,-25.4593"/>
<polygon fill="midnightblue" stroke="midnightblue" points="304.243,-28.0515 310.556,-19.5424 300.315,-22.2578 304.243,-28.0515"/>
</g>
<!-- Node6 -->
<g id="node7" class="node"><title>Node6</title>
<g id="a_node7"><a xlink:href="api_2std__types_8h.html" target="_top" xlink:title="Standard C language types and definitions for ODP. ">
<polygon fill="white" stroke="black" points="368.5,-112.5 368.5,-131.5 478.5,-131.5 478.5,-112.5 368.5,-112.5"/>
<text text-anchor="middle" x="423.5" y="-119.5" font-family="Helvetica,sans-Serif" font-size="10.00">odp/api/std_types.h</text>
</a>
</g>
</g>
<!-- Node4&#45;&gt;Node6 -->
<g id="edge6" class="edge"><title>Node4&#45;&gt;Node6</title>
<path fill="none" stroke="midnightblue" d="M423.5,-173.975C423.5,-165.58 423.5,-152.481 423.5,-141.663"/>
<polygon fill="midnightblue" stroke="midnightblue" points="427,-141.509 423.5,-131.509 420,-141.509 427,-141.509"/>
</g>
<!-- Node10 -->
<g id="node11" class="node"><title>Node10</title>
<g id="a_node11"><a xlink:href="visibility__end_8h_source.html" target="_top" xlink:title="odp/visibility_end.h">
<polygon fill="white" stroke="black" points="541,-0.5 541,-19.5 648,-19.5 648,-0.5 541,-0.5"/>
<text text-anchor="middle" x="594.5" y="-7.5" font-family="Helvetica,sans-Serif" font-size="10.00">odp/visibility_end.h</text>
</a>
</g>
</g>
<!-- Node4&#45;&gt;Node10 -->
<g id="edge12" class="edge"><title>Node4&#45;&gt;Node10</title>
<path fill="none" stroke="midnightblue" d="M443.546,-173.892C476.163,-158.858 540.579,-124.708 575.5,-76 585.24,-62.414 590.022,-43.8679 592.349,-30.0628"/>
<polygon fill="midnightblue" stroke="midnightblue" points="595.866,-30.1821 593.78,-19.7945 588.933,-29.2153 595.866,-30.1821"/>
</g>
<!-- Node7 -->
<g id="node8" class="node"><title>Node7</title>
<polygon fill="white" stroke="#bfbfbf" points="284.5,-56.5 284.5,-75.5 412.5,-75.5 412.5,-56.5 284.5,-56.5"/>
<text text-anchor="middle" x="348.5" y="-63.5" font-family="Helvetica,sans-Serif" font-size="10.00">odp/api/abi/std_types.h</text>
</g>
<!-- Node6&#45;&gt;Node7 -->
<g id="edge7" class="edge"><title>Node6&#45;&gt;Node7</title>
<path fill="none" stroke="midnightblue" d="M411.45,-112.324C400.037,-104.107 382.669,-91.6017 369.065,-81.8069"/>
<polygon fill="midnightblue" stroke="midnightblue" points="370.93,-78.8366 360.769,-75.8339 366.84,-84.5174 370.93,-78.8366"/>
</g>
<!-- Node8 -->
<g id="node9" class="node"><title>Node8</title>
<g id="a_node9"><a xlink:href="api_2spec_2std__types_8h.html" target="_top" xlink:title="Standard C language types and definitions for ODP. ">
<polygon fill="white" stroke="black" points="430.5,-56.5 430.5,-75.5 566.5,-75.5 566.5,-56.5 430.5,-56.5"/>
<text text-anchor="middle" x="498.5" y="-63.5" font-family="Helvetica,sans-Serif" font-size="10.00">odp/api/spec/std_types.h</text>
</a>
</g>
</g>
<!-- Node6&#45;&gt;Node8 -->
<g id="edge8" class="edge"><title>Node6&#45;&gt;Node8</title>
<path fill="none" stroke="midnightblue" d="M435.55,-112.324C446.963,-104.107 464.331,-91.6017 477.935,-81.8069"/>
<polygon fill="midnightblue" stroke="midnightblue" points="480.16,-84.5174 486.231,-75.8339 476.07,-78.8366 480.16,-84.5174"/>
</g>
<!-- Node8&#45;&gt;Node5 -->
<g id="edge9" class="edge"><title>Node8&#45;&gt;Node5</title>
<path fill="none" stroke="midnightblue" d="M471.088,-56.4435C441.731,-47.2801 394.981,-32.6876 362.404,-22.5192"/>
<polygon fill="midnightblue" stroke="midnightblue" points="363.373,-19.1551 352.784,-19.5164 361.287,-25.8371 363.373,-19.1551"/>
</g>
<!-- Node9 -->
<g id="node10" class="node"><title>Node9</title>
<polygon fill="white" stroke="#bfbfbf" points="470,-0.5 470,-19.5 523,-19.5 523,-0.5 470,-0.5"/>
<text text-anchor="middle" x="496.5" y="-7.5" font-family="Helvetica,sans-Serif" font-size="10.00">stdint.h</text>
</g>
<!-- Node8&#45;&gt;Node9 -->
<g id="edge10" class="edge"><title>Node8&#45;&gt;Node9</title>
<path fill="none" stroke="midnightblue" d="M498.17,-56.083C497.908,-49.0059 497.532,-38.8611 497.203,-29.9865"/>
<polygon fill="midnightblue" stroke="midnightblue" points="500.692,-29.6147 496.824,-19.7511 493.697,-29.8738 500.692,-29.6147"/>
</g>
<!-- Node8&#45;&gt;Node10 -->
<g id="edge11" class="edge"><title>Node8&#45;&gt;Node10</title>
<path fill="none" stroke="midnightblue" d="M513.924,-56.324C529.04,-47.8215 552.315,-34.7288 569.971,-24.7975"/>
<polygon fill="midnightblue" stroke="midnightblue" points="572.114,-27.6077 579.114,-19.6545 568.683,-21.5066 572.114,-27.6077"/>
</g>
</g>
</svg>
