<?xml version="1.0" encoding="UTF-8" standalone="no"?>
<!DOCTYPE svg PUBLIC "-//W3C//DTD SVG 1.1//EN"
 "http://www.w3.org/Graphics/SVG/1.1/DTD/svg11.dtd">
<!-- Generated by graphviz version 2.38.0 (20140413.2041)
 -->
<!-- Title: packet_io.h Pages: 1 -->
<svg width="1695pt" height="677pt"
 viewBox="0.00 0.00 1695.24 677.00" xmlns="http://www.w3.org/2000/svg" xmlns:xlink="http://www.w3.org/1999/xlink">
<g id="graph0" class="graph" transform="scale(1 1) rotate(0) translate(4 673)">
<title>packet_io.h</title>
<polygon fill="white" stroke="none" points="-4,4 -4,-673 1691.24,-673 1691.24,4 -4,4"/>
<!-- Node0 -->
<g id="node1" class="node"><title>Node0</title>
<polygon fill="#bfbfbf" stroke="black" points="182.761,-649.5 182.761,-668.5 253.761,-668.5 253.761,-649.5 182.761,-649.5"/>
<text text-anchor="middle" x="218.261" y="-656.5" font-family="Helvetica,sans-Serif" font-size="10.00">packet_io.h</text>
</g>
<!-- Node1 -->
<g id="node2" class="node"><title>Node1</title>
<g id="a_node2"><a xlink:href="api_2std__types_8h.html" target="_top" xlink:title="Standard C language types and definitions for ODP. ">
<polygon fill="white" stroke="black" points="441.261,-123.5 441.261,-142.5 551.261,-142.5 551.261,-123.5 441.261,-123.5"/>
<text text-anchor="middle" x="496.261" y="-130.5" font-family="Helvetica,sans-Serif" font-size="10.00">odp/api/std_types.h</text>
</a>
</g>
</g>
<!-- Node0&#45;&gt;Node1 -->
<g id="edge1" class="edge"><title>Node0&#45;&gt;Node1</title>
<path fill="none" stroke="midnightblue" d="M216.292,-649.418C213.281,-636.818 207.053,-612.676 199.261,-593 136.314,-434.049 -72.4645,-380.35 33.2608,-246 82.037,-184.018 315.167,-152.222 430.851,-140.04"/>
<polygon fill="midnightblue" stroke="midnightblue" points="431.41,-143.501 440.997,-138.99 430.69,-136.538 431.41,-143.501"/>
</g>
<!-- Node7 -->
<g id="node8" class="node"><title>Node7</title>
<polygon fill="white" stroke="#bfbfbf" points="357.761,-246.5 357.761,-265.5 458.761,-265.5 458.761,-246.5 357.761,-246.5"/>
<text text-anchor="middle" x="408.261" y="-253.5" font-family="Helvetica,sans-Serif" font-size="10.00">odp/api/abi/pool.h</text>
</g>
<!-- Node0&#45;&gt;Node7 -->
<g id="edge7" class="edge"><title>Node0&#45;&gt;Node7</title>
<path fill="none" stroke="midnightblue" d="M223.545,-649.231C233.986,-631.043 256.261,-587.601 256.261,-548 256.261,-548 256.261,-548 256.261,-490 256.261,-393.957 347.975,-306.533 388.921,-272.29"/>
<polygon fill="midnightblue" stroke="midnightblue" points="391.318,-274.85 396.836,-265.806 386.882,-269.435 391.318,-274.85"/>
</g>
<!-- Node8 -->
<g id="node9" class="node"><title>Node8</title>
<polygon fill="white" stroke="#bfbfbf" points="48.2608,-593.5 48.2608,-612.5 190.261,-612.5 190.261,-593.5 48.2608,-593.5"/>
<text text-anchor="middle" x="119.261" y="-600.5" font-family="Helvetica,sans-Serif" font-size="10.00">odp/api/abi/classification.h</text>
</g>
<!-- Node0&#45;&gt;Node8 -->
<g id="edge8" class="edge"><title>Node0&#45;&gt;Node8</title>
<path fill="none" stroke="midnightblue" d="M202.355,-649.324C186.623,-640.743 162.318,-627.486 144.052,-617.522"/>
<polygon fill="midnightblue" stroke="midnightblue" points="145.582,-614.37 135.127,-612.655 142.23,-620.516 145.582,-614.37"/>
</g>
<!-- Node9 -->
<g id="node10" class="node"><title>Node9</title>
<polygon fill="white" stroke="#bfbfbf" points="42.7608,-246.5 42.7608,-265.5 155.761,-265.5 155.761,-246.5 42.7608,-246.5"/>
<text text-anchor="middle" x="99.2608" y="-253.5" font-family="Helvetica,sans-Serif" font-size="10.00">odp/api/abi/packet.h</text>
</g>
<!-- Node0&#45;&gt;Node9 -->
<g id="edge9" class="edge"><title>Node0&#45;&gt;Node9</title>
<path fill="none" stroke="midnightblue" d="M182.484,-654.531C133.793,-648.987 50.5976,-636.302 32.2608,-613 -50.8397,-507.397 51.4549,-330.072 87.5553,-274.319"/>
<polygon fill="midnightblue" stroke="midnightblue" points="90.7006,-275.907 93.2876,-265.633 84.8582,-272.051 90.7006,-275.907"/>
</g>
<!-- Node10 -->
<g id="node11" class="node"><title>Node10</title>
<polygon fill="white" stroke="#bfbfbf" points="212.761,-246.5 212.761,-265.5 339.761,-265.5 339.761,-246.5 212.761,-246.5"/>
<text text-anchor="middle" x="276.261" y="-253.5" font-family="Helvetica,sans-Serif" font-size="10.00">odp/api/abi/packet_io.h</text>
</g>
<!-- Node0&#45;&gt;Node10 -->
<g id="edge10" class="edge"><title>Node0&#45;&gt;Node10</title>
<path fill="none" stroke="midnightblue" d="M182.625,-654.178C135.593,-648.315 56.6982,-635.364 39.2608,-613 33.7951,-605.99 36.5986,-601.481 39.2608,-593 83.8328,-451.007 212.991,-317.445 259.403,-272.755"/>
<polygon fill="midnightblue" stroke="midnightblue" points="262.001,-275.114 266.832,-265.684 257.175,-270.043 262.001,-275.114"/>
</g>
<!-- Node11 -->
<g id="node12" class="node"><title>Node11</title>
<polygon fill="white" stroke="#bfbfbf" points="322.761,-481.5 322.761,-500.5 433.761,-500.5 433.761,-481.5 322.761,-481.5"/>
<text text-anchor="middle" x="378.261" y="-488.5" font-family="Helvetica,sans-Serif" font-size="10.00">odp/api/abi/queue.h</text>
</g>
<!-- Node0&#45;&gt;Node11 -->
<g id="edge11" class="edge"><title>Node0&#45;&gt;Node11</title>
<path fill="none" stroke="midnightblue" d="M228.972,-649.416C239.741,-640.631 256.65,-626.403 270.261,-613 306.355,-577.455 345.056,-532.111 364.874,-508.295"/>
<polygon fill="midnightblue" stroke="midnightblue" points="367.602,-510.488 371.281,-500.553 362.209,-506.025 367.602,-510.488"/>
</g>
<!-- Node12 -->
<g id="node13" class="node"><title>Node12</title>
<g id="a_node13"><a xlink:href="api_2spec_2packet__io_8h.html" target="_top" xlink:title="ODP Packet IO. ">
<polygon fill="white" stroke="black" points="547.761,-593.5 547.761,-612.5 682.761,-612.5 682.761,-593.5 547.761,-593.5"/>
<text text-anchor="middle" x="615.261" y="-600.5" font-family="Helvetica,sans-Serif" font-size="10.00">odp/api/spec/packet_io.h</text>
</a>
</g>
</g>
<!-- Node0&#45;&gt;Node12 -->
<g id="edge12" class="edge"><title>Node0&#45;&gt;Node12</title>
<path fill="none" stroke="midnightblue" d="M253.841,-653.16C318.583,-644.354 456.836,-625.549 542.34,-613.919"/>
<polygon fill="midnightblue" stroke="midnightblue" points="543.06,-617.353 552.497,-612.537 542.117,-610.417 543.06,-617.353"/>
</g>
<!-- Node2 -->
<g id="node3" class="node"><title>Node2</title>
<polygon fill="white" stroke="#bfbfbf" points="582.261,-62 582.261,-81 710.261,-81 710.261,-62 582.261,-62"/>
<text text-anchor="middle" x="646.261" y="-69" font-family="Helvetica,sans-Serif" font-size="10.00">odp/api/abi/std_types.h</text>
</g>
<!-- Node1&#45;&gt;Node2 -->
<g id="edge2" class="edge"><title>Node1&#45;&gt;Node2</title>
<path fill="none" stroke="midnightblue" d="M517.752,-123.475C543.371,-113.313 586.371,-96.2564 615.505,-84.6996"/>
<polygon fill="midnightblue" stroke="midnightblue" points="616.804,-87.9497 624.809,-81.0091 614.223,-81.4429 616.804,-87.9497"/>
</g>
<!-- Node3 -->
<g id="node4" class="node"><title>Node3</title>
<g id="a_node4"><a xlink:href="api_2spec_2std__types_8h.html" target="_top" xlink:title="Standard C language types and definitions for ODP. ">
<polygon fill="white" stroke="black" points="428.261,-62 428.261,-81 564.261,-81 564.261,-62 428.261,-62"/>
<text text-anchor="middle" x="496.261" y="-69" font-family="Helvetica,sans-Serif" font-size="10.00">odp/api/spec/std_types.h</text>
</a>
</g>
</g>
<!-- Node1&#45;&gt;Node3 -->
<g id="edge3" class="edge"><title>Node1&#45;&gt;Node3</title>
<path fill="none" stroke="midnightblue" d="M496.261,-123.475C496.261,-115.08 496.261,-101.981 496.261,-91.1631"/>
<polygon fill="midnightblue" stroke="midnightblue" points="499.761,-91.0091 496.261,-81.0091 492.761,-91.0091 499.761,-91.0091"/>
</g>
<!-- Node4 -->
<g id="node5" class="node"><title>Node4</title>
<g id="a_node5"><a xlink:href="visibility__begin_8h_source.html" target="_top" xlink:title="odp/visibility_begin.h">
<polygon fill="white" stroke="black" points="1282.76,-0.5 1282.76,-19.5 1397.76,-19.5 1397.76,-0.5 1282.76,-0.5"/>
<text text-anchor="middle" x="1340.26" y="-7.5" font-family="Helvetica,sans-Serif" font-size="10.00">odp/visibility_begin.h</text>
</a>
</g>
</g>
<!-- Node3&#45;&gt;Node4 -->
<g id="edge4" class="edge"><title>Node3&#45;&gt;Node4</title>
<path fill="none" stroke="midnightblue" d="M536.472,-61.9257C548.277,-59.6806 561.245,-57.4778 573.261,-56 830.03,-24.422 1137.97,-14.8629 1272.17,-12.0841"/>
<polygon fill="midnightblue" stroke="midnightblue" points="1272.38,-15.5808 1282.3,-11.8804 1272.23,-8.58219 1272.38,-15.5808"/>
</g>
<!-- Node5 -->
<g id="node6" class="node"><title>Node5</title>
<polygon fill="white" stroke="#bfbfbf" points="469.761,-0.5 469.761,-19.5 522.761,-19.5 522.761,-0.5 469.761,-0.5"/>
<text text-anchor="middle" x="496.261" y="-7.5" font-family="Helvetica,sans-Serif" font-size="10.00">stdint.h</text>
</g>
<!-- Node3&#45;&gt;Node5 -->
<g id="edge5" class="edge"><title>Node3&#45;&gt;Node5</title>
<path fill="none" stroke="midnightblue" d="M496.261,-61.9751C496.261,-53.5803 496.261,-40.4806 496.261,-29.6631"/>
<polygon fill="midnightblue" stroke="midnightblue" points="499.761,-29.5091 496.261,-19.5091 492.761,-29.5091 499.761,-29.5091"/>
</g>
<!-- Node6 -->
<g id="node7" class="node"><title>Node6</title>
<g id="a_node7"><a xlink:href="visibility__end_8h_source.html" target="_top" xlink:title="odp/visibility_end.h">
<polygon fill="white" stroke="black" points="890.761,-0.5 890.761,-19.5 997.761,-19.5 997.761,-0.5 890.761,-0.5"/>
<text text-anchor="middle" x="944.261" y="-7.5" font-family="Helvetica,sans-Serif" font-size="10.00">odp/visibility_end.h</text>
</a>
</g>
</g>
<!-- Node3&#45;&gt;Node6 -->
<g id="edge6" class="edge"><title>Node3&#45;&gt;Node6</title>
<path fill="none" stroke="midnightblue" d="M538.94,-61.9481C550.086,-59.8562 562.103,-57.7254 573.261,-56 680.736,-39.3808 806.519,-25.233 880.562,-17.445"/>
<polygon fill="midnightblue" stroke="midnightblue" points="881.077,-20.9102 890.659,-16.3887 880.349,-13.9482 881.077,-20.9102"/>
</g>
<!-- Node12&#45;&gt;Node4 -->
<g id="edge13" class="edge"><title>Node12&#45;&gt;Node4</title>
<path fill="none" stroke="midnightblue" d="M682.928,-601.235C909.179,-598.402 1627.32,-587.068 1666.26,-557 1690.18,-538.527 1686.26,-522.225 1686.26,-492 1686.26,-492 1686.26,-492 1686.26,-132 1686.26,-86.9705 1658.69,-77.7494 1619.26,-56 1583.89,-36.4904 1478.61,-23.4617 1407.97,-16.6478"/>
<polygon fill="midnightblue" stroke="midnightblue" points="1408.1,-13.1443 1397.81,-15.6875 1407.44,-20.1132 1408.1,-13.1443"/>
</g>
<!-- Node12&#45;&gt;Node6 -->
<g id="edge67" class="edge"><title>Node12&#45;&gt;Node6</title>
<path fill="none" stroke="midnightblue" d="M566.588,-593.472C423.51,-565.337 14.2608,-461.603 14.2608,-195.5 14.2608,-195.5 14.2608,-195.5 14.2608,-132 14.2608,-44.4865 670.197,-18.623 880.325,-12.5829"/>
<polygon fill="midnightblue" stroke="midnightblue" points="880.683,-16.0743 890.58,-12.2937 880.486,-9.07706 880.683,-16.0743"/>
</g>
<!-- Node13 -->
<g id="node14" class="node"><title>Node13</title>
<g id="a_node14"><a xlink:href="deprecated_8h.html" target="_top" xlink:title="Control deprecated API definitions. ">
<polygon fill="white" stroke="black" points="1383.76,-246.5 1383.76,-265.5 1502.76,-265.5 1502.76,-246.5 1383.76,-246.5"/>
<text text-anchor="middle" x="1443.26" y="-253.5" font-family="Helvetica,sans-Serif" font-size="10.00">odp/api/deprecated.h</text>
</a>
</g>
</g>
<!-- Node12&#45;&gt;Node13 -->
<g id="edge14" class="edge"><title>Node12&#45;&gt;Node13</title>
<path fill="none" stroke="midnightblue" d="M682.83,-600.587C888.069,-595.409 1490.26,-573.289 1490.26,-492 1490.26,-492 1490.26,-492 1490.26,-378 1490.26,-338.759 1468.52,-296.92 1454.61,-274.172"/>
<polygon fill="midnightblue" stroke="midnightblue" points="1457.52,-272.23 1449.21,-265.655 1451.61,-275.976 1457.52,-272.23"/>
</g>
<!-- Node15 -->
<g id="node16" class="node"><title>Node15</title>
<g id="a_node16"><a xlink:href="packet__io__stats_8h.html" target="_top" xlink:title="ODP packet IO stats. ">
<polygon fill="white" stroke="black" points="1518.76,-537.5 1518.76,-556.5 1657.76,-556.5 1657.76,-537.5 1518.76,-537.5"/>
<text text-anchor="middle" x="1588.26" y="-544.5" font-family="Helvetica,sans-Serif" font-size="10.00">odp/api/packet_io_stats.h</text>
</a>
</g>
</g>
<!-- Node12&#45;&gt;Node15 -->
<g id="edge18" class="edge"><title>Node12&#45;&gt;Node15</title>
<path fill="none" stroke="midnightblue" d="M682.816,-599.876C831.469,-594.918 1198.07,-581.134 1504.26,-557 1505.58,-556.896 1506.9,-556.789 1508.24,-556.678"/>
<polygon fill="midnightblue" stroke="midnightblue" points="1508.96,-560.128 1518.62,-555.766 1508.35,-553.155 1508.96,-560.128"/>
</g>
<!-- Node17 -->
<g id="node18" class="node"><title>Node17</title>
<g id="a_node18"><a xlink:href="api_2queue_8h.html" target="_top" xlink:title="ODP queue. ">
<polygon fill="white" stroke="black" points="530.261,-537.5 530.261,-556.5 624.261,-556.5 624.261,-537.5 530.261,-537.5"/>
<text text-anchor="middle" x="577.261" y="-544.5" font-family="Helvetica,sans-Serif" font-size="10.00">odp/api/queue.h</text>
</a>
</g>
</g>
<!-- Node12&#45;&gt;Node17 -->
<g id="edge22" class="edge"><title>Node12&#45;&gt;Node17</title>
<path fill="none" stroke="midnightblue" d="M608.986,-593.083C603.618,-585.455 595.743,-574.264 589.182,-564.941"/>
<polygon fill="midnightblue" stroke="midnightblue" points="592.036,-562.915 583.419,-556.751 586.312,-566.943 592.036,-562.915"/>
</g>
<!-- Node23 -->
<g id="node24" class="node"><title>Node23</title>
<g id="a_node24"><a xlink:href="api_2packet_8h.html" target="_top" xlink:title="ODP packet descriptor. ">
<polygon fill="white" stroke="black" points="566.261,-308 566.261,-327 662.261,-327 662.261,-308 566.261,-308"/>
<text text-anchor="middle" x="614.261" y="-315" font-family="Helvetica,sans-Serif" font-size="10.00">odp/api/packet.h</text>
</a>
</g>
</g>
<!-- Node12&#45;&gt;Node23 -->
<g id="edge66" class="edge"><title>Node12&#45;&gt;Node23</title>
<path fill="none" stroke="midnightblue" d="M620.251,-593.49C630.35,-575.436 652.261,-531.693 652.261,-492 652.261,-492 652.261,-492 652.261,-434 652.261,-397.754 635.166,-358.171 623.908,-336.033"/>
<polygon fill="midnightblue" stroke="midnightblue" points="626.991,-334.375 619.229,-327.163 620.799,-337.641 626.991,-334.375"/>
</g>
<!-- Node25 -->
<g id="node26" class="node"><title>Node25</title>
<g id="a_node26"><a xlink:href="api_2time_8h.html" target="_top" xlink:title="ODP time. ">
<polygon fill="white" stroke="black" points="571.261,-185 571.261,-204 657.261,-204 657.261,-185 571.261,-185"/>
<text text-anchor="middle" x="614.261" y="-192" font-family="Helvetica,sans-Serif" font-size="10.00">odp/api/time.h</text>
</a>
</g>
</g>
<!-- Node12&#45;&gt;Node25 -->
<g id="edge65" class="edge"><title>Node12&#45;&gt;Node25</title>
<path fill="none" stroke="midnightblue" d="M592.123,-593.356C572.382,-585.426 543.712,-572.567 521.261,-557 481.223,-529.239 477.932,-514.186 442.261,-481 333.192,-379.532 104.556,-357.575 203.261,-246 226.598,-219.619 455.062,-204.034 560.918,-198.176"/>
<polygon fill="midnightblue" stroke="midnightblue" points="561.278,-201.662 571.072,-197.623 560.897,-194.672 561.278,-201.662"/>
</g>
<!-- Node14 -->
<g id="node15" class="node"><title>Node14</title>
<g id="a_node15"><a xlink:href="spec_2deprecated_8h.html" target="_top" xlink:title="Macro for deprecated API definitions. ">
<polygon fill="white" stroke="black" points="1268.26,-62 1268.26,-81 1412.26,-81 1412.26,-62 1268.26,-62"/>
<text text-anchor="middle" x="1340.26" y="-69" font-family="Helvetica,sans-Serif" font-size="10.00">odp/api/spec/deprecated.h</text>
</a>
</g>
</g>
<!-- Node13&#45;&gt;Node14 -->
<g id="edge15" class="edge"><title>Node13&#45;&gt;Node14</title>
<path fill="none" stroke="midnightblue" d="M1438.29,-246.198C1422.28,-217.831 1371.83,-128.44 1350.23,-90.1693"/>
<polygon fill="midnightblue" stroke="midnightblue" points="1353.14,-88.2025 1345.18,-81.214 1347.05,-91.6431 1353.14,-88.2025"/>
</g>
<!-- Node14&#45;&gt;Node4 -->
<g id="edge16" class="edge"><title>Node14&#45;&gt;Node4</title>
<path fill="none" stroke="midnightblue" d="M1340.26,-61.9751C1340.26,-53.5803 1340.26,-40.4806 1340.26,-29.6631"/>
<polygon fill="midnightblue" stroke="midnightblue" points="1343.76,-29.5091 1340.26,-19.5091 1336.76,-29.5091 1343.76,-29.5091"/>
</g>
<!-- Node14&#45;&gt;Node6 -->
<g id="edge17" class="edge"><title>Node14&#45;&gt;Node6</title>
<path fill="none" stroke="midnightblue" d="M1283.52,-61.9751C1210.56,-51.0118 1084.19,-32.0243 1007.99,-20.575"/>
<polygon fill="midnightblue" stroke="midnightblue" points="1008.44,-17.1046 998.036,-19.0798 1007.4,-24.0269 1008.44,-17.1046"/>
</g>
<!-- Node16 -->
<g id="node17" class="node"><title>Node16</title>
<g id="a_node17"><a xlink:href="spec_2packet__io__stats_8h.html" target="_top" xlink:title="ODP Packet IO. ">
<polygon fill="white" stroke="black" points="1430.76,-56.5 1430.76,-86.5 1543.76,-86.5 1543.76,-56.5 1430.76,-56.5"/>
<text text-anchor="start" x="1438.76" y="-74.5" font-family="Helvetica,sans-Serif" font-size="10.00">odp/api/spec/packet</text>
<text text-anchor="middle" x="1487.26" y="-63.5" font-family="Helvetica,sans-Serif" font-size="10.00">_io_stats.h</text>
</a>
</g>
</g>
<!-- Node15&#45;&gt;Node16 -->
<g id="edge19" class="edge"><title>Node15&#45;&gt;Node16</title>
<path fill="none" stroke="midnightblue" d="M1590.82,-537.249C1596.01,-518.738 1607.26,-474.179 1607.26,-436 1607.26,-436 1607.26,-436 1607.26,-316.5 1607.26,-226.405 1540.57,-135.031 1506.62,-94.3592"/>
<polygon fill="midnightblue" stroke="midnightblue" points="1509.25,-92.0447 1500.1,-86.6921 1503.91,-96.5783 1509.25,-92.0447"/>
</g>
<!-- Node16&#45;&gt;Node4 -->
<g id="edge20" class="edge"><title>Node16&#45;&gt;Node4</title>
<path fill="none" stroke="midnightblue" d="M1452.42,-56.3993C1427.76,-46.4163 1394.98,-33.1465 1371.23,-23.5335"/>
<polygon fill="midnightblue" stroke="midnightblue" points="1372.23,-20.1654 1361.65,-19.6578 1369.61,-26.6541 1372.23,-20.1654"/>
</g>
<!-- Node16&#45;&gt;Node6 -->
<g id="edge21" class="edge"><title>Node16&#45;&gt;Node6</title>
<path fill="none" stroke="midnightblue" d="M1430.46,-57.5598C1427.36,-56.9966 1424.27,-56.4714 1421.26,-56 1274.27,-33.0086 1099.84,-20.1779 1008.06,-14.5328"/>
<polygon fill="midnightblue" stroke="midnightblue" points="1008.01,-11.0238 997.821,-13.912 1007.59,-18.011 1008.01,-11.0238"/>
</g>
<!-- Node17&#45;&gt;Node1 -->
<g id="edge23" class="edge"><title>Node17&#45;&gt;Node1</title>
<path fill="none" stroke="midnightblue" d="M571.838,-537.25C561.122,-519.096 538.261,-475.713 538.261,-436 538.261,-436 538.261,-436 538.261,-378 538.261,-301.638 513.29,-285.561 502.261,-210 499.458,-190.797 497.897,-168.66 497.076,-153.249"/>
<polygon fill="midnightblue" stroke="midnightblue" points="500.556,-152.757 496.583,-142.935 493.564,-153.091 500.556,-152.757"/>
</g>
<!-- Node17&#45;&gt;Node7 -->
<g id="edge27" class="edge"><title>Node17&#45;&gt;Node7</title>
<path fill="none" stroke="midnightblue" d="M563.333,-537.198C551.489,-529.081 534.776,-516.035 524.261,-501 506.612,-475.764 500.261,-466.795 500.261,-436 500.261,-436 500.261,-436 500.261,-378 500.261,-331.566 456.798,-291.8 429.619,-271.472"/>
<polygon fill="midnightblue" stroke="midnightblue" points="431.599,-268.585 421.442,-265.571 427.503,-274.261 431.599,-268.585"/>
</g>
<!-- Node17&#45;&gt;Node11 -->
<g id="edge25" class="edge"><title>Node17&#45;&gt;Node11</title>
<path fill="none" stroke="midnightblue" d="M545.729,-537.444C511.669,-528.201 457.255,-513.436 419.746,-503.257"/>
<polygon fill="midnightblue" stroke="midnightblue" points="420.213,-499.758 409.645,-500.516 418.38,-506.513 420.213,-499.758"/>
</g>
<!-- Node18 -->
<g id="node19" class="node"><title>Node18</title>
<polygon fill="white" stroke="#bfbfbf" points="819.261,-246.5 819.261,-265.5 927.261,-265.5 927.261,-246.5 819.261,-246.5"/>
<text text-anchor="middle" x="873.261" y="-253.5" font-family="Helvetica,sans-Serif" font-size="10.00">odp/api/abi/event.h</text>
</g>
<!-- Node17&#45;&gt;Node18 -->
<g id="edge24" class="edge"><title>Node17&#45;&gt;Node18</title>
<path fill="none" stroke="midnightblue" d="M624.494,-537.901C677.228,-525.834 755.261,-497.575 755.261,-436 755.261,-436 755.261,-436 755.261,-378 755.261,-326.772 810.142,-289.141 845.048,-270.386"/>
<polygon fill="midnightblue" stroke="midnightblue" points="847.027,-273.304 854.302,-265.602 843.812,-267.086 847.027,-273.304"/>
</g>
<!-- Node19 -->
<g id="node20" class="node"><title>Node19</title>
<polygon fill="white" stroke="#bfbfbf" points="693.261,-246.5 693.261,-265.5 801.261,-265.5 801.261,-246.5 693.261,-246.5"/>
<text text-anchor="middle" x="747.261" y="-253.5" font-family="Helvetica,sans-Serif" font-size="10.00">odp/api/abi/buffer.h</text>
</g>
<!-- Node17&#45;&gt;Node19 -->
<g id="edge26" class="edge"><title>Node17&#45;&gt;Node19</title>
<path fill="none" stroke="midnightblue" d="M582.349,-537.351C605.909,-497.299 704.631,-329.471 736.962,-274.508"/>
<polygon fill="midnightblue" stroke="midnightblue" points="740.139,-276.009 742.193,-265.615 734.106,-272.46 740.139,-276.009"/>
</g>
<!-- Node20 -->
<g id="node21" class="node"><title>Node20</title>
<g id="a_node21"><a xlink:href="api_2spec_2queue_8h.html" target="_top" xlink:title="ODP queue. ">
<polygon fill="white" stroke="black" points="933.761,-481.5 933.761,-500.5 1052.76,-500.5 1052.76,-481.5 933.761,-481.5"/>
<text text-anchor="middle" x="993.261" y="-488.5" font-family="Helvetica,sans-Serif" font-size="10.00">odp/api/spec/queue.h</text>
</a>
</g>
</g>
<!-- Node17&#45;&gt;Node20 -->
<g id="edge28" class="edge"><title>Node17&#45;&gt;Node20</title>
<path fill="none" stroke="midnightblue" d="M624.576,-539.858C697.734,-530.362 838.699,-512.063 923.544,-501.05"/>
<polygon fill="midnightblue" stroke="midnightblue" points="924.138,-504.502 933.604,-499.744 923.237,-497.56 924.138,-504.502"/>
</g>
<!-- Node20&#45;&gt;Node4 -->
<g id="edge29" class="edge"><title>Node20&#45;&gt;Node4</title>
<path fill="none" stroke="midnightblue" d="M1052.86,-483.099C1178.8,-464.903 1470.01,-402.895 1587.26,-210 1622.84,-151.469 1643.74,-102.296 1593.26,-56 1566.81,-31.7424 1473.67,-20.2012 1408.12,-14.9738"/>
<polygon fill="midnightblue" stroke="midnightblue" points="1408.09,-11.4612 1397.85,-14.1881 1407.56,-18.4408 1408.09,-11.4612"/>
</g>
<!-- Node20&#45;&gt;Node6 -->
<g id="edge64" class="edge"><title>Node20&#45;&gt;Node6</title>
<path fill="none" stroke="midnightblue" d="M993.261,-481.442C993.261,-462.936 993.261,-417.812 993.261,-380 993.261,-380 993.261,-380 993.261,-316.5 993.261,-206.598 961.963,-77.2317 949.394,-29.7115"/>
<polygon fill="midnightblue" stroke="midnightblue" points="952.736,-28.6603 946.758,-19.9129 945.976,-30.4788 952.736,-28.6603"/>
</g>
<!-- Node21 -->
<g id="node22" class="node"><title>Node21</title>
<g id="a_node22"><a xlink:href="api_2event_8h.html" target="_top" xlink:title="ODP event. ">
<polygon fill="white" stroke="black" points="861.761,-425.5 861.761,-444.5 952.761,-444.5 952.761,-425.5 861.761,-425.5"/>
<text text-anchor="middle" x="907.261" y="-432.5" font-family="Helvetica,sans-Serif" font-size="10.00">odp/api/event.h</text>
</a>
</g>
</g>
<!-- Node20&#45;&gt;Node21 -->
<g id="edge30" class="edge"><title>Node20&#45;&gt;Node21</title>
<path fill="none" stroke="midnightblue" d="M979.443,-481.324C966.028,-472.9 945.437,-459.971 929.675,-450.074"/>
<polygon fill="midnightblue" stroke="midnightblue" points="931.374,-447.008 921.044,-444.655 927.652,-452.936 931.374,-447.008"/>
</g>
<!-- Node28 -->
<g id="node29" class="node"><title>Node28</title>
<g id="a_node29"><a xlink:href="queue__types_8h.html" target="_top" xlink:title="ODP queue types. ">
<polygon fill="white" stroke="black" points="1160.26,-302.5 1160.26,-332.5 1270.26,-332.5 1270.26,-302.5 1160.26,-302.5"/>
<text text-anchor="start" x="1168.26" y="-320.5" font-family="Helvetica,sans-Serif" font-size="10.00">odp/api/spec/queue</text>
<text text-anchor="middle" x="1215.26" y="-309.5" font-family="Helvetica,sans-Serif" font-size="10.00">_types.h</text>
</a>
</g>
</g>
<!-- Node20&#45;&gt;Node28 -->
<g id="edge51" class="edge"><title>Node20&#45;&gt;Node28</title>
<path fill="none" stroke="midnightblue" d="M1004.27,-481.495C1037.94,-455.481 1140.22,-376.468 1188.93,-338.84"/>
<polygon fill="midnightblue" stroke="midnightblue" points="1191.33,-341.413 1197.1,-332.53 1187.05,-335.874 1191.33,-341.413"/>
</g>
<!-- Node21&#45;&gt;Node18 -->
<g id="edge31" class="edge"><title>Node21&#45;&gt;Node18</title>
<path fill="none" stroke="midnightblue" d="M884.472,-425.471C868.935,-418.316 849.553,-406.435 840.261,-389 819.976,-350.94 845.41,-300.027 861.669,-273.953"/>
<polygon fill="midnightblue" stroke="midnightblue" points="864.622,-275.832 867.142,-265.541 858.754,-272.014 864.622,-275.832"/>
</g>
<!-- Node22 -->
<g id="node23" class="node"><title>Node22</title>
<g id="a_node23"><a xlink:href="api_2spec_2event_8h.html" target="_top" xlink:title="ODP event. ">
<polygon fill="white" stroke="black" points="849.261,-369.5 849.261,-388.5 965.261,-388.5 965.261,-369.5 849.261,-369.5"/>
<text text-anchor="middle" x="907.261" y="-376.5" font-family="Helvetica,sans-Serif" font-size="10.00">odp/api/spec/event.h</text>
</a>
</g>
</g>
<!-- Node21&#45;&gt;Node22 -->
<g id="edge32" class="edge"><title>Node21&#45;&gt;Node22</title>
<path fill="none" stroke="midnightblue" d="M907.261,-425.083C907.261,-418.006 907.261,-407.861 907.261,-398.986"/>
<polygon fill="midnightblue" stroke="midnightblue" points="910.761,-398.751 907.261,-388.751 903.761,-398.751 910.761,-398.751"/>
</g>
<!-- Node22&#45;&gt;Node4 -->
<g id="edge33" class="edge"><title>Node22&#45;&gt;Node4</title>
<path fill="none" stroke="midnightblue" d="M965.461,-375.197C1101.32,-367.442 1433.73,-341.069 1511.26,-266 1580.82,-198.644 1630.77,-130.778 1569.26,-56 1549.13,-31.5231 1468.07,-20.1568 1408.08,-15.0181"/>
<polygon fill="midnightblue" stroke="midnightblue" points="1408.15,-11.512 1397.9,-14.1874 1407.58,-18.4888 1408.15,-11.512"/>
</g>
<!-- Node22&#45;&gt;Node6 -->
<g id="edge50" class="edge"><title>Node22&#45;&gt;Node6</title>
<path fill="none" stroke="midnightblue" d="M910.278,-369.433C916.636,-350.875 931.236,-305.451 936.261,-266 948.058,-173.377 916.233,-148.312 930.261,-56 931.628,-47.001 934.451,-37.3251 937.206,-29.2601"/>
<polygon fill="midnightblue" stroke="midnightblue" points="940.526,-30.3722 940.661,-19.7782 933.949,-27.9759 940.526,-30.3722"/>
</g>
<!-- Node22&#45;&gt;Node23 -->
<g id="edge34" class="edge"><title>Node22&#45;&gt;Node23</title>
<path fill="none" stroke="midnightblue" d="M865.281,-369.475C812.737,-358.805 722.762,-340.534 666.01,-329.009"/>
<polygon fill="midnightblue" stroke="midnightblue" points="666.659,-325.569 656.163,-327.009 665.266,-332.429 666.659,-325.569"/>
</g>
<!-- Node23&#45;&gt;Node1 -->
<g id="edge35" class="edge"><title>Node23&#45;&gt;Node1</title>
<path fill="none" stroke="midnightblue" d="M597.015,-307.939C581.268,-299.321 558.358,-284.648 544.261,-266 517.755,-230.938 504.778,-179.81 499.42,-152.623"/>
<polygon fill="midnightblue" stroke="midnightblue" points="502.819,-151.758 497.572,-142.553 495.934,-153.021 502.819,-151.758"/>
</g>
<!-- Node23&#45;&gt;Node7 -->
<g id="edge40" class="edge"><title>Node23&#45;&gt;Node7</title>
<path fill="none" stroke="midnightblue" d="M584.746,-307.975C548.645,-297.548 487.413,-279.862 447.406,-268.307"/>
<polygon fill="midnightblue" stroke="midnightblue" points="448.299,-264.922 437.721,-265.509 446.357,-271.647 448.299,-264.922"/>
</g>
<!-- Node23&#45;&gt;Node9 -->
<g id="edge38" class="edge"><title>Node23&#45;&gt;Node9</title>
<path fill="none" stroke="midnightblue" d="M565.811,-310.902C473.364,-300.222 271.642,-276.916 166.315,-264.747"/>
<polygon fill="midnightblue" stroke="midnightblue" points="166.457,-261.24 156.121,-263.569 165.653,-268.194 166.457,-261.24"/>
</g>
<!-- Node23&#45;&gt;Node10 -->
<g id="edge37" class="edge"><title>Node23&#45;&gt;Node10</title>
<path fill="none" stroke="midnightblue" d="M566.193,-308.038C505.296,-297.318 400.407,-278.854 334.877,-267.319"/>
<polygon fill="midnightblue" stroke="midnightblue" points="335.166,-263.816 324.71,-265.529 333.952,-270.71 335.166,-263.816"/>
</g>
<!-- Node23&#45;&gt;Node18 -->
<g id="edge36" class="edge"><title>Node23&#45;&gt;Node18</title>
<path fill="none" stroke="midnightblue" d="M651.369,-307.975C697.432,-297.393 776.035,-279.336 826.264,-267.797"/>
<polygon fill="midnightblue" stroke="midnightblue" points="827.259,-271.159 836.221,-265.509 825.691,-264.337 827.259,-271.159"/>
</g>
<!-- Node23&#45;&gt;Node19 -->
<g id="edge39" class="edge"><title>Node23&#45;&gt;Node19</title>
<path fill="none" stroke="midnightblue" d="M633.316,-307.975C655.736,-297.945 693.166,-281.2 718.974,-269.655"/>
<polygon fill="midnightblue" stroke="midnightblue" points="720.542,-272.788 728.241,-265.509 717.683,-266.398 720.542,-272.788"/>
</g>
<!-- Node24 -->
<g id="node25" class="node"><title>Node24</title>
<g id="a_node25"><a xlink:href="api_2spec_2packet_8h.html" target="_top" xlink:title="ODP packet descriptor. ">
<polygon fill="white" stroke="black" points="553.261,-246.5 553.261,-265.5 675.261,-265.5 675.261,-246.5 553.261,-246.5"/>
<text text-anchor="middle" x="614.261" y="-253.5" font-family="Helvetica,sans-Serif" font-size="10.00">odp/api/spec/packet.h</text>
</a>
</g>
</g>
<!-- Node23&#45;&gt;Node24 -->
<g id="edge41" class="edge"><title>Node23&#45;&gt;Node24</title>
<path fill="none" stroke="midnightblue" d="M614.261,-307.975C614.261,-299.58 614.261,-286.481 614.261,-275.663"/>
<polygon fill="midnightblue" stroke="midnightblue" points="617.761,-275.509 614.261,-265.509 610.761,-275.509 617.761,-275.509"/>
</g>
<!-- Node24&#45;&gt;Node4 -->
<g id="edge42" class="edge"><title>Node24&#45;&gt;Node4</title>
<path fill="none" stroke="midnightblue" d="M654.7,-246.496C749.491,-225.83 992.433,-168.609 1183.26,-87 1208.71,-76.1185 1212.54,-68.447 1237.26,-56 1261.03,-44.0282 1288.71,-32.039 1309.39,-23.4495"/>
<polygon fill="midnightblue" stroke="midnightblue" points="1310.73,-26.6831 1318.64,-19.6379 1308.06,-20.2108 1310.73,-26.6831"/>
</g>
<!-- Node24&#45;&gt;Node6 -->
<g id="edge49" class="edge"><title>Node24&#45;&gt;Node6</title>
<path fill="none" stroke="midnightblue" d="M626.402,-246.31C637.627,-237.88 654.326,-224.298 666.261,-210 717.207,-148.968 693.333,-103.262 757.261,-56 792.754,-29.7595 841.452,-18.6199 880.254,-13.9825"/>
<polygon fill="midnightblue" stroke="midnightblue" points="880.836,-17.4403 890.403,-12.889 880.086,-10.4805 880.836,-17.4403"/>
</g>
<!-- Node24&#45;&gt;Node25 -->
<g id="edge43" class="edge"><title>Node24&#45;&gt;Node25</title>
<path fill="none" stroke="midnightblue" d="M614.261,-246.475C614.261,-238.08 614.261,-224.981 614.261,-214.163"/>
<polygon fill="midnightblue" stroke="midnightblue" points="617.761,-214.009 614.261,-204.009 610.761,-214.009 617.761,-214.009"/>
</g>
<!-- Node25&#45;&gt;Node1 -->
<g id="edge44" class="edge"><title>Node25&#45;&gt;Node1</title>
<path fill="none" stroke="midnightblue" d="M597.354,-184.975C577.726,-175.078 545.13,-158.642 522.271,-147.115"/>
<polygon fill="midnightblue" stroke="midnightblue" points="523.641,-143.886 513.136,-142.509 520.489,-150.137 523.641,-143.886"/>
</g>
<!-- Node26 -->
<g id="node27" class="node"><title>Node26</title>
<polygon fill="white" stroke="#bfbfbf" points="569.761,-123.5 569.761,-142.5 672.761,-142.5 672.761,-123.5 569.761,-123.5"/>
<text text-anchor="middle" x="621.261" y="-130.5" font-family="Helvetica,sans-Serif" font-size="10.00">odp/api/abi/time.h</text>
</g>
<!-- Node25&#45;&gt;Node26 -->
<g id="edge45" class="edge"><title>Node25&#45;&gt;Node26</title>
<path fill="none" stroke="midnightblue" d="M615.264,-184.975C616.251,-176.58 617.793,-163.481 619.065,-152.663"/>
<polygon fill="midnightblue" stroke="midnightblue" points="622.567,-152.85 620.26,-142.509 615.615,-152.032 622.567,-152.85"/>
</g>
<!-- Node27 -->
<g id="node28" class="node"><title>Node27</title>
<g id="a_node28"><a xlink:href="api_2spec_2time_8h.html" target="_top" xlink:title="ODP time. ">
<polygon fill="white" stroke="black" points="766.761,-62 766.761,-81 877.761,-81 877.761,-62 766.761,-62"/>
<text text-anchor="middle" x="822.261" y="-69" font-family="Helvetica,sans-Serif" font-size="10.00">odp/api/spec/time.h</text>
</a>
</g>
</g>
<!-- Node25&#45;&gt;Node27 -->
<g id="edge46" class="edge"><title>Node25&#45;&gt;Node27</title>
<path fill="none" stroke="midnightblue" d="M628.887,-184.992C664.381,-164.344 755.336,-111.432 798.649,-86.236"/>
<polygon fill="midnightblue" stroke="midnightblue" points="800.489,-89.2148 807.372,-81.161 796.969,-83.1641 800.489,-89.2148"/>
</g>
<!-- Node27&#45;&gt;Node4 -->
<g id="edge47" class="edge"><title>Node27&#45;&gt;Node4</title>
<path fill="none" stroke="midnightblue" d="M878.188,-64.0759C974.016,-53.0687 1169.24,-30.6447 1272.58,-18.7738"/>
<polygon fill="midnightblue" stroke="midnightblue" points="1273.06,-22.2422 1282.59,-17.6238 1272.26,-15.2879 1273.06,-22.2422"/>
</g>
<!-- Node27&#45;&gt;Node6 -->
<g id="edge48" class="edge"><title>Node27&#45;&gt;Node6</title>
<path fill="none" stroke="midnightblue" d="M839.74,-61.9751C860.124,-52.0338 894.036,-35.4947 917.685,-23.961"/>
<polygon fill="midnightblue" stroke="midnightblue" points="919.36,-27.0385 926.814,-19.5091 916.291,-20.7468 919.36,-27.0385"/>
</g>
<!-- Node28&#45;&gt;Node4 -->
<g id="edge52" class="edge"><title>Node28&#45;&gt;Node4</title>
<path fill="none" stroke="midnightblue" d="M1242.23,-302.483C1316.03,-263.503 1518.07,-152.395 1552.26,-87 1582.84,-28.5087 1480.91,-14.1105 1407.93,-11.0878"/>
<polygon fill="midnightblue" stroke="midnightblue" points="1407.95,-7.58674 1397.84,-10.7334 1407.71,-14.5824 1407.95,-7.58674"/>
</g>
<!-- Node28&#45;&gt;Node6 -->
<g id="edge63" class="edge"><title>Node28&#45;&gt;Node6</title>
<path fill="none" stroke="midnightblue" d="M1188.8,-302.319C1172.94,-293.125 1152.88,-280.235 1137.26,-266 1053.33,-189.506 980.317,-72.4698 954.35,-28.5016"/>
<polygon fill="midnightblue" stroke="midnightblue" points="957.349,-26.6963 949.282,-19.8286 951.305,-30.2283 957.349,-26.6963"/>
</g>
<!-- Node28&#45;&gt;Node13 -->
<g id="edge62" class="edge"><title>Node28&#45;&gt;Node13</title>
<path fill="none" stroke="midnightblue" d="M1269,-302.475C1309.2,-291.986 1363.42,-277.837 1400.64,-268.122"/>
<polygon fill="midnightblue" stroke="midnightblue" points="1401.87,-271.418 1410.66,-265.506 1400.11,-264.645 1401.87,-271.418"/>
</g>
<!-- Node29 -->
<g id="node30" class="node"><title>Node29</title>
<g id="a_node30"><a xlink:href="api_2schedule__types_8h.html" target="_top" xlink:title="ODP schedule. ">
<polygon fill="white" stroke="black" points="1146.26,-246.5 1146.26,-265.5 1284.26,-265.5 1284.26,-246.5 1146.26,-246.5"/>
<text text-anchor="middle" x="1215.26" y="-253.5" font-family="Helvetica,sans-Serif" font-size="10.00">odp/api/schedule_types.h</text>
</a>
</g>
</g>
<!-- Node28&#45;&gt;Node29 -->
<g id="edge53" class="edge"><title>Node28&#45;&gt;Node29</title>
<path fill="none" stroke="midnightblue" d="M1215.26,-302.399C1215.26,-294.466 1215.26,-284.458 1215.26,-275.858"/>
<polygon fill="midnightblue" stroke="midnightblue" points="1218.76,-275.658 1215.26,-265.658 1211.76,-275.658 1218.76,-275.658"/>
</g>
<!-- Node30 -->
<g id="node31" class="node"><title>Node30</title>
<polygon fill="white" stroke="#bfbfbf" points="1251.76,-179.5 1251.76,-209.5 1366.76,-209.5 1366.76,-179.5 1251.76,-179.5"/>
<text text-anchor="start" x="1259.76" y="-197.5" font-family="Helvetica,sans-Serif" font-size="10.00">odp/api/abi/schedule</text>
<text text-anchor="middle" x="1309.26" y="-186.5" font-family="Helvetica,sans-Serif" font-size="10.00">_types.h</text>
</g>
<!-- Node29&#45;&gt;Node30 -->
<g id="edge54" class="edge"><title>Node29&#45;&gt;Node30</title>
<path fill="none" stroke="midnightblue" d="M1228.73,-246.475C1241.7,-238.266 1261.77,-225.558 1278.64,-214.885"/>
<polygon fill="midnightblue" stroke="midnightblue" points="1280.53,-217.829 1287.11,-209.523 1276.79,-211.914 1280.53,-217.829"/>
</g>
<!-- Node31 -->
<g id="node32" class="node"><title>Node31</title>
<g id="a_node32"><a xlink:href="api_2spec_2schedule__types_8h.html" target="_top" xlink:title="ODP schedule types. ">
<polygon fill="white" stroke="black" points="1110.76,-179.5 1110.76,-209.5 1233.76,-209.5 1233.76,-179.5 1110.76,-179.5"/>
<text text-anchor="start" x="1118.76" y="-197.5" font-family="Helvetica,sans-Serif" font-size="10.00">odp/api/spec/schedule</text>
<text text-anchor="middle" x="1172.26" y="-186.5" font-family="Helvetica,sans-Serif" font-size="10.00">_types.h</text>
</a>
</g>
</g>
<!-- Node29&#45;&gt;Node31 -->
<g id="edge55" class="edge"><title>Node29&#45;&gt;Node31</title>
<path fill="none" stroke="midnightblue" d="M1209.1,-246.475C1203.71,-239.019 1195.64,-227.852 1188.43,-217.869"/>
<polygon fill="midnightblue" stroke="midnightblue" points="1191.09,-215.578 1182.4,-209.523 1185.42,-219.678 1191.09,-215.578"/>
</g>
<!-- Node31&#45;&gt;Node4 -->
<g id="edge56" class="edge"><title>Node31&#45;&gt;Node4</title>
<path fill="none" stroke="midnightblue" d="M1188.42,-179.196C1198.51,-169.667 1211.23,-156.462 1220.26,-143 1243.86,-107.807 1230.61,-87.2187 1259.26,-56 1272.23,-41.8666 1290.7,-31.136 1306.72,-23.7047"/>
<polygon fill="midnightblue" stroke="midnightblue" points="1308.55,-26.7218 1316.31,-19.5032 1305.75,-20.31 1308.55,-26.7218"/>
</g>
<!-- Node31&#45;&gt;Node6 -->
<g id="edge61" class="edge"><title>Node31&#45;&gt;Node6</title>
<path fill="none" stroke="midnightblue" d="M1151.43,-179.347C1137.11,-169.453 1117.77,-155.777 1101.26,-143 1073.87,-121.801 997.463,-56.6089 962.34,-26.5167"/>
<polygon fill="midnightblue" stroke="midnightblue" points="964.225,-23.5224 954.355,-19.6705 959.668,-28.8366 964.225,-23.5224"/>
</g>
<!-- Node32 -->
<g id="node33" class="node"><title>Node32</title>
<g id="a_node33"><a xlink:href="support_8h.html" target="_top" xlink:title="ODP support API &#45; platform specific header. ">
<polygon fill="white" stroke="black" points="1110.76,-123.5 1110.76,-142.5 1211.76,-142.5 1211.76,-123.5 1110.76,-123.5"/>
<text text-anchor="middle" x="1161.26" y="-130.5" font-family="Helvetica,sans-Serif" font-size="10.00">odp/api/support.h</text>
</a>
</g>
</g>
<!-- Node31&#45;&gt;Node32 -->
<g id="edge57" class="edge"><title>Node31&#45;&gt;Node32</title>
<path fill="none" stroke="midnightblue" d="M1169.65,-179.399C1168.17,-171.377 1166.3,-161.233 1164.69,-152.569"/>
<polygon fill="midnightblue" stroke="midnightblue" points="1168.12,-151.855 1162.86,-142.658 1161.24,-153.127 1168.12,-151.855"/>
</g>
<!-- Node33 -->
<g id="node34" class="node"><title>Node33</title>
<g id="a_node34"><a xlink:href="spec_2support_8h.html" target="_top" xlink:title="ODP support API. ">
<polygon fill="white" stroke="black" points="1048.26,-62 1048.26,-81 1174.26,-81 1174.26,-62 1048.26,-62"/>
<text text-anchor="middle" x="1111.26" y="-69" font-family="Helvetica,sans-Serif" font-size="10.00">odp/api/spec/support.h</text>
</a>
</g>
</g>
<!-- Node32&#45;&gt;Node33 -->
<g id="edge58" class="edge"><title>Node32&#45;&gt;Node33</title>
<path fill="none" stroke="midnightblue" d="M1154.1,-123.475C1146.52,-114.462 1134.39,-100.025 1124.97,-88.8118"/>
<polygon fill="midnightblue" stroke="midnightblue" points="1127.52,-86.4132 1118.41,-81.0091 1122.17,-90.9166 1127.52,-86.4132"/>
</g>
<!-- Node33&#45;&gt;Node4 -->
<g id="edge59" class="edge"><title>Node33&#45;&gt;Node4</title>
<path fill="none" stroke="midnightblue" d="M1144.07,-61.9751C1184.46,-51.4815 1253.14,-33.6367 1297.59,-22.087"/>
<polygon fill="midnightblue" stroke="midnightblue" points="1298.71,-25.4114 1307.51,-19.5091 1296.95,-18.6364 1298.71,-25.4114"/>
</g>
<!-- Node33&#45;&gt;Node6 -->
<g id="edge60" class="edge"><title>Node33&#45;&gt;Node6</title>
<path fill="none" stroke="midnightblue" d="M1087.33,-61.9751C1058.56,-51.7246 1010.1,-34.4593 977.659,-22.8994"/>
<polygon fill="midnightblue" stroke="midnightblue" points="978.738,-19.5684 968.143,-19.5091 976.389,-26.1624 978.738,-19.5684"/>
</g>
</g>
</svg>
