<?xml version="1.0" encoding="UTF-8" standalone="no"?>
<!DOCTYPE svg PUBLIC "-//W3C//DTD SVG 1.1//EN"
 "http://www.w3.org/Graphics/SVG/1.1/DTD/svg11.dtd">
<!-- Generated by graphviz version 2.38.0 (20140413.2041)
 -->
<!-- Title: event.h Pages: 1 -->
<svg width="873pt" height="364pt"
 viewBox="0.00 0.00 873.00 364.00" xmlns="http://www.w3.org/2000/svg" xmlns:xlink="http://www.w3.org/1999/xlink">
<g id="graph0" class="graph" transform="scale(1 1) rotate(0) translate(4 360)">
<title>event.h</title>
<polygon fill="white" stroke="none" points="-4,4 -4,-360 869,-360 869,4 -4,4"/>
<!-- Node0 -->
<g id="node1" class="node"><title>Node0</title>
<polygon fill="#bfbfbf" stroke="black" points="349.5,-336.5 349.5,-355.5 402.5,-355.5 402.5,-336.5 349.5,-336.5"/>
<text text-anchor="middle" x="376" y="-343.5" font-family="Helvetica,sans-Serif" font-size="10.00">event.h</text>
</g>
<!-- Node1 -->
<g id="node2" class="node"><title>Node1</title>
<g id="a_node2"><a xlink:href="visibility__begin_8h_source.html" target="_top" xlink:title="odp/visibility_begin.h">
<polygon fill="white" stroke="black" points="175.5,-0.5 175.5,-19.5 290.5,-19.5 290.5,-0.5 175.5,-0.5"/>
<text text-anchor="middle" x="233" y="-7.5" font-family="Helvetica,sans-Serif" font-size="10.00">odp/visibility_begin.h</text>
</a>
</g>
</g>
<!-- Node0&#45;&gt;Node1 -->
<g id="edge1" class="edge"><title>Node0&#45;&gt;Node1</title>
<path fill="none" stroke="midnightblue" d="M349.26,-342.991C263.36,-335.812 0,-307.86 0,-235 0,-235 0,-235 0,-121 0,-47.391 96.2689,-22.9626 165.047,-14.9028"/>
<polygon fill="midnightblue" stroke="midnightblue" points="165.837,-18.338 175.404,-13.7866 165.087,-11.3783 165.837,-18.338"/>
</g>
<!-- Node2 -->
<g id="node3" class="node"><title>Node2</title>
<g id="a_node3"><a xlink:href="api_2packet_8h.html" target="_top" xlink:title="ODP packet descriptor. ">
<polygon fill="white" stroke="black" points="328,-280.5 328,-299.5 424,-299.5 424,-280.5 328,-280.5"/>
<text text-anchor="middle" x="376" y="-287.5" font-family="Helvetica,sans-Serif" font-size="10.00">odp/api/packet.h</text>
</a>
</g>
</g>
<!-- Node0&#45;&gt;Node2 -->
<g id="edge2" class="edge"><title>Node0&#45;&gt;Node2</title>
<path fill="none" stroke="midnightblue" d="M376,-336.083C376,-329.006 376,-318.861 376,-309.986"/>
<polygon fill="midnightblue" stroke="midnightblue" points="379.5,-309.751 376,-299.751 372.5,-309.751 379.5,-309.751"/>
</g>
<!-- Node7 -->
<g id="node8" class="node"><title>Node7</title>
<g id="a_node8"><a xlink:href="visibility__end_8h_source.html" target="_top" xlink:title="odp/visibility_end.h">
<polygon fill="white" stroke="black" points="605.5,-0.5 605.5,-19.5 712.5,-19.5 712.5,-0.5 605.5,-0.5"/>
<text text-anchor="middle" x="659" y="-7.5" font-family="Helvetica,sans-Serif" font-size="10.00">odp/visibility_end.h</text>
</a>
</g>
</g>
<!-- Node0&#45;&gt;Node7 -->
<g id="edge23" class="edge"><title>Node0&#45;&gt;Node7</title>
<path fill="none" stroke="midnightblue" d="M402.638,-344.759C504.681,-343.13 865,-330.61 865,-235 865,-235 865,-235 865,-121 865,-55.519 783.006,-28.8781 722.478,-18.1326"/>
<polygon fill="midnightblue" stroke="midnightblue" points="723.026,-14.6758 712.586,-16.4818 721.874,-21.5803 723.026,-14.6758"/>
</g>
<!-- Node3 -->
<g id="node4" class="node"><title>Node3</title>
<g id="a_node4"><a xlink:href="api_2std__types_8h.html" target="_top" xlink:title="Standard C language types and definitions for ODP. ">
<polygon fill="white" stroke="black" points="338,-112.5 338,-131.5 448,-131.5 448,-112.5 338,-112.5"/>
<text text-anchor="middle" x="393" y="-119.5" font-family="Helvetica,sans-Serif" font-size="10.00">odp/api/std_types.h</text>
</a>
</g>
</g>
<!-- Node2&#45;&gt;Node3 -->
<g id="edge3" class="edge"><title>Node2&#45;&gt;Node3</title>
<path fill="none" stroke="midnightblue" d="M327.974,-289.847C258.325,-289.217 141.293,-280.114 177,-224 210.128,-171.939 277.91,-146.262 328.759,-133.895"/>
<polygon fill="midnightblue" stroke="midnightblue" points="329.735,-137.261 338.687,-131.595 328.155,-130.442 329.735,-137.261"/>
</g>
<!-- Node8 -->
<g id="node9" class="node"><title>Node8</title>
<polygon fill="white" stroke="#bfbfbf" points="186,-224.5 186,-243.5 294,-243.5 294,-224.5 186,-224.5"/>
<text text-anchor="middle" x="240" y="-231.5" font-family="Helvetica,sans-Serif" font-size="10.00">odp/api/abi/event.h</text>
</g>
<!-- Node2&#45;&gt;Node8 -->
<g id="edge9" class="edge"><title>Node2&#45;&gt;Node8</title>
<path fill="none" stroke="midnightblue" d="M354.45,-280.444C331.969,-271.517 296.512,-257.439 271.02,-247.317"/>
<polygon fill="midnightblue" stroke="midnightblue" points="272.035,-243.954 261.449,-243.516 269.451,-250.46 272.035,-243.954"/>
</g>
<!-- Node9 -->
<g id="node10" class="node"><title>Node9</title>
<polygon fill="white" stroke="#bfbfbf" points="312.5,-224.5 312.5,-243.5 439.5,-243.5 439.5,-224.5 312.5,-224.5"/>
<text text-anchor="middle" x="376" y="-231.5" font-family="Helvetica,sans-Serif" font-size="10.00">odp/api/abi/packet_io.h</text>
</g>
<!-- Node2&#45;&gt;Node9 -->
<g id="edge10" class="edge"><title>Node2&#45;&gt;Node9</title>
<path fill="none" stroke="midnightblue" d="M376,-280.083C376,-273.006 376,-262.861 376,-253.986"/>
<polygon fill="midnightblue" stroke="midnightblue" points="379.5,-253.751 376,-243.751 372.5,-253.751 379.5,-253.751"/>
</g>
<!-- Node10 -->
<g id="node11" class="node"><title>Node10</title>
<polygon fill="white" stroke="#bfbfbf" points="457.5,-224.5 457.5,-243.5 570.5,-243.5 570.5,-224.5 457.5,-224.5"/>
<text text-anchor="middle" x="514" y="-231.5" font-family="Helvetica,sans-Serif" font-size="10.00">odp/api/abi/packet.h</text>
</g>
<!-- Node2&#45;&gt;Node10 -->
<g id="edge11" class="edge"><title>Node2&#45;&gt;Node10</title>
<path fill="none" stroke="midnightblue" d="M397.867,-280.444C420.779,-271.478 456.975,-257.314 482.866,-247.183"/>
<polygon fill="midnightblue" stroke="midnightblue" points="484.199,-250.42 492.236,-243.516 481.648,-243.901 484.199,-250.42"/>
</g>
<!-- Node11 -->
<g id="node12" class="node"><title>Node11</title>
<polygon fill="white" stroke="#bfbfbf" points="729,-224.5 729,-243.5 837,-243.5 837,-224.5 729,-224.5"/>
<text text-anchor="middle" x="783" y="-231.5" font-family="Helvetica,sans-Serif" font-size="10.00">odp/api/abi/buffer.h</text>
</g>
<!-- Node2&#45;&gt;Node11 -->
<g id="edge12" class="edge"><title>Node2&#45;&gt;Node11</title>
<path fill="none" stroke="midnightblue" d="M424.165,-282.882C488.764,-274.636 607.319,-259.361 718.651,-244.172"/>
<polygon fill="midnightblue" stroke="midnightblue" points="719.276,-247.619 728.71,-242.797 718.328,-240.684 719.276,-247.619"/>
</g>
<!-- Node12 -->
<g id="node13" class="node"><title>Node12</title>
<polygon fill="white" stroke="#bfbfbf" points="28.5,-224.5 28.5,-243.5 129.5,-243.5 129.5,-224.5 28.5,-224.5"/>
<text text-anchor="middle" x="79" y="-231.5" font-family="Helvetica,sans-Serif" font-size="10.00">odp/api/abi/pool.h</text>
</g>
<!-- Node2&#45;&gt;Node12 -->
<g id="edge13" class="edge"><title>Node2&#45;&gt;Node12</title>
<path fill="none" stroke="midnightblue" d="M328.939,-280.444C276.585,-270.925 192.01,-255.547 135.96,-245.356"/>
<polygon fill="midnightblue" stroke="midnightblue" points="136.305,-241.862 125.84,-243.516 135.053,-248.749 136.305,-241.862"/>
</g>
<!-- Node13 -->
<g id="node14" class="node"><title>Node13</title>
<g id="a_node14"><a xlink:href="api_2spec_2packet_8h.html" target="_top" xlink:title="ODP packet descriptor. ">
<polygon fill="white" stroke="black" points="589,-224.5 589,-243.5 711,-243.5 711,-224.5 589,-224.5"/>
<text text-anchor="middle" x="650" y="-231.5" font-family="Helvetica,sans-Serif" font-size="10.00">odp/api/spec/packet.h</text>
</a>
</g>
</g>
<!-- Node2&#45;&gt;Node13 -->
<g id="edge14" class="edge"><title>Node2&#45;&gt;Node13</title>
<path fill="none" stroke="midnightblue" d="M419.416,-280.444C467.515,-270.964 545.095,-255.675 596.806,-245.483"/>
<polygon fill="midnightblue" stroke="midnightblue" points="597.653,-248.884 606.787,-243.516 596.299,-242.016 597.653,-248.884"/>
</g>
<!-- Node4 -->
<g id="node5" class="node"><title>Node4</title>
<polygon fill="white" stroke="#bfbfbf" points="415,-56.5 415,-75.5 543,-75.5 543,-56.5 415,-56.5"/>
<text text-anchor="middle" x="479" y="-63.5" font-family="Helvetica,sans-Serif" font-size="10.00">odp/api/abi/std_types.h</text>
</g>
<!-- Node3&#45;&gt;Node4 -->
<g id="edge4" class="edge"><title>Node3&#45;&gt;Node4</title>
<path fill="none" stroke="midnightblue" d="M406.817,-112.324C420.233,-103.9 440.824,-90.9709 456.586,-81.0741"/>
<polygon fill="midnightblue" stroke="midnightblue" points="458.609,-83.9364 465.217,-75.6545 454.887,-78.0081 458.609,-83.9364"/>
</g>
<!-- Node5 -->
<g id="node6" class="node"><title>Node5</title>
<g id="a_node6"><a xlink:href="api_2spec_2std__types_8h.html" target="_top" xlink:title="Standard C language types and definitions for ODP. ">
<polygon fill="white" stroke="black" points="261,-56.5 261,-75.5 397,-75.5 397,-56.5 261,-56.5"/>
<text text-anchor="middle" x="329" y="-63.5" font-family="Helvetica,sans-Serif" font-size="10.00">odp/api/spec/std_types.h</text>
</a>
</g>
</g>
<!-- Node3&#45;&gt;Node5 -->
<g id="edge5" class="edge"><title>Node3&#45;&gt;Node5</title>
<path fill="none" stroke="midnightblue" d="M382.717,-112.324C373.164,-104.263 358.72,-92.0765 347.216,-82.3695"/>
<polygon fill="midnightblue" stroke="midnightblue" points="349.37,-79.6076 339.47,-75.8339 344.856,-84.9577 349.37,-79.6076"/>
</g>
<!-- Node5&#45;&gt;Node1 -->
<g id="edge6" class="edge"><title>Node5&#45;&gt;Node1</title>
<path fill="none" stroke="midnightblue" d="M313.576,-56.324C298.46,-47.8215 275.185,-34.7288 257.529,-24.7975"/>
<polygon fill="midnightblue" stroke="midnightblue" points="258.817,-21.5066 248.386,-19.6545 255.386,-27.6077 258.817,-21.5066"/>
</g>
<!-- Node6 -->
<g id="node7" class="node"><title>Node6</title>
<polygon fill="white" stroke="#bfbfbf" points="308.5,-0.5 308.5,-19.5 361.5,-19.5 361.5,-0.5 308.5,-0.5"/>
<text text-anchor="middle" x="335" y="-7.5" font-family="Helvetica,sans-Serif" font-size="10.00">stdint.h</text>
</g>
<!-- Node5&#45;&gt;Node6 -->
<g id="edge7" class="edge"><title>Node5&#45;&gt;Node6</title>
<path fill="none" stroke="midnightblue" d="M329.991,-56.083C330.786,-48.9272 331.929,-38.6353 332.923,-29.6911"/>
<polygon fill="midnightblue" stroke="midnightblue" points="336.402,-30.0765 334.028,-19.7511 329.445,-29.3034 336.402,-30.0765"/>
</g>
<!-- Node5&#45;&gt;Node7 -->
<g id="edge8" class="edge"><title>Node5&#45;&gt;Node7</title>
<path fill="none" stroke="midnightblue" d="M381.289,-56.4435C439.823,-46.8654 534.605,-31.3556 596.87,-21.1667"/>
<polygon fill="midnightblue" stroke="midnightblue" points="597.652,-24.5855 606.955,-19.5164 596.521,-17.6773 597.652,-24.5855"/>
</g>
<!-- Node13&#45;&gt;Node1 -->
<g id="edge15" class="edge"><title>Node13&#45;&gt;Node1</title>
<path fill="none" stroke="midnightblue" d="M608.584,-224.499C545.803,-210.629 423.822,-179.787 329,-132 291.212,-112.956 276.352,-110.606 252,-76 242.38,-62.3287 237.585,-43.7921 235.223,-30.0122"/>
<polygon fill="midnightblue" stroke="midnightblue" points="238.638,-29.1712 233.758,-19.7671 231.709,-30.1618 238.638,-29.1712"/>
</g>
<!-- Node13&#45;&gt;Node7 -->
<g id="edge22" class="edge"><title>Node13&#45;&gt;Node7</title>
<path fill="none" stroke="midnightblue" d="M653.912,-224.46C665.157,-198.789 695.837,-120.131 681,-56 678.77,-46.3627 674.179,-36.4052 669.764,-28.3149"/>
<polygon fill="midnightblue" stroke="midnightblue" points="672.697,-26.3968 664.638,-19.5194 666.649,-29.9216 672.697,-26.3968"/>
</g>
<!-- Node14 -->
<g id="node15" class="node"><title>Node14</title>
<g id="a_node15"><a xlink:href="api_2time_8h.html" target="_top" xlink:title="ODP time. ">
<polygon fill="white" stroke="black" points="534,-168.5 534,-187.5 620,-187.5 620,-168.5 534,-168.5"/>
<text text-anchor="middle" x="577" y="-175.5" font-family="Helvetica,sans-Serif" font-size="10.00">odp/api/time.h</text>
</a>
</g>
</g>
<!-- Node13&#45;&gt;Node14 -->
<g id="edge16" class="edge"><title>Node13&#45;&gt;Node14</title>
<path fill="none" stroke="midnightblue" d="M638.271,-224.324C627.163,-216.107 610.258,-203.602 597.017,-193.807"/>
<polygon fill="midnightblue" stroke="midnightblue" points="599.063,-190.967 588.942,-187.834 594.9,-196.595 599.063,-190.967"/>
</g>
<!-- Node14&#45;&gt;Node3 -->
<g id="edge17" class="edge"><title>Node14&#45;&gt;Node3</title>
<path fill="none" stroke="midnightblue" d="M547.845,-168.444C516.487,-159.241 466.469,-144.562 431.803,-134.388"/>
<polygon fill="midnightblue" stroke="midnightblue" points="432.6,-130.974 422.019,-131.516 430.629,-137.691 432.6,-130.974"/>
</g>
<!-- Node15 -->
<g id="node16" class="node"><title>Node15</title>
<polygon fill="white" stroke="#bfbfbf" points="569.5,-112.5 569.5,-131.5 672.5,-131.5 672.5,-112.5 569.5,-112.5"/>
<text text-anchor="middle" x="621" y="-119.5" font-family="Helvetica,sans-Serif" font-size="10.00">odp/api/abi/time.h</text>
</g>
<!-- Node14&#45;&gt;Node15 -->
<g id="edge18" class="edge"><title>Node14&#45;&gt;Node15</title>
<path fill="none" stroke="midnightblue" d="M584.266,-168.083C590.545,-160.377 599.788,-149.033 607.431,-139.653"/>
<polygon fill="midnightblue" stroke="midnightblue" points="610.266,-141.714 613.869,-131.751 604.839,-137.293 610.266,-141.714"/>
</g>
<!-- Node16 -->
<g id="node17" class="node"><title>Node16</title>
<g id="a_node17"><a xlink:href="api_2spec_2time_8h.html" target="_top" xlink:title="ODP time. ">
<polygon fill="white" stroke="black" points="561.5,-56.5 561.5,-75.5 672.5,-75.5 672.5,-56.5 561.5,-56.5"/>
<text text-anchor="middle" x="617" y="-63.5" font-family="Helvetica,sans-Serif" font-size="10.00">odp/api/spec/time.h</text>
</a>
</g>
</g>
<!-- Node14&#45;&gt;Node16 -->
<g id="edge19" class="edge"><title>Node14&#45;&gt;Node16</title>
<path fill="none" stroke="midnightblue" d="M570.974,-168.211C562.968,-155.353 550.844,-130.894 560,-112 566.397,-98.7996 578.752,-88.3032 590.329,-80.7794"/>
<polygon fill="midnightblue" stroke="midnightblue" points="592.155,-83.7653 598.918,-75.6099 588.546,-77.7678 592.155,-83.7653"/>
</g>
<!-- Node16&#45;&gt;Node1 -->
<g id="edge20" class="edge"><title>Node16&#45;&gt;Node1</title>
<path fill="none" stroke="midnightblue" d="M561.163,-57.1479C492.226,-47.4536 375.038,-30.9741 300.948,-20.5552"/>
<polygon fill="midnightblue" stroke="midnightblue" points="301.179,-17.0533 290.789,-19.1266 300.204,-23.9851 301.179,-17.0533"/>
</g>
<!-- Node16&#45;&gt;Node7 -->
<g id="edge21" class="edge"><title>Node16&#45;&gt;Node7</title>
<path fill="none" stroke="midnightblue" d="M623.935,-56.083C629.929,-48.3768 638.752,-37.0333 646.048,-27.6531"/>
<polygon fill="midnightblue" stroke="midnightblue" points="648.817,-29.7934 652.194,-19.7511 643.291,-25.4958 648.817,-29.7934"/>
</g>
</g>
</svg>
