<?xml version="1.0" encoding="UTF-8" standalone="no"?>
<!DOCTYPE svg PUBLIC "-//W3C//DTD SVG 1.1//EN"
 "http://www.w3.org/Graphics/SVG/1.1/DTD/svg11.dtd">
<!-- Generated by graphviz version 2.38.0 (20140413.2041)
 -->
<!-- Title: queue.h Pages: 1 -->
<svg width="1220pt" height="498pt"
 viewBox="0.00 0.00 1220.00 498.00" xmlns="http://www.w3.org/2000/svg" xmlns:xlink="http://www.w3.org/1999/xlink">
<g id="graph0" class="graph" transform="scale(1 1) rotate(0) translate(4 494)">
<title>queue.h</title>
<polygon fill="white" stroke="none" points="-4,4 -4,-494 1216,-494 1216,4 -4,4"/>
<!-- Node0 -->
<g id="node1" class="node"><title>Node0</title>
<polygon fill="#bfbfbf" stroke="black" points="854,-470.5 854,-489.5 910,-489.5 910,-470.5 854,-470.5"/>
<text text-anchor="middle" x="882" y="-477.5" font-family="Helvetica,sans-Serif" font-size="10.00">queue.h</text>
</g>
<!-- Node1 -->
<g id="node2" class="node"><title>Node1</title>
<g id="a_node2"><a xlink:href="visibility__begin_8h_source.html" target="_top" xlink:title="odp/visibility_begin.h">
<polygon fill="white" stroke="black" points="490.5,-0.5 490.5,-19.5 605.5,-19.5 605.5,-0.5 490.5,-0.5"/>
<text text-anchor="middle" x="548" y="-7.5" font-family="Helvetica,sans-Serif" font-size="10.00">odp/visibility_begin.h</text>
</a>
</g>
</g>
<!-- Node0&#45;&gt;Node1 -->
<g id="edge1" class="edge"><title>Node0&#45;&gt;Node1</title>
<path fill="none" stroke="midnightblue" d="M853.653,-478.516C702.686,-475.575 0,-457.15 0,-369 0,-369 0,-369 0,-121 0,-78.8691 30.6104,-73.3566 69,-56 140.663,-23.6001 366.092,-14.5171 480.284,-11.979"/>
<polygon fill="midnightblue" stroke="midnightblue" points="480.389,-15.4777 490.313,-11.7666 480.241,-8.47923 480.389,-15.4777"/>
</g>
<!-- Node2 -->
<g id="node3" class="node"><title>Node2</title>
<g id="a_node3"><a xlink:href="api_2event_8h.html" target="_top" xlink:title="ODP event. ">
<polygon fill="white" stroke="black" points="776.5,-414.5 776.5,-433.5 867.5,-433.5 867.5,-414.5 776.5,-414.5"/>
<text text-anchor="middle" x="822" y="-421.5" font-family="Helvetica,sans-Serif" font-size="10.00">odp/api/event.h</text>
</a>
</g>
</g>
<!-- Node0&#45;&gt;Node2 -->
<g id="edge2" class="edge"><title>Node0&#45;&gt;Node2</title>
<path fill="none" stroke="midnightblue" d="M872.36,-470.324C863.49,-462.341 850.125,-450.313 839.392,-440.653"/>
<polygon fill="midnightblue" stroke="midnightblue" points="841.59,-437.922 831.815,-433.834 836.907,-443.125 841.59,-437.922"/>
</g>
<!-- Node10 -->
<g id="node11" class="node"><title>Node10</title>
<g id="a_node11"><a xlink:href="visibility__end_8h_source.html" target="_top" xlink:title="odp/visibility_end.h">
<polygon fill="white" stroke="black" points="960.5,-0.5 960.5,-19.5 1067.5,-19.5 1067.5,-0.5 960.5,-0.5"/>
<text text-anchor="middle" x="1014" y="-7.5" font-family="Helvetica,sans-Serif" font-size="10.00">odp/visibility_end.h</text>
</a>
</g>
</g>
<!-- Node0&#45;&gt;Node10 -->
<g id="edge44" class="edge"><title>Node0&#45;&gt;Node10</title>
<path fill="none" stroke="midnightblue" d="M910.136,-475.764C989.939,-465.808 1212,-432.41 1212,-369 1212,-369 1212,-369 1212,-121 1212,-58.3634 1135.35,-31.0871 1077.43,-19.4174"/>
<polygon fill="midnightblue" stroke="midnightblue" points="1078.06,-15.9751 1067.58,-17.545 1076.75,-22.8518 1078.06,-15.9751"/>
</g>
<!-- Node19 -->
<g id="node20" class="node"><title>Node19</title>
<g id="a_node20"><a xlink:href="queue__types_8h.html" target="_top" xlink:title="ODP queue types. ">
<polygon fill="white" stroke="black" points="887,-291.5 887,-321.5 997,-321.5 997,-291.5 887,-291.5"/>
<text text-anchor="start" x="895" y="-309.5" font-family="Helvetica,sans-Serif" font-size="10.00">odp/api/spec/queue</text>
<text text-anchor="middle" x="942" y="-298.5" font-family="Helvetica,sans-Serif" font-size="10.00">_types.h</text>
</a>
</g>
</g>
<!-- Node0&#45;&gt;Node19 -->
<g id="edge28" class="edge"><title>Node0&#45;&gt;Node19</title>
<path fill="none" stroke="midnightblue" d="M885.058,-470.26C893.942,-444.866 919.979,-370.444 933.551,-331.65"/>
<polygon fill="midnightblue" stroke="midnightblue" points="937.025,-332.318 937.024,-321.723 930.418,-330.006 937.025,-332.318"/>
</g>
<!-- Node3 -->
<g id="node4" class="node"><title>Node3</title>
<polygon fill="white" stroke="#bfbfbf" points="768,-235.5 768,-254.5 876,-254.5 876,-235.5 768,-235.5"/>
<text text-anchor="middle" x="822" y="-242.5" font-family="Helvetica,sans-Serif" font-size="10.00">odp/api/abi/event.h</text>
</g>
<!-- Node2&#45;&gt;Node3 -->
<g id="edge3" class="edge"><title>Node2&#45;&gt;Node3</title>
<path fill="none" stroke="midnightblue" d="M822,-414.463C822,-387.428 822,-303.239 822,-265.109"/>
<polygon fill="midnightblue" stroke="midnightblue" points="825.5,-264.868 822,-254.868 818.5,-264.868 825.5,-264.868"/>
</g>
<!-- Node4 -->
<g id="node5" class="node"><title>Node4</title>
<g id="a_node5"><a xlink:href="api_2spec_2event_8h.html" target="_top" xlink:title="ODP event. ">
<polygon fill="white" stroke="black" points="517,-358.5 517,-377.5 633,-377.5 633,-358.5 517,-358.5"/>
<text text-anchor="middle" x="575" y="-365.5" font-family="Helvetica,sans-Serif" font-size="10.00">odp/api/spec/event.h</text>
</a>
</g>
</g>
<!-- Node2&#45;&gt;Node4 -->
<g id="edge4" class="edge"><title>Node2&#45;&gt;Node4</title>
<path fill="none" stroke="midnightblue" d="M782.862,-414.444C739.774,-405.023 670.441,-389.866 623.829,-379.675"/>
<polygon fill="midnightblue" stroke="midnightblue" points="624.472,-376.233 613.955,-377.516 622.976,-383.072 624.472,-376.233"/>
</g>
<!-- Node4&#45;&gt;Node1 -->
<g id="edge5" class="edge"><title>Node4&#45;&gt;Node1</title>
<path fill="none" stroke="midnightblue" d="M516.766,-366.096C377.748,-362.367 38,-343.299 38,-246 38,-246 38,-246 38,-121 38,-31.529 341.719,-14.6403 480.394,-11.5922"/>
<polygon fill="midnightblue" stroke="midnightblue" points="480.561,-15.0896 490.488,-11.3884 480.419,-8.09105 480.561,-15.0896"/>
</g>
<!-- Node5 -->
<g id="node6" class="node"><title>Node5</title>
<g id="a_node6"><a xlink:href="api_2packet_8h.html" target="_top" xlink:title="ODP packet descriptor. ">
<polygon fill="white" stroke="black" points="430,-297 430,-316 526,-316 526,-297 430,-297"/>
<text text-anchor="middle" x="478" y="-304" font-family="Helvetica,sans-Serif" font-size="10.00">odp/api/packet.h</text>
</a>
</g>
</g>
<!-- Node4&#45;&gt;Node5 -->
<g id="edge6" class="edge"><title>Node4&#45;&gt;Node5</title>
<path fill="none" stroke="midnightblue" d="M561.102,-358.475C545.328,-348.799 519.363,-332.872 500.651,-321.394"/>
<polygon fill="midnightblue" stroke="midnightblue" points="502.226,-318.254 491.872,-316.009 498.566,-324.221 502.226,-318.254"/>
</g>
<!-- Node4&#45;&gt;Node10 -->
<g id="edge27" class="edge"><title>Node4&#45;&gt;Node10</title>
<path fill="none" stroke="midnightblue" d="M633.252,-367.465C783.777,-367.107 1174,-355.608 1174,-246 1174,-246 1174,-246 1174,-121 1174,-66.241 1109.58,-36.6847 1062.49,-22.3953"/>
<polygon fill="midnightblue" stroke="midnightblue" points="1063.31,-18.99 1052.73,-19.5742 1061.37,-25.7145 1063.31,-18.99"/>
</g>
<!-- Node5&#45;&gt;Node3 -->
<g id="edge13" class="edge"><title>Node5&#45;&gt;Node3</title>
<path fill="none" stroke="midnightblue" d="M526.194,-297.164C588.192,-286.441 695.844,-267.821 762.768,-256.245"/>
<polygon fill="midnightblue" stroke="midnightblue" points="763.484,-259.673 772.741,-254.52 762.291,-252.776 763.484,-259.673"/>
</g>
<!-- Node6 -->
<g id="node7" class="node"><title>Node6</title>
<g id="a_node7"><a xlink:href="api_2std__types_8h.html" target="_top" xlink:title="Standard C language types and definitions for ODP. ">
<polygon fill="white" stroke="black" points="246,-112.5 246,-131.5 356,-131.5 356,-112.5 246,-112.5"/>
<text text-anchor="middle" x="301" y="-119.5" font-family="Helvetica,sans-Serif" font-size="10.00">odp/api/std_types.h</text>
</a>
</g>
</g>
<!-- Node5&#45;&gt;Node6 -->
<g id="edge7" class="edge"><title>Node5&#45;&gt;Node6</title>
<path fill="none" stroke="midnightblue" d="M429.817,-302.647C331.842,-296.353 116.777,-279.836 95,-255 42.9408,-195.626 175.124,-152.876 251.414,-133.916"/>
<polygon fill="midnightblue" stroke="midnightblue" points="252.439,-137.268 261.33,-131.506 250.787,-130.466 252.439,-137.268"/>
</g>
<!-- Node11 -->
<g id="node12" class="node"><title>Node11</title>
<polygon fill="white" stroke="#bfbfbf" points="622.5,-235.5 622.5,-254.5 749.5,-254.5 749.5,-235.5 622.5,-235.5"/>
<text text-anchor="middle" x="686" y="-242.5" font-family="Helvetica,sans-Serif" font-size="10.00">odp/api/abi/packet_io.h</text>
</g>
<!-- Node5&#45;&gt;Node11 -->
<g id="edge14" class="edge"><title>Node5&#45;&gt;Node11</title>
<path fill="none" stroke="midnightblue" d="M507.801,-296.975C544.253,-286.548 606.08,-268.862 646.474,-257.307"/>
<polygon fill="midnightblue" stroke="midnightblue" points="647.602,-260.624 656.254,-254.509 645.677,-253.894 647.602,-260.624"/>
</g>
<!-- Node12 -->
<g id="node13" class="node"><title>Node12</title>
<polygon fill="white" stroke="#bfbfbf" points="104.5,-235.5 104.5,-254.5 217.5,-254.5 217.5,-235.5 104.5,-235.5"/>
<text text-anchor="middle" x="161" y="-242.5" font-family="Helvetica,sans-Serif" font-size="10.00">odp/api/abi/packet.h</text>
</g>
<!-- Node5&#45;&gt;Node12 -->
<g id="edge15" class="edge"><title>Node5&#45;&gt;Node12</title>
<path fill="none" stroke="midnightblue" d="M432.582,-296.975C375.498,-286.261 277.582,-267.882 216.228,-256.366"/>
<polygon fill="midnightblue" stroke="midnightblue" points="216.808,-252.914 206.334,-254.509 215.517,-259.794 216.808,-252.914"/>
</g>
<!-- Node13 -->
<g id="node14" class="node"><title>Node13</title>
<polygon fill="white" stroke="#bfbfbf" points="236,-235.5 236,-254.5 344,-254.5 344,-235.5 236,-235.5"/>
<text text-anchor="middle" x="290" y="-242.5" font-family="Helvetica,sans-Serif" font-size="10.00">odp/api/abi/buffer.h</text>
</g>
<!-- Node5&#45;&gt;Node13 -->
<g id="edge16" class="edge"><title>Node5&#45;&gt;Node13</title>
<path fill="none" stroke="midnightblue" d="M451.064,-296.975C418.397,-286.636 363.181,-269.161 326.657,-257.602"/>
<polygon fill="midnightblue" stroke="midnightblue" points="327.476,-254.19 316.886,-254.509 325.364,-260.863 327.476,-254.19"/>
</g>
<!-- Node14 -->
<g id="node15" class="node"><title>Node14</title>
<polygon fill="white" stroke="#bfbfbf" points="362.5,-235.5 362.5,-254.5 463.5,-254.5 463.5,-235.5 362.5,-235.5"/>
<text text-anchor="middle" x="413" y="-242.5" font-family="Helvetica,sans-Serif" font-size="10.00">odp/api/abi/pool.h</text>
</g>
<!-- Node5&#45;&gt;Node14 -->
<g id="edge17" class="edge"><title>Node5&#45;&gt;Node14</title>
<path fill="none" stroke="midnightblue" d="M468.687,-296.975C458.551,-287.697 442.136,-272.671 429.748,-261.331"/>
<polygon fill="midnightblue" stroke="midnightblue" points="432.035,-258.68 422.296,-254.509 427.309,-263.843 432.035,-258.68"/>
</g>
<!-- Node15 -->
<g id="node16" class="node"><title>Node15</title>
<g id="a_node16"><a xlink:href="api_2spec_2packet_8h.html" target="_top" xlink:title="ODP packet descriptor. ">
<polygon fill="white" stroke="black" points="482,-235.5 482,-254.5 604,-254.5 604,-235.5 482,-235.5"/>
<text text-anchor="middle" x="543" y="-242.5" font-family="Helvetica,sans-Serif" font-size="10.00">odp/api/spec/packet.h</text>
</a>
</g>
</g>
<!-- Node5&#45;&gt;Node15 -->
<g id="edge18" class="edge"><title>Node5&#45;&gt;Node15</title>
<path fill="none" stroke="midnightblue" d="M487.313,-296.975C497.449,-287.697 513.864,-272.671 526.252,-261.331"/>
<polygon fill="midnightblue" stroke="midnightblue" points="528.691,-263.843 533.704,-254.509 523.965,-258.68 528.691,-263.843"/>
</g>
<!-- Node7 -->
<g id="node8" class="node"><title>Node7</title>
<polygon fill="white" stroke="#bfbfbf" points="346,-56.5 346,-75.5 474,-75.5 474,-56.5 346,-56.5"/>
<text text-anchor="middle" x="410" y="-63.5" font-family="Helvetica,sans-Serif" font-size="10.00">odp/api/abi/std_types.h</text>
</g>
<!-- Node6&#45;&gt;Node7 -->
<g id="edge8" class="edge"><title>Node6&#45;&gt;Node7</title>
<path fill="none" stroke="midnightblue" d="M318.513,-112.324C336.072,-103.625 363.331,-90.1202 383.531,-80.113"/>
<polygon fill="midnightblue" stroke="midnightblue" points="385.124,-83.23 392.531,-75.6545 382.016,-76.9575 385.124,-83.23"/>
</g>
<!-- Node8 -->
<g id="node9" class="node"><title>Node8</title>
<g id="a_node9"><a xlink:href="api_2spec_2std__types_8h.html" target="_top" xlink:title="Standard C language types and definitions for ODP. ">
<polygon fill="white" stroke="black" points="192,-56.5 192,-75.5 328,-75.5 328,-56.5 192,-56.5"/>
<text text-anchor="middle" x="260" y="-63.5" font-family="Helvetica,sans-Serif" font-size="10.00">odp/api/spec/std_types.h</text>
</a>
</g>
</g>
<!-- Node6&#45;&gt;Node8 -->
<g id="edge9" class="edge"><title>Node6&#45;&gt;Node8</title>
<path fill="none" stroke="midnightblue" d="M294.23,-112.083C288.438,-104.455 279.942,-93.2645 272.862,-83.9408"/>
<polygon fill="midnightblue" stroke="midnightblue" points="275.479,-81.5991 266.644,-75.7511 269.904,-85.8321 275.479,-81.5991"/>
</g>
<!-- Node8&#45;&gt;Node1 -->
<g id="edge10" class="edge"><title>Node8&#45;&gt;Node1</title>
<path fill="none" stroke="midnightblue" d="M305.634,-56.4435C356.297,-46.9444 438.075,-31.611 492.428,-21.4198"/>
<polygon fill="midnightblue" stroke="midnightblue" points="493.395,-24.7994 502.579,-19.5164 492.105,-17.9193 493.395,-24.7994"/>
</g>
<!-- Node9 -->
<g id="node10" class="node"><title>Node9</title>
<polygon fill="white" stroke="#bfbfbf" points="233.5,-0.5 233.5,-19.5 286.5,-19.5 286.5,-0.5 233.5,-0.5"/>
<text text-anchor="middle" x="260" y="-7.5" font-family="Helvetica,sans-Serif" font-size="10.00">stdint.h</text>
</g>
<!-- Node8&#45;&gt;Node9 -->
<g id="edge11" class="edge"><title>Node8&#45;&gt;Node9</title>
<path fill="none" stroke="midnightblue" d="M260,-56.083C260,-49.0059 260,-38.8611 260,-29.9865"/>
<polygon fill="midnightblue" stroke="midnightblue" points="263.5,-29.751 260,-19.7511 256.5,-29.7511 263.5,-29.751"/>
</g>
<!-- Node8&#45;&gt;Node10 -->
<g id="edge12" class="edge"><title>Node8&#45;&gt;Node10</title>
<path fill="none" stroke="midnightblue" d="M328.001,-56.8651C331.041,-56.5603 334.051,-56.2702 337,-56 562.112,-35.3755 830.163,-20.3848 950.273,-14.1713"/>
<polygon fill="midnightblue" stroke="midnightblue" points="950.586,-17.6599 960.393,-13.6505 950.226,-10.6692 950.586,-17.6599"/>
</g>
<!-- Node15&#45;&gt;Node1 -->
<g id="edge19" class="edge"><title>Node15&#45;&gt;Node1</title>
<path fill="none" stroke="midnightblue" d="M481.695,-235.527C356.448,-215.852 90.5187,-160.583 183,-56 202.321,-34.1509 380.015,-20.5662 480.156,-14.5796"/>
<polygon fill="midnightblue" stroke="midnightblue" points="480.412,-18.0707 490.189,-13.9897 480.001,-11.0827 480.412,-18.0707"/>
</g>
<!-- Node15&#45;&gt;Node10 -->
<g id="edge26" class="edge"><title>Node15&#45;&gt;Node10</title>
<path fill="none" stroke="midnightblue" d="M560.27,-235.27C589.639,-220.566 651.351,-190.286 705,-168 772.257,-140.061 789.505,-133.785 859,-112 918.663,-93.2971 950.225,-119.643 995,-76 1007.22,-64.0855 1011.69,-44.7784 1013.27,-30.2961"/>
<polygon fill="midnightblue" stroke="midnightblue" points="1016.79,-30.1737 1014.01,-19.9495 1009.81,-29.6743 1016.79,-30.1737"/>
</g>
<!-- Node16 -->
<g id="node17" class="node"><title>Node16</title>
<g id="a_node17"><a xlink:href="api_2time_8h.html" target="_top" xlink:title="ODP time. ">
<polygon fill="white" stroke="black" points="462,-174 462,-193 548,-193 548,-174 462,-174"/>
<text text-anchor="middle" x="505" y="-181" font-family="Helvetica,sans-Serif" font-size="10.00">odp/api/time.h</text>
</a>
</g>
</g>
<!-- Node15&#45;&gt;Node16 -->
<g id="edge20" class="edge"><title>Node15&#45;&gt;Node16</title>
<path fill="none" stroke="midnightblue" d="M537.556,-235.475C531.912,-226.638 522.939,-212.589 515.841,-201.475"/>
<polygon fill="midnightblue" stroke="midnightblue" points="518.767,-199.553 510.434,-193.009 512.867,-203.321 518.767,-199.553"/>
</g>
<!-- Node16&#45;&gt;Node6 -->
<g id="edge21" class="edge"><title>Node16&#45;&gt;Node6</title>
<path fill="none" stroke="midnightblue" d="M475.772,-173.975C440.097,-163.57 379.64,-145.937 340.018,-134.38"/>
<polygon fill="midnightblue" stroke="midnightblue" points="340.754,-130.949 330.174,-131.509 338.794,-137.669 340.754,-130.949"/>
</g>
<!-- Node17 -->
<g id="node18" class="node"><title>Node17</title>
<polygon fill="white" stroke="#bfbfbf" points="416.5,-112.5 416.5,-131.5 519.5,-131.5 519.5,-112.5 416.5,-112.5"/>
<text text-anchor="middle" x="468" y="-119.5" font-family="Helvetica,sans-Serif" font-size="10.00">odp/api/abi/time.h</text>
</g>
<!-- Node16&#45;&gt;Node17 -->
<g id="edge22" class="edge"><title>Node16&#45;&gt;Node17</title>
<path fill="none" stroke="midnightblue" d="M499.699,-173.975C494.259,-165.227 485.641,-151.369 478.764,-140.309"/>
<polygon fill="midnightblue" stroke="midnightblue" points="481.544,-138.153 473.291,-131.509 475.6,-141.849 481.544,-138.153"/>
</g>
<!-- Node18 -->
<g id="node19" class="node"><title>Node18</title>
<g id="a_node19"><a xlink:href="api_2spec_2time_8h.html" target="_top" xlink:title="ODP time. ">
<polygon fill="white" stroke="black" points="492.5,-56.5 492.5,-75.5 603.5,-75.5 603.5,-56.5 492.5,-56.5"/>
<text text-anchor="middle" x="548" y="-63.5" font-family="Helvetica,sans-Serif" font-size="10.00">odp/api/spec/time.h</text>
</a>
</g>
</g>
<!-- Node16&#45;&gt;Node18 -->
<g id="edge23" class="edge"><title>Node16&#45;&gt;Node18</title>
<path fill="none" stroke="midnightblue" d="M509.424,-173.707C514.337,-163.746 522.322,-146.95 528,-132 533.895,-116.478 539.348,-98.3955 543.067,-85.2491"/>
<polygon fill="midnightblue" stroke="midnightblue" points="546.462,-86.1028 545.753,-75.5317 539.715,-84.2372 546.462,-86.1028"/>
</g>
<!-- Node18&#45;&gt;Node1 -->
<g id="edge24" class="edge"><title>Node18&#45;&gt;Node1</title>
<path fill="none" stroke="midnightblue" d="M548,-56.083C548,-49.0059 548,-38.8611 548,-29.9865"/>
<polygon fill="midnightblue" stroke="midnightblue" points="551.5,-29.751 548,-19.7511 544.5,-29.7511 551.5,-29.751"/>
</g>
<!-- Node18&#45;&gt;Node10 -->
<g id="edge25" class="edge"><title>Node18&#45;&gt;Node10</title>
<path fill="none" stroke="midnightblue" d="M603.748,-58.54C690.836,-48.4482 858.662,-29.0006 950.363,-18.3743"/>
<polygon fill="midnightblue" stroke="midnightblue" points="950.816,-21.8453 960.347,-17.2173 950.01,-14.8918 950.816,-21.8453"/>
</g>
<!-- Node19&#45;&gt;Node1 -->
<g id="edge29" class="edge"><title>Node19&#45;&gt;Node1</title>
<path fill="none" stroke="midnightblue" d="M934.61,-291.378C925.309,-275.084 907.758,-248.77 885,-235 815.199,-192.765 772.528,-244.782 705,-199 642.248,-156.456 664.63,-110.57 612,-56 600.315,-43.8845 584.946,-32.9539 572.198,-24.9001"/>
<polygon fill="midnightblue" stroke="midnightblue" points="573.827,-21.7938 563.468,-19.5682 570.178,-27.7677 573.827,-21.7938"/>
</g>
<!-- Node19&#45;&gt;Node10 -->
<g id="edge43" class="edge"><title>Node19&#45;&gt;Node10</title>
<path fill="none" stroke="midnightblue" d="M997.299,-303.338C1035.84,-298.895 1085.75,-286.805 1117,-255 1139.74,-231.851 1136,-216.951 1136,-184.5 1136,-184.5 1136,-184.5 1136,-121 1136,-72.5682 1082.31,-39.986 1046.17,-23.5381"/>
<polygon fill="midnightblue" stroke="midnightblue" points="1047.51,-20.3069 1036.95,-19.5154 1044.71,-26.7227 1047.51,-20.3069"/>
</g>
<!-- Node20 -->
<g id="node21" class="node"><title>Node20</title>
<g id="a_node21"><a xlink:href="api_2schedule__types_8h.html" target="_top" xlink:title="ODP schedule. ">
<polygon fill="white" stroke="black" points="970,-235.5 970,-254.5 1108,-254.5 1108,-235.5 970,-235.5"/>
<text text-anchor="middle" x="1039" y="-242.5" font-family="Helvetica,sans-Serif" font-size="10.00">odp/api/schedule_types.h</text>
</a>
</g>
</g>
<!-- Node19&#45;&gt;Node20 -->
<g id="edge30" class="edge"><title>Node19&#45;&gt;Node20</title>
<path fill="none" stroke="midnightblue" d="M964.988,-291.399C980.391,-281.951 1000.59,-269.559 1016,-260.109"/>
<polygon fill="midnightblue" stroke="midnightblue" points="1018.19,-262.87 1024.89,-254.658 1014.53,-256.903 1018.19,-262.87"/>
</g>
<!-- Node25 -->
<g id="node26" class="node"><title>Node25</title>
<g id="a_node26"><a xlink:href="deprecated_8h.html" target="_top" xlink:title="Control deprecated API definitions. ">
<polygon fill="white" stroke="black" points="714.5,-174 714.5,-193 833.5,-193 833.5,-174 714.5,-174"/>
<text text-anchor="middle" x="774" y="-181" font-family="Helvetica,sans-Serif" font-size="10.00">odp/api/deprecated.h</text>
</a>
</g>
</g>
<!-- Node19&#45;&gt;Node25 -->
<g id="edge39" class="edge"><title>Node19&#45;&gt;Node25</title>
<path fill="none" stroke="midnightblue" d="M940.825,-291.423C938.78,-275.666 933.198,-250.338 918,-235 903.853,-220.723 855.888,-205.629 819.163,-195.702"/>
<polygon fill="midnightblue" stroke="midnightblue" points="819.704,-192.225 809.141,-193.045 817.909,-198.991 819.704,-192.225"/>
</g>
<!-- Node21 -->
<g id="node22" class="node"><title>Node21</title>
<polygon fill="white" stroke="#bfbfbf" points="992.5,-168.5 992.5,-198.5 1107.5,-198.5 1107.5,-168.5 992.5,-168.5"/>
<text text-anchor="start" x="1000.5" y="-186.5" font-family="Helvetica,sans-Serif" font-size="10.00">odp/api/abi/schedule</text>
<text text-anchor="middle" x="1050" y="-175.5" font-family="Helvetica,sans-Serif" font-size="10.00">_types.h</text>
</g>
<!-- Node20&#45;&gt;Node21 -->
<g id="edge31" class="edge"><title>Node20&#45;&gt;Node21</title>
<path fill="none" stroke="midnightblue" d="M1040.58,-235.475C1041.88,-228.396 1043.81,-217.97 1045.58,-208.39"/>
<polygon fill="midnightblue" stroke="midnightblue" points="1049.03,-208.993 1047.41,-198.523 1042.15,-207.72 1049.03,-208.993"/>
</g>
<!-- Node22 -->
<g id="node23" class="node"><title>Node22</title>
<g id="a_node23"><a xlink:href="api_2spec_2schedule__types_8h.html" target="_top" xlink:title="ODP schedule types. ">
<polygon fill="white" stroke="black" points="851.5,-168.5 851.5,-198.5 974.5,-198.5 974.5,-168.5 851.5,-168.5"/>
<text text-anchor="start" x="859.5" y="-186.5" font-family="Helvetica,sans-Serif" font-size="10.00">odp/api/spec/schedule</text>
<text text-anchor="middle" x="913" y="-175.5" font-family="Helvetica,sans-Serif" font-size="10.00">_types.h</text>
</a>
</g>
</g>
<!-- Node20&#45;&gt;Node22 -->
<g id="edge32" class="edge"><title>Node20&#45;&gt;Node22</title>
<path fill="none" stroke="midnightblue" d="M1020.95,-235.475C1003.01,-227.002 974.914,-213.737 951.886,-202.863"/>
<polygon fill="midnightblue" stroke="midnightblue" points="953.233,-199.628 942.696,-198.523 950.244,-205.958 953.233,-199.628"/>
</g>
<!-- Node22&#45;&gt;Node1 -->
<g id="edge33" class="edge"><title>Node22&#45;&gt;Node1</title>
<path fill="none" stroke="midnightblue" d="M883.422,-168.344C834.231,-144.835 732.462,-96.3313 646,-56 622.486,-45.0318 595.711,-32.7512 576.096,-23.7934"/>
<polygon fill="midnightblue" stroke="midnightblue" points="577.369,-20.5269 566.818,-19.5601 574.463,-26.8953 577.369,-20.5269"/>
</g>
<!-- Node22&#45;&gt;Node10 -->
<g id="edge38" class="edge"><title>Node22&#45;&gt;Node10</title>
<path fill="none" stroke="midnightblue" d="M938.904,-168.385C967.536,-151.038 1011.75,-118.586 1028,-76 1033.84,-60.6813 1028.89,-42.3527 1023.33,-29.0692"/>
<polygon fill="midnightblue" stroke="midnightblue" points="1026.33,-27.2295 1018.93,-19.6517 1019.99,-30.1931 1026.33,-27.2295"/>
</g>
<!-- Node23 -->
<g id="node24" class="node"><title>Node23</title>
<g id="a_node24"><a xlink:href="support_8h.html" target="_top" xlink:title="ODP support API &#45; platform specific header. ">
<polygon fill="white" stroke="black" points="868.5,-112.5 868.5,-131.5 969.5,-131.5 969.5,-112.5 868.5,-112.5"/>
<text text-anchor="middle" x="919" y="-119.5" font-family="Helvetica,sans-Serif" font-size="10.00">odp/api/support.h</text>
</a>
</g>
</g>
<!-- Node22&#45;&gt;Node23 -->
<g id="edge34" class="edge"><title>Node22&#45;&gt;Node23</title>
<path fill="none" stroke="midnightblue" d="M914.422,-168.399C915.222,-160.466 916.231,-150.458 917.098,-141.858"/>
<polygon fill="midnightblue" stroke="midnightblue" points="920.606,-141.959 918.127,-131.658 913.641,-141.256 920.606,-141.959"/>
</g>
<!-- Node24 -->
<g id="node25" class="node"><title>Node24</title>
<g id="a_node25"><a xlink:href="spec_2support_8h.html" target="_top" xlink:title="ODP support API. ">
<polygon fill="white" stroke="black" points="860,-56.5 860,-75.5 986,-75.5 986,-56.5 860,-56.5"/>
<text text-anchor="middle" x="923" y="-63.5" font-family="Helvetica,sans-Serif" font-size="10.00">odp/api/spec/support.h</text>
</a>
</g>
</g>
<!-- Node23&#45;&gt;Node24 -->
<g id="edge35" class="edge"><title>Node23&#45;&gt;Node24</title>
<path fill="none" stroke="midnightblue" d="M919.661,-112.083C920.185,-105.006 920.936,-94.8611 921.594,-85.9865"/>
<polygon fill="midnightblue" stroke="midnightblue" points="925.103,-85.9823 922.352,-75.7511 918.123,-85.4652 925.103,-85.9823"/>
</g>
<!-- Node24&#45;&gt;Node1 -->
<g id="edge36" class="edge"><title>Node24&#45;&gt;Node1</title>
<path fill="none" stroke="midnightblue" d="M863.58,-56.4435C796.162,-46.7353 686.424,-30.9331 615.739,-20.7544"/>
<polygon fill="midnightblue" stroke="midnightblue" points="616,-17.256 605.603,-19.2948 615.002,-24.1845 616,-17.256"/>
</g>
<!-- Node24&#45;&gt;Node10 -->
<g id="edge37" class="edge"><title>Node24&#45;&gt;Node10</title>
<path fill="none" stroke="midnightblue" d="M937.621,-56.324C951.949,-47.8215 974.013,-34.7288 990.749,-24.7975"/>
<polygon fill="midnightblue" stroke="midnightblue" points="992.602,-27.7677 999.416,-19.6545 989.03,-21.7478 992.602,-27.7677"/>
</g>
<!-- Node26 -->
<g id="node27" class="node"><title>Node26</title>
<g id="a_node27"><a xlink:href="spec_2deprecated_8h.html" target="_top" xlink:title="Macro for deprecated API definitions. ">
<polygon fill="white" stroke="black" points="698,-56.5 698,-75.5 842,-75.5 842,-56.5 698,-56.5"/>
<text text-anchor="middle" x="770" y="-63.5" font-family="Helvetica,sans-Serif" font-size="10.00">odp/api/spec/deprecated.h</text>
</a>
</g>
</g>
<!-- Node25&#45;&gt;Node26 -->
<g id="edge40" class="edge"><title>Node25&#45;&gt;Node26</title>
<path fill="none" stroke="midnightblue" d="M773.699,-173.819C773.057,-155.257 771.536,-111.339 770.657,-85.9734"/>
<polygon fill="midnightblue" stroke="midnightblue" points="774.148,-85.6548 770.304,-75.782 767.152,-85.8972 774.148,-85.6548"/>
</g>
<!-- Node26&#45;&gt;Node1 -->
<g id="edge41" class="edge"><title>Node26&#45;&gt;Node1</title>
<path fill="none" stroke="midnightblue" d="M734.823,-56.4435C696.421,-47.1024 634.824,-32.1194 592.945,-21.9326"/>
<polygon fill="midnightblue" stroke="midnightblue" points="593.556,-18.4792 583.012,-19.5164 591.901,-25.2809 593.556,-18.4792"/>
</g>
<!-- Node26&#45;&gt;Node10 -->
<g id="edge42" class="edge"><title>Node26&#45;&gt;Node10</title>
<path fill="none" stroke="midnightblue" d="M808.663,-56.4435C851.138,-47.0431 919.431,-31.9291 965.474,-21.7393"/>
<polygon fill="midnightblue" stroke="midnightblue" points="966.511,-25.0946 975.518,-19.5164 964.998,-18.26 966.511,-25.0946"/>
</g>
</g>
</svg>
