<?xml version="1.0" encoding="UTF-8" standalone="no"?>
<!DOCTYPE svg PUBLIC "-//W3C//DTD SVG 1.1//EN"
 "http://www.w3.org/Graphics/SVG/1.1/DTD/svg11.dtd">
<!-- Generated by graphviz version 2.38.0 (20140413.2041)
 -->
<!-- Title: classification.h Pages: 1 -->
<svg width="1793pt" height="733pt"
 viewBox="0.00 0.00 1793.00 733.00" xmlns="http://www.w3.org/2000/svg" xmlns:xlink="http://www.w3.org/1999/xlink">
<g id="graph0" class="graph" transform="scale(1 1) rotate(0) translate(4 729)">
<title>classification.h</title>
<polygon fill="white" stroke="none" points="-4,4 -4,-729 1789,-729 1789,4 -4,4"/>
<!-- Node0 -->
<g id="node1" class="node"><title>Node0</title>
<polygon fill="#bfbfbf" stroke="black" points="1246,-705.5 1246,-724.5 1332,-724.5 1332,-705.5 1246,-705.5"/>
<text text-anchor="middle" x="1289" y="-712.5" font-family="Helvetica,sans-Serif" font-size="10.00">classification.h</text>
</g>
<!-- Node1 -->
<g id="node2" class="node"><title>Node1</title>
<g id="a_node2"><a xlink:href="visibility__begin_8h_source.html" target="_top" xlink:title="odp/visibility_begin.h">
<polygon fill="white" stroke="black" points="779.5,-0.5 779.5,-19.5 894.5,-19.5 894.5,-0.5 779.5,-0.5"/>
<text text-anchor="middle" x="837" y="-7.5" font-family="Helvetica,sans-Serif" font-size="10.00">odp/visibility_begin.h</text>
</a>
</g>
</g>
<!-- Node0&#45;&gt;Node1 -->
<g id="edge1" class="edge"><title>Node0&#45;&gt;Node1</title>
<path fill="none" stroke="midnightblue" d="M1245.82,-713.22C1076.87,-709.992 460.523,-696.548 267,-669 146.086,-651.788 0,-726.132 0,-604 0,-604 0,-604 0,-132 0,-69.6192 58.7342,-75.4659 118,-56 178.813,-36.0259 602.139,-19.2212 769.314,-13.2896"/>
<polygon fill="midnightblue" stroke="midnightblue" points="769.601,-16.7817 779.472,-12.9314 769.355,-9.78607 769.601,-16.7817"/>
</g>
<!-- Node2 -->
<g id="node3" class="node"><title>Node2</title>
<g id="a_node3"><a xlink:href="api_2packet__io_8h.html" target="_top" xlink:title="ODP Packet IO. ">
<polygon fill="white" stroke="black" points="276,-649.5 276,-668.5 386,-668.5 386,-649.5 276,-649.5"/>
<text text-anchor="middle" x="331" y="-656.5" font-family="Helvetica,sans-Serif" font-size="10.00">odp/api/packet_io.h</text>
</a>
</g>
</g>
<!-- Node0&#45;&gt;Node2 -->
<g id="edge2" class="edge"><title>Node0&#45;&gt;Node2</title>
<path fill="none" stroke="midnightblue" d="M1245.98,-711.575C1093.58,-702.984 578.804,-673.968 396.039,-663.666"/>
<polygon fill="midnightblue" stroke="midnightblue" points="396.215,-660.171 386.034,-663.102 395.821,-667.159 396.215,-660.171"/>
</g>
<!-- Node7 -->
<g id="node8" class="node"><title>Node7</title>
<g id="a_node8"><a xlink:href="visibility__end_8h_source.html" target="_top" xlink:title="odp/visibility_end.h">
<polygon fill="white" stroke="black" points="1409.5,-0.5 1409.5,-19.5 1516.5,-19.5 1516.5,-0.5 1409.5,-0.5"/>
<text text-anchor="middle" x="1463" y="-7.5" font-family="Helvetica,sans-Serif" font-size="10.00">odp/visibility_end.h</text>
</a>
</g>
</g>
<!-- Node0&#45;&gt;Node7 -->
<g id="edge76" class="edge"><title>Node0&#45;&gt;Node7</title>
<path fill="none" stroke="midnightblue" d="M1332.15,-713.576C1452.82,-711.233 1785,-696.393 1785,-604 1785,-604 1785,-604 1785,-132 1785,-91.0725 1767.5,-78.015 1733,-56 1699.71,-34.7558 1595.82,-22.1279 1527.05,-15.8835"/>
<polygon fill="midnightblue" stroke="midnightblue" points="1527.02,-12.3673 1516.75,-14.972 1526.4,-19.34 1527.02,-12.3673"/>
</g>
<!-- Node33 -->
<g id="node34" class="node"><title>Node33</title>
<g id="a_node34"><a xlink:href="support_8h.html" target="_top" xlink:title="ODP support API &#45; platform specific header. ">
<polygon fill="white" stroke="black" points="1465.5,-123.5 1465.5,-142.5 1566.5,-142.5 1566.5,-123.5 1465.5,-123.5"/>
<text text-anchor="middle" x="1516" y="-130.5" font-family="Helvetica,sans-Serif" font-size="10.00">odp/api/support.h</text>
</a>
</g>
</g>
<!-- Node0&#45;&gt;Node33 -->
<g id="edge70" class="edge"><title>Node0&#45;&gt;Node33</title>
<path fill="none" stroke="midnightblue" d="M1332.37,-711.841C1439.67,-705.321 1709,-681.26 1709,-604 1709,-604 1709,-604 1709,-546 1709,-377.277 1574.63,-203.272 1530.12,-150.271"/>
<polygon fill="midnightblue" stroke="midnightblue" points="1532.71,-147.913 1523.57,-142.566 1527.38,-152.45 1532.71,-147.913"/>
</g>
<!-- Node35 -->
<g id="node36" class="node"><title>Node35</title>
<g id="a_node36"><a xlink:href="threshold_8h.html" target="_top" xlink:title="ODP threshold API &#45; platform specific header. ">
<polygon fill="white" stroke="black" points="1234.5,-649.5 1234.5,-668.5 1343.5,-668.5 1343.5,-649.5 1234.5,-649.5"/>
<text text-anchor="middle" x="1289" y="-656.5" font-family="Helvetica,sans-Serif" font-size="10.00">odp/api/threshold.h</text>
</a>
</g>
</g>
<!-- Node0&#45;&gt;Node35 -->
<g id="edge71" class="edge"><title>Node0&#45;&gt;Node35</title>
<path fill="none" stroke="midnightblue" d="M1289,-705.083C1289,-698.006 1289,-687.861 1289,-678.986"/>
<polygon fill="midnightblue" stroke="midnightblue" points="1292.5,-678.751 1289,-668.751 1285.5,-678.751 1292.5,-678.751"/>
</g>
<!-- Node3 -->
<g id="node4" class="node"><title>Node3</title>
<g id="a_node4"><a xlink:href="api_2std__types_8h.html" target="_top" xlink:title="Standard C language types and definitions for ODP. ">
<polygon fill="white" stroke="black" points="494,-123.5 494,-142.5 604,-142.5 604,-123.5 494,-123.5"/>
<text text-anchor="middle" x="549" y="-130.5" font-family="Helvetica,sans-Serif" font-size="10.00">odp/api/std_types.h</text>
</a>
</g>
</g>
<!-- Node2&#45;&gt;Node3 -->
<g id="edge3" class="edge"><title>Node2&#45;&gt;Node3</title>
<path fill="none" stroke="midnightblue" d="M275.979,-654.079C214.745,-648.612 120.973,-636.593 95,-613 72.7213,-592.763 76,-578.098 76,-548 76,-548 76,-548 76,-255 76,-171.854 353.793,-145.083 483.603,-137.113"/>
<polygon fill="midnightblue" stroke="midnightblue" points="484.04,-140.593 493.815,-136.506 483.625,-133.605 484.04,-140.593"/>
</g>
<!-- Node8 -->
<g id="node9" class="node"><title>Node8</title>
<polygon fill="white" stroke="#bfbfbf" points="419.5,-246.5 419.5,-265.5 520.5,-265.5 520.5,-246.5 419.5,-246.5"/>
<text text-anchor="middle" x="470" y="-253.5" font-family="Helvetica,sans-Serif" font-size="10.00">odp/api/abi/pool.h</text>
</g>
<!-- Node2&#45;&gt;Node8 -->
<g id="edge9" class="edge"><title>Node2&#45;&gt;Node8</title>
<path fill="none" stroke="midnightblue" d="M333.562,-649.249C338.749,-630.738 350,-586.179 350,-548 350,-548 350,-548 350,-378 350,-326.127 406.289,-288.55 441.763,-270.02"/>
<polygon fill="midnightblue" stroke="midnightblue" points="443.361,-273.134 450.72,-265.512 440.214,-266.881 443.361,-273.134"/>
</g>
<!-- Node9 -->
<g id="node10" class="node"><title>Node9</title>
<polygon fill="white" stroke="#bfbfbf" points="104,-593.5 104,-612.5 246,-612.5 246,-593.5 104,-593.5"/>
<text text-anchor="middle" x="175" y="-600.5" font-family="Helvetica,sans-Serif" font-size="10.00">odp/api/abi/classification.h</text>
</g>
<!-- Node2&#45;&gt;Node9 -->
<g id="edge10" class="edge"><title>Node2&#45;&gt;Node9</title>
<path fill="none" stroke="midnightblue" d="M306.281,-649.444C280.152,-640.399 238.741,-626.064 209.424,-615.916"/>
<polygon fill="midnightblue" stroke="midnightblue" points="210.198,-612.48 199.603,-612.516 207.908,-619.095 210.198,-612.48"/>
</g>
<!-- Node10 -->
<g id="node11" class="node"><title>Node10</title>
<polygon fill="white" stroke="#bfbfbf" points="288.5,-246.5 288.5,-265.5 401.5,-265.5 401.5,-246.5 288.5,-246.5"/>
<text text-anchor="middle" x="345" y="-253.5" font-family="Helvetica,sans-Serif" font-size="10.00">odp/api/abi/packet.h</text>
</g>
<!-- Node2&#45;&gt;Node10 -->
<g id="edge11" class="edge"><title>Node2&#45;&gt;Node10</title>
<path fill="none" stroke="midnightblue" d="M328.438,-649.249C323.251,-630.738 312,-586.179 312,-548 312,-548 312,-548 312,-378 312,-340.235 327.147,-298.103 336.917,-274.855"/>
<polygon fill="midnightblue" stroke="midnightblue" points="340.17,-276.151 340.954,-265.585 333.752,-273.356 340.17,-276.151"/>
</g>
<!-- Node11 -->
<g id="node12" class="node"><title>Node11</title>
<polygon fill="white" stroke="#bfbfbf" points="104.5,-246.5 104.5,-265.5 231.5,-265.5 231.5,-246.5 104.5,-246.5"/>
<text text-anchor="middle" x="168" y="-253.5" font-family="Helvetica,sans-Serif" font-size="10.00">odp/api/abi/packet_io.h</text>
</g>
<!-- Node2&#45;&gt;Node11 -->
<g id="edge12" class="edge"><title>Node2&#45;&gt;Node11</title>
<path fill="none" stroke="midnightblue" d="M327.444,-649.252C306.941,-598.811 203.745,-344.938 175.281,-274.912"/>
<polygon fill="midnightblue" stroke="midnightblue" points="178.517,-273.579 171.509,-265.633 172.033,-276.215 178.517,-273.579"/>
</g>
<!-- Node12 -->
<g id="node13" class="node"><title>Node12</title>
<polygon fill="white" stroke="#bfbfbf" points="459.5,-481.5 459.5,-500.5 570.5,-500.5 570.5,-481.5 459.5,-481.5"/>
<text text-anchor="middle" x="515" y="-488.5" font-family="Helvetica,sans-Serif" font-size="10.00">odp/api/abi/queue.h</text>
</g>
<!-- Node2&#45;&gt;Node12 -->
<g id="edge13" class="edge"><title>Node2&#45;&gt;Node12</title>
<path fill="none" stroke="midnightblue" d="M340.634,-649.309C370.194,-622.64 459.893,-541.716 497.799,-507.519"/>
<polygon fill="midnightblue" stroke="midnightblue" points="500.381,-509.902 505.462,-500.605 495.692,-504.705 500.381,-509.902"/>
</g>
<!-- Node13 -->
<g id="node14" class="node"><title>Node13</title>
<g id="a_node14"><a xlink:href="api_2spec_2packet__io_8h.html" target="_top" xlink:title="ODP Packet IO. ">
<polygon fill="white" stroke="black" points="797.5,-593.5 797.5,-612.5 932.5,-612.5 932.5,-593.5 797.5,-593.5"/>
<text text-anchor="middle" x="865" y="-600.5" font-family="Helvetica,sans-Serif" font-size="10.00">odp/api/spec/packet_io.h</text>
</a>
</g>
</g>
<!-- Node2&#45;&gt;Node13 -->
<g id="edge14" class="edge"><title>Node2&#45;&gt;Node13</title>
<path fill="none" stroke="midnightblue" d="M386.136,-652.424C481.618,-642.769 677.988,-622.911 787.273,-611.86"/>
<polygon fill="midnightblue" stroke="midnightblue" points="787.651,-615.34 797.248,-610.851 786.946,-608.375 787.651,-615.34"/>
</g>
<!-- Node4 -->
<g id="node5" class="node"><title>Node4</title>
<polygon fill="white" stroke="#bfbfbf" points="567,-62 567,-81 695,-81 695,-62 567,-62"/>
<text text-anchor="middle" x="631" y="-69" font-family="Helvetica,sans-Serif" font-size="10.00">odp/api/abi/std_types.h</text>
</g>
<!-- Node3&#45;&gt;Node4 -->
<g id="edge4" class="edge"><title>Node3&#45;&gt;Node4</title>
<path fill="none" stroke="midnightblue" d="M560.749,-123.475C573.779,-114.02 595.036,-98.5961 610.759,-87.1871"/>
<polygon fill="midnightblue" stroke="midnightblue" points="613.235,-89.7149 619.273,-81.0091 609.124,-84.0492 613.235,-89.7149"/>
</g>
<!-- Node5 -->
<g id="node6" class="node"><title>Node5</title>
<g id="a_node6"><a xlink:href="api_2spec_2std__types_8h.html" target="_top" xlink:title="Standard C language types and definitions for ODP. ">
<polygon fill="white" stroke="black" points="413,-62 413,-81 549,-81 549,-62 413,-62"/>
<text text-anchor="middle" x="481" y="-69" font-family="Helvetica,sans-Serif" font-size="10.00">odp/api/spec/std_types.h</text>
</a>
</g>
</g>
<!-- Node3&#45;&gt;Node5 -->
<g id="edge5" class="edge"><title>Node3&#45;&gt;Node5</title>
<path fill="none" stroke="midnightblue" d="M539.257,-123.475C528.653,-114.197 511.481,-99.1706 498.521,-87.831"/>
<polygon fill="midnightblue" stroke="midnightblue" points="500.555,-84.9601 490.725,-81.0091 495.946,-90.2282 500.555,-84.9601"/>
</g>
<!-- Node5&#45;&gt;Node1 -->
<g id="edge6" class="edge"><title>Node5&#45;&gt;Node1</title>
<path fill="none" stroke="midnightblue" d="M525.346,-61.9436C536.029,-59.9392 547.414,-57.8501 558,-56 630.949,-43.2506 714.865,-29.892 771.456,-21.0747"/>
<polygon fill="midnightblue" stroke="midnightblue" points="772.003,-24.5319 781.346,-19.5367 770.927,-17.615 772.003,-24.5319"/>
</g>
<!-- Node6 -->
<g id="node7" class="node"><title>Node6</title>
<polygon fill="white" stroke="#bfbfbf" points="454.5,-0.5 454.5,-19.5 507.5,-19.5 507.5,-0.5 454.5,-0.5"/>
<text text-anchor="middle" x="481" y="-7.5" font-family="Helvetica,sans-Serif" font-size="10.00">stdint.h</text>
</g>
<!-- Node5&#45;&gt;Node6 -->
<g id="edge7" class="edge"><title>Node5&#45;&gt;Node6</title>
<path fill="none" stroke="midnightblue" d="M481,-61.9751C481,-53.5803 481,-40.4806 481,-29.6631"/>
<polygon fill="midnightblue" stroke="midnightblue" points="484.5,-29.5091 481,-19.5091 477.5,-29.5091 484.5,-29.5091"/>
</g>
<!-- Node5&#45;&gt;Node7 -->
<g id="edge8" class="edge"><title>Node5&#45;&gt;Node7</title>
<path fill="none" stroke="midnightblue" d="M520.805,-61.933C532.716,-59.6599 545.842,-57.4402 558,-56 872.08,-18.7951 1251.02,-12.2731 1399.22,-11.1874"/>
<polygon fill="midnightblue" stroke="midnightblue" points="1399.51,-14.6856 1409.49,-11.1183 1399.47,-7.68575 1399.51,-14.6856"/>
</g>
<!-- Node13&#45;&gt;Node1 -->
<g id="edge15" class="edge"><title>Node13&#45;&gt;Node1</title>
<path fill="none" stroke="midnightblue" d="M797.189,-602.498C722.841,-601.025 601.072,-592.613 503,-557 271.825,-473.054 38,-502.945 38,-257 38,-257 38,-257 38,-132 38,-58.3036 576.249,-24.0699 769.196,-14.1655"/>
<polygon fill="midnightblue" stroke="midnightblue" points="769.407,-17.6594 779.216,-13.6572 769.052,-10.6684 769.407,-17.6594"/>
</g>
<!-- Node13&#45;&gt;Node7 -->
<g id="edge69" class="edge"><title>Node13&#45;&gt;Node7</title>
<path fill="none" stroke="midnightblue" d="M932.596,-598.428C1090.31,-589.174 1477.88,-560.852 1592,-501 1640.12,-475.763 1747,-329.056 1747,-318.5 1747,-318.5 1747,-318.5 1747,-132 1747,-36.9493 1610.69,-15.5239 1526.94,-11.3305"/>
<polygon fill="midnightblue" stroke="midnightblue" points="1526.89,-7.8252 1516.75,-10.8916 1526.59,-14.8187 1526.89,-7.8252"/>
</g>
<!-- Node14 -->
<g id="node15" class="node"><title>Node14</title>
<g id="a_node15"><a xlink:href="deprecated_8h.html" target="_top" xlink:title="Control deprecated API definitions. ">
<polygon fill="white" stroke="black" points="1159.5,-246.5 1159.5,-265.5 1278.5,-265.5 1278.5,-246.5 1159.5,-246.5"/>
<text text-anchor="middle" x="1219" y="-253.5" font-family="Helvetica,sans-Serif" font-size="10.00">odp/api/deprecated.h</text>
</a>
</g>
</g>
<!-- Node13&#45;&gt;Node14 -->
<g id="edge16" class="edge"><title>Node13&#45;&gt;Node14</title>
<path fill="none" stroke="midnightblue" d="M932.623,-594.301C983.963,-587.164 1049.02,-574.924 1069,-557 1158.02,-477.122 1083.42,-397.818 1155,-302 1164.75,-288.953 1179.4,-278.257 1192.23,-270.57"/>
<polygon fill="midnightblue" stroke="midnightblue" points="1194.18,-273.49 1201.15,-265.515 1190.73,-267.4 1194.18,-273.49"/>
</g>
<!-- Node16 -->
<g id="node17" class="node"><title>Node16</title>
<g id="a_node17"><a xlink:href="packet__io__stats_8h.html" target="_top" xlink:title="ODP packet IO stats. ">
<polygon fill="white" stroke="black" points="1121.5,-537.5 1121.5,-556.5 1260.5,-556.5 1260.5,-537.5 1121.5,-537.5"/>
<text text-anchor="middle" x="1191" y="-544.5" font-family="Helvetica,sans-Serif" font-size="10.00">odp/api/packet_io_stats.h</text>
</a>
</g>
</g>
<!-- Node13&#45;&gt;Node16 -->
<g id="edge20" class="edge"><title>Node13&#45;&gt;Node16</title>
<path fill="none" stroke="midnightblue" d="M916.656,-593.444C974.479,-583.865 1068.11,-568.356 1129.62,-558.167"/>
<polygon fill="midnightblue" stroke="midnightblue" points="1130.29,-561.604 1139.59,-556.516 1129.15,-554.698 1130.29,-561.604"/>
</g>
<!-- Node18 -->
<g id="node19" class="node"><title>Node18</title>
<g id="a_node19"><a xlink:href="api_2queue_8h.html" target="_top" xlink:title="ODP queue. ">
<polygon fill="white" stroke="black" points="628,-537.5 628,-556.5 722,-556.5 722,-537.5 628,-537.5"/>
<text text-anchor="middle" x="675" y="-544.5" font-family="Helvetica,sans-Serif" font-size="10.00">odp/api/queue.h</text>
</a>
</g>
</g>
<!-- Node13&#45;&gt;Node18 -->
<g id="edge24" class="edge"><title>Node13&#45;&gt;Node18</title>
<path fill="none" stroke="midnightblue" d="M834.894,-593.444C802.374,-584.201 750.421,-569.436 714.609,-559.257"/>
<polygon fill="midnightblue" stroke="midnightblue" points="715.541,-555.884 704.965,-556.516 713.627,-562.617 715.541,-555.884"/>
</g>
<!-- Node24 -->
<g id="node25" class="node"><title>Node24</title>
<g id="a_node25"><a xlink:href="api_2packet_8h.html" target="_top" xlink:title="ODP packet descriptor. ">
<polygon fill="white" stroke="black" points="501,-308 501,-327 597,-327 597,-308 501,-308"/>
<text text-anchor="middle" x="549" y="-315" font-family="Helvetica,sans-Serif" font-size="10.00">odp/api/packet.h</text>
</a>
</g>
</g>
<!-- Node13&#45;&gt;Node24 -->
<g id="edge68" class="edge"><title>Node13&#45;&gt;Node24</title>
<path fill="none" stroke="midnightblue" d="M797.075,-595.925C690.076,-584.741 490.263,-556.758 450,-501 408.409,-443.403 489.541,-366.318 529.081,-333.893"/>
<polygon fill="midnightblue" stroke="midnightblue" points="531.654,-336.316 537.267,-327.33 527.275,-330.854 531.654,-336.316"/>
</g>
<!-- Node26 -->
<g id="node27" class="node"><title>Node26</title>
<g id="a_node27"><a xlink:href="api_2time_8h.html" target="_top" xlink:title="ODP time. ">
<polygon fill="white" stroke="black" points="827,-185 827,-204 913,-204 913,-185 827,-185"/>
<text text-anchor="middle" x="870" y="-192" font-family="Helvetica,sans-Serif" font-size="10.00">odp/api/time.h</text>
</a>
</g>
</g>
<!-- Node13&#45;&gt;Node26 -->
<g id="edge67" class="edge"><title>Node13&#45;&gt;Node26</title>
<path fill="none" stroke="midnightblue" d="M922.522,-593.485C978.444,-581.565 1055,-553.938 1055,-492 1055,-492 1055,-492 1055,-316.5 1055,-284.049 1058.58,-269.312 1036,-246 1031.5,-241.353 958.295,-220.204 910.616,-206.792"/>
<polygon fill="midnightblue" stroke="midnightblue" points="911.436,-203.387 900.863,-204.056 909.546,-210.127 911.436,-203.387"/>
</g>
<!-- Node15 -->
<g id="node16" class="node"><title>Node15</title>
<g id="a_node16"><a xlink:href="spec_2deprecated_8h.html" target="_top" xlink:title="Macro for deprecated API definitions. ">
<polygon fill="white" stroke="black" points="1109,-62 1109,-81 1253,-81 1253,-62 1109,-62"/>
<text text-anchor="middle" x="1181" y="-69" font-family="Helvetica,sans-Serif" font-size="10.00">odp/api/spec/deprecated.h</text>
</a>
</g>
</g>
<!-- Node14&#45;&gt;Node15 -->
<g id="edge17" class="edge"><title>Node14&#45;&gt;Node15</title>
<path fill="none" stroke="midnightblue" d="M1217.17,-246.198C1211.31,-218.073 1192.96,-129.958 1184.88,-91.1575"/>
<polygon fill="midnightblue" stroke="midnightblue" points="1188.28,-90.2906 1182.81,-81.214 1181.43,-91.7176 1188.28,-90.2906"/>
</g>
<!-- Node15&#45;&gt;Node1 -->
<g id="edge18" class="edge"><title>Node15&#45;&gt;Node1</title>
<path fill="none" stroke="midnightblue" d="M1131.71,-61.9751C1069.51,-51.2164 962.634,-32.7304 896.11,-21.224"/>
<polygon fill="midnightblue" stroke="midnightblue" points="896.646,-17.7647 886.195,-19.5091 895.453,-24.6623 896.646,-17.7647"/>
</g>
<!-- Node15&#45;&gt;Node7 -->
<g id="edge19" class="edge"><title>Node15&#45;&gt;Node7</title>
<path fill="none" stroke="midnightblue" d="M1221.4,-61.9751C1271.87,-51.3269 1358.21,-33.1092 1412.85,-21.5806"/>
<polygon fill="midnightblue" stroke="midnightblue" points="1413.61,-24.9982 1422.67,-19.5091 1412.16,-18.149 1413.61,-24.9982"/>
</g>
<!-- Node17 -->
<g id="node18" class="node"><title>Node17</title>
<g id="a_node18"><a xlink:href="spec_2packet__io__stats_8h.html" target="_top" xlink:title="ODP Packet IO. ">
<polygon fill="white" stroke="black" points="1491.5,-56.5 1491.5,-86.5 1604.5,-86.5 1604.5,-56.5 1491.5,-56.5"/>
<text text-anchor="start" x="1499.5" y="-74.5" font-family="Helvetica,sans-Serif" font-size="10.00">odp/api/spec/packet</text>
<text text-anchor="middle" x="1548" y="-63.5" font-family="Helvetica,sans-Serif" font-size="10.00">_io_stats.h</text>
</a>
</g>
</g>
<!-- Node16&#45;&gt;Node17 -->
<g id="edge21" class="edge"><title>Node16&#45;&gt;Node17</title>
<path fill="none" stroke="midnightblue" d="M1260.55,-543.018C1385.02,-535.769 1633,-511.815 1633,-436 1633,-436 1633,-436 1633,-255 1633,-192.114 1591.01,-127.476 1566.06,-94.6117"/>
<polygon fill="midnightblue" stroke="midnightblue" points="1568.72,-92.3325 1559.82,-86.5864 1563.19,-96.6293 1568.72,-92.3325"/>
</g>
<!-- Node17&#45;&gt;Node1 -->
<g id="edge22" class="edge"><title>Node17&#45;&gt;Node1</title>
<path fill="none" stroke="midnightblue" d="M1491.41,-61.9341C1476.05,-59.7942 1459.41,-57.6435 1444,-56 1248.87,-35.1864 1017.43,-20.8899 905.034,-14.6078"/>
<polygon fill="midnightblue" stroke="midnightblue" points="905.039,-11.1027 894.861,-14.0429 904.651,-18.092 905.039,-11.1027"/>
</g>
<!-- Node17&#45;&gt;Node7 -->
<g id="edge23" class="edge"><title>Node17&#45;&gt;Node7</title>
<path fill="none" stroke="midnightblue" d="M1527.86,-56.3993C1514.61,-47.1293 1497.32,-35.0254 1483.92,-25.6469"/>
<polygon fill="midnightblue" stroke="midnightblue" points="1485.57,-22.5251 1475.37,-19.6578 1481.55,-28.2598 1485.57,-22.5251"/>
</g>
<!-- Node18&#45;&gt;Node3 -->
<g id="edge25" class="edge"><title>Node18&#45;&gt;Node3</title>
<path fill="none" stroke="midnightblue" d="M663.091,-537.46C645.154,-524.706 610,-500.137 579,-481 439.417,-394.831 319.031,-425.079 279,-266 256.249,-175.591 396.783,-147.082 483.755,-138.108"/>
<polygon fill="midnightblue" stroke="midnightblue" points="484.205,-141.581 493.82,-137.132 483.529,-134.614 484.205,-141.581"/>
</g>
<!-- Node18&#45;&gt;Node8 -->
<g id="edge29" class="edge"><title>Node18&#45;&gt;Node8</title>
<path fill="none" stroke="midnightblue" d="M666.675,-537.347C634.325,-503.573 517.512,-380.171 492,-333 482.22,-314.916 476.356,-292 473.171,-276.083"/>
<polygon fill="midnightblue" stroke="midnightblue" points="476.551,-275.106 471.309,-265.899 469.665,-276.365 476.551,-275.106"/>
</g>
<!-- Node18&#45;&gt;Node12 -->
<g id="edge27" class="edge"><title>Node18&#45;&gt;Node12</title>
<path fill="none" stroke="midnightblue" d="M649.648,-537.444C622.731,-528.359 580.004,-513.939 549.913,-503.783"/>
<polygon fill="midnightblue" stroke="midnightblue" points="550.828,-500.398 540.234,-500.516 548.59,-507.031 550.828,-500.398"/>
</g>
<!-- Node19 -->
<g id="node20" class="node"><title>Node19</title>
<polygon fill="white" stroke="#bfbfbf" points="703,-246.5 703,-265.5 811,-265.5 811,-246.5 703,-246.5"/>
<text text-anchor="middle" x="757" y="-253.5" font-family="Helvetica,sans-Serif" font-size="10.00">odp/api/abi/event.h</text>
</g>
<!-- Node18&#45;&gt;Node19 -->
<g id="edge26" class="edge"><title>Node18&#45;&gt;Node19</title>
<path fill="none" stroke="midnightblue" d="M676.672,-537.114C679.092,-524.546 683.848,-500.891 689,-481 708.94,-404.012 738.128,-313.84 750.775,-275.623"/>
<polygon fill="midnightblue" stroke="midnightblue" points="754.178,-276.481 754.012,-265.887 747.536,-274.272 754.178,-276.481"/>
</g>
<!-- Node20 -->
<g id="node21" class="node"><title>Node20</title>
<polygon fill="white" stroke="#bfbfbf" points="577,-246.5 577,-265.5 685,-265.5 685,-246.5 577,-246.5"/>
<text text-anchor="middle" x="631" y="-253.5" font-family="Helvetica,sans-Serif" font-size="10.00">odp/api/abi/buffer.h</text>
</g>
<!-- Node18&#45;&gt;Node20 -->
<g id="edge28" class="edge"><title>Node18&#45;&gt;Node20</title>
<path fill="none" stroke="midnightblue" d="M678.6,-537.222C682.056,-528.285 687.033,-513.942 689,-501 690.335,-492.212 690.123,-489.818 689,-481 679.068,-403.021 650.431,-313.374 637.488,-275.458"/>
<polygon fill="midnightblue" stroke="midnightblue" points="640.725,-274.109 634.147,-265.804 634.11,-276.398 640.725,-274.109"/>
</g>
<!-- Node21 -->
<g id="node22" class="node"><title>Node21</title>
<g id="a_node22"><a xlink:href="api_2spec_2queue_8h.html" target="_top" xlink:title="ODP queue. ">
<polygon fill="white" stroke="black" points="863.5,-481.5 863.5,-500.5 982.5,-500.5 982.5,-481.5 863.5,-481.5"/>
<text text-anchor="middle" x="923" y="-488.5" font-family="Helvetica,sans-Serif" font-size="10.00">odp/api/spec/queue.h</text>
</a>
</g>
</g>
<!-- Node18&#45;&gt;Node21 -->
<g id="edge30" class="edge"><title>Node18&#45;&gt;Node21</title>
<path fill="none" stroke="midnightblue" d="M714.296,-537.444C757.559,-528.023 827.173,-512.866 873.973,-502.675"/>
<polygon fill="midnightblue" stroke="midnightblue" points="874.861,-506.064 883.888,-500.516 873.372,-499.224 874.861,-506.064"/>
</g>
<!-- Node21&#45;&gt;Node1 -->
<g id="edge31" class="edge"><title>Node21&#45;&gt;Node1</title>
<path fill="none" stroke="midnightblue" d="M922.595,-481.267C921.451,-461.039 917.354,-409.602 904,-369 884.746,-310.461 877.728,-294.725 840,-246 825.357,-227.089 810.537,-231.471 800,-210 769.84,-148.545 777.421,-119.499 803,-56 807.236,-45.4842 814.595,-35.2756 821.386,-27.2475"/>
<polygon fill="midnightblue" stroke="midnightblue" points="824.037,-29.5332 828.102,-19.749 818.823,-24.8629 824.037,-29.5332"/>
</g>
<!-- Node21&#45;&gt;Node7 -->
<g id="edge66" class="edge"><title>Node21&#45;&gt;Node7</title>
<path fill="none" stroke="midnightblue" d="M973.53,-481.421C1095.37,-458.375 1409.27,-384.638 1599,-210 1652.26,-160.979 1696.87,-112.803 1652,-56 1636.48,-36.3546 1575.41,-24.3618 1526.84,-17.7522"/>
<polygon fill="midnightblue" stroke="midnightblue" points="1527.05,-14.2505 1516.68,-16.4226 1526.14,-21.1912 1527.05,-14.2505"/>
</g>
<!-- Node22 -->
<g id="node23" class="node"><title>Node22</title>
<g id="a_node23"><a xlink:href="api_2event_8h.html" target="_top" xlink:title="ODP event. ">
<polygon fill="white" stroke="black" points="791.5,-425.5 791.5,-444.5 882.5,-444.5 882.5,-425.5 791.5,-425.5"/>
<text text-anchor="middle" x="837" y="-432.5" font-family="Helvetica,sans-Serif" font-size="10.00">odp/api/event.h</text>
</a>
</g>
</g>
<!-- Node21&#45;&gt;Node22 -->
<g id="edge32" class="edge"><title>Node21&#45;&gt;Node22</title>
<path fill="none" stroke="midnightblue" d="M909.183,-481.324C895.767,-472.9 875.176,-459.971 859.414,-450.074"/>
<polygon fill="midnightblue" stroke="midnightblue" points="861.113,-447.008 850.783,-444.655 857.391,-452.936 861.113,-447.008"/>
</g>
<!-- Node29 -->
<g id="node30" class="node"><title>Node29</title>
<g id="a_node30"><a xlink:href="queue__types_8h.html" target="_top" xlink:title="ODP queue types. ">
<polygon fill="white" stroke="black" points="1164,-302.5 1164,-332.5 1274,-332.5 1274,-302.5 1164,-302.5"/>
<text text-anchor="start" x="1172" y="-320.5" font-family="Helvetica,sans-Serif" font-size="10.00">odp/api/spec/queue</text>
<text text-anchor="middle" x="1219" y="-309.5" font-family="Helvetica,sans-Serif" font-size="10.00">_types.h</text>
</a>
</g>
</g>
<!-- Node21&#45;&gt;Node29 -->
<g id="edge53" class="edge"><title>Node21&#45;&gt;Node29</title>
<path fill="none" stroke="midnightblue" d="M937.679,-481.495C983.042,-455.212 1121.78,-374.827 1185.89,-337.685"/>
<polygon fill="midnightblue" stroke="midnightblue" points="1187.89,-340.572 1194.78,-332.53 1184.38,-334.515 1187.89,-340.572"/>
</g>
<!-- Node22&#45;&gt;Node19 -->
<g id="edge33" class="edge"><title>Node22&#45;&gt;Node19</title>
<path fill="none" stroke="midnightblue" d="M815.371,-425.49C799.982,-418.225 780.281,-406.199 770,-389 748.807,-353.546 750.931,-302.969 754.101,-275.869"/>
<polygon fill="midnightblue" stroke="midnightblue" points="757.59,-276.183 755.458,-265.805 750.653,-275.247 757.59,-276.183"/>
</g>
<!-- Node23 -->
<g id="node24" class="node"><title>Node23</title>
<g id="a_node24"><a xlink:href="api_2spec_2event_8h.html" target="_top" xlink:title="ODP event. ">
<polygon fill="white" stroke="black" points="779,-369.5 779,-388.5 895,-388.5 895,-369.5 779,-369.5"/>
<text text-anchor="middle" x="837" y="-376.5" font-family="Helvetica,sans-Serif" font-size="10.00">odp/api/spec/event.h</text>
</a>
</g>
</g>
<!-- Node22&#45;&gt;Node23 -->
<g id="edge34" class="edge"><title>Node22&#45;&gt;Node23</title>
<path fill="none" stroke="midnightblue" d="M837,-425.083C837,-418.006 837,-407.861 837,-398.986"/>
<polygon fill="midnightblue" stroke="midnightblue" points="840.5,-398.751 837,-388.751 833.5,-398.751 840.5,-398.751"/>
</g>
<!-- Node23&#45;&gt;Node1 -->
<g id="edge35" class="edge"><title>Node23&#45;&gt;Node1</title>
<path fill="none" stroke="midnightblue" d="M838.474,-369.293C841.817,-346.601 847.67,-284.729 820,-246 798.97,-216.565 766.103,-240.72 747,-210 710.857,-151.877 711.017,-114.222 747,-56 756.673,-40.348 773.622,-29.958 790.222,-23.1496"/>
<polygon fill="midnightblue" stroke="midnightblue" points="791.751,-26.3151 799.898,-19.5421 789.305,-19.7561 791.751,-26.3151"/>
</g>
<!-- Node23&#45;&gt;Node7 -->
<g id="edge52" class="edge"><title>Node23&#45;&gt;Node7</title>
<path fill="none" stroke="midnightblue" d="M895.054,-376.428C980.815,-373.146 1146,-363.14 1283,-333 1372.09,-313.401 1394.46,-304.826 1477,-266 1520.32,-245.626 1534.93,-243.625 1569,-210 1621.4,-158.287 1674.77,-114.437 1630,-56 1617.22,-39.3202 1568.5,-27.4282 1526.95,-20.0744"/>
<polygon fill="midnightblue" stroke="midnightblue" points="1527.29,-16.582 1516.85,-18.3478 1526.12,-23.482 1527.29,-16.582"/>
</g>
<!-- Node23&#45;&gt;Node24 -->
<g id="edge36" class="edge"><title>Node23&#45;&gt;Node24</title>
<path fill="none" stroke="midnightblue" d="M795.737,-369.475C744.196,-358.827 656.016,-340.609 600.213,-329.081"/>
<polygon fill="midnightblue" stroke="midnightblue" points="600.688,-325.605 590.187,-327.009 599.272,-332.46 600.688,-325.605"/>
</g>
<!-- Node24&#45;&gt;Node3 -->
<g id="edge37" class="edge"><title>Node24&#45;&gt;Node3</title>
<path fill="none" stroke="midnightblue" d="M549,-307.698C549,-279.693 549,-192.213 549,-153.16"/>
<polygon fill="midnightblue" stroke="midnightblue" points="552.5,-152.714 549,-142.714 545.5,-152.714 552.5,-152.714"/>
</g>
<!-- Node24&#45;&gt;Node8 -->
<g id="edge42" class="edge"><title>Node24&#45;&gt;Node8</title>
<path fill="none" stroke="midnightblue" d="M537.681,-307.975C525.127,-298.52 504.649,-283.096 489.501,-271.687"/>
<polygon fill="midnightblue" stroke="midnightblue" points="491.391,-268.73 481.298,-265.509 487.18,-274.321 491.391,-268.73"/>
</g>
<!-- Node24&#45;&gt;Node10 -->
<g id="edge40" class="edge"><title>Node24&#45;&gt;Node10</title>
<path fill="none" stroke="midnightblue" d="M519.772,-307.975C484.097,-297.57 423.64,-279.937 384.018,-268.38"/>
<polygon fill="midnightblue" stroke="midnightblue" points="384.754,-264.949 374.174,-265.509 382.794,-271.669 384.754,-264.949"/>
</g>
<!-- Node24&#45;&gt;Node11 -->
<g id="edge39" class="edge"><title>Node24&#45;&gt;Node11</title>
<path fill="none" stroke="midnightblue" d="M500.746,-308.964C432.716,-298.34 308.456,-278.935 232.546,-267.08"/>
<polygon fill="midnightblue" stroke="midnightblue" points="233.043,-263.615 222.623,-265.53 231.963,-270.531 233.043,-263.615"/>
</g>
<!-- Node24&#45;&gt;Node19 -->
<g id="edge38" class="edge"><title>Node24&#45;&gt;Node19</title>
<path fill="none" stroke="midnightblue" d="M578.801,-307.975C615.253,-297.548 677.08,-279.862 717.474,-268.307"/>
<polygon fill="midnightblue" stroke="midnightblue" points="718.602,-271.624 727.254,-265.509 716.677,-264.894 718.602,-271.624"/>
</g>
<!-- Node24&#45;&gt;Node20 -->
<g id="edge41" class="edge"><title>Node24&#45;&gt;Node20</title>
<path fill="none" stroke="midnightblue" d="M560.749,-307.975C573.779,-298.52 595.036,-283.096 610.759,-271.687"/>
<polygon fill="midnightblue" stroke="midnightblue" points="613.235,-274.215 619.273,-265.509 609.124,-268.549 613.235,-274.215"/>
</g>
<!-- Node25 -->
<g id="node26" class="node"><title>Node25</title>
<g id="a_node26"><a xlink:href="api_2spec_2packet_8h.html" target="_top" xlink:title="ODP packet descriptor. ">
<polygon fill="white" stroke="black" points="905,-246.5 905,-265.5 1027,-265.5 1027,-246.5 905,-246.5"/>
<text text-anchor="middle" x="966" y="-253.5" font-family="Helvetica,sans-Serif" font-size="10.00">odp/api/spec/packet.h</text>
</a>
</g>
</g>
<!-- Node24&#45;&gt;Node25 -->
<g id="edge43" class="edge"><title>Node24&#45;&gt;Node25</title>
<path fill="none" stroke="midnightblue" d="M597.243,-309.616C670.79,-299.122 811.329,-279.069 896.069,-266.978"/>
<polygon fill="midnightblue" stroke="midnightblue" points="896.713,-270.422 906.118,-265.544 895.724,-263.492 896.713,-270.422"/>
</g>
<!-- Node25&#45;&gt;Node1 -->
<g id="edge44" class="edge"><title>Node25&#45;&gt;Node1</title>
<path fill="none" stroke="midnightblue" d="M916.675,-246.489C878.419,-238.766 829.953,-226.128 818,-210 777.199,-154.949 810.634,-66.4457 828.067,-28.8345"/>
<polygon fill="midnightblue" stroke="midnightblue" points="831.306,-30.1749 832.484,-19.6458 824.997,-27.1419 831.306,-30.1749"/>
</g>
<!-- Node25&#45;&gt;Node7 -->
<g id="edge51" class="edge"><title>Node25&#45;&gt;Node7</title>
<path fill="none" stroke="midnightblue" d="M1012.49,-246.469C1034.36,-240.069 1058.9,-229.001 1074,-210 1117.19,-155.663 1049.85,-103.993 1100,-56 1141.62,-16.166 1306.6,-10.1925 1399.16,-10.0916"/>
<polygon fill="midnightblue" stroke="midnightblue" points="1399.25,-13.5916 1409.26,-10.1035 1399.26,-6.59157 1399.25,-13.5916"/>
</g>
<!-- Node25&#45;&gt;Node26 -->
<g id="edge45" class="edge"><title>Node25&#45;&gt;Node26</title>
<path fill="none" stroke="midnightblue" d="M952.246,-246.475C936.634,-236.799 910.937,-220.872 892.417,-209.394"/>
<polygon fill="midnightblue" stroke="midnightblue" points="894.073,-206.302 883.729,-204.009 890.385,-212.252 894.073,-206.302"/>
</g>
<!-- Node26&#45;&gt;Node3 -->
<g id="edge46" class="edge"><title>Node26&#45;&gt;Node3</title>
<path fill="none" stroke="midnightblue" d="M826.709,-185.476C769.404,-174.854 668.268,-156.107 605.146,-144.407"/>
<polygon fill="midnightblue" stroke="midnightblue" points="605.442,-140.902 594.971,-142.521 604.166,-147.785 605.442,-140.902"/>
</g>
<!-- Node27 -->
<g id="node28" class="node"><title>Node27</title>
<polygon fill="white" stroke="#bfbfbf" points="827.5,-123.5 827.5,-142.5 930.5,-142.5 930.5,-123.5 827.5,-123.5"/>
<text text-anchor="middle" x="879" y="-130.5" font-family="Helvetica,sans-Serif" font-size="10.00">odp/api/abi/time.h</text>
</g>
<!-- Node26&#45;&gt;Node27 -->
<g id="edge47" class="edge"><title>Node26&#45;&gt;Node27</title>
<path fill="none" stroke="midnightblue" d="M871.289,-184.975C872.559,-176.58 874.541,-163.481 876.177,-152.663"/>
<polygon fill="midnightblue" stroke="midnightblue" points="879.678,-152.92 877.713,-142.509 872.757,-151.873 879.678,-152.92"/>
</g>
<!-- Node28 -->
<g id="node29" class="node"><title>Node28</title>
<g id="a_node29"><a xlink:href="api_2spec_2time_8h.html" target="_top" xlink:title="ODP time. ">
<polygon fill="white" stroke="black" points="865.5,-62 865.5,-81 976.5,-81 976.5,-62 865.5,-62"/>
<text text-anchor="middle" x="921" y="-69" font-family="Helvetica,sans-Serif" font-size="10.00">odp/api/spec/time.h</text>
</a>
</g>
</g>
<!-- Node26&#45;&gt;Node28 -->
<g id="edge48" class="edge"><title>Node26&#45;&gt;Node28</title>
<path fill="none" stroke="midnightblue" d="M890.511,-184.909C906.968,-176.783 928.926,-162.858 939,-143 947.544,-126.158 939.97,-104.944 932.19,-90.2078"/>
<polygon fill="midnightblue" stroke="midnightblue" points="935.002,-88.0789 926.966,-81.1742 928.942,-91.5831 935.002,-88.0789"/>
</g>
<!-- Node28&#45;&gt;Node1 -->
<g id="edge49" class="edge"><title>Node28&#45;&gt;Node1</title>
<path fill="none" stroke="midnightblue" d="M908.965,-61.9751C895.492,-52.4315 873.434,-36.8073 857.285,-25.3683"/>
<polygon fill="midnightblue" stroke="midnightblue" points="859.196,-22.4332 849.013,-19.5091 855.15,-28.1454 859.196,-22.4332"/>
</g>
<!-- Node28&#45;&gt;Node7 -->
<g id="edge50" class="edge"><title>Node28&#45;&gt;Node7</title>
<path fill="none" stroke="midnightblue" d="M976.735,-62.6906C993.521,-60.4268 1012,-58.0222 1029,-56 1160.55,-40.3522 1314.92,-25.0823 1399.52,-16.977"/>
<polygon fill="midnightblue" stroke="midnightblue" points="1399.87,-20.4601 1409.49,-16.0245 1399.2,-13.4919 1399.87,-20.4601"/>
</g>
<!-- Node29&#45;&gt;Node1 -->
<g id="edge54" class="edge"><title>Node29&#45;&gt;Node1</title>
<path fill="none" stroke="midnightblue" d="M1196.67,-302.442C1182.54,-293.012 1164.3,-279.823 1150,-266 1064.65,-183.515 1082.96,-123.021 985,-56 960.521,-39.2533 929.619,-28.5809 902.392,-21.8585"/>
<polygon fill="midnightblue" stroke="midnightblue" points="903.08,-18.4251 892.546,-19.5567 901.486,-25.2413 903.08,-18.4251"/>
</g>
<!-- Node29&#45;&gt;Node7 -->
<g id="edge65" class="edge"><title>Node29&#45;&gt;Node7</title>
<path fill="none" stroke="midnightblue" d="M1274.35,-311.9C1321.59,-306.192 1390.21,-293.578 1444,-266 1541.36,-216.087 1580.87,-191.586 1613,-87 1617.05,-73.8299 1621.22,-67.0538 1613,-56 1593.16,-29.3298 1558.05,-17.8705 1526.79,-13.1761"/>
<polygon fill="midnightblue" stroke="midnightblue" points="1527.17,-9.69569 1516.8,-11.8789 1526.26,-16.6374 1527.17,-9.69569"/>
</g>
<!-- Node29&#45;&gt;Node14 -->
<g id="edge64" class="edge"><title>Node29&#45;&gt;Node14</title>
<path fill="none" stroke="midnightblue" d="M1219,-302.399C1219,-294.466 1219,-284.458 1219,-275.858"/>
<polygon fill="midnightblue" stroke="midnightblue" points="1222.5,-275.658 1219,-265.658 1215.5,-275.658 1222.5,-275.658"/>
</g>
<!-- Node30 -->
<g id="node31" class="node"><title>Node30</title>
<g id="a_node31"><a xlink:href="api_2schedule__types_8h.html" target="_top" xlink:title="ODP schedule. ">
<polygon fill="white" stroke="black" points="1297,-246.5 1297,-265.5 1435,-265.5 1435,-246.5 1297,-246.5"/>
<text text-anchor="middle" x="1366" y="-253.5" font-family="Helvetica,sans-Serif" font-size="10.00">odp/api/schedule_types.h</text>
</a>
</g>
</g>
<!-- Node29&#45;&gt;Node30 -->
<g id="edge55" class="edge"><title>Node29&#45;&gt;Node30</title>
<path fill="none" stroke="midnightblue" d="M1253.84,-302.399C1278.5,-292.416 1311.29,-279.147 1335.03,-269.534"/>
<polygon fill="midnightblue" stroke="midnightblue" points="1336.65,-272.654 1344.61,-265.658 1334.03,-266.165 1336.65,-272.654"/>
</g>
<!-- Node31 -->
<g id="node32" class="node"><title>Node31</title>
<polygon fill="white" stroke="#bfbfbf" points="1242.5,-179.5 1242.5,-209.5 1357.5,-209.5 1357.5,-179.5 1242.5,-179.5"/>
<text text-anchor="start" x="1250.5" y="-197.5" font-family="Helvetica,sans-Serif" font-size="10.00">odp/api/abi/schedule</text>
<text text-anchor="middle" x="1300" y="-186.5" font-family="Helvetica,sans-Serif" font-size="10.00">_types.h</text>
</g>
<!-- Node30&#45;&gt;Node31 -->
<g id="edge56" class="edge"><title>Node30&#45;&gt;Node31</title>
<path fill="none" stroke="midnightblue" d="M1356.54,-246.475C1347.86,-238.643 1334.62,-226.714 1323.14,-216.366"/>
<polygon fill="midnightblue" stroke="midnightblue" points="1325.33,-213.619 1315.55,-209.523 1320.64,-218.818 1325.33,-213.619"/>
</g>
<!-- Node32 -->
<g id="node33" class="node"><title>Node32</title>
<g id="a_node33"><a xlink:href="api_2spec_2schedule__types_8h.html" target="_top" xlink:title="ODP schedule types. ">
<polygon fill="white" stroke="black" points="1375.5,-179.5 1375.5,-209.5 1498.5,-209.5 1498.5,-179.5 1375.5,-179.5"/>
<text text-anchor="start" x="1383.5" y="-197.5" font-family="Helvetica,sans-Serif" font-size="10.00">odp/api/spec/schedule</text>
<text text-anchor="middle" x="1437" y="-186.5" font-family="Helvetica,sans-Serif" font-size="10.00">_types.h</text>
</a>
</g>
</g>
<!-- Node30&#45;&gt;Node32 -->
<g id="edge57" class="edge"><title>Node30&#45;&gt;Node32</title>
<path fill="none" stroke="midnightblue" d="M1376.17,-246.475C1385.61,-238.567 1400.03,-226.485 1412.46,-216.067"/>
<polygon fill="midnightblue" stroke="midnightblue" points="1414.85,-218.629 1420.27,-209.523 1410.35,-213.263 1414.85,-218.629"/>
</g>
<!-- Node32&#45;&gt;Node1 -->
<g id="edge58" class="edge"><title>Node32&#45;&gt;Node1</title>
<path fill="none" stroke="midnightblue" d="M1418.28,-179.168C1391.8,-158.846 1341.95,-120.407 1300,-87 1282.95,-73.4217 1282.12,-64.3851 1262,-56 1199.12,-29.7913 1007.76,-18.028 904.606,-13.4717"/>
<polygon fill="midnightblue" stroke="midnightblue" points="904.744,-9.97451 894.602,-13.0403 904.442,-16.968 904.744,-9.97451"/>
</g>
<!-- Node32&#45;&gt;Node7 -->
<g id="edge63" class="edge"><title>Node32&#45;&gt;Node7</title>
<path fill="none" stroke="midnightblue" d="M1439,-179.483C1443.61,-147.097 1455.02,-67.0368 1460.27,-30.1594"/>
<polygon fill="midnightblue" stroke="midnightblue" points="1463.8,-30.2124 1461.74,-19.8187 1456.87,-29.2251 1463.8,-30.2124"/>
</g>
<!-- Node32&#45;&gt;Node33 -->
<g id="edge59" class="edge"><title>Node32&#45;&gt;Node33</title>
<path fill="none" stroke="midnightblue" d="M1455.72,-179.399C1467.91,-170.218 1483.79,-158.258 1496.19,-148.918"/>
<polygon fill="midnightblue" stroke="midnightblue" points="1498.62,-151.47 1504.5,-142.658 1494.41,-145.878 1498.62,-151.47"/>
</g>
<!-- Node34 -->
<g id="node35" class="node"><title>Node34</title>
<g id="a_node35"><a xlink:href="spec_2support_8h.html" target="_top" xlink:title="ODP support API. ">
<polygon fill="white" stroke="black" points="1309,-62 1309,-81 1435,-81 1435,-62 1309,-62"/>
<text text-anchor="middle" x="1372" y="-69" font-family="Helvetica,sans-Serif" font-size="10.00">odp/api/spec/support.h</text>
</a>
</g>
</g>
<!-- Node33&#45;&gt;Node34 -->
<g id="edge60" class="edge"><title>Node33&#45;&gt;Node34</title>
<path fill="none" stroke="midnightblue" d="M1495.37,-123.475C1470.88,-113.357 1429.85,-96.4046 1401.89,-84.8507"/>
<polygon fill="midnightblue" stroke="midnightblue" points="1403.17,-81.5932 1392.59,-81.0091 1400.5,-88.0627 1403.17,-81.5932"/>
</g>
<!-- Node34&#45;&gt;Node1 -->
<g id="edge61" class="edge"><title>Node34&#45;&gt;Node1</title>
<path fill="none" stroke="midnightblue" d="M1330.15,-61.925C1318.78,-59.7852 1306.45,-57.6368 1295,-56 1156.97,-36.2612 994.276,-22.5214 904.701,-15.7749"/>
<polygon fill="midnightblue" stroke="midnightblue" points="904.909,-12.2808 894.676,-15.0261 904.387,-19.2614 904.909,-12.2808"/>
</g>
<!-- Node34&#45;&gt;Node7 -->
<g id="edge62" class="edge"><title>Node34&#45;&gt;Node7</title>
<path fill="none" stroke="midnightblue" d="M1385.04,-61.9751C1399.77,-52.3431 1423.97,-36.5175 1441.51,-25.0517"/>
<polygon fill="midnightblue" stroke="midnightblue" points="1443.53,-27.911 1449.99,-19.5091 1439.7,-22.0522 1443.53,-27.911"/>
</g>
<!-- Node36 -->
<g id="node37" class="node"><title>Node36</title>
<g id="a_node37"><a xlink:href="spec_2threshold_8h.html" target="_top" xlink:title="ODP threshold descriptor. ">
<polygon fill="white" stroke="black" points="931,-185 931,-204 1065,-204 1065,-185 931,-185"/>
<text text-anchor="middle" x="998" y="-192" font-family="Helvetica,sans-Serif" font-size="10.00">odp/api/spec/threshold.h</text>
</a>
</g>
</g>
<!-- Node35&#45;&gt;Node36 -->
<g id="edge72" class="edge"><title>Node35&#45;&gt;Node36</title>
<path fill="none" stroke="midnightblue" d="M1288.92,-649.417C1288.44,-629.08 1285.57,-576.688 1269,-537 1207.44,-389.584 1166.81,-362.971 1058,-246 1045.76,-232.844 1030.2,-219.832 1017.99,-210.312"/>
<polygon fill="midnightblue" stroke="midnightblue" points="1019.86,-207.335 1009.79,-204.044 1015.61,-212.897 1019.86,-207.335"/>
</g>
<!-- Node36&#45;&gt;Node1 -->
<g id="edge73" class="edge"><title>Node36&#45;&gt;Node1</title>
<path fill="none" stroke="midnightblue" d="M992.513,-184.554C983.152,-169.933 962.782,-140.767 939,-123 906.787,-98.9354 882.004,-117.669 856,-87 842.422,-70.9858 838.31,-46.6488 837.186,-29.8502"/>
<polygon fill="midnightblue" stroke="midnightblue" points="840.675,-29.4825 836.805,-19.6197 833.68,-29.743 840.675,-29.4825"/>
</g>
<!-- Node36&#45;&gt;Node3 -->
<g id="edge74" class="edge"><title>Node36&#45;&gt;Node3</title>
<path fill="none" stroke="midnightblue" d="M955.88,-184.932C944.878,-182.84 933.016,-180.713 922,-179 814.584,-162.294 688.941,-148.267 614.328,-140.512"/>
<polygon fill="midnightblue" stroke="midnightblue" points="614.453,-137.007 604.146,-139.46 613.733,-143.97 614.453,-137.007"/>
</g>
<!-- Node36&#45;&gt;Node7 -->
<g id="edge75" class="edge"><title>Node36&#45;&gt;Node7</title>
<path fill="none" stroke="midnightblue" d="M1001.47,-184.823C1011.99,-159.825 1046.08,-87.4434 1100,-56 1149.39,-27.199 1308.88,-16.6508 1399.16,-12.927"/>
<polygon fill="midnightblue" stroke="midnightblue" points="1399.43,-16.4194 1409.28,-12.5263 1399.15,-9.42484 1399.43,-16.4194"/>
</g>
</g>
</svg>
