<?xml version="1.0" encoding="UTF-8" standalone="no"?>
<!DOCTYPE svg PUBLIC "-//W3C//DTD SVG 1.1//EN"
 "http://www.w3.org/Graphics/SVG/1.1/DTD/svg11.dtd">
<!-- Generated by graphviz version 2.38.0 (20140413.2041)
 -->
<!-- Title: packet_io.h Pages: 1 -->
<svg width="1052pt" height="812pt"
 viewBox="0.00 0.00 1052.35 812.00" xmlns="http://www.w3.org/2000/svg" xmlns:xlink="http://www.w3.org/1999/xlink">
<g id="graph0" class="graph" transform="scale(1 1) rotate(0) translate(4 808)">
<title>packet_io.h</title>
<polygon fill="white" stroke="none" points="-4,4 -4,-808 1048.35,-808 1048.35,4 -4,4"/>
<!-- Node7 -->
<g id="node1" class="node"><title>Node7</title>
<polygon fill="#bfbfbf" stroke="black" points="267,-784.5 267,-803.5 338,-803.5 338,-784.5 267,-784.5"/>
<text text-anchor="middle" x="302.5" y="-791.5" font-family="Helvetica,sans-Serif" font-size="10.00">packet_io.h</text>
</g>
<!-- Node8 -->
<g id="node2" class="node"><title>Node8</title>
<g id="a_node2"><a xlink:href="arch_2arm32-linux_2odp_2api_2abi_2packet__io_8h_source.html" target="_top" xlink:title="packet_io.h">
<polygon fill="white" stroke="black" points="0,-728.5 0,-747.5 71,-747.5 71,-728.5 0,-728.5"/>
<text text-anchor="middle" x="35.5" y="-735.5" font-family="Helvetica,sans-Serif" font-size="10.00">packet_io.h</text>
</a>
</g>
</g>
<!-- Node7&#45;&gt;Node8 -->
<g id="edge1" class="edge"><title>Node7&#45;&gt;Node8</title>
<path fill="none" stroke="midnightblue" d="M256.916,-783.838C211.841,-774.77 140.902,-760.475 79.5,-748 76.7493,-747.441 73.902,-746.861 71.0399,-746.278"/>
<polygon fill="midnightblue" stroke="midnightblue" points="256.468,-787.318 266.962,-785.859 257.848,-780.455 256.468,-787.318"/>
</g>
<!-- Node9 -->
<g id="node3" class="node"><title>Node9</title>
<g id="a_node3"><a xlink:href="arch_2arm64-linux_2odp_2api_2abi_2packet__io_8h_source.html" target="_top" xlink:title="packet_io.h">
<polygon fill="white" stroke="black" points="89,-728.5 89,-747.5 160,-747.5 160,-728.5 89,-728.5"/>
<text text-anchor="middle" x="124.5" y="-735.5" font-family="Helvetica,sans-Serif" font-size="10.00">packet_io.h</text>
</a>
</g>
</g>
<!-- Node7&#45;&gt;Node9 -->
<g id="edge2" class="edge"><title>Node7&#45;&gt;Node9</title>
<path fill="none" stroke="midnightblue" d="M264.383,-781.436C230.822,-771.255 182.726,-756.664 152.573,-747.516"/>
<polygon fill="midnightblue" stroke="midnightblue" points="263.71,-784.89 274.295,-784.444 265.742,-778.191 263.71,-784.89"/>
</g>
<!-- Node10 -->
<g id="node4" class="node"><title>Node10</title>
<g id="a_node4"><a xlink:href="arch_2default-linux_2odp_2api_2abi_2packet__io_8h_source.html" target="_top" xlink:title="packet_io.h">
<polygon fill="white" stroke="black" points="178,-728.5 178,-747.5 249,-747.5 249,-728.5 178,-728.5"/>
<text text-anchor="middle" x="213.5" y="-735.5" font-family="Helvetica,sans-Serif" font-size="10.00">packet_io.h</text>
</a>
</g>
</g>
<!-- Node7&#45;&gt;Node10 -->
<g id="edge3" class="edge"><title>Node7&#45;&gt;Node10</title>
<path fill="none" stroke="midnightblue" d="M279.262,-778.901C262.942,-768.999 241.635,-756.071 227.764,-747.655"/>
<polygon fill="midnightblue" stroke="midnightblue" points="277.836,-782.129 288.201,-784.324 281.467,-776.144 277.836,-782.129"/>
</g>
<!-- Node11 -->
<g id="node5" class="node"><title>Node11</title>
<g id="a_node5"><a xlink:href="arch_2mips64-linux_2odp_2api_2abi_2packet__io_8h_source.html" target="_top" xlink:title="packet_io.h">
<polygon fill="white" stroke="black" points="267,-728.5 267,-747.5 338,-747.5 338,-728.5 267,-728.5"/>
<text text-anchor="middle" x="302.5" y="-735.5" font-family="Helvetica,sans-Serif" font-size="10.00">packet_io.h</text>
</a>
</g>
</g>
<!-- Node7&#45;&gt;Node11 -->
<g id="edge4" class="edge"><title>Node7&#45;&gt;Node11</title>
<path fill="none" stroke="midnightblue" d="M302.5,-773.805C302.5,-764.91 302.5,-754.78 302.5,-747.751"/>
<polygon fill="midnightblue" stroke="midnightblue" points="299,-774.083 302.5,-784.083 306,-774.083 299,-774.083"/>
</g>
<!-- Node12 -->
<g id="node6" class="node"><title>Node12</title>
<g id="a_node6"><a xlink:href="arch_2power64-linux_2odp_2api_2abi_2packet__io_8h_source.html" target="_top" xlink:title="packet_io.h">
<polygon fill="white" stroke="black" points="356,-728.5 356,-747.5 427,-747.5 427,-728.5 356,-728.5"/>
<text text-anchor="middle" x="391.5" y="-735.5" font-family="Helvetica,sans-Serif" font-size="10.00">packet_io.h</text>
</a>
</g>
</g>
<!-- Node7&#45;&gt;Node12 -->
<g id="edge5" class="edge"><title>Node7&#45;&gt;Node12</title>
<path fill="none" stroke="midnightblue" d="M325.738,-778.901C342.058,-768.999 363.365,-756.071 377.236,-747.655"/>
<polygon fill="midnightblue" stroke="midnightblue" points="323.533,-776.144 316.799,-784.324 327.164,-782.129 323.533,-776.144"/>
</g>
<!-- Node13 -->
<g id="node7" class="node"><title>Node13</title>
<g id="a_node7"><a xlink:href="arch_2x86__32-linux_2odp_2api_2abi_2packet__io_8h_source.html" target="_top" xlink:title="packet_io.h">
<polygon fill="white" stroke="black" points="445,-728.5 445,-747.5 516,-747.5 516,-728.5 445,-728.5"/>
<text text-anchor="middle" x="480.5" y="-735.5" font-family="Helvetica,sans-Serif" font-size="10.00">packet_io.h</text>
</a>
</g>
</g>
<!-- Node7&#45;&gt;Node13 -->
<g id="edge6" class="edge"><title>Node7&#45;&gt;Node13</title>
<path fill="none" stroke="midnightblue" d="M340.617,-781.436C374.178,-771.255 422.274,-756.664 452.427,-747.516"/>
<polygon fill="midnightblue" stroke="midnightblue" points="339.258,-778.191 330.705,-784.444 341.29,-784.89 339.258,-778.191"/>
</g>
<!-- Node14 -->
<g id="node8" class="node"><title>Node14</title>
<g id="a_node8"><a xlink:href="arch_2x86__64-linux_2odp_2api_2abi_2packet__io_8h_source.html" target="_top" xlink:title="packet_io.h">
<polygon fill="white" stroke="black" points="534,-728.5 534,-747.5 605,-747.5 605,-728.5 534,-728.5"/>
<text text-anchor="middle" x="569.5" y="-735.5" font-family="Helvetica,sans-Serif" font-size="10.00">packet_io.h</text>
</a>
</g>
</g>
<!-- Node7&#45;&gt;Node14 -->
<g id="edge7" class="edge"><title>Node7&#45;&gt;Node14</title>
<path fill="none" stroke="midnightblue" d="M348.084,-783.838C393.159,-774.77 464.098,-760.475 525.5,-748 528.251,-747.441 531.098,-746.861 533.96,-746.278"/>
<polygon fill="midnightblue" stroke="midnightblue" points="347.152,-780.455 338.038,-785.859 348.532,-787.318 347.152,-780.455"/>
</g>
<!-- Node15 -->
<g id="node9" class="node"><title>Node15</title>
<g id="a_node9"><a xlink:href="api_2classification_8h.html" target="_top" xlink:title="ODP classification descriptor. ">
<polygon fill="white" stroke="black" points="442.5,-224.5 442.5,-243.5 528.5,-243.5 528.5,-224.5 442.5,-224.5"/>
<text text-anchor="middle" x="485.5" y="-231.5" font-family="Helvetica,sans-Serif" font-size="10.00">classification.h</text>
</a>
</g>
</g>
<!-- Node14&#45;&gt;Node15 -->
<g id="edge8" class="edge"><title>Node14&#45;&gt;Node15</title>
<path fill="none" stroke="midnightblue" d="M524.196,-725.674C478.45,-711.198 414.5,-681.259 414.5,-627 414.5,-627 414.5,-627 414.5,-345 414.5,-314.902 417.235,-305.325 433.5,-280 443.307,-264.731 459.8,-251.73 471.582,-243.686"/>
<polygon fill="midnightblue" stroke="midnightblue" points="523.355,-729.076 533.94,-728.614 525.377,-722.374 523.355,-729.076"/>
</g>
<!-- Node20 -->
<g id="node14" class="node"><title>Node20</title>
<g id="a_node14"><a xlink:href="api_2packet_8h.html" target="_top" xlink:title="ODP packet descriptor. ">
<polygon fill="white" stroke="black" points="706.5,-672.5 706.5,-691.5 764.5,-691.5 764.5,-672.5 706.5,-672.5"/>
<text text-anchor="middle" x="735.5" y="-679.5" font-family="Helvetica,sans-Serif" font-size="10.00">packet.h</text>
</a>
</g>
</g>
<!-- Node14&#45;&gt;Node20 -->
<g id="edge14" class="edge"><title>Node14&#45;&gt;Node20</title>
<path fill="none" stroke="midnightblue" d="M605.453,-725.304C636.732,-715.129 681.321,-700.625 709.32,-691.516"/>
<polygon fill="midnightblue" stroke="midnightblue" points="604.23,-722.022 595.803,-728.444 606.395,-728.678 604.23,-722.022"/>
</g>
<!-- Node30 -->
<g id="node24" class="node"><title>Node30</title>
<g id="a_node24"><a xlink:href="api_2packet__io_8h.html" target="_top" xlink:title="ODP Packet IO. ">
<polygon fill="white" stroke="black" points="562,-336.5 562,-355.5 633,-355.5 633,-336.5 562,-336.5"/>
<text text-anchor="middle" x="597.5" y="-343.5" font-family="Helvetica,sans-Serif" font-size="10.00">packet_io.h</text>
</a>
</g>
</g>
<!-- Node14&#45;&gt;Node30 -->
<g id="edge47" class="edge"><title>Node14&#45;&gt;Node30</title>
<path fill="none" stroke="midnightblue" d="M569.5,-718.251C569.5,-696.357 569.5,-659.052 569.5,-627 569.5,-627 569.5,-627 569.5,-457 569.5,-418.179 586.081,-373.966 593.724,-355.649"/>
<polygon fill="midnightblue" stroke="midnightblue" points="566,-718.442 569.5,-728.442 573,-718.442 566,-718.442"/>
</g>
<!-- Node16 -->
<g id="node10" class="node"><title>Node16</title>
<g id="a_node10"><a xlink:href="api_2spec_2ipsec_8h.html" target="_top" xlink:title="ODP IPSEC API. ">
<polygon fill="white" stroke="black" points="543.5,-168.5 543.5,-187.5 593.5,-187.5 593.5,-168.5 543.5,-168.5"/>
<text text-anchor="middle" x="568.5" y="-175.5" font-family="Helvetica,sans-Serif" font-size="10.00">ipsec.h</text>
</a>
</g>
</g>
<!-- Node15&#45;&gt;Node16 -->
<g id="edge9" class="edge"><title>Node15&#45;&gt;Node16</title>
<path fill="none" stroke="midnightblue" d="M507.599,-218.622C522.762,-208.757 542.383,-195.992 555.198,-187.655"/>
<polygon fill="midnightblue" stroke="midnightblue" points="505.309,-215.937 498.835,-224.324 509.126,-221.804 505.309,-215.937"/>
</g>
<!-- Node18 -->
<g id="node12" class="node"><title>Node18</title>
<g id="a_node12"><a xlink:href="odp__api_8h.html" target="_top" xlink:title="The OpenDataPlane API. ">
<polygon fill="white" stroke="black" points="741,-56.5 741,-75.5 804,-75.5 804,-56.5 741,-56.5"/>
<text text-anchor="middle" x="772.5" y="-63.5" font-family="Helvetica,sans-Serif" font-size="10.00">odp_api.h</text>
</a>
</g>
</g>
<!-- Node15&#45;&gt;Node18 -->
<g id="edge13" class="edge"><title>Node15&#45;&gt;Node18</title>
<path fill="none" stroke="midnightblue" d="M491.295,-214.575C500.782,-187.585 522.286,-137.723 558.5,-112 613.749,-72.7566 695.994,-66.3613 740.727,-66.0857"/>
<polygon fill="midnightblue" stroke="midnightblue" points="487.894,-213.711 488.051,-224.305 494.534,-215.925 487.894,-213.711"/>
</g>
<!-- Node17 -->
<g id="node11" class="node"><title>Node17</title>
<g id="a_node11"><a xlink:href="api_2ipsec_8h.html" target="_top" xlink:title="ODP IPSEC API &#45; platform specific header. ">
<polygon fill="white" stroke="black" points="567.5,-112.5 567.5,-131.5 617.5,-131.5 617.5,-112.5 567.5,-112.5"/>
<text text-anchor="middle" x="592.5" y="-119.5" font-family="Helvetica,sans-Serif" font-size="10.00">ipsec.h</text>
</a>
</g>
</g>
<!-- Node16&#45;&gt;Node17 -->
<g id="edge10" class="edge"><title>Node16&#45;&gt;Node17</title>
<path fill="none" stroke="midnightblue" d="M576.638,-158.69C580.683,-149.589 585.383,-139.014 588.611,-131.751"/>
<polygon fill="midnightblue" stroke="midnightblue" points="573.326,-157.523 572.463,-168.083 579.723,-160.366 573.326,-157.523"/>
</g>
<!-- Node17&#45;&gt;Node18 -->
<g id="edge11" class="edge"><title>Node17&#45;&gt;Node18</title>
<path fill="none" stroke="midnightblue" d="M627.501,-110.5C661.525,-100.292 712.558,-84.9826 744.127,-75.5118"/>
<polygon fill="midnightblue" stroke="midnightblue" points="626.101,-107.266 617.528,-113.492 628.112,-113.97 626.101,-107.266"/>
</g>
<!-- Node19 -->
<g id="node13" class="node"><title>Node19</title>
<g id="a_node13"><a xlink:href="odp_8h.html" target="_top" xlink:title="WARNING: THIS FILE IS DEPRECATED AND WILL BE REMOVED!!! ODP APPLICATIONS SHOULD NOW INCLUDE odp_api...">
<polygon fill="white" stroke="black" points="750.5,-0.5 750.5,-19.5 794.5,-19.5 794.5,-0.5 750.5,-0.5"/>
<text text-anchor="middle" x="772.5" y="-7.5" font-family="Helvetica,sans-Serif" font-size="10.00">odp.h</text>
</a>
</g>
</g>
<!-- Node18&#45;&gt;Node19 -->
<g id="edge12" class="edge"><title>Node18&#45;&gt;Node19</title>
<path fill="none" stroke="midnightblue" d="M772.5,-45.8045C772.5,-36.9102 772.5,-26.7798 772.5,-19.7511"/>
<polygon fill="midnightblue" stroke="midnightblue" points="769,-46.083 772.5,-56.083 776,-46.083 769,-46.083"/>
</g>
<!-- Node20&#45;&gt;Node18 -->
<g id="edge46" class="edge"><title>Node20&#45;&gt;Node18</title>
<path fill="none" stroke="midnightblue" d="M774.976,-681.905C827.041,-681.401 919.957,-674.509 987.5,-636 1020.63,-617.114 1043.5,-609.132 1043.5,-571 1043.5,-571 1043.5,-571 1043.5,-177 1043.5,-146.902 1046.9,-132.106 1024.5,-112 992.421,-83.202 864.243,-72.2084 804.039,-68.5725"/>
<polygon fill="midnightblue" stroke="midnightblue" points="774.81,-678.405 764.818,-681.926 774.825,-685.405 774.81,-678.405"/>
</g>
<!-- Node21 -->
<g id="node15" class="node"><title>Node21</title>
<g id="a_node15"><a xlink:href="api_2spec_2comp_8h.html" target="_top" xlink:title="ODP Compression. ">
<polygon fill="white" stroke="black" points="598,-616.5 598,-635.5 651,-635.5 651,-616.5 598,-616.5"/>
<text text-anchor="middle" x="624.5" y="-623.5" font-family="Helvetica,sans-Serif" font-size="10.00">comp.h</text>
</a>
</g>
</g>
<!-- Node20&#45;&gt;Node21 -->
<g id="edge15" class="edge"><title>Node20&#45;&gt;Node21</title>
<path fill="none" stroke="midnightblue" d="M708.495,-667.862C687.912,-657.849 660.155,-644.346 642.29,-635.655"/>
<polygon fill="midnightblue" stroke="midnightblue" points="707.142,-671.097 717.666,-672.324 710.205,-664.802 707.142,-671.097"/>
</g>
<!-- Node23 -->
<g id="node17" class="node"><title>Node23</title>
<g id="a_node17"><a xlink:href="api_2spec_2crypto_8h.html" target="_top" xlink:title="ODP crypto. ">
<polygon fill="white" stroke="black" points="707.5,-448.5 707.5,-467.5 763.5,-467.5 763.5,-448.5 707.5,-448.5"/>
<text text-anchor="middle" x="735.5" y="-455.5" font-family="Helvetica,sans-Serif" font-size="10.00">crypto.h</text>
</a>
</g>
</g>
<!-- Node20&#45;&gt;Node23 -->
<g id="edge18" class="edge"><title>Node20&#45;&gt;Node23</title>
<path fill="none" stroke="midnightblue" d="M735.5,-662.295C735.5,-616.644 735.5,-500.854 735.5,-467.884"/>
<polygon fill="midnightblue" stroke="midnightblue" points="732,-662.297 735.5,-672.297 739,-662.297 732,-662.297"/>
</g>
<!-- Node25 -->
<g id="node19" class="node"><title>Node25</title>
<g id="a_node19"><a xlink:href="api_2spec_2event_8h.html" target="_top" xlink:title="ODP event. ">
<polygon fill="white" stroke="black" points="784,-616.5 784,-635.5 837,-635.5 837,-616.5 784,-616.5"/>
<text text-anchor="middle" x="810.5" y="-623.5" font-family="Helvetica,sans-Serif" font-size="10.00">event.h</text>
</a>
</g>
</g>
<!-- Node20&#45;&gt;Node25 -->
<g id="edge22" class="edge"><title>Node20&#45;&gt;Node25</title>
<path fill="none" stroke="midnightblue" d="M755.805,-666.38C769.361,-656.62 786.742,-644.106 798.231,-635.834"/>
<polygon fill="midnightblue" stroke="midnightblue" points="753.62,-663.641 747.55,-672.324 757.71,-669.321 753.62,-663.641"/>
</g>
<!-- Node29 -->
<g id="node23" class="node"><title>Node29</title>
<g id="a_node23"><a xlink:href="api_2spec_2packet__io_8h.html" target="_top" xlink:title="ODP Packet IO. ">
<polygon fill="white" stroke="black" points="635,-392.5 635,-411.5 706,-411.5 706,-392.5 635,-392.5"/>
<text text-anchor="middle" x="670.5" y="-399.5" font-family="Helvetica,sans-Serif" font-size="10.00">packet_io.h</text>
</a>
</g>
</g>
<!-- Node20&#45;&gt;Node29 -->
<g id="edge45" class="edge"><title>Node20&#45;&gt;Node29</title>
<path fill="none" stroke="midnightblue" d="M720.969,-664.658C704.377,-644.253 679.5,-607.564 679.5,-571 679.5,-571 679.5,-571 679.5,-513 679.5,-475.061 674.116,-430.006 671.677,-411.538"/>
<polygon fill="midnightblue" stroke="midnightblue" points="718.349,-666.979 727.477,-672.358 723.695,-662.461 718.349,-666.979"/>
</g>
<!-- Node36 -->
<g id="node30" class="node"><title>Node36</title>
<g id="a_node30"><a xlink:href="api_2spec_2packet__flags_8h.html" target="_top" xlink:title="ODP packet flags. ">
<polygon fill="white" stroke="black" points="892.5,-616.5 892.5,-635.5 978.5,-635.5 978.5,-616.5 892.5,-616.5"/>
<text text-anchor="middle" x="935.5" y="-623.5" font-family="Helvetica,sans-Serif" font-size="10.00">packet_flags.h</text>
</a>
</g>
</g>
<!-- Node20&#45;&gt;Node36 -->
<g id="edge42" class="edge"><title>Node20&#45;&gt;Node36</title>
<path fill="none" stroke="midnightblue" d="M774.694,-670.418C812.413,-660.233 868.738,-645.026 903.739,-635.576"/>
<polygon fill="midnightblue" stroke="midnightblue" points="773.324,-667.162 764.582,-673.148 775.148,-673.92 773.324,-667.162"/>
</g>
<!-- Node22 -->
<g id="node16" class="node"><title>Node22</title>
<g id="a_node16"><a xlink:href="api_2comp_8h.html" target="_top" xlink:title="ODP crypto. ">
<polygon fill="white" stroke="black" points="598,-504.5 598,-523.5 651,-523.5 651,-504.5 598,-504.5"/>
<text text-anchor="middle" x="624.5" y="-511.5" font-family="Helvetica,sans-Serif" font-size="10.00">comp.h</text>
</a>
</g>
</g>
<!-- Node21&#45;&gt;Node22 -->
<g id="edge16" class="edge"><title>Node21&#45;&gt;Node22</title>
<path fill="none" stroke="midnightblue" d="M624.5,-606.348C624.5,-582.254 624.5,-541.308 624.5,-523.591"/>
<polygon fill="midnightblue" stroke="midnightblue" points="621,-606.368 624.5,-616.368 628,-606.369 621,-606.368"/>
</g>
<!-- Node22&#45;&gt;Node18 -->
<g id="edge17" class="edge"><title>Node22&#45;&gt;Node18</title>
<path fill="none" stroke="midnightblue" d="M589.878,-500.743C521.676,-474.129 376.5,-404.184 376.5,-291 376.5,-291 376.5,-291 376.5,-177 376.5,-101.544 646.794,-75.6857 740.763,-68.9758"/>
<polygon fill="midnightblue" stroke="midnightblue" points="588.765,-504.064 599.356,-504.355 591.258,-497.523 588.765,-504.064"/>
</g>
<!-- Node24 -->
<g id="node18" class="node"><title>Node24</title>
<g id="a_node18"><a xlink:href="api_2crypto_8h.html" target="_top" xlink:title="ODP crypto. ">
<polygon fill="white" stroke="black" points="716.5,-336.5 716.5,-355.5 772.5,-355.5 772.5,-336.5 716.5,-336.5"/>
<text text-anchor="middle" x="744.5" y="-343.5" font-family="Helvetica,sans-Serif" font-size="10.00">crypto.h</text>
</a>
</g>
</g>
<!-- Node23&#45;&gt;Node24 -->
<g id="edge19" class="edge"><title>Node23&#45;&gt;Node24</title>
<path fill="none" stroke="midnightblue" d="M737.026,-438.348C738.997,-414.254 742.348,-373.308 743.797,-355.591"/>
<polygon fill="midnightblue" stroke="midnightblue" points="733.533,-438.116 736.206,-448.368 740.51,-438.687 733.533,-438.116"/>
</g>
<!-- Node24&#45;&gt;Node16 -->
<g id="edge20" class="edge"><title>Node24&#45;&gt;Node16</title>
<path fill="none" stroke="midnightblue" d="M728.299,-329.08C714.791,-315.855 694.999,-296.592 677.5,-280 640.993,-245.387 596.859,-204.903 577.899,-187.575"/>
<polygon fill="midnightblue" stroke="midnightblue" points="725.87,-331.6 735.461,-336.102 730.771,-326.602 725.87,-331.6"/>
</g>
<!-- Node24&#45;&gt;Node18 -->
<g id="edge21" class="edge"><title>Node24&#45;&gt;Node18</title>
<path fill="none" stroke="midnightblue" d="M752.073,-326.88C760.366,-305.366 772.5,-268.21 772.5,-235 772.5,-235 772.5,-235 772.5,-177 772.5,-139.188 772.5,-94.0636 772.5,-75.5578"/>
<polygon fill="midnightblue" stroke="midnightblue" points="748.749,-325.767 748.276,-336.351 755.246,-328.372 748.749,-325.767"/>
</g>
<!-- Node26 -->
<g id="node20" class="node"><title>Node26</title>
<g id="a_node20"><a xlink:href="api_2event_8h.html" target="_top" xlink:title="ODP event. ">
<polygon fill="white" stroke="black" points="823,-560.5 823,-579.5 876,-579.5 876,-560.5 823,-560.5"/>
<text text-anchor="middle" x="849.5" y="-567.5" font-family="Helvetica,sans-Serif" font-size="10.00">event.h</text>
</a>
</g>
</g>
<!-- Node25&#45;&gt;Node26 -->
<g id="edge23" class="edge"><title>Node25&#45;&gt;Node26</title>
<path fill="none" stroke="midnightblue" d="M822.882,-607.855C829.635,-598.505 837.709,-587.327 843.18,-579.751"/>
<polygon fill="midnightblue" stroke="midnightblue" points="819.958,-605.927 816.94,-616.083 825.632,-610.025 819.958,-605.927"/>
</g>
<!-- Node26&#45;&gt;Node18 -->
<g id="edge41" class="edge"><title>Node26&#45;&gt;Node18</title>
<path fill="none" stroke="midnightblue" d="M871.453,-554.274C896.639,-535.426 934.5,-500.235 934.5,-459 934.5,-459 934.5,-459 934.5,-289 934.5,-200.546 906.248,-174.345 843.5,-112 827.764,-96.3652 805.684,-83.4325 790.342,-75.505"/>
<polygon fill="midnightblue" stroke="midnightblue" points="869.231,-551.561 863.157,-560.242 873.318,-557.244 869.231,-551.561"/>
</g>
<!-- Node27 -->
<g id="node21" class="node"><title>Node27</title>
<g id="a_node21"><a xlink:href="api_2spec_2queue_8h.html" target="_top" xlink:title="ODP queue. ">
<polygon fill="white" stroke="black" points="784.5,-504.5 784.5,-523.5 840.5,-523.5 840.5,-504.5 784.5,-504.5"/>
<text text-anchor="middle" x="812.5" y="-511.5" font-family="Helvetica,sans-Serif" font-size="10.00">queue.h</text>
</a>
</g>
</g>
<!-- Node26&#45;&gt;Node27 -->
<g id="edge24" class="edge"><title>Node26&#45;&gt;Node27</title>
<path fill="none" stroke="midnightblue" d="M837.554,-551.566C831.188,-542.275 823.633,-531.248 818.496,-523.751"/>
<polygon fill="midnightblue" stroke="midnightblue" points="834.851,-553.812 843.39,-560.083 840.625,-549.855 834.851,-553.812"/>
</g>
<!-- Node34 -->
<g id="node28" class="node"><title>Node34</title>
<g id="a_node28"><a xlink:href="api_2spec_2schedule_8h.html" target="_top" xlink:title="ODP schedule. ">
<polygon fill="white" stroke="black" points="838.5,-392.5 838.5,-411.5 906.5,-411.5 906.5,-392.5 838.5,-392.5"/>
<text text-anchor="middle" x="872.5" y="-399.5" font-family="Helvetica,sans-Serif" font-size="10.00">schedule.h</text>
</a>
</g>
</g>
<!-- Node26&#45;&gt;Node34 -->
<g id="edge40" class="edge"><title>Node26&#45;&gt;Node34</title>
<path fill="none" stroke="midnightblue" d="M852.142,-549.93C857.132,-513.92 867.757,-437.231 871.313,-411.568"/>
<polygon fill="midnightblue" stroke="midnightblue" points="848.642,-549.689 850.737,-560.075 855.576,-550.65 848.642,-549.689"/>
</g>
<!-- Node28 -->
<g id="node22" class="node"><title>Node28</title>
<g id="a_node22"><a xlink:href="api_2queue_8h.html" target="_top" xlink:title="ODP queue. ">
<polygon fill="white" stroke="black" points="782.5,-448.5 782.5,-467.5 838.5,-467.5 838.5,-448.5 782.5,-448.5"/>
<text text-anchor="middle" x="810.5" y="-455.5" font-family="Helvetica,sans-Serif" font-size="10.00">queue.h</text>
</a>
</g>
</g>
<!-- Node27&#45;&gt;Node28 -->
<g id="edge25" class="edge"><title>Node27&#45;&gt;Node28</title>
<path fill="none" stroke="midnightblue" d="M811.789,-493.805C811.46,-484.91 811.084,-474.78 810.824,-467.751"/>
<polygon fill="midnightblue" stroke="midnightblue" points="808.302,-494.219 812.17,-504.083 815.297,-493.96 808.302,-494.219"/>
</g>
<!-- Node28&#45;&gt;Node18 -->
<g id="edge39" class="edge"><title>Node28&#45;&gt;Node18</title>
<path fill="none" stroke="midnightblue" d="M810.5,-438.251C810.5,-416.357 810.5,-379.052 810.5,-347 810.5,-347 810.5,-347 810.5,-177 810.5,-137.399 788.225,-93.957 777.784,-75.769"/>
<polygon fill="midnightblue" stroke="midnightblue" points="807,-438.442 810.5,-448.442 814,-438.442 807,-438.442"/>
</g>
<!-- Node28&#45;&gt;Node24 -->
<g id="edge26" class="edge"><title>Node28&#45;&gt;Node24</title>
<path fill="none" stroke="midnightblue" d="M800.084,-439.64C785.746,-415.744 760.477,-373.629 749.655,-355.591"/>
<polygon fill="midnightblue" stroke="midnightblue" points="797.175,-441.594 805.321,-448.368 803.177,-437.993 797.175,-441.594"/>
</g>
<!-- Node28&#45;&gt;Node29 -->
<g id="edge27" class="edge"><title>Node28&#45;&gt;Node29</title>
<path fill="none" stroke="midnightblue" d="M778.798,-444.772C752.5,-434.629 715.784,-420.467 692.58,-411.516"/>
<polygon fill="midnightblue" stroke="midnightblue" points="777.727,-448.11 788.317,-448.444 780.246,-441.579 777.727,-448.11"/>
</g>
<!-- Node28&#45;&gt;Node34 -->
<g id="edge36" class="edge"><title>Node28&#45;&gt;Node34</title>
<path fill="none" stroke="midnightblue" d="M828.254,-441.537C839.308,-431.909 853.131,-419.869 862.357,-411.834"/>
<polygon fill="midnightblue" stroke="midnightblue" points="825.703,-439.117 820.461,-448.324 830.301,-444.395 825.703,-439.117"/>
</g>
<!-- Node29&#45;&gt;Node30 -->
<g id="edge28" class="edge"><title>Node29&#45;&gt;Node30</title>
<path fill="none" stroke="midnightblue" d="M650.358,-386.101C637.221,-376.382 620.518,-364.027 609.442,-355.834"/>
<polygon fill="midnightblue" stroke="midnightblue" points="648.65,-389.191 658.771,-392.324 652.813,-383.563 648.65,-389.191"/>
</g>
<!-- Node30&#45;&gt;Node16 -->
<g id="edge31" class="edge"><title>Node30&#45;&gt;Node16</title>
<path fill="none" stroke="midnightblue" d="M587.513,-327.557C583.356,-319.441 578.939,-309.499 576.5,-300 565.977,-259.013 567.046,-207.796 567.992,-187.68"/>
<polygon fill="midnightblue" stroke="midnightblue" points="584.462,-329.273 592.303,-336.398 590.617,-325.938 584.462,-329.273"/>
</g>
<!-- Node30&#45;&gt;Node18 -->
<g id="edge35" class="edge"><title>Node30&#45;&gt;Node18</title>
<path fill="none" stroke="midnightblue" d="M635.507,-332.889C676.051,-317.309 734.5,-286.005 734.5,-235 734.5,-235 734.5,-235 734.5,-177 734.5,-137.399 756.775,-93.957 767.216,-75.769"/>
<polygon fill="midnightblue" stroke="midnightblue" points="634.066,-329.69 625.886,-336.424 636.48,-336.26 634.066,-329.69"/>
</g>
<!-- Node31 -->
<g id="node25" class="node"><title>Node31</title>
<g id="a_node25"><a xlink:href="api_2spec_2classification_8h.html" target="_top" xlink:title="ODP classification descriptor. ">
<polygon fill="white" stroke="black" points="442.5,-280.5 442.5,-299.5 528.5,-299.5 528.5,-280.5 442.5,-280.5"/>
<text text-anchor="middle" x="485.5" y="-287.5" font-family="Helvetica,sans-Serif" font-size="10.00">classification.h</text>
</a>
</g>
</g>
<!-- Node30&#45;&gt;Node31 -->
<g id="edge29" class="edge"><title>Node30&#45;&gt;Node31</title>
<path fill="none" stroke="midnightblue" d="M570.251,-331.862C549.484,-321.849 521.477,-308.346 503.45,-299.655"/>
<polygon fill="midnightblue" stroke="midnightblue" points="568.977,-335.134 579.505,-336.324 572.018,-328.828 568.977,-335.134"/>
</g>
<!-- Node32 -->
<g id="node26" class="node"><title>Node32</title>
<g id="a_node26"><a xlink:href="api_2spec_2traffic__mngr_8h.html" target="_top" xlink:title="Copyright (c) 2015&#45;2018, Linaro Limited All rights reserved. ">
<polygon fill="white" stroke="black" points="585,-280.5 585,-299.5 668,-299.5 668,-280.5 585,-280.5"/>
<text text-anchor="middle" x="626.5" y="-287.5" font-family="Helvetica,sans-Serif" font-size="10.00">traffic_mngr.h</text>
</a>
</g>
</g>
<!-- Node30&#45;&gt;Node32 -->
<g id="edge32" class="edge"><title>Node30&#45;&gt;Node32</title>
<path fill="none" stroke="midnightblue" d="M607.176,-326.983C612.098,-317.817 617.858,-307.092 621.8,-299.751"/>
<polygon fill="midnightblue" stroke="midnightblue" points="603.937,-325.617 602.289,-336.083 610.104,-328.929 603.937,-325.617"/>
</g>
<!-- Node31&#45;&gt;Node15 -->
<g id="edge30" class="edge"><title>Node31&#45;&gt;Node15</title>
<path fill="none" stroke="midnightblue" d="M485.5,-269.805C485.5,-260.91 485.5,-250.78 485.5,-243.751"/>
<polygon fill="midnightblue" stroke="midnightblue" points="482,-270.083 485.5,-280.083 489,-270.083 482,-270.083"/>
</g>
<!-- Node33 -->
<g id="node27" class="node"><title>Node33</title>
<g id="a_node27"><a xlink:href="api_2traffic__mngr_8h.html" target="_top" xlink:title="ODP Traffic manager. ">
<polygon fill="white" stroke="black" points="623,-168.5 623,-187.5 706,-187.5 706,-168.5 623,-168.5"/>
<text text-anchor="middle" x="664.5" y="-175.5" font-family="Helvetica,sans-Serif" font-size="10.00">traffic_mngr.h</text>
</a>
</g>
</g>
<!-- Node32&#45;&gt;Node33 -->
<g id="edge33" class="edge"><title>Node32&#45;&gt;Node33</title>
<path fill="none" stroke="midnightblue" d="M632.831,-270.674C641.139,-246.625 655.384,-205.388 661.532,-187.591"/>
<polygon fill="midnightblue" stroke="midnightblue" points="629.439,-269.774 629.482,-280.368 636.055,-272.059 629.439,-269.774"/>
</g>
<!-- Node33&#45;&gt;Node18 -->
<g id="edge34" class="edge"><title>Node33&#45;&gt;Node18</title>
<path fill="none" stroke="midnightblue" d="M677.754,-160.293C688.721,-146.802 704.965,-127.569 720.5,-112 733.992,-98.4779 750.932,-84.2803 761.739,-75.5336"/>
<polygon fill="midnightblue" stroke="midnightblue" points="674.908,-158.247 671.369,-168.233 680.363,-162.633 674.908,-158.247"/>
</g>
<!-- Node35 -->
<g id="node29" class="node"><title>Node35</title>
<g id="a_node29"><a xlink:href="api_2schedule_8h.html" target="_top" xlink:title="ODP schedule. ">
<polygon fill="white" stroke="black" points="838.5,-224.5 838.5,-243.5 906.5,-243.5 906.5,-224.5 838.5,-224.5"/>
<text text-anchor="middle" x="872.5" y="-231.5" font-family="Helvetica,sans-Serif" font-size="10.00">schedule.h</text>
</a>
</g>
</g>
<!-- Node34&#45;&gt;Node35 -->
<g id="edge37" class="edge"><title>Node34&#45;&gt;Node35</title>
<path fill="none" stroke="midnightblue" d="M872.5,-381.93C872.5,-345.92 872.5,-269.231 872.5,-243.568"/>
<polygon fill="midnightblue" stroke="midnightblue" points="869,-382.075 872.5,-392.075 876,-382.075 869,-382.075"/>
</g>
<!-- Node35&#45;&gt;Node18 -->
<g id="edge38" class="edge"><title>Node35&#45;&gt;Node18</title>
<path fill="none" stroke="midnightblue" d="M868.119,-214.453C861.588,-189.479 847.536,-144.436 824.5,-112 813.854,-97.01 797.199,-83.7704 785.617,-75.5997"/>
<polygon fill="midnightblue" stroke="midnightblue" points="864.783,-215.54 870.596,-224.398 871.575,-213.849 864.783,-215.54"/>
</g>
<!-- Node37 -->
<g id="node31" class="node"><title>Node37</title>
<g id="a_node31"><a xlink:href="api_2packet__flags_8h.html" target="_top" xlink:title="ODP packet flags. ">
<polygon fill="white" stroke="black" points="929.5,-112.5 929.5,-131.5 1015.5,-131.5 1015.5,-112.5 929.5,-112.5"/>
<text text-anchor="middle" x="972.5" y="-119.5" font-family="Helvetica,sans-Serif" font-size="10.00">packet_flags.h</text>
</a>
</g>
</g>
<!-- Node36&#45;&gt;Node37 -->
<g id="edge43" class="edge"><title>Node36&#45;&gt;Node37</title>
<path fill="none" stroke="midnightblue" d="M945.358,-607.432C956.318,-586.213 972.5,-549.111 972.5,-515 972.5,-515 972.5,-515 972.5,-233 972.5,-195.188 972.5,-150.064 972.5,-131.558"/>
<polygon fill="midnightblue" stroke="midnightblue" points="942.141,-606.024 940.49,-616.49 948.307,-609.338 942.141,-606.024"/>
</g>
<!-- Node37&#45;&gt;Node18 -->
<g id="edge44" class="edge"><title>Node37&#45;&gt;Node18</title>
<path fill="none" stroke="midnightblue" d="M931.126,-109.829C893.364,-99.6333 838.36,-84.7823 804.042,-75.5164"/>
<polygon fill="midnightblue" stroke="midnightblue" points="930.243,-113.216 940.809,-112.444 932.067,-106.458 930.243,-113.216"/>
</g>
</g>
</svg>
