<?xml version="1.0" encoding="UTF-8" standalone="no"?>
<!DOCTYPE svg PUBLIC "-//W3C//DTD SVG 1.1//EN"
 "http://www.w3.org/Graphics/SVG/1.1/DTD/svg11.dtd">
<!-- Generated by graphviz version 2.38.0 (20140413.2041)
 -->
<!-- Title: std_types.h Pages: 1 -->
<svg width="3140pt" height="252pt"
 viewBox="0.00 0.00 3140.35 252.00" xmlns="http://www.w3.org/2000/svg" xmlns:xlink="http://www.w3.org/1999/xlink">
<g id="graph0" class="graph" transform="scale(1 1) rotate(0) translate(4 248)">
<title>std_types.h</title>
<polygon fill="white" stroke="none" points="-4,4 -4,-248 3136.35,-248 3136.35,4 -4,4"/>
<!-- Node6 -->
<g id="node1" class="node"><title>Node6</title>
<polygon fill="#bfbfbf" stroke="black" points="2125.5,-224.5 2125.5,-243.5 2197.5,-243.5 2197.5,-224.5 2125.5,-224.5"/>
<text text-anchor="middle" x="2161.5" y="-231.5" font-family="Helvetica,sans-Serif" font-size="10.00">std_types.h</text>
</g>
<!-- Node7 -->
<g id="node2" class="node"><title>Node7</title>
<g id="a_node2"><a xlink:href="api_2abi-default_2atomic_8h.html" target="_top" xlink:title="ODP atomic operations. ">
<polygon fill="white" stroke="black" points="269,-168.5 269,-187.5 328,-187.5 328,-168.5 269,-168.5"/>
<text text-anchor="middle" x="298.5" y="-175.5" font-family="Helvetica,sans-Serif" font-size="10.00">atomic.h</text>
</a>
</g>
</g>
<!-- Node6&#45;&gt;Node7 -->
<g id="edge1" class="edge"><title>Node6&#45;&gt;Node7</title>
<path fill="none" stroke="midnightblue" d="M2115.1,-231.655C1851.09,-224.003 542.433,-186.071 328.191,-179.861"/>
<polygon fill="midnightblue" stroke="midnightblue" points="2115.02,-235.154 2125.12,-231.946 2115.23,-228.157 2115.02,-235.154"/>
</g>
<!-- Node16 -->
<g id="node10" class="node"><title>Node16</title>
<g id="a_node10"><a xlink:href="api_2abi-default_2barrier_8h.html" target="_top" xlink:title="ODP barrier. ">
<polygon fill="white" stroke="black" points="798.5,-168.5 798.5,-187.5 854.5,-187.5 854.5,-168.5 798.5,-168.5"/>
<text text-anchor="middle" x="826.5" y="-175.5" font-family="Helvetica,sans-Serif" font-size="10.00">barrier.h</text>
</a>
</g>
</g>
<!-- Node6&#45;&gt;Node16 -->
<g id="edge9" class="edge"><title>Node6&#45;&gt;Node16</title>
<path fill="none" stroke="midnightblue" d="M2115.26,-231.13C1902.82,-222.536 1023.49,-186.968 854.618,-180.137"/>
<polygon fill="midnightblue" stroke="midnightblue" points="2115.31,-234.635 2125.45,-231.542 2115.6,-227.64 2115.31,-234.635"/>
</g>
<!-- Node24 -->
<g id="node18" class="node"><title>Node24</title>
<g id="a_node18"><a xlink:href="api_2barrier_8h.html" target="_top" xlink:title="ODP execution barriers. ">
<polygon fill="white" stroke="black" points="1021.5,-56.5 1021.5,-75.5 1077.5,-75.5 1077.5,-56.5 1021.5,-56.5"/>
<text text-anchor="middle" x="1049.5" y="-63.5" font-family="Helvetica,sans-Serif" font-size="10.00">barrier.h</text>
</a>
</g>
</g>
<!-- Node6&#45;&gt;Node24 -->
<g id="edge29" class="edge"><title>Node6&#45;&gt;Node24</title>
<path fill="none" stroke="midnightblue" d="M2115.17,-232.495C1915.07,-230.132 1133.11,-218.943 1091.5,-188 1054.56,-160.535 1049.9,-98.3733 1049.47,-75.5833"/>
<polygon fill="midnightblue" stroke="midnightblue" points="2115.31,-235.997 2125.35,-232.614 2115.39,-228.998 2115.31,-235.997"/>
</g>
<!-- Node25 -->
<g id="node19" class="node"><title>Node25</title>
<g id="a_node19"><a xlink:href="odp__api_8h.html" target="_top" xlink:title="The OpenDataPlane API. ">
<polygon fill="white" stroke="red" points="2164,-0.5 2164,-19.5 2227,-19.5 2227,-0.5 2164,-0.5"/>
<text text-anchor="middle" x="2195.5" y="-7.5" font-family="Helvetica,sans-Serif" font-size="10.00">odp_api.h</text>
</a>
</g>
</g>
<!-- Node6&#45;&gt;Node25 -->
<g id="edge64" class="edge"><title>Node6&#45;&gt;Node25</title>
<path fill="none" stroke="midnightblue" d="M2115.36,-232.754C1918.73,-231.485 1159.2,-224.243 1124.5,-188 1101.14,-163.603 1101.76,-136.981 1124.5,-112 1196.35,-33.055 1994.06,-14.5619 2163.84,-11.5096"/>
<polygon fill="midnightblue" stroke="midnightblue" points="2115.34,-236.254 2125.36,-232.817 2115.39,-229.254 2115.34,-236.254"/>
</g>
<!-- Node54 -->
<g id="node20" class="node"><title>Node54</title>
<g id="a_node20"><a xlink:href="api_2abi-default_2byteorder_8h.html" target="_top" xlink:title="ODP byteorder. ">
<polygon fill="white" stroke="red" points="1134,-168.5 1134,-187.5 1205,-187.5 1205,-168.5 1134,-168.5"/>
<text text-anchor="middle" x="1169.5" y="-175.5" font-family="Helvetica,sans-Serif" font-size="10.00">byteorder.h</text>
</a>
</g>
</g>
<!-- Node6&#45;&gt;Node54 -->
<g id="edge19" class="edge"><title>Node6&#45;&gt;Node54</title>
<path fill="none" stroke="midnightblue" d="M2114.95,-233.325C1976.86,-233.748 1557.67,-231.107 1213.5,-188 1210.87,-187.671 1208.16,-187.27 1205.44,-186.823"/>
<polygon fill="midnightblue" stroke="midnightblue" points="2115.18,-236.825 2125.16,-233.287 2115.15,-229.825 2115.18,-236.825"/>
</g>
<!-- Node63 -->
<g id="node22" class="node"><title>Node63</title>
<g id="a_node22"><a xlink:href="api_2abi-default_2cpumask_8h.html" target="_top" xlink:title="ODP CPU masks and enumeration. ">
<polygon fill="white" stroke="red" points="1223,-168.5 1223,-187.5 1292,-187.5 1292,-168.5 1223,-168.5"/>
<text text-anchor="middle" x="1257.5" y="-175.5" font-family="Helvetica,sans-Serif" font-size="10.00">cpumask.h</text>
</a>
</g>
</g>
<!-- Node6&#45;&gt;Node63 -->
<g id="edge21" class="edge"><title>Node6&#45;&gt;Node63</title>
<path fill="none" stroke="midnightblue" d="M2114.95,-233.003C1985.45,-232.487 1610.2,-227.423 1301.5,-188 1298.41,-187.605 1295.21,-187.114 1292.01,-186.566"/>
<polygon fill="midnightblue" stroke="midnightblue" points="2115.27,-236.504 2125.28,-233.037 2115.29,-229.504 2115.27,-236.504"/>
</g>
<!-- Node87 -->
<g id="node23" class="node"><title>Node87</title>
<g id="a_node23"><a xlink:href="api_2abi-default_2init_8h.html" target="_top" xlink:title="ODP initialization. ">
<polygon fill="white" stroke="red" points="1310.5,-168.5 1310.5,-187.5 1350.5,-187.5 1350.5,-168.5 1310.5,-168.5"/>
<text text-anchor="middle" x="1330.5" y="-175.5" font-family="Helvetica,sans-Serif" font-size="10.00">init.h</text>
</a>
</g>
</g>
<!-- Node6&#45;&gt;Node87 -->
<g id="edge22" class="edge"><title>Node6&#45;&gt;Node87</title>
<path fill="none" stroke="midnightblue" d="M2114.9,-231.883C1966.49,-228.09 1506.09,-214.445 1359.5,-188 1356.59,-187.476 1353.57,-186.75 1350.62,-185.937"/>
<polygon fill="midnightblue" stroke="midnightblue" points="2114.95,-235.385 2125.03,-232.139 2115.13,-228.388 2114.95,-235.385"/>
</g>
<!-- Node95 -->
<g id="node24" class="node"><title>Node95</title>
<g id="a_node24"><a xlink:href="api_2abi-default_2ipsec_8h.html" target="_top" xlink:title="ODP IPSEC API &#45; platform specific types. ">
<polygon fill="white" stroke="red" points="1368.5,-168.5 1368.5,-187.5 1418.5,-187.5 1418.5,-168.5 1368.5,-168.5"/>
<text text-anchor="middle" x="1393.5" y="-175.5" font-family="Helvetica,sans-Serif" font-size="10.00">ipsec.h</text>
</a>
</g>
</g>
<!-- Node6&#45;&gt;Node95 -->
<g id="edge23" class="edge"><title>Node6&#45;&gt;Node95</title>
<path fill="none" stroke="midnightblue" d="M2114.99,-233.32C1998.44,-233.437 1684.78,-229.52 1427.5,-188 1424.61,-187.533 1421.6,-186.925 1418.63,-186.245"/>
<polygon fill="midnightblue" stroke="midnightblue" points="2115.33,-236.82 2125.33,-233.298 2115.32,-229.82 2115.33,-236.82"/>
</g>
<!-- Node104 -->
<g id="node25" class="node"><title>Node104</title>
<g id="a_node25"><a xlink:href="api_2abi-default_2packet__io_8h.html" target="_top" xlink:title="ODP Packet IO. ">
<polygon fill="white" stroke="red" points="1437,-168.5 1437,-187.5 1508,-187.5 1508,-168.5 1437,-168.5"/>
<text text-anchor="middle" x="1472.5" y="-175.5" font-family="Helvetica,sans-Serif" font-size="10.00">packet_io.h</text>
</a>
</g>
</g>
<!-- Node6&#45;&gt;Node104 -->
<g id="edge24" class="edge"><title>Node6&#45;&gt;Node104</title>
<path fill="none" stroke="midnightblue" d="M2115.33,-231.795C2009.29,-228.588 1740.29,-217.939 1517.5,-188 1514.5,-187.597 1511.4,-187.115 1508.29,-186.587"/>
<polygon fill="midnightblue" stroke="midnightblue" points="2115.28,-235.295 2125.38,-232.091 2115.49,-228.298 2115.28,-235.295"/>
</g>
<!-- Node36 -->
<g id="node26" class="node"><title>Node36</title>
<g id="a_node26"><a xlink:href="api_2abi-default_2rwlock__recursive_8h.html" target="_top" xlink:title="ODP recursive read/write lock. ">
<polygon fill="white" stroke="red" points="1526.5,-168.5 1526.5,-187.5 1630.5,-187.5 1630.5,-168.5 1526.5,-168.5"/>
<text text-anchor="middle" x="1578.5" y="-175.5" font-family="Helvetica,sans-Serif" font-size="10.00">rwlock_recursive.h</text>
</a>
</g>
</g>
<!-- Node6&#45;&gt;Node36 -->
<g id="edge25" class="edge"><title>Node6&#45;&gt;Node36</title>
<path fill="none" stroke="midnightblue" d="M2115.35,-229.964C2024.22,-223.759 1814.79,-208.468 1639.5,-188 1636.63,-187.665 1633.69,-187.3 1630.72,-186.916"/>
<polygon fill="midnightblue" stroke="midnightblue" points="2115.14,-233.457 2125.35,-230.64 2115.61,-226.473 2115.14,-233.457"/>
</g>
<!-- Node130 -->
<g id="node27" class="node"><title>Node130</title>
<g id="a_node27"><a xlink:href="api_2abi-default_2schedule_8h.html" target="_top" xlink:title="ODP schedule. ">
<polygon fill="white" stroke="red" points="1648.5,-168.5 1648.5,-187.5 1716.5,-187.5 1716.5,-168.5 1648.5,-168.5"/>
<text text-anchor="middle" x="1682.5" y="-175.5" font-family="Helvetica,sans-Serif" font-size="10.00">schedule.h</text>
</a>
</g>
</g>
<!-- Node6&#45;&gt;Node130 -->
<g id="edge26" class="edge"><title>Node6&#45;&gt;Node130</title>
<path fill="none" stroke="midnightblue" d="M2115.24,-229.807C2035.4,-223.944 1866.72,-210.006 1725.5,-188 1722.64,-187.554 1719.68,-187.042 1716.71,-186.493"/>
<polygon fill="midnightblue" stroke="midnightblue" points="2115.22,-233.315 2125.45,-230.548 2115.73,-226.333 2115.22,-233.315"/>
</g>
<!-- Node138 -->
<g id="node28" class="node"><title>Node138</title>
<g id="a_node28"><a xlink:href="api_2abi-default_2spinlock__recursive_8h.html" target="_top" xlink:title="ODP recursive spinlock. ">
<polygon fill="white" stroke="red" points="1735,-168.5 1735,-187.5 1848,-187.5 1848,-168.5 1735,-168.5"/>
<text text-anchor="middle" x="1791.5" y="-175.5" font-family="Helvetica,sans-Serif" font-size="10.00">spinlock_recursive.h</text>
</a>
</g>
</g>
<!-- Node6&#45;&gt;Node138 -->
<g id="edge27" class="edge"><title>Node6&#45;&gt;Node138</title>
<path fill="none" stroke="midnightblue" d="M2115.4,-226.272C2047.7,-216.391 1921.5,-197.973 1848.21,-187.277"/>
<polygon fill="midnightblue" stroke="midnightblue" points="2114.95,-229.743 2125.35,-227.724 2115.96,-222.816 2114.95,-229.743"/>
</g>
<!-- Node147 -->
<g id="node29" class="node"><title>Node147</title>
<g id="a_node29"><a xlink:href="api_2abi-default_2traffic__mngr_8h.html" target="_top" xlink:title="ODP traffic mngr. ">
<polygon fill="white" stroke="red" points="1866,-168.5 1866,-187.5 1949,-187.5 1949,-168.5 1866,-168.5"/>
<text text-anchor="middle" x="1907.5" y="-175.5" font-family="Helvetica,sans-Serif" font-size="10.00">traffic_mngr.h</text>
</a>
</g>
</g>
<!-- Node6&#45;&gt;Node147 -->
<g id="edge28" class="edge"><title>Node6&#45;&gt;Node147</title>
<path fill="none" stroke="midnightblue" d="M2115.58,-223.237C2067.68,-213.054 1993.34,-197.248 1947.69,-187.544"/>
<polygon fill="midnightblue" stroke="midnightblue" points="2114.87,-226.664 2125.38,-225.32 2116.32,-219.817 2114.87,-226.664"/>
</g>
<!-- Node155 -->
<g id="node30" class="node"><title>Node155</title>
<g id="a_node30"><a xlink:href="api_2buffer_8h.html" target="_top" xlink:title="ODP buffer descriptor. ">
<polygon fill="white" stroke="black" points="1901,-56.5 1901,-75.5 1954,-75.5 1954,-56.5 1901,-56.5"/>
<text text-anchor="middle" x="1927.5" y="-63.5" font-family="Helvetica,sans-Serif" font-size="10.00">buffer.h</text>
</a>
</g>
</g>
<!-- Node6&#45;&gt;Node155 -->
<g id="edge30" class="edge"><title>Node6&#45;&gt;Node155</title>
<path fill="none" stroke="midnightblue" d="M2115.14,-225.949C2085.43,-219.702 2047.21,-208.295 2018.5,-188 1974.5,-156.893 1942.62,-98.0143 1931.66,-75.7896"/>
<polygon fill="midnightblue" stroke="midnightblue" points="2114.77,-229.444 2125.26,-227.95 2116.13,-222.577 2114.77,-229.444"/>
</g>
<!-- Node112 -->
<g id="node31" class="node"><title>Node112</title>
<g id="a_node31"><a xlink:href="api_2classification_8h.html" target="_top" xlink:title="ODP classification descriptor. ">
<polygon fill="white" stroke="red" points="1972.5,-56.5 1972.5,-75.5 2058.5,-75.5 2058.5,-56.5 1972.5,-56.5"/>
<text text-anchor="middle" x="2015.5" y="-63.5" font-family="Helvetica,sans-Serif" font-size="10.00">classification.h</text>
</a>
</g>
</g>
<!-- Node6&#45;&gt;Node112 -->
<g id="edge32" class="edge"><title>Node6&#45;&gt;Node112</title>
<path fill="none" stroke="midnightblue" d="M2115.58,-228.411C2087.95,-223.171 2054.4,-211.961 2034.5,-188 2006.65,-154.464 2011.22,-97.0465 2014.15,-75.5004"/>
<polygon fill="midnightblue" stroke="midnightblue" points="2115,-231.864 2125.45,-230.084 2116.17,-224.962 2115,-231.864"/>
</g>
<!-- Node118 -->
<g id="node32" class="node"><title>Node118</title>
<g id="a_node32"><a xlink:href="api_2crypto_8h.html" target="_top" xlink:title="ODP crypto. ">
<polygon fill="white" stroke="red" points="2325.5,-112.5 2325.5,-131.5 2381.5,-131.5 2381.5,-112.5 2325.5,-112.5"/>
<text text-anchor="middle" x="2353.5" y="-119.5" font-family="Helvetica,sans-Serif" font-size="10.00">crypto.h</text>
</a>
</g>
</g>
<!-- Node6&#45;&gt;Node118 -->
<g id="edge34" class="edge"><title>Node6&#45;&gt;Node118</title>
<path fill="none" stroke="midnightblue" d="M2191.73,-220.519C2211.2,-212.107 2236.83,-200.328 2258.5,-188 2290.11,-170.016 2324.79,-144.75 2342.2,-131.646"/>
<polygon fill="midnightblue" stroke="midnightblue" points="2190.26,-217.34 2182.43,-224.481 2193.01,-223.779 2190.26,-217.34"/>
</g>
<!-- Node114 -->
<g id="node33" class="node"><title>Node114</title>
<g id="a_node33"><a xlink:href="api_2packet_8h.html" target="_top" xlink:title="ODP packet descriptor. ">
<polygon fill="white" stroke="red" points="2043.5,-168.5 2043.5,-187.5 2101.5,-187.5 2101.5,-168.5 2043.5,-168.5"/>
<text text-anchor="middle" x="2072.5" y="-175.5" font-family="Helvetica,sans-Serif" font-size="10.00">packet.h</text>
</a>
</g>
</g>
<!-- Node6&#45;&gt;Node114 -->
<g id="edge36" class="edge"><title>Node6&#45;&gt;Node114</title>
<path fill="none" stroke="midnightblue" d="M2138.26,-218.901C2121.94,-208.999 2100.63,-196.071 2086.76,-187.655"/>
<polygon fill="midnightblue" stroke="midnightblue" points="2136.84,-222.129 2147.2,-224.324 2140.47,-216.144 2136.84,-222.129"/>
</g>
<!-- Node128 -->
<g id="node34" class="node"><title>Node128</title>
<g id="a_node34"><a xlink:href="api_2spec_2packet__flags_8h.html" target="_top" xlink:title="ODP packet flags. ">
<polygon fill="white" stroke="red" points="2081.5,-112.5 2081.5,-131.5 2167.5,-131.5 2167.5,-112.5 2081.5,-112.5"/>
<text text-anchor="middle" x="2124.5" y="-119.5" font-family="Helvetica,sans-Serif" font-size="10.00">packet_flags.h</text>
</a>
</g>
</g>
<!-- Node6&#45;&gt;Node128 -->
<g id="edge51" class="edge"><title>Node6&#45;&gt;Node128</title>
<path fill="none" stroke="midnightblue" d="M2155.34,-214.674C2147.25,-190.625 2133.38,-149.388 2127.39,-131.591"/>
<polygon fill="midnightblue" stroke="midnightblue" points="2152.09,-216.006 2158.6,-224.368 2158.73,-213.774 2152.09,-216.006"/>
</g>
<!-- Node124 -->
<g id="node35" class="node"><title>Node124</title>
<g id="a_node35"><a xlink:href="api_2packet__io_8h.html" target="_top" xlink:title="ODP Packet IO. ">
<polygon fill="white" stroke="red" points="2158,-168.5 2158,-187.5 2229,-187.5 2229,-168.5 2158,-168.5"/>
<text text-anchor="middle" x="2193.5" y="-175.5" font-family="Helvetica,sans-Serif" font-size="10.00">packet_io.h</text>
</a>
</g>
</g>
<!-- Node6&#45;&gt;Node124 -->
<g id="edge39" class="edge"><title>Node6&#45;&gt;Node124</title>
<path fill="none" stroke="midnightblue" d="M2172,-215.275C2177.47,-206.045 2183.92,-195.17 2188.31,-187.751"/>
<polygon fill="midnightblue" stroke="midnightblue" points="2168.87,-213.696 2166.78,-224.083 2174.89,-217.264 2168.87,-213.696"/>
</g>
<!-- Node126 -->
<g id="node36" class="node"><title>Node126</title>
<g id="a_node36"><a xlink:href="api_2spec_2traffic__mngr_8h.html" target="_top" xlink:title="Copyright (c) 2015&#45;2018, Linaro Limited All rights reserved. ">
<polygon fill="white" stroke="red" points="2224,-112.5 2224,-131.5 2307,-131.5 2307,-112.5 2224,-112.5"/>
<text text-anchor="middle" x="2265.5" y="-119.5" font-family="Helvetica,sans-Serif" font-size="10.00">traffic_mngr.h</text>
</a>
</g>
</g>
<!-- Node6&#45;&gt;Node126 -->
<g id="edge57" class="edge"><title>Node6&#45;&gt;Node126</title>
<path fill="none" stroke="midnightblue" d="M2192.74,-220.106C2207.86,-212.581 2225.34,-201.825 2237.5,-188 2252.43,-171.025 2260.36,-144.872 2263.64,-131.504"/>
<polygon fill="midnightblue" stroke="midnightblue" points="2191.24,-216.941 2183.69,-224.372 2194.23,-223.272 2191.24,-216.941"/>
</g>
<!-- Node122 -->
<g id="node37" class="node"><title>Node122</title>
<g id="a_node37"><a xlink:href="api_2queue_8h.html" target="_top" xlink:title="ODP queue. ">
<polygon fill="white" stroke="red" points="2323.5,-168.5 2323.5,-187.5 2379.5,-187.5 2379.5,-168.5 2323.5,-168.5"/>
<text text-anchor="middle" x="2351.5" y="-175.5" font-family="Helvetica,sans-Serif" font-size="10.00">queue.h</text>
</a>
</g>
</g>
<!-- Node6&#45;&gt;Node122 -->
<g id="edge42" class="edge"><title>Node6&#45;&gt;Node122</title>
<path fill="none" stroke="midnightblue" d="M2201.44,-221.648C2237.99,-211.261 2291.14,-196.156 2323.39,-186.988"/>
<polygon fill="midnightblue" stroke="midnightblue" points="2200.27,-218.343 2191.61,-224.444 2202.18,-225.076 2200.27,-218.343"/>
</g>
<!-- Node81 -->
<g id="node38" class="node"><title>Node81</title>
<g id="a_node38"><a xlink:href="api_2spec_2schedule_8h.html" target="_top" xlink:title="ODP schedule. ">
<polygon fill="white" stroke="red" points="2437.5,-112.5 2437.5,-131.5 2505.5,-131.5 2505.5,-112.5 2437.5,-112.5"/>
<text text-anchor="middle" x="2471.5" y="-119.5" font-family="Helvetica,sans-Serif" font-size="10.00">schedule.h</text>
</a>
</g>
</g>
<!-- Node6&#45;&gt;Node81 -->
<g id="edge53" class="edge"><title>Node6&#45;&gt;Node81</title>
<path fill="none" stroke="midnightblue" d="M2207.93,-230.136C2255.23,-225.791 2329.77,-214.94 2388.5,-188 2419.44,-173.807 2449.24,-145.925 2463.22,-131.739"/>
<polygon fill="midnightblue" stroke="midnightblue" points="2207.35,-226.673 2197.69,-231.014 2207.95,-233.647 2207.35,-226.673"/>
</g>
<!-- Node156 -->
<g id="node39" class="node"><title>Node156</title>
<g id="a_node39"><a xlink:href="spec_2chksum_8h.html" target="_top" xlink:title="ODP checksum functions. ">
<polygon fill="white" stroke="red" points="2436,-168.5 2436,-187.5 2499,-187.5 2499,-168.5 2436,-168.5"/>
<text text-anchor="middle" x="2467.5" y="-175.5" font-family="Helvetica,sans-Serif" font-size="10.00">chksum.h</text>
</a>
</g>
</g>
<!-- Node6&#45;&gt;Node156 -->
<g id="edge46" class="edge"><title>Node6&#45;&gt;Node156</title>
<path fill="none" stroke="midnightblue" d="M2207.64,-225.327C2259.66,-216.603 2346.74,-201.781 2421.5,-188 2426.14,-187.144 2431.04,-186.214 2435.84,-185.288"/>
<polygon fill="midnightblue" stroke="midnightblue" points="2207,-221.885 2197.72,-226.988 2208.16,-228.789 2207,-221.885"/>
</g>
<!-- Node158 -->
<g id="node40" class="node"><title>Node158</title>
<g id="a_node40"><a xlink:href="api_2spec_2cpu_8h.html" target="_top" xlink:title="ODP CPU API. ">
<polygon fill="white" stroke="red" points="2517,-168.5 2517,-187.5 2560,-187.5 2560,-168.5 2517,-168.5"/>
<text text-anchor="middle" x="2538.5" y="-175.5" font-family="Helvetica,sans-Serif" font-size="10.00">cpu.h</text>
</a>
</g>
</g>
<!-- Node6&#45;&gt;Node158 -->
<g id="edge47" class="edge"><title>Node6&#45;&gt;Node158</title>
<path fill="none" stroke="midnightblue" d="M2207.85,-229.246C2274.59,-223.329 2401.4,-210.164 2507.5,-188 2510.57,-187.358 2513.78,-186.567 2516.93,-185.721"/>
<polygon fill="midnightblue" stroke="midnightblue" points="2207.33,-225.779 2197.67,-230.134 2207.93,-232.752 2207.33,-225.779"/>
</g>
<!-- Node160 -->
<g id="node41" class="node"><title>Node160</title>
<g id="a_node41"><a xlink:href="spec_2feature_8h.html" target="_top" xlink:title="ODP features. ">
<polygon fill="white" stroke="red" points="2578.5,-168.5 2578.5,-187.5 2638.5,-187.5 2638.5,-168.5 2578.5,-168.5"/>
<text text-anchor="middle" x="2608.5" y="-175.5" font-family="Helvetica,sans-Serif" font-size="10.00">feature.h</text>
</a>
</g>
</g>
<!-- Node6&#45;&gt;Node160 -->
<g id="edge48" class="edge"><title>Node6&#45;&gt;Node160</title>
<path fill="none" stroke="midnightblue" d="M2207.77,-229.57C2283.52,-223.577 2438.58,-209.728 2568.5,-188 2571.73,-187.46 2575.09,-186.823 2578.43,-186.142"/>
<polygon fill="midnightblue" stroke="midnightblue" points="2207.32,-226.095 2197.62,-230.363 2207.86,-233.073 2207.32,-226.095"/>
</g>
<!-- Node162 -->
<g id="node42" class="node"><title>Node162</title>
<g id="a_node42"><a xlink:href="api_2spec_2hash_8h.html" target="_top" xlink:title="ODP Hash functions. ">
<polygon fill="white" stroke="red" points="2657,-168.5 2657,-187.5 2706,-187.5 2706,-168.5 2657,-168.5"/>
<text text-anchor="middle" x="2681.5" y="-175.5" font-family="Helvetica,sans-Serif" font-size="10.00">hash.h</text>
</a>
</g>
</g>
<!-- Node6&#45;&gt;Node162 -->
<g id="edge49" class="edge"><title>Node6&#45;&gt;Node162</title>
<path fill="none" stroke="midnightblue" d="M2207.8,-231.279C2294.62,-227.486 2487.55,-216.371 2647.5,-188 2650.51,-187.467 2653.63,-186.799 2656.72,-186.068"/>
<polygon fill="midnightblue" stroke="midnightblue" points="2207.59,-227.785 2197.75,-231.706 2207.89,-234.778 2207.59,-227.785"/>
</g>
<!-- Node83 -->
<g id="node43" class="node"><title>Node83</title>
<g id="a_node43"><a xlink:href="api_2spec_2init_8h.html" target="_top" xlink:title="init.h">
<polygon fill="white" stroke="red" points="2724.5,-168.5 2724.5,-187.5 2764.5,-187.5 2764.5,-168.5 2724.5,-168.5"/>
<text text-anchor="middle" x="2744.5" y="-175.5" font-family="Helvetica,sans-Serif" font-size="10.00">init.h</text>
</a>
</g>
</g>
<!-- Node6&#45;&gt;Node83 -->
<g id="edge50" class="edge"><title>Node6&#45;&gt;Node83</title>
<path fill="none" stroke="midnightblue" d="M2207.96,-232.504C2303.59,-230.765 2529.06,-222.958 2714.5,-188 2717.71,-187.396 2721.06,-186.58 2724.31,-185.686"/>
<polygon fill="midnightblue" stroke="midnightblue" points="2207.7,-229.008 2197.76,-232.675 2207.81,-236.007 2207.7,-229.008"/>
</g>
<!-- Node164 -->
<g id="node44" class="node"><title>Node164</title>
<g id="a_node44"><a xlink:href="api_2spec_2pool_8h.html" target="_top" xlink:title="ODP pool. ">
<polygon fill="white" stroke="red" points="2782.5,-168.5 2782.5,-187.5 2828.5,-187.5 2828.5,-168.5 2782.5,-168.5"/>
<text text-anchor="middle" x="2805.5" y="-175.5" font-family="Helvetica,sans-Serif" font-size="10.00">pool.h</text>
</a>
</g>
</g>
<!-- Node6&#45;&gt;Node164 -->
<g id="edge52" class="edge"><title>Node6&#45;&gt;Node164</title>
<path fill="none" stroke="midnightblue" d="M2207.71,-232.756C2310.29,-231.527 2564.52,-224.688 2773.5,-188 2776.34,-187.501 2779.29,-186.854 2782.21,-186.135"/>
<polygon fill="midnightblue" stroke="midnightblue" points="2207.64,-229.256 2197.68,-232.863 2207.72,-236.256 2207.64,-229.256"/>
</g>
<!-- Node166 -->
<g id="node45" class="node"><title>Node166</title>
<g id="a_node45"><a xlink:href="api_2spec_2stash_8h.html" target="_top" xlink:title="ODP stash. ">
<polygon fill="white" stroke="red" points="2846.5,-168.5 2846.5,-187.5 2898.5,-187.5 2898.5,-168.5 2846.5,-168.5"/>
<text text-anchor="middle" x="2872.5" y="-175.5" font-family="Helvetica,sans-Serif" font-size="10.00">stash.h</text>
</a>
</g>
</g>
<!-- Node6&#45;&gt;Node166 -->
<g id="edge54" class="edge"><title>Node6&#45;&gt;Node166</title>
<path fill="none" stroke="midnightblue" d="M2207.76,-232.862C2317.68,-231.895 2602.92,-225.634 2837.5,-188 2840.35,-187.543 2843.31,-186.959 2846.24,-186.31"/>
<polygon fill="midnightblue" stroke="midnightblue" points="2207.65,-229.362 2197.67,-232.94 2207.7,-236.362 2207.65,-229.362"/>
</g>
<!-- Node168 -->
<g id="node46" class="node"><title>Node168</title>
<g id="a_node46"><a xlink:href="spec_2threshold_8h.html" target="_top" xlink:title="ODP threshold descriptor. ">
<polygon fill="white" stroke="red" points="2917,-168.5 2917,-187.5 2988,-187.5 2988,-168.5 2917,-168.5"/>
<text text-anchor="middle" x="2952.5" y="-175.5" font-family="Helvetica,sans-Serif" font-size="10.00">threshold.h</text>
</a>
</g>
</g>
<!-- Node6&#45;&gt;Node168 -->
<g id="edge55" class="edge"><title>Node6&#45;&gt;Node168</title>
<path fill="none" stroke="midnightblue" d="M2207.85,-232.41C2325.35,-230.436 2644.26,-222.099 2907.5,-188 2910.5,-187.611 2913.61,-187.139 2916.71,-186.618"/>
<polygon fill="midnightblue" stroke="midnightblue" points="2207.71,-228.912 2197.77,-232.572 2207.82,-235.911 2207.71,-228.912"/>
</g>
<!-- Node170 -->
<g id="node47" class="node"><title>Node170</title>
<g id="a_node47"><a xlink:href="api_2spec_2thrmask_8h.html" target="_top" xlink:title="ODP thread masks. ">
<polygon fill="white" stroke="red" points="3006,-168.5 3006,-187.5 3071,-187.5 3071,-168.5 3006,-168.5"/>
<text text-anchor="middle" x="3038.5" y="-175.5" font-family="Helvetica,sans-Serif" font-size="10.00">thrmask.h</text>
</a>
</g>
</g>
<!-- Node6&#45;&gt;Node170 -->
<g id="edge56" class="edge"><title>Node6&#45;&gt;Node170</title>
<path fill="none" stroke="midnightblue" d="M2207.67,-233.136C2334.45,-232.944 2698.41,-228.603 2997.5,-188 3000.24,-187.627 3003.08,-187.167 3005.91,-186.654"/>
<polygon fill="midnightblue" stroke="midnightblue" points="2207.55,-229.636 2197.55,-233.143 2207.55,-236.636 2207.55,-229.636"/>
</g>
<!-- Node171 -->
<g id="node48" class="node"><title>Node171</title>
<g id="a_node48"><a xlink:href="system__info_8h.html" target="_top" xlink:title="ODP system information. ">
<polygon fill="white" stroke="black" points="2711,-56.5 2711,-75.5 2794,-75.5 2794,-56.5 2711,-56.5"/>
<text text-anchor="middle" x="2752.5" y="-63.5" font-family="Helvetica,sans-Serif" font-size="10.00">system_info.h</text>
</a>
</g>
</g>
<!-- Node6&#45;&gt;Node171 -->
<g id="edge58" class="edge"><title>Node6&#45;&gt;Node171</title>
<path fill="none" stroke="midnightblue" d="M2207.63,-232.486C2389.73,-230.237 3050.13,-219.898 3080.5,-188 3166.93,-97.2323 2900.51,-74.1675 2794.24,-68.6415"/>
<polygon fill="midnightblue" stroke="midnightblue" points="2207.53,-228.987 2197.58,-232.608 2207.62,-235.987 2207.53,-228.987"/>
</g>
<!-- Node172 -->
<g id="node49" class="node"><title>Node172</title>
<g id="a_node49"><a xlink:href="api_2time_8h.html" target="_top" xlink:title="ODP time. ">
<polygon fill="white" stroke="red" points="2948,-56.5 2948,-75.5 2995,-75.5 2995,-56.5 2948,-56.5"/>
<text text-anchor="middle" x="2971.5" y="-63.5" font-family="Helvetica,sans-Serif" font-size="10.00">time.h</text>
</a>
</g>
</g>
<!-- Node6&#45;&gt;Node172 -->
<g id="edge60" class="edge"><title>Node6&#45;&gt;Node172</title>
<path fill="none" stroke="midnightblue" d="M2207.71,-232.535C2392.44,-230.457 3069.4,-220.629 3100.5,-188 3115.82,-171.933 3105.32,-135.032 3084.5,-112 3061.13,-86.1544 3020.95,-74.9315 2995.33,-70.2185"/>
<polygon fill="midnightblue" stroke="midnightblue" points="2207.48,-229.038 2197.52,-232.648 2207.55,-236.037 2207.48,-229.038"/>
</g>
<!-- Node174 -->
<g id="node50" class="node"><title>Node174</title>
<g id="a_node50"><a xlink:href="api_2timer_8h.html" target="_top" xlink:title="ODP timer service. ">
<polygon fill="white" stroke="black" points="3081.5,-56.5 3081.5,-75.5 3131.5,-75.5 3131.5,-56.5 3081.5,-56.5"/>
<text text-anchor="middle" x="3106.5" y="-63.5" font-family="Helvetica,sans-Serif" font-size="10.00">timer.h</text>
</a>
</g>
</g>
<!-- Node6&#45;&gt;Node174 -->
<g id="edge62" class="edge"><title>Node6&#45;&gt;Node174</title>
<path fill="none" stroke="midnightblue" d="M2207.64,-232.577C2394.4,-230.644 3085.77,-221.258 3117.5,-188 3147.35,-156.713 3122.34,-97.9427 3111.19,-75.7682"/>
<polygon fill="midnightblue" stroke="midnightblue" points="2207.56,-229.078 2197.6,-232.679 2207.63,-236.077 2207.56,-229.078"/>
</g>
<!-- Node8 -->
<g id="node3" class="node"><title>Node8</title>
<g id="a_node3"><a xlink:href="arch_2arm32-linux_2odp_2api_2abi_2atomic_8h_source.html" target="_top" xlink:title="atomic.h">
<polygon fill="white" stroke="black" points="462,-112.5 462,-131.5 521,-131.5 521,-112.5 462,-112.5"/>
<text text-anchor="middle" x="491.5" y="-119.5" font-family="Helvetica,sans-Serif" font-size="10.00">atomic.h</text>
</a>
</g>
</g>
<!-- Node7&#45;&gt;Node8 -->
<g id="edge2" class="edge"><title>Node7&#45;&gt;Node8</title>
<path fill="none" stroke="midnightblue" d="M338.099,-165.92C374.795,-155.653 428.567,-140.608 461.733,-131.329"/>
<polygon fill="midnightblue" stroke="midnightblue" points="336.92,-162.616 328.233,-168.681 338.807,-169.357 336.92,-162.616"/>
</g>
<!-- Node9 -->
<g id="node4" class="node"><title>Node9</title>
<g id="a_node4"><a xlink:href="arch_2arm64-linux_2odp_2api_2abi_2atomic_8h_source.html" target="_top" xlink:title="atomic.h">
<polygon fill="white" stroke="black" points="0,-112.5 0,-131.5 59,-131.5 59,-112.5 0,-112.5"/>
<text text-anchor="middle" x="29.5" y="-119.5" font-family="Helvetica,sans-Serif" font-size="10.00">atomic.h</text>
</a>
</g>
</g>
<!-- Node7&#45;&gt;Node9 -->
<g id="edge3" class="edge"><title>Node7&#45;&gt;Node9</title>
<path fill="none" stroke="midnightblue" d="M259.006,-169.806C212.934,-161.298 134.521,-146.459 67.5,-132 64.8491,-131.428 62.0989,-130.815 59.3451,-130.188"/>
<polygon fill="midnightblue" stroke="midnightblue" points="258.417,-173.256 268.886,-171.625 259.685,-166.372 258.417,-173.256"/>
</g>
<!-- Node10 -->
<g id="node5" class="node"><title>Node10</title>
<g id="a_node5"><a xlink:href="arch_2default-linux_2odp_2api_2abi_2atomic_8h_source.html" target="_top" xlink:title="atomic.h">
<polygon fill="white" stroke="black" points="77,-112.5 77,-131.5 136,-131.5 136,-112.5 77,-112.5"/>
<text text-anchor="middle" x="106.5" y="-119.5" font-family="Helvetica,sans-Serif" font-size="10.00">atomic.h</text>
</a>
</g>
</g>
<!-- Node7&#45;&gt;Node10 -->
<g id="edge4" class="edge"><title>Node7&#45;&gt;Node10</title>
<path fill="none" stroke="midnightblue" d="M259.106,-165.92C222.601,-155.653 169.106,-140.608 136.113,-131.329"/>
<polygon fill="midnightblue" stroke="midnightblue" points="258.347,-169.343 268.921,-168.681 260.242,-162.604 258.347,-169.343"/>
</g>
<!-- Node11 -->
<g id="node6" class="node"><title>Node11</title>
<g id="a_node6"><a xlink:href="arch_2mips64-linux_2odp_2api_2abi_2atomic_8h_source.html" target="_top" xlink:title="atomic.h">
<polygon fill="white" stroke="black" points="154,-112.5 154,-131.5 213,-131.5 213,-112.5 154,-112.5"/>
<text text-anchor="middle" x="183.5" y="-119.5" font-family="Helvetica,sans-Serif" font-size="10.00">atomic.h</text>
</a>
</g>
</g>
<!-- Node7&#45;&gt;Node11 -->
<g id="edge5" class="edge"><title>Node7&#45;&gt;Node11</title>
<path fill="none" stroke="midnightblue" d="M271.019,-164.096C249.534,-154.007 220.278,-140.27 201.637,-131.516"/>
<polygon fill="midnightblue" stroke="midnightblue" points="269.738,-167.361 280.278,-168.444 272.714,-161.025 269.738,-167.361"/>
</g>
<!-- Node12 -->
<g id="node7" class="node"><title>Node12</title>
<g id="a_node7"><a xlink:href="arch_2power64-linux_2odp_2api_2abi_2atomic_8h_source.html" target="_top" xlink:title="atomic.h">
<polygon fill="white" stroke="black" points="231,-112.5 231,-131.5 290,-131.5 290,-112.5 231,-112.5"/>
<text text-anchor="middle" x="260.5" y="-119.5" font-family="Helvetica,sans-Serif" font-size="10.00">atomic.h</text>
</a>
</g>
</g>
<!-- Node7&#45;&gt;Node12 -->
<g id="edge6" class="edge"><title>Node7&#45;&gt;Node12</title>
<path fill="none" stroke="midnightblue" d="M286.435,-159.855C279.855,-150.505 271.989,-139.327 266.658,-131.751"/>
<polygon fill="midnightblue" stroke="midnightblue" points="283.608,-161.919 292.225,-168.083 289.332,-157.891 283.608,-161.919"/>
</g>
<!-- Node13 -->
<g id="node8" class="node"><title>Node13</title>
<g id="a_node8"><a xlink:href="arch_2x86__32-linux_2odp_2api_2abi_2atomic_8h_source.html" target="_top" xlink:title="atomic.h">
<polygon fill="white" stroke="black" points="308,-112.5 308,-131.5 367,-131.5 367,-112.5 308,-112.5"/>
<text text-anchor="middle" x="337.5" y="-119.5" font-family="Helvetica,sans-Serif" font-size="10.00">atomic.h</text>
</a>
</g>
</g>
<!-- Node7&#45;&gt;Node13 -->
<g id="edge7" class="edge"><title>Node7&#45;&gt;Node13</title>
<path fill="none" stroke="midnightblue" d="M310.882,-159.855C317.635,-150.505 325.709,-139.327 331.18,-131.751"/>
<polygon fill="midnightblue" stroke="midnightblue" points="307.958,-157.927 304.94,-168.083 313.632,-162.025 307.958,-157.927"/>
</g>
<!-- Node14 -->
<g id="node9" class="node"><title>Node14</title>
<g id="a_node9"><a xlink:href="arch_2x86__64-linux_2odp_2api_2abi_2atomic_8h_source.html" target="_top" xlink:title="atomic.h">
<polygon fill="white" stroke="red" points="385,-112.5 385,-131.5 444,-131.5 444,-112.5 385,-112.5"/>
<text text-anchor="middle" x="414.5" y="-119.5" font-family="Helvetica,sans-Serif" font-size="10.00">atomic.h</text>
</a>
</g>
</g>
<!-- Node7&#45;&gt;Node14 -->
<g id="edge8" class="edge"><title>Node7&#45;&gt;Node14</title>
<path fill="none" stroke="midnightblue" d="M326.22,-164.096C347.892,-154.007 377.402,-140.27 396.205,-131.516"/>
<polygon fill="midnightblue" stroke="midnightblue" points="324.469,-161.05 316.881,-168.444 327.423,-167.396 324.469,-161.05"/>
</g>
<!-- Node17 -->
<g id="node11" class="node"><title>Node17</title>
<g id="a_node11"><a xlink:href="arch_2arm32-linux_2odp_2api_2abi_2barrier_8h_source.html" target="_top" xlink:title="barrier.h">
<polygon fill="white" stroke="black" points="909.5,-112.5 909.5,-131.5 965.5,-131.5 965.5,-112.5 909.5,-112.5"/>
<text text-anchor="middle" x="937.5" y="-119.5" font-family="Helvetica,sans-Serif" font-size="10.00">barrier.h</text>
</a>
</g>
</g>
<!-- Node16&#45;&gt;Node17 -->
<g id="edge10" class="edge"><title>Node16&#45;&gt;Node17</title>
<path fill="none" stroke="midnightblue" d="M853.505,-163.862C874.088,-153.849 901.845,-140.346 919.71,-131.655"/>
<polygon fill="midnightblue" stroke="midnightblue" points="851.795,-160.802 844.334,-168.324 854.858,-167.097 851.795,-160.802"/>
</g>
<!-- Node18 -->
<g id="node12" class="node"><title>Node18</title>
<g id="a_node12"><a xlink:href="arch_2arm64-linux_2odp_2api_2abi_2barrier_8h_source.html" target="_top" xlink:title="barrier.h">
<polygon fill="white" stroke="black" points="539.5,-112.5 539.5,-131.5 595.5,-131.5 595.5,-112.5 539.5,-112.5"/>
<text text-anchor="middle" x="567.5" y="-119.5" font-family="Helvetica,sans-Serif" font-size="10.00">barrier.h</text>
</a>
</g>
</g>
<!-- Node16&#45;&gt;Node18 -->
<g id="edge11" class="edge"><title>Node16&#45;&gt;Node18</title>
<path fill="none" stroke="midnightblue" d="M788.353,-169.732C744.051,-161.184 668.818,-146.336 604.5,-132 601.661,-131.367 598.705,-130.686 595.756,-129.992"/>
<polygon fill="midnightblue" stroke="midnightblue" points="787.909,-173.211 798.391,-171.663 789.232,-166.337 787.909,-173.211"/>
</g>
<!-- Node19 -->
<g id="node13" class="node"><title>Node19</title>
<g id="a_node13"><a xlink:href="arch_2default-linux_2odp_2api_2abi_2barrier_8h_source.html" target="_top" xlink:title="barrier.h">
<polygon fill="white" stroke="black" points="613.5,-112.5 613.5,-131.5 669.5,-131.5 669.5,-112.5 613.5,-112.5"/>
<text text-anchor="middle" x="641.5" y="-119.5" font-family="Helvetica,sans-Serif" font-size="10.00">barrier.h</text>
</a>
</g>
</g>
<!-- Node16&#45;&gt;Node19 -->
<g id="edge12" class="edge"><title>Node16&#45;&gt;Node19</title>
<path fill="none" stroke="midnightblue" d="M788.451,-165.894C753.103,-155.576 701.281,-140.45 669.558,-131.19"/>
<polygon fill="midnightblue" stroke="midnightblue" points="787.822,-169.356 798.402,-168.799 789.784,-162.637 787.822,-169.356"/>
</g>
<!-- Node20 -->
<g id="node14" class="node"><title>Node20</title>
<g id="a_node14"><a xlink:href="arch_2mips64-linux_2odp_2api_2abi_2barrier_8h_source.html" target="_top" xlink:title="barrier.h">
<polygon fill="white" stroke="black" points="687.5,-112.5 687.5,-131.5 743.5,-131.5 743.5,-112.5 687.5,-112.5"/>
<text text-anchor="middle" x="715.5" y="-119.5" font-family="Helvetica,sans-Serif" font-size="10.00">barrier.h</text>
</a>
</g>
</g>
<!-- Node16&#45;&gt;Node20 -->
<g id="edge13" class="edge"><title>Node16&#45;&gt;Node20</title>
<path fill="none" stroke="midnightblue" d="M799.495,-163.862C778.912,-153.849 751.155,-140.346 733.29,-131.655"/>
<polygon fill="midnightblue" stroke="midnightblue" points="798.142,-167.097 808.666,-168.324 801.205,-160.802 798.142,-167.097"/>
</g>
<!-- Node21 -->
<g id="node15" class="node"><title>Node21</title>
<g id="a_node15"><a xlink:href="arch_2power64-linux_2odp_2api_2abi_2barrier_8h_source.html" target="_top" xlink:title="barrier.h">
<polygon fill="white" stroke="black" points="761.5,-112.5 761.5,-131.5 817.5,-131.5 817.5,-112.5 761.5,-112.5"/>
<text text-anchor="middle" x="789.5" y="-119.5" font-family="Helvetica,sans-Serif" font-size="10.00">barrier.h</text>
</a>
</g>
</g>
<!-- Node16&#45;&gt;Node21 -->
<g id="edge14" class="edge"><title>Node16&#45;&gt;Node21</title>
<path fill="none" stroke="midnightblue" d="M814.554,-159.566C808.188,-150.275 800.633,-139.248 795.496,-131.751"/>
<polygon fill="midnightblue" stroke="midnightblue" points="811.851,-161.812 820.39,-168.083 817.625,-157.855 811.851,-161.812"/>
</g>
<!-- Node22 -->
<g id="node16" class="node"><title>Node22</title>
<g id="a_node16"><a xlink:href="arch_2x86__32-linux_2odp_2api_2abi_2barrier_8h_source.html" target="_top" xlink:title="barrier.h">
<polygon fill="white" stroke="black" points="835.5,-112.5 835.5,-131.5 891.5,-131.5 891.5,-112.5 835.5,-112.5"/>
<text text-anchor="middle" x="863.5" y="-119.5" font-family="Helvetica,sans-Serif" font-size="10.00">barrier.h</text>
</a>
</g>
</g>
<!-- Node16&#45;&gt;Node22 -->
<g id="edge15" class="edge"><title>Node16&#45;&gt;Node22</title>
<path fill="none" stroke="midnightblue" d="M838.446,-159.566C844.812,-150.275 852.367,-139.248 857.504,-131.751"/>
<polygon fill="midnightblue" stroke="midnightblue" points="835.375,-157.855 832.61,-168.083 841.149,-161.812 835.375,-157.855"/>
</g>
<!-- Node23 -->
<g id="node17" class="node"><title>Node23</title>
<g id="a_node17"><a xlink:href="arch_2x86__64-linux_2odp_2api_2abi_2barrier_8h_source.html" target="_top" xlink:title="barrier.h">
<polygon fill="white" stroke="black" points="983.5,-112.5 983.5,-131.5 1039.5,-131.5 1039.5,-112.5 983.5,-112.5"/>
<text text-anchor="middle" x="1011.5" y="-119.5" font-family="Helvetica,sans-Serif" font-size="10.00">barrier.h</text>
</a>
</g>
</g>
<!-- Node16&#45;&gt;Node23 -->
<g id="edge16" class="edge"><title>Node16&#45;&gt;Node23</title>
<path fill="none" stroke="midnightblue" d="M864.549,-165.894C899.897,-155.576 951.719,-140.45 983.442,-131.19"/>
<polygon fill="midnightblue" stroke="midnightblue" points="863.216,-162.637 854.598,-168.799 865.178,-169.356 863.216,-162.637"/>
</g>
<!-- Node23&#45;&gt;Node24 -->
<g id="edge17" class="edge"><title>Node23&#45;&gt;Node24</title>
<path fill="none" stroke="midnightblue" d="M1023.56,-103.855C1030.14,-94.5048 1038.01,-83.3265 1043.34,-75.7511"/>
<polygon fill="midnightblue" stroke="midnightblue" points="1020.67,-101.891 1017.77,-112.083 1026.39,-105.919 1020.67,-101.891"/>
</g>
<!-- Node24&#45;&gt;Node25 -->
<g id="edge18" class="edge"><title>Node24&#45;&gt;Node25</title>
<path fill="none" stroke="midnightblue" d="M1087.71,-56.5258C1088.99,-56.3343 1090.25,-56.158 1091.5,-56 1307.14,-28.7029 2006.16,-14.4702 2163.75,-11.5633"/>
<polygon fill="midnightblue" stroke="midnightblue" points="1087.11,-53.0779 1077.85,-58.2395 1088.31,-59.9744 1087.11,-53.0779"/>
</g>
<!-- Node55 -->
<g id="node21" class="node"><title>Node55</title>
<g id="a_node21"><a xlink:href="arch_2arm32-linux_2odp_2api_2abi_2byteorder_8h_source.html" target="_top" xlink:title="byteorder.h">
<polygon fill="white" stroke="black" points="1134,-112.5 1134,-131.5 1205,-131.5 1205,-112.5 1134,-112.5"/>
<text text-anchor="middle" x="1169.5" y="-119.5" font-family="Helvetica,sans-Serif" font-size="10.00">byteorder.h</text>
</a>
</g>
</g>
<!-- Node54&#45;&gt;Node55 -->
<g id="edge20" class="edge"><title>Node54&#45;&gt;Node55</title>
<path fill="none" stroke="midnightblue" d="M1169.5,-157.805C1169.5,-148.91 1169.5,-138.78 1169.5,-131.751"/>
<polygon fill="midnightblue" stroke="midnightblue" points="1166,-158.083 1169.5,-168.083 1173,-158.083 1166,-158.083"/>
</g>
<!-- Node155&#45;&gt;Node25 -->
<g id="edge31" class="edge"><title>Node155&#45;&gt;Node25</title>
<path fill="none" stroke="midnightblue" d="M1964.13,-55.9579C2041.65,-38.9198 2120.95,-24.2779 2163.87,-16.5824"/>
<polygon fill="midnightblue" stroke="midnightblue" points="1963.21,-52.578 1954.2,-58.1568 1964.72,-59.4126 1963.21,-52.578"/>
</g>
<!-- Node112&#45;&gt;Node25 -->
<g id="edge33" class="edge"><title>Node112&#45;&gt;Node25</title>
<path fill="none" stroke="midnightblue" d="M2053.61,-53.5677C2087.56,-43.381 2136.49,-28.7034 2167.11,-19.5164"/>
<polygon fill="midnightblue" stroke="midnightblue" points="2052.59,-50.2176 2044.02,-56.4435 2054.61,-56.9224 2052.59,-50.2176"/>
</g>
<!-- Node118&#45;&gt;Node25 -->
<g id="edge35" class="edge"><title>Node118&#45;&gt;Node25</title>
<path fill="none" stroke="midnightblue" d="M2332.55,-106.417C2299.14,-83.1513 2234.78,-38.3501 2207.84,-19.5914"/>
<polygon fill="midnightblue" stroke="midnightblue" points="2330.9,-109.527 2341.1,-112.368 2334.89,-103.782 2330.9,-109.527"/>
</g>
<!-- Node114&#45;&gt;Node25 -->
<g id="edge38" class="edge"><title>Node114&#45;&gt;Node25</title>
<path fill="none" stroke="midnightblue" d="M2068.37,-158.035C2066.39,-144.545 2065.72,-126.346 2072.5,-112 2094.23,-66.0374 2148.27,-33.9693 2176.94,-19.5667"/>
<polygon fill="midnightblue" stroke="midnightblue" points="2064.96,-158.864 2070.2,-168.071 2071.85,-157.604 2064.96,-158.864"/>
</g>
<!-- Node114&#45;&gt;Node128 -->
<g id="edge37" class="edge"><title>Node114&#45;&gt;Node128</title>
<path fill="none" stroke="midnightblue" d="M2088.18,-160.718C2097.34,-151.2 2108.55,-139.561 2116.07,-131.751"/>
<polygon fill="midnightblue" stroke="midnightblue" points="2085.5,-158.452 2081.09,-168.083 2090.54,-163.308 2085.5,-158.452"/>
</g>
<!-- Node124&#45;&gt;Node25 -->
<g id="edge41" class="edge"><title>Node124&#45;&gt;Node25</title>
<path fill="none" stroke="midnightblue" d="M2193.73,-157.93C2194.16,-121.92 2195.09,-45.2312 2195.4,-19.5681"/>
<polygon fill="midnightblue" stroke="midnightblue" points="2190.23,-158.034 2193.61,-168.075 2197.23,-158.118 2190.23,-158.034"/>
</g>
<!-- Node124&#45;&gt;Node126 -->
<g id="edge40" class="edge"><title>Node124&#45;&gt;Node126</title>
<path fill="none" stroke="midnightblue" d="M2213.37,-162.101C2226.32,-152.382 2242.8,-140.027 2253.72,-131.834"/>
<polygon fill="midnightblue" stroke="midnightblue" points="2210.97,-159.524 2205.07,-168.324 2215.17,-165.124 2210.97,-159.524"/>
</g>
<!-- Node122&#45;&gt;Node25 -->
<g id="edge45" class="edge"><title>Node122&#45;&gt;Node25</title>
<path fill="none" stroke="midnightblue" d="M2370.9,-161.805C2385.23,-148.651 2400.62,-129.105 2390.5,-112 2355.45,-52.7763 2272.89,-26.8566 2227.23,-16.7193"/>
<polygon fill="midnightblue" stroke="midnightblue" points="2368.53,-159.229 2363.22,-168.398 2373.09,-164.54 2368.53,-159.229"/>
</g>
<!-- Node122&#45;&gt;Node118 -->
<g id="edge43" class="edge"><title>Node122&#45;&gt;Node118</title>
<path fill="none" stroke="midnightblue" d="M2352.21,-157.805C2352.54,-148.91 2352.92,-138.78 2353.18,-131.751"/>
<polygon fill="midnightblue" stroke="midnightblue" points="2348.7,-157.96 2351.83,-168.083 2355.7,-158.219 2348.7,-157.96"/>
</g>
<!-- Node122&#45;&gt;Node81 -->
<g id="edge44" class="edge"><title>Node122&#45;&gt;Node81</title>
<path fill="none" stroke="midnightblue" d="M2379.87,-164.232C2402.32,-154.131 2433.04,-140.309 2452.57,-131.516"/>
<polygon fill="midnightblue" stroke="midnightblue" points="2378.2,-161.148 2370.51,-168.444 2381.07,-167.532 2378.2,-161.148"/>
</g>
<!-- Node171&#45;&gt;Node25 -->
<g id="edge59" class="edge"><title>Node171&#45;&gt;Node25</title>
<path fill="none" stroke="midnightblue" d="M2700.44,-59.9533C2586.72,-48.9284 2318.95,-22.9683 2227.08,-14.062"/>
<polygon fill="midnightblue" stroke="midnightblue" points="2700.34,-63.4598 2710.63,-60.9412 2701.02,-56.4925 2700.34,-63.4598"/>
</g>
<!-- Node172&#45;&gt;Node25 -->
<g id="edge61" class="edge"><title>Node172&#45;&gt;Node25</title>
<path fill="none" stroke="midnightblue" d="M2937.82,-62.6564C2809.46,-53.7242 2351.87,-21.8813 2227.11,-13.1998"/>
<polygon fill="midnightblue" stroke="midnightblue" points="2937.63,-66.1517 2947.85,-63.3544 2938.12,-59.1686 2937.63,-66.1517"/>
</g>
<!-- Node174&#45;&gt;Node25 -->
<g id="edge63" class="edge"><title>Node174&#45;&gt;Node25</title>
<path fill="none" stroke="midnightblue" d="M3071.33,-61.6136C3051.68,-59.7928 3026.74,-57.5996 3004.5,-56 2702.14,-34.2571 2335.56,-17.2324 2227.13,-12.3899"/>
<polygon fill="midnightblue" stroke="midnightblue" points="3071.08,-65.1057 3081.37,-62.5537 3071.74,-58.1362 3071.08,-65.1057"/>
</g>
</g>
</svg>
