<?xml version="1.0" encoding="UTF-8" standalone="no"?>
<!DOCTYPE svg PUBLIC "-//W3C//DTD SVG 1.1//EN"
 "http://www.w3.org/Graphics/SVG/1.1/DTD/svg11.dtd">
<!-- Generated by graphviz version 2.38.0 (20140413.2041)
 -->
<!-- Title: spinlock_recursive.h Pages: 1 -->
<svg width="907pt" height="252pt"
 viewBox="0.00 0.00 907.00 252.00" xmlns="http://www.w3.org/2000/svg" xmlns:xlink="http://www.w3.org/1999/xlink">
<g id="graph0" class="graph" transform="scale(1 1) rotate(0) translate(4 248)">
<title>spinlock_recursive.h</title>
<polygon fill="white" stroke="none" points="-4,4 -4,-248 903,-248 903,4 -4,4"/>
<!-- Node10 -->
<g id="node1" class="node"><title>Node10</title>
<polygon fill="#bfbfbf" stroke="black" points="393,-224.5 393,-243.5 506,-243.5 506,-224.5 393,-224.5"/>
<text text-anchor="middle" x="449.5" y="-231.5" font-family="Helvetica,sans-Serif" font-size="10.00">spinlock_recursive.h</text>
</g>
<!-- Node11 -->
<g id="node2" class="node"><title>Node11</title>
<g id="a_node2"><a xlink:href="arch_2arm32-linux_2odp_2api_2abi_2spinlock__recursive_8h_source.html" target="_top" xlink:title="spinlock_recursive.h">
<polygon fill="white" stroke="black" points="0,-168.5 0,-187.5 113,-187.5 113,-168.5 0,-168.5"/>
<text text-anchor="middle" x="56.5" y="-175.5" font-family="Helvetica,sans-Serif" font-size="10.00">spinlock_recursive.h</text>
</a>
</g>
</g>
<!-- Node10&#45;&gt;Node11 -->
<g id="edge1" class="edge"><title>Node10&#45;&gt;Node11</title>
<path fill="none" stroke="midnightblue" d="M382.856,-223.843C307.064,-213.429 184.605,-196.602 113.209,-186.792"/>
<polygon fill="midnightblue" stroke="midnightblue" points="382.391,-227.312 392.774,-225.206 383.344,-220.377 382.391,-227.312"/>
</g>
<!-- Node12 -->
<g id="node3" class="node"><title>Node12</title>
<g id="a_node3"><a xlink:href="arch_2arm64-linux_2odp_2api_2abi_2spinlock__recursive_8h_source.html" target="_top" xlink:title="spinlock_recursive.h">
<polygon fill="white" stroke="black" points="131,-168.5 131,-187.5 244,-187.5 244,-168.5 131,-168.5"/>
<text text-anchor="middle" x="187.5" y="-175.5" font-family="Helvetica,sans-Serif" font-size="10.00">spinlock_recursive.h</text>
</a>
</g>
</g>
<!-- Node10&#45;&gt;Node12 -->
<g id="edge2" class="edge"><title>Node10&#45;&gt;Node12</title>
<path fill="none" stroke="midnightblue" d="M398.117,-222.41C348.602,-212.204 274.638,-196.96 228.82,-187.516"/>
<polygon fill="midnightblue" stroke="midnightblue" points="397.485,-225.853 407.985,-224.444 398.898,-218.997 397.485,-225.853"/>
</g>
<!-- Node13 -->
<g id="node4" class="node"><title>Node13</title>
<g id="a_node4"><a xlink:href="arch_2default-linux_2odp_2api_2abi_2spinlock__recursive_8h_source.html" target="_top" xlink:title="spinlock_recursive.h">
<polygon fill="white" stroke="black" points="262,-168.5 262,-187.5 375,-187.5 375,-168.5 262,-168.5"/>
<text text-anchor="middle" x="318.5" y="-175.5" font-family="Helvetica,sans-Serif" font-size="10.00">spinlock_recursive.h</text>
</a>
</g>
</g>
<!-- Node10&#45;&gt;Node13 -->
<g id="edge3" class="edge"><title>Node10&#45;&gt;Node13</title>
<path fill="none" stroke="midnightblue" d="M419.183,-220.503C394.624,-210.38 360.682,-196.388 339.16,-187.516"/>
<polygon fill="midnightblue" stroke="midnightblue" points="418.163,-223.868 428.743,-224.444 420.831,-217.397 418.163,-223.868"/>
</g>
<!-- Node14 -->
<g id="node5" class="node"><title>Node14</title>
<g id="a_node5"><a xlink:href="arch_2mips64-linux_2odp_2api_2abi_2spinlock__recursive_8h_source.html" target="_top" xlink:title="spinlock_recursive.h">
<polygon fill="white" stroke="black" points="393,-168.5 393,-187.5 506,-187.5 506,-168.5 393,-168.5"/>
<text text-anchor="middle" x="449.5" y="-175.5" font-family="Helvetica,sans-Serif" font-size="10.00">spinlock_recursive.h</text>
</a>
</g>
</g>
<!-- Node10&#45;&gt;Node14 -->
<g id="edge4" class="edge"><title>Node10&#45;&gt;Node14</title>
<path fill="none" stroke="midnightblue" d="M449.5,-213.805C449.5,-204.91 449.5,-194.78 449.5,-187.751"/>
<polygon fill="midnightblue" stroke="midnightblue" points="446,-214.083 449.5,-224.083 453,-214.083 446,-214.083"/>
</g>
<!-- Node15 -->
<g id="node6" class="node"><title>Node15</title>
<g id="a_node6"><a xlink:href="arch_2power64-linux_2odp_2api_2abi_2spinlock__recursive_8h_source.html" target="_top" xlink:title="spinlock_recursive.h">
<polygon fill="white" stroke="black" points="524,-168.5 524,-187.5 637,-187.5 637,-168.5 524,-168.5"/>
<text text-anchor="middle" x="580.5" y="-175.5" font-family="Helvetica,sans-Serif" font-size="10.00">spinlock_recursive.h</text>
</a>
</g>
</g>
<!-- Node10&#45;&gt;Node15 -->
<g id="edge5" class="edge"><title>Node10&#45;&gt;Node15</title>
<path fill="none" stroke="midnightblue" d="M479.817,-220.503C504.376,-210.38 538.318,-196.388 559.84,-187.516"/>
<polygon fill="midnightblue" stroke="midnightblue" points="478.169,-217.397 470.257,-224.444 480.837,-223.868 478.169,-217.397"/>
</g>
<!-- Node16 -->
<g id="node7" class="node"><title>Node16</title>
<g id="a_node7"><a xlink:href="arch_2x86__32-linux_2odp_2api_2abi_2spinlock__recursive_8h_source.html" target="_top" xlink:title="spinlock_recursive.h">
<polygon fill="white" stroke="black" points="655,-168.5 655,-187.5 768,-187.5 768,-168.5 655,-168.5"/>
<text text-anchor="middle" x="711.5" y="-175.5" font-family="Helvetica,sans-Serif" font-size="10.00">spinlock_recursive.h</text>
</a>
</g>
</g>
<!-- Node10&#45;&gt;Node16 -->
<g id="edge6" class="edge"><title>Node10&#45;&gt;Node16</title>
<path fill="none" stroke="midnightblue" d="M500.883,-222.41C550.398,-212.204 624.362,-196.96 670.18,-187.516"/>
<polygon fill="midnightblue" stroke="midnightblue" points="500.102,-218.997 491.015,-224.444 501.515,-225.853 500.102,-218.997"/>
</g>
<!-- Node17 -->
<g id="node8" class="node"><title>Node17</title>
<g id="a_node8"><a xlink:href="arch_2x86__64-linux_2odp_2api_2abi_2spinlock__recursive_8h_source.html" target="_top" xlink:title="spinlock_recursive.h">
<polygon fill="white" stroke="black" points="786,-168.5 786,-187.5 899,-187.5 899,-168.5 786,-168.5"/>
<text text-anchor="middle" x="842.5" y="-175.5" font-family="Helvetica,sans-Serif" font-size="10.00">spinlock_recursive.h</text>
</a>
</g>
</g>
<!-- Node10&#45;&gt;Node17 -->
<g id="edge7" class="edge"><title>Node10&#45;&gt;Node17</title>
<path fill="none" stroke="midnightblue" d="M516.397,-223.847C582.684,-214.771 687.105,-200.459 777.5,-188 780.209,-187.627 782.981,-187.244 785.78,-186.858"/>
<polygon fill="midnightblue" stroke="midnightblue" points="515.527,-220.433 506.094,-225.257 516.476,-227.369 515.527,-220.433"/>
</g>
<!-- Node18 -->
<g id="node9" class="node"><title>Node18</title>
<g id="a_node9"><a xlink:href="api_2spinlock__recursive_8h.html" target="_top" xlink:title="ODP resursive spinlock. ">
<polygon fill="white" stroke="black" points="786,-112.5 786,-131.5 899,-131.5 899,-112.5 786,-112.5"/>
<text text-anchor="middle" x="842.5" y="-119.5" font-family="Helvetica,sans-Serif" font-size="10.00">spinlock_recursive.h</text>
</a>
</g>
</g>
<!-- Node17&#45;&gt;Node18 -->
<g id="edge8" class="edge"><title>Node17&#45;&gt;Node18</title>
<path fill="none" stroke="midnightblue" d="M842.5,-157.805C842.5,-148.91 842.5,-138.78 842.5,-131.751"/>
<polygon fill="midnightblue" stroke="midnightblue" points="839,-158.083 842.5,-168.083 846,-158.083 839,-158.083"/>
</g>
<!-- Node19 -->
<g id="node10" class="node"><title>Node19</title>
<g id="a_node10"><a xlink:href="odp__api_8h.html" target="_top" xlink:title="The OpenDataPlane API. ">
<polygon fill="white" stroke="black" points="811,-56.5 811,-75.5 874,-75.5 874,-56.5 811,-56.5"/>
<text text-anchor="middle" x="842.5" y="-63.5" font-family="Helvetica,sans-Serif" font-size="10.00">odp_api.h</text>
</a>
</g>
</g>
<!-- Node18&#45;&gt;Node19 -->
<g id="edge9" class="edge"><title>Node18&#45;&gt;Node19</title>
<path fill="none" stroke="midnightblue" d="M842.5,-101.805C842.5,-92.9102 842.5,-82.7798 842.5,-75.7511"/>
<polygon fill="midnightblue" stroke="midnightblue" points="839,-102.083 842.5,-112.083 846,-102.083 839,-102.083"/>
</g>
<!-- Node20 -->
<g id="node11" class="node"><title>Node20</title>
<g id="a_node11"><a xlink:href="odp_8h.html" target="_top" xlink:title="WARNING: THIS FILE IS DEPRECATED AND WILL BE REMOVED!!! ODP APPLICATIONS SHOULD NOW INCLUDE odp_api...">
<polygon fill="white" stroke="black" points="820.5,-0.5 820.5,-19.5 864.5,-19.5 864.5,-0.5 820.5,-0.5"/>
<text text-anchor="middle" x="842.5" y="-7.5" font-family="Helvetica,sans-Serif" font-size="10.00">odp.h</text>
</a>
</g>
</g>
<!-- Node19&#45;&gt;Node20 -->
<g id="edge10" class="edge"><title>Node19&#45;&gt;Node20</title>
<path fill="none" stroke="midnightblue" d="M842.5,-45.8045C842.5,-36.9102 842.5,-26.7798 842.5,-19.7511"/>
<polygon fill="midnightblue" stroke="midnightblue" points="839,-46.083 842.5,-56.083 846,-46.083 839,-46.083"/>
</g>
</g>
</svg>
