<?xml version="1.0" encoding="UTF-8" standalone="no"?>
<!DOCTYPE svg PUBLIC "-//W3C//DTD SVG 1.1//EN"
 "http://www.w3.org/Graphics/SVG/1.1/DTD/svg11.dtd">
<!-- Generated by graphviz version 2.38.0 (20140413.2041)
 -->
<!-- Title: debug.h Pages: 1 -->
<svg width="512pt" height="252pt"
 viewBox="0.00 0.00 511.50 252.00" xmlns="http://www.w3.org/2000/svg" xmlns:xlink="http://www.w3.org/1999/xlink">
<g id="graph0" class="graph" transform="scale(1 1) rotate(0) translate(4 248)">
<title>debug.h</title>
<polygon fill="white" stroke="none" points="-4,4 -4,-248 507.5,-248 507.5,4 -4,4"/>
<!-- Node1 -->
<g id="node1" class="node"><title>Node1</title>
<polygon fill="#bfbfbf" stroke="black" points="222,-224.5 222,-243.5 278,-243.5 278,-224.5 222,-224.5"/>
<text text-anchor="middle" x="250" y="-231.5" font-family="Helvetica,sans-Serif" font-size="10.00">debug.h</text>
</g>
<!-- Node2 -->
<g id="node2" class="node"><title>Node2</title>
<g id="a_node2"><a xlink:href="arch_2arm32-linux_2odp_2api_2abi_2debug_8h_source.html" target="_top" xlink:title="debug.h">
<polygon fill="white" stroke="black" points="-3.55271e-15,-168.5 -3.55271e-15,-187.5 56,-187.5 56,-168.5 -3.55271e-15,-168.5"/>
<text text-anchor="middle" x="28" y="-175.5" font-family="Helvetica,sans-Serif" font-size="10.00">debug.h</text>
</a>
</g>
</g>
<!-- Node1&#45;&gt;Node2 -->
<g id="edge1" class="edge"><title>Node1&#45;&gt;Node2</title>
<path fill="none" stroke="midnightblue" d="M212.087,-223.778C167.874,-213.023 95.813,-195.495 56.2379,-185.869"/>
<polygon fill="midnightblue" stroke="midnightblue" points="211.34,-227.198 221.884,-226.161 212.994,-220.396 211.34,-227.198"/>
</g>
<!-- Node3 -->
<g id="node3" class="node"><title>Node3</title>
<g id="a_node3"><a xlink:href="arch_2arm64-linux_2odp_2api_2abi_2debug_8h_source.html" target="_top" xlink:title="debug.h">
<polygon fill="white" stroke="black" points="74,-168.5 74,-187.5 130,-187.5 130,-168.5 74,-168.5"/>
<text text-anchor="middle" x="102" y="-175.5" font-family="Helvetica,sans-Serif" font-size="10.00">debug.h</text>
</a>
</g>
</g>
<!-- Node1&#45;&gt;Node3 -->
<g id="edge2" class="edge"><title>Node1&#45;&gt;Node3</title>
<path fill="none" stroke="midnightblue" d="M216.853,-220.906C189.028,-210.754 149.98,-196.506 125.341,-187.516"/>
<polygon fill="midnightblue" stroke="midnightblue" points="215.955,-224.304 226.549,-224.444 218.354,-217.728 215.955,-224.304"/>
</g>
<!-- Node4 -->
<g id="node4" class="node"><title>Node4</title>
<g id="a_node4"><a xlink:href="arch_2default-linux_2odp_2api_2abi_2debug_8h_source.html" target="_top" xlink:title="debug.h">
<polygon fill="white" stroke="black" points="148,-168.5 148,-187.5 204,-187.5 204,-168.5 148,-168.5"/>
<text text-anchor="middle" x="176" y="-175.5" font-family="Helvetica,sans-Serif" font-size="10.00">debug.h</text>
</a>
</g>
</g>
<!-- Node1&#45;&gt;Node4 -->
<g id="edge3" class="edge"><title>Node1&#45;&gt;Node4</title>
<path fill="none" stroke="midnightblue" d="M229.966,-218.38C216.591,-208.62 199.441,-196.106 188.106,-187.834"/>
<polygon fill="midnightblue" stroke="midnightblue" points="227.97,-221.257 238.111,-224.324 232.096,-215.602 227.97,-221.257"/>
</g>
<!-- Node5 -->
<g id="node5" class="node"><title>Node5</title>
<g id="a_node5"><a xlink:href="arch_2mips64-linux_2odp_2api_2abi_2debug_8h_source.html" target="_top" xlink:title="debug.h">
<polygon fill="white" stroke="black" points="222,-168.5 222,-187.5 278,-187.5 278,-168.5 222,-168.5"/>
<text text-anchor="middle" x="250" y="-175.5" font-family="Helvetica,sans-Serif" font-size="10.00">debug.h</text>
</a>
</g>
</g>
<!-- Node1&#45;&gt;Node5 -->
<g id="edge4" class="edge"><title>Node1&#45;&gt;Node5</title>
<path fill="none" stroke="midnightblue" d="M250,-213.805C250,-204.91 250,-194.78 250,-187.751"/>
<polygon fill="midnightblue" stroke="midnightblue" points="246.5,-214.083 250,-224.083 253.5,-214.083 246.5,-214.083"/>
</g>
<!-- Node6 -->
<g id="node6" class="node"><title>Node6</title>
<g id="a_node6"><a xlink:href="arch_2power64-linux_2odp_2api_2abi_2debug_8h_source.html" target="_top" xlink:title="debug.h">
<polygon fill="white" stroke="black" points="296,-168.5 296,-187.5 352,-187.5 352,-168.5 296,-168.5"/>
<text text-anchor="middle" x="324" y="-175.5" font-family="Helvetica,sans-Serif" font-size="10.00">debug.h</text>
</a>
</g>
</g>
<!-- Node1&#45;&gt;Node6 -->
<g id="edge5" class="edge"><title>Node1&#45;&gt;Node6</title>
<path fill="none" stroke="midnightblue" d="M270.034,-218.38C283.409,-208.62 300.559,-196.106 311.894,-187.834"/>
<polygon fill="midnightblue" stroke="midnightblue" points="267.904,-215.602 261.889,-224.324 272.03,-221.257 267.904,-215.602"/>
</g>
<!-- Node7 -->
<g id="node7" class="node"><title>Node7</title>
<g id="a_node7"><a xlink:href="arch_2x86__32-linux_2odp_2api_2abi_2debug_8h_source.html" target="_top" xlink:title="debug.h">
<polygon fill="white" stroke="black" points="370,-168.5 370,-187.5 426,-187.5 426,-168.5 370,-168.5"/>
<text text-anchor="middle" x="398" y="-175.5" font-family="Helvetica,sans-Serif" font-size="10.00">debug.h</text>
</a>
</g>
</g>
<!-- Node1&#45;&gt;Node7 -->
<g id="edge6" class="edge"><title>Node1&#45;&gt;Node7</title>
<path fill="none" stroke="midnightblue" d="M283.147,-220.906C310.972,-210.754 350.02,-196.506 374.659,-187.516"/>
<polygon fill="midnightblue" stroke="midnightblue" points="281.646,-217.728 273.451,-224.444 284.045,-224.304 281.646,-217.728"/>
</g>
<!-- Node8 -->
<g id="node8" class="node"><title>Node8</title>
<g id="a_node8"><a xlink:href="arch_2x86__64-linux_2odp_2api_2abi_2debug_8h_source.html" target="_top" xlink:title="debug.h">
<polygon fill="white" stroke="black" points="444,-168.5 444,-187.5 500,-187.5 500,-168.5 444,-168.5"/>
<text text-anchor="middle" x="472" y="-175.5" font-family="Helvetica,sans-Serif" font-size="10.00">debug.h</text>
</a>
</g>
</g>
<!-- Node1&#45;&gt;Node8 -->
<g id="edge7" class="edge"><title>Node1&#45;&gt;Node8</title>
<path fill="none" stroke="midnightblue" d="M287.913,-223.778C332.126,-213.023 404.187,-195.495 443.762,-185.869"/>
<polygon fill="midnightblue" stroke="midnightblue" points="287.006,-220.396 278.116,-226.161 288.66,-227.198 287.006,-220.396"/>
</g>
<!-- Node9 -->
<g id="node9" class="node"><title>Node9</title>
<g id="a_node9"><a xlink:href="api_2debug_8h.html" target="_top" xlink:title="ODP debug. ">
<polygon fill="white" stroke="black" points="444,-112.5 444,-131.5 500,-131.5 500,-112.5 444,-112.5"/>
<text text-anchor="middle" x="472" y="-119.5" font-family="Helvetica,sans-Serif" font-size="10.00">debug.h</text>
</a>
</g>
</g>
<!-- Node8&#45;&gt;Node9 -->
<g id="edge8" class="edge"><title>Node8&#45;&gt;Node9</title>
<path fill="none" stroke="midnightblue" d="M472,-157.805C472,-148.91 472,-138.78 472,-131.751"/>
<polygon fill="midnightblue" stroke="midnightblue" points="468.5,-158.083 472,-168.083 475.5,-158.083 468.5,-158.083"/>
</g>
<!-- Node10 -->
<g id="node10" class="node"><title>Node10</title>
<g id="a_node10"><a xlink:href="odp__api_8h.html" target="_top" xlink:title="The OpenDataPlane API. ">
<polygon fill="white" stroke="black" points="440.5,-56.5 440.5,-75.5 503.5,-75.5 503.5,-56.5 440.5,-56.5"/>
<text text-anchor="middle" x="472" y="-63.5" font-family="Helvetica,sans-Serif" font-size="10.00">odp_api.h</text>
</a>
</g>
</g>
<!-- Node9&#45;&gt;Node10 -->
<g id="edge9" class="edge"><title>Node9&#45;&gt;Node10</title>
<path fill="none" stroke="midnightblue" d="M472,-101.805C472,-92.9102 472,-82.7798 472,-75.7511"/>
<polygon fill="midnightblue" stroke="midnightblue" points="468.5,-102.083 472,-112.083 475.5,-102.083 468.5,-102.083"/>
</g>
<!-- Node11 -->
<g id="node11" class="node"><title>Node11</title>
<g id="a_node11"><a xlink:href="odp_8h.html" target="_top" xlink:title="WARNING: THIS FILE IS DEPRECATED AND WILL BE REMOVED!!! ODP APPLICATIONS SHOULD NOW INCLUDE odp_api...">
<polygon fill="white" stroke="black" points="450,-0.5 450,-19.5 494,-19.5 494,-0.5 450,-0.5"/>
<text text-anchor="middle" x="472" y="-7.5" font-family="Helvetica,sans-Serif" font-size="10.00">odp.h</text>
</a>
</g>
</g>
<!-- Node10&#45;&gt;Node11 -->
<g id="edge10" class="edge"><title>Node10&#45;&gt;Node11</title>
<path fill="none" stroke="midnightblue" d="M472,-45.8045C472,-36.9102 472,-26.7798 472,-19.7511"/>
<polygon fill="midnightblue" stroke="midnightblue" points="468.5,-46.083 472,-56.083 475.5,-46.083 468.5,-46.083"/>
</g>
</g>
</svg>
