<?xml version="1.0" encoding="UTF-8" standalone="no"?>
<!DOCTYPE svg PUBLIC "-//W3C//DTD SVG 1.1//EN"
 "http://www.w3.org/Graphics/SVG/1.1/DTD/svg11.dtd">
<!-- Generated by graphviz version 2.38.0 (20140413.2041)
 -->
<!-- Title: cpumask.h Pages: 1 -->
<svg width="769pt" height="420pt"
 viewBox="0.00 0.00 769.00 420.00" xmlns="http://www.w3.org/2000/svg" xmlns:xlink="http://www.w3.org/1999/xlink">
<g id="graph0" class="graph" transform="scale(1 1) rotate(0) translate(4 416)">
<title>cpumask.h</title>
<polygon fill="white" stroke="none" points="-4,4 -4,-416 765,-416 765,4 -4,4"/>
<!-- Node5 -->
<g id="node1" class="node"><title>Node5</title>
<polygon fill="#bfbfbf" stroke="black" points="557,-392.5 557,-411.5 626,-411.5 626,-392.5 557,-392.5"/>
<text text-anchor="middle" x="591.5" y="-399.5" font-family="Helvetica,sans-Serif" font-size="10.00">cpumask.h</text>
</g>
<!-- Node6 -->
<g id="node2" class="node"><title>Node6</title>
<g id="a_node2"><a xlink:href="api_2abi-default_2thrmask_8h.html" target="_top" xlink:title="ODP thread masks. ">
<polygon fill="white" stroke="black" points="291,-336.5 291,-355.5 356,-355.5 356,-336.5 291,-336.5"/>
<text text-anchor="middle" x="323.5" y="-343.5" font-family="Helvetica,sans-Serif" font-size="10.00">thrmask.h</text>
</a>
</g>
</g>
<!-- Node5&#45;&gt;Node6 -->
<g id="edge1" class="edge"><title>Node5&#45;&gt;Node6</title>
<path fill="none" stroke="midnightblue" d="M546.791,-391.991C492.961,-381.145 403.852,-363.19 356.102,-353.569"/>
<polygon fill="midnightblue" stroke="midnightblue" points="546.244,-395.452 556.738,-393.996 547.627,-388.589 546.244,-395.452"/>
</g>
<!-- Node17 -->
<g id="node13" class="node"><title>Node17</title>
<g id="a_node13"><a xlink:href="odp__api_8h.html" target="_top" xlink:title="The OpenDataPlane API. ">
<polygon fill="white" stroke="black" points="560,-56.5 560,-75.5 623,-75.5 623,-56.5 560,-56.5"/>
<text text-anchor="middle" x="591.5" y="-63.5" font-family="Helvetica,sans-Serif" font-size="10.00">odp_api.h</text>
</a>
</g>
</g>
<!-- Node5&#45;&gt;Node17 -->
<g id="edge21" class="edge"><title>Node5&#45;&gt;Node17</title>
<path fill="none" stroke="midnightblue" d="M591.5,-382.251C591.5,-360.357 591.5,-323.052 591.5,-291 591.5,-291 591.5,-291 591.5,-177 591.5,-139.188 591.5,-94.0636 591.5,-75.5578"/>
<polygon fill="midnightblue" stroke="midnightblue" points="588,-382.442 591.5,-392.442 595,-382.442 588,-382.442"/>
</g>
<!-- Node19 -->
<g id="node15" class="node"><title>Node19</title>
<g id="a_node15"><a xlink:href="api_2spec_2init_8h.html" target="_top" xlink:title="init.h">
<polygon fill="white" stroke="black" points="619.5,-336.5 619.5,-355.5 659.5,-355.5 659.5,-336.5 619.5,-336.5"/>
<text text-anchor="middle" x="639.5" y="-343.5" font-family="Helvetica,sans-Serif" font-size="10.00">init.h</text>
</a>
</g>
</g>
<!-- Node5&#45;&gt;Node19 -->
<g id="edge15" class="edge"><title>Node5&#45;&gt;Node19</title>
<path fill="none" stroke="midnightblue" d="M606.228,-384.431C614.64,-374.967 624.849,-363.483 631.721,-355.751"/>
<polygon fill="midnightblue" stroke="midnightblue" points="603.454,-382.284 599.426,-392.083 608.686,-386.934 603.454,-382.284"/>
</g>
<!-- Node7 -->
<g id="node3" class="node"><title>Node7</title>
<g id="a_node3"><a xlink:href="arch_2arm32-linux_2odp_2api_2abi_2thrmask_8h_source.html" target="_top" xlink:title="thrmask.h">
<polygon fill="white" stroke="black" points="0,-280.5 0,-299.5 65,-299.5 65,-280.5 0,-280.5"/>
<text text-anchor="middle" x="32.5" y="-287.5" font-family="Helvetica,sans-Serif" font-size="10.00">thrmask.h</text>
</a>
</g>
</g>
<!-- Node6&#45;&gt;Node7 -->
<g id="edge2" class="edge"><title>Node6&#45;&gt;Node7</title>
<path fill="none" stroke="midnightblue" d="M280.567,-337.783C230.691,-329.28 145.973,-314.471 73.5,-300 70.7843,-299.458 67.9715,-298.878 65.1502,-298.284"/>
<polygon fill="midnightblue" stroke="midnightblue" points="280.22,-341.274 290.665,-339.499 281.393,-334.373 280.22,-341.274"/>
</g>
<!-- Node8 -->
<g id="node4" class="node"><title>Node8</title>
<g id="a_node4"><a xlink:href="arch_2arm64-linux_2odp_2api_2abi_2thrmask_8h_source.html" target="_top" xlink:title="thrmask.h">
<polygon fill="white" stroke="black" points="83,-280.5 83,-299.5 148,-299.5 148,-280.5 83,-280.5"/>
<text text-anchor="middle" x="115.5" y="-287.5" font-family="Helvetica,sans-Serif" font-size="10.00">thrmask.h</text>
</a>
</g>
</g>
<!-- Node6&#45;&gt;Node8 -->
<g id="edge3" class="edge"><title>Node6&#45;&gt;Node8</title>
<path fill="none" stroke="midnightblue" d="M280.722,-333.894C241.442,-323.697 184.071,-308.802 148.304,-299.516"/>
<polygon fill="midnightblue" stroke="midnightblue" points="279.983,-337.318 290.542,-336.444 281.742,-330.543 279.983,-337.318"/>
</g>
<!-- Node9 -->
<g id="node5" class="node"><title>Node9</title>
<g id="a_node5"><a xlink:href="arch_2default-linux_2odp_2api_2abi_2thrmask_8h_source.html" target="_top" xlink:title="thrmask.h">
<polygon fill="white" stroke="black" points="166,-280.5 166,-299.5 231,-299.5 231,-280.5 166,-280.5"/>
<text text-anchor="middle" x="198.5" y="-287.5" font-family="Helvetica,sans-Serif" font-size="10.00">thrmask.h</text>
</a>
</g>
</g>
<!-- Node6&#45;&gt;Node9 -->
<g id="edge4" class="edge"><title>Node6&#45;&gt;Node9</title>
<path fill="none" stroke="midnightblue" d="M294.259,-332.368C270.85,-322.255 238.659,-308.349 218.214,-299.516"/>
<polygon fill="midnightblue" stroke="midnightblue" points="293.125,-335.691 303.693,-336.444 295.901,-329.265 293.125,-335.691"/>
</g>
<!-- Node10 -->
<g id="node6" class="node"><title>Node10</title>
<g id="a_node6"><a xlink:href="arch_2mips64-linux_2odp_2api_2abi_2thrmask_8h_source.html" target="_top" xlink:title="thrmask.h">
<polygon fill="white" stroke="black" points="249,-280.5 249,-299.5 314,-299.5 314,-280.5 249,-280.5"/>
<text text-anchor="middle" x="281.5" y="-287.5" font-family="Helvetica,sans-Serif" font-size="10.00">thrmask.h</text>
</a>
</g>
</g>
<!-- Node6&#45;&gt;Node10 -->
<g id="edge5" class="edge"><title>Node6&#45;&gt;Node10</title>
<path fill="none" stroke="midnightblue" d="M310.39,-328.144C303.072,-318.736 294.259,-307.405 288.306,-299.751"/>
<polygon fill="midnightblue" stroke="midnightblue" points="307.662,-330.338 316.565,-336.083 313.188,-326.041 307.662,-330.338"/>
</g>
<!-- Node11 -->
<g id="node7" class="node"><title>Node11</title>
<g id="a_node7"><a xlink:href="arch_2power64-linux_2odp_2api_2abi_2thrmask_8h_source.html" target="_top" xlink:title="thrmask.h">
<polygon fill="white" stroke="black" points="332,-280.5 332,-299.5 397,-299.5 397,-280.5 332,-280.5"/>
<text text-anchor="middle" x="364.5" y="-287.5" font-family="Helvetica,sans-Serif" font-size="10.00">thrmask.h</text>
</a>
</g>
</g>
<!-- Node6&#45;&gt;Node11 -->
<g id="edge6" class="edge"><title>Node6&#45;&gt;Node11</title>
<path fill="none" stroke="midnightblue" d="M336.517,-327.855C343.617,-318.505 352.104,-307.327 357.856,-299.751"/>
<polygon fill="midnightblue" stroke="midnightblue" points="333.53,-326.002 330.27,-336.083 339.105,-330.235 333.53,-326.002"/>
</g>
<!-- Node12 -->
<g id="node8" class="node"><title>Node12</title>
<g id="a_node8"><a xlink:href="arch_2x86__32-linux_2odp_2api_2abi_2thrmask_8h_source.html" target="_top" xlink:title="thrmask.h">
<polygon fill="white" stroke="black" points="415,-280.5 415,-299.5 480,-299.5 480,-280.5 415,-280.5"/>
<text text-anchor="middle" x="447.5" y="-287.5" font-family="Helvetica,sans-Serif" font-size="10.00">thrmask.h</text>
</a>
</g>
</g>
<!-- Node6&#45;&gt;Node12 -->
<g id="edge7" class="edge"><title>Node6&#45;&gt;Node12</title>
<path fill="none" stroke="midnightblue" d="M352.507,-332.368C375.729,-322.255 407.663,-308.349 427.944,-299.516"/>
<polygon fill="midnightblue" stroke="midnightblue" points="350.919,-329.242 343.148,-336.444 353.714,-335.66 350.919,-329.242"/>
</g>
<!-- Node13 -->
<g id="node9" class="node"><title>Node13</title>
<g id="a_node9"><a xlink:href="arch_2x86__64-linux_2odp_2api_2abi_2thrmask_8h_source.html" target="_top" xlink:title="thrmask.h">
<polygon fill="white" stroke="black" points="498,-280.5 498,-299.5 563,-299.5 563,-280.5 498,-280.5"/>
<text text-anchor="middle" x="530.5" y="-287.5" font-family="Helvetica,sans-Serif" font-size="10.00">thrmask.h</text>
</a>
</g>
</g>
<!-- Node6&#45;&gt;Node13 -->
<g id="edge8" class="edge"><title>Node6&#45;&gt;Node13</title>
<path fill="none" stroke="midnightblue" d="M366.322,-333.829C405.406,-323.633 462.335,-308.782 497.854,-299.516"/>
<polygon fill="midnightblue" stroke="midnightblue" points="365.092,-330.533 356.3,-336.444 366.859,-337.306 365.092,-330.533"/>
</g>
<!-- Node14 -->
<g id="node10" class="node"><title>Node14</title>
<g id="a_node10"><a xlink:href="api_2thrmask_8h.html" target="_top" xlink:title="ODP thread masks. ">
<polygon fill="white" stroke="black" points="498,-224.5 498,-243.5 563,-243.5 563,-224.5 498,-224.5"/>
<text text-anchor="middle" x="530.5" y="-231.5" font-family="Helvetica,sans-Serif" font-size="10.00">thrmask.h</text>
</a>
</g>
</g>
<!-- Node13&#45;&gt;Node14 -->
<g id="edge9" class="edge"><title>Node13&#45;&gt;Node14</title>
<path fill="none" stroke="midnightblue" d="M530.5,-269.805C530.5,-260.91 530.5,-250.78 530.5,-243.751"/>
<polygon fill="midnightblue" stroke="midnightblue" points="527,-270.083 530.5,-280.083 534,-270.083 527,-270.083"/>
</g>
<!-- Node15 -->
<g id="node11" class="node"><title>Node15</title>
<g id="a_node11"><a xlink:href="api_2spec_2schedule_8h.html" target="_top" xlink:title="ODP schedule. ">
<polygon fill="white" stroke="black" points="457.5,-168.5 457.5,-187.5 525.5,-187.5 525.5,-168.5 457.5,-168.5"/>
<text text-anchor="middle" x="491.5" y="-175.5" font-family="Helvetica,sans-Serif" font-size="10.00">schedule.h</text>
</a>
</g>
</g>
<!-- Node14&#45;&gt;Node15 -->
<g id="edge10" class="edge"><title>Node14&#45;&gt;Node15</title>
<path fill="none" stroke="midnightblue" d="M518.118,-215.855C511.365,-206.505 503.291,-195.327 497.82,-187.751"/>
<polygon fill="midnightblue" stroke="midnightblue" points="515.368,-218.025 524.06,-224.083 521.042,-213.927 515.368,-218.025"/>
</g>
<!-- Node14&#45;&gt;Node17 -->
<g id="edge14" class="edge"><title>Node14&#45;&gt;Node17</title>
<path fill="none" stroke="midnightblue" d="M537.337,-214.395C550.496,-178.585 578.88,-101.342 588.351,-75.5681"/>
<polygon fill="midnightblue" stroke="midnightblue" points="533.944,-213.482 533.78,-224.075 540.514,-215.896 533.944,-213.482"/>
</g>
<!-- Node16 -->
<g id="node12" class="node"><title>Node16</title>
<g id="a_node12"><a xlink:href="api_2schedule_8h.html" target="_top" xlink:title="ODP schedule. ">
<polygon fill="white" stroke="black" points="457.5,-112.5 457.5,-131.5 525.5,-131.5 525.5,-112.5 457.5,-112.5"/>
<text text-anchor="middle" x="491.5" y="-119.5" font-family="Helvetica,sans-Serif" font-size="10.00">schedule.h</text>
</a>
</g>
</g>
<!-- Node15&#45;&gt;Node16 -->
<g id="edge11" class="edge"><title>Node15&#45;&gt;Node16</title>
<path fill="none" stroke="midnightblue" d="M491.5,-157.805C491.5,-148.91 491.5,-138.78 491.5,-131.751"/>
<polygon fill="midnightblue" stroke="midnightblue" points="488,-158.083 491.5,-168.083 495,-158.083 488,-158.083"/>
</g>
<!-- Node16&#45;&gt;Node17 -->
<g id="edge12" class="edge"><title>Node16&#45;&gt;Node17</title>
<path fill="none" stroke="midnightblue" d="M516.588,-107.453C535.049,-97.4835 559.597,-84.2279 575.473,-75.6545"/>
<polygon fill="midnightblue" stroke="midnightblue" points="514.703,-104.493 507.567,-112.324 518.029,-110.652 514.703,-104.493"/>
</g>
<!-- Node18 -->
<g id="node14" class="node"><title>Node18</title>
<g id="a_node14"><a xlink:href="odp_8h.html" target="_top" xlink:title="WARNING: THIS FILE IS DEPRECATED AND WILL BE REMOVED!!! ODP APPLICATIONS SHOULD NOW INCLUDE odp_api...">
<polygon fill="white" stroke="black" points="569.5,-0.5 569.5,-19.5 613.5,-19.5 613.5,-0.5 569.5,-0.5"/>
<text text-anchor="middle" x="591.5" y="-7.5" font-family="Helvetica,sans-Serif" font-size="10.00">odp.h</text>
</a>
</g>
</g>
<!-- Node17&#45;&gt;Node18 -->
<g id="edge13" class="edge"><title>Node17&#45;&gt;Node18</title>
<path fill="none" stroke="midnightblue" d="M591.5,-45.8045C591.5,-36.9102 591.5,-26.7798 591.5,-19.7511"/>
<polygon fill="midnightblue" stroke="midnightblue" points="588,-46.083 591.5,-56.083 595,-46.083 588,-46.083"/>
</g>
<!-- Node20 -->
<g id="node16" class="node"><title>Node20</title>
<g id="a_node16"><a xlink:href="api_2init_8h.html" target="_top" xlink:title="ODP initialization. ">
<polygon fill="white" stroke="black" points="619.5,-224.5 619.5,-243.5 659.5,-243.5 659.5,-224.5 619.5,-224.5"/>
<text text-anchor="middle" x="639.5" y="-231.5" font-family="Helvetica,sans-Serif" font-size="10.00">init.h</text>
</a>
</g>
</g>
<!-- Node19&#45;&gt;Node20 -->
<g id="edge16" class="edge"><title>Node19&#45;&gt;Node20</title>
<path fill="none" stroke="midnightblue" d="M639.5,-326.348C639.5,-302.254 639.5,-261.308 639.5,-243.591"/>
<polygon fill="midnightblue" stroke="midnightblue" points="636,-326.368 639.5,-336.368 643,-326.369 636,-326.368"/>
</g>
<!-- Node20&#45;&gt;Node17 -->
<g id="edge20" class="edge"><title>Node20&#45;&gt;Node17</title>
<path fill="none" stroke="midnightblue" d="M634.533,-214.718C628.045,-190.985 616.246,-148.306 605.5,-112 601.738,-99.2904 597.131,-84.6461 594.255,-75.6052"/>
<polygon fill="midnightblue" stroke="midnightblue" points="631.183,-215.74 637.19,-224.468 637.937,-213.9 631.183,-215.74"/>
</g>
<!-- Node21 -->
<g id="node17" class="node"><title>Node21</title>
<g id="a_node17"><a xlink:href="api_2spec_2shared__memory_8h.html" target="_top" xlink:title="ODP shared memory. ">
<polygon fill="white" stroke="black" points="658,-168.5 658,-187.5 761,-187.5 761,-168.5 658,-168.5"/>
<text text-anchor="middle" x="709.5" y="-175.5" font-family="Helvetica,sans-Serif" font-size="10.00">shared_memory.h</text>
</a>
</g>
</g>
<!-- Node20&#45;&gt;Node21 -->
<g id="edge17" class="edge"><title>Node20&#45;&gt;Node21</title>
<path fill="none" stroke="midnightblue" d="M658.814,-218.101C671.412,-208.382 687.428,-196.027 698.049,-187.834"/>
<polygon fill="midnightblue" stroke="midnightblue" points="656.527,-215.445 650.747,-224.324 660.802,-220.987 656.527,-215.445"/>
</g>
<!-- Node22 -->
<g id="node18" class="node"><title>Node22</title>
<g id="a_node18"><a xlink:href="api_2shared__memory_8h.html" target="_top" xlink:title="ODP shared memory. ">
<polygon fill="white" stroke="black" points="658,-112.5 658,-131.5 761,-131.5 761,-112.5 658,-112.5"/>
<text text-anchor="middle" x="709.5" y="-119.5" font-family="Helvetica,sans-Serif" font-size="10.00">shared_memory.h</text>
</a>
</g>
</g>
<!-- Node21&#45;&gt;Node22 -->
<g id="edge18" class="edge"><title>Node21&#45;&gt;Node22</title>
<path fill="none" stroke="midnightblue" d="M709.5,-157.805C709.5,-148.91 709.5,-138.78 709.5,-131.751"/>
<polygon fill="midnightblue" stroke="midnightblue" points="706,-158.083 709.5,-168.083 713,-158.083 706,-158.083"/>
</g>
<!-- Node22&#45;&gt;Node17 -->
<g id="edge19" class="edge"><title>Node22&#45;&gt;Node17</title>
<path fill="none" stroke="midnightblue" d="M681.6,-108.232C659.527,-98.1312 629.324,-84.3091 610.11,-75.5164"/>
<polygon fill="midnightblue" stroke="midnightblue" points="680.253,-111.465 690.803,-112.444 683.166,-105.1 680.253,-111.465"/>
</g>
</g>
</svg>
