<?xml version="1.0" encoding="UTF-8" standalone="no"?>
<!DOCTYPE svg PUBLIC "-//W3C//DTD SVG 1.1//EN"
 "http://www.w3.org/Graphics/SVG/1.1/DTD/svg11.dtd">
<!-- Generated by graphviz version 2.38.0 (20140413.2041)
 -->
<!-- Title: packet_io.h Pages: 1 -->
<svg width="272pt" height="420pt"
 viewBox="0.00 0.00 271.50 420.00" xmlns="http://www.w3.org/2000/svg" xmlns:xlink="http://www.w3.org/1999/xlink">
<g id="graph0" class="graph" transform="scale(1 1) rotate(0) translate(4 416)">
<title>packet_io.h</title>
<polygon fill="white" stroke="none" points="-4,4 -4,-416 267.5,-416 267.5,4 -4,4"/>
<!-- Node32 -->
<g id="node1" class="node"><title>Node32</title>
<polygon fill="#bfbfbf" stroke="black" points="97.5,-392.5 97.5,-411.5 168.5,-411.5 168.5,-392.5 97.5,-392.5"/>
<text text-anchor="middle" x="133" y="-399.5" font-family="Helvetica,sans-Serif" font-size="10.00">packet_io.h</text>
</g>
<!-- Node33 -->
<g id="node2" class="node"><title>Node33</title>
<g id="a_node2"><a xlink:href="api_2packet__io_8h.html" target="_top" xlink:title="ODP Packet IO. ">
<polygon fill="white" stroke="black" points="97.5,-336.5 97.5,-355.5 168.5,-355.5 168.5,-336.5 97.5,-336.5"/>
<text text-anchor="middle" x="133" y="-343.5" font-family="Helvetica,sans-Serif" font-size="10.00">packet_io.h</text>
</a>
</g>
</g>
<!-- Node32&#45;&gt;Node33 -->
<g id="edge1" class="edge"><title>Node32&#45;&gt;Node33</title>
<path fill="none" stroke="midnightblue" d="M133,-381.805C133,-372.91 133,-362.78 133,-355.751"/>
<polygon fill="midnightblue" stroke="midnightblue" points="129.5,-382.083 133,-392.083 136.5,-382.083 129.5,-382.083"/>
</g>
<!-- Node34 -->
<g id="node3" class="node"><title>Node34</title>
<g id="a_node3"><a xlink:href="api_2spec_2classification_8h.html" target="_top" xlink:title="ODP classification descriptor. ">
<polygon fill="white" stroke="black" points="0,-280.5 0,-299.5 86,-299.5 86,-280.5 0,-280.5"/>
<text text-anchor="middle" x="43" y="-287.5" font-family="Helvetica,sans-Serif" font-size="10.00">classification.h</text>
</a>
</g>
</g>
<!-- Node33&#45;&gt;Node34 -->
<g id="edge2" class="edge"><title>Node33&#45;&gt;Node34</title>
<path fill="none" stroke="midnightblue" d="M109.962,-331.177C93.4011,-321.241 71.582,-308.149 57.4242,-299.655"/>
<polygon fill="midnightblue" stroke="midnightblue" points="108.164,-334.18 118.54,-336.324 111.766,-328.178 108.164,-334.18"/>
</g>
<!-- Node36 -->
<g id="node5" class="node"><title>Node36</title>
<g id="a_node5"><a xlink:href="api_2spec_2ipsec_8h.html" target="_top" xlink:title="ODP IPSEC API. ">
<polygon fill="white" stroke="black" points="74,-168.5 74,-187.5 124,-187.5 124,-168.5 74,-168.5"/>
<text text-anchor="middle" x="99" y="-175.5" font-family="Helvetica,sans-Serif" font-size="10.00">ipsec.h</text>
</a>
</g>
</g>
<!-- Node33&#45;&gt;Node36 -->
<g id="edge9" class="edge"><title>Node33&#45;&gt;Node36</title>
<path fill="none" stroke="midnightblue" d="M129.094,-325.93C121.719,-289.92 106.011,-213.231 100.755,-187.568"/>
<polygon fill="midnightblue" stroke="midnightblue" points="125.737,-326.981 131.172,-336.075 132.594,-325.576 125.737,-326.981"/>
</g>
<!-- Node38 -->
<g id="node7" class="node"><title>Node38</title>
<g id="a_node7"><a xlink:href="odp__api_8h.html" target="_top" xlink:title="The OpenDataPlane API. ">
<polygon fill="white" stroke="black" points="93.5,-56.5 93.5,-75.5 156.5,-75.5 156.5,-56.5 93.5,-56.5"/>
<text text-anchor="middle" x="125" y="-63.5" font-family="Helvetica,sans-Serif" font-size="10.00">odp_api.h</text>
</a>
</g>
</g>
<!-- Node33&#45;&gt;Node38 -->
<g id="edge13" class="edge"><title>Node33&#45;&gt;Node38</title>
<path fill="none" stroke="midnightblue" d="M138.216,-326.39C143.841,-304.65 152,-267.511 152,-235 152,-235 152,-235 152,-177 152,-138.262 136.011,-94.0045 128.641,-75.6622"/>
<polygon fill="midnightblue" stroke="midnightblue" points="134.782,-325.683 135.562,-336.249 141.541,-327.502 134.782,-325.683"/>
</g>
<!-- Node40 -->
<g id="node9" class="node"><title>Node40</title>
<g id="a_node9"><a xlink:href="api_2spec_2traffic__mngr_8h.html" target="_top" xlink:title="Copyright (c) 2015&#45;2018, Linaro Limited All rights reserved. ">
<polygon fill="white" stroke="black" points="180.5,-224.5 180.5,-243.5 263.5,-243.5 263.5,-224.5 180.5,-224.5"/>
<text text-anchor="middle" x="222" y="-231.5" font-family="Helvetica,sans-Serif" font-size="10.00">traffic_mngr.h</text>
</a>
</g>
</g>
<!-- Node33&#45;&gt;Node40 -->
<g id="edge10" class="edge"><title>Node33&#45;&gt;Node40</title>
<path fill="none" stroke="midnightblue" d="M146.281,-328.586C165.468,-304.871 200.26,-261.869 215.049,-243.591"/>
<polygon fill="midnightblue" stroke="midnightblue" points="143.553,-326.393 139.984,-336.368 148.995,-330.796 143.553,-326.393"/>
</g>
<!-- Node35 -->
<g id="node4" class="node"><title>Node35</title>
<g id="a_node4"><a xlink:href="api_2classification_8h.html" target="_top" xlink:title="ODP classification descriptor. ">
<polygon fill="white" stroke="black" points="0,-224.5 0,-243.5 86,-243.5 86,-224.5 0,-224.5"/>
<text text-anchor="middle" x="43" y="-231.5" font-family="Helvetica,sans-Serif" font-size="10.00">classification.h</text>
</a>
</g>
</g>
<!-- Node34&#45;&gt;Node35 -->
<g id="edge3" class="edge"><title>Node34&#45;&gt;Node35</title>
<path fill="none" stroke="midnightblue" d="M43,-269.805C43,-260.91 43,-250.78 43,-243.751"/>
<polygon fill="midnightblue" stroke="midnightblue" points="39.5001,-270.083 43,-280.083 46.5001,-270.083 39.5001,-270.083"/>
</g>
<!-- Node35&#45;&gt;Node36 -->
<g id="edge4" class="edge"><title>Node35&#45;&gt;Node36</title>
<path fill="none" stroke="midnightblue" d="M59.3299,-217.253C69.265,-207.673 81.5875,-195.791 89.8389,-187.834"/>
<polygon fill="midnightblue" stroke="midnightblue" points="56.7664,-214.863 51.9974,-224.324 61.6253,-219.902 56.7664,-214.863"/>
</g>
<!-- Node35&#45;&gt;Node38 -->
<g id="edge8" class="edge"><title>Node35&#45;&gt;Node38</title>
<path fill="none" stroke="midnightblue" d="M42.3147,-214.318C42.2527,-189.19 45.2395,-143.973 65,-112 75.1313,-95.6073 93.602,-83.1283 107.383,-75.5168"/>
<polygon fill="midnightblue" stroke="midnightblue" points="38.8155,-214.399 42.5084,-224.33 45.8142,-214.264 38.8155,-214.399"/>
</g>
<!-- Node37 -->
<g id="node6" class="node"><title>Node37</title>
<g id="a_node6"><a xlink:href="api_2ipsec_8h.html" target="_top" xlink:title="ODP IPSEC API &#45; platform specific header. ">
<polygon fill="white" stroke="black" points="74,-112.5 74,-131.5 124,-131.5 124,-112.5 74,-112.5"/>
<text text-anchor="middle" x="99" y="-119.5" font-family="Helvetica,sans-Serif" font-size="10.00">ipsec.h</text>
</a>
</g>
</g>
<!-- Node36&#45;&gt;Node37 -->
<g id="edge5" class="edge"><title>Node36&#45;&gt;Node37</title>
<path fill="none" stroke="midnightblue" d="M99,-157.805C99,-148.91 99,-138.78 99,-131.751"/>
<polygon fill="midnightblue" stroke="midnightblue" points="95.5001,-158.083 99,-168.083 102.5,-158.083 95.5001,-158.083"/>
</g>
<!-- Node37&#45;&gt;Node38 -->
<g id="edge6" class="edge"><title>Node37&#45;&gt;Node38</title>
<path fill="none" stroke="midnightblue" d="M107.675,-102.983C112.088,-93.8168 117.252,-83.0922 120.787,-75.7511"/>
<polygon fill="midnightblue" stroke="midnightblue" points="104.478,-101.555 103.293,-112.083 110.785,-104.591 104.478,-101.555"/>
</g>
<!-- Node39 -->
<g id="node8" class="node"><title>Node39</title>
<g id="a_node8"><a xlink:href="odp_8h.html" target="_top" xlink:title="WARNING: THIS FILE IS DEPRECATED AND WILL BE REMOVED!!! ODP APPLICATIONS SHOULD NOW INCLUDE odp_api...">
<polygon fill="white" stroke="black" points="103,-0.5 103,-19.5 147,-19.5 147,-0.5 103,-0.5"/>
<text text-anchor="middle" x="125" y="-7.5" font-family="Helvetica,sans-Serif" font-size="10.00">odp.h</text>
</a>
</g>
</g>
<!-- Node38&#45;&gt;Node39 -->
<g id="edge7" class="edge"><title>Node38&#45;&gt;Node39</title>
<path fill="none" stroke="midnightblue" d="M125,-45.8045C125,-36.9102 125,-26.7798 125,-19.7511"/>
<polygon fill="midnightblue" stroke="midnightblue" points="121.5,-46.083 125,-56.083 128.5,-46.083 121.5,-46.083"/>
</g>
<!-- Node41 -->
<g id="node10" class="node"><title>Node41</title>
<g id="a_node10"><a xlink:href="api_2traffic__mngr_8h.html" target="_top" xlink:title="ODP Traffic manager. ">
<polygon fill="white" stroke="black" points="180.5,-168.5 180.5,-187.5 263.5,-187.5 263.5,-168.5 180.5,-168.5"/>
<text text-anchor="middle" x="222" y="-175.5" font-family="Helvetica,sans-Serif" font-size="10.00">traffic_mngr.h</text>
</a>
</g>
</g>
<!-- Node40&#45;&gt;Node41 -->
<g id="edge11" class="edge"><title>Node40&#45;&gt;Node41</title>
<path fill="none" stroke="midnightblue" d="M222,-213.805C222,-204.91 222,-194.78 222,-187.751"/>
<polygon fill="midnightblue" stroke="midnightblue" points="218.5,-214.083 222,-224.083 225.5,-214.083 218.5,-214.083"/>
</g>
<!-- Node41&#45;&gt;Node38 -->
<g id="edge12" class="edge"><title>Node41&#45;&gt;Node38</title>
<path fill="none" stroke="midnightblue" d="M207.859,-160.33C196.612,-147.134 180.423,-128.279 166,-112 154.646,-99.1849 141.243,-84.5686 132.931,-75.5625"/>
<polygon fill="midnightblue" stroke="midnightblue" points="205.324,-162.751 214.469,-168.101 210.656,-158.216 205.324,-162.751"/>
</g>
</g>
</svg>
