<?xml version="1.0" encoding="UTF-8" standalone="no"?>
<!DOCTYPE svg PUBLIC "-//W3C//DTD SVG 1.1//EN"
 "http://www.w3.org/Graphics/SVG/1.1/DTD/svg11.dtd">
<!-- Generated by graphviz version 2.38.0 (20140413.2041)
 -->
<!-- Title: schedule.h Pages: 1 -->
<svg width="1785pt" height="666pt"
 viewBox="0.00 0.00 1785.00 666.00" xmlns="http://www.w3.org/2000/svg" xmlns:xlink="http://www.w3.org/1999/xlink">
<g id="graph0" class="graph" transform="scale(1 1) rotate(0) translate(4 662)">
<title>schedule.h</title>
<polygon fill="white" stroke="none" points="-4,4 -4,-662 1781,-662 1781,4 -4,4"/>
<!-- Node0 -->
<g id="node1" class="node"><title>Node0</title>
<polygon fill="#bfbfbf" stroke="black" points="1469,-638.5 1469,-657.5 1537,-657.5 1537,-638.5 1469,-638.5"/>
<text text-anchor="middle" x="1503" y="-645.5" font-family="Helvetica,sans-Serif" font-size="10.00">schedule.h</text>
</g>
<!-- Node1 -->
<g id="node2" class="node"><title>Node1</title>
<polygon fill="white" stroke="#bfbfbf" points="1633.5,-168.5 1633.5,-198.5 1748.5,-198.5 1748.5,-168.5 1633.5,-168.5"/>
<text text-anchor="start" x="1641.5" y="-186.5" font-family="Helvetica,sans-Serif" font-size="10.00">odp/api/abi/schedule</text>
<text text-anchor="middle" x="1691" y="-175.5" font-family="Helvetica,sans-Serif" font-size="10.00">_types.h</text>
</g>
<!-- Node0&#45;&gt;Node1 -->
<g id="edge1" class="edge"><title>Node0&#45;&gt;Node1</title>
<path fill="none" stroke="midnightblue" d="M1537.06,-646.241C1602.42,-642.786 1739,-625.035 1739,-537 1739,-537 1739,-537 1739,-305.5 1739,-269.189 1720.09,-230.794 1706.01,-207.234"/>
<polygon fill="midnightblue" stroke="midnightblue" points="1708.95,-205.337 1700.71,-198.676 1703,-209.021 1708.95,-205.337"/>
</g>
<!-- Node2 -->
<g id="node3" class="node"><title>Node2</title>
<polygon fill="white" stroke="#bfbfbf" points="1441,-582.5 1441,-601.5 1565,-601.5 1565,-582.5 1441,-582.5"/>
<text text-anchor="middle" x="1503" y="-589.5" font-family="Helvetica,sans-Serif" font-size="10.00">odp/api/abi/schedule.h</text>
</g>
<!-- Node0&#45;&gt;Node2 -->
<g id="edge2" class="edge"><title>Node0&#45;&gt;Node2</title>
<path fill="none" stroke="midnightblue" d="M1503,-638.083C1503,-631.006 1503,-620.861 1503,-611.986"/>
<polygon fill="midnightblue" stroke="midnightblue" points="1506.5,-611.751 1503,-601.751 1499.5,-611.751 1506.5,-611.751"/>
</g>
<!-- Node3 -->
<g id="node4" class="node"><title>Node3</title>
<g id="a_node4"><a xlink:href="api_2spec_2schedule_8h.html" target="_top" xlink:title="ODP schedule. ">
<polygon fill="white" stroke="black" points="1003,-582.5 1003,-601.5 1135,-601.5 1135,-582.5 1003,-582.5"/>
<text text-anchor="middle" x="1069" y="-589.5" font-family="Helvetica,sans-Serif" font-size="10.00">odp/api/spec/schedule.h</text>
</a>
</g>
</g>
<!-- Node0&#45;&gt;Node3 -->
<g id="edge3" class="edge"><title>Node0&#45;&gt;Node3</title>
<path fill="none" stroke="midnightblue" d="M1468.94,-642.763C1399.63,-634.139 1240.68,-614.361 1145.35,-602.5"/>
<polygon fill="midnightblue" stroke="midnightblue" points="1145.54,-598.997 1135.19,-601.235 1144.68,-605.943 1145.54,-598.997"/>
</g>
<!-- Node4 -->
<g id="node5" class="node"><title>Node4</title>
<g id="a_node5"><a xlink:href="visibility__begin_8h_source.html" target="_top" xlink:title="odp/visibility_begin.h">
<polygon fill="white" stroke="black" points="817.5,-0.5 817.5,-19.5 932.5,-19.5 932.5,-0.5 817.5,-0.5"/>
<text text-anchor="middle" x="875" y="-7.5" font-family="Helvetica,sans-Serif" font-size="10.00">odp/visibility_begin.h</text>
</a>
</g>
</g>
<!-- Node3&#45;&gt;Node4 -->
<g id="edge4" class="edge"><title>Node3&#45;&gt;Node4</title>
<path fill="none" stroke="midnightblue" d="M1002.68,-589.832C798.834,-585.975 190.069,-572.36 105,-546 52.5743,-529.755 0,-535.885 0,-481 0,-481 0,-481 0,-121 0,-39.7427 601.716,-17.6083 807.188,-12.4187"/>
<polygon fill="midnightblue" stroke="midnightblue" points="807.34,-15.9161 817.25,-12.1701 807.167,-8.91822 807.34,-15.9161"/>
</g>
<!-- Node5 -->
<g id="node6" class="node"><title>Node5</title>
<g id="a_node6"><a xlink:href="api_2std__types_8h.html" target="_top" xlink:title="Standard C language types and definitions for ODP. ">
<polygon fill="white" stroke="black" points="372,-112.5 372,-131.5 482,-131.5 482,-112.5 372,-112.5"/>
<text text-anchor="middle" x="427" y="-119.5" font-family="Helvetica,sans-Serif" font-size="10.00">odp/api/std_types.h</text>
</a>
</g>
</g>
<!-- Node3&#45;&gt;Node5 -->
<g id="edge5" class="edge"><title>Node3&#45;&gt;Node5</title>
<path fill="none" stroke="midnightblue" d="M1002.94,-590.91C775.385,-589.74 38,-578.43 38,-481 38,-481 38,-481 38,-244 38,-195.598 72.5879,-189.403 116,-168 157.97,-147.307 283.345,-134.14 361.497,-127.705"/>
<polygon fill="midnightblue" stroke="midnightblue" points="362.04,-131.172 371.726,-126.879 361.477,-124.195 362.04,-131.172"/>
</g>
<!-- Node9 -->
<g id="node10" class="node"><title>Node9</title>
<g id="a_node10"><a xlink:href="visibility__end_8h_source.html" target="_top" xlink:title="odp/visibility_end.h">
<polygon fill="white" stroke="black" points="1264.5,-0.5 1264.5,-19.5 1371.5,-19.5 1371.5,-0.5 1264.5,-0.5"/>
<text text-anchor="middle" x="1318" y="-7.5" font-family="Helvetica,sans-Serif" font-size="10.00">odp/visibility_end.h</text>
</a>
</g>
</g>
<!-- Node3&#45;&gt;Node9 -->
<g id="edge65" class="edge"><title>Node3&#45;&gt;Node9</title>
<path fill="none" stroke="midnightblue" d="M1135.14,-586.371C1297.21,-574.147 1701,-537.974 1701,-481 1701,-481 1701,-481 1701,-423 1701,-337.388 1777,-331.612 1777,-246 1777,-246 1777,-246 1777,-121 1777,-40.699 1507.97,-18.8792 1381.84,-13.062"/>
<polygon fill="midnightblue" stroke="midnightblue" points="1381.7,-9.55234 1371.55,-12.6084 1381.39,-16.5456 1381.7,-9.55234"/>
</g>
<!-- Node10 -->
<g id="node11" class="node"><title>Node10</title>
<g id="a_node11"><a xlink:href="api_2event_8h.html" target="_top" xlink:title="ODP event. ">
<polygon fill="white" stroke="black" points="879.5,-414.5 879.5,-433.5 970.5,-433.5 970.5,-414.5 879.5,-414.5"/>
<text text-anchor="middle" x="925" y="-421.5" font-family="Helvetica,sans-Serif" font-size="10.00">odp/api/event.h</text>
</a>
</g>
</g>
<!-- Node3&#45;&gt;Node10 -->
<g id="edge11" class="edge"><title>Node3&#45;&gt;Node10</title>
<path fill="none" stroke="midnightblue" d="M1052.96,-582.406C1026.29,-567.296 972.931,-533.417 944,-490 934.73,-476.089 929.896,-457.579 927.43,-443.87"/>
<polygon fill="midnightblue" stroke="midnightblue" points="930.845,-443.045 925.871,-433.69 923.926,-444.105 930.845,-443.045"/>
</g>
<!-- Node22 -->
<g id="node23" class="node"><title>Node22</title>
<g id="a_node23"><a xlink:href="api_2queue_8h.html" target="_top" xlink:title="ODP queue. ">
<polygon fill="white" stroke="black" points="689,-526.5 689,-545.5 783,-545.5 783,-526.5 689,-526.5"/>
<text text-anchor="middle" x="736" y="-533.5" font-family="Helvetica,sans-Serif" font-size="10.00">odp/api/queue.h</text>
</a>
</g>
</g>
<!-- Node3&#45;&gt;Node22 -->
<g id="edge32" class="edge"><title>Node3&#45;&gt;Node22</title>
<path fill="none" stroke="midnightblue" d="M1016.24,-582.444C955.433,-572.584 855.868,-556.438 793.237,-546.282"/>
<polygon fill="midnightblue" stroke="midnightblue" points="793.565,-542.789 783.134,-544.643 792.445,-549.699 793.565,-542.789"/>
</g>
<!-- Node26 -->
<g id="node27" class="node"><title>Node26</title>
<g id="a_node27"><a xlink:href="api_2schedule__types_8h.html" target="_top" xlink:title="ODP schedule. ">
<polygon fill="white" stroke="black" points="1485,-235.5 1485,-254.5 1623,-254.5 1623,-235.5 1485,-235.5"/>
<text text-anchor="middle" x="1554" y="-242.5" font-family="Helvetica,sans-Serif" font-size="10.00">odp/api/schedule_types.h</text>
</a>
</g>
</g>
<!-- Node3&#45;&gt;Node26 -->
<g id="edge58" class="edge"><title>Node3&#45;&gt;Node26</title>
<path fill="none" stroke="midnightblue" d="M1135.31,-588.717C1261.78,-582.549 1525,-560.198 1525,-481 1525,-481 1525,-481 1525,-367 1525,-329.703 1538.19,-287.676 1546.78,-264.265"/>
<polygon fill="midnightblue" stroke="midnightblue" points="1550.16,-265.226 1550.44,-254.635 1543.62,-262.737 1550.16,-265.226"/>
</g>
<!-- Node32 -->
<g id="node33" class="node"><title>Node32</title>
<g id="a_node33"><a xlink:href="api_2thrmask_8h.html" target="_top" xlink:title="ODP thread masks. ">
<polygon fill="white" stroke="black" points="1323,-235.5 1323,-254.5 1427,-254.5 1427,-235.5 1323,-235.5"/>
<text text-anchor="middle" x="1375" y="-242.5" font-family="Helvetica,sans-Serif" font-size="10.00">odp/api/thrmask.h</text>
</a>
</g>
</g>
<!-- Node3&#45;&gt;Node32 -->
<g id="edge59" class="edge"><title>Node3&#45;&gt;Node32</title>
<path fill="none" stroke="midnightblue" d="M1135.24,-583.854C1236.71,-571.042 1419,-539.838 1419,-481 1419,-481 1419,-481 1419,-367 1419,-328.252 1398.83,-286.499 1385.8,-263.577"/>
<polygon fill="midnightblue" stroke="midnightblue" points="1388.66,-261.548 1380.57,-254.709 1382.63,-265.101 1388.66,-261.548"/>
</g>
<!-- Node6 -->
<g id="node7" class="node"><title>Node6</title>
<polygon fill="white" stroke="#bfbfbf" points="513,-56.5 513,-75.5 641,-75.5 641,-56.5 513,-56.5"/>
<text text-anchor="middle" x="577" y="-63.5" font-family="Helvetica,sans-Serif" font-size="10.00">odp/api/abi/std_types.h</text>
</g>
<!-- Node5&#45;&gt;Node6 -->
<g id="edge6" class="edge"><title>Node5&#45;&gt;Node6</title>
<path fill="none" stroke="midnightblue" d="M450.768,-112.444C475.893,-103.399 515.711,-89.064 543.9,-78.9158"/>
<polygon fill="midnightblue" stroke="midnightblue" points="545.12,-82.1968 553.343,-75.5164 542.749,-75.6106 545.12,-82.1968"/>
</g>
<!-- Node7 -->
<g id="node8" class="node"><title>Node7</title>
<g id="a_node8"><a xlink:href="api_2spec_2std__types_8h.html" target="_top" xlink:title="Standard C language types and definitions for ODP. ">
<polygon fill="white" stroke="black" points="359,-56.5 359,-75.5 495,-75.5 495,-56.5 359,-56.5"/>
<text text-anchor="middle" x="427" y="-63.5" font-family="Helvetica,sans-Serif" font-size="10.00">odp/api/spec/std_types.h</text>
</a>
</g>
</g>
<!-- Node5&#45;&gt;Node7 -->
<g id="edge7" class="edge"><title>Node5&#45;&gt;Node7</title>
<path fill="none" stroke="midnightblue" d="M427,-112.083C427,-105.006 427,-94.8611 427,-85.9865"/>
<polygon fill="midnightblue" stroke="midnightblue" points="430.5,-85.751 427,-75.7511 423.5,-85.7511 430.5,-85.751"/>
</g>
<!-- Node7&#45;&gt;Node4 -->
<g id="edge8" class="edge"><title>Node7&#45;&gt;Node4</title>
<path fill="none" stroke="midnightblue" d="M495.042,-56.7986C579.602,-46.606 723.028,-29.318 807.389,-19.1496"/>
<polygon fill="midnightblue" stroke="midnightblue" points="807.867,-22.6174 817.376,-17.9458 807.029,-15.6677 807.867,-22.6174"/>
</g>
<!-- Node8 -->
<g id="node9" class="node"><title>Node8</title>
<polygon fill="white" stroke="#bfbfbf" points="400.5,-0.5 400.5,-19.5 453.5,-19.5 453.5,-0.5 400.5,-0.5"/>
<text text-anchor="middle" x="427" y="-7.5" font-family="Helvetica,sans-Serif" font-size="10.00">stdint.h</text>
</g>
<!-- Node7&#45;&gt;Node8 -->
<g id="edge9" class="edge"><title>Node7&#45;&gt;Node8</title>
<path fill="none" stroke="midnightblue" d="M427,-56.083C427,-49.0059 427,-38.8611 427,-29.9865"/>
<polygon fill="midnightblue" stroke="midnightblue" points="430.5,-29.751 427,-19.7511 423.5,-29.7511 430.5,-29.751"/>
</g>
<!-- Node7&#45;&gt;Node9 -->
<g id="edge10" class="edge"><title>Node7&#45;&gt;Node9</title>
<path fill="none" stroke="midnightblue" d="M495.412,-56.784C498.312,-56.5052 501.184,-56.2422 504,-56 782.648,-32.0358 1116.11,-18.2555 1253.75,-13.2156"/>
<polygon fill="midnightblue" stroke="midnightblue" points="1254.24,-16.7003 1264.1,-12.8394 1253.98,-9.70488 1254.24,-16.7003"/>
</g>
<!-- Node11 -->
<g id="node12" class="node"><title>Node11</title>
<polygon fill="white" stroke="#bfbfbf" points="104,-235.5 104,-254.5 212,-254.5 212,-235.5 104,-235.5"/>
<text text-anchor="middle" x="158" y="-242.5" font-family="Helvetica,sans-Serif" font-size="10.00">odp/api/abi/event.h</text>
</g>
<!-- Node10&#45;&gt;Node11 -->
<g id="edge12" class="edge"><title>Node10&#45;&gt;Node11</title>
<path fill="none" stroke="midnightblue" d="M888.006,-414.463C761.452,-385.258 345.891,-289.36 205.115,-256.873"/>
<polygon fill="midnightblue" stroke="midnightblue" points="205.602,-253.393 195.071,-254.555 204.028,-260.214 205.602,-253.393"/>
</g>
<!-- Node12 -->
<g id="node13" class="node"><title>Node12</title>
<g id="a_node13"><a xlink:href="api_2spec_2event_8h.html" target="_top" xlink:title="ODP event. ">
<polygon fill="white" stroke="black" points="867,-358.5 867,-377.5 983,-377.5 983,-358.5 867,-358.5"/>
<text text-anchor="middle" x="925" y="-365.5" font-family="Helvetica,sans-Serif" font-size="10.00">odp/api/spec/event.h</text>
</a>
</g>
</g>
<!-- Node10&#45;&gt;Node12 -->
<g id="edge13" class="edge"><title>Node10&#45;&gt;Node12</title>
<path fill="none" stroke="midnightblue" d="M925,-414.083C925,-407.006 925,-396.861 925,-387.986"/>
<polygon fill="midnightblue" stroke="midnightblue" points="928.5,-387.751 925,-377.751 921.5,-387.751 928.5,-387.751"/>
</g>
<!-- Node12&#45;&gt;Node4 -->
<g id="edge14" class="edge"><title>Node12&#45;&gt;Node4</title>
<path fill="none" stroke="midnightblue" d="M927.064,-358.389C931.854,-336.438 941.803,-277.146 921,-235 871.504,-134.725 773.972,-177.013 726,-76 708.198,-38.514 760.003,-22.6461 807.326,-15.9294"/>
<polygon fill="midnightblue" stroke="midnightblue" points="807.864,-19.3891 817.33,-14.6306 806.962,-12.4474 807.864,-19.3891"/>
</g>
<!-- Node12&#45;&gt;Node9 -->
<g id="edge31" class="edge"><title>Node12&#45;&gt;Node9</title>
<path fill="none" stroke="midnightblue" d="M932.604,-358.404C966.655,-320.187 1109.43,-162.889 1246,-56 1260.95,-44.2992 1279.08,-32.9822 1293.41,-24.6242"/>
<polygon fill="midnightblue" stroke="midnightblue" points="1295.27,-27.5935 1302.2,-19.5848 1291.78,-21.5201 1295.27,-27.5935"/>
</g>
<!-- Node13 -->
<g id="node14" class="node"><title>Node13</title>
<g id="a_node14"><a xlink:href="api_2packet_8h.html" target="_top" xlink:title="ODP packet descriptor. ">
<polygon fill="white" stroke="black" points="556,-297 556,-316 652,-316 652,-297 556,-297"/>
<text text-anchor="middle" x="604" y="-304" font-family="Helvetica,sans-Serif" font-size="10.00">odp/api/packet.h</text>
</a>
</g>
</g>
<!-- Node12&#45;&gt;Node13 -->
<g id="edge15" class="edge"><title>Node12&#45;&gt;Node13</title>
<path fill="none" stroke="midnightblue" d="M879.009,-358.475C821.204,-347.761 722.053,-329.382 659.925,-317.866"/>
<polygon fill="midnightblue" stroke="midnightblue" points="660.377,-314.39 649.906,-316.009 659.101,-321.273 660.377,-314.39"/>
</g>
<!-- Node13&#45;&gt;Node5 -->
<g id="edge16" class="edge"><title>Node13&#45;&gt;Node5</title>
<path fill="none" stroke="midnightblue" d="M570.345,-296.963C561.189,-294.823 551.248,-292.665 542,-291 479.608,-279.767 300.904,-302.572 259,-255 212.804,-202.555 325.618,-155.804 388.401,-134.775"/>
<polygon fill="midnightblue" stroke="midnightblue" points="389.602,-138.065 398.015,-131.624 387.422,-131.413 389.602,-138.065"/>
</g>
<!-- Node13&#45;&gt;Node11 -->
<g id="edge17" class="edge"><title>Node13&#45;&gt;Node11</title>
<path fill="none" stroke="midnightblue" d="M570.682,-296.957C561.438,-294.792 551.367,-292.623 542,-291 402.723,-266.864 366.293,-272.274 226,-255 224.737,-254.844 223.461,-254.686 222.175,-254.526"/>
<polygon fill="midnightblue" stroke="midnightblue" points="222.54,-251.044 212.179,-253.261 221.661,-257.989 222.54,-251.044"/>
</g>
<!-- Node14 -->
<g id="node15" class="node"><title>Node14</title>
<polygon fill="white" stroke="#bfbfbf" points="268.5,-235.5 268.5,-254.5 395.5,-254.5 395.5,-235.5 268.5,-235.5"/>
<text text-anchor="middle" x="332" y="-242.5" font-family="Helvetica,sans-Serif" font-size="10.00">odp/api/abi/packet_io.h</text>
</g>
<!-- Node13&#45;&gt;Node14 -->
<g id="edge18" class="edge"><title>Node13&#45;&gt;Node14</title>
<path fill="none" stroke="midnightblue" d="M567.963,-296.952C559.456,-294.968 550.414,-292.885 542,-291 487.77,-278.849 425.5,-265.593 382.936,-256.637"/>
<polygon fill="midnightblue" stroke="midnightblue" points="383.6,-253.2 373.094,-254.569 382.16,-260.051 383.6,-253.2"/>
</g>
<!-- Node15 -->
<g id="node16" class="node"><title>Node15</title>
<polygon fill="white" stroke="#bfbfbf" points="413.5,-235.5 413.5,-254.5 526.5,-254.5 526.5,-235.5 413.5,-235.5"/>
<text text-anchor="middle" x="470" y="-242.5" font-family="Helvetica,sans-Serif" font-size="10.00">odp/api/abi/packet.h</text>
</g>
<!-- Node13&#45;&gt;Node15 -->
<g id="edge19" class="edge"><title>Node13&#45;&gt;Node15</title>
<path fill="none" stroke="midnightblue" d="M584.801,-296.975C562.213,-286.945 524.501,-270.2 498.499,-258.655"/>
<polygon fill="midnightblue" stroke="midnightblue" points="499.723,-255.369 489.163,-254.509 496.882,-261.766 499.723,-255.369"/>
</g>
<!-- Node16 -->
<g id="node17" class="node"><title>Node16</title>
<polygon fill="white" stroke="#bfbfbf" points="685,-235.5 685,-254.5 793,-254.5 793,-235.5 685,-235.5"/>
<text text-anchor="middle" x="739" y="-242.5" font-family="Helvetica,sans-Serif" font-size="10.00">odp/api/abi/buffer.h</text>
</g>
<!-- Node13&#45;&gt;Node16 -->
<g id="edge20" class="edge"><title>Node13&#45;&gt;Node16</title>
<path fill="none" stroke="midnightblue" d="M623.342,-296.975C646.099,-286.945 684.092,-270.2 710.288,-258.655"/>
<polygon fill="midnightblue" stroke="midnightblue" points="711.955,-261.745 719.694,-254.509 709.131,-255.339 711.955,-261.745"/>
</g>
<!-- Node17 -->
<g id="node18" class="node"><title>Node17</title>
<polygon fill="white" stroke="#bfbfbf" points="811.5,-235.5 811.5,-254.5 912.5,-254.5 912.5,-235.5 811.5,-235.5"/>
<text text-anchor="middle" x="862" y="-242.5" font-family="Helvetica,sans-Serif" font-size="10.00">odp/api/abi/pool.h</text>
</g>
<!-- Node13&#45;&gt;Node17 -->
<g id="edge21" class="edge"><title>Node13&#45;&gt;Node17</title>
<path fill="none" stroke="midnightblue" d="M640.965,-296.975C686.85,-286.393 765.15,-268.336 815.185,-256.797"/>
<polygon fill="midnightblue" stroke="midnightblue" points="816.146,-260.167 825.103,-254.509 814.573,-253.346 816.146,-260.167"/>
</g>
<!-- Node18 -->
<g id="node19" class="node"><title>Node18</title>
<g id="a_node19"><a xlink:href="api_2spec_2packet_8h.html" target="_top" xlink:title="ODP packet descriptor. ">
<polygon fill="white" stroke="black" points="545,-235.5 545,-254.5 667,-254.5 667,-235.5 545,-235.5"/>
<text text-anchor="middle" x="606" y="-242.5" font-family="Helvetica,sans-Serif" font-size="10.00">odp/api/spec/packet.h</text>
</a>
</g>
</g>
<!-- Node13&#45;&gt;Node18 -->
<g id="edge22" class="edge"><title>Node13&#45;&gt;Node18</title>
<path fill="none" stroke="midnightblue" d="M604.287,-296.975C604.569,-288.58 605.009,-275.481 605.373,-264.663"/>
<polygon fill="midnightblue" stroke="midnightblue" points="608.876,-264.621 605.714,-254.509 601.88,-264.386 608.876,-264.621"/>
</g>
<!-- Node18&#45;&gt;Node4 -->
<g id="edge23" class="edge"><title>Node18&#45;&gt;Node4</title>
<path fill="none" stroke="midnightblue" d="M615.542,-235.176C624.269,-226.651 637.001,-213.004 645,-199 678.251,-140.787 643.704,-101.435 693,-56 723.758,-27.6504 769.502,-16.4238 807.433,-12.2728"/>
<polygon fill="midnightblue" stroke="midnightblue" points="807.776,-15.7561 817.398,-11.3224 807.111,-8.78772 807.776,-15.7561"/>
</g>
<!-- Node18&#45;&gt;Node9 -->
<g id="edge30" class="edge"><title>Node18&#45;&gt;Node9</title>
<path fill="none" stroke="midnightblue" d="M631.424,-235.42C725.199,-203.751 1048.61,-94.3116 1094,-76 1113.55,-68.1145 1117.13,-63.0193 1137,-56 1178.72,-41.264 1227.48,-29.4377 1263.87,-21.6137"/>
<polygon fill="midnightblue" stroke="midnightblue" points="1264.73,-25.009 1273.79,-19.514 1263.28,-18.1607 1264.73,-25.009"/>
</g>
<!-- Node19 -->
<g id="node20" class="node"><title>Node19</title>
<g id="a_node20"><a xlink:href="api_2time_8h.html" target="_top" xlink:title="ODP time. ">
<polygon fill="white" stroke="black" points="550,-174 550,-193 636,-193 636,-174 550,-174"/>
<text text-anchor="middle" x="593" y="-181" font-family="Helvetica,sans-Serif" font-size="10.00">odp/api/time.h</text>
</a>
</g>
</g>
<!-- Node18&#45;&gt;Node19 -->
<g id="edge24" class="edge"><title>Node18&#45;&gt;Node19</title>
<path fill="none" stroke="midnightblue" d="M604.137,-235.475C602.284,-226.992 599.381,-213.704 597.003,-202.822"/>
<polygon fill="midnightblue" stroke="midnightblue" points="600.413,-202.032 594.859,-193.009 593.574,-203.526 600.413,-202.032"/>
</g>
<!-- Node19&#45;&gt;Node5 -->
<g id="edge25" class="edge"><title>Node19&#45;&gt;Node5</title>
<path fill="none" stroke="midnightblue" d="M569.216,-173.975C540.618,-163.725 492.449,-146.459 460.198,-134.899"/>
<polygon fill="midnightblue" stroke="midnightblue" points="461.334,-131.589 450.74,-131.509 458.972,-138.178 461.334,-131.589"/>
</g>
<!-- Node20 -->
<g id="node21" class="node"><title>Node20</title>
<polygon fill="white" stroke="#bfbfbf" points="537.5,-112.5 537.5,-131.5 640.5,-131.5 640.5,-112.5 537.5,-112.5"/>
<text text-anchor="middle" x="589" y="-119.5" font-family="Helvetica,sans-Serif" font-size="10.00">odp/api/abi/time.h</text>
</g>
<!-- Node19&#45;&gt;Node20 -->
<g id="edge26" class="edge"><title>Node19&#45;&gt;Node20</title>
<path fill="none" stroke="midnightblue" d="M592.427,-173.975C591.863,-165.58 590.982,-152.481 590.255,-141.663"/>
<polygon fill="midnightblue" stroke="midnightblue" points="593.735,-141.252 589.572,-131.509 586.751,-141.721 593.735,-141.252"/>
</g>
<!-- Node21 -->
<g id="node22" class="node"><title>Node21</title>
<g id="a_node22"><a xlink:href="api_2spec_2time_8h.html" target="_top" xlink:title="ODP time. ">
<polygon fill="white" stroke="black" points="735.5,-56.5 735.5,-75.5 846.5,-75.5 846.5,-56.5 735.5,-56.5"/>
<text text-anchor="middle" x="791" y="-63.5" font-family="Helvetica,sans-Serif" font-size="10.00">odp/api/spec/time.h</text>
</a>
</g>
</g>
<!-- Node19&#45;&gt;Node21 -->
<g id="edge27" class="edge"><title>Node19&#45;&gt;Node21</title>
<path fill="none" stroke="midnightblue" d="M607.882,-173.819C642.008,-153.912 726.126,-104.843 767.395,-80.7695"/>
<polygon fill="midnightblue" stroke="midnightblue" points="769.341,-83.6864 776.215,-75.6245 765.814,-77.64 769.341,-83.6864"/>
</g>
<!-- Node21&#45;&gt;Node4 -->
<g id="edge28" class="edge"><title>Node21&#45;&gt;Node4</title>
<path fill="none" stroke="midnightblue" d="M804.496,-56.324C817.6,-47.9002 837.712,-34.9709 853.107,-25.0741"/>
<polygon fill="midnightblue" stroke="midnightblue" points="855.018,-28.0063 861.537,-19.6545 851.233,-22.118 855.018,-28.0063"/>
</g>
<!-- Node21&#45;&gt;Node9 -->
<g id="edge29" class="edge"><title>Node21&#45;&gt;Node9</title>
<path fill="none" stroke="midnightblue" d="M846.899,-59.2722C945.6,-49.1586 1150.13,-28.2009 1254.19,-17.538"/>
<polygon fill="midnightblue" stroke="midnightblue" points="1254.66,-21.009 1264.25,-16.5078 1253.94,-14.0455 1254.66,-21.009"/>
</g>
<!-- Node22&#45;&gt;Node5 -->
<g id="edge33" class="edge"><title>Node22&#45;&gt;Node5</title>
<path fill="none" stroke="midnightblue" d="M688.799,-532.125C537.741,-522.3 76,-487.184 76,-425 76,-425 76,-425 76,-244 76,-184.254 260.064,-147.586 361.611,-131.903"/>
<polygon fill="midnightblue" stroke="midnightblue" points="362.408,-135.322 371.77,-130.362 361.358,-128.402 362.408,-135.322"/>
</g>
<!-- Node22&#45;&gt;Node11 -->
<g id="edge34" class="edge"><title>Node22&#45;&gt;Node11</title>
<path fill="none" stroke="midnightblue" d="M688.624,-532.385C580.142,-525.105 323,-499.943 323,-425 323,-425 323,-425 323,-367 323,-306.848 250.807,-273.331 201.927,-257.532"/>
<polygon fill="midnightblue" stroke="midnightblue" points="202.776,-254.13 192.188,-254.515 200.705,-260.817 202.776,-254.13"/>
</g>
<!-- Node22&#45;&gt;Node16 -->
<g id="edge36" class="edge"><title>Node22&#45;&gt;Node16</title>
<path fill="none" stroke="midnightblue" d="M714.192,-526.447C699.055,-519.221 680.045,-507.264 671,-490 666.875,-482.126 669.695,-478.793 671,-470 682.677,-391.334 716.234,-302.05 731.399,-264.344"/>
<polygon fill="midnightblue" stroke="midnightblue" points="734.778,-265.327 735.313,-254.745 728.296,-262.683 734.778,-265.327"/>
</g>
<!-- Node22&#45;&gt;Node17 -->
<g id="edge37" class="edge"><title>Node22&#45;&gt;Node17</title>
<path fill="none" stroke="midnightblue" d="M754.765,-526.415C769.249,-518.838 788.67,-506.441 800,-490 849.86,-417.65 859.645,-308.46 861.548,-264.908"/>
<polygon fill="midnightblue" stroke="midnightblue" points="865.047,-264.993 861.893,-254.878 858.052,-264.752 865.047,-264.993"/>
</g>
<!-- Node23 -->
<g id="node24" class="node"><title>Node23</title>
<polygon fill="white" stroke="#bfbfbf" points="680.5,-470.5 680.5,-489.5 791.5,-489.5 791.5,-470.5 680.5,-470.5"/>
<text text-anchor="middle" x="736" y="-477.5" font-family="Helvetica,sans-Serif" font-size="10.00">odp/api/abi/queue.h</text>
</g>
<!-- Node22&#45;&gt;Node23 -->
<g id="edge35" class="edge"><title>Node22&#45;&gt;Node23</title>
<path fill="none" stroke="midnightblue" d="M736,-526.083C736,-519.006 736,-508.861 736,-499.986"/>
<polygon fill="midnightblue" stroke="midnightblue" points="739.5,-499.751 736,-489.751 732.5,-499.751 739.5,-499.751"/>
</g>
<!-- Node24 -->
<g id="node25" class="node"><title>Node24</title>
<g id="a_node25"><a xlink:href="api_2spec_2queue_8h.html" target="_top" xlink:title="ODP queue. ">
<polygon fill="white" stroke="black" points="953.5,-470.5 953.5,-489.5 1072.5,-489.5 1072.5,-470.5 953.5,-470.5"/>
<text text-anchor="middle" x="1013" y="-477.5" font-family="Helvetica,sans-Serif" font-size="10.00">odp/api/spec/queue.h</text>
</a>
</g>
</g>
<!-- Node22&#45;&gt;Node24 -->
<g id="edge38" class="edge"><title>Node22&#45;&gt;Node24</title>
<path fill="none" stroke="midnightblue" d="M779.891,-526.444C828.517,-516.964 906.946,-501.675 959.224,-491.483"/>
<polygon fill="midnightblue" stroke="midnightblue" points="960.168,-494.865 969.314,-489.516 958.829,-487.995 960.168,-494.865"/>
</g>
<!-- Node24&#45;&gt;Node4 -->
<g id="edge39" class="edge"><title>Node24&#45;&gt;Node4</title>
<path fill="none" stroke="midnightblue" d="M1011.97,-470.397C1009.48,-450.441 1002.54,-399.538 992,-358 959.37,-229.42 902.204,-79.9176 882.176,-29.02"/>
<polygon fill="midnightblue" stroke="midnightblue" points="885.422,-27.7098 878.488,-19.6987 878.913,-30.285 885.422,-27.7098"/>
</g>
<!-- Node24&#45;&gt;Node9 -->
<g id="edge57" class="edge"><title>Node24&#45;&gt;Node9</title>
<path fill="none" stroke="midnightblue" d="M1049.97,-470.494C1132.87,-449.421 1334.28,-386.697 1436,-255 1490.07,-184.989 1504.6,-116.438 1440,-56 1422.41,-39.5416 1398.29,-28.9852 1376.13,-22.2703"/>
<polygon fill="midnightblue" stroke="midnightblue" points="1377.03,-18.8867 1366.45,-19.5349 1375.12,-25.6228 1377.03,-18.8867"/>
</g>
<!-- Node24&#45;&gt;Node10 -->
<g id="edge40" class="edge"><title>Node24&#45;&gt;Node10</title>
<path fill="none" stroke="midnightblue" d="M998.861,-470.324C985.134,-461.9 964.064,-448.971 947.936,-439.074"/>
<polygon fill="midnightblue" stroke="midnightblue" points="949.457,-435.902 939.104,-433.655 945.796,-441.868 949.457,-435.902"/>
</g>
<!-- Node25 -->
<g id="node26" class="node"><title>Node25</title>
<g id="a_node26"><a xlink:href="queue__types_8h.html" target="_top" xlink:title="ODP queue types. ">
<polygon fill="white" stroke="black" points="1083,-291.5 1083,-321.5 1193,-321.5 1193,-291.5 1083,-291.5"/>
<text text-anchor="start" x="1091" y="-309.5" font-family="Helvetica,sans-Serif" font-size="10.00">odp/api/spec/queue</text>
<text text-anchor="middle" x="1138" y="-298.5" font-family="Helvetica,sans-Serif" font-size="10.00">_types.h</text>
</a>
</g>
</g>
<!-- Node24&#45;&gt;Node25 -->
<g id="edge41" class="edge"><title>Node24&#45;&gt;Node25</title>
<path fill="none" stroke="midnightblue" d="M1019.37,-470.26C1038.12,-444.54 1093.52,-368.528 1121.47,-330.175"/>
<polygon fill="midnightblue" stroke="midnightblue" points="1124.57,-331.866 1127.63,-321.723 1118.91,-327.742 1124.57,-331.866"/>
</g>
<!-- Node25&#45;&gt;Node4 -->
<g id="edge42" class="edge"><title>Node25&#45;&gt;Node4</title>
<path fill="none" stroke="midnightblue" d="M1125.17,-291.317C1092.69,-255.403 1004.66,-157.902 932,-76 917.455,-59.6064 900.959,-40.7676 889.469,-27.6062"/>
<polygon fill="midnightblue" stroke="midnightblue" points="891.923,-25.0952 882.712,-19.8598 886.648,-29.6965 891.923,-25.0952"/>
</g>
<!-- Node25&#45;&gt;Node9 -->
<g id="edge56" class="edge"><title>Node25&#45;&gt;Node9</title>
<path fill="none" stroke="midnightblue" d="M1135.79,-291.253C1132.42,-264.129 1129.13,-204.525 1158,-168 1175.2,-146.244 1374.42,-98.9397 1390,-76 1404.43,-54.7533 1376.11,-35.7519 1350.86,-23.8616"/>
<polygon fill="midnightblue" stroke="midnightblue" points="1351.98,-20.5319 1341.43,-19.6629 1349.14,-26.927 1351.98,-20.5319"/>
</g>
<!-- Node25&#45;&gt;Node26 -->
<g id="edge43" class="edge"><title>Node25&#45;&gt;Node26</title>
<path fill="none" stroke="midnightblue" d="M1193.24,-297.599C1268.35,-286.856 1402.68,-267.643 1484.53,-255.936"/>
<polygon fill="midnightblue" stroke="midnightblue" points="1485.09,-259.392 1494.49,-254.512 1484.1,-252.463 1485.09,-259.392"/>
</g>
<!-- Node30 -->
<g id="node31" class="node"><title>Node30</title>
<g id="a_node31"><a xlink:href="deprecated_8h.html" target="_top" xlink:title="Control deprecated API definitions. ">
<polygon fill="white" stroke="black" points="1003.5,-112.5 1003.5,-131.5 1122.5,-131.5 1122.5,-112.5 1003.5,-112.5"/>
<text text-anchor="middle" x="1063" y="-119.5" font-family="Helvetica,sans-Serif" font-size="10.00">odp/api/deprecated.h</text>
</a>
</g>
</g>
<!-- Node25&#45;&gt;Node30 -->
<g id="edge52" class="edge"><title>Node25&#45;&gt;Node30</title>
<path fill="none" stroke="midnightblue" d="M1132.24,-291.483C1118.82,-258.817 1085.46,-177.647 1070.48,-141.211"/>
<polygon fill="midnightblue" stroke="midnightblue" points="1073.66,-139.738 1066.62,-131.819 1067.19,-142.399 1073.66,-139.738"/>
</g>
<!-- Node26&#45;&gt;Node1 -->
<g id="edge44" class="edge"><title>Node26&#45;&gt;Node1</title>
<path fill="none" stroke="midnightblue" d="M1573.63,-235.475C1593.31,-226.927 1624.22,-213.501 1649.39,-202.573"/>
<polygon fill="midnightblue" stroke="midnightblue" points="1650.93,-205.717 1658.71,-198.523 1648.15,-199.296 1650.93,-205.717"/>
</g>
<!-- Node27 -->
<g id="node28" class="node"><title>Node27</title>
<g id="a_node28"><a xlink:href="api_2spec_2schedule__types_8h.html" target="_top" xlink:title="ODP schedule types. ">
<polygon fill="white" stroke="black" points="1492.5,-168.5 1492.5,-198.5 1615.5,-198.5 1615.5,-168.5 1492.5,-168.5"/>
<text text-anchor="start" x="1500.5" y="-186.5" font-family="Helvetica,sans-Serif" font-size="10.00">odp/api/spec/schedule</text>
<text text-anchor="middle" x="1554" y="-175.5" font-family="Helvetica,sans-Serif" font-size="10.00">_types.h</text>
</a>
</g>
</g>
<!-- Node26&#45;&gt;Node27 -->
<g id="edge45" class="edge"><title>Node26&#45;&gt;Node27</title>
<path fill="none" stroke="midnightblue" d="M1554,-235.475C1554,-228.471 1554,-218.192 1554,-208.696"/>
<polygon fill="midnightblue" stroke="midnightblue" points="1557.5,-208.523 1554,-198.523 1550.5,-208.523 1557.5,-208.523"/>
</g>
<!-- Node27&#45;&gt;Node4 -->
<g id="edge46" class="edge"><title>Node27&#45;&gt;Node4</title>
<path fill="none" stroke="midnightblue" d="M1492.17,-169.052C1450.59,-159.627 1394.69,-146.213 1346,-132 1245.89,-102.778 1224.93,-82.2371 1124,-56 1063.54,-40.2839 993.418,-28.1426 943.023,-20.454"/>
<polygon fill="midnightblue" stroke="midnightblue" points="943.308,-16.9575 932.898,-18.9286 942.265,-23.8794 943.308,-16.9575"/>
</g>
<!-- Node27&#45;&gt;Node9 -->
<g id="edge51" class="edge"><title>Node27&#45;&gt;Node9</title>
<path fill="none" stroke="midnightblue" d="M1551.99,-168.303C1547.49,-142.005 1534.1,-85.6973 1499,-56 1466.57,-28.5679 1419.86,-17.4331 1382.01,-13.0966"/>
<polygon fill="midnightblue" stroke="midnightblue" points="1381.89,-9.56683 1371.59,-12.0459 1381.19,-16.5315 1381.89,-9.56683"/>
</g>
<!-- Node28 -->
<g id="node29" class="node"><title>Node28</title>
<g id="a_node29"><a xlink:href="support_8h.html" target="_top" xlink:title="ODP support API &#45; platform specific header. ">
<polygon fill="white" stroke="black" points="1355.5,-112.5 1355.5,-131.5 1456.5,-131.5 1456.5,-112.5 1355.5,-112.5"/>
<text text-anchor="middle" x="1406" y="-119.5" font-family="Helvetica,sans-Serif" font-size="10.00">odp/api/support.h</text>
</a>
</g>
</g>
<!-- Node27&#45;&gt;Node28 -->
<g id="edge47" class="edge"><title>Node27&#45;&gt;Node28</title>
<path fill="none" stroke="midnightblue" d="M1518.93,-168.399C1493.98,-158.372 1460.79,-145.028 1436.86,-135.405"/>
<polygon fill="midnightblue" stroke="midnightblue" points="1438.12,-132.141 1427.54,-131.658 1435.51,-138.635 1438.12,-132.141"/>
</g>
<!-- Node29 -->
<g id="node30" class="node"><title>Node29</title>
<g id="a_node30"><a xlink:href="spec_2support_8h.html" target="_top" xlink:title="ODP support API. ">
<polygon fill="white" stroke="black" points="1255,-56.5 1255,-75.5 1381,-75.5 1381,-56.5 1255,-56.5"/>
<text text-anchor="middle" x="1318" y="-63.5" font-family="Helvetica,sans-Serif" font-size="10.00">odp/api/spec/support.h</text>
</a>
</g>
</g>
<!-- Node28&#45;&gt;Node29 -->
<g id="edge48" class="edge"><title>Node28&#45;&gt;Node29</title>
<path fill="none" stroke="midnightblue" d="M1391.86,-112.324C1378.13,-103.9 1357.06,-90.9709 1340.94,-81.0741"/>
<polygon fill="midnightblue" stroke="midnightblue" points="1342.46,-77.9016 1332.1,-75.6545 1338.8,-83.8678 1342.46,-77.9016"/>
</g>
<!-- Node29&#45;&gt;Node4 -->
<g id="edge49" class="edge"><title>Node29&#45;&gt;Node4</title>
<path fill="none" stroke="midnightblue" d="M1255,-57.3205C1172.25,-47.2334 1027.52,-29.5914 942.56,-19.2354"/>
<polygon fill="midnightblue" stroke="midnightblue" points="942.854,-15.7454 932.504,-18.0095 942.007,-22.6939 942.854,-15.7454"/>
</g>
<!-- Node29&#45;&gt;Node9 -->
<g id="edge50" class="edge"><title>Node29&#45;&gt;Node9</title>
<path fill="none" stroke="midnightblue" d="M1318,-56.083C1318,-49.0059 1318,-38.8611 1318,-29.9865"/>
<polygon fill="midnightblue" stroke="midnightblue" points="1321.5,-29.751 1318,-19.7511 1314.5,-29.7511 1321.5,-29.751"/>
</g>
<!-- Node31 -->
<g id="node32" class="node"><title>Node31</title>
<g id="a_node32"><a xlink:href="spec_2deprecated_8h.html" target="_top" xlink:title="Macro for deprecated API definitions. ">
<polygon fill="white" stroke="black" points="941,-56.5 941,-75.5 1085,-75.5 1085,-56.5 941,-56.5"/>
<text text-anchor="middle" x="1013" y="-63.5" font-family="Helvetica,sans-Serif" font-size="10.00">odp/api/spec/deprecated.h</text>
</a>
</g>
</g>
<!-- Node30&#45;&gt;Node31 -->
<g id="edge53" class="edge"><title>Node30&#45;&gt;Node31</title>
<path fill="none" stroke="midnightblue" d="M1054.74,-112.083C1047.54,-104.298 1036.89,-92.8015 1028.15,-83.3665"/>
<polygon fill="midnightblue" stroke="midnightblue" points="1030.47,-80.7108 1021.1,-75.7511 1025.33,-85.4666 1030.47,-80.7108"/>
</g>
<!-- Node31&#45;&gt;Node4 -->
<g id="edge54" class="edge"><title>Node31&#45;&gt;Node4</title>
<path fill="none" stroke="midnightblue" d="M991.133,-56.4435C968.221,-47.4776 932.025,-33.314 906.134,-23.1827"/>
<polygon fill="midnightblue" stroke="midnightblue" points="907.352,-19.9011 896.764,-19.5164 904.801,-26.4198 907.352,-19.9011"/>
</g>
<!-- Node31&#45;&gt;Node9 -->
<g id="edge55" class="edge"><title>Node31&#45;&gt;Node9</title>
<path fill="none" stroke="midnightblue" d="M1061.33,-56.4435C1115.2,-46.9049 1202.31,-31.4834 1259.86,-21.293"/>
<polygon fill="midnightblue" stroke="midnightblue" points="1260.66,-24.7063 1269.9,-19.5164 1259.44,-17.8135 1260.66,-24.7063"/>
</g>
<!-- Node33 -->
<g id="node34" class="node"><title>Node33</title>
<polygon fill="white" stroke="#bfbfbf" points="1314.5,-174 1314.5,-193 1435.5,-193 1435.5,-174 1314.5,-174"/>
<text text-anchor="middle" x="1375" y="-181" font-family="Helvetica,sans-Serif" font-size="10.00">odp/api/abi/thrmask.h</text>
</g>
<!-- Node32&#45;&gt;Node33 -->
<g id="edge60" class="edge"><title>Node32&#45;&gt;Node33</title>
<path fill="none" stroke="midnightblue" d="M1375,-235.475C1375,-227.08 1375,-213.981 1375,-203.163"/>
<polygon fill="midnightblue" stroke="midnightblue" points="1378.5,-203.009 1375,-193.009 1371.5,-203.009 1378.5,-203.009"/>
</g>
<!-- Node34 -->
<g id="node35" class="node"><title>Node34</title>
<g id="a_node35"><a xlink:href="api_2spec_2thrmask_8h.html" target="_top" xlink:title="ODP thread masks. ">
<polygon fill="white" stroke="black" points="1167.5,-174 1167.5,-193 1296.5,-193 1296.5,-174 1167.5,-174"/>
<text text-anchor="middle" x="1232" y="-181" font-family="Helvetica,sans-Serif" font-size="10.00">odp/api/spec/thrmask.h</text>
</a>
</g>
</g>
<!-- Node32&#45;&gt;Node34 -->
<g id="edge61" class="edge"><title>Node32&#45;&gt;Node34</title>
<path fill="none" stroke="midnightblue" d="M1354.51,-235.475C1330.19,-225.357 1289.45,-208.405 1261.68,-196.851"/>
<polygon fill="midnightblue" stroke="midnightblue" points="1263.03,-193.619 1252.45,-193.009 1260.34,-200.082 1263.03,-193.619"/>
</g>
<!-- Node34&#45;&gt;Node4 -->
<g id="edge62" class="edge"><title>Node34&#45;&gt;Node4</title>
<path fill="none" stroke="midnightblue" d="M1225.35,-173.735C1207.16,-150.425 1153.91,-86.607 1094,-56 1046.86,-31.9179 987.795,-20.7232 942.887,-15.5195"/>
<polygon fill="midnightblue" stroke="midnightblue" points="942.983,-12.0094 932.663,-14.4093 942.227,-18.9685 942.983,-12.0094"/>
</g>
<!-- Node34&#45;&gt;Node5 -->
<g id="edge63" class="edge"><title>Node34&#45;&gt;Node5</title>
<path fill="none" stroke="midnightblue" d="M1167.43,-178.242C1043.43,-169.984 763.429,-150.932 528,-132 516.464,-131.072 504.192,-130.028 492.323,-128.987"/>
<polygon fill="midnightblue" stroke="midnightblue" points="492.294,-125.471 482.025,-128.077 491.678,-132.444 492.294,-125.471"/>
</g>
<!-- Node34&#45;&gt;Node9 -->
<g id="edge64" class="edge"><title>Node34&#45;&gt;Node9</title>
<path fill="none" stroke="midnightblue" d="M1244.7,-173.964C1265.46,-160.173 1308.13,-132.473 1346,-112 1379.23,-94.0345 1402.72,-107.872 1423,-76 1439.66,-49.8246 1403.93,-32.4716 1369.72,-22.331"/>
<polygon fill="midnightblue" stroke="midnightblue" points="1370.26,-18.8476 1359.68,-19.5373 1368.38,-25.5912 1370.26,-18.8476"/>
</g>
</g>
</svg>
