<?xml version="1.0" encoding="UTF-8" standalone="no"?>
<!DOCTYPE svg PUBLIC "-//W3C//DTD SVG 1.1//EN"
 "http://www.w3.org/Graphics/SVG/1.1/DTD/svg11.dtd">
<!-- Generated by graphviz version 2.38.0 (20140413.2041)
 -->
<!-- Title: crypto.h Pages: 1 -->
<svg width="1255pt" height="364pt"
 viewBox="0.00 0.00 1255.35 364.00" xmlns="http://www.w3.org/2000/svg" xmlns:xlink="http://www.w3.org/1999/xlink">
<g id="graph0" class="graph" transform="scale(1 1) rotate(0) translate(4 360)">
<title>crypto.h</title>
<polygon fill="white" stroke="none" points="-4,4 -4,-360 1251.35,-360 1251.35,4 -4,4"/>
<!-- Node0 -->
<g id="node1" class="node"><title>Node0</title>
<polygon fill="#bfbfbf" stroke="black" points="216.846,-336.5 216.846,-355.5 272.846,-355.5 272.846,-336.5 216.846,-336.5"/>
<text text-anchor="middle" x="244.846" y="-343.5" font-family="Helvetica,sans-Serif" font-size="10.00">crypto.h</text>
</g>
<!-- Node1 -->
<g id="node2" class="node"><title>Node1</title>
<g id="a_node2"><a xlink:href="visibility__begin_8h_source.html" target="_top" xlink:title="odp/visibility_begin.h">
<polygon fill="white" stroke="black" points="212.346,-0.5 212.346,-19.5 327.346,-19.5 327.346,-0.5 212.346,-0.5"/>
<text text-anchor="middle" x="269.846" y="-7.5" font-family="Helvetica,sans-Serif" font-size="10.00">odp/visibility_begin.h</text>
</a>
</g>
</g>
<!-- Node0&#45;&gt;Node1 -->
<g id="edge1" class="edge"><title>Node0&#45;&gt;Node1</title>
<path fill="none" stroke="midnightblue" d="M216.378,-344.897C152.014,-343.016 0.845709,-328.631 0.845709,-235 0.845709,-235 0.845709,-235 0.845709,-121 0.845709,-90.9022 -2.53713,-76.1218 19.8457,-56 46.1122,-32.3869 137.385,-20.7057 202.032,-15.2693"/>
<polygon fill="midnightblue" stroke="midnightblue" points="202.479,-18.7446 212.164,-14.4496 201.915,-11.7674 202.479,-18.7446"/>
</g>
<!-- Node2 -->
<g id="node3" class="node"><title>Node2</title>
<g id="a_node3"><a xlink:href="deprecated_8h.html" target="_top" xlink:title="Control deprecated API definitions. ">
<polygon fill="white" stroke="black" points="185.346,-168.5 185.346,-187.5 304.346,-187.5 304.346,-168.5 185.346,-168.5"/>
<text text-anchor="middle" x="244.846" y="-175.5" font-family="Helvetica,sans-Serif" font-size="10.00">odp/api/deprecated.h</text>
</a>
</g>
</g>
<!-- Node0&#45;&gt;Node2 -->
<g id="edge2" class="edge"><title>Node0&#45;&gt;Node2</title>
<path fill="none" stroke="midnightblue" d="M244.846,-336.075C244.846,-309.945 244.846,-233.211 244.846,-197.577"/>
<polygon fill="midnightblue" stroke="midnightblue" points="248.346,-197.568 244.846,-187.568 241.346,-197.568 248.346,-197.568"/>
</g>
<!-- Node4 -->
<g id="node5" class="node"><title>Node4</title>
<g id="a_node5"><a xlink:href="visibility__end_8h_source.html" target="_top" xlink:title="odp/visibility_end.h">
<polygon fill="white" stroke="black" points="371.346,-0.5 371.346,-19.5 478.346,-19.5 478.346,-0.5 371.346,-0.5"/>
<text text-anchor="middle" x="424.846" y="-7.5" font-family="Helvetica,sans-Serif" font-size="10.00">odp/visibility_end.h</text>
</a>
</g>
</g>
<!-- Node0&#45;&gt;Node4 -->
<g id="edge31" class="edge"><title>Node0&#45;&gt;Node4</title>
<path fill="none" stroke="midnightblue" d="M249.476,-336.408C273.3,-292.201 382.232,-90.0719 415.3,-28.7129"/>
<polygon fill="midnightblue" stroke="midnightblue" points="418.583,-29.9986 420.246,-19.5351 412.421,-26.6776 418.583,-29.9986"/>
</g>
<!-- Node5 -->
<g id="node6" class="node"><title>Node5</title>
<g id="a_node6"><a xlink:href="support_8h.html" target="_top" xlink:title="ODP support API &#45; platform specific header. ">
<polygon fill="white" stroke="black" points="96.3457,-280.5 96.3457,-299.5 197.346,-299.5 197.346,-280.5 96.3457,-280.5"/>
<text text-anchor="middle" x="146.846" y="-287.5" font-family="Helvetica,sans-Serif" font-size="10.00">odp/api/support.h</text>
</a>
</g>
</g>
<!-- Node0&#45;&gt;Node5 -->
<g id="edge6" class="edge"><title>Node0&#45;&gt;Node5</title>
<path fill="none" stroke="midnightblue" d="M229.1,-336.324C213.527,-327.743 189.468,-314.486 171.386,-304.522"/>
<polygon fill="midnightblue" stroke="midnightblue" points="173,-301.415 162.552,-299.655 169.621,-307.546 173,-301.415"/>
</g>
<!-- Node7 -->
<g id="node8" class="node"><title>Node7</title>
<g id="a_node8"><a xlink:href="api_2packet_8h.html" target="_top" xlink:title="ODP packet descriptor. ">
<polygon fill="white" stroke="black" points="741.846,-280.5 741.846,-299.5 837.846,-299.5 837.846,-280.5 741.846,-280.5"/>
<text text-anchor="middle" x="789.846" y="-287.5" font-family="Helvetica,sans-Serif" font-size="10.00">odp/api/packet.h</text>
</a>
</g>
</g>
<!-- Node0&#45;&gt;Node7 -->
<g id="edge10" class="edge"><title>Node0&#45;&gt;Node7</title>
<path fill="none" stroke="midnightblue" d="M273,-342.21C358.268,-333.762 614.958,-308.328 731.343,-296.797"/>
<polygon fill="midnightblue" stroke="midnightblue" points="731.883,-300.26 741.489,-295.791 731.193,-293.294 731.883,-300.26"/>
</g>
<!-- Node3 -->
<g id="node4" class="node"><title>Node3</title>
<g id="a_node4"><a xlink:href="spec_2deprecated_8h.html" target="_top" xlink:title="Macro for deprecated API definitions. ">
<polygon fill="white" stroke="black" points="172.846,-56.5 172.846,-75.5 316.846,-75.5 316.846,-56.5 172.846,-56.5"/>
<text text-anchor="middle" x="244.846" y="-63.5" font-family="Helvetica,sans-Serif" font-size="10.00">odp/api/spec/deprecated.h</text>
</a>
</g>
</g>
<!-- Node2&#45;&gt;Node3 -->
<g id="edge3" class="edge"><title>Node2&#45;&gt;Node3</title>
<path fill="none" stroke="midnightblue" d="M244.846,-168.368C244.846,-150.617 244.846,-109.666 244.846,-85.5974"/>
<polygon fill="midnightblue" stroke="midnightblue" points="248.346,-85.5914 244.846,-75.5914 241.346,-85.5915 248.346,-85.5914"/>
</g>
<!-- Node3&#45;&gt;Node1 -->
<g id="edge4" class="edge"><title>Node3&#45;&gt;Node1</title>
<path fill="none" stroke="midnightblue" d="M248.974,-56.083C252.36,-48.77 257.262,-38.1814 261.465,-29.1034"/>
<polygon fill="midnightblue" stroke="midnightblue" points="264.769,-30.2962 265.794,-19.7511 258.417,-27.3553 264.769,-30.2962"/>
</g>
<!-- Node3&#45;&gt;Node4 -->
<g id="edge5" class="edge"><title>Node3&#45;&gt;Node4</title>
<path fill="none" stroke="midnightblue" d="M273.367,-56.4435C303.912,-47.2801 352.554,-32.6876 386.448,-22.5192"/>
<polygon fill="midnightblue" stroke="midnightblue" points="387.885,-25.7424 396.458,-19.5164 385.874,-19.0376 387.885,-25.7424"/>
</g>
<!-- Node6 -->
<g id="node7" class="node"><title>Node6</title>
<g id="a_node7"><a xlink:href="spec_2support_8h.html" target="_top" xlink:title="ODP support API. ">
<polygon fill="white" stroke="black" points="28.8457,-56.5 28.8457,-75.5 154.846,-75.5 154.846,-56.5 28.8457,-56.5"/>
<text text-anchor="middle" x="91.8457" y="-63.5" font-family="Helvetica,sans-Serif" font-size="10.00">odp/api/spec/support.h</text>
</a>
</g>
</g>
<!-- Node5&#45;&gt;Node6 -->
<g id="edge7" class="edge"><title>Node5&#45;&gt;Node6</title>
<path fill="none" stroke="midnightblue" d="M144.69,-280.297C136.58,-247.563 107.795,-131.375 96.4703,-85.6664"/>
<polygon fill="midnightblue" stroke="midnightblue" points="99.8488,-84.7486 94.0466,-75.8837 93.0542,-86.432 99.8488,-84.7486"/>
</g>
<!-- Node6&#45;&gt;Node1 -->
<g id="edge8" class="edge"><title>Node6&#45;&gt;Node1</title>
<path fill="none" stroke="midnightblue" d="M120.05,-56.4435C150.256,-47.2801 198.357,-32.6876 231.875,-22.5192"/>
<polygon fill="midnightblue" stroke="midnightblue" points="233.22,-25.7688 241.773,-19.5164 231.188,-19.0703 233.22,-25.7688"/>
</g>
<!-- Node6&#45;&gt;Node4 -->
<g id="edge9" class="edge"><title>Node6&#45;&gt;Node4</title>
<path fill="none" stroke="midnightblue" d="M144.611,-56.4435C203.676,-46.8654 299.32,-31.3556 362.151,-21.1667"/>
<polygon fill="midnightblue" stroke="midnightblue" points="363.017,-24.5721 372.328,-19.5164 361.896,-17.6624 363.017,-24.5721"/>
</g>
<!-- Node8 -->
<g id="node9" class="node"><title>Node8</title>
<g id="a_node9"><a xlink:href="api_2std__types_8h.html" target="_top" xlink:title="Standard C language types and definitions for ODP. ">
<polygon fill="white" stroke="black" points="699.846,-112.5 699.846,-131.5 809.846,-131.5 809.846,-112.5 699.846,-112.5"/>
<text text-anchor="middle" x="754.846" y="-119.5" font-family="Helvetica,sans-Serif" font-size="10.00">odp/api/std_types.h</text>
</a>
</g>
</g>
<!-- Node7&#45;&gt;Node8 -->
<g id="edge11" class="edge"><title>Node7&#45;&gt;Node8</title>
<path fill="none" stroke="midnightblue" d="M797.233,-280.379C806.813,-268.125 821.651,-244.841 815.846,-224 806.735,-191.292 783.85,-158.598 768.847,-139.612"/>
<polygon fill="midnightblue" stroke="midnightblue" points="771.421,-137.23 762.398,-131.677 765.989,-141.645 771.421,-137.23"/>
</g>
<!-- Node12 -->
<g id="node13" class="node"><title>Node12</title>
<polygon fill="white" stroke="#bfbfbf" points="862.846,-224.5 862.846,-243.5 970.846,-243.5 970.846,-224.5 862.846,-224.5"/>
<text text-anchor="middle" x="916.846" y="-231.5" font-family="Helvetica,sans-Serif" font-size="10.00">odp/api/abi/event.h</text>
</g>
<!-- Node7&#45;&gt;Node12 -->
<g id="edge17" class="edge"><title>Node7&#45;&gt;Node12</title>
<path fill="none" stroke="midnightblue" d="M809.969,-280.444C830.87,-271.557 863.78,-257.563 887.562,-247.451"/>
<polygon fill="midnightblue" stroke="midnightblue" points="888.983,-250.65 896.816,-243.516 886.244,-244.208 888.983,-250.65"/>
</g>
<!-- Node13 -->
<g id="node14" class="node"><title>Node13</title>
<polygon fill="white" stroke="#bfbfbf" points="989.346,-224.5 989.346,-243.5 1116.35,-243.5 1116.35,-224.5 989.346,-224.5"/>
<text text-anchor="middle" x="1052.85" y="-231.5" font-family="Helvetica,sans-Serif" font-size="10.00">odp/api/abi/packet_io.h</text>
</g>
<!-- Node7&#45;&gt;Node13 -->
<g id="edge18" class="edge"><title>Node7&#45;&gt;Node13</title>
<path fill="none" stroke="midnightblue" d="M831.519,-280.444C877.591,-270.984 951.842,-255.738 1001.48,-245.547"/>
<polygon fill="midnightblue" stroke="midnightblue" points="1002.28,-248.956 1011.37,-243.516 1000.87,-242.099 1002.28,-248.956"/>
</g>
<!-- Node14 -->
<g id="node15" class="node"><title>Node14</title>
<polygon fill="white" stroke="#bfbfbf" points="1134.35,-224.5 1134.35,-243.5 1247.35,-243.5 1247.35,-224.5 1134.35,-224.5"/>
<text text-anchor="middle" x="1190.85" y="-231.5" font-family="Helvetica,sans-Serif" font-size="10.00">odp/api/abi/packet.h</text>
</g>
<!-- Node7&#45;&gt;Node14 -->
<g id="edge19" class="edge"><title>Node7&#45;&gt;Node14</title>
<path fill="none" stroke="midnightblue" d="M837.984,-282.621C901.252,-274.223 1016.13,-258.921 1124.04,-244.241"/>
<polygon fill="midnightblue" stroke="midnightblue" points="1124.69,-247.685 1134.13,-242.868 1123.75,-240.749 1124.69,-247.685"/>
</g>
<!-- Node15 -->
<g id="node16" class="node"><title>Node15</title>
<polygon fill="white" stroke="#bfbfbf" points="438.846,-224.5 438.846,-243.5 546.846,-243.5 546.846,-224.5 438.846,-224.5"/>
<text text-anchor="middle" x="492.846" y="-231.5" font-family="Helvetica,sans-Serif" font-size="10.00">odp/api/abi/buffer.h</text>
</g>
<!-- Node7&#45;&gt;Node15 -->
<g id="edge20" class="edge"><title>Node7&#45;&gt;Node15</title>
<path fill="none" stroke="midnightblue" d="M742.785,-280.444C690.431,-270.925 605.855,-255.547 549.806,-245.356"/>
<polygon fill="midnightblue" stroke="midnightblue" points="550.151,-241.862 539.686,-243.516 548.899,-248.749 550.151,-241.862"/>
</g>
<!-- Node16 -->
<g id="node17" class="node"><title>Node16</title>
<polygon fill="white" stroke="#bfbfbf" points="565.346,-224.5 565.346,-243.5 666.346,-243.5 666.346,-224.5 565.346,-224.5"/>
<text text-anchor="middle" x="615.846" y="-231.5" font-family="Helvetica,sans-Serif" font-size="10.00">odp/api/abi/pool.h</text>
</g>
<!-- Node7&#45;&gt;Node16 -->
<g id="edge21" class="edge"><title>Node7&#45;&gt;Node16</title>
<path fill="none" stroke="midnightblue" d="M762.275,-280.444C732.748,-271.28 685.728,-256.688 652.963,-246.519"/>
<polygon fill="midnightblue" stroke="midnightblue" points="653.876,-243.138 643.288,-243.516 651.801,-249.823 653.876,-243.138"/>
</g>
<!-- Node17 -->
<g id="node18" class="node"><title>Node17</title>
<g id="a_node18"><a xlink:href="api_2spec_2packet_8h.html" target="_top" xlink:title="ODP packet descriptor. ">
<polygon fill="white" stroke="black" points="684.846,-224.5 684.846,-243.5 806.846,-243.5 806.846,-224.5 684.846,-224.5"/>
<text text-anchor="middle" x="745.846" y="-231.5" font-family="Helvetica,sans-Serif" font-size="10.00">odp/api/spec/packet.h</text>
</a>
</g>
</g>
<!-- Node7&#45;&gt;Node17 -->
<g id="edge22" class="edge"><title>Node7&#45;&gt;Node17</title>
<path fill="none" stroke="midnightblue" d="M782.58,-280.083C776.301,-272.377 767.058,-261.033 759.415,-251.653"/>
<polygon fill="midnightblue" stroke="midnightblue" points="762.006,-249.293 752.976,-243.751 756.58,-253.714 762.006,-249.293"/>
</g>
<!-- Node9 -->
<g id="node10" class="node"><title>Node9</title>
<polygon fill="white" stroke="#bfbfbf" points="540.846,-56.5 540.846,-75.5 668.846,-75.5 668.846,-56.5 540.846,-56.5"/>
<text text-anchor="middle" x="604.846" y="-63.5" font-family="Helvetica,sans-Serif" font-size="10.00">odp/api/abi/std_types.h</text>
</g>
<!-- Node8&#45;&gt;Node9 -->
<g id="edge12" class="edge"><title>Node8&#45;&gt;Node9</title>
<path fill="none" stroke="midnightblue" d="M731.078,-112.444C705.953,-103.399 666.135,-89.064 637.945,-78.9158"/>
<polygon fill="midnightblue" stroke="midnightblue" points="639.097,-75.6106 628.502,-75.5164 636.726,-82.1968 639.097,-75.6106"/>
</g>
<!-- Node10 -->
<g id="node11" class="node"><title>Node10</title>
<g id="a_node11"><a xlink:href="api_2spec_2std__types_8h.html" target="_top" xlink:title="Standard C language types and definitions for ODP. ">
<polygon fill="white" stroke="black" points="686.846,-56.5 686.846,-75.5 822.846,-75.5 822.846,-56.5 686.846,-56.5"/>
<text text-anchor="middle" x="754.846" y="-63.5" font-family="Helvetica,sans-Serif" font-size="10.00">odp/api/spec/std_types.h</text>
</a>
</g>
</g>
<!-- Node8&#45;&gt;Node10 -->
<g id="edge13" class="edge"><title>Node8&#45;&gt;Node10</title>
<path fill="none" stroke="midnightblue" d="M754.846,-112.083C754.846,-105.006 754.846,-94.8611 754.846,-85.9865"/>
<polygon fill="midnightblue" stroke="midnightblue" points="758.346,-85.751 754.846,-75.7511 751.346,-85.7511 758.346,-85.751"/>
</g>
<!-- Node10&#45;&gt;Node1 -->
<g id="edge14" class="edge"><title>Node10&#45;&gt;Node1</title>
<path fill="none" stroke="midnightblue" d="M686.828,-57.0256C683.793,-56.6774 680.788,-56.3342 677.846,-56 558.166,-42.4059 418.667,-27.1463 337.69,-18.3464"/>
<polygon fill="midnightblue" stroke="midnightblue" points="337.947,-14.8538 327.628,-17.2533 337.191,-21.8128 337.947,-14.8538"/>
</g>
<!-- Node10&#45;&gt;Node4 -->
<g id="edge16" class="edge"><title>Node10&#45;&gt;Node4</title>
<path fill="none" stroke="midnightblue" d="M702.556,-56.4435C644.023,-46.8654 549.241,-31.3556 486.975,-21.1667"/>
<polygon fill="midnightblue" stroke="midnightblue" points="487.325,-17.6773 476.891,-19.5164 486.194,-24.5855 487.325,-17.6773"/>
</g>
<!-- Node11 -->
<g id="node12" class="node"><title>Node11</title>
<polygon fill="white" stroke="#bfbfbf" points="728.346,-0.5 728.346,-19.5 781.346,-19.5 781.346,-0.5 728.346,-0.5"/>
<text text-anchor="middle" x="754.846" y="-7.5" font-family="Helvetica,sans-Serif" font-size="10.00">stdint.h</text>
</g>
<!-- Node10&#45;&gt;Node11 -->
<g id="edge15" class="edge"><title>Node10&#45;&gt;Node11</title>
<path fill="none" stroke="midnightblue" d="M754.846,-56.083C754.846,-49.0059 754.846,-38.8611 754.846,-29.9865"/>
<polygon fill="midnightblue" stroke="midnightblue" points="758.346,-29.751 754.846,-19.7511 751.346,-29.7511 758.346,-29.751"/>
</g>
<!-- Node17&#45;&gt;Node1 -->
<g id="edge23" class="edge"><title>Node17&#45;&gt;Node1</title>
<path fill="none" stroke="midnightblue" d="M720.727,-224.427C696.24,-215.872 658.086,-202.016 625.846,-188 498.689,-132.721 351.889,-55.2111 294.567,-24.3957"/>
<polygon fill="midnightblue" stroke="midnightblue" points="296.001,-21.1929 285.538,-19.5297 292.68,-27.355 296.001,-21.1929"/>
</g>
<!-- Node17&#45;&gt;Node4 -->
<g id="edge30" class="edge"><title>Node17&#45;&gt;Node4</title>
<path fill="none" stroke="midnightblue" d="M756.419,-224.285C788.619,-196.744 880.392,-110.21 831.846,-56 809.391,-30.9253 597.403,-18.3224 488.608,-13.4615"/>
<polygon fill="midnightblue" stroke="midnightblue" points="488.555,-9.95591 478.412,-13.0151 488.249,-16.9492 488.555,-9.95591"/>
</g>
<!-- Node18 -->
<g id="node19" class="node"><title>Node18</title>
<g id="a_node19"><a xlink:href="api_2time_8h.html" target="_top" xlink:title="ODP time. ">
<polygon fill="white" stroke="black" points="634.846,-168.5 634.846,-187.5 720.846,-187.5 720.846,-168.5 634.846,-168.5"/>
<text text-anchor="middle" x="677.846" y="-175.5" font-family="Helvetica,sans-Serif" font-size="10.00">odp/api/time.h</text>
</a>
</g>
</g>
<!-- Node17&#45;&gt;Node18 -->
<g id="edge24" class="edge"><title>Node17&#45;&gt;Node18</title>
<path fill="none" stroke="midnightblue" d="M734.92,-224.324C724.671,-216.185 709.125,-203.839 696.845,-194.087"/>
<polygon fill="midnightblue" stroke="midnightblue" points="698.978,-191.312 688.97,-187.834 694.624,-196.794 698.978,-191.312"/>
</g>
<!-- Node18&#45;&gt;Node8 -->
<g id="edge25" class="edge"><title>Node18&#45;&gt;Node8</title>
<path fill="none" stroke="midnightblue" d="M690.217,-168.324C702.004,-160.058 719.978,-147.453 733.981,-137.632"/>
<polygon fill="midnightblue" stroke="midnightblue" points="736.327,-140.262 742.505,-131.655 732.308,-134.531 736.327,-140.262"/>
</g>
<!-- Node19 -->
<g id="node20" class="node"><title>Node19</title>
<polygon fill="white" stroke="#bfbfbf" points="578.346,-112.5 578.346,-131.5 681.346,-131.5 681.346,-112.5 578.346,-112.5"/>
<text text-anchor="middle" x="629.846" y="-119.5" font-family="Helvetica,sans-Serif" font-size="10.00">odp/api/abi/time.h</text>
</g>
<!-- Node18&#45;&gt;Node19 -->
<g id="edge26" class="edge"><title>Node18&#45;&gt;Node19</title>
<path fill="none" stroke="midnightblue" d="M669.919,-168.083C663,-160.298 652.78,-148.801 644.394,-139.367"/>
<polygon fill="midnightblue" stroke="midnightblue" points="646.884,-136.9 637.624,-131.751 641.652,-141.55 646.884,-136.9"/>
</g>
<!-- Node20 -->
<g id="node21" class="node"><title>Node20</title>
<g id="a_node21"><a xlink:href="api_2spec_2time_8h.html" target="_top" xlink:title="ODP time. ">
<polygon fill="white" stroke="black" points="411.346,-56.5 411.346,-75.5 522.346,-75.5 522.346,-56.5 411.346,-56.5"/>
<text text-anchor="middle" x="466.846" y="-63.5" font-family="Helvetica,sans-Serif" font-size="10.00">odp/api/spec/time.h</text>
</a>
</g>
</g>
<!-- Node18&#45;&gt;Node20 -->
<g id="edge27" class="edge"><title>Node18&#45;&gt;Node20</title>
<path fill="none" stroke="midnightblue" d="M653.482,-168.349C631.02,-160.047 597.001,-146.638 568.846,-132 539.28,-116.628 507.173,-95.3363 487.038,-81.3711"/>
<polygon fill="midnightblue" stroke="midnightblue" points="488.879,-78.388 478.681,-75.5178 484.863,-84.1215 488.879,-78.388"/>
</g>
<!-- Node20&#45;&gt;Node1 -->
<g id="edge28" class="edge"><title>Node20&#45;&gt;Node1</title>
<path fill="none" stroke="midnightblue" d="M435.63,-56.4435C401.913,-47.2011 348.046,-32.4356 310.914,-22.2572"/>
<polygon fill="midnightblue" stroke="midnightblue" points="311.484,-18.7846 300.915,-19.5164 309.634,-25.5356 311.484,-18.7846"/>
</g>
<!-- Node20&#45;&gt;Node4 -->
<g id="edge29" class="edge"><title>Node20&#45;&gt;Node4</title>
<path fill="none" stroke="midnightblue" d="M459.91,-56.083C453.917,-48.3768 445.094,-37.0333 437.798,-27.6531"/>
<polygon fill="midnightblue" stroke="midnightblue" points="440.554,-25.4958 431.652,-19.7511 435.029,-29.7934 440.554,-25.4958"/>
</g>
</g>
</svg>
