<?xml version="1.0" encoding="UTF-8" standalone="no"?>
<!DOCTYPE svg PUBLIC "-//W3C//DTD SVG 1.1//EN"
 "http://www.w3.org/Graphics/SVG/1.1/DTD/svg11.dtd">
<!-- Generated by graphviz version 2.38.0 (20140413.2041)
 -->
<!-- Title: std_types.h Pages: 1 -->
<svg width="213pt" height="84pt"
 viewBox="0.00 0.00 213.00 84.00" xmlns="http://www.w3.org/2000/svg" xmlns:xlink="http://www.w3.org/1999/xlink">
<g id="graph0" class="graph" transform="scale(1 1) rotate(0) translate(4 80)">
<title>std_types.h</title>
<polygon fill="white" stroke="none" points="-4,4 -4,-80 209,-80 209,4 -4,4"/>
<!-- Node0 -->
<g id="node1" class="node"><title>Node0</title>
<polygon fill="#bfbfbf" stroke="black" points="62.5,-56.5 62.5,-75.5 134.5,-75.5 134.5,-56.5 62.5,-56.5"/>
<text text-anchor="middle" x="98.5" y="-63.5" font-family="Helvetica,sans-Serif" font-size="10.00">std_types.h</text>
</g>
<!-- Node1 -->
<g id="node2" class="node"><title>Node1</title>
<polygon fill="white" stroke="#bfbfbf" points="0,-0.5 0,-19.5 53,-19.5 53,-0.5 0,-0.5"/>
<text text-anchor="middle" x="26.5" y="-7.5" font-family="Helvetica,sans-Serif" font-size="10.00">stdint.h</text>
</g>
<!-- Node0&#45;&gt;Node1 -->
<g id="edge1" class="edge"><title>Node0&#45;&gt;Node1</title>
<path fill="none" stroke="midnightblue" d="M86.932,-56.324C76.0798,-48.1849 59.6193,-35.8395 46.6166,-26.0874"/>
<polygon fill="midnightblue" stroke="midnightblue" points="48.3786,-23.0339 38.2785,-19.8339 44.1785,-28.6339 48.3786,-23.0339"/>
</g>
<!-- Node2 -->
<g id="node3" class="node"><title>Node2</title>
<polygon fill="white" stroke="#bfbfbf" points="71,-0.5 71,-19.5 126,-19.5 126,-0.5 71,-0.5"/>
<text text-anchor="middle" x="98.5" y="-7.5" font-family="Helvetica,sans-Serif" font-size="10.00">stddef.h</text>
</g>
<!-- Node0&#45;&gt;Node2 -->
<g id="edge2" class="edge"><title>Node0&#45;&gt;Node2</title>
<path fill="none" stroke="midnightblue" d="M98.5,-56.083C98.5,-49.0059 98.5,-38.8611 98.5,-29.9865"/>
<polygon fill="midnightblue" stroke="midnightblue" points="102,-29.751 98.5,-19.7511 95.0001,-29.7511 102,-29.751"/>
</g>
<!-- Node3 -->
<g id="node4" class="node"><title>Node3</title>
<polygon fill="white" stroke="#bfbfbf" points="144,-0.5 144,-19.5 205,-19.5 205,-0.5 144,-0.5"/>
<text text-anchor="middle" x="174.5" y="-7.5" font-family="Helvetica,sans-Serif" font-size="10.00">stdbool.h</text>
</g>
<!-- Node0&#45;&gt;Node3 -->
<g id="edge3" class="edge"><title>Node0&#45;&gt;Node3</title>
<path fill="none" stroke="midnightblue" d="M110.711,-56.324C122.276,-48.1066 139.875,-35.6017 153.661,-25.8069"/>
<polygon fill="midnightblue" stroke="midnightblue" points="155.943,-28.4791 162.067,-19.8339 151.888,-22.7729 155.943,-28.4791"/>
</g>
</g>
</svg>
