<?xml version="1.0" encoding="UTF-8" standalone="no"?>
<!DOCTYPE svg PUBLIC "-//W3C//DTD SVG 1.1//EN"
 "http://www.w3.org/Graphics/SVG/1.1/DTD/svg11.dtd">
<!-- Generated by graphviz version 2.38.0 (20140413.2041)
 -->
<!-- Title: schedule.h Pages: 1 -->
<svg width="1840pt" height="610pt"
 viewBox="0.00 0.00 1839.50 610.00" xmlns="http://www.w3.org/2000/svg" xmlns:xlink="http://www.w3.org/1999/xlink">
<g id="graph0" class="graph" transform="scale(1 1) rotate(0) translate(4 606)">
<title>schedule.h</title>
<polygon fill="white" stroke="none" points="-4,4 -4,-606 1835.5,-606 1835.5,4 -4,4"/>
<!-- Node0 -->
<g id="node1" class="node"><title>Node0</title>
<polygon fill="#bfbfbf" stroke="black" points="573.5,-582.5 573.5,-601.5 641.5,-601.5 641.5,-582.5 573.5,-582.5"/>
<text text-anchor="middle" x="607.5" y="-589.5" font-family="Helvetica,sans-Serif" font-size="10.00">schedule.h</text>
</g>
<!-- Node1 -->
<g id="node2" class="node"><title>Node1</title>
<g id="a_node2"><a xlink:href="visibility__begin_8h_source.html" target="_top" xlink:title="odp/visibility_begin.h">
<polygon fill="white" stroke="black" points="900,-0.5 900,-19.5 1015,-19.5 1015,-0.5 900,-0.5"/>
<text text-anchor="middle" x="957.5" y="-7.5" font-family="Helvetica,sans-Serif" font-size="10.00">odp/visibility_begin.h</text>
</a>
</g>
</g>
<!-- Node0&#45;&gt;Node1 -->
<g id="edge1" class="edge"><title>Node0&#45;&gt;Node1</title>
<path fill="none" stroke="midnightblue" d="M573.45,-590.259C467.307,-585.98 149.5,-557.433 149.5,-369 149.5,-369 149.5,-369 149.5,-121 149.5,-70.2068 195.513,-72.6497 243.5,-56 361.576,-15.0321 735.263,-10.6664 889.7,-10.6729"/>
<polygon fill="midnightblue" stroke="midnightblue" points="889.99,-14.173 899.992,-10.6799 889.994,-7.17301 889.99,-14.173"/>
</g>
<!-- Node2 -->
<g id="node3" class="node"><title>Node2</title>
<g id="a_node3"><a xlink:href="api_2std__types_8h.html" target="_top" xlink:title="Standard C language types and definitions for ODP. ">
<polygon fill="white" stroke="black" points="461.5,-112.5 461.5,-131.5 571.5,-131.5 571.5,-112.5 461.5,-112.5"/>
<text text-anchor="middle" x="516.5" y="-119.5" font-family="Helvetica,sans-Serif" font-size="10.00">odp/api/std_types.h</text>
</a>
</g>
</g>
<!-- Node0&#45;&gt;Node2 -->
<g id="edge2" class="edge"><title>Node0&#45;&gt;Node2</title>
<path fill="none" stroke="midnightblue" d="M573.485,-588.993C473.498,-581.083 187.5,-543.231 187.5,-369 187.5,-369 187.5,-369 187.5,-305.5 187.5,-269.475 200.452,-258.796 227.5,-235 259.227,-207.088 279.783,-221.582 315.5,-199 332.784,-188.072 331.566,-177.826 349.5,-168 380.866,-150.814 419.196,-139.879 451.22,-133.098"/>
<polygon fill="midnightblue" stroke="midnightblue" points="452.273,-136.456 461.379,-131.04 450.883,-129.596 452.273,-136.456"/>
</g>
<!-- Node6 -->
<g id="node7" class="node"><title>Node6</title>
<g id="a_node7"><a xlink:href="visibility__end_8h_source.html" target="_top" xlink:title="odp/visibility_end.h">
<polygon fill="white" stroke="black" points="1454,-0.5 1454,-19.5 1561,-19.5 1561,-0.5 1454,-0.5"/>
<text text-anchor="middle" x="1507.5" y="-7.5" font-family="Helvetica,sans-Serif" font-size="10.00">odp/visibility_end.h</text>
</a>
</g>
</g>
<!-- Node0&#45;&gt;Node6 -->
<g id="edge62" class="edge"><title>Node0&#45;&gt;Node6</title>
<path fill="none" stroke="midnightblue" d="M641.561,-591.206C800.968,-591.919 1474.15,-592.095 1678.5,-546 1750.57,-529.742 1831.5,-554.882 1831.5,-481 1831.5,-481 1831.5,-481 1831.5,-121 1831.5,-71.2977 1786.17,-75.6073 1740.5,-56 1686.07,-32.6329 1619.29,-21.3189 1571.19,-15.8899"/>
<polygon fill="midnightblue" stroke="midnightblue" points="1571.54,-12.4073 1561.23,-14.8185 1570.79,-19.3672 1571.54,-12.4073"/>
</g>
<!-- Node7 -->
<g id="node8" class="node"><title>Node7</title>
<g id="a_node8"><a xlink:href="api_2event_8h.html" target="_top" xlink:title="ODP event. ">
<polygon fill="white" stroke="black" points="948,-414.5 948,-433.5 1039,-433.5 1039,-414.5 948,-414.5"/>
<text text-anchor="middle" x="993.5" y="-421.5" font-family="Helvetica,sans-Serif" font-size="10.00">odp/api/event.h</text>
</a>
</g>
</g>
<!-- Node0&#45;&gt;Node7 -->
<g id="edge8" class="edge"><title>Node0&#45;&gt;Node7</title>
<path fill="none" stroke="midnightblue" d="M627.44,-582.425C690.971,-555.103 888.859,-470.001 964.081,-437.652"/>
<polygon fill="midnightblue" stroke="midnightblue" points="965.644,-440.79 973.447,-433.624 962.878,-434.359 965.644,-440.79"/>
</g>
<!-- Node19 -->
<g id="node20" class="node"><title>Node19</title>
<g id="a_node20"><a xlink:href="api_2queue_8h.html" target="_top" xlink:title="ODP queue. ">
<polygon fill="white" stroke="black" points="560.5,-526.5 560.5,-545.5 654.5,-545.5 654.5,-526.5 560.5,-526.5"/>
<text text-anchor="middle" x="607.5" y="-533.5" font-family="Helvetica,sans-Serif" font-size="10.00">odp/api/queue.h</text>
</a>
</g>
</g>
<!-- Node0&#45;&gt;Node19 -->
<g id="edge29" class="edge"><title>Node0&#45;&gt;Node19</title>
<path fill="none" stroke="midnightblue" d="M607.5,-582.083C607.5,-575.006 607.5,-564.861 607.5,-555.986"/>
<polygon fill="midnightblue" stroke="midnightblue" points="611,-555.751 607.5,-545.751 604,-555.751 611,-555.751"/>
</g>
<!-- Node23 -->
<g id="node24" class="node"><title>Node23</title>
<g id="a_node24"><a xlink:href="api_2schedule__types_8h.html" target="_top" xlink:title="ODP schedule. ">
<polygon fill="white" stroke="black" points="1627.5,-235.5 1627.5,-254.5 1765.5,-254.5 1765.5,-235.5 1627.5,-235.5"/>
<text text-anchor="middle" x="1696.5" y="-242.5" font-family="Helvetica,sans-Serif" font-size="10.00">odp/api/schedule_types.h</text>
</a>
</g>
</g>
<!-- Node0&#45;&gt;Node23 -->
<g id="edge55" class="edge"><title>Node0&#45;&gt;Node23</title>
<path fill="none" stroke="midnightblue" d="M641.546,-591.398C831.865,-593.185 1755.5,-595.938 1755.5,-481 1755.5,-481 1755.5,-481 1755.5,-367 1755.5,-326.148 1727.99,-284.671 1710.54,-262.469"/>
<polygon fill="midnightblue" stroke="midnightblue" points="1713.24,-260.239 1704.21,-254.693 1707.81,-264.658 1713.24,-260.239"/>
</g>
<!-- Node30 -->
<g id="node31" class="node"><title>Node30</title>
<g id="a_node31"><a xlink:href="api_2thrmask_8h.html" target="_top" xlink:title="ODP thread masks. ">
<polygon fill="white" stroke="black" points="17.5,-235.5 17.5,-254.5 121.5,-254.5 121.5,-235.5 17.5,-235.5"/>
<text text-anchor="middle" x="69.5" y="-242.5" font-family="Helvetica,sans-Serif" font-size="10.00">odp/api/thrmask.h</text>
</a>
</g>
</g>
<!-- Node0&#45;&gt;Node30 -->
<g id="edge56" class="edge"><title>Node0&#45;&gt;Node30</title>
<path fill="none" stroke="midnightblue" d="M573.163,-589.814C470.367,-585.977 170.029,-572.582 135.5,-546 111.098,-527.215 111.5,-511.795 111.5,-481 111.5,-481 111.5,-481 111.5,-367 111.5,-328.454 92.2423,-286.629 79.8071,-263.64"/>
<polygon fill="midnightblue" stroke="midnightblue" points="82.7626,-261.755 74.8193,-254.743 76.6566,-265.178 82.7626,-261.755"/>
</g>
<!-- Node3 -->
<g id="node4" class="node"><title>Node3</title>
<polygon fill="white" stroke="#bfbfbf" points="462.5,-56.5 462.5,-75.5 590.5,-75.5 590.5,-56.5 462.5,-56.5"/>
<text text-anchor="middle" x="526.5" y="-63.5" font-family="Helvetica,sans-Serif" font-size="10.00">odp/api/abi/std_types.h</text>
</g>
<!-- Node2&#45;&gt;Node3 -->
<g id="edge3" class="edge"><title>Node2&#45;&gt;Node3</title>
<path fill="none" stroke="midnightblue" d="M518.151,-112.083C519.476,-104.927 521.382,-94.6353 523.039,-85.6911"/>
<polygon fill="midnightblue" stroke="midnightblue" points="526.5,-86.2212 524.879,-75.7511 519.617,-84.9466 526.5,-86.2212"/>
</g>
<!-- Node4 -->
<g id="node5" class="node"><title>Node4</title>
<g id="a_node5"><a xlink:href="api_2spec_2std__types_8h.html" target="_top" xlink:title="Standard C language types and definitions for ODP. ">
<polygon fill="white" stroke="black" points="270.5,-56.5 270.5,-75.5 406.5,-75.5 406.5,-56.5 270.5,-56.5"/>
<text text-anchor="middle" x="338.5" y="-63.5" font-family="Helvetica,sans-Serif" font-size="10.00">odp/api/spec/std_types.h</text>
</a>
</g>
</g>
<!-- Node2&#45;&gt;Node4 -->
<g id="edge4" class="edge"><title>Node2&#45;&gt;Node4</title>
<path fill="none" stroke="midnightblue" d="M488.295,-112.444C458.09,-103.28 409.989,-88.6876 376.471,-78.5192"/>
<polygon fill="midnightblue" stroke="midnightblue" points="377.158,-75.0703 366.573,-75.5164 375.126,-81.7688 377.158,-75.0703"/>
</g>
<!-- Node4&#45;&gt;Node1 -->
<g id="edge5" class="edge"><title>Node4&#45;&gt;Node1</title>
<path fill="none" stroke="midnightblue" d="M406.943,-57.3549C411.53,-56.8836 416.081,-56.4276 420.5,-56 589.08,-39.688 787.774,-23.943 889.689,-16.1203"/>
<polygon fill="midnightblue" stroke="midnightblue" points="890.138,-19.5963 899.841,-15.3427 889.603,-12.6167 890.138,-19.5963"/>
</g>
<!-- Node5 -->
<g id="node6" class="node"><title>Node5</title>
<polygon fill="white" stroke="#bfbfbf" points="312,-0.5 312,-19.5 365,-19.5 365,-0.5 312,-0.5"/>
<text text-anchor="middle" x="338.5" y="-7.5" font-family="Helvetica,sans-Serif" font-size="10.00">stdint.h</text>
</g>
<!-- Node4&#45;&gt;Node5 -->
<g id="edge6" class="edge"><title>Node4&#45;&gt;Node5</title>
<path fill="none" stroke="midnightblue" d="M338.5,-56.083C338.5,-49.0059 338.5,-38.8611 338.5,-29.9865"/>
<polygon fill="midnightblue" stroke="midnightblue" points="342,-29.751 338.5,-19.7511 335,-29.7511 342,-29.751"/>
</g>
<!-- Node4&#45;&gt;Node6 -->
<g id="edge7" class="edge"><title>Node4&#45;&gt;Node6</title>
<path fill="none" stroke="midnightblue" d="M406.924,-57.1384C411.516,-56.7194 416.073,-56.3342 420.5,-56 808.597,-26.7028 1276.19,-15.414 1443.85,-12.1246"/>
<polygon fill="midnightblue" stroke="midnightblue" points="1444.05,-15.6214 1453.98,-11.9284 1443.92,-8.6227 1444.05,-15.6214"/>
</g>
<!-- Node8 -->
<g id="node9" class="node"><title>Node8</title>
<polygon fill="white" stroke="#bfbfbf" points="253.5,-235.5 253.5,-254.5 361.5,-254.5 361.5,-235.5 253.5,-235.5"/>
<text text-anchor="middle" x="307.5" y="-242.5" font-family="Helvetica,sans-Serif" font-size="10.00">odp/api/abi/event.h</text>
</g>
<!-- Node7&#45;&gt;Node8 -->
<g id="edge9" class="edge"><title>Node7&#45;&gt;Node8</title>
<path fill="none" stroke="midnightblue" d="M951.08,-414.493C871.882,-398.354 696.342,-361.366 550.5,-322 475.556,-301.771 389.082,-273.531 342.164,-257.791"/>
<polygon fill="midnightblue" stroke="midnightblue" points="343.089,-254.41 332.495,-254.536 340.856,-261.044 343.089,-254.41"/>
</g>
<!-- Node9 -->
<g id="node10" class="node"><title>Node9</title>
<g id="a_node10"><a xlink:href="api_2spec_2event_8h.html" target="_top" xlink:title="ODP event. ">
<polygon fill="white" stroke="black" points="960.5,-358.5 960.5,-377.5 1076.5,-377.5 1076.5,-358.5 960.5,-358.5"/>
<text text-anchor="middle" x="1018.5" y="-365.5" font-family="Helvetica,sans-Serif" font-size="10.00">odp/api/spec/event.h</text>
</a>
</g>
</g>
<!-- Node7&#45;&gt;Node9 -->
<g id="edge10" class="edge"><title>Node7&#45;&gt;Node9</title>
<path fill="none" stroke="midnightblue" d="M997.628,-414.083C1001.01,-406.77 1005.92,-396.181 1010.12,-387.103"/>
<polygon fill="midnightblue" stroke="midnightblue" points="1013.42,-388.296 1014.45,-377.751 1007.07,-385.355 1013.42,-388.296"/>
</g>
<!-- Node9&#45;&gt;Node1 -->
<g id="edge11" class="edge"><title>Node9&#45;&gt;Node1</title>
<path fill="none" stroke="midnightblue" d="M1026.39,-358.437C1044.65,-337.54 1087.03,-282.188 1070.5,-235 1040.6,-149.645 973.404,-161.355 943.5,-76 938.079,-60.5268 942.983,-42.215 948.423,-28.9773"/>
<polygon fill="midnightblue" stroke="midnightblue" points="951.736,-30.1495 952.714,-19.6 945.371,-27.2366 951.736,-30.1495"/>
</g>
<!-- Node9&#45;&gt;Node6 -->
<g id="edge28" class="edge"><title>Node9&#45;&gt;Node6</title>
<path fill="none" stroke="midnightblue" d="M1073.19,-358.484C1199.44,-337.593 1504.99,-279.575 1564.5,-199 1604.47,-144.877 1548.99,-62.5238 1521.43,-27.5927"/>
<polygon fill="midnightblue" stroke="midnightblue" points="1524.12,-25.3469 1515.1,-19.7797 1518.68,-29.7532 1524.12,-25.3469"/>
</g>
<!-- Node10 -->
<g id="node11" class="node"><title>Node10</title>
<g id="a_node11"><a xlink:href="api_2packet_8h.html" target="_top" xlink:title="ODP packet descriptor. ">
<polygon fill="white" stroke="black" points="559.5,-297 559.5,-316 655.5,-316 655.5,-297 559.5,-297"/>
<text text-anchor="middle" x="607.5" y="-304" font-family="Helvetica,sans-Serif" font-size="10.00">odp/api/packet.h</text>
</a>
</g>
</g>
<!-- Node9&#45;&gt;Node10 -->
<g id="edge12" class="edge"><title>Node9&#45;&gt;Node10</title>
<path fill="none" stroke="midnightblue" d="M960.485,-358.601C882.344,-347.289 744.069,-327.271 665.787,-315.938"/>
<polygon fill="midnightblue" stroke="midnightblue" points="666.015,-312.435 655.617,-314.466 665.012,-319.363 666.015,-312.435"/>
</g>
<!-- Node10&#45;&gt;Node2 -->
<g id="edge13" class="edge"><title>Node10&#45;&gt;Node2</title>
<path fill="none" stroke="midnightblue" d="M586.876,-296.991C569.884,-288.838 546.674,-274.831 534.5,-255 512.795,-219.643 512.669,-169.028 514.539,-141.896"/>
<polygon fill="midnightblue" stroke="midnightblue" points="518.036,-142.081 515.405,-131.818 511.061,-141.482 518.036,-142.081"/>
</g>
<!-- Node10&#45;&gt;Node8 -->
<g id="edge14" class="edge"><title>Node10&#45;&gt;Node8</title>
<path fill="none" stroke="midnightblue" d="M564.517,-296.975C510.718,-286.305 418.593,-268.034 360.486,-256.509"/>
<polygon fill="midnightblue" stroke="midnightblue" points="360.893,-253.021 350.403,-254.509 359.531,-259.888 360.893,-253.021"/>
</g>
<!-- Node11 -->
<g id="node12" class="node"><title>Node11</title>
<polygon fill="white" stroke="#bfbfbf" points="544,-235.5 544,-254.5 671,-254.5 671,-235.5 544,-235.5"/>
<text text-anchor="middle" x="607.5" y="-242.5" font-family="Helvetica,sans-Serif" font-size="10.00">odp/api/abi/packet_io.h</text>
</g>
<!-- Node10&#45;&gt;Node11 -->
<g id="edge15" class="edge"><title>Node10&#45;&gt;Node11</title>
<path fill="none" stroke="midnightblue" d="M607.5,-296.975C607.5,-288.58 607.5,-275.481 607.5,-264.663"/>
<polygon fill="midnightblue" stroke="midnightblue" points="611,-264.509 607.5,-254.509 604,-264.509 611,-264.509"/>
</g>
<!-- Node12 -->
<g id="node13" class="node"><title>Node12</title>
<polygon fill="white" stroke="#bfbfbf" points="689,-235.5 689,-254.5 802,-254.5 802,-235.5 689,-235.5"/>
<text text-anchor="middle" x="745.5" y="-242.5" font-family="Helvetica,sans-Serif" font-size="10.00">odp/api/abi/packet.h</text>
</g>
<!-- Node10&#45;&gt;Node12 -->
<g id="edge16" class="edge"><title>Node10&#45;&gt;Node12</title>
<path fill="none" stroke="midnightblue" d="M627.272,-296.975C650.636,-286.901 689.714,-270.053 716.503,-258.502"/>
<polygon fill="midnightblue" stroke="midnightblue" points="717.968,-261.682 725.765,-254.509 715.196,-255.254 717.968,-261.682"/>
</g>
<!-- Node13 -->
<g id="node14" class="node"><title>Node13</title>
<polygon fill="white" stroke="#bfbfbf" points="379.5,-235.5 379.5,-254.5 487.5,-254.5 487.5,-235.5 379.5,-235.5"/>
<text text-anchor="middle" x="433.5" y="-242.5" font-family="Helvetica,sans-Serif" font-size="10.00">odp/api/abi/buffer.h</text>
</g>
<!-- Node10&#45;&gt;Node13 -->
<g id="edge17" class="edge"><title>Node10&#45;&gt;Node13</title>
<path fill="none" stroke="midnightblue" d="M582.57,-296.975C552.464,-286.68 501.668,-269.31 467.862,-257.75"/>
<polygon fill="midnightblue" stroke="midnightblue" points="468.978,-254.433 458.384,-254.509 466.713,-261.056 468.978,-254.433"/>
</g>
<!-- Node14 -->
<g id="node15" class="node"><title>Node14</title>
<polygon fill="white" stroke="#bfbfbf" points="961,-235.5 961,-254.5 1062,-254.5 1062,-235.5 961,-235.5"/>
<text text-anchor="middle" x="1011.5" y="-242.5" font-family="Helvetica,sans-Serif" font-size="10.00">odp/api/abi/pool.h</text>
</g>
<!-- Node10&#45;&gt;Node14 -->
<g id="edge18" class="edge"><title>Node10&#45;&gt;Node14</title>
<path fill="none" stroke="midnightblue" d="M641.156,-296.965C650.311,-294.826 660.253,-292.667 669.5,-291 790.689,-269.153 824.64,-272.197 950.727,-255.069"/>
<polygon fill="midnightblue" stroke="midnightblue" points="951.342,-258.518 960.772,-253.689 950.389,-251.583 951.342,-258.518"/>
</g>
<!-- Node15 -->
<g id="node16" class="node"><title>Node15</title>
<g id="a_node16"><a xlink:href="api_2spec_2packet_8h.html" target="_top" xlink:title="ODP packet descriptor. ">
<polygon fill="white" stroke="black" points="820.5,-235.5 820.5,-254.5 942.5,-254.5 942.5,-235.5 820.5,-235.5"/>
<text text-anchor="middle" x="881.5" y="-242.5" font-family="Helvetica,sans-Serif" font-size="10.00">odp/api/spec/packet.h</text>
</a>
</g>
</g>
<!-- Node10&#45;&gt;Node15 -->
<g id="edge19" class="edge"><title>Node10&#45;&gt;Node15</title>
<path fill="none" stroke="midnightblue" d="M643.534,-296.94C652.041,-294.956 661.084,-292.877 669.5,-291 724.236,-278.791 787.101,-265.545 830.073,-256.607"/>
<polygon fill="midnightblue" stroke="midnightblue" points="830.931,-260.004 840.01,-254.544 829.507,-253.15 830.931,-260.004"/>
</g>
<!-- Node15&#45;&gt;Node1 -->
<g id="edge20" class="edge"><title>Node15&#45;&gt;Node1</title>
<path fill="none" stroke="midnightblue" d="M880.539,-235.49C877.81,-207.735 872.224,-118.055 905.5,-56 912.112,-43.67 923.567,-33.1988 934.045,-25.4683"/>
<polygon fill="midnightblue" stroke="midnightblue" points="936.249,-28.2002 942.49,-19.6388 932.272,-22.4395 936.249,-28.2002"/>
</g>
<!-- Node15&#45;&gt;Node6 -->
<g id="edge27" class="edge"><title>Node15&#45;&gt;Node6</title>
<path fill="none" stroke="midnightblue" d="M915.832,-235.498C1041.11,-204.343 1467.46,-97.1471 1488.5,-76 1500.54,-63.8991 1505.03,-44.617 1506.67,-30.1913"/>
<polygon fill="midnightblue" stroke="midnightblue" points="1510.18,-30.1313 1507.46,-19.8934 1503.2,-29.5972 1510.18,-30.1313"/>
</g>
<!-- Node16 -->
<g id="node17" class="node"><title>Node16</title>
<g id="a_node17"><a xlink:href="api_2time_8h.html" target="_top" xlink:title="ODP time. ">
<polygon fill="white" stroke="black" points="744.5,-174 744.5,-193 830.5,-193 830.5,-174 744.5,-174"/>
<text text-anchor="middle" x="787.5" y="-181" font-family="Helvetica,sans-Serif" font-size="10.00">odp/api/time.h</text>
</a>
</g>
</g>
<!-- Node15&#45;&gt;Node16 -->
<g id="edge21" class="edge"><title>Node15&#45;&gt;Node16</title>
<path fill="none" stroke="midnightblue" d="M868.032,-235.475C852.815,-225.843 827.813,-210.017 809.699,-198.552"/>
<polygon fill="midnightblue" stroke="midnightblue" points="811.264,-195.4 800.943,-193.009 807.521,-201.315 811.264,-195.4"/>
</g>
<!-- Node16&#45;&gt;Node2 -->
<g id="edge22" class="edge"><title>Node16&#45;&gt;Node2</title>
<path fill="none" stroke="midnightblue" d="M748.672,-173.975C700.375,-163.371 617.887,-145.26 565.346,-133.724"/>
<polygon fill="midnightblue" stroke="midnightblue" points="565.774,-130.235 555.256,-131.509 564.272,-137.072 565.774,-130.235"/>
</g>
<!-- Node17 -->
<g id="node18" class="node"><title>Node17</title>
<polygon fill="white" stroke="#bfbfbf" points="712,-112.5 712,-131.5 815,-131.5 815,-112.5 712,-112.5"/>
<text text-anchor="middle" x="763.5" y="-119.5" font-family="Helvetica,sans-Serif" font-size="10.00">odp/api/abi/time.h</text>
</g>
<!-- Node16&#45;&gt;Node17 -->
<g id="edge23" class="edge"><title>Node16&#45;&gt;Node17</title>
<path fill="none" stroke="midnightblue" d="M784.061,-173.975C780.604,-165.404 775.168,-151.927 770.754,-140.983"/>
<polygon fill="midnightblue" stroke="midnightblue" points="773.919,-139.474 766.932,-131.509 767.427,-142.092 773.919,-139.474"/>
</g>
<!-- Node18 -->
<g id="node19" class="node"><title>Node18</title>
<g id="a_node19"><a xlink:href="api_2spec_2time_8h.html" target="_top" xlink:title="ODP time. ">
<polygon fill="white" stroke="black" points="986,-56.5 986,-75.5 1097,-75.5 1097,-56.5 986,-56.5"/>
<text text-anchor="middle" x="1041.5" y="-63.5" font-family="Helvetica,sans-Serif" font-size="10.00">odp/api/spec/time.h</text>
</a>
</g>
</g>
<!-- Node16&#45;&gt;Node18 -->
<g id="edge24" class="edge"><title>Node16&#45;&gt;Node18</title>
<path fill="none" stroke="midnightblue" d="M806.591,-173.819C850.922,-153.661 961.014,-103.599 1013.2,-79.8693"/>
<polygon fill="midnightblue" stroke="midnightblue" points="1014.88,-82.95 1022.53,-75.6245 1011.98,-76.5778 1014.88,-82.95"/>
</g>
<!-- Node18&#45;&gt;Node1 -->
<g id="edge25" class="edge"><title>Node18&#45;&gt;Node1</title>
<path fill="none" stroke="midnightblue" d="M1028,-56.324C1014.9,-47.9002 994.788,-34.9709 979.393,-25.0741"/>
<polygon fill="midnightblue" stroke="midnightblue" points="981.267,-22.118 970.963,-19.6545 977.482,-28.0063 981.267,-22.118"/>
</g>
<!-- Node18&#45;&gt;Node6 -->
<g id="edge26" class="edge"><title>Node18&#45;&gt;Node6</title>
<path fill="none" stroke="midnightblue" d="M1097.25,-58.54C1184.34,-48.4482 1352.16,-29.0006 1443.86,-18.3743"/>
<polygon fill="midnightblue" stroke="midnightblue" points="1444.32,-21.8453 1453.85,-17.2173 1443.51,-14.8918 1444.32,-21.8453"/>
</g>
<!-- Node19&#45;&gt;Node2 -->
<g id="edge30" class="edge"><title>Node19&#45;&gt;Node2</title>
<path fill="none" stroke="midnightblue" d="M560.276,-531.385C458.072,-522.262 225.5,-493.928 225.5,-425 225.5,-425 225.5,-425 225.5,-305.5 225.5,-273.049 222.335,-258.703 244.5,-235 278.195,-198.966 303.662,-217.239 349.5,-199 399.926,-178.936 457.201,-151.916 489.874,-136.085"/>
<polygon fill="midnightblue" stroke="midnightblue" points="491.729,-139.075 499.189,-131.552 488.665,-132.781 491.729,-139.075"/>
</g>
<!-- Node19&#45;&gt;Node8 -->
<g id="edge31" class="edge"><title>Node19&#45;&gt;Node8</title>
<path fill="none" stroke="midnightblue" d="M560.479,-533.588C491.118,-528.717 369.5,-508.3 369.5,-425 369.5,-425 369.5,-425 369.5,-367 369.5,-325.741 340.595,-284.413 322.257,-262.346"/>
<polygon fill="midnightblue" stroke="midnightblue" points="324.783,-259.915 315.605,-254.622 319.479,-264.483 324.783,-259.915"/>
</g>
<!-- Node19&#45;&gt;Node13 -->
<g id="edge33" class="edge"><title>Node19&#45;&gt;Node13</title>
<path fill="none" stroke="midnightblue" d="M583.399,-526.413C547.075,-511.746 482.5,-478.19 482.5,-425 482.5,-425 482.5,-425 482.5,-367 482.5,-327.536 459.831,-285.778 445.33,-263.104"/>
<polygon fill="midnightblue" stroke="midnightblue" points="448.148,-261.019 439.706,-254.617 442.313,-264.886 448.148,-261.019"/>
</g>
<!-- Node19&#45;&gt;Node14 -->
<g id="edge34" class="edge"><title>Node19&#45;&gt;Node14</title>
<path fill="none" stroke="midnightblue" d="M619.043,-526.433C640.304,-509.571 683.5,-469.799 683.5,-425 683.5,-425 683.5,-425 683.5,-367 683.5,-310.634 856.151,-272.366 950.931,-255.604"/>
<polygon fill="midnightblue" stroke="midnightblue" points="951.717,-259.02 960.969,-253.858 950.517,-252.124 951.717,-259.02"/>
</g>
<!-- Node20 -->
<g id="node21" class="node"><title>Node20</title>
<polygon fill="white" stroke="#bfbfbf" points="712,-470.5 712,-489.5 823,-489.5 823,-470.5 712,-470.5"/>
<text text-anchor="middle" x="767.5" y="-477.5" font-family="Helvetica,sans-Serif" font-size="10.00">odp/api/abi/queue.h</text>
</g>
<!-- Node19&#45;&gt;Node20 -->
<g id="edge32" class="edge"><title>Node19&#45;&gt;Node20</title>
<path fill="none" stroke="midnightblue" d="M632.852,-526.444C659.769,-517.359 702.496,-502.939 732.587,-492.783"/>
<polygon fill="midnightblue" stroke="midnightblue" points="733.91,-496.031 742.266,-489.516 731.672,-489.398 733.91,-496.031"/>
</g>
<!-- Node21 -->
<g id="node22" class="node"><title>Node21</title>
<g id="a_node22"><a xlink:href="api_2spec_2queue_8h.html" target="_top" xlink:title="ODP queue. ">
<polygon fill="white" stroke="black" points="1069,-470.5 1069,-489.5 1188,-489.5 1188,-470.5 1069,-470.5"/>
<text text-anchor="middle" x="1128.5" y="-477.5" font-family="Helvetica,sans-Serif" font-size="10.00">odp/api/spec/queue.h</text>
</a>
</g>
</g>
<!-- Node19&#45;&gt;Node21 -->
<g id="edge35" class="edge"><title>Node19&#45;&gt;Node21</title>
<path fill="none" stroke="midnightblue" d="M654.654,-530.113C746.743,-520.568 950.895,-499.408 1058.7,-488.235"/>
<polygon fill="midnightblue" stroke="midnightblue" points="1059.24,-491.698 1068.82,-487.186 1058.51,-484.735 1059.24,-491.698"/>
</g>
<!-- Node21&#45;&gt;Node1 -->
<g id="edge36" class="edge"><title>Node21&#45;&gt;Node1</title>
<path fill="none" stroke="midnightblue" d="M1128.5,-470.442C1128.5,-451.936 1128.5,-406.812 1128.5,-369 1128.5,-369 1128.5,-369 1128.5,-305.5 1128.5,-183.157 1033.8,-184.095 976.5,-76 968.757,-61.3921 963.787,-43.2193 960.881,-29.806"/>
<polygon fill="midnightblue" stroke="midnightblue" points="964.284,-28.9713 958.909,-19.841 957.417,-30.3302 964.284,-28.9713"/>
</g>
<!-- Node21&#45;&gt;Node6 -->
<g id="edge54" class="edge"><title>Node21&#45;&gt;Node6</title>
<path fill="none" stroke="midnightblue" d="M1188.1,-471.167C1351.32,-448.061 1793.5,-373.685 1793.5,-246 1793.5,-246 1793.5,-246 1793.5,-121 1793.5,-72.8827 1650.69,-37.842 1566.9,-21.4233"/>
<polygon fill="midnightblue" stroke="midnightblue" points="1567.47,-17.9687 1556.99,-19.5137 1566.15,-24.8423 1567.47,-17.9687"/>
</g>
<!-- Node21&#45;&gt;Node7 -->
<g id="edge37" class="edge"><title>Node21&#45;&gt;Node7</title>
<path fill="none" stroke="midnightblue" d="M1107.11,-470.444C1084.79,-461.517 1049.6,-447.439 1024.29,-437.317"/>
<polygon fill="midnightblue" stroke="midnightblue" points="1025.38,-433.981 1014.79,-433.516 1022.78,-440.48 1025.38,-433.981"/>
</g>
<!-- Node22 -->
<g id="node23" class="node"><title>Node22</title>
<g id="a_node23"><a xlink:href="queue__types_8h.html" target="_top" xlink:title="ODP queue types. ">
<polygon fill="white" stroke="black" points="1393.5,-291.5 1393.5,-321.5 1503.5,-321.5 1503.5,-291.5 1393.5,-291.5"/>
<text text-anchor="start" x="1401.5" y="-309.5" font-family="Helvetica,sans-Serif" font-size="10.00">odp/api/spec/queue</text>
<text text-anchor="middle" x="1448.5" y="-298.5" font-family="Helvetica,sans-Serif" font-size="10.00">_types.h</text>
</a>
</g>
</g>
<!-- Node21&#45;&gt;Node22 -->
<g id="edge38" class="edge"><title>Node21&#45;&gt;Node22</title>
<path fill="none" stroke="midnightblue" d="M1144.37,-470.495C1193.51,-444.158 1344.02,-363.497 1413.13,-326.457"/>
<polygon fill="midnightblue" stroke="midnightblue" points="1415.16,-329.339 1422.32,-321.53 1411.85,-323.169 1415.16,-329.339"/>
</g>
<!-- Node22&#45;&gt;Node1 -->
<g id="edge39" class="edge"><title>Node22&#45;&gt;Node1</title>
<path fill="none" stroke="midnightblue" d="M1424.64,-291.434C1407.57,-281.349 1384.08,-267.409 1363.5,-255 1273.81,-200.918 1239.97,-202.482 1162.5,-132 1131.27,-103.585 1140.08,-80.2304 1105.5,-56 1081.5,-39.1852 1051.08,-28.5294 1024.07,-21.8369"/>
<polygon fill="midnightblue" stroke="midnightblue" points="1024.82,-18.419 1014.29,-19.5465 1023.22,-25.2346 1024.82,-18.419"/>
</g>
<!-- Node22&#45;&gt;Node6 -->
<g id="edge53" class="edge"><title>Node22&#45;&gt;Node6</title>
<path fill="none" stroke="midnightblue" d="M1484.48,-291.495C1520.53,-275.286 1573.94,-244.805 1597.5,-199 1626.57,-142.484 1630.91,-110.064 1597.5,-56 1587.83,-40.348 1570.88,-29.958 1554.28,-23.1496"/>
<polygon fill="midnightblue" stroke="midnightblue" points="1555.19,-19.7561 1544.6,-19.5421 1552.75,-26.3151 1555.19,-19.7561"/>
</g>
<!-- Node22&#45;&gt;Node23 -->
<g id="edge40" class="edge"><title>Node22&#45;&gt;Node23</title>
<path fill="none" stroke="midnightblue" d="M1503.54,-292.295C1547.83,-281.668 1609.34,-266.91 1650.91,-256.937"/>
<polygon fill="midnightblue" stroke="midnightblue" points="1651.86,-260.309 1660.77,-254.572 1650.23,-253.502 1651.86,-260.309"/>
</g>
<!-- Node28 -->
<g id="node29" class="node"><title>Node28</title>
<g id="a_node29"><a xlink:href="deprecated_8h.html" target="_top" xlink:title="Control deprecated API definitions. ">
<polygon fill="white" stroke="black" points="1172,-112.5 1172,-131.5 1291,-131.5 1291,-112.5 1172,-112.5"/>
<text text-anchor="middle" x="1231.5" y="-119.5" font-family="Helvetica,sans-Serif" font-size="10.00">odp/api/deprecated.h</text>
</a>
</g>
</g>
<!-- Node22&#45;&gt;Node28 -->
<g id="edge49" class="edge"><title>Node22&#45;&gt;Node28</title>
<path fill="none" stroke="midnightblue" d="M1431.83,-291.483C1391.91,-257.905 1291.05,-173.08 1249.65,-138.268"/>
<polygon fill="midnightblue" stroke="midnightblue" points="1251.89,-135.577 1241.99,-131.819 1247.39,-140.934 1251.89,-135.577"/>
</g>
<!-- Node24 -->
<g id="node25" class="node"><title>Node24</title>
<polygon fill="white" stroke="#bfbfbf" points="1650,-168.5 1650,-198.5 1765,-198.5 1765,-168.5 1650,-168.5"/>
<text text-anchor="start" x="1658" y="-186.5" font-family="Helvetica,sans-Serif" font-size="10.00">odp/api/abi/schedule</text>
<text text-anchor="middle" x="1707.5" y="-175.5" font-family="Helvetica,sans-Serif" font-size="10.00">_types.h</text>
</g>
<!-- Node23&#45;&gt;Node24 -->
<g id="edge41" class="edge"><title>Node23&#45;&gt;Node24</title>
<path fill="none" stroke="midnightblue" d="M1698.08,-235.475C1699.38,-228.396 1701.31,-217.97 1703.08,-208.39"/>
<polygon fill="midnightblue" stroke="midnightblue" points="1706.53,-208.993 1704.91,-198.523 1699.65,-207.72 1706.53,-208.993"/>
</g>
<!-- Node25 -->
<g id="node26" class="node"><title>Node25</title>
<g id="a_node26"><a xlink:href="api_2spec_2schedule__types_8h.html" target="_top" xlink:title="ODP schedule types. ">
<polygon fill="white" stroke="black" points="1432,-168.5 1432,-198.5 1555,-198.5 1555,-168.5 1432,-168.5"/>
<text text-anchor="start" x="1440" y="-186.5" font-family="Helvetica,sans-Serif" font-size="10.00">odp/api/spec/schedule</text>
<text text-anchor="middle" x="1493.5" y="-175.5" font-family="Helvetica,sans-Serif" font-size="10.00">_types.h</text>
</a>
</g>
</g>
<!-- Node23&#45;&gt;Node25 -->
<g id="edge42" class="edge"><title>Node23&#45;&gt;Node25</title>
<path fill="none" stroke="midnightblue" d="M1667.42,-235.475C1637.22,-226.626 1589.2,-212.549 1551.25,-201.428"/>
<polygon fill="midnightblue" stroke="midnightblue" points="1551.92,-197.977 1541.34,-198.523 1549.95,-204.694 1551.92,-197.977"/>
</g>
<!-- Node25&#45;&gt;Node1 -->
<g id="edge43" class="edge"><title>Node25&#45;&gt;Node1</title>
<path fill="none" stroke="midnightblue" d="M1464.98,-168.469C1446.43,-158.949 1421.96,-145.652 1401.5,-132 1356.52,-101.99 1356.27,-77.1302 1306.5,-56 1257.28,-35.1022 1112.16,-21.7418 1025.33,-15.3829"/>
<polygon fill="midnightblue" stroke="midnightblue" points="1025.52,-11.888 1015.3,-14.6605 1025.02,-18.8699 1025.52,-11.888"/>
</g>
<!-- Node25&#45;&gt;Node6 -->
<g id="edge48" class="edge"><title>Node25&#45;&gt;Node6</title>
<path fill="none" stroke="midnightblue" d="M1503.49,-168.24C1509.69,-158.52 1517.1,-145.086 1520.5,-132 1529,-99.3067 1526.58,-89.3973 1521.5,-56 1520.13,-47.001 1517.31,-37.3251 1514.55,-29.2601"/>
<polygon fill="midnightblue" stroke="midnightblue" points="1517.81,-27.9759 1511.1,-19.7782 1511.23,-30.3722 1517.81,-27.9759"/>
</g>
<!-- Node26 -->
<g id="node27" class="node"><title>Node26</title>
<g id="a_node27"><a xlink:href="support_8h.html" target="_top" xlink:title="ODP support API &#45; platform specific header. ">
<polygon fill="white" stroke="black" points="1410,-112.5 1410,-131.5 1511,-131.5 1511,-112.5 1410,-112.5"/>
<text text-anchor="middle" x="1460.5" y="-119.5" font-family="Helvetica,sans-Serif" font-size="10.00">odp/api/support.h</text>
</a>
</g>
</g>
<!-- Node25&#45;&gt;Node26 -->
<g id="edge44" class="edge"><title>Node25&#45;&gt;Node26</title>
<path fill="none" stroke="midnightblue" d="M1485.68,-168.399C1481.03,-160.021 1475.1,-149.327 1470.16,-140.423"/>
<polygon fill="midnightblue" stroke="midnightblue" points="1473.21,-138.705 1465.3,-131.658 1467.09,-142.1 1473.21,-138.705"/>
</g>
<!-- Node27 -->
<g id="node28" class="node"><title>Node27</title>
<g id="a_node28"><a xlink:href="spec_2support_8h.html" target="_top" xlink:title="ODP support API. ">
<polygon fill="white" stroke="black" points="1353.5,-56.5 1353.5,-75.5 1479.5,-75.5 1479.5,-56.5 1353.5,-56.5"/>
<text text-anchor="middle" x="1416.5" y="-63.5" font-family="Helvetica,sans-Serif" font-size="10.00">odp/api/spec/support.h</text>
</a>
</g>
</g>
<!-- Node26&#45;&gt;Node27 -->
<g id="edge45" class="edge"><title>Node26&#45;&gt;Node27</title>
<path fill="none" stroke="midnightblue" d="M1453.23,-112.083C1446.96,-104.377 1437.71,-93.0333 1430.07,-83.6531"/>
<polygon fill="midnightblue" stroke="midnightblue" points="1432.66,-81.2926 1423.63,-75.7511 1427.23,-85.7143 1432.66,-81.2926"/>
</g>
<!-- Node27&#45;&gt;Node1 -->
<g id="edge46" class="edge"><title>Node27&#45;&gt;Node1</title>
<path fill="none" stroke="midnightblue" d="M1353.16,-57.5482C1267.05,-47.4178 1113.68,-29.374 1025.31,-18.9777"/>
<polygon fill="midnightblue" stroke="midnightblue" points="1025.47,-15.4722 1015.13,-17.7798 1024.65,-22.4243 1025.47,-15.4722"/>
</g>
<!-- Node27&#45;&gt;Node6 -->
<g id="edge47" class="edge"><title>Node27&#45;&gt;Node6</title>
<path fill="none" stroke="midnightblue" d="M1431.12,-56.324C1445.45,-47.8215 1467.51,-34.7288 1484.25,-24.7975"/>
<polygon fill="midnightblue" stroke="midnightblue" points="1486.1,-27.7677 1492.92,-19.6545 1482.53,-21.7478 1486.1,-27.7677"/>
</g>
<!-- Node29 -->
<g id="node30" class="node"><title>Node29</title>
<g id="a_node30"><a xlink:href="spec_2deprecated_8h.html" target="_top" xlink:title="Macro for deprecated API definitions. ">
<polygon fill="white" stroke="black" points="1153.5,-56.5 1153.5,-75.5 1297.5,-75.5 1297.5,-56.5 1153.5,-56.5"/>
<text text-anchor="middle" x="1225.5" y="-63.5" font-family="Helvetica,sans-Serif" font-size="10.00">odp/api/spec/deprecated.h</text>
</a>
</g>
</g>
<!-- Node28&#45;&gt;Node29 -->
<g id="edge50" class="edge"><title>Node28&#45;&gt;Node29</title>
<path fill="none" stroke="midnightblue" d="M1230.51,-112.083C1229.71,-104.927 1228.57,-94.6353 1227.58,-85.6911"/>
<polygon fill="midnightblue" stroke="midnightblue" points="1231.06,-85.3034 1226.47,-75.7511 1224.1,-86.0765 1231.06,-85.3034"/>
</g>
<!-- Node29&#45;&gt;Node1 -->
<g id="edge51" class="edge"><title>Node29&#45;&gt;Node1</title>
<path fill="none" stroke="midnightblue" d="M1183.03,-56.4435C1136.09,-46.9839 1060.42,-31.7384 1009.85,-21.5472"/>
<polygon fill="midnightblue" stroke="midnightblue" points="1010.26,-18.0607 999.767,-19.5164 1008.88,-24.9228 1010.26,-18.0607"/>
</g>
<!-- Node29&#45;&gt;Node6 -->
<g id="edge52" class="edge"><title>Node29&#45;&gt;Node6</title>
<path fill="none" stroke="midnightblue" d="M1270.18,-56.4435C1319.79,-46.9444 1399.86,-31.611 1453.09,-21.4198"/>
<polygon fill="midnightblue" stroke="midnightblue" points="1453.86,-24.8348 1463.03,-19.5164 1452.55,-17.9597 1453.86,-24.8348"/>
</g>
<!-- Node31 -->
<g id="node32" class="node"><title>Node31</title>
<polygon fill="white" stroke="#bfbfbf" points="0,-174 0,-193 121,-193 121,-174 0,-174"/>
<text text-anchor="middle" x="60.5" y="-181" font-family="Helvetica,sans-Serif" font-size="10.00">odp/api/abi/thrmask.h</text>
</g>
<!-- Node30&#45;&gt;Node31 -->
<g id="edge57" class="edge"><title>Node30&#45;&gt;Node31</title>
<path fill="none" stroke="midnightblue" d="M68.2105,-235.475C66.9407,-227.08 64.9592,-213.981 63.323,-203.163"/>
<polygon fill="midnightblue" stroke="midnightblue" points="66.7434,-202.373 61.7871,-193.009 59.8221,-203.42 66.7434,-202.373"/>
</g>
<!-- Node32 -->
<g id="node33" class="node"><title>Node32</title>
<g id="a_node33"><a xlink:href="api_2spec_2thrmask_8h.html" target="_top" xlink:title="ODP thread masks. ">
<polygon fill="white" stroke="black" points="178,-174 178,-193 307,-193 307,-174 178,-174"/>
<text text-anchor="middle" x="242.5" y="-181" font-family="Helvetica,sans-Serif" font-size="10.00">odp/api/spec/thrmask.h</text>
</a>
</g>
</g>
<!-- Node30&#45;&gt;Node32 -->
<g id="edge58" class="edge"><title>Node30&#45;&gt;Node32</title>
<path fill="none" stroke="midnightblue" d="M94.2867,-235.475C124.091,-225.225 174.291,-207.959 207.902,-196.399"/>
<polygon fill="midnightblue" stroke="midnightblue" points="209.441,-199.571 217.759,-193.009 207.165,-192.952 209.441,-199.571"/>
</g>
<!-- Node32&#45;&gt;Node1 -->
<g id="edge59" class="edge"><title>Node32&#45;&gt;Node1</title>
<path fill="none" stroke="midnightblue" d="M240.601,-173.789C236.119,-150.616 227.649,-87.104 261.5,-56 307.077,-14.1212 723.85,-10.4332 889.79,-10.6454"/>
<polygon fill="midnightblue" stroke="midnightblue" points="889.871,-14.1454 899.878,-10.6635 889.884,-7.14542 889.871,-14.1454"/>
</g>
<!-- Node32&#45;&gt;Node2 -->
<g id="edge60" class="edge"><title>Node32&#45;&gt;Node2</title>
<path fill="none" stroke="midnightblue" d="M281.758,-173.975C330.691,-163.349 414.338,-145.185 467.445,-133.652"/>
<polygon fill="midnightblue" stroke="midnightblue" points="468.286,-137.052 477.315,-131.509 466.8,-130.211 468.286,-137.052"/>
</g>
<!-- Node32&#45;&gt;Node6 -->
<g id="edge61" class="edge"><title>Node32&#45;&gt;Node6</title>
<path fill="none" stroke="midnightblue" d="M256.472,-173.864C301.809,-145.877 442.531,-59.2897 453.5,-56 548.002,-27.6584 1230.11,-15.1467 1443.72,-11.8954"/>
<polygon fill="midnightblue" stroke="midnightblue" points="1443.89,-15.3934 1453.83,-11.7431 1443.78,-8.39422 1443.89,-15.3934"/>
</g>
</g>
</svg>
