<?xml version="1.0" encoding="UTF-8" standalone="no"?>
<!DOCTYPE svg PUBLIC "-//W3C//DTD SVG 1.1//EN"
 "http://www.w3.org/Graphics/SVG/1.1/DTD/svg11.dtd">
<!-- Generated by graphviz version 2.38.0 (20140413.2041)
 -->
<!-- Title: cpumask.h Pages: 1 -->
<svg width="542pt" height="196pt"
 viewBox="0.00 0.00 542.00 196.00" xmlns="http://www.w3.org/2000/svg" xmlns:xlink="http://www.w3.org/1999/xlink">
<g id="graph0" class="graph" transform="scale(1 1) rotate(0) translate(4 192)">
<title>cpumask.h</title>
<polygon fill="white" stroke="none" points="-4,4 -4,-192 538,-192 538,4 -4,4"/>
<!-- Node0 -->
<g id="node1" class="node"><title>Node0</title>
<polygon fill="#bfbfbf" stroke="black" points="321.5,-168.5 321.5,-187.5 390.5,-187.5 390.5,-168.5 321.5,-168.5"/>
<text text-anchor="middle" x="356" y="-175.5" font-family="Helvetica,sans-Serif" font-size="10.00">cpumask.h</text>
</g>
<!-- Node1 -->
<g id="node2" class="node"><title>Node1</title>
<g id="a_node2"><a xlink:href="api_2std__types_8h.html" target="_top" xlink:title="Standard C language types and definitions for ODP. ">
<polygon fill="white" stroke="black" points="163,-112.5 163,-131.5 273,-131.5 273,-112.5 163,-112.5"/>
<text text-anchor="middle" x="218" y="-119.5" font-family="Helvetica,sans-Serif" font-size="10.00">odp/api/std_types.h</text>
</a>
</g>
</g>
<!-- Node0&#45;&gt;Node1 -->
<g id="edge1" class="edge"><title>Node0&#45;&gt;Node1</title>
<path fill="none" stroke="midnightblue" d="M334.133,-168.444C311.221,-159.478 275.025,-145.314 249.134,-135.183"/>
<polygon fill="midnightblue" stroke="midnightblue" points="250.352,-131.901 239.764,-131.516 247.801,-138.42 250.352,-131.901"/>
</g>
<!-- Node7 -->
<g id="node8" class="node"><title>Node7</title>
<g id="a_node8"><a xlink:href="api_2align_8h.html" target="_top" xlink:title="ODP alignments. ">
<polygon fill="white" stroke="black" points="313,-112.5 313,-131.5 399,-131.5 399,-112.5 313,-112.5"/>
<text text-anchor="middle" x="356" y="-119.5" font-family="Helvetica,sans-Serif" font-size="10.00">odp/api/align.h</text>
</a>
</g>
</g>
<!-- Node0&#45;&gt;Node7 -->
<g id="edge7" class="edge"><title>Node0&#45;&gt;Node7</title>
<path fill="none" stroke="midnightblue" d="M356,-168.083C356,-161.006 356,-150.861 356,-141.986"/>
<polygon fill="midnightblue" stroke="midnightblue" points="359.5,-141.751 356,-131.751 352.5,-141.751 359.5,-141.751"/>
</g>
<!-- Node10 -->
<g id="node11" class="node"><title>Node10</title>
<polygon fill="white" stroke="#bfbfbf" points="417,-112.5 417,-131.5 471,-131.5 471,-112.5 417,-112.5"/>
<text text-anchor="middle" x="444" y="-119.5" font-family="Helvetica,sans-Serif" font-size="10.00">sched.h</text>
</g>
<!-- Node0&#45;&gt;Node10 -->
<g id="edge12" class="edge"><title>Node0&#45;&gt;Node10</title>
<path fill="none" stroke="midnightblue" d="M370.139,-168.324C383.866,-159.9 404.936,-146.971 421.064,-137.074"/>
<polygon fill="midnightblue" stroke="midnightblue" points="423.204,-139.868 429.896,-131.655 419.543,-133.902 423.204,-139.868"/>
</g>
<!-- Node2 -->
<g id="node3" class="node"><title>Node2</title>
<polygon fill="white" stroke="#bfbfbf" points="154,-56.5 154,-75.5 282,-75.5 282,-56.5 154,-56.5"/>
<text text-anchor="middle" x="218" y="-63.5" font-family="Helvetica,sans-Serif" font-size="10.00">odp/api/abi/std_types.h</text>
</g>
<!-- Node1&#45;&gt;Node2 -->
<g id="edge2" class="edge"><title>Node1&#45;&gt;Node2</title>
<path fill="none" stroke="midnightblue" d="M218,-112.083C218,-105.006 218,-94.8611 218,-85.9865"/>
<polygon fill="midnightblue" stroke="midnightblue" points="221.5,-85.751 218,-75.7511 214.5,-85.7511 221.5,-85.751"/>
</g>
<!-- Node3 -->
<g id="node4" class="node"><title>Node3</title>
<g id="a_node4"><a xlink:href="api_2spec_2std__types_8h.html" target="_top" xlink:title="Standard C language types and definitions for ODP. ">
<polygon fill="white" stroke="black" points="0,-56.5 0,-75.5 136,-75.5 136,-56.5 0,-56.5"/>
<text text-anchor="middle" x="68" y="-63.5" font-family="Helvetica,sans-Serif" font-size="10.00">odp/api/spec/std_types.h</text>
</a>
</g>
</g>
<!-- Node1&#45;&gt;Node3 -->
<g id="edge3" class="edge"><title>Node1&#45;&gt;Node3</title>
<path fill="none" stroke="midnightblue" d="M194.232,-112.444C169.107,-103.399 129.289,-89.064 101.1,-78.9158"/>
<polygon fill="midnightblue" stroke="midnightblue" points="102.251,-75.6106 91.6567,-75.5164 99.8801,-82.1968 102.251,-75.6106"/>
</g>
<!-- Node4 -->
<g id="node5" class="node"><title>Node4</title>
<g id="a_node5"><a xlink:href="visibility__begin_8h_source.html" target="_top" xlink:title="odp/visibility_begin.h">
<polygon fill="white" stroke="black" points="282.5,-0.5 282.5,-19.5 397.5,-19.5 397.5,-0.5 282.5,-0.5"/>
<text text-anchor="middle" x="340" y="-7.5" font-family="Helvetica,sans-Serif" font-size="10.00">odp/visibility_begin.h</text>
</a>
</g>
</g>
<!-- Node3&#45;&gt;Node4 -->
<g id="edge4" class="edge"><title>Node3&#45;&gt;Node4</title>
<path fill="none" stroke="midnightblue" d="M111.099,-56.4435C158.847,-46.9641 235.861,-31.6747 287.194,-21.4835"/>
<polygon fill="midnightblue" stroke="midnightblue" points="287.975,-24.8968 297.102,-19.5164 286.612,-18.0308 287.975,-24.8968"/>
</g>
<!-- Node5 -->
<g id="node6" class="node"><title>Node5</title>
<polygon fill="white" stroke="#bfbfbf" points="41.5,-0.5 41.5,-19.5 94.5,-19.5 94.5,-0.5 41.5,-0.5"/>
<text text-anchor="middle" x="68" y="-7.5" font-family="Helvetica,sans-Serif" font-size="10.00">stdint.h</text>
</g>
<!-- Node3&#45;&gt;Node5 -->
<g id="edge5" class="edge"><title>Node3&#45;&gt;Node5</title>
<path fill="none" stroke="midnightblue" d="M68,-56.083C68,-49.0059 68,-38.8611 68,-29.9865"/>
<polygon fill="midnightblue" stroke="midnightblue" points="71.5001,-29.751 68,-19.7511 64.5001,-29.7511 71.5001,-29.751"/>
</g>
<!-- Node6 -->
<g id="node7" class="node"><title>Node6</title>
<g id="a_node7"><a xlink:href="visibility__end_8h_source.html" target="_top" xlink:title="odp/visibility_end.h">
<polygon fill="white" stroke="black" points="142.5,-0.5 142.5,-19.5 249.5,-19.5 249.5,-0.5 142.5,-0.5"/>
<text text-anchor="middle" x="196" y="-7.5" font-family="Helvetica,sans-Serif" font-size="10.00">odp/visibility_end.h</text>
</a>
</g>
</g>
<!-- Node3&#45;&gt;Node6 -->
<g id="edge6" class="edge"><title>Node3&#45;&gt;Node6</title>
<path fill="none" stroke="midnightblue" d="M88.282,-56.4435C109.347,-47.5566 142.517,-33.5632 166.486,-23.4514"/>
<polygon fill="midnightblue" stroke="midnightblue" points="167.96,-26.6283 175.813,-19.5164 165.239,-20.1787 167.96,-26.6283"/>
</g>
<!-- Node8 -->
<g id="node9" class="node"><title>Node8</title>
<polygon fill="white" stroke="#bfbfbf" points="430,-56.5 430,-75.5 534,-75.5 534,-56.5 430,-56.5"/>
<text text-anchor="middle" x="482" y="-63.5" font-family="Helvetica,sans-Serif" font-size="10.00">odp/api/abi/align.h</text>
</g>
<!-- Node7&#45;&gt;Node8 -->
<g id="edge8" class="edge"><title>Node7&#45;&gt;Node8</title>
<path fill="none" stroke="midnightblue" d="M375.965,-112.444C396.609,-103.596 429.063,-89.6875 452.632,-79.5865"/>
<polygon fill="midnightblue" stroke="midnightblue" points="454.316,-82.6727 462.128,-75.5164 451.558,-76.2387 454.316,-82.6727"/>
</g>
<!-- Node9 -->
<g id="node10" class="node"><title>Node9</title>
<g id="a_node10"><a xlink:href="api_2spec_2align_8h.html" target="_top" xlink:title="ODP alignments. ">
<polygon fill="white" stroke="black" points="300,-56.5 300,-75.5 412,-75.5 412,-56.5 300,-56.5"/>
<text text-anchor="middle" x="356" y="-63.5" font-family="Helvetica,sans-Serif" font-size="10.00">odp/api/spec/align.h</text>
</a>
</g>
</g>
<!-- Node7&#45;&gt;Node9 -->
<g id="edge9" class="edge"><title>Node7&#45;&gt;Node9</title>
<path fill="none" stroke="midnightblue" d="M356,-112.083C356,-105.006 356,-94.8611 356,-85.9865"/>
<polygon fill="midnightblue" stroke="midnightblue" points="359.5,-85.751 356,-75.7511 352.5,-85.7511 359.5,-85.751"/>
</g>
<!-- Node9&#45;&gt;Node4 -->
<g id="edge10" class="edge"><title>Node9&#45;&gt;Node4</title>
<path fill="none" stroke="midnightblue" d="M353.358,-56.083C351.214,-48.8486 348.121,-38.4087 345.451,-29.3968"/>
<polygon fill="midnightblue" stroke="midnightblue" points="348.79,-28.3447 342.593,-19.7511 342.078,-30.3334 348.79,-28.3447"/>
</g>
<!-- Node9&#45;&gt;Node6 -->
<g id="edge11" class="edge"><title>Node9&#45;&gt;Node6</title>
<path fill="none" stroke="midnightblue" d="M330.648,-56.4435C303.731,-47.3591 261.004,-32.9388 230.913,-22.7831"/>
<polygon fill="midnightblue" stroke="midnightblue" points="231.828,-19.3981 221.234,-19.5164 229.59,-26.0305 231.828,-19.3981"/>
</g>
</g>
</svg>
