<?xml version="1.0" encoding="UTF-8" standalone="no"?>
<!DOCTYPE svg PUBLIC "-//W3C//DTD SVG 1.1//EN"
 "http://www.w3.org/Graphics/SVG/1.1/DTD/svg11.dtd">
<!-- Generated by graphviz version 2.38.0 (20140413.2041)
 -->
<!-- Title: spinlock.h Pages: 1 -->
<svg width="925pt" height="364pt"
 viewBox="0.00 0.00 924.99 364.00" xmlns="http://www.w3.org/2000/svg" xmlns:xlink="http://www.w3.org/1999/xlink">
<g id="graph0" class="graph" transform="scale(1 1) rotate(0) translate(4 360)">
<title>spinlock.h</title>
<polygon fill="white" stroke="none" points="-4,4 -4,-360 920.993,-360 920.993,4 -4,4"/>
<!-- Node3 -->
<g id="node1" class="node"><title>Node3</title>
<polygon fill="#bfbfbf" stroke="black" points="721.5,-336.5 721.5,-355.5 785.5,-355.5 785.5,-336.5 721.5,-336.5"/>
<text text-anchor="middle" x="753.5" y="-343.5" font-family="Helvetica,sans-Serif" font-size="10.00">spinlock.h</text>
</g>
<!-- Node4 -->
<g id="node2" class="node"><title>Node4</title>
<g id="a_node2"><a xlink:href="api_2spinlock_8h.html" target="_top" xlink:title="ODP spinlock. ">
<polygon fill="white" stroke="black" points="721.5,-280.5 721.5,-299.5 785.5,-299.5 785.5,-280.5 721.5,-280.5"/>
<text text-anchor="middle" x="753.5" y="-287.5" font-family="Helvetica,sans-Serif" font-size="10.00">spinlock.h</text>
</a>
</g>
</g>
<!-- Node3&#45;&gt;Node4 -->
<g id="edge1" class="edge"><title>Node3&#45;&gt;Node4</title>
<path fill="none" stroke="midnightblue" d="M753.5,-325.805C753.5,-316.91 753.5,-306.78 753.5,-299.751"/>
<polygon fill="midnightblue" stroke="midnightblue" points="750,-326.083 753.5,-336.083 757,-326.083 750,-326.083"/>
</g>
<!-- Node5 -->
<g id="node3" class="node"><title>Node5</title>
<g id="a_node3"><a xlink:href="api_2abi-default_2spinlock__recursive_8h.html" target="_top" xlink:title="ODP recursive spinlock. ">
<polygon fill="white" stroke="black" points="458,-224.5 458,-243.5 571,-243.5 571,-224.5 458,-224.5"/>
<text text-anchor="middle" x="514.5" y="-231.5" font-family="Helvetica,sans-Serif" font-size="10.00">spinlock_recursive.h</text>
</a>
</g>
</g>
<!-- Node4&#45;&gt;Node5 -->
<g id="edge2" class="edge"><title>Node4&#45;&gt;Node5</title>
<path fill="none" stroke="midnightblue" d="M711.25,-279.454C666.289,-269.295 595.794,-253.368 552.519,-243.59"/>
<polygon fill="midnightblue" stroke="midnightblue" points="710.742,-282.927 721.267,-281.717 712.285,-276.099 710.742,-282.927"/>
</g>
<!-- Node14 -->
<g id="node12" class="node"><title>Node14</title>
<g id="a_node12"><a xlink:href="odp__api_8h.html" target="_top" xlink:title="The OpenDataPlane API. ">
<polygon fill="white" stroke="black" points="853,-56.5 853,-75.5 916,-75.5 916,-56.5 853,-56.5"/>
<text text-anchor="middle" x="884.5" y="-63.5" font-family="Helvetica,sans-Serif" font-size="10.00">odp_api.h</text>
</a>
</g>
</g>
<!-- Node4&#45;&gt;Node14 -->
<g id="edge13" class="edge"><title>Node4&#45;&gt;Node14</title>
<path fill="none" stroke="midnightblue" d="M789.942,-276.836C827.115,-262.243 882.745,-233.84 907.5,-188 923.55,-158.279 915.406,-144.84 907.5,-112 904.255,-98.5225 896.255,-84.5398 890.605,-75.8095"/>
<polygon fill="midnightblue" stroke="midnightblue" points="788.572,-273.612 780.454,-280.42 791.045,-280.161 788.572,-273.612"/>
</g>
<!-- Node6 -->
<g id="node4" class="node"><title>Node6</title>
<g id="a_node4"><a xlink:href="arch_2arm32-linux_2odp_2api_2abi_2spinlock__recursive_8h_source.html" target="_top" xlink:title="spinlock_recursive.h">
<polygon fill="white" stroke="black" points="0,-168.5 0,-187.5 113,-187.5 113,-168.5 0,-168.5"/>
<text text-anchor="middle" x="56.5" y="-175.5" font-family="Helvetica,sans-Serif" font-size="10.00">spinlock_recursive.h</text>
</a>
</g>
</g>
<!-- Node5&#45;&gt;Node6 -->
<g id="edge3" class="edge"><title>Node5&#45;&gt;Node6</title>
<path fill="none" stroke="midnightblue" d="M447.63,-225.829C369.379,-217.325 235.934,-202.472 121.5,-188 118.787,-187.657 116.012,-187.299 113.21,-186.932"/>
<polygon fill="midnightblue" stroke="midnightblue" points="447.51,-229.336 457.829,-226.935 448.265,-222.377 447.51,-229.336"/>
</g>
<!-- Node7 -->
<g id="node5" class="node"><title>Node7</title>
<g id="a_node5"><a xlink:href="arch_2arm64-linux_2odp_2api_2abi_2spinlock__recursive_8h_source.html" target="_top" xlink:title="spinlock_recursive.h">
<polygon fill="white" stroke="black" points="131,-168.5 131,-187.5 244,-187.5 244,-168.5 131,-168.5"/>
<text text-anchor="middle" x="187.5" y="-175.5" font-family="Helvetica,sans-Serif" font-size="10.00">spinlock_recursive.h</text>
</a>
</g>
</g>
<!-- Node5&#45;&gt;Node7 -->
<g id="edge4" class="edge"><title>Node5&#45;&gt;Node7</title>
<path fill="none" stroke="midnightblue" d="M452.677,-222.791C390.888,-212.587 296.972,-197.078 239.072,-187.516"/>
<polygon fill="midnightblue" stroke="midnightblue" points="452.249,-226.267 462.686,-224.444 453.39,-219.361 452.249,-226.267"/>
</g>
<!-- Node8 -->
<g id="node6" class="node"><title>Node8</title>
<g id="a_node6"><a xlink:href="arch_2default-linux_2odp_2api_2abi_2spinlock__recursive_8h_source.html" target="_top" xlink:title="spinlock_recursive.h">
<polygon fill="white" stroke="black" points="262,-168.5 262,-187.5 375,-187.5 375,-168.5 262,-168.5"/>
<text text-anchor="middle" x="318.5" y="-175.5" font-family="Helvetica,sans-Serif" font-size="10.00">spinlock_recursive.h</text>
</a>
</g>
</g>
<!-- Node5&#45;&gt;Node8 -->
<g id="edge5" class="edge"><title>Node5&#45;&gt;Node8</title>
<path fill="none" stroke="midnightblue" d="M473.48,-221.699C436.489,-211.507 382.9,-196.743 349.411,-187.516"/>
<polygon fill="midnightblue" stroke="midnightblue" points="472.873,-225.162 483.443,-224.444 474.732,-218.413 472.873,-225.162"/>
</g>
<!-- Node9 -->
<g id="node7" class="node"><title>Node9</title>
<g id="a_node7"><a xlink:href="arch_2mips64-linux_2odp_2api_2abi_2spinlock__recursive_8h_source.html" target="_top" xlink:title="spinlock_recursive.h">
<polygon fill="white" stroke="black" points="393,-168.5 393,-187.5 506,-187.5 506,-168.5 393,-168.5"/>
<text text-anchor="middle" x="449.5" y="-175.5" font-family="Helvetica,sans-Serif" font-size="10.00">spinlock_recursive.h</text>
</a>
</g>
</g>
<!-- Node5&#45;&gt;Node9 -->
<g id="edge6" class="edge"><title>Node5&#45;&gt;Node9</title>
<path fill="none" stroke="midnightblue" d="M496.227,-217.82C484.582,-208.145 469.901,-195.948 460.133,-187.834"/>
<polygon fill="midnightblue" stroke="midnightblue" points="494.128,-220.626 504.057,-224.324 498.601,-215.242 494.128,-220.626"/>
</g>
<!-- Node10 -->
<g id="node8" class="node"><title>Node10</title>
<g id="a_node8"><a xlink:href="arch_2power64-linux_2odp_2api_2abi_2spinlock__recursive_8h_source.html" target="_top" xlink:title="spinlock_recursive.h">
<polygon fill="white" stroke="black" points="524,-168.5 524,-187.5 637,-187.5 637,-168.5 524,-168.5"/>
<text text-anchor="middle" x="580.5" y="-175.5" font-family="Helvetica,sans-Serif" font-size="10.00">spinlock_recursive.h</text>
</a>
</g>
</g>
<!-- Node5&#45;&gt;Node10 -->
<g id="edge7" class="edge"><title>Node5&#45;&gt;Node10</title>
<path fill="none" stroke="midnightblue" d="M533.054,-217.82C544.878,-208.145 559.786,-195.948 569.703,-187.834"/>
<polygon fill="midnightblue" stroke="midnightblue" points="530.627,-215.283 525.104,-224.324 535.06,-220.7 530.627,-215.283"/>
</g>
<!-- Node11 -->
<g id="node9" class="node"><title>Node11</title>
<g id="a_node9"><a xlink:href="arch_2x86__32-linux_2odp_2api_2abi_2spinlock__recursive_8h_source.html" target="_top" xlink:title="spinlock_recursive.h">
<polygon fill="white" stroke="black" points="655,-168.5 655,-187.5 768,-187.5 768,-168.5 655,-168.5"/>
<text text-anchor="middle" x="711.5" y="-175.5" font-family="Helvetica,sans-Serif" font-size="10.00">spinlock_recursive.h</text>
</a>
</g>
</g>
<!-- Node5&#45;&gt;Node11 -->
<g id="edge8" class="edge"><title>Node5&#45;&gt;Node11</title>
<path fill="none" stroke="midnightblue" d="M555.729,-221.699C592.909,-211.507 646.771,-196.743 680.431,-187.516"/>
<polygon fill="midnightblue" stroke="midnightblue" points="554.434,-218.424 545.715,-224.444 556.285,-225.175 554.434,-218.424"/>
</g>
<!-- Node12 -->
<g id="node10" class="node"><title>Node12</title>
<g id="a_node10"><a xlink:href="arch_2x86__64-linux_2odp_2api_2abi_2spinlock__recursive_8h_source.html" target="_top" xlink:title="spinlock_recursive.h">
<polygon fill="white" stroke="black" points="786,-168.5 786,-187.5 899,-187.5 899,-168.5 786,-168.5"/>
<text text-anchor="middle" x="842.5" y="-175.5" font-family="Helvetica,sans-Serif" font-size="10.00">spinlock_recursive.h</text>
</a>
</g>
</g>
<!-- Node5&#45;&gt;Node12 -->
<g id="edge9" class="edge"><title>Node5&#45;&gt;Node12</title>
<path fill="none" stroke="midnightblue" d="M576.512,-222.791C638.49,-212.587 732.693,-197.078 790.771,-187.516"/>
<polygon fill="midnightblue" stroke="midnightblue" points="575.771,-219.365 566.473,-224.444 576.908,-226.272 575.771,-219.365"/>
</g>
<!-- Node13 -->
<g id="node11" class="node"><title>Node13</title>
<g id="a_node11"><a xlink:href="api_2spinlock__recursive_8h.html" target="_top" xlink:title="ODP resursive spinlock. ">
<polygon fill="white" stroke="black" points="786,-112.5 786,-131.5 899,-131.5 899,-112.5 786,-112.5"/>
<text text-anchor="middle" x="842.5" y="-119.5" font-family="Helvetica,sans-Serif" font-size="10.00">spinlock_recursive.h</text>
</a>
</g>
</g>
<!-- Node12&#45;&gt;Node13 -->
<g id="edge10" class="edge"><title>Node12&#45;&gt;Node13</title>
<path fill="none" stroke="midnightblue" d="M842.5,-157.805C842.5,-148.91 842.5,-138.78 842.5,-131.751"/>
<polygon fill="midnightblue" stroke="midnightblue" points="839,-158.083 842.5,-168.083 846,-158.083 839,-158.083"/>
</g>
<!-- Node13&#45;&gt;Node14 -->
<g id="edge11" class="edge"><title>Node13&#45;&gt;Node14</title>
<path fill="none" stroke="midnightblue" d="M855.61,-104.144C862.928,-94.7357 871.741,-83.4046 877.694,-75.7511"/>
<polygon fill="midnightblue" stroke="midnightblue" points="852.812,-102.041 849.435,-112.083 858.338,-106.338 852.812,-102.041"/>
</g>
<!-- Node15 -->
<g id="node13" class="node"><title>Node15</title>
<g id="a_node13"><a xlink:href="odp_8h.html" target="_top" xlink:title="WARNING: THIS FILE IS DEPRECATED AND WILL BE REMOVED!!! ODP APPLICATIONS SHOULD NOW INCLUDE odp_api...">
<polygon fill="white" stroke="black" points="862.5,-0.5 862.5,-19.5 906.5,-19.5 906.5,-0.5 862.5,-0.5"/>
<text text-anchor="middle" x="884.5" y="-7.5" font-family="Helvetica,sans-Serif" font-size="10.00">odp.h</text>
</a>
</g>
</g>
<!-- Node14&#45;&gt;Node15 -->
<g id="edge12" class="edge"><title>Node14&#45;&gt;Node15</title>
<path fill="none" stroke="midnightblue" d="M884.5,-45.8045C884.5,-36.9102 884.5,-26.7798 884.5,-19.7511"/>
<polygon fill="midnightblue" stroke="midnightblue" points="881,-46.083 884.5,-56.083 888,-46.083 881,-46.083"/>
</g>
</g>
</svg>
