<?xml version="1.0" encoding="UTF-8" standalone="no"?>
<!DOCTYPE svg PUBLIC "-//W3C//DTD SVG 1.1//EN"
 "http://www.w3.org/Graphics/SVG/1.1/DTD/svg11.dtd">
<!-- Generated by graphviz version 2.38.0 (20140413.2041)
 -->
<!-- Title: ticketlock.h Pages: 1 -->
<svg width="613pt" height="252pt"
 viewBox="0.00 0.00 613.00 252.00" xmlns="http://www.w3.org/2000/svg" xmlns:xlink="http://www.w3.org/1999/xlink">
<g id="graph0" class="graph" transform="scale(1 1) rotate(0) translate(4 248)">
<title>ticketlock.h</title>
<polygon fill="white" stroke="none" points="-4,4 -4,-248 609,-248 609,4 -4,4"/>
<!-- Node6 -->
<g id="node1" class="node"><title>Node6</title>
<polygon fill="#bfbfbf" stroke="black" points="267,-224.5 267,-243.5 338,-243.5 338,-224.5 267,-224.5"/>
<text text-anchor="middle" x="302.5" y="-231.5" font-family="Helvetica,sans-Serif" font-size="10.00">ticketlock.h</text>
</g>
<!-- Node7 -->
<g id="node2" class="node"><title>Node7</title>
<g id="a_node2"><a xlink:href="arch_2arm32-linux_2odp_2api_2abi_2ticketlock_8h_source.html" target="_top" xlink:title="ticketlock.h">
<polygon fill="white" stroke="black" points="0,-168.5 0,-187.5 71,-187.5 71,-168.5 0,-168.5"/>
<text text-anchor="middle" x="35.5" y="-175.5" font-family="Helvetica,sans-Serif" font-size="10.00">ticketlock.h</text>
</a>
</g>
</g>
<!-- Node6&#45;&gt;Node7 -->
<g id="edge1" class="edge"><title>Node6&#45;&gt;Node7</title>
<path fill="none" stroke="midnightblue" d="M256.7,-223.737C204.084,-213.096 118.869,-195.861 71.0202,-186.184"/>
<polygon fill="midnightblue" stroke="midnightblue" points="256.273,-227.221 266.768,-225.773 257.661,-220.36 256.273,-227.221"/>
</g>
<!-- Node8 -->
<g id="node3" class="node"><title>Node8</title>
<g id="a_node3"><a xlink:href="arch_2arm64-linux_2odp_2api_2abi_2ticketlock_8h_source.html" target="_top" xlink:title="ticketlock.h">
<polygon fill="white" stroke="black" points="89,-168.5 89,-187.5 160,-187.5 160,-168.5 89,-168.5"/>
<text text-anchor="middle" x="124.5" y="-175.5" font-family="Helvetica,sans-Serif" font-size="10.00">ticketlock.h</text>
</a>
</g>
</g>
<!-- Node6&#45;&gt;Node8 -->
<g id="edge2" class="edge"><title>Node6&#45;&gt;Node8</title>
<path fill="none" stroke="midnightblue" d="M264.383,-221.436C230.822,-211.255 182.726,-196.664 152.573,-187.516"/>
<polygon fill="midnightblue" stroke="midnightblue" points="263.71,-224.89 274.295,-224.444 265.742,-218.191 263.71,-224.89"/>
</g>
<!-- Node9 -->
<g id="node4" class="node"><title>Node9</title>
<g id="a_node4"><a xlink:href="arch_2default-linux_2odp_2api_2abi_2ticketlock_8h_source.html" target="_top" xlink:title="ticketlock.h">
<polygon fill="white" stroke="black" points="178,-168.5 178,-187.5 249,-187.5 249,-168.5 178,-168.5"/>
<text text-anchor="middle" x="213.5" y="-175.5" font-family="Helvetica,sans-Serif" font-size="10.00">ticketlock.h</text>
</a>
</g>
</g>
<!-- Node6&#45;&gt;Node9 -->
<g id="edge3" class="edge"><title>Node6&#45;&gt;Node9</title>
<path fill="none" stroke="midnightblue" d="M279.262,-218.901C262.942,-208.999 241.635,-196.071 227.764,-187.655"/>
<polygon fill="midnightblue" stroke="midnightblue" points="277.836,-222.129 288.201,-224.324 281.467,-216.144 277.836,-222.129"/>
</g>
<!-- Node10 -->
<g id="node5" class="node"><title>Node10</title>
<g id="a_node5"><a xlink:href="arch_2mips64-linux_2odp_2api_2abi_2ticketlock_8h_source.html" target="_top" xlink:title="ticketlock.h">
<polygon fill="white" stroke="black" points="267,-168.5 267,-187.5 338,-187.5 338,-168.5 267,-168.5"/>
<text text-anchor="middle" x="302.5" y="-175.5" font-family="Helvetica,sans-Serif" font-size="10.00">ticketlock.h</text>
</a>
</g>
</g>
<!-- Node6&#45;&gt;Node10 -->
<g id="edge4" class="edge"><title>Node6&#45;&gt;Node10</title>
<path fill="none" stroke="midnightblue" d="M302.5,-213.805C302.5,-204.91 302.5,-194.78 302.5,-187.751"/>
<polygon fill="midnightblue" stroke="midnightblue" points="299,-214.083 302.5,-224.083 306,-214.083 299,-214.083"/>
</g>
<!-- Node11 -->
<g id="node6" class="node"><title>Node11</title>
<g id="a_node6"><a xlink:href="arch_2power64-linux_2odp_2api_2abi_2ticketlock_8h_source.html" target="_top" xlink:title="ticketlock.h">
<polygon fill="white" stroke="black" points="356,-168.5 356,-187.5 427,-187.5 427,-168.5 356,-168.5"/>
<text text-anchor="middle" x="391.5" y="-175.5" font-family="Helvetica,sans-Serif" font-size="10.00">ticketlock.h</text>
</a>
</g>
</g>
<!-- Node6&#45;&gt;Node11 -->
<g id="edge5" class="edge"><title>Node6&#45;&gt;Node11</title>
<path fill="none" stroke="midnightblue" d="M325.738,-218.901C342.058,-208.999 363.365,-196.071 377.236,-187.655"/>
<polygon fill="midnightblue" stroke="midnightblue" points="323.533,-216.144 316.799,-224.324 327.164,-222.129 323.533,-216.144"/>
</g>
<!-- Node12 -->
<g id="node7" class="node"><title>Node12</title>
<g id="a_node7"><a xlink:href="arch_2x86__32-linux_2odp_2api_2abi_2ticketlock_8h_source.html" target="_top" xlink:title="ticketlock.h">
<polygon fill="white" stroke="black" points="445,-168.5 445,-187.5 516,-187.5 516,-168.5 445,-168.5"/>
<text text-anchor="middle" x="480.5" y="-175.5" font-family="Helvetica,sans-Serif" font-size="10.00">ticketlock.h</text>
</a>
</g>
</g>
<!-- Node6&#45;&gt;Node12 -->
<g id="edge6" class="edge"><title>Node6&#45;&gt;Node12</title>
<path fill="none" stroke="midnightblue" d="M340.617,-221.436C374.178,-211.255 422.274,-196.664 452.427,-187.516"/>
<polygon fill="midnightblue" stroke="midnightblue" points="339.258,-218.191 330.705,-224.444 341.29,-224.89 339.258,-218.191"/>
</g>
<!-- Node13 -->
<g id="node8" class="node"><title>Node13</title>
<g id="a_node8"><a xlink:href="arch_2x86__64-linux_2odp_2api_2abi_2ticketlock_8h_source.html" target="_top" xlink:title="ticketlock.h">
<polygon fill="white" stroke="black" points="534,-168.5 534,-187.5 605,-187.5 605,-168.5 534,-168.5"/>
<text text-anchor="middle" x="569.5" y="-175.5" font-family="Helvetica,sans-Serif" font-size="10.00">ticketlock.h</text>
</a>
</g>
</g>
<!-- Node6&#45;&gt;Node13 -->
<g id="edge7" class="edge"><title>Node6&#45;&gt;Node13</title>
<path fill="none" stroke="midnightblue" d="M348.084,-223.838C393.159,-214.77 464.098,-200.475 525.5,-188 528.251,-187.441 531.098,-186.861 533.96,-186.278"/>
<polygon fill="midnightblue" stroke="midnightblue" points="347.152,-220.455 338.038,-225.859 348.532,-227.318 347.152,-220.455"/>
</g>
<!-- Node14 -->
<g id="node9" class="node"><title>Node14</title>
<g id="a_node9"><a xlink:href="api_2ticketlock_8h.html" target="_top" xlink:title="ODP ticketlock. ">
<polygon fill="white" stroke="black" points="534,-112.5 534,-131.5 605,-131.5 605,-112.5 534,-112.5"/>
<text text-anchor="middle" x="569.5" y="-119.5" font-family="Helvetica,sans-Serif" font-size="10.00">ticketlock.h</text>
</a>
</g>
</g>
<!-- Node13&#45;&gt;Node14 -->
<g id="edge8" class="edge"><title>Node13&#45;&gt;Node14</title>
<path fill="none" stroke="midnightblue" d="M569.5,-157.805C569.5,-148.91 569.5,-138.78 569.5,-131.751"/>
<polygon fill="midnightblue" stroke="midnightblue" points="566,-158.083 569.5,-168.083 573,-158.083 566,-158.083"/>
</g>
<!-- Node15 -->
<g id="node10" class="node"><title>Node15</title>
<g id="a_node10"><a xlink:href="odp__api_8h.html" target="_top" xlink:title="The OpenDataPlane API. ">
<polygon fill="white" stroke="black" points="538,-56.5 538,-75.5 601,-75.5 601,-56.5 538,-56.5"/>
<text text-anchor="middle" x="569.5" y="-63.5" font-family="Helvetica,sans-Serif" font-size="10.00">odp_api.h</text>
</a>
</g>
</g>
<!-- Node14&#45;&gt;Node15 -->
<g id="edge9" class="edge"><title>Node14&#45;&gt;Node15</title>
<path fill="none" stroke="midnightblue" d="M569.5,-101.805C569.5,-92.9102 569.5,-82.7798 569.5,-75.7511"/>
<polygon fill="midnightblue" stroke="midnightblue" points="566,-102.083 569.5,-112.083 573,-102.083 566,-102.083"/>
</g>
<!-- Node16 -->
<g id="node11" class="node"><title>Node16</title>
<g id="a_node11"><a xlink:href="odp_8h.html" target="_top" xlink:title="WARNING: THIS FILE IS DEPRECATED AND WILL BE REMOVED!!! ODP APPLICATIONS SHOULD NOW INCLUDE odp_api...">
<polygon fill="white" stroke="black" points="547.5,-0.5 547.5,-19.5 591.5,-19.5 591.5,-0.5 547.5,-0.5"/>
<text text-anchor="middle" x="569.5" y="-7.5" font-family="Helvetica,sans-Serif" font-size="10.00">odp.h</text>
</a>
</g>
</g>
<!-- Node15&#45;&gt;Node16 -->
<g id="edge10" class="edge"><title>Node15&#45;&gt;Node16</title>
<path fill="none" stroke="midnightblue" d="M569.5,-45.8045C569.5,-36.9102 569.5,-26.7798 569.5,-19.7511"/>
<polygon fill="midnightblue" stroke="midnightblue" points="566,-46.083 569.5,-56.083 573,-46.083 566,-46.083"/>
</g>
</g>
</svg>
