<?xml version="1.0" encoding="UTF-8" standalone="no"?>
<!DOCTYPE svg PUBLIC "-//W3C//DTD SVG 1.1//EN"
 "http://www.w3.org/Graphics/SVG/1.1/DTD/svg11.dtd">
<!-- Generated by graphviz version 2.38.0 (20140413.2041)
 -->
<!-- Title: errno.h Pages: 1 -->
<svg width="479pt" height="252pt"
 viewBox="0.00 0.00 479.00 252.00" xmlns="http://www.w3.org/2000/svg" xmlns:xlink="http://www.w3.org/1999/xlink">
<g id="graph0" class="graph" transform="scale(1 1) rotate(0) translate(4 248)">
<title>errno.h</title>
<polygon fill="white" stroke="none" points="-4,4 -4,-248 475,-248 475,4 -4,4"/>
<!-- Node1 -->
<g id="node1" class="node"><title>Node1</title>
<polygon fill="#bfbfbf" stroke="black" points="207,-224.5 207,-243.5 258,-243.5 258,-224.5 207,-224.5"/>
<text text-anchor="middle" x="232.5" y="-231.5" font-family="Helvetica,sans-Serif" font-size="10.00">errno.h</text>
</g>
<!-- Node2 -->
<g id="node2" class="node"><title>Node2</title>
<g id="a_node2"><a xlink:href="arch_2arm32-linux_2odp_2api_2abi_2errno_8h_source.html" target="_top" xlink:title="errno.h">
<polygon fill="white" stroke="black" points="-3.55271e-15,-168.5 -3.55271e-15,-187.5 51,-187.5 51,-168.5 -3.55271e-15,-168.5"/>
<text text-anchor="middle" x="25.5" y="-175.5" font-family="Helvetica,sans-Serif" font-size="10.00">errno.h</text>
</a>
</g>
</g>
<!-- Node1&#45;&gt;Node2 -->
<g id="edge1" class="edge"><title>Node1&#45;&gt;Node2</title>
<path fill="none" stroke="midnightblue" d="M197.016,-223.743C155.58,-212.934 88.0422,-195.315 51.2973,-185.73"/>
<polygon fill="midnightblue" stroke="midnightblue" points="196.142,-227.132 206.702,-226.27 197.909,-220.359 196.142,-227.132"/>
</g>
<!-- Node3 -->
<g id="node3" class="node"><title>Node3</title>
<g id="a_node3"><a xlink:href="arch_2arm64-linux_2odp_2api_2abi_2errno_8h_source.html" target="_top" xlink:title="errno.h">
<polygon fill="white" stroke="black" points="69,-168.5 69,-187.5 120,-187.5 120,-168.5 69,-168.5"/>
<text text-anchor="middle" x="94.5" y="-175.5" font-family="Helvetica,sans-Serif" font-size="10.00">errno.h</text>
</a>
</g>
</g>
<!-- Node1&#45;&gt;Node3 -->
<g id="edge2" class="edge"><title>Node1&#45;&gt;Node3</title>
<path fill="none" stroke="midnightblue" d="M201.251,-220.772C175.329,-210.629 139.138,-196.467 116.264,-187.516"/>
<polygon fill="midnightblue" stroke="midnightblue" points="200.046,-224.059 210.633,-224.444 202.596,-217.54 200.046,-224.059"/>
</g>
<!-- Node4 -->
<g id="node4" class="node"><title>Node4</title>
<g id="a_node4"><a xlink:href="arch_2default-linux_2odp_2api_2abi_2errno_8h_source.html" target="_top" xlink:title="errno.h">
<polygon fill="white" stroke="black" points="138,-168.5 138,-187.5 189,-187.5 189,-168.5 138,-168.5"/>
<text text-anchor="middle" x="163.5" y="-175.5" font-family="Helvetica,sans-Serif" font-size="10.00">errno.h</text>
</a>
</g>
</g>
<!-- Node1&#45;&gt;Node4 -->
<g id="edge3" class="edge"><title>Node1&#45;&gt;Node4</title>
<path fill="none" stroke="midnightblue" d="M213.462,-218.101C201.044,-208.382 185.257,-196.027 174.788,-187.834"/>
<polygon fill="midnightblue" stroke="midnightblue" points="211.382,-220.917 221.414,-224.324 215.696,-215.405 211.382,-220.917"/>
</g>
<!-- Node5 -->
<g id="node5" class="node"><title>Node5</title>
<g id="a_node5"><a xlink:href="arch_2mips64-linux_2odp_2api_2abi_2errno_8h_source.html" target="_top" xlink:title="errno.h">
<polygon fill="white" stroke="black" points="207,-168.5 207,-187.5 258,-187.5 258,-168.5 207,-168.5"/>
<text text-anchor="middle" x="232.5" y="-175.5" font-family="Helvetica,sans-Serif" font-size="10.00">errno.h</text>
</a>
</g>
</g>
<!-- Node1&#45;&gt;Node5 -->
<g id="edge4" class="edge"><title>Node1&#45;&gt;Node5</title>
<path fill="none" stroke="midnightblue" d="M232.5,-213.805C232.5,-204.91 232.5,-194.78 232.5,-187.751"/>
<polygon fill="midnightblue" stroke="midnightblue" points="229,-214.083 232.5,-224.083 236,-214.083 229,-214.083"/>
</g>
<!-- Node6 -->
<g id="node6" class="node"><title>Node6</title>
<g id="a_node6"><a xlink:href="arch_2power64-linux_2odp_2api_2abi_2errno_8h_source.html" target="_top" xlink:title="errno.h">
<polygon fill="white" stroke="black" points="276,-168.5 276,-187.5 327,-187.5 327,-168.5 276,-168.5"/>
<text text-anchor="middle" x="301.5" y="-175.5" font-family="Helvetica,sans-Serif" font-size="10.00">errno.h</text>
</a>
</g>
</g>
<!-- Node1&#45;&gt;Node6 -->
<g id="edge5" class="edge"><title>Node1&#45;&gt;Node6</title>
<path fill="none" stroke="midnightblue" d="M251.538,-218.101C263.956,-208.382 279.743,-196.027 290.212,-187.834"/>
<polygon fill="midnightblue" stroke="midnightblue" points="249.304,-215.405 243.586,-224.324 253.618,-220.917 249.304,-215.405"/>
</g>
<!-- Node7 -->
<g id="node7" class="node"><title>Node7</title>
<g id="a_node7"><a xlink:href="arch_2x86__32-linux_2odp_2api_2abi_2errno_8h_source.html" target="_top" xlink:title="errno.h">
<polygon fill="white" stroke="black" points="345,-168.5 345,-187.5 396,-187.5 396,-168.5 345,-168.5"/>
<text text-anchor="middle" x="370.5" y="-175.5" font-family="Helvetica,sans-Serif" font-size="10.00">errno.h</text>
</a>
</g>
</g>
<!-- Node1&#45;&gt;Node7 -->
<g id="edge6" class="edge"><title>Node1&#45;&gt;Node7</title>
<path fill="none" stroke="midnightblue" d="M263.749,-220.772C289.671,-210.629 325.862,-196.467 348.736,-187.516"/>
<polygon fill="midnightblue" stroke="midnightblue" points="262.404,-217.54 254.367,-224.444 264.954,-224.059 262.404,-217.54"/>
</g>
<!-- Node8 -->
<g id="node8" class="node"><title>Node8</title>
<g id="a_node8"><a xlink:href="arch_2x86__64-linux_2odp_2api_2abi_2errno_8h_source.html" target="_top" xlink:title="errno.h">
<polygon fill="white" stroke="black" points="414,-168.5 414,-187.5 465,-187.5 465,-168.5 414,-168.5"/>
<text text-anchor="middle" x="439.5" y="-175.5" font-family="Helvetica,sans-Serif" font-size="10.00">errno.h</text>
</a>
</g>
</g>
<!-- Node1&#45;&gt;Node8 -->
<g id="edge7" class="edge"><title>Node1&#45;&gt;Node8</title>
<path fill="none" stroke="midnightblue" d="M267.751,-223.878C302.718,-214.818 357.825,-200.51 405.5,-188 408.217,-187.287 411.055,-186.54 413.883,-185.793"/>
<polygon fill="midnightblue" stroke="midnightblue" points="266.814,-220.505 258.011,-226.401 268.569,-227.281 266.814,-220.505"/>
</g>
<!-- Node9 -->
<g id="node9" class="node"><title>Node9</title>
<g id="a_node9"><a xlink:href="api_2errno_8h.html" target="_top" xlink:title="ODP errno API. ">
<polygon fill="white" stroke="black" points="414,-112.5 414,-131.5 465,-131.5 465,-112.5 414,-112.5"/>
<text text-anchor="middle" x="439.5" y="-119.5" font-family="Helvetica,sans-Serif" font-size="10.00">errno.h</text>
</a>
</g>
</g>
<!-- Node8&#45;&gt;Node9 -->
<g id="edge8" class="edge"><title>Node8&#45;&gt;Node9</title>
<path fill="none" stroke="midnightblue" d="M439.5,-157.805C439.5,-148.91 439.5,-138.78 439.5,-131.751"/>
<polygon fill="midnightblue" stroke="midnightblue" points="436,-158.083 439.5,-168.083 443,-158.083 436,-158.083"/>
</g>
<!-- Node10 -->
<g id="node10" class="node"><title>Node10</title>
<g id="a_node10"><a xlink:href="odp__api_8h.html" target="_top" xlink:title="The OpenDataPlane API. ">
<polygon fill="white" stroke="black" points="408,-56.5 408,-75.5 471,-75.5 471,-56.5 408,-56.5"/>
<text text-anchor="middle" x="439.5" y="-63.5" font-family="Helvetica,sans-Serif" font-size="10.00">odp_api.h</text>
</a>
</g>
</g>
<!-- Node9&#45;&gt;Node10 -->
<g id="edge9" class="edge"><title>Node9&#45;&gt;Node10</title>
<path fill="none" stroke="midnightblue" d="M439.5,-101.805C439.5,-92.9102 439.5,-82.7798 439.5,-75.7511"/>
<polygon fill="midnightblue" stroke="midnightblue" points="436,-102.083 439.5,-112.083 443,-102.083 436,-102.083"/>
</g>
<!-- Node11 -->
<g id="node11" class="node"><title>Node11</title>
<g id="a_node11"><a xlink:href="odp_8h.html" target="_top" xlink:title="WARNING: THIS FILE IS DEPRECATED AND WILL BE REMOVED!!! ODP APPLICATIONS SHOULD NOW INCLUDE odp_api...">
<polygon fill="white" stroke="black" points="417.5,-0.5 417.5,-19.5 461.5,-19.5 461.5,-0.5 417.5,-0.5"/>
<text text-anchor="middle" x="439.5" y="-7.5" font-family="Helvetica,sans-Serif" font-size="10.00">odp.h</text>
</a>
</g>
</g>
<!-- Node10&#45;&gt;Node11 -->
<g id="edge10" class="edge"><title>Node10&#45;&gt;Node11</title>
<path fill="none" stroke="midnightblue" d="M439.5,-45.8045C439.5,-36.9102 439.5,-26.7798 439.5,-19.7511"/>
<polygon fill="midnightblue" stroke="midnightblue" points="436,-46.083 439.5,-56.083 443,-46.083 436,-46.083"/>
</g>
</g>
</svg>
