<?xml version="1.0" encoding="UTF-8" standalone="no"?>
<!DOCTYPE svg PUBLIC "-//W3C//DTD SVG 1.1//EN"
 "http://www.w3.org/Graphics/SVG/1.1/DTD/svg11.dtd">
<!-- Generated by graphviz version 2.38.0 (20140413.2041)
 -->
<!-- Title: arch Pages: 1 -->
<svg width="774pt" height="159pt"
 viewBox="0.00 0.00 774.00 159.00" xmlns="http://www.w3.org/2000/svg" xmlns:xlink="http://www.w3.org/1999/xlink">
<g id="graph0" class="graph" transform="scale(1 1) rotate(0) translate(4 155)">
<title>arch</title>
<polygon fill="white" stroke="none" points="-4,4 -4,-155 770,-155 770,4 -4,4"/>
<g id="clust1" class="cluster"><title>clusterdir_a97ec78d987d17ef5986981beb9a2005</title>
<g id="a_clust1"><a xlink:href="dir_a97ec78d987d17ef5986981beb9a2005.html" target="_top" xlink:title="odp">
<polygon fill="#ddddee" stroke="black" points="8,-56 8,-143 758,-143 758,-56 8,-56"/>
<text text-anchor="middle" x="383" y="-131" font-family="Helvetica,sans-Serif" font-size="10.00">odp</text>
</a>
</g>
</g>
<g id="clust2" class="cluster"><title>clusterdir_4eda4fd55dd0f0d3e72752e79818319a</title>
<g id="a_clust2"><a xlink:href="dir_4eda4fd55dd0f0d3e72752e79818319a.html" target="_top">
<polygon fill="#eeeeff" stroke="black" points="16,-64 16,-116 750,-116 750,-64 16,-64"/>
</a>
</g>
</g>
<!-- dir_4eda4fd55dd0f0d3e72752e79818319a -->
<g id="node1" class="node"><title>dir_4eda4fd55dd0f0d3e72752e79818319a</title>
<text text-anchor="middle" x="715" y="-87.5" font-family="Helvetica,sans-Serif" font-size="10.00">arch</text>
</g>
<!-- dir_052e7602a29a4e1039e7de666bce86ca -->
<g id="node2" class="node"><title>dir_052e7602a29a4e1039e7de666bce86ca</title>
<g id="a_node2"><a xlink:href="dir_052e7602a29a4e1039e7de666bce86ca.html" target="_top" xlink:title="arm32&#45;linux">
<polygon fill="white" stroke="red" points="670,-108 596,-108 596,-72 670,-72 670,-108"/>
<text text-anchor="middle" x="633" y="-87.5" font-family="Helvetica,sans-Serif" font-size="10.00">arm32&#45;linux</text>
</a>
</g>
</g>
<!-- dir_be9f6d876b8eda462084eff1b3ea4553 -->
<g id="node9" class="node"><title>dir_be9f6d876b8eda462084eff1b3ea4553</title>
<g id="a_node9"><a xlink:href="dir_be9f6d876b8eda462084eff1b3ea4553.html" target="_top" xlink:title="api">
<polygon fill="white" stroke="red" points="381,-36 327,-36 327,-0 381,-0 381,-36"/>
<text text-anchor="middle" x="354" y="-15.5" font-family="Helvetica,sans-Serif" font-size="10.00">api</text>
</a>
</g>
</g>
<!-- dir_052e7602a29a4e1039e7de666bce86ca&#45;&gt;dir_be9f6d876b8eda462084eff1b3ea4553 -->
<g id="edge7" class="edge"><title>dir_052e7602a29a4e1039e7de666bce86ca&#45;&gt;dir_be9f6d876b8eda462084eff1b3ea4553</title>
<path fill="none" stroke="black" d="M613.155,-71.6786C605.459,-65.8233 596.273,-59.8105 587,-56 521.666,-29.1522 438.618,-21.6857 391.372,-19.6717"/>
<polygon fill="black" stroke="black" points="391.412,-16.1709 381.29,-19.3023 391.155,-23.1662 391.412,-16.1709"/>
<g id="a_edge7&#45;headlabel"><a xlink:href="dir_000006_000002.html" target="_top" xlink:title="27">
<text text-anchor="middle" x="395.108" y="-10.9651" font-family="Helvetica,sans-Serif" font-size="10.00">27</text>
</a>
</g>
</g>
<!-- dir_70eaa2f41713610ea0cf8498c63ac358 -->
<g id="node3" class="node"><title>dir_70eaa2f41713610ea0cf8498c63ac358</title>
<g id="a_node3"><a xlink:href="dir_70eaa2f41713610ea0cf8498c63ac358.html" target="_top" xlink:title="arm64&#45;linux">
<polygon fill="white" stroke="red" points="578,-108 504,-108 504,-72 578,-72 578,-108"/>
<text text-anchor="middle" x="541" y="-87.5" font-family="Helvetica,sans-Serif" font-size="10.00">arm64&#45;linux</text>
</a>
</g>
</g>
<!-- dir_70eaa2f41713610ea0cf8498c63ac358&#45;&gt;dir_be9f6d876b8eda462084eff1b3ea4553 -->
<g id="edge2" class="edge"><title>dir_70eaa2f41713610ea0cf8498c63ac358&#45;&gt;dir_be9f6d876b8eda462084eff1b3ea4553</title>
<path fill="none" stroke="black" d="M520.482,-71.8307C512.859,-66.1318 503.895,-60.1816 495,-56 461.649,-40.3208 420.618,-30.5074 391.435,-24.9596"/>
<polygon fill="black" stroke="black" points="391.721,-21.4542 381.256,-23.1057 390.467,-28.3409 391.721,-21.4542"/>
<g id="a_edge2&#45;headlabel"><a xlink:href="dir_000010_000002.html" target="_top" xlink:title="27">
<text text-anchor="middle" x="395.766" y="-16.8048" font-family="Helvetica,sans-Serif" font-size="10.00">27</text>
</a>
</g>
</g>
<!-- dir_48117faa50f292645806ea8fb70008d8 -->
<g id="node4" class="node"><title>dir_48117faa50f292645806ea8fb70008d8</title>
<g id="a_node4"><a xlink:href="dir_48117faa50f292645806ea8fb70008d8.html" target="_top" xlink:title="default&#45;linux">
<polygon fill="white" stroke="red" points="485.5,-108 410.5,-108 410.5,-72 485.5,-72 485.5,-108"/>
<text text-anchor="middle" x="448" y="-87.5" font-family="Helvetica,sans-Serif" font-size="10.00">default&#45;linux</text>
</a>
</g>
</g>
<!-- dir_48117faa50f292645806ea8fb70008d8&#45;&gt;dir_be9f6d876b8eda462084eff1b3ea4553 -->
<g id="edge4" class="edge"><title>dir_48117faa50f292645806ea8fb70008d8&#45;&gt;dir_be9f6d876b8eda462084eff1b3ea4553</title>
<path fill="none" stroke="black" d="M424.764,-71.6966C412.812,-62.796 398.077,-51.8232 385.153,-42.1989"/>
<polygon fill="black" stroke="black" points="387.08,-39.2699 376.969,-36.1043 382.899,-44.8842 387.08,-39.2699"/>
<g id="a_edge4&#45;headlabel"><a xlink:href="dir_000014_000002.html" target="_top" xlink:title="27">
<text text-anchor="middle" x="391.658" y="-36.6396" font-family="Helvetica,sans-Serif" font-size="10.00">27</text>
</a>
</g>
</g>
<!-- dir_178cc946f187f307d85774a5fd402eaa -->
<g id="node5" class="node"><title>dir_178cc946f187f307d85774a5fd402eaa</title>
<g id="a_node5"><a xlink:href="dir_178cc946f187f307d85774a5fd402eaa.html" target="_top" xlink:title="mips64&#45;linux">
<polygon fill="white" stroke="red" points="392.5,-108 315.5,-108 315.5,-72 392.5,-72 392.5,-108"/>
<text text-anchor="middle" x="354" y="-87.5" font-family="Helvetica,sans-Serif" font-size="10.00">mips64&#45;linux</text>
</a>
</g>
</g>
<!-- dir_178cc946f187f307d85774a5fd402eaa&#45;&gt;dir_be9f6d876b8eda462084eff1b3ea4553 -->
<g id="edge6" class="edge"><title>dir_178cc946f187f307d85774a5fd402eaa&#45;&gt;dir_be9f6d876b8eda462084eff1b3ea4553</title>
<path fill="none" stroke="black" d="M354,-71.6966C354,-63.9827 354,-54.7125 354,-46.1124"/>
<polygon fill="black" stroke="black" points="357.5,-46.1043 354,-36.1043 350.5,-46.1044 357.5,-46.1043"/>
<g id="a_edge6&#45;headlabel"><a xlink:href="dir_000018_000002.html" target="_top" xlink:title="27">
<text text-anchor="middle" x="360.339" y="-47.199" font-family="Helvetica,sans-Serif" font-size="10.00">27</text>
</a>
</g>
</g>
<!-- dir_03c05aea247c636c5180e1c14df87c04 -->
<g id="node6" class="node"><title>dir_03c05aea247c636c5180e1c14df87c04</title>
<g id="a_node6"><a xlink:href="dir_03c05aea247c636c5180e1c14df87c04.html" target="_top" xlink:title="power64&#45;linux">
<polygon fill="white" stroke="red" points="297.5,-108 214.5,-108 214.5,-72 297.5,-72 297.5,-108"/>
<text text-anchor="middle" x="256" y="-87.5" font-family="Helvetica,sans-Serif" font-size="10.00">power64&#45;linux</text>
</a>
</g>
</g>
<!-- dir_03c05aea247c636c5180e1c14df87c04&#45;&gt;dir_be9f6d876b8eda462084eff1b3ea4553 -->
<g id="edge5" class="edge"><title>dir_03c05aea247c636c5180e1c14df87c04&#45;&gt;dir_be9f6d876b8eda462084eff1b3ea4553</title>
<path fill="none" stroke="black" d="M279.973,-71.8761C292.55,-62.8931 308.132,-51.7625 321.752,-42.0341"/>
<polygon fill="black" stroke="black" points="323.831,-44.8502 329.934,-36.1898 319.763,-39.1541 323.831,-44.8502"/>
<g id="a_edge5&#45;headlabel"><a xlink:href="dir_000022_000002.html" target="_top" xlink:title="27">
<text text-anchor="middle" x="322.557" y="-46.7499" font-family="Helvetica,sans-Serif" font-size="10.00">27</text>
</a>
</g>
</g>
<!-- dir_8bf6b7e80d8919b75edbcc15956e61d9 -->
<g id="node7" class="node"><title>dir_8bf6b7e80d8919b75edbcc15956e61d9</title>
<g id="a_node7"><a xlink:href="dir_8bf6b7e80d8919b75edbcc15956e61d9.html" target="_top" xlink:title="x86_32&#45;linux">
<polygon fill="white" stroke="red" points="196.5,-108 119.5,-108 119.5,-72 196.5,-72 196.5,-108"/>
<text text-anchor="middle" x="158" y="-87.5" font-family="Helvetica,sans-Serif" font-size="10.00">x86_32&#45;linux</text>
</a>
</g>
</g>
<!-- dir_8bf6b7e80d8919b75edbcc15956e61d9&#45;&gt;dir_be9f6d876b8eda462084eff1b3ea4553 -->
<g id="edge1" class="edge"><title>dir_8bf6b7e80d8919b75edbcc15956e61d9&#45;&gt;dir_be9f6d876b8eda462084eff1b3ea4553</title>
<path fill="none" stroke="black" d="M179.48,-71.8034C187.44,-66.1019 196.781,-60.1571 206,-56 241.852,-39.833 285.908,-29.9724 316.587,-24.5417"/>
<polygon fill="black" stroke="black" points="317.572,-27.9248 326.846,-22.8024 316.401,-21.0233 317.572,-27.9248"/>
<g id="a_edge1&#45;headlabel"><a xlink:href="dir_000026_000002.html" target="_top" xlink:title="27">
<text text-anchor="middle" x="314.502" y="-28.8249" font-family="Helvetica,sans-Serif" font-size="10.00">27</text>
</a>
</g>
</g>
<!-- dir_e8c392aee706068680f6562db90ecbae -->
<g id="node8" class="node"><title>dir_e8c392aee706068680f6562db90ecbae</title>
<g id="a_node8"><a xlink:href="dir_e8c392aee706068680f6562db90ecbae.html" target="_top" xlink:title="x86_64&#45;linux">
<polygon fill="white" stroke="red" points="101.5,-108 24.5,-108 24.5,-72 101.5,-72 101.5,-108"/>
<text text-anchor="middle" x="63" y="-87.5" font-family="Helvetica,sans-Serif" font-size="10.00">x86_64&#45;linux</text>
</a>
</g>
</g>
<!-- dir_e8c392aee706068680f6562db90ecbae&#45;&gt;dir_be9f6d876b8eda462084eff1b3ea4553 -->
<g id="edge3" class="edge"><title>dir_e8c392aee706068680f6562db90ecbae&#45;&gt;dir_be9f6d876b8eda462084eff1b3ea4553</title>
<path fill="none" stroke="black" d="M83.7988,-71.6611C91.8398,-65.8039 101.408,-59.7944 111,-56 180.132,-28.6523 267.711,-21.391 316.612,-19.5426"/>
<polygon fill="black" stroke="black" points="316.846,-23.0369 326.729,-19.2173 316.621,-16.0406 316.846,-23.0369"/>
<g id="a_edge3&#45;headlabel"><a xlink:href="dir_000030_000002.html" target="_top" xlink:title="27">
<text text-anchor="middle" x="313.345" y="-23.4902" font-family="Helvetica,sans-Serif" font-size="10.00">27</text>
</a>
</g>
</g>
</g>
</svg>
