<?xml version="1.0" encoding="UTF-8" standalone="no"?>
<!DOCTYPE svg PUBLIC "-//W3C//DTD SVG 1.1//EN"
 "http://www.w3.org/Graphics/SVG/1.1/DTD/svg11.dtd">
<!-- Generated by graphviz version 2.38.0 (20140413.2041)
 -->
<!-- Title: default&#45;linux Pages: 1 -->
<svg width="203pt" height="159pt"
 viewBox="0.00 0.00 203.00 159.00" xmlns="http://www.w3.org/2000/svg" xmlns:xlink="http://www.w3.org/1999/xlink">
<g id="graph0" class="graph" transform="scale(1 1) rotate(0) translate(4 155)">
<title>default&#45;linux</title>
<polygon fill="white" stroke="none" points="-4,4 -4,-155 199,-155 199,4 -4,4"/>
<g id="clust1" class="cluster"><title>clusterdir_4eda4fd55dd0f0d3e72752e79818319a</title>
<g id="a_clust1"><a xlink:href="dir_4eda4fd55dd0f0d3e72752e79818319a.html" target="_top" xlink:title="arch">
<polygon fill="#ddddee" stroke="black" points="8,-56 8,-143 187,-143 187,-56 8,-56"/>
<text text-anchor="middle" x="97.5" y="-131" font-family="Helvetica,sans-Serif" font-size="10.00">arch</text>
</a>
</g>
</g>
<g id="clust2" class="cluster"><title>clusterdir_48117faa50f292645806ea8fb70008d8</title>
<g id="a_clust2"><a xlink:href="dir_48117faa50f292645806ea8fb70008d8.html" target="_top">
<polygon fill="#eeeeff" stroke="black" points="16,-64 16,-116 179,-116 179,-64 16,-64"/>
</a>
</g>
</g>
<!-- dir_48117faa50f292645806ea8fb70008d8 -->
<g id="node1" class="node"><title>dir_48117faa50f292645806ea8fb70008d8</title>
<text text-anchor="middle" x="134" y="-87.5" font-family="Helvetica,sans-Serif" font-size="10.00">default&#45;linux</text>
</g>
<!-- dir_3c81fba3799e85b17c85e2bd7bc4a704 -->
<g id="node2" class="node"><title>dir_3c81fba3799e85b17c85e2bd7bc4a704</title>
<g id="a_node2"><a xlink:href="dir_3c81fba3799e85b17c85e2bd7bc4a704.html" target="_top" xlink:title="odp">
<polygon fill="white" stroke="red" points="78,-108 24,-108 24,-72 78,-72 78,-108"/>
<text text-anchor="middle" x="51" y="-87.5" font-family="Helvetica,sans-Serif" font-size="10.00">odp</text>
</a>
</g>
</g>
<!-- dir_be9f6d876b8eda462084eff1b3ea4553 -->
<g id="node3" class="node"><title>dir_be9f6d876b8eda462084eff1b3ea4553</title>
<g id="a_node3"><a xlink:href="dir_be9f6d876b8eda462084eff1b3ea4553.html" target="_top" xlink:title="api">
<polygon fill="white" stroke="red" points="78,-36 24,-36 24,-0 78,-0 78,-36"/>
<text text-anchor="middle" x="51" y="-15.5" font-family="Helvetica,sans-Serif" font-size="10.00">api</text>
</a>
</g>
</g>
<!-- dir_3c81fba3799e85b17c85e2bd7bc4a704&#45;&gt;dir_be9f6d876b8eda462084eff1b3ea4553 -->
<g id="edge1" class="edge"><title>dir_3c81fba3799e85b17c85e2bd7bc4a704&#45;&gt;dir_be9f6d876b8eda462084eff1b3ea4553</title>
<path fill="none" stroke="black" d="M51,-71.6966C51,-63.9827 51,-54.7125 51,-46.1124"/>
<polygon fill="black" stroke="black" points="54.5001,-46.1043 51,-36.1043 47.5001,-46.1044 54.5001,-46.1043"/>
<g id="a_edge1&#45;headlabel"><a xlink:href="dir_000015_000002.html" target="_top" xlink:title="27">
<text text-anchor="middle" x="57.3393" y="-47.199" font-family="Helvetica,sans-Serif" font-size="10.00">27</text>
</a>
</g>
</g>
</g>
</svg>
