<?xml version="1.0" encoding="UTF-8" standalone="no"?>
<!DOCTYPE svg PUBLIC "-//W3C//DTD SVG 1.1//EN"
 "http://www.w3.org/Graphics/SVG/1.1/DTD/svg11.dtd">
<!-- Generated by graphviz version 2.38.0 (20140413.2041)
 -->
<!-- Title: api Pages: 1 -->
<svg width="196pt" height="183pt"
 viewBox="0.00 0.00 196.00 183.00" xmlns="http://www.w3.org/2000/svg" xmlns:xlink="http://www.w3.org/1999/xlink">
<g id="graph0" class="graph" transform="scale(1 1) rotate(0) translate(4 179)">
<title>api</title>
<polygon fill="white" stroke="none" points="-4,4 -4,-179 192,-179 192,4 -4,4"/>
<g id="clust1" class="cluster"><title>clusterdir_a97ec78d987d17ef5986981beb9a2005</title>
<g id="a_clust1"><a xlink:href="dir_a97ec78d987d17ef5986981beb9a2005.html" target="_top" xlink:title="odp">
<polygon fill="#ddddee" stroke="black" points="8,-8 8,-167 180,-167 180,-8 8,-8"/>
<text text-anchor="middle" x="94" y="-155" font-family="Helvetica,sans-Serif" font-size="10.00">odp</text>
</a>
</g>
</g>
<g id="clust2" class="cluster"><title>clusterdir_be9f6d876b8eda462084eff1b3ea4553</title>
<g id="a_clust2"><a xlink:href="dir_be9f6d876b8eda462084eff1b3ea4553.html" target="_top">
<polygon fill="#eeeeff" stroke="black" points="16,-16 16,-140 172,-140 172,-16 16,-16"/>
</a>
</g>
</g>
<!-- dir_be9f6d876b8eda462084eff1b3ea4553 -->
<g id="node1" class="node"><title>dir_be9f6d876b8eda462084eff1b3ea4553</title>
<text text-anchor="middle" x="137" y="-111.5" font-family="Helvetica,sans-Serif" font-size="10.00">api</text>
</g>
<!-- dir_6c22a75485a92e225a6a44114cdc818e -->
<g id="node3" class="node"><title>dir_6c22a75485a92e225a6a44114cdc818e</title>
<g id="a_node3"><a xlink:href="dir_6c22a75485a92e225a6a44114cdc818e.html" target="_top" xlink:title="spec">
<polygon fill="white" stroke="black" points="164,-60 110,-60 110,-24 164,-24 164,-60"/>
<text text-anchor="middle" x="137" y="-39.5" font-family="Helvetica,sans-Serif" font-size="10.00">spec</text>
</a>
</g>
</g>
<!-- dir_be9f6d876b8eda462084eff1b3ea4553&#45;&gt;dir_6c22a75485a92e225a6a44114cdc818e -->
<g id="edge1" class="edge"><title>dir_be9f6d876b8eda462084eff1b3ea4553&#45;&gt;dir_6c22a75485a92e225a6a44114cdc818e</title>
<path fill="none" stroke="black" d="M137,-95.6966C137,-87.9827 137,-78.7125 137,-70.1124"/>
<polygon fill="black" stroke="black" points="140.5,-70.1043 137,-60.1043 133.5,-70.1044 140.5,-70.1043"/>
<g id="a_edge1&#45;headlabel"><a xlink:href="dir_000002_000004.html" target="_top" xlink:title="49">
<text text-anchor="middle" x="143.339" y="-71.199" font-family="Helvetica,sans-Serif" font-size="10.00">49</text>
</a>
</g>
</g>
<!-- dir_c59afd88e2a7495c965f6b2c01e1c7d5 -->
<g id="node2" class="node"><title>dir_c59afd88e2a7495c965f6b2c01e1c7d5</title>
<g id="a_node2"><a xlink:href="dir_c59afd88e2a7495c965f6b2c01e1c7d5.html" target="_top" xlink:title="abi&#45;default">
<polygon fill="white" stroke="black" points="92,-132 24,-132 24,-96 92,-96 92,-132"/>
<text text-anchor="middle" x="58" y="-111.5" font-family="Helvetica,sans-Serif" font-size="10.00">abi&#45;default</text>
</a>
</g>
</g>
</g>
</svg>
