<?xml version="1.0" encoding="UTF-8" standalone="no"?>
<!DOCTYPE svg PUBLIC "-//W3C//DTD SVG 1.1//EN"
 "http://www.w3.org/Graphics/SVG/1.1/DTD/svg11.dtd">
<!-- Generated by graphviz version 2.38.0 (20140413.2041)
 -->
<!-- Title: hints.h Pages: 1 -->
<svg width="178pt" height="364pt"
 viewBox="0.00 0.00 178.00 364.00" xmlns="http://www.w3.org/2000/svg" xmlns:xlink="http://www.w3.org/1999/xlink">
<g id="graph0" class="graph" transform="scale(1 1) rotate(0) translate(4 360)">
<title>hints.h</title>
<polygon fill="white" stroke="none" points="-4,4 -4,-360 174,-360 174,4 -4,4"/>
<!-- Node4 -->
<g id="node1" class="node"><title>Node4</title>
<polygon fill="#bfbfbf" stroke="black" points="121,-336.5 121,-355.5 170,-355.5 170,-336.5 121,-336.5"/>
<text text-anchor="middle" x="145.5" y="-343.5" font-family="Helvetica,sans-Serif" font-size="10.00">hints.h</text>
</g>
<!-- Node5 -->
<g id="node2" class="node"><title>Node5</title>
<g id="a_node2"><a xlink:href="api_2spec_2init_8h.html" target="_top" xlink:title="init.h">
<polygon fill="white" stroke="black" points="101.5,-280.5 101.5,-299.5 141.5,-299.5 141.5,-280.5 101.5,-280.5"/>
<text text-anchor="middle" x="121.5" y="-287.5" font-family="Helvetica,sans-Serif" font-size="10.00">init.h</text>
</a>
</g>
</g>
<!-- Node4&#45;&gt;Node5 -->
<g id="edge1" class="edge"><title>Node4&#45;&gt;Node5</title>
<path fill="none" stroke="midnightblue" d="M137.362,-326.69C133.317,-317.589 128.617,-307.014 125.389,-299.751"/>
<polygon fill="midnightblue" stroke="midnightblue" points="134.277,-328.366 141.537,-336.083 140.674,-325.523 134.277,-328.366"/>
</g>
<!-- Node9 -->
<g id="node6" class="node"><title>Node9</title>
<g id="a_node6"><a xlink:href="odp__api_8h.html" target="_top" xlink:title="The OpenDataPlane API. ">
<polygon fill="white" stroke="black" points="100,-56.5 100,-75.5 163,-75.5 163,-56.5 100,-56.5"/>
<text text-anchor="middle" x="131.5" y="-63.5" font-family="Helvetica,sans-Serif" font-size="10.00">odp_api.h</text>
</a>
</g>
</g>
<!-- Node4&#45;&gt;Node9 -->
<g id="edge8" class="edge"><title>Node4&#45;&gt;Node9</title>
<path fill="none" stroke="midnightblue" d="M151.991,-326.786C159.099,-305.182 169.5,-267.941 169.5,-235 169.5,-235 169.5,-235 169.5,-177 169.5,-137.399 147.225,-93.957 136.784,-75.769"/>
<polygon fill="midnightblue" stroke="midnightblue" points="148.662,-325.706 148.737,-336.301 155.285,-327.972 148.662,-325.706"/>
</g>
<!-- Node6 -->
<g id="node3" class="node"><title>Node6</title>
<g id="a_node3"><a xlink:href="api_2init_8h.html" target="_top" xlink:title="ODP initialization. ">
<polygon fill="white" stroke="black" points="101.5,-224.5 101.5,-243.5 141.5,-243.5 141.5,-224.5 101.5,-224.5"/>
<text text-anchor="middle" x="121.5" y="-231.5" font-family="Helvetica,sans-Serif" font-size="10.00">init.h</text>
</a>
</g>
</g>
<!-- Node5&#45;&gt;Node6 -->
<g id="edge2" class="edge"><title>Node5&#45;&gt;Node6</title>
<path fill="none" stroke="midnightblue" d="M121.5,-269.805C121.5,-260.91 121.5,-250.78 121.5,-243.751"/>
<polygon fill="midnightblue" stroke="midnightblue" points="118,-270.083 121.5,-280.083 125,-270.083 118,-270.083"/>
</g>
<!-- Node7 -->
<g id="node4" class="node"><title>Node7</title>
<g id="a_node4"><a xlink:href="api_2spec_2shared__memory_8h.html" target="_top" xlink:title="ODP shared memory. ">
<polygon fill="white" stroke="black" points="0,-168.5 0,-187.5 103,-187.5 103,-168.5 0,-168.5"/>
<text text-anchor="middle" x="51.5" y="-175.5" font-family="Helvetica,sans-Serif" font-size="10.00">shared_memory.h</text>
</a>
</g>
</g>
<!-- Node6&#45;&gt;Node7 -->
<g id="edge3" class="edge"><title>Node6&#45;&gt;Node7</title>
<path fill="none" stroke="midnightblue" d="M102.186,-218.101C89.5883,-208.382 73.5719,-196.027 62.9513,-187.834"/>
<polygon fill="midnightblue" stroke="midnightblue" points="100.198,-220.987 110.253,-224.324 104.473,-215.445 100.198,-220.987"/>
</g>
<!-- Node6&#45;&gt;Node9 -->
<g id="edge7" class="edge"><title>Node6&#45;&gt;Node9</title>
<path fill="none" stroke="midnightblue" d="M122.649,-213.93C124.818,-177.92 129.438,-101.231 130.984,-75.5681"/>
<polygon fill="midnightblue" stroke="midnightblue" points="119.145,-213.883 122.038,-224.075 126.133,-214.304 119.145,-213.883"/>
</g>
<!-- Node8 -->
<g id="node5" class="node"><title>Node8</title>
<g id="a_node5"><a xlink:href="api_2shared__memory_8h.html" target="_top" xlink:title="ODP shared memory. ">
<polygon fill="white" stroke="black" points="0,-112.5 0,-131.5 103,-131.5 103,-112.5 0,-112.5"/>
<text text-anchor="middle" x="51.5" y="-119.5" font-family="Helvetica,sans-Serif" font-size="10.00">shared_memory.h</text>
</a>
</g>
</g>
<!-- Node7&#45;&gt;Node8 -->
<g id="edge4" class="edge"><title>Node7&#45;&gt;Node8</title>
<path fill="none" stroke="midnightblue" d="M51.5,-157.805C51.5,-148.91 51.5,-138.78 51.5,-131.751"/>
<polygon fill="midnightblue" stroke="midnightblue" points="48.0001,-158.083 51.5,-168.083 55.0001,-158.083 48.0001,-158.083"/>
</g>
<!-- Node8&#45;&gt;Node9 -->
<g id="edge5" class="edge"><title>Node8&#45;&gt;Node9</title>
<path fill="none" stroke="midnightblue" d="M72.8006,-106.622C87.415,-96.7574 106.327,-83.9919 118.679,-75.6545"/>
<polygon fill="midnightblue" stroke="midnightblue" points="70.6837,-103.828 64.3534,-112.324 74.6001,-109.63 70.6837,-103.828"/>
</g>
<!-- Node10 -->
<g id="node7" class="node"><title>Node10</title>
<g id="a_node7"><a xlink:href="odp_8h.html" target="_top" xlink:title="WARNING: THIS FILE IS DEPRECATED AND WILL BE REMOVED!!! ODP APPLICATIONS SHOULD NOW INCLUDE odp_api...">
<polygon fill="white" stroke="black" points="109.5,-0.5 109.5,-19.5 153.5,-19.5 153.5,-0.5 109.5,-0.5"/>
<text text-anchor="middle" x="131.5" y="-7.5" font-family="Helvetica,sans-Serif" font-size="10.00">odp.h</text>
</a>
</g>
</g>
<!-- Node9&#45;&gt;Node10 -->
<g id="edge6" class="edge"><title>Node9&#45;&gt;Node10</title>
<path fill="none" stroke="midnightblue" d="M131.5,-45.8045C131.5,-36.9102 131.5,-26.7798 131.5,-19.7511"/>
<polygon fill="midnightblue" stroke="midnightblue" points="128,-46.083 131.5,-56.083 135,-46.083 128,-46.083"/>
</g>
</g>
</svg>
