<?xml version="1.0" encoding="UTF-8" standalone="no"?>
<!DOCTYPE svg PUBLIC "-//W3C//DTD SVG 1.1//EN"
 "http://www.w3.org/Graphics/SVG/1.1/DTD/svg11.dtd">
<!-- Generated by graphviz version 2.38.0 (20140413.2041)
 -->
<!-- Title: odp.h Pages: 1 -->
<svg width="5071pt" height="252pt"
 viewBox="0.00 0.00 5071.00 252.00" xmlns="http://www.w3.org/2000/svg" xmlns:xlink="http://www.w3.org/1999/xlink">
<g id="graph0" class="graph" transform="scale(1 1) rotate(0) translate(4 248)">
<title>odp.h</title>
<polygon fill="white" stroke="none" points="-4,4 -4,-248 5067,-248 5067,4 -4,4"/>
<!-- Node0 -->
<g id="node1" class="node"><title>Node0</title>
<polygon fill="#bfbfbf" stroke="black" points="2323,-224.5 2323,-243.5 2367,-243.5 2367,-224.5 2323,-224.5"/>
<text text-anchor="middle" x="2345" y="-231.5" font-family="Helvetica,sans-Serif" font-size="10.00">odp.h</text>
</g>
<!-- Node1 -->
<g id="node2" class="node"><title>Node1</title>
<g id="a_node2"><a xlink:href="odp__api_8h.html" target="_top" xlink:title="The OpenDataPlane API. ">
<polygon fill="white" stroke="black" points="2313.5,-168.5 2313.5,-187.5 2376.5,-187.5 2376.5,-168.5 2313.5,-168.5"/>
<text text-anchor="middle" x="2345" y="-175.5" font-family="Helvetica,sans-Serif" font-size="10.00">odp_api.h</text>
</a>
</g>
</g>
<!-- Node0&#45;&gt;Node1 -->
<g id="edge1" class="edge"><title>Node0&#45;&gt;Node1</title>
<path fill="none" stroke="midnightblue" d="M2345,-224.083C2345,-217.006 2345,-206.861 2345,-197.986"/>
<polygon fill="midnightblue" stroke="midnightblue" points="2348.5,-197.751 2345,-187.751 2341.5,-197.751 2348.5,-197.751"/>
</g>
<!-- Node2 -->
<g id="node3" class="node"><title>Node2</title>
<g id="a_node3"><a xlink:href="deprecated_8h.html" target="_top" xlink:title="Control deprecated API definitions. ">
<polygon fill="white" stroke="black" points="92.5,-112.5 92.5,-131.5 211.5,-131.5 211.5,-112.5 92.5,-112.5"/>
<text text-anchor="middle" x="152" y="-119.5" font-family="Helvetica,sans-Serif" font-size="10.00">odp/api/deprecated.h</text>
</a>
</g>
</g>
<!-- Node1&#45;&gt;Node2 -->
<g id="edge2" class="edge"><title>Node1&#45;&gt;Node2</title>
<path fill="none" stroke="midnightblue" d="M2313.44,-176.765C2124.08,-175.256 1119.18,-165.908 300,-132 274.456,-130.943 246.456,-129.351 221.751,-127.799"/>
<polygon fill="midnightblue" stroke="midnightblue" points="221.945,-124.304 211.743,-127.161 221.5,-131.29 221.945,-124.304"/>
</g>
<!-- Node6 -->
<g id="node5" class="node"><title>Node6</title>
<g id="a_node5"><a xlink:href="api_2version_8h.html" target="_top" xlink:title="ODP version. ">
<polygon fill="white" stroke="black" points="309,-112.5 309,-131.5 407,-131.5 407,-112.5 309,-112.5"/>
<text text-anchor="middle" x="358" y="-119.5" font-family="Helvetica,sans-Serif" font-size="10.00">odp/api/version.h</text>
</a>
</g>
</g>
<!-- Node1&#45;&gt;Node6 -->
<g id="edge4" class="edge"><title>Node1&#45;&gt;Node6</title>
<path fill="none" stroke="midnightblue" d="M2313.46,-176.514C2137.22,-173.736 1256.31,-159.03 537,-132 497.097,-130.501 452.218,-128.243 417.379,-126.364"/>
<polygon fill="midnightblue" stroke="midnightblue" points="417.546,-122.868 407.37,-125.819 417.166,-129.857 417.546,-122.868"/>
</g>
<!-- Node9 -->
<g id="node8" class="node"><title>Node9</title>
<g id="a_node8"><a xlink:href="api_2std__types_8h.html" target="_top" xlink:title="Standard C language types and definitions for ODP. ">
<polygon fill="white" stroke="red" points="991,-0.5 991,-19.5 1101,-19.5 1101,-0.5 991,-0.5"/>
<text text-anchor="middle" x="1046" y="-7.5" font-family="Helvetica,sans-Serif" font-size="10.00">odp/api/std_types.h</text>
</a>
</g>
</g>
<!-- Node1&#45;&gt;Node9 -->
<g id="edge7" class="edge"><title>Node1&#45;&gt;Node9</title>
<path fill="none" stroke="midnightblue" d="M2313.36,-176.759C2124.01,-175.207 1147.05,-165.589 1094,-132 1059.09,-109.898 1049.56,-57.6582 1046.97,-29.5949"/>
<polygon fill="midnightblue" stroke="midnightblue" points="1050.45,-29.2368 1046.24,-19.5143 1043.47,-29.7401 1050.45,-29.2368"/>
</g>
<!-- Node13 -->
<g id="node9" class="node"><title>Node13</title>
<g id="a_node9"><a xlink:href="api_2align_8h.html" target="_top" xlink:title="ODP alignments. ">
<polygon fill="white" stroke="red" points="1452,-112.5 1452,-131.5 1538,-131.5 1538,-112.5 1452,-112.5"/>
<text text-anchor="middle" x="1495" y="-119.5" font-family="Helvetica,sans-Serif" font-size="10.00">odp/api/align.h</text>
</a>
</g>
</g>
<!-- Node1&#45;&gt;Node13 -->
<g id="edge8" class="edge"><title>Node1&#45;&gt;Node13</title>
<path fill="none" stroke="midnightblue" d="M2313.33,-176.522C2206.85,-174.638 1851.85,-166.128 1548.39,-132.02"/>
<polygon fill="midnightblue" stroke="midnightblue" points="1548.41,-128.499 1538.08,-130.848 1547.62,-135.455 1548.41,-128.499"/>
</g>
<!-- Node16 -->
<g id="node10" class="node"><title>Node16</title>
<g id="a_node10"><a xlink:href="api_2hash_8h.html" target="_top" xlink:title="ODP Hash function. ">
<polygon fill="white" stroke="red" points="1556.5,-112.5 1556.5,-131.5 1643.5,-131.5 1643.5,-112.5 1556.5,-112.5"/>
<text text-anchor="middle" x="1600" y="-119.5" font-family="Helvetica,sans-Serif" font-size="10.00">odp/api/hash.h</text>
</a>
</g>
</g>
<!-- Node1&#45;&gt;Node16 -->
<g id="edge9" class="edge"><title>Node1&#45;&gt;Node16</title>
<path fill="none" stroke="midnightblue" d="M2313.46,-176.148C2216.48,-173.277 1913.93,-162.435 1653.66,-132.082"/>
<polygon fill="midnightblue" stroke="midnightblue" points="1653.98,-128.595 1643.64,-130.901 1653.17,-135.547 1653.98,-128.595"/>
</g>
<!-- Node19 -->
<g id="node11" class="node"><title>Node19</title>
<g id="a_node11"><a xlink:href="chksum_8h.html" target="_top" xlink:title="ODP checksum functions. ">
<polygon fill="white" stroke="red" points="1661.5,-112.5 1661.5,-131.5 1762.5,-131.5 1762.5,-112.5 1661.5,-112.5"/>
<text text-anchor="middle" x="1712" y="-119.5" font-family="Helvetica,sans-Serif" font-size="10.00">odp/api/chksum.h</text>
</a>
</g>
</g>
<!-- Node1&#45;&gt;Node19 -->
<g id="edge10" class="edge"><title>Node1&#45;&gt;Node19</title>
<path fill="none" stroke="midnightblue" d="M2313.19,-175.325C2227.54,-170.642 1984.79,-156.22 1772.88,-132.147"/>
<polygon fill="midnightblue" stroke="midnightblue" points="1773.15,-128.654 1762.82,-130.993 1772.35,-135.609 1773.15,-128.654"/>
</g>
<!-- Node21 -->
<g id="node12" class="node"><title>Node21</title>
<g id="a_node12"><a xlink:href="api_2comp_8h.html" target="_top" xlink:title="ODP crypto. ">
<polygon fill="white" stroke="red" points="1780.5,-112.5 1780.5,-131.5 1871.5,-131.5 1871.5,-112.5 1780.5,-112.5"/>
<text text-anchor="middle" x="1826" y="-119.5" font-family="Helvetica,sans-Serif" font-size="10.00">odp/api/comp.h</text>
</a>
</g>
</g>
<!-- Node1&#45;&gt;Node21 -->
<g id="edge11" class="edge"><title>Node1&#45;&gt;Node21</title>
<path fill="none" stroke="midnightblue" d="M2313.34,-174.691C2239.52,-169.144 2050.03,-153.978 1881.67,-132.144"/>
<polygon fill="midnightblue" stroke="midnightblue" points="1882,-128.658 1871.63,-130.832 1881.09,-135.599 1882,-128.658"/>
</g>
<!-- Node37 -->
<g id="node13" class="node"><title>Node37</title>
<g id="a_node13"><a xlink:href="hints_8h.html" target="_top" xlink:title="ODP compiler hints. ">
<polygon fill="white" stroke="red" points="1889.5,-112.5 1889.5,-131.5 1976.5,-131.5 1976.5,-112.5 1889.5,-112.5"/>
<text text-anchor="middle" x="1933" y="-119.5" font-family="Helvetica,sans-Serif" font-size="10.00">odp/api/hints.h</text>
</a>
</g>
</g>
<!-- Node1&#45;&gt;Node37 -->
<g id="edge12" class="edge"><title>Node1&#45;&gt;Node37</title>
<path fill="none" stroke="midnightblue" d="M2313.24,-173.489C2252.15,-166.635 2113.82,-150.623 1986.57,-132.025"/>
<polygon fill="midnightblue" stroke="midnightblue" points="1987.05,-128.559 1976.65,-130.567 1986.03,-135.484 1987.05,-128.559"/>
</g>
<!-- Node39 -->
<g id="node14" class="node"><title>Node39</title>
<g id="a_node14"><a xlink:href="api_2debug_8h.html" target="_top" xlink:title="ODP debug. ">
<polygon fill="white" stroke="red" points="1995,-112.5 1995,-131.5 2089,-131.5 2089,-112.5 1995,-112.5"/>
<text text-anchor="middle" x="2042" y="-119.5" font-family="Helvetica,sans-Serif" font-size="10.00">odp/api/debug.h</text>
</a>
</g>
</g>
<!-- Node1&#45;&gt;Node39 -->
<g id="edge13" class="edge"><title>Node1&#45;&gt;Node39</title>
<path fill="none" stroke="midnightblue" d="M2313.43,-171.374C2262.71,-162.335 2162.36,-144.451 2098.91,-133.142"/>
<polygon fill="midnightblue" stroke="midnightblue" points="2099.52,-129.695 2089.06,-131.386 2098.29,-136.587 2099.52,-129.695"/>
</g>
<!-- Node42 -->
<g id="node15" class="node"><title>Node42</title>
<g id="a_node15"><a xlink:href="api_2byteorder_8h.html" target="_top" xlink:title="ODP byteorder. ">
<polygon fill="white" stroke="red" points="2107,-112.5 2107,-131.5 2217,-131.5 2217,-112.5 2107,-112.5"/>
<text text-anchor="middle" x="2162" y="-119.5" font-family="Helvetica,sans-Serif" font-size="10.00">odp/api/byteorder.h</text>
</a>
</g>
</g>
<!-- Node1&#45;&gt;Node42 -->
<g id="edge14" class="edge"><title>Node1&#45;&gt;Node42</title>
<path fill="none" stroke="midnightblue" d="M2316,-168.444C2284.82,-159.241 2235.07,-144.562 2200.59,-134.388"/>
<polygon fill="midnightblue" stroke="midnightblue" points="2201.44,-130.99 2190.86,-131.516 2199.46,-137.704 2201.44,-130.99"/>
</g>
<!-- Node45 -->
<g id="node16" class="node"><title>Node45</title>
<g id="a_node16"><a xlink:href="api_2cpu_8h.html" target="_top" xlink:title="ODP CPU. ">
<polygon fill="white" stroke="red" points="2235.5,-112.5 2235.5,-131.5 2316.5,-131.5 2316.5,-112.5 2235.5,-112.5"/>
<text text-anchor="middle" x="2276" y="-119.5" font-family="Helvetica,sans-Serif" font-size="10.00">odp/api/cpu.h</text>
</a>
</g>
</g>
<!-- Node1&#45;&gt;Node45 -->
<g id="edge15" class="edge"><title>Node1&#45;&gt;Node45</title>
<path fill="none" stroke="midnightblue" d="M2333.91,-168.324C2323.51,-160.185 2307.74,-147.839 2295.28,-138.087"/>
<polygon fill="midnightblue" stroke="midnightblue" points="2297.32,-135.241 2287.29,-131.834 2293.01,-140.753 2297.32,-135.241"/>
</g>
<!-- Node47 -->
<g id="node17" class="node"><title>Node47</title>
<g id="a_node17"><a xlink:href="api_2thread_8h.html" target="_top" xlink:title="ODP thread API. ">
<polygon fill="white" stroke="red" points="2262.5,-56.5 2262.5,-75.5 2357.5,-75.5 2357.5,-56.5 2262.5,-56.5"/>
<text text-anchor="middle" x="2310" y="-63.5" font-family="Helvetica,sans-Serif" font-size="10.00">odp/api/thread.h</text>
</a>
</g>
</g>
<!-- Node1&#45;&gt;Node47 -->
<g id="edge27" class="edge"><title>Node1&#45;&gt;Node47</title>
<path fill="none" stroke="midnightblue" d="M2342.58,-168.12C2339.11,-155.558 2332.44,-131.911 2326,-112 2323.12,-103.114 2319.68,-93.3357 2316.73,-85.1706"/>
<polygon fill="midnightblue" stroke="midnightblue" points="2319.94,-83.7636 2313.21,-75.5768 2313.37,-86.1706 2319.94,-83.7636"/>
</g>
<!-- Node52 -->
<g id="node18" class="node"><title>Node52</title>
<g id="a_node18"><a xlink:href="api_2cpumask_8h.html" target="_top" xlink:title="ODP CPU masks and enumeration. ">
<polygon fill="white" stroke="red" points="2373.5,-112.5 2373.5,-131.5 2480.5,-131.5 2480.5,-112.5 2373.5,-112.5"/>
<text text-anchor="middle" x="2427" y="-119.5" font-family="Helvetica,sans-Serif" font-size="10.00">odp/api/cpumask.h</text>
</a>
</g>
</g>
<!-- Node1&#45;&gt;Node52 -->
<g id="edge17" class="edge"><title>Node1&#45;&gt;Node52</title>
<path fill="none" stroke="midnightblue" d="M2358.17,-168.324C2370.85,-159.979 2390.23,-147.212 2405.21,-137.352"/>
<polygon fill="midnightblue" stroke="midnightblue" points="2407.43,-140.078 2413.86,-131.655 2403.58,-134.231 2407.43,-140.078"/>
</g>
<!-- Node55 -->
<g id="node19" class="node"><title>Node55</title>
<g id="a_node19"><a xlink:href="api_2barrier_8h.html" target="_top" xlink:title="ODP execution barriers. ">
<polygon fill="white" stroke="red" points="1112.5,-112.5 1112.5,-131.5 1207.5,-131.5 1207.5,-112.5 1112.5,-112.5"/>
<text text-anchor="middle" x="1160" y="-119.5" font-family="Helvetica,sans-Serif" font-size="10.00">odp/api/barrier.h</text>
</a>
</g>
</g>
<!-- Node1&#45;&gt;Node55 -->
<g id="edge18" class="edge"><title>Node1&#45;&gt;Node55</title>
<path fill="none" stroke="midnightblue" d="M2313.21,-176.936C2179.9,-176.413 1652.85,-171.795 1222,-132 1220.69,-131.879 1219.37,-131.749 1218.03,-131.612"/>
<polygon fill="midnightblue" stroke="midnightblue" points="1218,-128.086 1207.67,-130.43 1217.21,-135.041 1218,-128.086"/>
</g>
<!-- Node56 -->
<g id="node20" class="node"><title>Node56</title>
<g id="a_node20"><a xlink:href="api_2atomic_8h.html" target="_top" xlink:title="ODP atomic operations. ">
<polygon fill="white" stroke="red" points="1074.5,-56.5 1074.5,-75.5 1171.5,-75.5 1171.5,-56.5 1074.5,-56.5"/>
<text text-anchor="middle" x="1123" y="-63.5" font-family="Helvetica,sans-Serif" font-size="10.00">odp/api/atomic.h</text>
</a>
</g>
</g>
<!-- Node1&#45;&gt;Node56 -->
<g id="edge22" class="edge"><title>Node1&#45;&gt;Node56</title>
<path fill="none" stroke="midnightblue" d="M2313.33,-177.079C2123.77,-177.399 1146.27,-176.869 1103,-132 1090.51,-119.05 1099.97,-98.4882 1109.68,-83.9634"/>
<polygon fill="midnightblue" stroke="midnightblue" points="1112.55,-85.9774 1115.57,-75.8219 1106.87,-81.878 1112.55,-85.9774"/>
</g>
<!-- Node62 -->
<g id="node21" class="node"><title>Node62</title>
<g id="a_node21"><a xlink:href="api_2spinlock_8h.html" target="_top" xlink:title="ODP spinlock. ">
<polygon fill="white" stroke="red" points="2498,-112.5 2498,-131.5 2600,-131.5 2600,-112.5 2498,-112.5"/>
<text text-anchor="middle" x="2549" y="-119.5" font-family="Helvetica,sans-Serif" font-size="10.00">odp/api/spinlock.h</text>
</a>
</g>
</g>
<!-- Node1&#45;&gt;Node62 -->
<g id="edge21" class="edge"><title>Node1&#45;&gt;Node62</title>
<path fill="none" stroke="midnightblue" d="M2376.88,-168.562C2411.85,-159.304 2468.15,-144.403 2506.77,-134.178"/>
<polygon fill="midnightblue" stroke="midnightblue" points="2507.9,-137.499 2516.68,-131.556 2506.11,-130.732 2507.9,-137.499"/>
</g>
<!-- Node65 -->
<g id="node22" class="node"><title>Node65</title>
<g id="a_node22"><a xlink:href="feature_8h.html" target="_top" xlink:title="ODP features. ">
<polygon fill="white" stroke="red" points="2618,-112.5 2618,-131.5 2716,-131.5 2716,-112.5 2618,-112.5"/>
<text text-anchor="middle" x="2667" y="-119.5" font-family="Helvetica,sans-Serif" font-size="10.00">odp/api/feature.h</text>
</a>
</g>
</g>
<!-- Node1&#45;&gt;Node65 -->
<g id="edge23" class="edge"><title>Node1&#45;&gt;Node65</title>
<path fill="none" stroke="midnightblue" d="M2376.76,-171.674C2430.33,-162.69 2539.48,-144.385 2607.6,-132.962"/>
<polygon fill="midnightblue" stroke="midnightblue" points="2608.47,-136.365 2617.75,-131.259 2607.31,-129.461 2608.47,-136.365"/>
</g>
<!-- Node67 -->
<g id="node23" class="node"><title>Node67</title>
<g id="a_node23"><a xlink:href="api_2init_8h.html" target="_top" xlink:title="ODP initialization. ">
<polygon fill="white" stroke="red" points="2734,-112.5 2734,-131.5 2812,-131.5 2812,-112.5 2734,-112.5"/>
<text text-anchor="middle" x="2773" y="-119.5" font-family="Helvetica,sans-Serif" font-size="10.00">odp/api/init.h</text>
</a>
</g>
</g>
<!-- Node1&#45;&gt;Node67 -->
<g id="edge24" class="edge"><title>Node1&#45;&gt;Node67</title>
<path fill="none" stroke="midnightblue" d="M2376.63,-173.984C2440.32,-167.752 2588.8,-152.438 2723.65,-132.118"/>
<polygon fill="midnightblue" stroke="midnightblue" points="2724.38,-135.547 2733.74,-130.584 2723.33,-128.626 2724.38,-135.547"/>
</g>
<!-- Node70 -->
<g id="node24" class="node"><title>Node70</title>
<g id="a_node24"><a xlink:href="system__info_8h.html" target="_top" xlink:title="ODP system information. ">
<polygon fill="white" stroke="red" points="1228,-56.5 1228,-75.5 1350,-75.5 1350,-56.5 1228,-56.5"/>
<text text-anchor="middle" x="1289" y="-63.5" font-family="Helvetica,sans-Serif" font-size="10.00">odp/api/system_info.h</text>
</a>
</g>
</g>
<!-- Node1&#45;&gt;Node70 -->
<g id="edge25" class="edge"><title>Node1&#45;&gt;Node70</title>
<path fill="none" stroke="midnightblue" d="M2313.3,-176.912C2137.88,-176.277 1292.6,-171.183 1255,-132 1241.31,-117.734 1256.73,-96.8656 1270.99,-82.6496"/>
<polygon fill="midnightblue" stroke="midnightblue" points="1273.69,-84.9119 1278.59,-75.5203 1268.9,-79.8039 1273.69,-84.9119"/>
</g>
<!-- Node72 -->
<g id="node25" class="node"><title>Node72</title>
<g id="a_node25"><a xlink:href="api_2shared__memory_8h.html" target="_top" xlink:title="ODP shared memory. ">
<polygon fill="white" stroke="red" points="2830.5,-112.5 2830.5,-131.5 2971.5,-131.5 2971.5,-112.5 2830.5,-112.5"/>
<text text-anchor="middle" x="2901" y="-119.5" font-family="Helvetica,sans-Serif" font-size="10.00">odp/api/shared_memory.h</text>
</a>
</g>
</g>
<!-- Node1&#45;&gt;Node72 -->
<g id="edge28" class="edge"><title>Node1&#45;&gt;Node72</title>
<path fill="none" stroke="midnightblue" d="M2376.77,-174.193C2451.82,-167.52 2646.21,-149.991 2820.23,-132.063"/>
<polygon fill="midnightblue" stroke="midnightblue" points="2820.75,-135.528 2830.34,-131.018 2820.03,-128.565 2820.75,-135.528"/>
</g>
<!-- Node74 -->
<g id="node26" class="node"><title>Node74</title>
<g id="a_node26"><a xlink:href="api_2buffer_8h.html" target="_top" xlink:title="ODP buffer descriptor. ">
<polygon fill="white" stroke="red" points="1518.5,-56.5 1518.5,-75.5 1609.5,-75.5 1609.5,-56.5 1518.5,-56.5"/>
<text text-anchor="middle" x="1564" y="-63.5" font-family="Helvetica,sans-Serif" font-size="10.00">odp/api/buffer.h</text>
</a>
</g>
</g>
<!-- Node1&#45;&gt;Node74 -->
<g id="edge29" class="edge"><title>Node1&#45;&gt;Node74</title>
<path fill="none" stroke="midnightblue" d="M2313.31,-176.63C2156.9,-174.65 1473.61,-164.18 1443,-132 1417.92,-105.634 1465.74,-87.6034 1508.46,-77.3405"/>
<polygon fill="midnightblue" stroke="midnightblue" points="1509.35,-80.728 1518.31,-75.0833 1507.79,-73.9047 1509.35,-80.728"/>
</g>
<!-- Node76 -->
<g id="node27" class="node"><title>Node76</title>
<g id="a_node27"><a xlink:href="api_2pool_8h.html" target="_top" xlink:title="ODP pool. ">
<polygon fill="white" stroke="red" points="2990,-112.5 2990,-131.5 3074,-131.5 3074,-112.5 2990,-112.5"/>
<text text-anchor="middle" x="3032" y="-119.5" font-family="Helvetica,sans-Serif" font-size="10.00">odp/api/pool.h</text>
</a>
</g>
</g>
<!-- Node1&#45;&gt;Node76 -->
<g id="edge31" class="edge"><title>Node1&#45;&gt;Node76</title>
<path fill="none" stroke="midnightblue" d="M2376.55,-175.93C2468.13,-172.579 2742.11,-160.814 2979.54,-132.055"/>
<polygon fill="midnightblue" stroke="midnightblue" points="2980.25,-135.494 2989.75,-130.805 2979.4,-128.546 2980.25,-135.494"/>
</g>
<!-- Node78 -->
<g id="node28" class="node"><title>Node78</title>
<g id="a_node28"><a xlink:href="api_2queue_8h.html" target="_top" xlink:title="ODP queue. ">
<polygon fill="white" stroke="red" points="1406,-56.5 1406,-75.5 1500,-75.5 1500,-56.5 1406,-56.5"/>
<text text-anchor="middle" x="1453" y="-63.5" font-family="Helvetica,sans-Serif" font-size="10.00">odp/api/queue.h</text>
</a>
</g>
</g>
<!-- Node1&#45;&gt;Node78 -->
<g id="edge32" class="edge"><title>Node1&#45;&gt;Node78</title>
<path fill="none" stroke="midnightblue" d="M2313.48,-176.65C2156.34,-174.753 1464,-164.563 1433,-132 1420.6,-118.969 1430.04,-98.4222 1439.72,-83.9233"/>
<polygon fill="midnightblue" stroke="midnightblue" points="1442.57,-85.9554 1445.59,-75.7985 1436.9,-81.8584 1442.57,-85.9554"/>
</g>
<!-- Node86 -->
<g id="node29" class="node"><title>Node86</title>
<g id="a_node29"><a xlink:href="api_2ticketlock_8h.html" target="_top" xlink:title="ODP ticketlock. ">
<polygon fill="white" stroke="red" points="3092.5,-112.5 3092.5,-131.5 3201.5,-131.5 3201.5,-112.5 3092.5,-112.5"/>
<text text-anchor="middle" x="3147" y="-119.5" font-family="Helvetica,sans-Serif" font-size="10.00">odp/api/ticketlock.h</text>
</a>
</g>
</g>
<!-- Node1&#45;&gt;Node86 -->
<g id="edge34" class="edge"><title>Node1&#45;&gt;Node86</title>
<path fill="none" stroke="midnightblue" d="M2376.72,-175.96C2477.91,-172.454 2802.27,-159.758 3081.88,-132.028"/>
<polygon fill="midnightblue" stroke="midnightblue" points="3082.62,-135.471 3092.22,-130.993 3081.92,-128.505 3082.62,-135.471"/>
</g>
<!-- Node34 -->
<g id="node30" class="node"><title>Node34</title>
<g id="a_node30"><a xlink:href="api_2time_8h.html" target="_top" xlink:title="ODP time. ">
<polygon fill="white" stroke="red" points="438,-56.5 438,-75.5 524,-75.5 524,-56.5 438,-56.5"/>
<text text-anchor="middle" x="481" y="-63.5" font-family="Helvetica,sans-Serif" font-size="10.00">odp/api/time.h</text>
</a>
</g>
</g>
<!-- Node1&#45;&gt;Node34 -->
<g id="edge35" class="edge"><title>Node1&#45;&gt;Node34</title>
<path fill="none" stroke="midnightblue" d="M2313.31,-177.085C2116.07,-177.465 1054.41,-177.349 733,-132 654.059,-120.862 564.221,-94.1979 516.01,-78.7022"/>
<polygon fill="midnightblue" stroke="midnightblue" points="516.965,-75.3326 506.373,-75.5747 514.804,-81.9907 516.965,-75.3326"/>
</g>
<!-- Node89 -->
<g id="node31" class="node"><title>Node89</title>
<g id="a_node31"><a xlink:href="api_2timer_8h.html" target="_top" xlink:title="ODP timer service. ">
<polygon fill="white" stroke="red" points="542.5,-56.5 542.5,-75.5 631.5,-75.5 631.5,-56.5 542.5,-56.5"/>
<text text-anchor="middle" x="587" y="-63.5" font-family="Helvetica,sans-Serif" font-size="10.00">odp/api/timer.h</text>
</a>
</g>
</g>
<!-- Node1&#45;&gt;Node89 -->
<g id="edge37" class="edge"><title>Node1&#45;&gt;Node89</title>
<path fill="none" stroke="midnightblue" d="M2313.43,-177.047C2123.66,-177.18 1132.52,-175.74 832,-132 755.322,-120.84 668.218,-94.2812 621.306,-78.7864"/>
<polygon fill="midnightblue" stroke="midnightblue" points="622.242,-75.4092 611.648,-75.5648 620.027,-82.0494 622.242,-75.4092"/>
</g>
<!-- Node92 -->
<g id="node32" class="node"><title>Node92</title>
<g id="a_node32"><a xlink:href="api_2schedule_8h.html" target="_top" xlink:title="ODP schedule. ">
<polygon fill="white" stroke="red" points="3219.5,-112.5 3219.5,-131.5 3326.5,-131.5 3326.5,-112.5 3219.5,-112.5"/>
<text text-anchor="middle" x="3273" y="-119.5" font-family="Helvetica,sans-Serif" font-size="10.00">odp/api/schedule.h</text>
</a>
</g>
</g>
<!-- Node1&#45;&gt;Node92 -->
<g id="edge39" class="edge"><title>Node1&#45;&gt;Node92</title>
<path fill="none" stroke="midnightblue" d="M2376.54,-176.411C2488.54,-174.1 2877.78,-164.183 3208.99,-132.113"/>
<polygon fill="midnightblue" stroke="midnightblue" points="3209.66,-135.565 3219.27,-131.109 3208.98,-128.598 3209.66,-135.565"/>
</g>
<!-- Node98 -->
<g id="node33" class="node"><title>Node98</title>
<g id="a_node33"><a xlink:href="api_2sync_8h.html" target="_top" xlink:title="ODP synchronisation. ">
<polygon fill="white" stroke="red" points="3345,-112.5 3345,-131.5 3431,-131.5 3431,-112.5 3345,-112.5"/>
<text text-anchor="middle" x="3388" y="-119.5" font-family="Helvetica,sans-Serif" font-size="10.00">odp/api/sync.h</text>
</a>
</g>
</g>
<!-- Node1&#45;&gt;Node98 -->
<g id="edge40" class="edge"><title>Node1&#45;&gt;Node98</title>
<path fill="none" stroke="midnightblue" d="M2376.77,-177.01C2499.19,-176.745 2952.12,-172.958 3334.77,-131.984"/>
<polygon fill="midnightblue" stroke="midnightblue" points="3335.36,-135.44 3344.93,-130.885 3334.61,-128.48 3335.36,-135.44"/>
</g>
<!-- Node28 -->
<g id="node34" class="node"><title>Node28</title>
<g id="a_node34"><a xlink:href="api_2packet_8h.html" target="_top" xlink:title="ODP packet descriptor. ">
<polygon fill="white" stroke="red" points="650,-56.5 650,-75.5 746,-75.5 746,-56.5 650,-56.5"/>
<text text-anchor="middle" x="698" y="-63.5" font-family="Helvetica,sans-Serif" font-size="10.00">odp/api/packet.h</text>
</a>
</g>
</g>
<!-- Node1&#45;&gt;Node28 -->
<g id="edge41" class="edge"><title>Node1&#45;&gt;Node28</title>
<path fill="none" stroke="midnightblue" d="M2313.26,-177.07C2129.83,-177.315 1203.88,-176.302 923,-132 852.725,-120.916 773.404,-94.6186 730.233,-79.0819"/>
<polygon fill="midnightblue" stroke="midnightblue" points="731.164,-75.6963 720.57,-75.5661 728.77,-82.2744 731.164,-75.6963"/>
</g>
<!-- Node101 -->
<g id="node35" class="node"><title>Node101</title>
<g id="a_node35"><a xlink:href="api_2packet__flags_8h.html" target="_top" xlink:title="ODP packet flags. ">
<polygon fill="white" stroke="red" points="3449,-112.5 3449,-131.5 3573,-131.5 3573,-112.5 3449,-112.5"/>
<text text-anchor="middle" x="3511" y="-119.5" font-family="Helvetica,sans-Serif" font-size="10.00">odp/api/packet_flags.h</text>
</a>
</g>
</g>
<!-- Node1&#45;&gt;Node101 -->
<g id="edge43" class="edge"><title>Node1&#45;&gt;Node101</title>
<path fill="none" stroke="midnightblue" d="M2376.86,-176.68C2507.19,-175.165 3012.53,-167.268 3438.64,-132.039"/>
<polygon fill="midnightblue" stroke="midnightblue" points="3439.02,-135.52 3448.69,-131.202 3438.44,-128.545 3439.02,-135.52"/>
</g>
<!-- Node104 -->
<g id="node36" class="node"><title>Node104</title>
<g id="a_node36"><a xlink:href="api_2packet__io_8h.html" target="_top" xlink:title="ODP Packet IO. ">
<polygon fill="white" stroke="red" points="764,-56.5 764,-75.5 874,-75.5 874,-56.5 764,-56.5"/>
<text text-anchor="middle" x="819" y="-63.5" font-family="Helvetica,sans-Serif" font-size="10.00">odp/api/packet_io.h</text>
</a>
</g>
</g>
<!-- Node1&#45;&gt;Node104 -->
<g id="edge44" class="edge"><title>Node1&#45;&gt;Node104</title>
<path fill="none" stroke="midnightblue" d="M2313.34,-176.547C2122.48,-173.735 1128.97,-157.937 996,-132 940.73,-121.219 879.819,-95.5778 845.803,-79.915"/>
<polygon fill="midnightblue" stroke="midnightblue" points="847.089,-76.6527 836.547,-75.5923 844.127,-82.9951 847.089,-76.6527"/>
</g>
<!-- Node109 -->
<g id="node37" class="node"><title>Node109</title>
<g id="a_node37"><a xlink:href="api_2crypto_8h.html" target="_top" xlink:title="ODP crypto. ">
<polygon fill="white" stroke="red" points="1264,-112.5 1264,-131.5 1358,-131.5 1358,-112.5 1264,-112.5"/>
<text text-anchor="middle" x="1311" y="-119.5" font-family="Helvetica,sans-Serif" font-size="10.00">odp/api/crypto.h</text>
</a>
</g>
</g>
<!-- Node1&#45;&gt;Node109 -->
<g id="edge46" class="edge"><title>Node1&#45;&gt;Node109</title>
<path fill="none" stroke="midnightblue" d="M2313.42,-176.689C2191.65,-175.248 1741.04,-167.668 1372,-132 1370.74,-131.878 1369.47,-131.749 1368.19,-131.612"/>
<polygon fill="midnightblue" stroke="midnightblue" points="1368.57,-128.133 1358.23,-130.446 1367.76,-135.086 1368.57,-128.133"/>
</g>
<!-- Node112 -->
<g id="node38" class="node"><title>Node112</title>
<g id="a_node38"><a xlink:href="api_2classification_8h.html" target="_top" xlink:title="ODP classification descriptor. ">
<polygon fill="white" stroke="red" points="892.5,-56.5 892.5,-75.5 1017.5,-75.5 1017.5,-56.5 892.5,-56.5"/>
<text text-anchor="middle" x="955" y="-63.5" font-family="Helvetica,sans-Serif" font-size="10.00">odp/api/classification.h</text>
</a>
</g>
</g>
<!-- Node1&#45;&gt;Node112 -->
<g id="edge49" class="edge"><title>Node1&#45;&gt;Node112</title>
<path fill="none" stroke="midnightblue" d="M2313.4,-177.151C2125.08,-177.887 1154.92,-179.346 1032,-132 1006.1,-122.025 982.737,-99.4557 968.707,-83.7292"/>
<polygon fill="midnightblue" stroke="midnightblue" points="971.086,-81.1272 961.916,-75.8198 965.775,-85.687 971.086,-81.1272"/>
</g>
<!-- Node116 -->
<g id="node39" class="node"><title>Node116</title>
<g id="a_node39"><a xlink:href="api_2rwlock_8h.html" target="_top" xlink:title="ODP RW Locks. ">
<polygon fill="white" stroke="red" points="3590.5,-112.5 3590.5,-131.5 3683.5,-131.5 3683.5,-112.5 3590.5,-112.5"/>
<text text-anchor="middle" x="3637" y="-119.5" font-family="Helvetica,sans-Serif" font-size="10.00">odp/api/rwlock.h</text>
</a>
</g>
</g>
<!-- Node1&#45;&gt;Node116 -->
<g id="edge51" class="edge"><title>Node1&#45;&gt;Node116</title>
<path fill="none" stroke="midnightblue" d="M2376.64,-177.31C2516.83,-178.38 3096.07,-179.589 3580.26,-132.05"/>
<polygon fill="midnightblue" stroke="midnightblue" points="3580.64,-135.53 3590.25,-131.062 3579.95,-128.564 3580.64,-135.53"/>
</g>
<!-- Node80 -->
<g id="node40" class="node"><title>Node80</title>
<g id="a_node40"><a xlink:href="api_2event_8h.html" target="_top" xlink:title="ODP event. ">
<polygon fill="white" stroke="red" points="3701.5,-112.5 3701.5,-131.5 3792.5,-131.5 3792.5,-112.5 3701.5,-112.5"/>
<text text-anchor="middle" x="3747" y="-119.5" font-family="Helvetica,sans-Serif" font-size="10.00">odp/api/event.h</text>
</a>
</g>
</g>
<!-- Node1&#45;&gt;Node80 -->
<g id="edge52" class="edge"><title>Node1&#45;&gt;Node80</title>
<path fill="none" stroke="midnightblue" d="M2376.75,-176.509C2552.11,-173.713 3404.46,-158.993 3691.03,-132.04"/>
<polygon fill="midnightblue" stroke="midnightblue" points="3691.78,-135.484 3701.39,-131.035 3691.1,-128.517 3691.78,-135.484"/>
</g>
<!-- Node119 -->
<g id="node41" class="node"><title>Node119</title>
<g id="a_node41"><a xlink:href="random_8h.html" target="_top" xlink:title="ODP random number API. ">
<polygon fill="white" stroke="red" points="3810.5,-112.5 3810.5,-131.5 3911.5,-131.5 3911.5,-112.5 3810.5,-112.5"/>
<text text-anchor="middle" x="3861" y="-119.5" font-family="Helvetica,sans-Serif" font-size="10.00">odp/api/random.h</text>
</a>
</g>
</g>
<!-- Node1&#45;&gt;Node119 -->
<g id="edge53" class="edge"><title>Node1&#45;&gt;Node119</title>
<path fill="none" stroke="midnightblue" d="M2376.54,-176.544C2559.83,-173.817 3490.16,-158.896 3799.89,-132.066"/>
<polygon fill="midnightblue" stroke="midnightblue" points="3800.55,-135.521 3810.2,-131.147 3799.93,-128.548 3800.55,-135.521"/>
</g>
<!-- Node121 -->
<g id="node42" class="node"><title>Node121</title>
<g id="a_node42"><a xlink:href="api_2errno_8h.html" target="_top" xlink:title="ODP errno API. ">
<polygon fill="white" stroke="red" points="3929.5,-112.5 3929.5,-131.5 4018.5,-131.5 4018.5,-112.5 3929.5,-112.5"/>
<text text-anchor="middle" x="3974" y="-119.5" font-family="Helvetica,sans-Serif" font-size="10.00">odp/api/errno.h</text>
</a>
</g>
</g>
<!-- Node1&#45;&gt;Node121 -->
<g id="edge54" class="edge"><title>Node1&#45;&gt;Node121</title>
<path fill="none" stroke="midnightblue" d="M2376.56,-176.701C2568.76,-174.788 3584.4,-163.373 3919.06,-132.033"/>
<polygon fill="midnightblue" stroke="midnightblue" points="3919.62,-135.495 3929.24,-131.053 3918.95,-128.527 3919.62,-135.495"/>
</g>
<!-- Node95 -->
<g id="node43" class="node"><title>Node95</title>
<g id="a_node43"><a xlink:href="api_2thrmask_8h.html" target="_top" xlink:title="ODP thread masks. ">
<polygon fill="white" stroke="red" points="4037,-112.5 4037,-131.5 4141,-131.5 4141,-112.5 4037,-112.5"/>
<text text-anchor="middle" x="4089" y="-119.5" font-family="Helvetica,sans-Serif" font-size="10.00">odp/api/thrmask.h</text>
</a>
</g>
</g>
<!-- Node1&#45;&gt;Node95 -->
<g id="edge55" class="edge"><title>Node1&#45;&gt;Node95</title>
<path fill="none" stroke="midnightblue" d="M2376.71,-176.672C2576.93,-174.52 3668.6,-161.625 4026.68,-131.98"/>
<polygon fill="midnightblue" stroke="midnightblue" points="4027.14,-135.454 4036.8,-131.121 4026.54,-128.479 4027.14,-135.454"/>
</g>
<!-- Node124 -->
<g id="node44" class="node"><title>Node124</title>
<g id="a_node44"><a xlink:href="api_2traffic__mngr_8h.html" target="_top" xlink:title="ODP Traffic manager. ">
<polygon fill="white" stroke="red" points="4159.5,-112.5 4159.5,-131.5 4280.5,-131.5 4280.5,-112.5 4159.5,-112.5"/>
<text text-anchor="middle" x="4220" y="-119.5" font-family="Helvetica,sans-Serif" font-size="10.00">odp/api/traffic_mngr.h</text>
</a>
</g>
</g>
<!-- Node1&#45;&gt;Node124 -->
<g id="edge56" class="edge"><title>Node1&#45;&gt;Node124</title>
<path fill="none" stroke="midnightblue" d="M2376.59,-176.658C2584.92,-174.337 3764.49,-160.155 4149.29,-131.942"/>
<polygon fill="midnightblue" stroke="midnightblue" points="4149.62,-135.427 4159.33,-131.188 4149.1,-128.446 4149.62,-135.427"/>
</g>
<!-- Node127 -->
<g id="node45" class="node"><title>Node127</title>
<g id="a_node45"><a xlink:href="api_2spinlock__recursive_8h.html" target="_top" xlink:title="ODP resursive spinlock. ">
<polygon fill="white" stroke="red" points="4298.5,-112.5 4298.5,-131.5 4449.5,-131.5 4449.5,-112.5 4298.5,-112.5"/>
<text text-anchor="middle" x="4374" y="-119.5" font-family="Helvetica,sans-Serif" font-size="10.00">odp/api/spinlock_recursive.h</text>
</a>
</g>
</g>
<!-- Node1&#45;&gt;Node127 -->
<g id="edge57" class="edge"><title>Node1&#45;&gt;Node127</title>
<path fill="none" stroke="midnightblue" d="M2376.52,-177.257C2559.69,-178.549 3505.8,-182.43 4288.4,-132.045"/>
<polygon fill="midnightblue" stroke="midnightblue" points="4288.72,-135.533 4298.47,-131.394 4288.26,-128.547 4288.72,-135.533"/>
</g>
<!-- Node130 -->
<g id="node46" class="node"><title>Node130</title>
<g id="a_node46"><a xlink:href="api_2rwlock__recursive_8h.html" target="_top" xlink:title="ODP resursive read/write lock. ">
<polygon fill="white" stroke="red" points="4468,-112.5 4468,-131.5 4610,-131.5 4610,-112.5 4468,-112.5"/>
<text text-anchor="middle" x="4539" y="-119.5" font-family="Helvetica,sans-Serif" font-size="10.00">odp/api/rwlock_recursive.h</text>
</a>
</g>
</g>
<!-- Node1&#45;&gt;Node130 -->
<g id="edge58" class="edge"><title>Node1&#45;&gt;Node130</title>
<path fill="none" stroke="midnightblue" d="M2376.65,-176.721C2605.25,-174.649 4007.17,-160.94 4457.79,-131.999"/>
<polygon fill="midnightblue" stroke="midnightblue" points="4458.18,-135.481 4467.93,-131.334 4457.72,-128.496 4458.18,-135.481"/>
</g>
<!-- Node133 -->
<g id="node47" class="node"><title>Node133</title>
<g id="a_node47"><a xlink:href="api_2std__clib_8h_source.html" target="_top" xlink:title="odp/api/std_clib.h">
<polygon fill="white" stroke="red" points="4628,-112.5 4628,-131.5 4728,-131.5 4728,-112.5 4628,-112.5"/>
<text text-anchor="middle" x="4678" y="-119.5" font-family="Helvetica,sans-Serif" font-size="10.00">odp/api/std_clib.h</text>
</a>
</g>
</g>
<!-- Node1&#45;&gt;Node133 -->
<g id="edge59" class="edge"><title>Node1&#45;&gt;Node133</title>
<path fill="none" stroke="midnightblue" d="M2376.73,-176.947C2615.46,-176.46 4133.54,-171.851 4617.64,-131.969"/>
<polygon fill="midnightblue" stroke="midnightblue" points="4618.17,-135.437 4627.84,-131.11 4617.58,-128.462 4618.17,-135.437"/>
</g>
<!-- Node26 -->
<g id="node48" class="node"><title>Node26</title>
<g id="a_node48"><a xlink:href="support_8h.html" target="_top" xlink:title="ODP support API &#45; platform specific header. ">
<polygon fill="white" stroke="red" points="4746.5,-112.5 4746.5,-131.5 4847.5,-131.5 4847.5,-112.5 4746.5,-112.5"/>
<text text-anchor="middle" x="4797" y="-119.5" font-family="Helvetica,sans-Serif" font-size="10.00">odp/api/support.h</text>
</a>
</g>
</g>
<!-- Node1&#45;&gt;Node26 -->
<g id="edge60" class="edge"><title>Node1&#45;&gt;Node26</title>
<path fill="none" stroke="midnightblue" d="M2376.78,-176.972C2622.77,-176.667 4226.74,-173.139 4736.32,-131.902"/>
<polygon fill="midnightblue" stroke="midnightblue" points="4736.64,-135.388 4746.32,-131.076 4736.06,-128.411 4736.64,-135.388"/>
</g>
<!-- Node136 -->
<g id="node49" class="node"><title>Node136</title>
<g id="a_node49"><a xlink:href="api_2ipsec_8h.html" target="_top" xlink:title="ODP IPSEC API &#45; platform specific header. ">
<polygon fill="white" stroke="red" points="4865.5,-112.5 4865.5,-131.5 4954.5,-131.5 4954.5,-112.5 4865.5,-112.5"/>
<text text-anchor="middle" x="4910" y="-119.5" font-family="Helvetica,sans-Serif" font-size="10.00">odp/api/ipsec.h</text>
</a>
</g>
</g>
<!-- Node1&#45;&gt;Node136 -->
<g id="edge61" class="edge"><title>Node1&#45;&gt;Node136</title>
<path fill="none" stroke="midnightblue" d="M2376.75,-177.089C2629.65,-177.699 4321.23,-179.951 4855.15,-132.011"/>
<polygon fill="midnightblue" stroke="midnightblue" points="4855.6,-135.485 4865.24,-131.086 4854.97,-128.514 4855.6,-135.485"/>
</g>
<!-- Node139 -->
<g id="node50" class="node"><title>Node139</title>
<g id="a_node50"><a xlink:href="api_2stash_8h.html" target="_top" xlink:title="ODP stash. ">
<polygon fill="white" stroke="red" points="4973,-112.5 4973,-131.5 5063,-131.5 5063,-112.5 4973,-112.5"/>
<text text-anchor="middle" x="5018" y="-119.5" font-family="Helvetica,sans-Serif" font-size="10.00">odp/api/stash.h</text>
</a>
</g>
</g>
<!-- Node1&#45;&gt;Node139 -->
<g id="edge62" class="edge"><title>Node1&#45;&gt;Node139</title>
<path fill="none" stroke="midnightblue" d="M2376.86,-177.103C2636.19,-177.842 4405.29,-181.046 4962.85,-131.925"/>
<polygon fill="midnightblue" stroke="midnightblue" points="4963.34,-135.396 4972.98,-131.014 4962.71,-128.424 4963.34,-135.396"/>
</g>
<!-- Node3 -->
<g id="node4" class="node"><title>Node3</title>
<g id="a_node4"><a xlink:href="spec_2deprecated_8h.html" target="_top" xlink:title="Macro for deprecated API definitions. ">
<polygon fill="white" stroke="red" points="0,-56.5 0,-75.5 144,-75.5 144,-56.5 0,-56.5"/>
<text text-anchor="middle" x="72" y="-63.5" font-family="Helvetica,sans-Serif" font-size="10.00">odp/api/spec/deprecated.h</text>
</a>
</g>
</g>
<!-- Node2&#45;&gt;Node3 -->
<g id="edge3" class="edge"><title>Node2&#45;&gt;Node3</title>
<path fill="none" stroke="midnightblue" d="M139.147,-112.324C126.784,-103.979 107.87,-91.2122 93.2628,-81.3524"/>
<polygon fill="midnightblue" stroke="midnightblue" points="95.0682,-78.3483 84.8215,-75.6545 91.1518,-84.1503 95.0682,-78.3483"/>
</g>
<!-- Node7 -->
<g id="node6" class="node"><title>Node7</title>
<polygon fill="white" stroke="#bfbfbf" points="162,-56.5 162,-75.5 278,-75.5 278,-56.5 162,-56.5"/>
<text text-anchor="middle" x="220" y="-63.5" font-family="Helvetica,sans-Serif" font-size="10.00">odp/api/abi/version.h</text>
</g>
<!-- Node6&#45;&gt;Node7 -->
<g id="edge5" class="edge"><title>Node6&#45;&gt;Node7</title>
<path fill="none" stroke="midnightblue" d="M336.133,-112.444C313.221,-103.478 277.025,-89.314 251.134,-79.1827"/>
<polygon fill="midnightblue" stroke="midnightblue" points="252.352,-75.9011 241.764,-75.5164 249.801,-82.4198 252.352,-75.9011"/>
</g>
<!-- Node8 -->
<g id="node7" class="node"><title>Node8</title>
<g id="a_node7"><a xlink:href="api_2spec_2version_8h.html" target="_top" xlink:title="ODP version. ">
<polygon fill="white" stroke="red" points="296,-56.5 296,-75.5 420,-75.5 420,-56.5 296,-56.5"/>
<text text-anchor="middle" x="358" y="-63.5" font-family="Helvetica,sans-Serif" font-size="10.00">odp/api/spec/version.h</text>
</a>
</g>
</g>
<!-- Node6&#45;&gt;Node8 -->
<g id="edge6" class="edge"><title>Node6&#45;&gt;Node8</title>
<path fill="none" stroke="midnightblue" d="M358,-112.083C358,-105.006 358,-94.8611 358,-85.9865"/>
<polygon fill="midnightblue" stroke="midnightblue" points="361.5,-85.751 358,-75.7511 354.5,-85.7511 361.5,-85.751"/>
</g>
<!-- Node45&#45;&gt;Node47 -->
<g id="edge16" class="edge"><title>Node45&#45;&gt;Node47</title>
<path fill="none" stroke="midnightblue" d="M2281.61,-112.083C2286.37,-104.534 2293.32,-93.4948 2299.15,-84.2298"/>
<polygon fill="midnightblue" stroke="midnightblue" points="2302.12,-86.0783 2304.49,-75.7511 2296.2,-82.3486 2302.12,-86.0783"/>
</g>
<!-- Node55&#45;&gt;Node9 -->
<g id="edge19" class="edge"><title>Node55&#45;&gt;Node9</title>
<path fill="none" stroke="midnightblue" d="M1167.19,-112.22C1177.14,-98.9393 1192.55,-73.4464 1180,-56 1164.19,-34.0131 1137.11,-22.6199 1111.42,-16.7729"/>
<polygon fill="midnightblue" stroke="midnightblue" points="1111.78,-13.2761 1101.29,-14.7259 1110.4,-20.1374 1111.78,-13.2761"/>
</g>
<!-- Node55&#45;&gt;Node56 -->
<g id="edge20" class="edge"><title>Node55&#45;&gt;Node56</title>
<path fill="none" stroke="midnightblue" d="M1153.89,-112.083C1148.72,-104.534 1141.15,-93.4948 1134.81,-84.2298"/>
<polygon fill="midnightblue" stroke="midnightblue" points="1137.54,-82.0221 1129,-75.7511 1131.76,-85.9787 1137.54,-82.0221"/>
</g>
<!-- Node70&#45;&gt;Node9 -->
<g id="edge26" class="edge"><title>Node70&#45;&gt;Node9</title>
<path fill="none" stroke="midnightblue" d="M1250.5,-56.4435C1208.19,-47.0431 1140.18,-31.9291 1094.33,-21.7393"/>
<polygon fill="midnightblue" stroke="midnightblue" points="1094.85,-18.2692 1084.32,-19.5164 1093.33,-25.1025 1094.85,-18.2692"/>
</g>
<!-- Node74&#45;&gt;Node9 -->
<g id="edge30" class="edge"><title>Node74&#45;&gt;Node9</title>
<path fill="none" stroke="midnightblue" d="M1518.42,-57.3054C1515.23,-56.8406 1512.07,-56.4 1509,-56 1367.5,-37.5663 1200.77,-23.1416 1111.04,-15.9732"/>
<polygon fill="midnightblue" stroke="midnightblue" points="1111.26,-12.4798 1101.01,-15.177 1110.7,-19.4578 1111.26,-12.4798"/>
</g>
<!-- Node78&#45;&gt;Node9 -->
<g id="edge33" class="edge"><title>Node78&#45;&gt;Node9</title>
<path fill="none" stroke="midnightblue" d="M1405.72,-57.943C1401.09,-57.2756 1396.45,-56.6181 1392,-56 1294.21,-42.4277 1180.69,-27.8972 1111.11,-19.1299"/>
<polygon fill="midnightblue" stroke="midnightblue" points="1111.53,-15.6551 1101.17,-17.879 1110.65,-22.6003 1111.53,-15.6551"/>
</g>
<!-- Node34&#45;&gt;Node9 -->
<g id="edge36" class="edge"><title>Node34&#45;&gt;Node9</title>
<path fill="none" stroke="midnightblue" d="M524.088,-57.2559C527.1,-56.8029 530.093,-56.3784 533,-56 693.335,-35.13 883.154,-21.2891 980.782,-14.9614"/>
<polygon fill="midnightblue" stroke="midnightblue" points="981.041,-18.4522 990.796,-14.3179 980.592,-11.4666 981.041,-18.4522"/>
</g>
<!-- Node89&#45;&gt;Node9 -->
<g id="edge38" class="edge"><title>Node89&#45;&gt;Node9</title>
<path fill="none" stroke="midnightblue" d="M631.76,-57.347C634.884,-56.8723 637.987,-56.4181 641,-56 760.371,-39.4332 900.211,-24.9885 980.42,-17.1775"/>
<polygon fill="midnightblue" stroke="midnightblue" points="981.24,-20.6144 990.855,-16.1659 980.564,-13.6471 981.24,-20.6144"/>
</g>
<!-- Node28&#45;&gt;Node9 -->
<g id="edge42" class="edge"><title>Node28&#45;&gt;Node9</title>
<path fill="none" stroke="midnightblue" d="M746.2,-57.3784C749.178,-56.911 752.129,-56.4486 755,-56 832.588,-43.8757 921.84,-30.099 980.822,-21.0185"/>
<polygon fill="midnightblue" stroke="midnightblue" points="981.395,-24.4715 990.747,-19.4909 980.331,-17.553 981.395,-24.4715"/>
</g>
<!-- Node104&#45;&gt;Node9 -->
<g id="edge45" class="edge"><title>Node104&#45;&gt;Node9</title>
<path fill="none" stroke="midnightblue" d="M854.969,-56.4435C894.319,-47.0826 957.487,-32.0561 1000.31,-21.868"/>
<polygon fill="midnightblue" stroke="midnightblue" points="1001.28,-25.2358 1010.2,-19.5164 999.661,-18.4258 1001.28,-25.2358"/>
</g>
<!-- Node109&#45;&gt;Node9 -->
<g id="edge47" class="edge"><title>Node109&#45;&gt;Node9</title>
<path fill="none" stroke="midnightblue" d="M1325.23,-112.473C1344.75,-99.7367 1375.63,-75.1892 1359,-56 1327.63,-19.7929 1193.54,-12.0392 1111.38,-10.771"/>
<polygon fill="midnightblue" stroke="midnightblue" points="1111.18,-7.26829 1101.14,-10.6422 1111.09,-14.2677 1111.18,-7.26829"/>
</g>
<!-- Node109&#45;&gt;Node78 -->
<g id="edge48" class="edge"><title>Node109&#45;&gt;Node78</title>
<path fill="none" stroke="midnightblue" d="M1333.5,-112.444C1357.08,-103.478 1394.32,-89.314 1420.96,-79.1827"/>
<polygon fill="midnightblue" stroke="midnightblue" points="1422.5,-82.3424 1430.6,-75.5164 1420.01,-75.7995 1422.5,-82.3424"/>
</g>
<!-- Node112&#45;&gt;Node9 -->
<g id="edge50" class="edge"><title>Node112&#45;&gt;Node9</title>
<path fill="none" stroke="midnightblue" d="M969.621,-56.324C983.949,-47.8215 1006.01,-34.7288 1022.75,-24.7975"/>
<polygon fill="midnightblue" stroke="midnightblue" points="1024.6,-27.7677 1031.42,-19.6545 1021.03,-21.7478 1024.6,-27.7677"/>
</g>
</g>
</svg>
