<?xml version="1.0" encoding="UTF-8" standalone="no"?>
<!DOCTYPE svg PUBLIC "-//W3C//DTD SVG 1.1//EN"
 "http://www.w3.org/Graphics/SVG/1.1/DTD/svg11.dtd">
<!-- Generated by graphviz version 2.38.0 (20140413.2041)
 -->
<!-- Title: odp_api.h Pages: 1 -->
<svg width="5010pt" height="252pt"
 viewBox="0.00 0.00 5010.00 252.00" xmlns="http://www.w3.org/2000/svg" xmlns:xlink="http://www.w3.org/1999/xlink">
<g id="graph0" class="graph" transform="scale(1 1) rotate(0) translate(4 248)">
<title>odp_api.h</title>
<polygon fill="white" stroke="none" points="-4,4 -4,-248 5006,-248 5006,4 -4,4"/>
<!-- Node0 -->
<g id="node1" class="node"><title>Node0</title>
<polygon fill="#bfbfbf" stroke="black" points="2301.5,-224.5 2301.5,-243.5 2364.5,-243.5 2364.5,-224.5 2301.5,-224.5"/>
<text text-anchor="middle" x="2333" y="-231.5" font-family="Helvetica,sans-Serif" font-size="10.00">odp_api.h</text>
</g>
<!-- Node1 -->
<g id="node2" class="node"><title>Node1</title>
<g id="a_node2"><a xlink:href="deprecated_8h.html" target="_top" xlink:title="Control deprecated API definitions. ">
<polygon fill="white" stroke="black" points="94.5,-168.5 94.5,-187.5 213.5,-187.5 213.5,-168.5 94.5,-168.5"/>
<text text-anchor="middle" x="154" y="-175.5" font-family="Helvetica,sans-Serif" font-size="10.00">odp/api/deprecated.h</text>
</a>
</g>
</g>
<!-- Node0&#45;&gt;Node1 -->
<g id="edge1" class="edge"><title>Node0&#45;&gt;Node1</title>
<path fill="none" stroke="midnightblue" d="M2301.39,-232.747C2112.74,-231.143 1116.35,-221.367 304,-188 277.883,-186.927 249.232,-185.316 224.031,-183.751"/>
<polygon fill="midnightblue" stroke="midnightblue" points="224.027,-180.244 213.827,-183.109 223.587,-187.23 224.027,-180.244"/>
</g>
<!-- Node5 -->
<g id="node4" class="node"><title>Node5</title>
<g id="a_node4"><a xlink:href="api_2version_8h.html" target="_top" xlink:title="ODP version. ">
<polygon fill="white" stroke="black" points="313,-168.5 313,-187.5 411,-187.5 411,-168.5 313,-168.5"/>
<text text-anchor="middle" x="362" y="-175.5" font-family="Helvetica,sans-Serif" font-size="10.00">odp/api/version.h</text>
</a>
</g>
</g>
<!-- Node0&#45;&gt;Node5 -->
<g id="edge3" class="edge"><title>Node0&#45;&gt;Node5</title>
<path fill="none" stroke="midnightblue" d="M2301.39,-232.519C2125.64,-229.781 1251.13,-215.305 537,-188 498.43,-186.525 455.107,-184.302 421.215,-182.434"/>
<polygon fill="midnightblue" stroke="midnightblue" points="421.195,-178.927 411.016,-181.867 420.806,-185.916 421.195,-178.927"/>
</g>
<!-- Node8 -->
<g id="node7" class="node"><title>Node8</title>
<g id="a_node7"><a xlink:href="api_2std__types_8h.html" target="_top" xlink:title="Standard C language types and definitions for ODP. ">
<polygon fill="white" stroke="red" points="1010,-56.5 1010,-75.5 1120,-75.5 1120,-56.5 1010,-56.5"/>
<text text-anchor="middle" x="1065" y="-63.5" font-family="Helvetica,sans-Serif" font-size="10.00">odp/api/std_types.h</text>
</a>
</g>
</g>
<!-- Node0&#45;&gt;Node8 -->
<g id="edge6" class="edge"><title>Node0&#45;&gt;Node8</title>
<path fill="none" stroke="midnightblue" d="M2301.24,-232.986C2111.18,-232.763 1130.9,-229.595 1084,-188 1055.32,-162.568 1057.61,-112.962 1061.47,-85.8328"/>
<polygon fill="midnightblue" stroke="midnightblue" points="1064.97,-86.154 1063.14,-75.718 1058.06,-85.0158 1064.97,-86.154"/>
</g>
<!-- Node12 -->
<g id="node9" class="node"><title>Node12</title>
<g id="a_node9"><a xlink:href="api_2align_8h.html" target="_top" xlink:title="ODP alignments. ">
<polygon fill="white" stroke="red" points="1509,-168.5 1509,-187.5 1595,-187.5 1595,-168.5 1509,-168.5"/>
<text text-anchor="middle" x="1552" y="-175.5" font-family="Helvetica,sans-Serif" font-size="10.00">odp/api/align.h</text>
</a>
</g>
</g>
<!-- Node0&#45;&gt;Node12 -->
<g id="edge8" class="edge"><title>Node0&#45;&gt;Node12</title>
<path fill="none" stroke="midnightblue" d="M2301.27,-232.284C2200.8,-229.756 1880.52,-219.685 1605.26,-188.015"/>
<polygon fill="midnightblue" stroke="midnightblue" points="1605.41,-184.509 1595.08,-186.83 1604.61,-191.462 1605.41,-184.509"/>
</g>
<!-- Node15 -->
<g id="node10" class="node"><title>Node15</title>
<g id="a_node10"><a xlink:href="api_2hash_8h.html" target="_top" xlink:title="ODP Hash function. ">
<polygon fill="white" stroke="red" points="1613.5,-168.5 1613.5,-187.5 1700.5,-187.5 1700.5,-168.5 1613.5,-168.5"/>
<text text-anchor="middle" x="1657" y="-175.5" font-family="Helvetica,sans-Serif" font-size="10.00">odp/api/hash.h</text>
</a>
</g>
</g>
<!-- Node0&#45;&gt;Node15 -->
<g id="edge9" class="edge"><title>Node0&#45;&gt;Node15</title>
<path fill="none" stroke="midnightblue" d="M2301.4,-231.832C2210.91,-228.253 1942.87,-216.007 1710.63,-188.091"/>
<polygon fill="midnightblue" stroke="midnightblue" points="1711,-184.609 1700.65,-186.878 1710.15,-191.558 1711,-184.609"/>
</g>
<!-- Node18 -->
<g id="node11" class="node"><title>Node18</title>
<g id="a_node11"><a xlink:href="chksum_8h.html" target="_top" xlink:title="ODP checksum functions. ">
<polygon fill="white" stroke="red" points="1718.5,-168.5 1718.5,-187.5 1819.5,-187.5 1819.5,-168.5 1718.5,-168.5"/>
<text text-anchor="middle" x="1769" y="-175.5" font-family="Helvetica,sans-Serif" font-size="10.00">odp/api/chksum.h</text>
</a>
</g>
</g>
<!-- Node0&#45;&gt;Node18 -->
<g id="edge10" class="edge"><title>Node0&#45;&gt;Node18</title>
<path fill="none" stroke="midnightblue" d="M2301.32,-230.868C2223.07,-225.455 2014.22,-210.112 1829.66,-188.136"/>
<polygon fill="midnightblue" stroke="midnightblue" points="1829.85,-184.633 1819.5,-186.916 1829.01,-191.583 1829.85,-184.633"/>
</g>
<!-- Node20 -->
<g id="node12" class="node"><title>Node20</title>
<g id="a_node12"><a xlink:href="api_2comp_8h.html" target="_top" xlink:title="ODP crypto. ">
<polygon fill="white" stroke="red" points="1837.5,-168.5 1837.5,-187.5 1928.5,-187.5 1928.5,-168.5 1837.5,-168.5"/>
<text text-anchor="middle" x="1883" y="-175.5" font-family="Helvetica,sans-Serif" font-size="10.00">odp/api/comp.h</text>
</a>
</g>
</g>
<!-- Node0&#45;&gt;Node20 -->
<g id="edge11" class="edge"><title>Node0&#45;&gt;Node20</title>
<path fill="none" stroke="midnightblue" d="M2301.36,-229.969C2235.71,-223.558 2079.7,-207.697 1938.76,-188.189"/>
<polygon fill="midnightblue" stroke="midnightblue" points="1939.03,-184.692 1928.64,-186.778 1938.06,-191.625 1939.03,-184.692"/>
</g>
<!-- Node36 -->
<g id="node13" class="node"><title>Node36</title>
<g id="a_node13"><a xlink:href="hints_8h.html" target="_top" xlink:title="ODP compiler hints. ">
<polygon fill="white" stroke="red" points="1946.5,-168.5 1946.5,-187.5 2033.5,-187.5 2033.5,-168.5 1946.5,-168.5"/>
<text text-anchor="middle" x="1990" y="-175.5" font-family="Helvetica,sans-Serif" font-size="10.00">odp/api/hints.h</text>
</a>
</g>
</g>
<!-- Node0&#45;&gt;Node36 -->
<g id="edge12" class="edge"><title>Node0&#45;&gt;Node36</title>
<path fill="none" stroke="midnightblue" d="M2301.22,-228.22C2249.56,-220.417 2143.89,-204.321 2043.66,-188.087"/>
<polygon fill="midnightblue" stroke="midnightblue" points="2044.1,-184.613 2033.66,-186.465 2042.97,-191.522 2044.1,-184.613"/>
</g>
<!-- Node38 -->
<g id="node14" class="node"><title>Node38</title>
<g id="a_node14"><a xlink:href="api_2debug_8h.html" target="_top" xlink:title="ODP debug. ">
<polygon fill="white" stroke="red" points="2052,-168.5 2052,-187.5 2146,-187.5 2146,-168.5 2052,-168.5"/>
<text text-anchor="middle" x="2099" y="-175.5" font-family="Helvetica,sans-Serif" font-size="10.00">odp/api/debug.h</text>
</a>
</g>
</g>
<!-- Node0&#45;&gt;Node38 -->
<g id="edge13" class="edge"><title>Node0&#45;&gt;Node38</title>
<path fill="none" stroke="midnightblue" d="M2301.44,-225.717C2261.46,-216.491 2192.21,-200.511 2146,-189.847"/>
<polygon fill="midnightblue" stroke="midnightblue" points="2146.75,-186.428 2136.22,-187.59 2145.18,-193.249 2146.75,-186.428"/>
</g>
<!-- Node41 -->
<g id="node15" class="node"><title>Node41</title>
<g id="a_node15"><a xlink:href="api_2byteorder_8h.html" target="_top" xlink:title="ODP byteorder. ">
<polygon fill="white" stroke="red" points="2164,-168.5 2164,-187.5 2274,-187.5 2274,-168.5 2164,-168.5"/>
<text text-anchor="middle" x="2219" y="-175.5" font-family="Helvetica,sans-Serif" font-size="10.00">odp/api/byteorder.h</text>
</a>
</g>
</g>
<!-- Node0&#45;&gt;Node41 -->
<g id="edge14" class="edge"><title>Node0&#45;&gt;Node41</title>
<path fill="none" stroke="midnightblue" d="M2314.94,-224.444C2296.43,-215.675 2267.42,-201.935 2246.14,-191.858"/>
<polygon fill="midnightblue" stroke="midnightblue" points="2247.51,-188.634 2236.98,-187.516 2244.52,-194.96 2247.51,-188.634"/>
</g>
<!-- Node44 -->
<g id="node16" class="node"><title>Node44</title>
<g id="a_node16"><a xlink:href="api_2cpu_8h.html" target="_top" xlink:title="ODP CPU. ">
<polygon fill="white" stroke="red" points="2292.5,-168.5 2292.5,-187.5 2373.5,-187.5 2373.5,-168.5 2292.5,-168.5"/>
<text text-anchor="middle" x="2333" y="-175.5" font-family="Helvetica,sans-Serif" font-size="10.00">odp/api/cpu.h</text>
</a>
</g>
</g>
<!-- Node0&#45;&gt;Node44 -->
<g id="edge15" class="edge"><title>Node0&#45;&gt;Node44</title>
<path fill="none" stroke="midnightblue" d="M2333,-224.083C2333,-217.006 2333,-206.861 2333,-197.986"/>
<polygon fill="midnightblue" stroke="midnightblue" points="2336.5,-197.751 2333,-187.751 2329.5,-197.751 2336.5,-197.751"/>
</g>
<!-- Node46 -->
<g id="node17" class="node"><title>Node46</title>
<g id="a_node17"><a xlink:href="api_2thread_8h.html" target="_top" xlink:title="ODP thread API. ">
<polygon fill="white" stroke="red" points="2319.5,-112.5 2319.5,-131.5 2414.5,-131.5 2414.5,-112.5 2319.5,-112.5"/>
<text text-anchor="middle" x="2367" y="-119.5" font-family="Helvetica,sans-Serif" font-size="10.00">odp/api/thread.h</text>
</a>
</g>
</g>
<!-- Node0&#45;&gt;Node46 -->
<g id="edge27" class="edge"><title>Node0&#45;&gt;Node46</title>
<path fill="none" stroke="midnightblue" d="M2347.95,-224.474C2359.93,-216.702 2375.87,-204.002 2383,-188 2389.78,-172.772 2383.94,-154.203 2377.49,-140.817"/>
<polygon fill="midnightblue" stroke="midnightblue" points="2380.44,-138.906 2372.64,-131.732 2374.27,-142.202 2380.44,-138.906"/>
</g>
<!-- Node51 -->
<g id="node18" class="node"><title>Node51</title>
<g id="a_node18"><a xlink:href="api_2cpumask_8h.html" target="_top" xlink:title="ODP CPU masks and enumeration. ">
<polygon fill="white" stroke="red" points="2430.5,-168.5 2430.5,-187.5 2537.5,-187.5 2537.5,-168.5 2430.5,-168.5"/>
<text text-anchor="middle" x="2484" y="-175.5" font-family="Helvetica,sans-Serif" font-size="10.00">odp/api/cpumask.h</text>
</a>
</g>
</g>
<!-- Node0&#45;&gt;Node51 -->
<g id="edge17" class="edge"><title>Node0&#45;&gt;Node51</title>
<path fill="none" stroke="midnightblue" d="M2356.93,-224.444C2382.22,-215.399 2422.3,-201.064 2450.68,-190.916"/>
<polygon fill="midnightblue" stroke="midnightblue" points="2451.95,-194.179 2460.19,-187.516 2449.59,-187.588 2451.95,-194.179"/>
</g>
<!-- Node54 -->
<g id="node19" class="node"><title>Node54</title>
<g id="a_node19"><a xlink:href="api_2barrier_8h.html" target="_top" xlink:title="ODP execution barriers. ">
<polygon fill="white" stroke="red" points="1093.5,-168.5 1093.5,-187.5 1188.5,-187.5 1188.5,-168.5 1093.5,-168.5"/>
<text text-anchor="middle" x="1141" y="-175.5" font-family="Helvetica,sans-Serif" font-size="10.00">odp/api/barrier.h</text>
</a>
</g>
</g>
<!-- Node0&#45;&gt;Node54 -->
<g id="edge18" class="edge"><title>Node0&#45;&gt;Node54</title>
<path fill="none" stroke="midnightblue" d="M2301.47,-232.948C2168.06,-232.475 1637.02,-228.034 1203,-188 1201.69,-187.879 1200.37,-187.75 1199.03,-187.613"/>
<polygon fill="midnightblue" stroke="midnightblue" points="1199,-184.086 1188.67,-186.431 1198.21,-191.041 1199,-184.086"/>
</g>
<!-- Node55 -->
<g id="node20" class="node"><title>Node55</title>
<g id="a_node20"><a xlink:href="api_2atomic_8h.html" target="_top" xlink:title="ODP atomic operations. ">
<polygon fill="white" stroke="red" points="1112.5,-112.5 1112.5,-131.5 1209.5,-131.5 1209.5,-112.5 1112.5,-112.5"/>
<text text-anchor="middle" x="1161" y="-119.5" font-family="Helvetica,sans-Serif" font-size="10.00">odp/api/atomic.h</text>
</a>
</g>
</g>
<!-- Node0&#45;&gt;Node55 -->
<g id="edge22" class="edge"><title>Node0&#45;&gt;Node55</title>
<path fill="none" stroke="midnightblue" d="M2301.4,-233.185C2150.62,-233.831 1503.65,-233.831 1308,-188 1262.07,-177.24 1212.69,-152.342 1184.45,-136.674"/>
<polygon fill="midnightblue" stroke="midnightblue" points="1185.81,-133.424 1175.38,-131.555 1182.37,-139.519 1185.81,-133.424"/>
</g>
<!-- Node61 -->
<g id="node21" class="node"><title>Node61</title>
<g id="a_node21"><a xlink:href="api_2spinlock_8h.html" target="_top" xlink:title="ODP spinlock. ">
<polygon fill="white" stroke="red" points="2555,-168.5 2555,-187.5 2657,-187.5 2657,-168.5 2555,-168.5"/>
<text text-anchor="middle" x="2606" y="-175.5" font-family="Helvetica,sans-Serif" font-size="10.00">odp/api/spinlock.h</text>
</a>
</g>
</g>
<!-- Node0&#45;&gt;Node61 -->
<g id="edge21" class="edge"><title>Node0&#45;&gt;Node61</title>
<path fill="none" stroke="midnightblue" d="M2364.58,-226.753C2410.57,-217.657 2496.54,-200.651 2552.51,-189.581"/>
<polygon fill="midnightblue" stroke="midnightblue" points="2553.46,-192.96 2562.59,-187.586 2552.1,-186.093 2553.46,-192.96"/>
</g>
<!-- Node64 -->
<g id="node22" class="node"><title>Node64</title>
<g id="a_node22"><a xlink:href="feature_8h.html" target="_top" xlink:title="ODP features. ">
<polygon fill="white" stroke="red" points="2675,-168.5 2675,-187.5 2773,-187.5 2773,-168.5 2675,-168.5"/>
<text text-anchor="middle" x="2724" y="-175.5" font-family="Helvetica,sans-Serif" font-size="10.00">odp/api/feature.h</text>
</a>
</g>
</g>
<!-- Node0&#45;&gt;Node64 -->
<g id="edge23" class="edge"><title>Node0&#45;&gt;Node64</title>
<path fill="none" stroke="midnightblue" d="M2364.71,-228.926C2422.27,-221.484 2548.05,-205.014 2664.78,-188.154"/>
<polygon fill="midnightblue" stroke="midnightblue" points="2665.57,-191.576 2674.96,-186.678 2664.56,-184.648 2665.57,-191.576"/>
</g>
<!-- Node66 -->
<g id="node23" class="node"><title>Node66</title>
<g id="a_node23"><a xlink:href="api_2init_8h.html" target="_top" xlink:title="ODP initialization. ">
<polygon fill="white" stroke="red" points="2791,-168.5 2791,-187.5 2869,-187.5 2869,-168.5 2791,-168.5"/>
<text text-anchor="middle" x="2830" y="-175.5" font-family="Helvetica,sans-Serif" font-size="10.00">odp/api/init.h</text>
</a>
</g>
</g>
<!-- Node0&#45;&gt;Node66 -->
<g id="edge24" class="edge"><title>Node0&#45;&gt;Node66</title>
<path fill="none" stroke="midnightblue" d="M2364.69,-230.76C2436.72,-225.469 2618.47,-210.992 2780.6,-188.091"/>
<polygon fill="midnightblue" stroke="midnightblue" points="2781.35,-191.519 2790.75,-186.642 2780.36,-184.59 2781.35,-191.519"/>
</g>
<!-- Node69 -->
<g id="node24" class="node"><title>Node69</title>
<g id="a_node24"><a xlink:href="system__info_8h.html" target="_top" xlink:title="ODP system information. ">
<polygon fill="white" stroke="red" points="1228,-112.5 1228,-131.5 1350,-131.5 1350,-112.5 1228,-112.5"/>
<text text-anchor="middle" x="1289" y="-119.5" font-family="Helvetica,sans-Serif" font-size="10.00">odp/api/system_info.h</text>
</a>
</g>
</g>
<!-- Node0&#45;&gt;Node69 -->
<g id="edge25" class="edge"><title>Node0&#45;&gt;Node69</title>
<path fill="none" stroke="midnightblue" d="M2301.26,-233.25C2140.35,-234.293 1419.15,-236.229 1333,-188 1314.84,-177.832 1302.68,-156.656 1295.84,-141.229"/>
<polygon fill="midnightblue" stroke="midnightblue" points="1298.95,-139.608 1291.93,-131.673 1292.47,-142.254 1298.95,-139.608"/>
</g>
<!-- Node71 -->
<g id="node25" class="node"><title>Node71</title>
<g id="a_node25"><a xlink:href="api_2shared__memory_8h.html" target="_top" xlink:title="ODP shared memory. ">
<polygon fill="white" stroke="red" points="2887.5,-168.5 2887.5,-187.5 3028.5,-187.5 3028.5,-168.5 2887.5,-168.5"/>
<text text-anchor="middle" x="2958" y="-175.5" font-family="Helvetica,sans-Serif" font-size="10.00">odp/api/shared_memory.h</text>
</a>
</g>
</g>
<!-- Node0&#45;&gt;Node71 -->
<g id="edge28" class="edge"><title>Node0&#45;&gt;Node71</title>
<path fill="none" stroke="midnightblue" d="M2364.67,-230.715C2447.1,-224.697 2675.36,-207.585 2877.15,-188.055"/>
<polygon fill="midnightblue" stroke="midnightblue" points="2877.73,-191.515 2887.34,-187.064 2877.05,-184.548 2877.73,-191.515"/>
</g>
<!-- Node73 -->
<g id="node26" class="node"><title>Node73</title>
<g id="a_node26"><a xlink:href="api_2buffer_8h.html" target="_top" xlink:title="ODP buffer descriptor. ">
<polygon fill="white" stroke="red" points="1368.5,-112.5 1368.5,-131.5 1459.5,-131.5 1459.5,-112.5 1368.5,-112.5"/>
<text text-anchor="middle" x="1414" y="-119.5" font-family="Helvetica,sans-Serif" font-size="10.00">odp/api/buffer.h</text>
</a>
</g>
</g>
<!-- Node0&#45;&gt;Node73 -->
<g id="edge29" class="edge"><title>Node0&#45;&gt;Node73</title>
<path fill="none" stroke="midnightblue" d="M2301.24,-232.776C2135.49,-231.457 1375.91,-223.486 1342,-188 1323.58,-168.723 1355.49,-148.427 1382.51,-135.747"/>
<polygon fill="midnightblue" stroke="midnightblue" points="1384.09,-138.877 1391.78,-131.593 1381.22,-132.49 1384.09,-138.877"/>
</g>
<!-- Node75 -->
<g id="node27" class="node"><title>Node75</title>
<g id="a_node27"><a xlink:href="api_2pool_8h.html" target="_top" xlink:title="ODP pool. ">
<polygon fill="white" stroke="red" points="3047,-168.5 3047,-187.5 3131,-187.5 3131,-168.5 3047,-168.5"/>
<text text-anchor="middle" x="3089" y="-175.5" font-family="Helvetica,sans-Serif" font-size="10.00">odp/api/pool.h</text>
</a>
</g>
</g>
<!-- Node0&#45;&gt;Node75 -->
<g id="edge31" class="edge"><title>Node0&#45;&gt;Node75</title>
<path fill="none" stroke="midnightblue" d="M2364.73,-232.228C2463.03,-229.574 2771.27,-219.261 3036.54,-188.042"/>
<polygon fill="midnightblue" stroke="midnightblue" points="3037.24,-191.484 3046.75,-186.827 3036.41,-184.533 3037.24,-191.484"/>
</g>
<!-- Node77 -->
<g id="node28" class="node"><title>Node77</title>
<g id="a_node28"><a xlink:href="api_2queue_8h.html" target="_top" xlink:title="ODP queue. ">
<polygon fill="white" stroke="red" points="1478,-112.5 1478,-131.5 1572,-131.5 1572,-112.5 1478,-112.5"/>
<text text-anchor="middle" x="1525" y="-119.5" font-family="Helvetica,sans-Serif" font-size="10.00">odp/api/queue.h</text>
</a>
</g>
</g>
<!-- Node0&#45;&gt;Node77 -->
<g id="edge32" class="edge"><title>Node0&#45;&gt;Node77</title>
<path fill="none" stroke="midnightblue" d="M2301.23,-232.764C2136.26,-231.387 1383.61,-223.187 1350,-188 1343.86,-181.572 1344.55,-175.025 1350,-168 1357.56,-158.25 1421.91,-143.491 1470.4,-133.56"/>
<polygon fill="midnightblue" stroke="midnightblue" points="1471.37,-136.934 1480.48,-131.518 1469.98,-130.073 1471.37,-136.934"/>
</g>
<!-- Node85 -->
<g id="node29" class="node"><title>Node85</title>
<g id="a_node29"><a xlink:href="api_2ticketlock_8h.html" target="_top" xlink:title="ODP ticketlock. ">
<polygon fill="white" stroke="red" points="3149.5,-168.5 3149.5,-187.5 3258.5,-187.5 3258.5,-168.5 3149.5,-168.5"/>
<text text-anchor="middle" x="3204" y="-175.5" font-family="Helvetica,sans-Serif" font-size="10.00">odp/api/ticketlock.h</text>
</a>
</g>
</g>
<!-- Node0&#45;&gt;Node85 -->
<g id="edge34" class="edge"><title>Node0&#45;&gt;Node85</title>
<path fill="none" stroke="midnightblue" d="M2364.61,-232.192C2471.76,-229.254 2831.21,-217.75 3139.21,-187.987"/>
<polygon fill="midnightblue" stroke="midnightblue" points="3139.61,-191.465 3149.22,-187.011 3138.93,-184.498 3139.61,-191.465"/>
</g>
<!-- Node33 -->
<g id="node30" class="node"><title>Node33</title>
<g id="a_node30"><a xlink:href="api_2time_8h.html" target="_top" xlink:title="ODP time. ">
<polygon fill="white" stroke="red" points="438,-112.5 438,-131.5 524,-131.5 524,-112.5 438,-112.5"/>
<text text-anchor="middle" x="481" y="-119.5" font-family="Helvetica,sans-Serif" font-size="10.00">odp/api/time.h</text>
</a>
</g>
</g>
<!-- Node0&#45;&gt;Node33 -->
<g id="edge35" class="edge"><title>Node0&#45;&gt;Node33</title>
<path fill="none" stroke="midnightblue" d="M2301.23,-233.077C2104.64,-233.408 1051.84,-233.021 733,-188 654.06,-176.853 564.221,-150.193 516.01,-134.7"/>
<polygon fill="midnightblue" stroke="midnightblue" points="516.965,-131.33 506.373,-131.573 514.805,-137.988 516.965,-131.33"/>
</g>
<!-- Node88 -->
<g id="node31" class="node"><title>Node88</title>
<g id="a_node31"><a xlink:href="api_2timer_8h.html" target="_top" xlink:title="ODP timer service. ">
<polygon fill="white" stroke="red" points="542.5,-112.5 542.5,-131.5 631.5,-131.5 631.5,-112.5 542.5,-112.5"/>
<text text-anchor="middle" x="587" y="-119.5" font-family="Helvetica,sans-Serif" font-size="10.00">odp/api/timer.h</text>
</a>
</g>
</g>
<!-- Node0&#45;&gt;Node88 -->
<g id="edge37" class="edge"><title>Node0&#45;&gt;Node88</title>
<path fill="none" stroke="midnightblue" d="M2301.38,-233.038C2112.35,-233.118 1129.97,-231.405 832,-188 755.323,-176.831 668.219,-150.275 621.306,-134.784"/>
<polygon fill="midnightblue" stroke="midnightblue" points="622.242,-131.406 611.648,-131.563 620.027,-138.047 622.242,-131.406"/>
</g>
<!-- Node91 -->
<g id="node32" class="node"><title>Node91</title>
<g id="a_node32"><a xlink:href="api_2schedule_8h.html" target="_top" xlink:title="ODP schedule. ">
<polygon fill="white" stroke="red" points="3276.5,-168.5 3276.5,-187.5 3383.5,-187.5 3383.5,-168.5 3276.5,-168.5"/>
<text text-anchor="middle" x="3330" y="-175.5" font-family="Helvetica,sans-Serif" font-size="10.00">odp/api/schedule.h</text>
</a>
</g>
</g>
<!-- Node0&#45;&gt;Node91 -->
<g id="edge39" class="edge"><title>Node0&#45;&gt;Node91</title>
<path fill="none" stroke="midnightblue" d="M2364.56,-232.58C2482.21,-230.783 2906.57,-222.241 3266.18,-188.088"/>
<polygon fill="midnightblue" stroke="midnightblue" points="3266.65,-191.56 3276.27,-187.122 3265.98,-184.592 3266.65,-191.56"/>
</g>
<!-- Node97 -->
<g id="node33" class="node"><title>Node97</title>
<g id="a_node33"><a xlink:href="api_2sync_8h.html" target="_top" xlink:title="ODP synchronisation. ">
<polygon fill="white" stroke="red" points="3402,-168.5 3402,-187.5 3488,-187.5 3488,-168.5 3402,-168.5"/>
<text text-anchor="middle" x="3445" y="-175.5" font-family="Helvetica,sans-Serif" font-size="10.00">odp/api/sync.h</text>
</a>
</g>
</g>
<!-- Node0&#45;&gt;Node97 -->
<g id="edge40" class="edge"><title>Node0&#45;&gt;Node97</title>
<path fill="none" stroke="midnightblue" d="M2364.76,-233.143C2492.44,-233.406 2980.76,-231.417 3391.93,-187.962"/>
<polygon fill="midnightblue" stroke="midnightblue" points="3392.36,-191.436 3401.93,-186.895 3391.62,-184.475 3392.36,-191.436"/>
</g>
<!-- Node27 -->
<g id="node34" class="node"><title>Node27</title>
<g id="a_node34"><a xlink:href="api_2packet_8h.html" target="_top" xlink:title="ODP packet descriptor. ">
<polygon fill="white" stroke="red" points="650,-112.5 650,-131.5 746,-131.5 746,-112.5 650,-112.5"/>
<text text-anchor="middle" x="698" y="-119.5" font-family="Helvetica,sans-Serif" font-size="10.00">odp/api/packet.h</text>
</a>
</g>
</g>
<!-- Node0&#45;&gt;Node27 -->
<g id="edge41" class="edge"><title>Node0&#45;&gt;Node27</title>
<path fill="none" stroke="midnightblue" d="M2301.23,-233.061C2118.65,-233.246 1201.36,-231.942 923,-188 852.727,-176.907 773.405,-150.613 730.233,-135.079"/>
<polygon fill="midnightblue" stroke="midnightblue" points="731.164,-131.693 720.57,-131.564 728.771,-138.272 731.164,-131.693"/>
</g>
<!-- Node100 -->
<g id="node35" class="node"><title>Node100</title>
<g id="a_node35"><a xlink:href="api_2packet__flags_8h.html" target="_top" xlink:title="ODP packet flags. ">
<polygon fill="white" stroke="red" points="3506,-168.5 3506,-187.5 3630,-187.5 3630,-168.5 3506,-168.5"/>
<text text-anchor="middle" x="3568" y="-175.5" font-family="Helvetica,sans-Serif" font-size="10.00">odp/api/packet_flags.h</text>
</a>
</g>
</g>
<!-- Node0&#45;&gt;Node100 -->
<g id="edge43" class="edge"><title>Node0&#45;&gt;Node100</title>
<path fill="none" stroke="midnightblue" d="M2364.54,-232.792C2499.35,-231.69 3040.55,-225.117 3495.64,-188.037"/>
<polygon fill="midnightblue" stroke="midnightblue" points="3496.01,-191.517 3505.69,-187.211 3495.44,-184.541 3496.01,-191.517"/>
</g>
<!-- Node103 -->
<g id="node36" class="node"><title>Node103</title>
<g id="a_node36"><a xlink:href="api_2packet__io_8h.html" target="_top" xlink:title="ODP Packet IO. ">
<polygon fill="white" stroke="red" points="764,-112.5 764,-131.5 874,-131.5 874,-112.5 764,-112.5"/>
<text text-anchor="middle" x="819" y="-119.5" font-family="Helvetica,sans-Serif" font-size="10.00">odp/api/packet_io.h</text>
</a>
</g>
</g>
<!-- Node0&#45;&gt;Node103 -->
<g id="edge44" class="edge"><title>Node0&#45;&gt;Node103</title>
<path fill="none" stroke="midnightblue" d="M2301.31,-232.536C2111.39,-229.677 1127.71,-213.712 996,-188 940.731,-177.211 879.82,-151.572 845.803,-135.912"/>
<polygon fill="midnightblue" stroke="midnightblue" points="847.089,-132.65 836.547,-131.59 844.127,-138.993 847.089,-132.65"/>
</g>
<!-- Node108 -->
<g id="node37" class="node"><title>Node108</title>
<g id="a_node37"><a xlink:href="api_2crypto_8h.html" target="_top" xlink:title="ODP crypto. ">
<polygon fill="white" stroke="red" points="1359,-168.5 1359,-187.5 1453,-187.5 1453,-168.5 1359,-168.5"/>
<text text-anchor="middle" x="1406" y="-175.5" font-family="Helvetica,sans-Serif" font-size="10.00">odp/api/crypto.h</text>
</a>
</g>
</g>
<!-- Node0&#45;&gt;Node108 -->
<g id="edge46" class="edge"><title>Node0&#45;&gt;Node108</title>
<path fill="none" stroke="midnightblue" d="M2301.46,-232.438C2188.29,-230.192 1792.09,-220.355 1467,-188 1465.74,-187.875 1464.47,-187.742 1463.19,-187.602"/>
<polygon fill="midnightblue" stroke="midnightblue" points="1463.58,-184.124 1453.23,-186.419 1462.75,-191.075 1463.58,-184.124"/>
</g>
<!-- Node111 -->
<g id="node38" class="node"><title>Node111</title>
<g id="a_node38"><a xlink:href="api_2classification_8h.html" target="_top" xlink:title="ODP classification descriptor. ">
<polygon fill="white" stroke="red" points="892.5,-112.5 892.5,-131.5 1017.5,-131.5 1017.5,-112.5 892.5,-112.5"/>
<text text-anchor="middle" x="955" y="-119.5" font-family="Helvetica,sans-Serif" font-size="10.00">odp/api/classification.h</text>
</a>
</g>
</g>
<!-- Node0&#45;&gt;Node111 -->
<g id="edge49" class="edge"><title>Node0&#45;&gt;Node111</title>
<path fill="none" stroke="midnightblue" d="M2301.38,-233.14C2114.05,-233.808 1153.72,-234.908 1032,-188 1006.11,-178.021 982.738,-155.453 968.707,-139.727"/>
<polygon fill="midnightblue" stroke="midnightblue" points="971.086,-137.126 961.916,-131.819 965.776,-141.686 971.086,-137.126"/>
</g>
<!-- Node115 -->
<g id="node39" class="node"><title>Node115</title>
<g id="a_node39"><a xlink:href="api_2rwlock_8h.html" target="_top" xlink:title="ODP RW Locks. ">
<polygon fill="white" stroke="red" points="3647.5,-168.5 3647.5,-187.5 3740.5,-187.5 3740.5,-168.5 3647.5,-168.5"/>
<text text-anchor="middle" x="3694" y="-175.5" font-family="Helvetica,sans-Serif" font-size="10.00">odp/api/rwlock.h</text>
</a>
</g>
</g>
<!-- Node0&#45;&gt;Node115 -->
<g id="edge51" class="edge"><title>Node0&#45;&gt;Node115</title>
<path fill="none" stroke="midnightblue" d="M2364.61,-232.46C2536.39,-229.442 3359.89,-213.899 3637.22,-188.031"/>
<polygon fill="midnightblue" stroke="midnightblue" points="3637.63,-191.508 3647.25,-187.068 3636.96,-184.54 3637.63,-191.508"/>
</g>
<!-- Node79 -->
<g id="node40" class="node"><title>Node79</title>
<g id="a_node40"><a xlink:href="api_2event_8h.html" target="_top" xlink:title="ODP event. ">
<polygon fill="white" stroke="red" points="3758.5,-168.5 3758.5,-187.5 3849.5,-187.5 3849.5,-168.5 3758.5,-168.5"/>
<text text-anchor="middle" x="3804" y="-175.5" font-family="Helvetica,sans-Serif" font-size="10.00">odp/api/event.h</text>
</a>
</g>
</g>
<!-- Node0&#45;&gt;Node79 -->
<g id="edge52" class="edge"><title>Node0&#45;&gt;Node79</title>
<path fill="none" stroke="midnightblue" d="M2364.57,-232.571C2544.95,-230.034 3447.42,-216.167 3748.37,-188.006"/>
<polygon fill="midnightblue" stroke="midnightblue" points="3748.77,-191.483 3758.39,-187.041 3748.1,-184.516 3748.77,-191.483"/>
</g>
<!-- Node118 -->
<g id="node41" class="node"><title>Node118</title>
<g id="a_node41"><a xlink:href="random_8h.html" target="_top" xlink:title="ODP random number API. ">
<polygon fill="white" stroke="red" points="3867.5,-168.5 3867.5,-187.5 3968.5,-187.5 3968.5,-168.5 3867.5,-168.5"/>
<text text-anchor="middle" x="3918" y="-175.5" font-family="Helvetica,sans-Serif" font-size="10.00">odp/api/random.h</text>
</a>
</g>
</g>
<!-- Node0&#45;&gt;Node118 -->
<g id="edge53" class="edge"><title>Node0&#45;&gt;Node118</title>
<path fill="none" stroke="midnightblue" d="M2364.78,-232.591C2553.82,-230.082 3532.61,-215.968 3856.87,-188.065"/>
<polygon fill="midnightblue" stroke="midnightblue" points="3857.55,-191.519 3867.2,-187.151 3856.93,-184.546 3857.55,-191.519"/>
</g>
<!-- Node120 -->
<g id="node42" class="node"><title>Node120</title>
<g id="a_node42"><a xlink:href="api_2errno_8h.html" target="_top" xlink:title="ODP errno API. ">
<polygon fill="white" stroke="red" points="3986.5,-168.5 3986.5,-187.5 4075.5,-187.5 4075.5,-168.5 3986.5,-168.5"/>
<text text-anchor="middle" x="4031" y="-175.5" font-family="Helvetica,sans-Serif" font-size="10.00">odp/api/errno.h</text>
</a>
</g>
</g>
<!-- Node0&#45;&gt;Node120 -->
<g id="edge54" class="edge"><title>Node0&#45;&gt;Node120</title>
<path fill="none" stroke="midnightblue" d="M2364.64,-232.743C2562.02,-231.052 3626.91,-220.578 3976.12,-188.026"/>
<polygon fill="midnightblue" stroke="midnightblue" points="3976.62,-191.494 3986.24,-187.056 3975.95,-184.526 3976.62,-191.494"/>
</g>
<!-- Node94 -->
<g id="node43" class="node"><title>Node94</title>
<g id="a_node43"><a xlink:href="api_2thrmask_8h.html" target="_top" xlink:title="ODP thread masks. ">
<polygon fill="white" stroke="red" points="4094,-168.5 4094,-187.5 4198,-187.5 4198,-168.5 4094,-168.5"/>
<text text-anchor="middle" x="4146" y="-175.5" font-family="Helvetica,sans-Serif" font-size="10.00">odp/api/thrmask.h</text>
</a>
</g>
</g>
<!-- Node0&#45;&gt;Node94 -->
<g id="edge55" class="edge"><title>Node0&#45;&gt;Node94</title>
<path fill="none" stroke="midnightblue" d="M2364.66,-232.71C2569.59,-230.758 3711.14,-218.68 4083.81,-187.969"/>
<polygon fill="midnightblue" stroke="midnightblue" points="4084.14,-191.454 4093.81,-187.124 4083.55,-184.478 4084.14,-191.454"/>
</g>
<!-- Node123 -->
<g id="node44" class="node"><title>Node123</title>
<g id="a_node44"><a xlink:href="api_2traffic__mngr_8h.html" target="_top" xlink:title="ODP Traffic manager. ">
<polygon fill="white" stroke="red" points="4216.5,-168.5 4216.5,-187.5 4337.5,-187.5 4337.5,-168.5 4216.5,-168.5"/>
<text text-anchor="middle" x="4277" y="-175.5" font-family="Helvetica,sans-Serif" font-size="10.00">odp/api/traffic_mngr.h</text>
</a>
</g>
</g>
<!-- Node0&#45;&gt;Node123 -->
<g id="edge56" class="edge"><title>Node0&#45;&gt;Node123</title>
<path fill="none" stroke="midnightblue" d="M2364.76,-232.69C2578.17,-230.538 3806.69,-217.074 4206.19,-187.948"/>
<polygon fill="midnightblue" stroke="midnightblue" points="4206.62,-191.426 4216.33,-187.192 4206.1,-184.445 4206.62,-191.426"/>
</g>
<!-- Node126 -->
<g id="node45" class="node"><title>Node126</title>
<g id="a_node45"><a xlink:href="api_2spinlock__recursive_8h.html" target="_top" xlink:title="ODP resursive spinlock. ">
<polygon fill="white" stroke="red" points="4355.5,-168.5 4355.5,-187.5 4506.5,-187.5 4506.5,-168.5 4355.5,-168.5"/>
<text text-anchor="middle" x="4431" y="-175.5" font-family="Helvetica,sans-Serif" font-size="10.00">odp/api/spinlock_recursive.h</text>
</a>
</g>
</g>
<!-- Node0&#45;&gt;Node126 -->
<g id="edge57" class="edge"><title>Node0&#45;&gt;Node126</title>
<path fill="none" stroke="midnightblue" d="M2364.57,-232.661C2586.55,-230.221 3916.11,-214.7 4345.19,-188.048"/>
<polygon fill="midnightblue" stroke="midnightblue" points="4345.71,-191.522 4355.47,-187.397 4345.27,-184.536 4345.71,-191.522"/>
</g>
<!-- Node129 -->
<g id="node46" class="node"><title>Node129</title>
<g id="a_node46"><a xlink:href="api_2rwlock__recursive_8h.html" target="_top" xlink:title="ODP resursive read/write lock. ">
<polygon fill="white" stroke="red" points="4525,-168.5 4525,-187.5 4667,-187.5 4667,-168.5 4525,-168.5"/>
<text text-anchor="middle" x="4596" y="-175.5" font-family="Helvetica,sans-Serif" font-size="10.00">odp/api/rwlock_recursive.h</text>
</a>
</g>
</g>
<!-- Node0&#45;&gt;Node129 -->
<g id="edge58" class="edge"><title>Node0&#45;&gt;Node129</title>
<path fill="none" stroke="midnightblue" d="M2364.56,-232.747C2597.14,-230.819 4049.36,-217.758 4514.79,-187.998"/>
<polygon fill="midnightblue" stroke="midnightblue" points="4515.18,-191.48 4524.93,-187.337 4514.72,-184.495 4515.18,-191.48"/>
</g>
<!-- Node132 -->
<g id="node47" class="node"><title>Node132</title>
<g id="a_node47"><a xlink:href="api_2std__clib_8h_source.html" target="_top" xlink:title="odp/api/std_clib.h">
<polygon fill="white" stroke="red" points="1372,-56.5 1372,-75.5 1472,-75.5 1472,-56.5 1372,-56.5"/>
<text text-anchor="middle" x="1422" y="-63.5" font-family="Helvetica,sans-Serif" font-size="10.00">odp/api/std_clib.h</text>
</a>
</g>
</g>
<!-- Node0&#45;&gt;Node132 -->
<g id="edge59" class="edge"><title>Node0&#45;&gt;Node132</title>
<path fill="none" stroke="midnightblue" d="M2301.05,-232.489C2151.64,-229.95 1528.05,-217.602 1500,-188 1462.09,-147.988 1631.8,-155.535 1598,-112 1583.7,-93.5886 1527.24,-81.4357 1482.06,-74.4525"/>
<polygon fill="midnightblue" stroke="midnightblue" points="1482.44,-70.9698 1472.03,-72.9563 1481.41,-77.8932 1482.44,-70.9698"/>
</g>
<!-- Node25 -->
<g id="node48" class="node"><title>Node25</title>
<g id="a_node48"><a xlink:href="support_8h.html" target="_top" xlink:title="ODP support API &#45; platform specific header. ">
<polygon fill="white" stroke="red" points="4685.5,-168.5 4685.5,-187.5 4786.5,-187.5 4786.5,-168.5 4685.5,-168.5"/>
<text text-anchor="middle" x="4736" y="-175.5" font-family="Helvetica,sans-Serif" font-size="10.00">odp/api/support.h</text>
</a>
</g>
</g>
<!-- Node0&#45;&gt;Node25 -->
<g id="edge61" class="edge"><title>Node0&#45;&gt;Node25</title>
<path fill="none" stroke="midnightblue" d="M2364.52,-232.958C2606.7,-232.548 4175.7,-228.38 4675.15,-187.916"/>
<polygon fill="midnightblue" stroke="midnightblue" points="4675.64,-191.388 4685.32,-187.075 4675.06,-184.411 4675.64,-191.388"/>
</g>
<!-- Node135 -->
<g id="node49" class="node"><title>Node135</title>
<g id="a_node49"><a xlink:href="api_2ipsec_8h.html" target="_top" xlink:title="ODP IPSEC API &#45; platform specific header. ">
<polygon fill="white" stroke="red" points="4804.5,-168.5 4804.5,-187.5 4893.5,-187.5 4893.5,-168.5 4804.5,-168.5"/>
<text text-anchor="middle" x="4849" y="-175.5" font-family="Helvetica,sans-Serif" font-size="10.00">odp/api/ipsec.h</text>
</a>
</g>
</g>
<!-- Node0&#45;&gt;Node135 -->
<g id="edge62" class="edge"><title>Node0&#45;&gt;Node135</title>
<path fill="none" stroke="midnightblue" d="M2364.53,-233.075C2613.8,-233.574 4270.16,-235.089 4793.97,-188.029"/>
<polygon fill="midnightblue" stroke="midnightblue" points="4794.6,-191.485 4804.24,-187.085 4793.96,-184.514 4794.6,-191.485"/>
</g>
<!-- Node138 -->
<g id="node50" class="node"><title>Node138</title>
<g id="a_node50"><a xlink:href="api_2stash_8h.html" target="_top" xlink:title="ODP stash. ">
<polygon fill="white" stroke="red" points="4912,-168.5 4912,-187.5 5002,-187.5 5002,-168.5 4912,-168.5"/>
<text text-anchor="middle" x="4957" y="-175.5" font-family="Helvetica,sans-Serif" font-size="10.00">odp/api/stash.h</text>
</a>
</g>
</g>
<!-- Node0&#45;&gt;Node138 -->
<g id="edge63" class="edge"><title>Node0&#45;&gt;Node138</title>
<path fill="none" stroke="midnightblue" d="M2364.67,-233.09C2620.53,-233.723 4354.19,-236.196 4901.64,-187.944"/>
<polygon fill="midnightblue" stroke="midnightblue" points="4902.34,-191.396 4911.98,-187.013 4901.71,-184.424 4902.34,-191.396"/>
</g>
<!-- Node2 -->
<g id="node3" class="node"><title>Node2</title>
<g id="a_node3"><a xlink:href="spec_2deprecated_8h.html" target="_top" xlink:title="Macro for deprecated API definitions. ">
<polygon fill="white" stroke="red" points="0,-112.5 0,-131.5 144,-131.5 144,-112.5 0,-112.5"/>
<text text-anchor="middle" x="72" y="-119.5" font-family="Helvetica,sans-Serif" font-size="10.00">odp/api/spec/deprecated.h</text>
</a>
</g>
</g>
<!-- Node1&#45;&gt;Node2 -->
<g id="edge2" class="edge"><title>Node1&#45;&gt;Node2</title>
<path fill="none" stroke="midnightblue" d="M140.825,-168.324C128.153,-159.979 108.767,-147.212 93.7944,-137.352"/>
<polygon fill="midnightblue" stroke="midnightblue" points="95.4187,-134.231 85.142,-131.655 91.5688,-140.078 95.4187,-134.231"/>
</g>
<!-- Node6 -->
<g id="node5" class="node"><title>Node6</title>
<polygon fill="white" stroke="#bfbfbf" points="304,-112.5 304,-131.5 420,-131.5 420,-112.5 304,-112.5"/>
<text text-anchor="middle" x="362" y="-119.5" font-family="Helvetica,sans-Serif" font-size="10.00">odp/api/abi/version.h</text>
</g>
<!-- Node5&#45;&gt;Node6 -->
<g id="edge4" class="edge"><title>Node5&#45;&gt;Node6</title>
<path fill="none" stroke="midnightblue" d="M362,-168.083C362,-161.006 362,-150.861 362,-141.986"/>
<polygon fill="midnightblue" stroke="midnightblue" points="365.5,-141.751 362,-131.751 358.5,-141.751 365.5,-141.751"/>
</g>
<!-- Node7 -->
<g id="node6" class="node"><title>Node7</title>
<g id="a_node6"><a xlink:href="api_2spec_2version_8h.html" target="_top" xlink:title="ODP version. ">
<polygon fill="white" stroke="red" points="162,-112.5 162,-131.5 286,-131.5 286,-112.5 162,-112.5"/>
<text text-anchor="middle" x="224" y="-119.5" font-family="Helvetica,sans-Serif" font-size="10.00">odp/api/spec/version.h</text>
</a>
</g>
</g>
<!-- Node5&#45;&gt;Node7 -->
<g id="edge5" class="edge"><title>Node5&#45;&gt;Node7</title>
<path fill="none" stroke="midnightblue" d="M340.133,-168.444C317.221,-159.478 281.025,-145.314 255.134,-135.183"/>
<polygon fill="midnightblue" stroke="midnightblue" points="256.352,-131.901 245.764,-131.516 253.801,-138.42 256.352,-131.901"/>
</g>
<!-- Node9 -->
<g id="node8" class="node"><title>Node9</title>
<polygon fill="white" stroke="#bfbfbf" points="1179,-0.5 1179,-19.5 1307,-19.5 1307,-0.5 1179,-0.5"/>
<text text-anchor="middle" x="1243" y="-7.5" font-family="Helvetica,sans-Serif" font-size="10.00">odp/api/abi/std_types.h</text>
</g>
<!-- Node8&#45;&gt;Node9 -->
<g id="edge7" class="edge"><title>Node8&#45;&gt;Node9</title>
<path fill="none" stroke="midnightblue" d="M1093.2,-56.4435C1123.41,-47.2801 1171.51,-32.6876 1205.03,-22.5192"/>
<polygon fill="midnightblue" stroke="midnightblue" points="1206.37,-25.7688 1214.93,-19.5164 1204.34,-19.0703 1206.37,-25.7688"/>
</g>
<!-- Node44&#45;&gt;Node46 -->
<g id="edge16" class="edge"><title>Node44&#45;&gt;Node46</title>
<path fill="none" stroke="midnightblue" d="M2338.61,-168.083C2343.37,-160.534 2350.32,-149.495 2356.15,-140.23"/>
<polygon fill="midnightblue" stroke="midnightblue" points="2359.12,-142.078 2361.49,-131.751 2353.2,-138.349 2359.12,-142.078"/>
</g>
<!-- Node54&#45;&gt;Node8 -->
<g id="edge19" class="edge"><title>Node54&#45;&gt;Node8</title>
<path fill="none" stroke="midnightblue" d="M1132.96,-168.399C1124.92,-159.599 1112.44,-145.362 1103,-132 1092.18,-116.687 1081.56,-98.1281 1074.3,-84.7676"/>
<polygon fill="midnightblue" stroke="midnightblue" points="1077.26,-82.8798 1069.47,-75.7041 1071.09,-86.1745 1077.26,-82.8798"/>
</g>
<!-- Node54&#45;&gt;Node55 -->
<g id="edge20" class="edge"><title>Node54&#45;&gt;Node55</title>
<path fill="none" stroke="midnightblue" d="M1144.3,-168.083C1146.98,-160.849 1150.85,-150.409 1154.19,-141.397"/>
<polygon fill="midnightblue" stroke="midnightblue" points="1157.57,-142.344 1157.76,-131.751 1151,-139.913 1157.57,-142.344"/>
</g>
<!-- Node69&#45;&gt;Node8 -->
<g id="edge26" class="edge"><title>Node69&#45;&gt;Node8</title>
<path fill="none" stroke="midnightblue" d="M1253.51,-112.444C1214.68,-103.083 1152.34,-88.0561 1110.08,-77.868"/>
<polygon fill="midnightblue" stroke="midnightblue" points="1110.87,-74.4576 1100.33,-75.5164 1109.23,-81.2626 1110.87,-74.4576"/>
</g>
<!-- Node73&#45;&gt;Node8 -->
<g id="edge30" class="edge"><title>Node73&#45;&gt;Node8</title>
<path fill="none" stroke="midnightblue" d="M1368.39,-113.499C1365.21,-112.988 1362.06,-112.484 1359,-112 1280.29,-99.5374 1189.64,-85.7476 1130.05,-76.7595"/>
<polygon fill="midnightblue" stroke="midnightblue" points="1130.43,-73.2784 1120.02,-75.2489 1129.39,-80.2002 1130.43,-73.2784"/>
</g>
<!-- Node77&#45;&gt;Node8 -->
<g id="edge33" class="edge"><title>Node77&#45;&gt;Node8</title>
<path fill="none" stroke="midnightblue" d="M1477.75,-113.37C1474.45,-112.89 1471.18,-112.428 1468,-112 1349.31,-96.0119 1210.41,-81.4017 1130.57,-73.398"/>
<polygon fill="midnightblue" stroke="midnightblue" points="1130.48,-69.8715 1120.18,-72.3603 1129.78,-76.8368 1130.48,-69.8715"/>
</g>
<!-- Node33&#45;&gt;Node8 -->
<g id="edge36" class="edge"><title>Node33&#45;&gt;Node8</title>
<path fill="none" stroke="midnightblue" d="M524.087,-113.246C527.099,-112.795 530.092,-112.374 533,-112 700.542,-90.4568 899.147,-76.7812 999.684,-70.6891"/>
<polygon fill="midnightblue" stroke="midnightblue" points="999.918,-74.1814 1009.69,-70.0882 999.498,-67.194 999.918,-74.1814"/>
</g>
<!-- Node88&#45;&gt;Node8 -->
<g id="edge38" class="edge"><title>Node88&#45;&gt;Node8</title>
<path fill="none" stroke="midnightblue" d="M631.758,-113.33C634.883,-112.859 637.986,-112.411 641,-112 767.738,-94.7286 916.556,-80.2712 999.907,-72.6977"/>
<polygon fill="midnightblue" stroke="midnightblue" points="1000.34,-76.1725 1009.99,-71.7862 999.714,-69.2009 1000.34,-76.1725"/>
</g>
<!-- Node27&#45;&gt;Node8 -->
<g id="edge42" class="edge"><title>Node27&#45;&gt;Node8</title>
<path fill="none" stroke="midnightblue" d="M746.196,-113.347C749.174,-112.887 752.127,-112.435 755,-112 839.424,-99.208 936.899,-85.18 999.66,-76.2439"/>
<polygon fill="midnightblue" stroke="midnightblue" points="1000.4,-79.6735 1009.81,-74.7999 999.418,-72.7433 1000.4,-79.6735"/>
</g>
<!-- Node103&#45;&gt;Node8 -->
<g id="edge45" class="edge"><title>Node103&#45;&gt;Node8</title>
<path fill="none" stroke="midnightblue" d="M857.979,-112.444C900.894,-103.023 969.946,-87.8656 1016.37,-77.6752"/>
<polygon fill="midnightblue" stroke="midnightblue" points="1017.19,-81.0792 1026.2,-75.5164 1015.69,-74.242 1017.19,-81.0792"/>
</g>
<!-- Node108&#45;&gt;Node8 -->
<g id="edge47" class="edge"><title>Node108&#45;&gt;Node8</title>
<path fill="none" stroke="midnightblue" d="M1450.52,-168.482C1499.65,-158.634 1572.9,-142.443 1581,-132 1586.45,-124.975 1587.01,-118.553 1581,-112 1551.12,-79.4062 1262.6,-70.3334 1130.48,-67.8787"/>
<polygon fill="midnightblue" stroke="midnightblue" points="1130.16,-64.3725 1120.1,-67.6935 1130.03,-71.3714 1130.16,-64.3725"/>
</g>
<!-- Node108&#45;&gt;Node77 -->
<g id="edge48" class="edge"><title>Node108&#45;&gt;Node77</title>
<path fill="none" stroke="midnightblue" d="M1424.86,-168.444C1444.27,-159.636 1474.73,-145.812 1496.96,-135.722"/>
<polygon fill="midnightblue" stroke="midnightblue" points="1498.57,-138.836 1506.23,-131.516 1495.68,-132.462 1498.57,-138.836"/>
</g>
<!-- Node111&#45;&gt;Node8 -->
<g id="edge50" class="edge"><title>Node111&#45;&gt;Node8</title>
<path fill="none" stroke="midnightblue" d="M972.673,-112.324C990.394,-103.625 1017.9,-90.1202 1038.29,-80.113"/>
<polygon fill="midnightblue" stroke="midnightblue" points="1039.94,-83.2031 1047.37,-75.6545 1036.85,-76.9195 1039.94,-83.2031"/>
</g>
<!-- Node132&#45;&gt;Node9 -->
<g id="edge60" class="edge"><title>Node132&#45;&gt;Node9</title>
<path fill="none" stroke="midnightblue" d="M1393.64,-56.4435C1363.26,-47.2801 1314.89,-32.6876 1281.18,-22.5192"/>
<polygon fill="midnightblue" stroke="midnightblue" points="1281.82,-19.0538 1271.23,-19.5164 1279.79,-25.7555 1281.82,-19.0538"/>
</g>
</g>
</svg>
