<?xml version="1.0" encoding="UTF-8" standalone="no"?>
<!DOCTYPE svg PUBLIC "-//W3C//DTD SVG 1.1//EN"
 "http://www.w3.org/Graphics/SVG/1.1/DTD/svg11.dtd">
<!-- Generated by graphviz version 2.38.0 (20140413.2041)
 -->
<!-- Title: queue_types.h Pages: 1 -->
<svg width="424pt" height="588pt"
 viewBox="0.00 0.00 424.00 588.00" xmlns="http://www.w3.org/2000/svg" xmlns:xlink="http://www.w3.org/1999/xlink">
<g id="graph0" class="graph" transform="scale(1 1) rotate(0) translate(4 584)">
<title>queue_types.h</title>
<polygon fill="white" stroke="none" points="-4,4 -4,-584 420,-584 420,4 -4,4"/>
<!-- Node10 -->
<g id="node1" class="node"><title>Node10</title>
<polygon fill="#bfbfbf" stroke="black" points="92.5,-560.5 92.5,-579.5 179.5,-579.5 179.5,-560.5 92.5,-560.5"/>
<text text-anchor="middle" x="136" y="-567.5" font-family="Helvetica,sans-Serif" font-size="10.00">queue_types.h</text>
</g>
<!-- Node11 -->
<g id="node2" class="node"><title>Node11</title>
<g id="a_node2"><a xlink:href="api_2spec_2queue_8h.html" target="_top" xlink:title="ODP queue. ">
<polygon fill="white" stroke="black" points="108,-504.5 108,-523.5 164,-523.5 164,-504.5 108,-504.5"/>
<text text-anchor="middle" x="136" y="-511.5" font-family="Helvetica,sans-Serif" font-size="10.00">queue.h</text>
</a>
</g>
</g>
<!-- Node10&#45;&gt;Node11 -->
<g id="edge1" class="edge"><title>Node10&#45;&gt;Node11</title>
<path fill="none" stroke="midnightblue" d="M136,-549.805C136,-540.91 136,-530.78 136,-523.751"/>
<polygon fill="midnightblue" stroke="midnightblue" points="132.5,-550.083 136,-560.083 139.5,-550.083 132.5,-550.083"/>
</g>
<!-- Node12 -->
<g id="node3" class="node"><title>Node12</title>
<g id="a_node3"><a xlink:href="api_2queue_8h.html" target="_top" xlink:title="ODP queue. ">
<polygon fill="white" stroke="black" points="108,-448.5 108,-467.5 164,-467.5 164,-448.5 108,-448.5"/>
<text text-anchor="middle" x="136" y="-455.5" font-family="Helvetica,sans-Serif" font-size="10.00">queue.h</text>
</a>
</g>
</g>
<!-- Node11&#45;&gt;Node12 -->
<g id="edge2" class="edge"><title>Node11&#45;&gt;Node12</title>
<path fill="none" stroke="midnightblue" d="M136,-493.805C136,-484.91 136,-474.78 136,-467.751"/>
<polygon fill="midnightblue" stroke="midnightblue" points="132.5,-494.083 136,-504.083 139.5,-494.083 132.5,-494.083"/>
</g>
<!-- Node13 -->
<g id="node4" class="node"><title>Node13</title>
<g id="a_node4"><a xlink:href="api_2crypto_8h.html" target="_top" xlink:title="ODP crypto. ">
<polygon fill="white" stroke="black" points="28,-224.5 28,-243.5 84,-243.5 84,-224.5 28,-224.5"/>
<text text-anchor="middle" x="56" y="-231.5" font-family="Helvetica,sans-Serif" font-size="10.00">crypto.h</text>
</a>
</g>
</g>
<!-- Node12&#45;&gt;Node13 -->
<g id="edge3" class="edge"><title>Node12&#45;&gt;Node13</title>
<path fill="none" stroke="midnightblue" d="M129.467,-438.872C113.163,-393.627 71.1328,-276.993 59.2013,-243.884"/>
<polygon fill="midnightblue" stroke="midnightblue" points="126.181,-440.076 132.864,-448.297 132.766,-437.703 126.181,-440.076"/>
</g>
<!-- Node16 -->
<g id="node7" class="node"><title>Node16</title>
<g id="a_node7"><a xlink:href="odp__api_8h.html" target="_top" xlink:title="The OpenDataPlane API. ">
<polygon fill="white" stroke="black" points="166.5,-56.5 166.5,-75.5 229.5,-75.5 229.5,-56.5 166.5,-56.5"/>
<text text-anchor="middle" x="198" y="-63.5" font-family="Helvetica,sans-Serif" font-size="10.00">odp_api.h</text>
</a>
</g>
</g>
<!-- Node12&#45;&gt;Node16 -->
<g id="edge23" class="edge"><title>Node12&#45;&gt;Node16</title>
<path fill="none" stroke="midnightblue" d="M98.6034,-444.937C58.3438,-429.326 0,-397.919 0,-347 0,-347 0,-347 0,-177 0,-101.892 110.218,-77.627 166.188,-70.1471"/>
<polygon fill="midnightblue" stroke="midnightblue" points="97.5572,-448.282 108.15,-448.478 99.9917,-441.719 97.5572,-448.282"/>
</g>
<!-- Node18 -->
<g id="node9" class="node"><title>Node18</title>
<g id="a_node9"><a xlink:href="api_2spec_2packet__io_8h.html" target="_top" xlink:title="ODP Packet IO. ">
<polygon fill="white" stroke="black" points="145.5,-392.5 145.5,-411.5 216.5,-411.5 216.5,-392.5 145.5,-392.5"/>
<text text-anchor="middle" x="181" y="-399.5" font-family="Helvetica,sans-Serif" font-size="10.00">packet_io.h</text>
</a>
</g>
</g>
<!-- Node12&#45;&gt;Node18 -->
<g id="edge9" class="edge"><title>Node12&#45;&gt;Node18</title>
<path fill="none" stroke="midnightblue" d="M150.047,-440.144C157.887,-430.736 167.329,-419.405 173.707,-411.751"/>
<polygon fill="midnightblue" stroke="midnightblue" points="147.144,-438.16 143.431,-448.083 152.521,-442.641 147.144,-438.16"/>
</g>
<!-- Node24 -->
<g id="node15" class="node"><title>Node24</title>
<g id="a_node15"><a xlink:href="api_2spec_2schedule_8h.html" target="_top" xlink:title="ODP schedule. ">
<polygon fill="white" stroke="black" points="315,-336.5 315,-355.5 383,-355.5 383,-336.5 315,-336.5"/>
<text text-anchor="middle" x="349" y="-343.5" font-family="Helvetica,sans-Serif" font-size="10.00">schedule.h</text>
</a>
</g>
</g>
<!-- Node12&#45;&gt;Node24 -->
<g id="edge20" class="edge"><title>Node12&#45;&gt;Node24</title>
<path fill="none" stroke="midnightblue" d="M162.265,-443.847C180.014,-434.927 203.959,-422.833 225,-412 263.682,-392.084 308.894,-368.24 332.592,-355.699"/>
<polygon fill="midnightblue" stroke="midnightblue" points="160.467,-440.833 153.1,-448.447 163.607,-447.089 160.467,-440.833"/>
</g>
<!-- Node14 -->
<g id="node5" class="node"><title>Node14</title>
<g id="a_node5"><a xlink:href="api_2spec_2ipsec_8h.html" target="_top" xlink:title="ODP IPSEC API. ">
<polygon fill="white" stroke="black" points="173,-168.5 173,-187.5 223,-187.5 223,-168.5 173,-168.5"/>
<text text-anchor="middle" x="198" y="-175.5" font-family="Helvetica,sans-Serif" font-size="10.00">ipsec.h</text>
</a>
</g>
</g>
<!-- Node13&#45;&gt;Node14 -->
<g id="edge4" class="edge"><title>Node13&#45;&gt;Node14</title>
<path fill="none" stroke="midnightblue" d="M88.1551,-220.772C114.828,-210.629 152.069,-196.467 175.605,-187.516"/>
<polygon fill="midnightblue" stroke="midnightblue" points="86.6032,-217.618 78.5003,-224.444 89.0914,-224.16 86.6032,-217.618"/>
</g>
<!-- Node13&#45;&gt;Node16 -->
<g id="edge8" class="edge"><title>Node13&#45;&gt;Node16</title>
<path fill="none" stroke="midnightblue" d="M68.7671,-216.247C87.0323,-192.513 121.961,-147.984 154,-112 165.625,-98.943 179.907,-84.6292 188.983,-75.7299"/>
<polygon fill="midnightblue" stroke="midnightblue" points="65.9281,-214.198 62.6234,-224.264 71.4842,-218.456 65.9281,-214.198"/>
</g>
<!-- Node15 -->
<g id="node6" class="node"><title>Node15</title>
<g id="a_node6"><a xlink:href="api_2ipsec_8h.html" target="_top" xlink:title="ODP IPSEC API &#45; platform specific header. ">
<polygon fill="white" stroke="black" points="173,-112.5 173,-131.5 223,-131.5 223,-112.5 173,-112.5"/>
<text text-anchor="middle" x="198" y="-119.5" font-family="Helvetica,sans-Serif" font-size="10.00">ipsec.h</text>
</a>
</g>
</g>
<!-- Node14&#45;&gt;Node15 -->
<g id="edge5" class="edge"><title>Node14&#45;&gt;Node15</title>
<path fill="none" stroke="midnightblue" d="M198,-157.805C198,-148.91 198,-138.78 198,-131.751"/>
<polygon fill="midnightblue" stroke="midnightblue" points="194.5,-158.083 198,-168.083 201.5,-158.083 194.5,-158.083"/>
</g>
<!-- Node15&#45;&gt;Node16 -->
<g id="edge6" class="edge"><title>Node15&#45;&gt;Node16</title>
<path fill="none" stroke="midnightblue" d="M198,-101.805C198,-92.9102 198,-82.7798 198,-75.7511"/>
<polygon fill="midnightblue" stroke="midnightblue" points="194.5,-102.083 198,-112.083 201.5,-102.083 194.5,-102.083"/>
</g>
<!-- Node17 -->
<g id="node8" class="node"><title>Node17</title>
<g id="a_node8"><a xlink:href="odp_8h.html" target="_top" xlink:title="WARNING: THIS FILE IS DEPRECATED AND WILL BE REMOVED!!! ODP APPLICATIONS SHOULD NOW INCLUDE odp_api...">
<polygon fill="white" stroke="black" points="176,-0.5 176,-19.5 220,-19.5 220,-0.5 176,-0.5"/>
<text text-anchor="middle" x="198" y="-7.5" font-family="Helvetica,sans-Serif" font-size="10.00">odp.h</text>
</a>
</g>
</g>
<!-- Node16&#45;&gt;Node17 -->
<g id="edge7" class="edge"><title>Node16&#45;&gt;Node17</title>
<path fill="none" stroke="midnightblue" d="M198,-45.8045C198,-36.9102 198,-26.7798 198,-19.7511"/>
<polygon fill="midnightblue" stroke="midnightblue" points="194.5,-46.083 198,-56.083 201.5,-46.083 194.5,-46.083"/>
</g>
<!-- Node19 -->
<g id="node10" class="node"><title>Node19</title>
<g id="a_node10"><a xlink:href="api_2packet__io_8h.html" target="_top" xlink:title="ODP Packet IO. ">
<polygon fill="white" stroke="black" points="180.5,-336.5 180.5,-355.5 251.5,-355.5 251.5,-336.5 180.5,-336.5"/>
<text text-anchor="middle" x="216" y="-343.5" font-family="Helvetica,sans-Serif" font-size="10.00">packet_io.h</text>
</a>
</g>
</g>
<!-- Node18&#45;&gt;Node19 -->
<g id="edge10" class="edge"><title>Node18&#45;&gt;Node19</title>
<path fill="none" stroke="midnightblue" d="M192.3,-383.566C198.322,-374.275 205.469,-363.248 210.328,-355.751"/>
<polygon fill="midnightblue" stroke="midnightblue" points="189.281,-381.788 186.78,-392.083 195.156,-385.595 189.281,-381.788"/>
</g>
<!-- Node19&#45;&gt;Node14 -->
<g id="edge15" class="edge"><title>Node19&#45;&gt;Node14</title>
<path fill="none" stroke="midnightblue" d="M213.932,-325.93C210.028,-289.92 201.712,-213.231 198.929,-187.568"/>
<polygon fill="midnightblue" stroke="midnightblue" points="210.475,-326.511 215.032,-336.075 217.434,-325.756 210.475,-326.511"/>
</g>
<!-- Node19&#45;&gt;Node16 -->
<g id="edge19" class="edge"><title>Node19&#45;&gt;Node16</title>
<path fill="none" stroke="midnightblue" d="M226.143,-327.429C237.4,-306.236 254,-269.187 254,-235 254,-235 254,-235 254,-177 254,-135.212 221.508,-93.2619 206.023,-75.6425"/>
<polygon fill="midnightblue" stroke="midnightblue" points="223.053,-325.785 221.284,-336.231 229.181,-329.168 223.053,-325.785"/>
</g>
<!-- Node20 -->
<g id="node11" class="node"><title>Node20</title>
<g id="a_node11"><a xlink:href="api_2spec_2classification_8h.html" target="_top" xlink:title="ODP classification descriptor. ">
<polygon fill="white" stroke="black" points="102,-280.5 102,-299.5 188,-299.5 188,-280.5 102,-280.5"/>
<text text-anchor="middle" x="145" y="-287.5" font-family="Helvetica,sans-Serif" font-size="10.00">classification.h</text>
</a>
</g>
</g>
<!-- Node19&#45;&gt;Node20 -->
<g id="edge11" class="edge"><title>Node19&#45;&gt;Node20</title>
<path fill="none" stroke="midnightblue" d="M196.41,-330.101C183.632,-320.382 167.387,-308.027 156.615,-299.834"/>
<polygon fill="midnightblue" stroke="midnightblue" points="194.514,-333.056 204.593,-336.324 198.752,-327.484 194.514,-333.056"/>
</g>
<!-- Node22 -->
<g id="node13" class="node"><title>Node22</title>
<g id="a_node13"><a xlink:href="api_2spec_2traffic__mngr_8h.html" target="_top" xlink:title="Copyright (c) 2015&#45;2018, Linaro Limited All rights reserved. ">
<polygon fill="white" stroke="black" points="282.5,-280.5 282.5,-299.5 365.5,-299.5 365.5,-280.5 282.5,-280.5"/>
<text text-anchor="middle" x="324" y="-287.5" font-family="Helvetica,sans-Serif" font-size="10.00">traffic_mngr.h</text>
</a>
</g>
</g>
<!-- Node19&#45;&gt;Node22 -->
<g id="edge16" class="edge"><title>Node19&#45;&gt;Node22</title>
<path fill="none" stroke="midnightblue" d="M242.548,-331.726C262.546,-321.727 289.387,-308.307 306.691,-299.655"/>
<polygon fill="midnightblue" stroke="midnightblue" points="240.731,-328.721 233.352,-336.324 243.862,-334.982 240.731,-328.721"/>
</g>
<!-- Node21 -->
<g id="node12" class="node"><title>Node21</title>
<g id="a_node12"><a xlink:href="api_2classification_8h.html" target="_top" xlink:title="ODP classification descriptor. ">
<polygon fill="white" stroke="black" points="102,-224.5 102,-243.5 188,-243.5 188,-224.5 102,-224.5"/>
<text text-anchor="middle" x="145" y="-231.5" font-family="Helvetica,sans-Serif" font-size="10.00">classification.h</text>
</a>
</g>
</g>
<!-- Node20&#45;&gt;Node21 -->
<g id="edge12" class="edge"><title>Node20&#45;&gt;Node21</title>
<path fill="none" stroke="midnightblue" d="M145,-269.805C145,-260.91 145,-250.78 145,-243.751"/>
<polygon fill="midnightblue" stroke="midnightblue" points="141.5,-270.083 145,-280.083 148.5,-270.083 141.5,-270.083"/>
</g>
<!-- Node21&#45;&gt;Node14 -->
<g id="edge13" class="edge"><title>Node21&#45;&gt;Node14</title>
<path fill="none" stroke="midnightblue" d="M160.981,-216.718C170.322,-207.2 181.746,-195.561 189.411,-187.751"/>
<polygon fill="midnightblue" stroke="midnightblue" points="158.259,-214.494 153.752,-224.083 163.254,-219.398 158.259,-214.494"/>
</g>
<!-- Node21&#45;&gt;Node16 -->
<g id="edge14" class="edge"><title>Node21&#45;&gt;Node16</title>
<path fill="none" stroke="midnightblue" d="M145.144,-214.354C145.946,-189.91 149.512,-146.134 164,-112 169.968,-97.939 181.288,-84.3047 189.221,-75.7984"/>
<polygon fill="midnightblue" stroke="midnightblue" points="141.644,-214.328 144.939,-224.398 148.643,-214.471 141.644,-214.328"/>
</g>
<!-- Node23 -->
<g id="node14" class="node"><title>Node23</title>
<g id="a_node14"><a xlink:href="api_2traffic__mngr_8h.html" target="_top" xlink:title="ODP Traffic manager. ">
<polygon fill="white" stroke="black" points="282.5,-168.5 282.5,-187.5 365.5,-187.5 365.5,-168.5 282.5,-168.5"/>
<text text-anchor="middle" x="324" y="-175.5" font-family="Helvetica,sans-Serif" font-size="10.00">traffic_mngr.h</text>
</a>
</g>
</g>
<!-- Node22&#45;&gt;Node23 -->
<g id="edge17" class="edge"><title>Node22&#45;&gt;Node23</title>
<path fill="none" stroke="midnightblue" d="M324,-270.348C324,-246.254 324,-205.308 324,-187.591"/>
<polygon fill="midnightblue" stroke="midnightblue" points="320.5,-270.368 324,-280.368 327.5,-270.369 320.5,-270.368"/>
</g>
<!-- Node23&#45;&gt;Node16 -->
<g id="edge18" class="edge"><title>Node23&#45;&gt;Node16</title>
<path fill="none" stroke="midnightblue" d="M311.672,-160.139C301.038,-146.268 284.785,-126.588 268,-112 251.098,-97.3103 229.002,-83.9122 214.197,-75.6269"/>
<polygon fill="midnightblue" stroke="midnightblue" points="308.996,-162.405 317.797,-168.304 314.595,-158.204 308.996,-162.405"/>
</g>
<!-- Node25 -->
<g id="node16" class="node"><title>Node25</title>
<g id="a_node16"><a xlink:href="api_2schedule_8h.html" target="_top" xlink:title="ODP schedule. ">
<polygon fill="white" stroke="black" points="348,-112.5 348,-131.5 416,-131.5 416,-112.5 348,-112.5"/>
<text text-anchor="middle" x="382" y="-119.5" font-family="Helvetica,sans-Serif" font-size="10.00">schedule.h</text>
</a>
</g>
</g>
<!-- Node24&#45;&gt;Node25 -->
<g id="edge21" class="edge"><title>Node24&#45;&gt;Node25</title>
<path fill="none" stroke="midnightblue" d="M361.036,-327.778C366.001,-319.721 371.233,-309.765 374,-300 391.695,-237.554 385.656,-157.804 382.986,-131.696"/>
<polygon fill="midnightblue" stroke="midnightblue" points="358.046,-325.955 355.493,-336.238 363.901,-329.792 358.046,-325.955"/>
</g>
<!-- Node25&#45;&gt;Node16 -->
<g id="edge22" class="edge"><title>Node25&#45;&gt;Node16</title>
<path fill="none" stroke="midnightblue" d="M343.046,-109.568C308.335,-99.381 258.323,-84.7034 227.019,-75.5164"/>
<polygon fill="midnightblue" stroke="midnightblue" points="342.264,-112.986 352.845,-112.444 344.235,-106.269 342.264,-112.986"/>
</g>
</g>
</svg>
