<?xml version="1.0" encoding="UTF-8" standalone="no"?>
<!DOCTYPE svg PUBLIC "-//W3C//DTD SVG 1.1//EN"
 "http://www.w3.org/Graphics/SVG/1.1/DTD/svg11.dtd">
<!-- Generated by graphviz version 2.38.0 (20140413.2041)
 -->
<!-- Title: deprecated.h Pages: 1 -->
<svg width="1053pt" height="700pt"
 viewBox="0.00 0.00 1053.00 700.00" xmlns="http://www.w3.org/2000/svg" xmlns:xlink="http://www.w3.org/1999/xlink">
<g id="graph0" class="graph" transform="scale(1 1) rotate(0) translate(4 696)">
<title>deprecated.h</title>
<polygon fill="white" stroke="none" points="-4,4 -4,-696 1049,-696 1049,4 -4,4"/>
<!-- Node3 -->
<g id="node1" class="node"><title>Node3</title>
<polygon fill="#bfbfbf" stroke="black" points="777,-672.5 777,-691.5 857,-691.5 857,-672.5 777,-672.5"/>
<text text-anchor="middle" x="817" y="-679.5" font-family="Helvetica,sans-Serif" font-size="10.00">deprecated.h</text>
</g>
<!-- Node4 -->
<g id="node2" class="node"><title>Node4</title>
<g id="a_node2"><a xlink:href="deprecated_8h.html" target="_top" xlink:title="Control deprecated API definitions. ">
<polygon fill="white" stroke="black" points="777,-616.5 777,-635.5 857,-635.5 857,-616.5 777,-616.5"/>
<text text-anchor="middle" x="817" y="-623.5" font-family="Helvetica,sans-Serif" font-size="10.00">deprecated.h</text>
</a>
</g>
</g>
<!-- Node3&#45;&gt;Node4 -->
<g id="edge1" class="edge"><title>Node3&#45;&gt;Node4</title>
<path fill="none" stroke="midnightblue" d="M817,-661.805C817,-652.91 817,-642.78 817,-635.751"/>
<polygon fill="midnightblue" stroke="midnightblue" points="813.5,-662.083 817,-672.083 820.5,-662.083 813.5,-662.083"/>
</g>
<!-- Node5 -->
<g id="node3" class="node"><title>Node5</title>
<g id="a_node3"><a xlink:href="api_2abi-default_2classification_8h_source.html" target="_top" xlink:title="classification.h">
<polygon fill="white" stroke="black" points="364,-448.5 364,-467.5 450,-467.5 450,-448.5 364,-448.5"/>
<text text-anchor="middle" x="407" y="-455.5" font-family="Helvetica,sans-Serif" font-size="10.00">classification.h</text>
</a>
</g>
</g>
<!-- Node4&#45;&gt;Node5 -->
<g id="edge2" class="edge"><title>Node4&#45;&gt;Node5</title>
<path fill="none" stroke="midnightblue" d="M786.379,-612.602C707.006,-580.466 496.086,-495.069 428.299,-467.624"/>
<polygon fill="midnightblue" stroke="midnightblue" points="785.237,-615.916 795.82,-616.425 787.864,-609.428 785.237,-615.916"/>
</g>
<!-- Node16 -->
<g id="node14" class="node"><title>Node16</title>
<g id="a_node14"><a xlink:href="odp__api_8h.html" target="_top" xlink:title="The OpenDataPlane API. ">
<polygon fill="white" stroke="black" points="772.5,-56.5 772.5,-75.5 835.5,-75.5 835.5,-56.5 772.5,-56.5"/>
<text text-anchor="middle" x="804" y="-63.5" font-family="Helvetica,sans-Serif" font-size="10.00">odp_api.h</text>
</a>
</g>
</g>
<!-- Node4&#45;&gt;Node16 -->
<g id="edge39" class="edge"><title>Node4&#45;&gt;Node16</title>
<path fill="none" stroke="midnightblue" d="M831.531,-608.658C848.123,-588.253 873,-551.564 873,-515 873,-515 873,-515 873,-177 873,-133.266 833.375,-92.6455 814.181,-75.5352"/>
<polygon fill="midnightblue" stroke="midnightblue" points="828.805,-606.461 825.023,-616.358 834.151,-610.979 828.805,-606.461"/>
</g>
<!-- Node22 -->
<g id="node20" class="node"><title>Node22</title>
<g id="a_node20"><a xlink:href="api_2spec_2crypto_8h.html" target="_top" xlink:title="ODP crypto. ">
<polygon fill="white" stroke="black" points="789,-504.5 789,-523.5 845,-523.5 845,-504.5 789,-504.5"/>
<text text-anchor="middle" x="817" y="-511.5" font-family="Helvetica,sans-Serif" font-size="10.00">crypto.h</text>
</a>
</g>
</g>
<!-- Node4&#45;&gt;Node22 -->
<g id="edge24" class="edge"><title>Node4&#45;&gt;Node22</title>
<path fill="none" stroke="midnightblue" d="M817,-606.348C817,-582.254 817,-541.308 817,-523.591"/>
<polygon fill="midnightblue" stroke="midnightblue" points="813.5,-606.368 817,-616.368 820.5,-606.369 813.5,-606.368"/>
</g>
<!-- Node24 -->
<g id="node22" class="node"><title>Node24</title>
<g id="a_node22"><a xlink:href="api_2spec_2packet__io_8h.html" target="_top" xlink:title="ODP Packet IO. ">
<polygon fill="white" stroke="black" points="728.5,-392.5 728.5,-411.5 799.5,-411.5 799.5,-392.5 728.5,-392.5"/>
<text text-anchor="middle" x="764" y="-399.5" font-family="Helvetica,sans-Serif" font-size="10.00">packet_io.h</text>
</a>
</g>
</g>
<!-- Node4&#45;&gt;Node24 -->
<g id="edge28" class="edge"><title>Node4&#45;&gt;Node24</title>
<path fill="none" stroke="midnightblue" d="M809.004,-606.927C800.517,-587.005 787.339,-553.819 780,-524 769.822,-482.643 765.763,-431.636 764.489,-411.629"/>
<polygon fill="midnightblue" stroke="midnightblue" points="805.873,-608.506 813.064,-616.287 812.295,-605.72 805.873,-608.506"/>
</g>
<!-- Node25 -->
<g id="node23" class="node"><title>Node25</title>
<g id="a_node23"><a xlink:href="queue__types_8h.html" target="_top" xlink:title="ODP queue types. ">
<polygon fill="white" stroke="black" points="901.5,-560.5 901.5,-579.5 988.5,-579.5 988.5,-560.5 901.5,-560.5"/>
<text text-anchor="middle" x="945" y="-567.5" font-family="Helvetica,sans-Serif" font-size="10.00">queue_types.h</text>
</a>
</g>
</g>
<!-- Node4&#45;&gt;Node25 -->
<g id="edge30" class="edge"><title>Node4&#45;&gt;Node25</title>
<path fill="none" stroke="midnightblue" d="M846.623,-612.503C870.619,-602.38 903.784,-588.388 924.813,-579.516"/>
<polygon fill="midnightblue" stroke="midnightblue" points="845.135,-609.332 837.282,-616.444 847.856,-615.781 845.135,-609.332"/>
</g>
<!-- Node6 -->
<g id="node4" class="node"><title>Node6</title>
<g id="a_node4"><a xlink:href="arch_2arm32-linux_2odp_2api_2abi_2classification_8h_source.html" target="_top" xlink:title="classification.h">
<polygon fill="white" stroke="black" points="208,-392.5 208,-411.5 294,-411.5 294,-392.5 208,-392.5"/>
<text text-anchor="middle" x="251" y="-399.5" font-family="Helvetica,sans-Serif" font-size="10.00">classification.h</text>
</a>
</g>
</g>
<!-- Node5&#45;&gt;Node6 -->
<g id="edge3" class="edge"><title>Node5&#45;&gt;Node6</title>
<path fill="none" stroke="midnightblue" d="M372.83,-445.172C343.456,-435.004 301.802,-420.585 275.603,-411.516"/>
<polygon fill="midnightblue" stroke="midnightblue" points="371.687,-448.48 382.281,-448.444 373.976,-441.865 371.687,-448.48"/>
</g>
<!-- Node7 -->
<g id="node5" class="node"><title>Node7</title>
<g id="a_node5"><a xlink:href="arch_2arm64-linux_2odp_2api_2abi_2classification_8h_source.html" target="_top" xlink:title="classification.h">
<polygon fill="white" stroke="black" points="312,-392.5 312,-411.5 398,-411.5 398,-392.5 312,-392.5"/>
<text text-anchor="middle" x="355" y="-399.5" font-family="Helvetica,sans-Serif" font-size="10.00">classification.h</text>
</a>
</g>
</g>
<!-- Node5&#45;&gt;Node7 -->
<g id="edge4" class="edge"><title>Node5&#45;&gt;Node7</title>
<path fill="none" stroke="midnightblue" d="M391.321,-440.718C382.155,-431.2 370.947,-419.561 363.427,-411.751"/>
<polygon fill="midnightblue" stroke="midnightblue" points="388.956,-443.308 398.413,-448.083 393.998,-438.452 388.956,-443.308"/>
</g>
<!-- Node8 -->
<g id="node6" class="node"><title>Node8</title>
<g id="a_node6"><a xlink:href="arch_2default-linux_2odp_2api_2abi_2classification_8h_source.html" target="_top" xlink:title="classification.h">
<polygon fill="white" stroke="black" points="416,-392.5 416,-411.5 502,-411.5 502,-392.5 416,-392.5"/>
<text text-anchor="middle" x="459" y="-399.5" font-family="Helvetica,sans-Serif" font-size="10.00">classification.h</text>
</a>
</g>
</g>
<!-- Node5&#45;&gt;Node8 -->
<g id="edge5" class="edge"><title>Node5&#45;&gt;Node8</title>
<path fill="none" stroke="midnightblue" d="M422.679,-440.718C431.845,-431.2 443.053,-419.561 450.573,-411.751"/>
<polygon fill="midnightblue" stroke="midnightblue" points="420.002,-438.452 415.587,-448.083 425.044,-443.308 420.002,-438.452"/>
</g>
<!-- Node9 -->
<g id="node7" class="node"><title>Node9</title>
<g id="a_node7"><a xlink:href="arch_2mips64-linux_2odp_2api_2abi_2classification_8h_source.html" target="_top" xlink:title="classification.h">
<polygon fill="white" stroke="black" points="520,-392.5 520,-411.5 606,-411.5 606,-392.5 520,-392.5"/>
<text text-anchor="middle" x="563" y="-399.5" font-family="Helvetica,sans-Serif" font-size="10.00">classification.h</text>
</a>
</g>
</g>
<!-- Node5&#45;&gt;Node9 -->
<g id="edge6" class="edge"><title>Node5&#45;&gt;Node9</title>
<path fill="none" stroke="midnightblue" d="M441.17,-445.172C470.544,-435.004 512.198,-420.585 538.397,-411.516"/>
<polygon fill="midnightblue" stroke="midnightblue" points="440.024,-441.865 431.719,-448.444 442.313,-448.48 440.024,-441.865"/>
</g>
<!-- Node10 -->
<g id="node8" class="node"><title>Node10</title>
<g id="a_node8"><a xlink:href="arch_2power64-linux_2odp_2api_2abi_2classification_8h_source.html" target="_top" xlink:title="classification.h">
<polygon fill="white" stroke="black" points="0,-392.5 0,-411.5 86,-411.5 86,-392.5 0,-392.5"/>
<text text-anchor="middle" x="43" y="-399.5" font-family="Helvetica,sans-Serif" font-size="10.00">classification.h</text>
</a>
</g>
</g>
<!-- Node5&#45;&gt;Node10 -->
<g id="edge7" class="edge"><title>Node5&#45;&gt;Node10</title>
<path fill="none" stroke="midnightblue" d="M353.827,-449.795C291.674,-441.265 185.754,-426.396 95,-412 92.1044,-411.541 89.1201,-411.056 86.1147,-410.558"/>
<polygon fill="midnightblue" stroke="midnightblue" points="353.408,-453.27 363.79,-451.159 354.357,-446.335 353.408,-453.27"/>
</g>
<!-- Node11 -->
<g id="node9" class="node"><title>Node11</title>
<g id="a_node9"><a xlink:href="arch_2x86__32-linux_2odp_2api_2abi_2classification_8h_source.html" target="_top" xlink:title="classification.h">
<polygon fill="white" stroke="black" points="104,-392.5 104,-411.5 190,-411.5 190,-392.5 104,-392.5"/>
<text text-anchor="middle" x="147" y="-399.5" font-family="Helvetica,sans-Serif" font-size="10.00">classification.h</text>
</a>
</g>
</g>
<!-- Node5&#45;&gt;Node11 -->
<g id="edge8" class="edge"><title>Node5&#45;&gt;Node11</title>
<path fill="none" stroke="midnightblue" d="M356.009,-446.41C306.872,-436.204 233.473,-420.96 188.005,-411.516"/>
<polygon fill="midnightblue" stroke="midnightblue" points="355.299,-449.837 365.802,-448.444 356.723,-442.983 355.299,-449.837"/>
</g>
<!-- Node12 -->
<g id="node10" class="node"><title>Node12</title>
<g id="a_node10"><a xlink:href="arch_2x86__64-linux_2odp_2api_2abi_2classification_8h_source.html" target="_top" xlink:title="classification.h">
<polygon fill="white" stroke="black" points="624,-392.5 624,-411.5 710,-411.5 710,-392.5 624,-392.5"/>
<text text-anchor="middle" x="667" y="-399.5" font-family="Helvetica,sans-Serif" font-size="10.00">classification.h</text>
</a>
</g>
</g>
<!-- Node5&#45;&gt;Node12 -->
<g id="edge9" class="edge"><title>Node5&#45;&gt;Node12</title>
<path fill="none" stroke="midnightblue" d="M457.991,-446.41C507.128,-436.204 580.527,-420.96 625.995,-411.516"/>
<polygon fill="midnightblue" stroke="midnightblue" points="457.277,-442.983 448.198,-448.444 458.701,-449.837 457.277,-442.983"/>
</g>
<!-- Node13 -->
<g id="node11" class="node"><title>Node13</title>
<g id="a_node11"><a xlink:href="api_2classification_8h.html" target="_top" xlink:title="ODP classification descriptor. ">
<polygon fill="white" stroke="black" points="578,-224.5 578,-243.5 664,-243.5 664,-224.5 578,-224.5"/>
<text text-anchor="middle" x="621" y="-231.5" font-family="Helvetica,sans-Serif" font-size="10.00">classification.h</text>
</a>
</g>
</g>
<!-- Node12&#45;&gt;Node13 -->
<g id="edge10" class="edge"><title>Node12&#45;&gt;Node13</title>
<path fill="none" stroke="midnightblue" d="M645.132,-386.484C621.231,-369.161 584.302,-337.746 569,-300 565.66,-291.762 565.305,-288.084 569,-280 576.395,-263.821 592.797,-251.231 605.217,-243.533"/>
<polygon fill="midnightblue" stroke="midnightblue" points="643.387,-389.535 653.583,-392.417 647.41,-383.807 643.387,-389.535"/>
</g>
<!-- Node18 -->
<g id="node16" class="node"><title>Node18</title>
<g id="a_node16"><a xlink:href="api_2packet__io_8h.html" target="_top" xlink:title="ODP Packet IO. ">
<polygon fill="white" stroke="black" points="643.5,-336.5 643.5,-355.5 714.5,-355.5 714.5,-336.5 643.5,-336.5"/>
<text text-anchor="middle" x="679" y="-343.5" font-family="Helvetica,sans-Serif" font-size="10.00">packet_io.h</text>
</a>
</g>
</g>
<!-- Node12&#45;&gt;Node18 -->
<g id="edge16" class="edge"><title>Node12&#45;&gt;Node18</title>
<path fill="none" stroke="midnightblue" d="M671.2,-382.101C673.192,-373.136 675.476,-362.858 677.055,-355.751"/>
<polygon fill="midnightblue" stroke="midnightblue" points="667.734,-381.562 668.982,-392.083 674.568,-383.08 667.734,-381.562"/>
</g>
<!-- Node14 -->
<g id="node12" class="node"><title>Node14</title>
<g id="a_node12"><a xlink:href="api_2spec_2ipsec_8h.html" target="_top" xlink:title="ODP IPSEC API. ">
<polygon fill="white" stroke="black" points="651,-168.5 651,-187.5 701,-187.5 701,-168.5 651,-168.5"/>
<text text-anchor="middle" x="676" y="-175.5" font-family="Helvetica,sans-Serif" font-size="10.00">ipsec.h</text>
</a>
</g>
</g>
<!-- Node13&#45;&gt;Node14 -->
<g id="edge11" class="edge"><title>Node13&#45;&gt;Node14</title>
<path fill="none" stroke="midnightblue" d="M637.294,-217.002C647.041,-207.433 659.053,-195.639 667.087,-187.751"/>
<polygon fill="midnightblue" stroke="midnightblue" points="634.766,-214.58 630.082,-224.083 639.67,-219.575 634.766,-214.58"/>
</g>
<!-- Node13&#45;&gt;Node16 -->
<g id="edge15" class="edge"><title>Node13&#45;&gt;Node16</title>
<path fill="none" stroke="midnightblue" d="M622.752,-213.901C626.235,-187.211 636.459,-139.004 666,-112 695.574,-84.9661 741.646,-74.1543 772.314,-69.8422"/>
<polygon fill="midnightblue" stroke="midnightblue" points="619.234,-213.872 621.609,-224.198 626.191,-214.645 619.234,-213.872"/>
</g>
<!-- Node15 -->
<g id="node13" class="node"><title>Node15</title>
<g id="a_node13"><a xlink:href="api_2ipsec_8h.html" target="_top" xlink:title="ODP IPSEC API &#45; platform specific header. ">
<polygon fill="white" stroke="black" points="675,-112.5 675,-131.5 725,-131.5 725,-112.5 675,-112.5"/>
<text text-anchor="middle" x="700" y="-119.5" font-family="Helvetica,sans-Serif" font-size="10.00">ipsec.h</text>
</a>
</g>
</g>
<!-- Node14&#45;&gt;Node15 -->
<g id="edge12" class="edge"><title>Node14&#45;&gt;Node15</title>
<path fill="none" stroke="midnightblue" d="M684.138,-158.69C688.183,-149.589 692.883,-139.014 696.111,-131.751"/>
<polygon fill="midnightblue" stroke="midnightblue" points="680.826,-157.523 679.963,-168.083 687.223,-160.366 680.826,-157.523"/>
</g>
<!-- Node15&#45;&gt;Node16 -->
<g id="edge13" class="edge"><title>Node15&#45;&gt;Node16</title>
<path fill="none" stroke="midnightblue" d="M725.828,-107.59C745.057,-97.6052 770.745,-84.2672 787.332,-75.6545"/>
<polygon fill="midnightblue" stroke="midnightblue" points="723.971,-104.61 716.709,-112.324 727.197,-110.822 723.971,-104.61"/>
</g>
<!-- Node17 -->
<g id="node15" class="node"><title>Node17</title>
<g id="a_node15"><a xlink:href="odp_8h.html" target="_top" xlink:title="WARNING: THIS FILE IS DEPRECATED AND WILL BE REMOVED!!! ODP APPLICATIONS SHOULD NOW INCLUDE odp_api...">
<polygon fill="white" stroke="black" points="782,-0.5 782,-19.5 826,-19.5 826,-0.5 782,-0.5"/>
<text text-anchor="middle" x="804" y="-7.5" font-family="Helvetica,sans-Serif" font-size="10.00">odp.h</text>
</a>
</g>
</g>
<!-- Node16&#45;&gt;Node17 -->
<g id="edge14" class="edge"><title>Node16&#45;&gt;Node17</title>
<path fill="none" stroke="midnightblue" d="M804,-45.8045C804,-36.9102 804,-26.7798 804,-19.7511"/>
<polygon fill="midnightblue" stroke="midnightblue" points="800.5,-46.083 804,-56.083 807.5,-46.083 800.5,-46.083"/>
</g>
<!-- Node18&#45;&gt;Node14 -->
<g id="edge19" class="edge"><title>Node18&#45;&gt;Node14</title>
<path fill="none" stroke="midnightblue" d="M678.655,-325.93C678.005,-289.92 676.619,-213.231 676.155,-187.568"/>
<polygon fill="midnightblue" stroke="midnightblue" points="675.158,-326.14 678.839,-336.075 682.157,-326.013 675.158,-326.14"/>
</g>
<!-- Node18&#45;&gt;Node16 -->
<g id="edge23" class="edge"><title>Node18&#45;&gt;Node16</title>
<path fill="none" stroke="midnightblue" d="M633.421,-336.125C611.19,-329.61 585.709,-318.543 569,-300 548.852,-277.641 550,-265.098 550,-235 550,-235 550,-235 550,-177 550,-81.1306 704.255,-67.8792 772.344,-66.6998"/>
<polygon fill="midnightblue" stroke="midnightblue" points="632.797,-339.582 643.363,-338.809 634.621,-332.824 632.797,-339.582"/>
</g>
<!-- Node19 -->
<g id="node17" class="node"><title>Node19</title>
<g id="a_node17"><a xlink:href="api_2spec_2classification_8h.html" target="_top" xlink:title="ODP classification descriptor. ">
<polygon fill="white" stroke="black" points="578,-280.5 578,-299.5 664,-299.5 664,-280.5 578,-280.5"/>
<text text-anchor="middle" x="621" y="-287.5" font-family="Helvetica,sans-Serif" font-size="10.00">classification.h</text>
</a>
</g>
</g>
<!-- Node18&#45;&gt;Node19 -->
<g id="edge17" class="edge"><title>Node18&#45;&gt;Node19</title>
<path fill="none" stroke="midnightblue" d="M662.087,-329.253C651.797,-319.673 639.034,-307.791 630.488,-299.834"/>
<polygon fill="midnightblue" stroke="midnightblue" points="659.977,-332.071 669.681,-336.324 664.747,-326.948 659.977,-332.071"/>
</g>
<!-- Node20 -->
<g id="node18" class="node"><title>Node20</title>
<g id="a_node18"><a xlink:href="api_2spec_2traffic__mngr_8h.html" target="_top" xlink:title="Copyright (c) 2015&#45;2018, Linaro Limited All rights reserved. ">
<polygon fill="white" stroke="black" points="720.5,-280.5 720.5,-299.5 803.5,-299.5 803.5,-280.5 720.5,-280.5"/>
<text text-anchor="middle" x="762" y="-287.5" font-family="Helvetica,sans-Serif" font-size="10.00">traffic_mngr.h</text>
</a>
</g>
</g>
<!-- Node18&#45;&gt;Node20 -->
<g id="edge20" class="edge"><title>Node18&#45;&gt;Node20</title>
<path fill="none" stroke="midnightblue" d="M701.099,-330.622C716.262,-320.757 735.883,-307.992 748.698,-299.655"/>
<polygon fill="midnightblue" stroke="midnightblue" points="698.809,-327.937 692.335,-336.324 702.626,-333.804 698.809,-327.937"/>
</g>
<!-- Node19&#45;&gt;Node13 -->
<g id="edge18" class="edge"><title>Node19&#45;&gt;Node13</title>
<path fill="none" stroke="midnightblue" d="M621,-269.805C621,-260.91 621,-250.78 621,-243.751"/>
<polygon fill="midnightblue" stroke="midnightblue" points="617.5,-270.083 621,-280.083 624.5,-270.083 617.5,-270.083"/>
</g>
<!-- Node21 -->
<g id="node19" class="node"><title>Node21</title>
<g id="a_node19"><a xlink:href="api_2traffic__mngr_8h.html" target="_top" xlink:title="ODP Traffic manager. ">
<polygon fill="white" stroke="black" points="719.5,-168.5 719.5,-187.5 802.5,-187.5 802.5,-168.5 719.5,-168.5"/>
<text text-anchor="middle" x="761" y="-175.5" font-family="Helvetica,sans-Serif" font-size="10.00">traffic_mngr.h</text>
</a>
</g>
</g>
<!-- Node20&#45;&gt;Node21 -->
<g id="edge21" class="edge"><title>Node20&#45;&gt;Node21</title>
<path fill="none" stroke="midnightblue" d="M761.83,-270.348C761.611,-246.254 761.239,-205.308 761.078,-187.591"/>
<polygon fill="midnightblue" stroke="midnightblue" points="758.331,-270.401 761.922,-280.368 765.33,-270.337 758.331,-270.401"/>
</g>
<!-- Node21&#45;&gt;Node16 -->
<g id="edge22" class="edge"><title>Node21&#45;&gt;Node16</title>
<path fill="none" stroke="midnightblue" d="M768.037,-158.998C777.419,-134.997 793.653,-93.4683 800.642,-75.5914"/>
<polygon fill="midnightblue" stroke="midnightblue" points="764.755,-157.78 764.374,-168.368 771.275,-160.329 764.755,-157.78"/>
</g>
<!-- Node23 -->
<g id="node21" class="node"><title>Node23</title>
<g id="a_node21"><a xlink:href="api_2crypto_8h.html" target="_top" xlink:title="ODP crypto. ">
<polygon fill="white" stroke="black" points="789,-224.5 789,-243.5 845,-243.5 845,-224.5 789,-224.5"/>
<text text-anchor="middle" x="817" y="-231.5" font-family="Helvetica,sans-Serif" font-size="10.00">crypto.h</text>
</a>
</g>
</g>
<!-- Node22&#45;&gt;Node23 -->
<g id="edge25" class="edge"><title>Node22&#45;&gt;Node23</title>
<path fill="none" stroke="midnightblue" d="M821.051,-494.657C825.493,-472.905 832,-435.498 832,-403 832,-403 832,-403 832,-345 832,-306.838 823.027,-261.905 818.961,-243.504"/>
<polygon fill="midnightblue" stroke="midnightblue" points="817.615,-493.987 818.961,-504.496 824.462,-495.441 817.615,-493.987"/>
</g>
<!-- Node23&#45;&gt;Node14 -->
<g id="edge26" class="edge"><title>Node23&#45;&gt;Node14</title>
<path fill="none" stroke="midnightblue" d="M785.071,-220.772C758.586,-210.629 721.608,-196.467 698.237,-187.516"/>
<polygon fill="midnightblue" stroke="midnightblue" points="784.068,-224.136 794.658,-224.444 786.571,-217.599 784.068,-224.136"/>
</g>
<!-- Node23&#45;&gt;Node16 -->
<g id="edge27" class="edge"><title>Node23&#45;&gt;Node16</title>
<path fill="none" stroke="midnightblue" d="M815.507,-213.93C812.687,-177.92 806.681,-101.231 804.671,-75.5681"/>
<polygon fill="midnightblue" stroke="midnightblue" points="812.031,-214.379 816.301,-224.075 819.01,-213.832 812.031,-214.379"/>
</g>
<!-- Node24&#45;&gt;Node18 -->
<g id="edge29" class="edge"><title>Node24&#45;&gt;Node18</title>
<path fill="none" stroke="midnightblue" d="M741.806,-386.901C726.22,-376.999 705.87,-364.071 692.623,-355.655"/>
<polygon fill="midnightblue" stroke="midnightblue" points="740.026,-389.916 750.343,-392.324 743.779,-384.007 740.026,-389.916"/>
</g>
<!-- Node26 -->
<g id="node24" class="node"><title>Node26</title>
<g id="a_node24"><a xlink:href="api_2spec_2queue_8h.html" target="_top" xlink:title="ODP queue. ">
<polygon fill="white" stroke="black" points="917,-504.5 917,-523.5 973,-523.5 973,-504.5 917,-504.5"/>
<text text-anchor="middle" x="945" y="-511.5" font-family="Helvetica,sans-Serif" font-size="10.00">queue.h</text>
</a>
</g>
</g>
<!-- Node25&#45;&gt;Node26 -->
<g id="edge31" class="edge"><title>Node25&#45;&gt;Node26</title>
<path fill="none" stroke="midnightblue" d="M945,-549.805C945,-540.91 945,-530.78 945,-523.751"/>
<polygon fill="midnightblue" stroke="midnightblue" points="941.5,-550.083 945,-560.083 948.5,-550.083 941.5,-550.083"/>
</g>
<!-- Node27 -->
<g id="node25" class="node"><title>Node27</title>
<g id="a_node25"><a xlink:href="api_2queue_8h.html" target="_top" xlink:title="ODP queue. ">
<polygon fill="white" stroke="black" points="917,-448.5 917,-467.5 973,-467.5 973,-448.5 917,-448.5"/>
<text text-anchor="middle" x="945" y="-455.5" font-family="Helvetica,sans-Serif" font-size="10.00">queue.h</text>
</a>
</g>
</g>
<!-- Node26&#45;&gt;Node27 -->
<g id="edge32" class="edge"><title>Node26&#45;&gt;Node27</title>
<path fill="none" stroke="midnightblue" d="M945,-493.805C945,-484.91 945,-474.78 945,-467.751"/>
<polygon fill="midnightblue" stroke="midnightblue" points="941.5,-494.083 945,-504.083 948.5,-494.083 941.5,-494.083"/>
</g>
<!-- Node27&#45;&gt;Node16 -->
<g id="edge38" class="edge"><title>Node27&#45;&gt;Node16</title>
<path fill="none" stroke="midnightblue" d="M946.096,-438.259C947.281,-416.372 949,-379.073 949,-347 949,-347 949,-347 949,-177 949,-120.44 878.109,-89.1959 835.463,-75.5176"/>
<polygon fill="midnightblue" stroke="midnightblue" points="942.591,-438.265 945.523,-448.446 949.58,-438.659 942.591,-438.265"/>
</g>
<!-- Node27&#45;&gt;Node23 -->
<g id="edge33" class="edge"><title>Node27&#45;&gt;Node23</title>
<path fill="none" stroke="midnightblue" d="M935.631,-439.405C918.461,-407.353 880.536,-337.456 846,-280 838.243,-267.095 828.69,-252.503 822.721,-243.526"/>
<polygon fill="midnightblue" stroke="midnightblue" points="932.647,-441.247 940.446,-448.418 938.821,-437.948 932.647,-441.247"/>
</g>
<!-- Node27&#45;&gt;Node24 -->
<g id="edge34" class="edge"><title>Node27&#45;&gt;Node24</title>
<path fill="none" stroke="midnightblue" d="M907.096,-445.692C872.986,-435.515 823.607,-420.783 792.68,-411.556"/>
<polygon fill="midnightblue" stroke="midnightblue" points="906.135,-449.057 916.719,-448.562 908.137,-442.35 906.135,-449.057"/>
</g>
<!-- Node28 -->
<g id="node26" class="node"><title>Node28</title>
<g id="a_node26"><a xlink:href="api_2spec_2schedule_8h.html" target="_top" xlink:title="ODP schedule. ">
<polygon fill="white" stroke="black" points="977,-392.5 977,-411.5 1045,-411.5 1045,-392.5 977,-392.5"/>
<text text-anchor="middle" x="1011" y="-399.5" font-family="Helvetica,sans-Serif" font-size="10.00">schedule.h</text>
</a>
</g>
</g>
<!-- Node27&#45;&gt;Node28 -->
<g id="edge35" class="edge"><title>Node27&#45;&gt;Node28</title>
<path fill="none" stroke="midnightblue" d="M963.554,-441.82C975.378,-432.145 990.286,-419.948 1000.2,-411.834"/>
<polygon fill="midnightblue" stroke="midnightblue" points="961.127,-439.283 955.604,-448.324 965.56,-444.7 961.127,-439.283"/>
</g>
<!-- Node29 -->
<g id="node27" class="node"><title>Node29</title>
<g id="a_node27"><a xlink:href="api_2schedule_8h.html" target="_top" xlink:title="ODP schedule. ">
<polygon fill="white" stroke="black" points="977,-112.5 977,-131.5 1045,-131.5 1045,-112.5 977,-112.5"/>
<text text-anchor="middle" x="1011" y="-119.5" font-family="Helvetica,sans-Serif" font-size="10.00">schedule.h</text>
</a>
</g>
</g>
<!-- Node28&#45;&gt;Node29 -->
<g id="edge36" class="edge"><title>Node28&#45;&gt;Node29</title>
<path fill="none" stroke="midnightblue" d="M1011,-382.251C1011,-360.357 1011,-323.052 1011,-291 1011,-291 1011,-291 1011,-233 1011,-195.188 1011,-150.064 1011,-131.558"/>
<polygon fill="midnightblue" stroke="midnightblue" points="1007.5,-382.442 1011,-392.442 1014.5,-382.442 1007.5,-382.442"/>
</g>
<!-- Node29&#45;&gt;Node16 -->
<g id="edge37" class="edge"><title>Node29&#45;&gt;Node16</title>
<path fill="none" stroke="midnightblue" d="M968.337,-109.871C928.874,-99.5758 871.117,-84.5088 835.628,-75.2508"/>
<polygon fill="midnightblue" stroke="midnightblue" points="967.641,-113.306 978.2,-112.444 969.408,-106.533 967.641,-113.306"/>
</g>
</g>
</svg>
