<?xml version="1.0" encoding="UTF-8" standalone="no"?>
<!DOCTYPE svg PUBLIC "-//W3C//DTD SVG 1.1//EN"
 "http://www.w3.org/Graphics/SVG/1.1/DTD/svg11.dtd">
<!-- Generated by graphviz version 2.38.0 (20140413.2041)
 -->
<!-- Title: support.h Pages: 1 -->
<svg width="590pt" height="812pt"
 viewBox="0.00 0.00 589.50 812.00" xmlns="http://www.w3.org/2000/svg" xmlns:xlink="http://www.w3.org/1999/xlink">
<g id="graph0" class="graph" transform="scale(1 1) rotate(0) translate(4 808)">
<title>support.h</title>
<polygon fill="white" stroke="none" points="-4,4 -4,-808 585.5,-808 585.5,4 -4,4"/>
<!-- Node3 -->
<g id="node1" class="node"><title>Node3</title>
<polygon fill="#bfbfbf" stroke="black" points="131,-784.5 131,-803.5 193,-803.5 193,-784.5 131,-784.5"/>
<text text-anchor="middle" x="162" y="-791.5" font-family="Helvetica,sans-Serif" font-size="10.00">support.h</text>
</g>
<!-- Node4 -->
<g id="node2" class="node"><title>Node4</title>
<g id="a_node2"><a xlink:href="support_8h.html" target="_top" xlink:title="ODP support API &#45; platform specific header. ">
<polygon fill="white" stroke="black" points="131,-728.5 131,-747.5 193,-747.5 193,-728.5 131,-728.5"/>
<text text-anchor="middle" x="162" y="-735.5" font-family="Helvetica,sans-Serif" font-size="10.00">support.h</text>
</a>
</g>
</g>
<!-- Node3&#45;&gt;Node4 -->
<g id="edge1" class="edge"><title>Node3&#45;&gt;Node4</title>
<path fill="none" stroke="midnightblue" d="M162,-773.805C162,-764.91 162,-754.78 162,-747.751"/>
<polygon fill="midnightblue" stroke="midnightblue" points="158.5,-774.083 162,-784.083 165.5,-774.083 158.5,-774.083"/>
</g>
<!-- Node5 -->
<g id="node3" class="node"><title>Node5</title>
<g id="a_node3"><a xlink:href="api_2spec_2classification_8h.html" target="_top" xlink:title="ODP classification descriptor. ">
<polygon fill="white" stroke="black" points="28,-280.5 28,-299.5 114,-299.5 114,-280.5 28,-280.5"/>
<text text-anchor="middle" x="71" y="-287.5" font-family="Helvetica,sans-Serif" font-size="10.00">classification.h</text>
</a>
</g>
</g>
<!-- Node4&#45;&gt;Node5 -->
<g id="edge2" class="edge"><title>Node4&#45;&gt;Node5</title>
<path fill="none" stroke="midnightblue" d="M142.996,-721.736C121.07,-702.274 88,-666.39 88,-627 88,-627 88,-627 88,-401 88,-362.932 77.933,-318.313 73.2927,-299.769"/>
<polygon fill="midnightblue" stroke="midnightblue" points="140.883,-724.534 150.761,-728.364 145.427,-719.21 140.883,-724.534"/>
</g>
<!-- Node7 -->
<g id="node5" class="node"><title>Node7</title>
<g id="a_node5"><a xlink:href="api_2spec_2ipsec_8h.html" target="_top" xlink:title="ODP IPSEC API. ">
<polygon fill="white" stroke="black" points="140,-168.5 140,-187.5 190,-187.5 190,-168.5 140,-168.5"/>
<text text-anchor="middle" x="165" y="-175.5" font-family="Helvetica,sans-Serif" font-size="10.00">ipsec.h</text>
</a>
</g>
</g>
<!-- Node4&#45;&gt;Node7 -->
<g id="edge16" class="edge"><title>Node4&#45;&gt;Node7</title>
<path fill="none" stroke="midnightblue" d="M156.509,-718.408C150.588,-696.685 142,-659.562 142,-627 142,-627 142,-627 142,-289 142,-250.565 155.62,-206.144 161.898,-187.711"/>
<polygon fill="midnightblue" stroke="midnightblue" points="153.207,-719.592 159.303,-728.258 159.942,-717.683 153.207,-719.592"/>
</g>
<!-- Node9 -->
<g id="node7" class="node"><title>Node9</title>
<g id="a_node7"><a xlink:href="odp__api_8h.html" target="_top" xlink:title="The OpenDataPlane API. ">
<polygon fill="white" stroke="black" points="256.5,-56.5 256.5,-75.5 319.5,-75.5 319.5,-56.5 256.5,-56.5"/>
<text text-anchor="middle" x="288" y="-63.5" font-family="Helvetica,sans-Serif" font-size="10.00">odp_api.h</text>
</a>
</g>
</g>
<!-- Node4&#45;&gt;Node9 -->
<g id="edge36" class="edge"><title>Node4&#45;&gt;Node9</title>
<path fill="none" stroke="midnightblue" d="M120.937,-728.079C72.9435,-714.953 0,-685.399 0,-627 0,-627 0,-627 0,-177 0,-122.607 181.541,-85.2459 256.355,-72.1583"/>
<polygon fill="midnightblue" stroke="midnightblue" points="120.206,-731.505 130.765,-730.635 121.968,-724.73 120.206,-731.505"/>
</g>
<!-- Node11 -->
<g id="node9" class="node"><title>Node11</title>
<g id="a_node9"><a xlink:href="api_2spec_2comp_8h.html" target="_top" xlink:title="ODP Compression. ">
<polygon fill="white" stroke="black" points="490.5,-616.5 490.5,-635.5 543.5,-635.5 543.5,-616.5 490.5,-616.5"/>
<text text-anchor="middle" x="517" y="-623.5" font-family="Helvetica,sans-Serif" font-size="10.00">comp.h</text>
</a>
</g>
</g>
<!-- Node4&#45;&gt;Node11 -->
<g id="edge9" class="edge"><title>Node4&#45;&gt;Node11</title>
<path fill="none" stroke="midnightblue" d="M203.323,-735.362C256.09,-732.056 349.375,-722.08 423,-692 457.347,-677.967 491.672,-649.752 507.68,-635.562"/>
<polygon fill="midnightblue" stroke="midnightblue" points="203.11,-731.869 193.328,-735.939 203.513,-738.857 203.11,-731.869"/>
</g>
<!-- Node13 -->
<g id="node11" class="node"><title>Node13</title>
<g id="a_node11"><a xlink:href="api_2spec_2crypto_8h.html" target="_top" xlink:title="ODP crypto. ">
<polygon fill="white" stroke="black" points="199,-504.5 199,-523.5 255,-523.5 255,-504.5 199,-504.5"/>
<text text-anchor="middle" x="227" y="-511.5" font-family="Helvetica,sans-Serif" font-size="10.00">crypto.h</text>
</a>
</g>
</g>
<!-- Node4&#45;&gt;Node13 -->
<g id="edge12" class="edge"><title>Node4&#45;&gt;Node13</title>
<path fill="none" stroke="midnightblue" d="M167.392,-718.585C180.699,-673.135 214.725,-556.924 224.399,-523.884"/>
<polygon fill="midnightblue" stroke="midnightblue" points="163.999,-717.717 164.548,-728.297 170.717,-719.684 163.999,-717.717"/>
</g>
<!-- Node15 -->
<g id="node13" class="node"><title>Node15</title>
<g id="a_node13"><a xlink:href="api_2spec_2schedule__types_8h.html" target="_top" xlink:title="ODP schedule types. ">
<polygon fill="white" stroke="black" points="314,-672.5 314,-691.5 414,-691.5 414,-672.5 314,-672.5"/>
<text text-anchor="middle" x="364" y="-679.5" font-family="Helvetica,sans-Serif" font-size="10.00">schedule_types.h</text>
</a>
</g>
</g>
<!-- Node4&#45;&gt;Node15 -->
<g id="edge17" class="edge"><title>Node4&#45;&gt;Node15</title>
<path fill="none" stroke="midnightblue" d="M202.894,-726.068C241.068,-715.863 297.248,-700.845 332.178,-691.507"/>
<polygon fill="midnightblue" stroke="midnightblue" points="201.877,-722.717 193.12,-728.681 203.685,-729.479 201.877,-722.717"/>
</g>
<!-- Node6 -->
<g id="node4" class="node"><title>Node6</title>
<g id="a_node4"><a xlink:href="api_2classification_8h.html" target="_top" xlink:title="ODP classification descriptor. ">
<polygon fill="white" stroke="black" points="28,-224.5 28,-243.5 114,-243.5 114,-224.5 28,-224.5"/>
<text text-anchor="middle" x="71" y="-231.5" font-family="Helvetica,sans-Serif" font-size="10.00">classification.h</text>
</a>
</g>
</g>
<!-- Node5&#45;&gt;Node6 -->
<g id="edge3" class="edge"><title>Node5&#45;&gt;Node6</title>
<path fill="none" stroke="midnightblue" d="M71,-269.805C71,-260.91 71,-250.78 71,-243.751"/>
<polygon fill="midnightblue" stroke="midnightblue" points="67.5001,-270.083 71,-280.083 74.5001,-270.083 67.5001,-270.083"/>
</g>
<!-- Node6&#45;&gt;Node7 -->
<g id="edge4" class="edge"><title>Node6&#45;&gt;Node7</title>
<path fill="none" stroke="midnightblue" d="M95.0616,-219.177C112.359,-209.241 135.148,-196.149 149.935,-187.655"/>
<polygon fill="midnightblue" stroke="midnightblue" points="93.0303,-216.308 86.1027,-224.324 96.5172,-222.378 93.0303,-216.308"/>
</g>
<!-- Node6&#45;&gt;Node9 -->
<g id="edge8" class="edge"><title>Node6&#45;&gt;Node9</title>
<path fill="none" stroke="midnightblue" d="M75.1231,-214.594C82.0406,-188 98.5331,-139.059 131,-112 166.939,-82.0468 221.772,-72.0112 256.213,-68.6614"/>
<polygon fill="midnightblue" stroke="midnightblue" points="71.6776,-213.952 72.7261,-224.495 78.4811,-215.599 71.6776,-213.952"/>
</g>
<!-- Node8 -->
<g id="node6" class="node"><title>Node8</title>
<g id="a_node6"><a xlink:href="api_2ipsec_8h.html" target="_top" xlink:title="ODP IPSEC API &#45; platform specific header. ">
<polygon fill="white" stroke="black" points="140,-112.5 140,-131.5 190,-131.5 190,-112.5 140,-112.5"/>
<text text-anchor="middle" x="165" y="-119.5" font-family="Helvetica,sans-Serif" font-size="10.00">ipsec.h</text>
</a>
</g>
</g>
<!-- Node7&#45;&gt;Node8 -->
<g id="edge5" class="edge"><title>Node7&#45;&gt;Node8</title>
<path fill="none" stroke="midnightblue" d="M165,-157.805C165,-148.91 165,-138.78 165,-131.751"/>
<polygon fill="midnightblue" stroke="midnightblue" points="161.5,-158.083 165,-168.083 168.5,-158.083 161.5,-158.083"/>
</g>
<!-- Node8&#45;&gt;Node9 -->
<g id="edge6" class="edge"><title>Node8&#45;&gt;Node9</title>
<path fill="none" stroke="midnightblue" d="M193.773,-108.368C216.807,-98.2553 248.484,-84.3486 268.601,-75.5164"/>
<polygon fill="midnightblue" stroke="midnightblue" points="192.239,-105.219 184.49,-112.444 195.053,-111.628 192.239,-105.219"/>
</g>
<!-- Node10 -->
<g id="node8" class="node"><title>Node10</title>
<g id="a_node8"><a xlink:href="odp_8h.html" target="_top" xlink:title="WARNING: THIS FILE IS DEPRECATED AND WILL BE REMOVED!!! ODP APPLICATIONS SHOULD NOW INCLUDE odp_api...">
<polygon fill="white" stroke="black" points="266,-0.5 266,-19.5 310,-19.5 310,-0.5 266,-0.5"/>
<text text-anchor="middle" x="288" y="-7.5" font-family="Helvetica,sans-Serif" font-size="10.00">odp.h</text>
</a>
</g>
</g>
<!-- Node9&#45;&gt;Node10 -->
<g id="edge7" class="edge"><title>Node9&#45;&gt;Node10</title>
<path fill="none" stroke="midnightblue" d="M288,-45.8045C288,-36.9102 288,-26.7798 288,-19.7511"/>
<polygon fill="midnightblue" stroke="midnightblue" points="284.5,-46.083 288,-56.083 291.5,-46.083 284.5,-46.083"/>
</g>
<!-- Node12 -->
<g id="node10" class="node"><title>Node12</title>
<g id="a_node10"><a xlink:href="api_2comp_8h.html" target="_top" xlink:title="ODP crypto. ">
<polygon fill="white" stroke="black" points="528.5,-560.5 528.5,-579.5 581.5,-579.5 581.5,-560.5 528.5,-560.5"/>
<text text-anchor="middle" x="555" y="-567.5" font-family="Helvetica,sans-Serif" font-size="10.00">comp.h</text>
</a>
</g>
</g>
<!-- Node11&#45;&gt;Node12 -->
<g id="edge10" class="edge"><title>Node11&#45;&gt;Node12</title>
<path fill="none" stroke="midnightblue" d="M529.065,-607.855C535.645,-598.505 543.511,-587.327 548.842,-579.751"/>
<polygon fill="midnightblue" stroke="midnightblue" points="526.168,-605.891 523.275,-616.083 531.892,-609.919 526.168,-605.891"/>
</g>
<!-- Node12&#45;&gt;Node9 -->
<g id="edge11" class="edge"><title>Node12&#45;&gt;Node9</title>
<path fill="none" stroke="midnightblue" d="M555.822,-550.255C556.711,-528.366 558,-491.064 558,-459 558,-459 558,-459 558,-177 558,-128.733 514.641,-132.619 471,-112 421.007,-88.3794 357.268,-76.3341 319.719,-70.8751"/>
<polygon fill="midnightblue" stroke="midnightblue" points="552.317,-550.306 555.392,-560.444 559.311,-550.601 552.317,-550.306"/>
</g>
<!-- Node14 -->
<g id="node12" class="node"><title>Node14</title>
<g id="a_node12"><a xlink:href="api_2crypto_8h.html" target="_top" xlink:title="ODP crypto. ">
<polygon fill="white" stroke="black" points="340,-336.5 340,-355.5 396,-355.5 396,-336.5 340,-336.5"/>
<text text-anchor="middle" x="368" y="-343.5" font-family="Helvetica,sans-Serif" font-size="10.00">crypto.h</text>
</a>
</g>
</g>
<!-- Node13&#45;&gt;Node14 -->
<g id="edge13" class="edge"><title>Node13&#45;&gt;Node14</title>
<path fill="none" stroke="midnightblue" d="M230.809,-494.277C236.925,-468.416 251.177,-421.611 279,-392 295.599,-374.335 320.66,-362.533 339.964,-355.464"/>
<polygon fill="midnightblue" stroke="midnightblue" points="227.344,-493.74 228.611,-504.258 234.18,-495.245 227.344,-493.74"/>
</g>
<!-- Node14&#45;&gt;Node7 -->
<g id="edge14" class="edge"><title>Node14&#45;&gt;Node7</title>
<path fill="none" stroke="midnightblue" d="M362.823,-326.515C358.153,-312.471 350.133,-293.357 338,-280 295.325,-233.017 225.574,-201.692 189.04,-187.577"/>
<polygon fill="midnightblue" stroke="midnightblue" points="359.599,-327.941 365.864,-336.484 366.294,-325.898 359.599,-327.941"/>
</g>
<!-- Node14&#45;&gt;Node9 -->
<g id="edge15" class="edge"><title>Node14&#45;&gt;Node9</title>
<path fill="none" stroke="midnightblue" d="M375.573,-326.88C383.866,-305.366 396,-268.21 396,-235 396,-235 396,-235 396,-177 396,-126.685 337.755,-90.9466 306.812,-75.5104"/>
<polygon fill="midnightblue" stroke="midnightblue" points="372.249,-325.767 371.776,-336.351 378.746,-328.372 372.249,-325.767"/>
</g>
<!-- Node16 -->
<g id="node14" class="node"><title>Node16</title>
<g id="a_node14"><a xlink:href="api_2schedule__types_8h.html" target="_top" xlink:title="ODP schedule. ">
<polygon fill="white" stroke="black" points="353,-616.5 353,-635.5 453,-635.5 453,-616.5 353,-616.5"/>
<text text-anchor="middle" x="403" y="-623.5" font-family="Helvetica,sans-Serif" font-size="10.00">schedule_types.h</text>
</a>
</g>
</g>
<!-- Node15&#45;&gt;Node16 -->
<g id="edge18" class="edge"><title>Node15&#45;&gt;Node16</title>
<path fill="none" stroke="midnightblue" d="M376.382,-663.855C383.135,-654.505 391.209,-643.327 396.68,-635.751"/>
<polygon fill="midnightblue" stroke="midnightblue" points="373.458,-661.927 370.44,-672.083 379.132,-666.025 373.458,-661.927"/>
</g>
<!-- Node17 -->
<g id="node15" class="node"><title>Node17</title>
<g id="a_node15"><a xlink:href="queue__types_8h.html" target="_top" xlink:title="ODP queue types. ">
<polygon fill="white" stroke="black" points="359.5,-560.5 359.5,-579.5 446.5,-579.5 446.5,-560.5 359.5,-560.5"/>
<text text-anchor="middle" x="403" y="-567.5" font-family="Helvetica,sans-Serif" font-size="10.00">queue_types.h</text>
</a>
</g>
</g>
<!-- Node16&#45;&gt;Node17 -->
<g id="edge19" class="edge"><title>Node16&#45;&gt;Node17</title>
<path fill="none" stroke="midnightblue" d="M403,-605.805C403,-596.91 403,-586.78 403,-579.751"/>
<polygon fill="midnightblue" stroke="midnightblue" points="399.5,-606.083 403,-616.083 406.5,-606.083 399.5,-606.083"/>
</g>
<!-- Node24 -->
<g id="node22" class="node"><title>Node24</title>
<g id="a_node22"><a xlink:href="api_2spec_2schedule_8h.html" target="_top" xlink:title="ODP schedule. ">
<polygon fill="white" stroke="black" points="462,-392.5 462,-411.5 530,-411.5 530,-392.5 462,-392.5"/>
<text text-anchor="middle" x="496" y="-399.5" font-family="Helvetica,sans-Serif" font-size="10.00">schedule.h</text>
</a>
</g>
</g>
<!-- Node16&#45;&gt;Node24 -->
<g id="edge35" class="edge"><title>Node16&#45;&gt;Node24</title>
<path fill="none" stroke="midnightblue" d="M425.501,-610.535C435.962,-602.702 447.68,-592.142 455,-580 489.526,-522.732 494.986,-438.929 495.843,-411.814"/>
<polygon fill="midnightblue" stroke="midnightblue" points="423.281,-607.819 417.134,-616.449 427.321,-613.535 423.281,-607.819"/>
</g>
<!-- Node18 -->
<g id="node16" class="node"><title>Node18</title>
<g id="a_node16"><a xlink:href="api_2spec_2queue_8h.html" target="_top" xlink:title="ODP queue. ">
<polygon fill="white" stroke="black" points="375,-504.5 375,-523.5 431,-523.5 431,-504.5 375,-504.5"/>
<text text-anchor="middle" x="403" y="-511.5" font-family="Helvetica,sans-Serif" font-size="10.00">queue.h</text>
</a>
</g>
</g>
<!-- Node17&#45;&gt;Node18 -->
<g id="edge20" class="edge"><title>Node17&#45;&gt;Node18</title>
<path fill="none" stroke="midnightblue" d="M403,-549.805C403,-540.91 403,-530.78 403,-523.751"/>
<polygon fill="midnightblue" stroke="midnightblue" points="399.5,-550.083 403,-560.083 406.5,-550.083 399.5,-550.083"/>
</g>
<!-- Node19 -->
<g id="node17" class="node"><title>Node19</title>
<g id="a_node17"><a xlink:href="api_2queue_8h.html" target="_top" xlink:title="ODP queue. ">
<polygon fill="white" stroke="black" points="375,-448.5 375,-467.5 431,-467.5 431,-448.5 375,-448.5"/>
<text text-anchor="middle" x="403" y="-455.5" font-family="Helvetica,sans-Serif" font-size="10.00">queue.h</text>
</a>
</g>
</g>
<!-- Node18&#45;&gt;Node19 -->
<g id="edge21" class="edge"><title>Node18&#45;&gt;Node19</title>
<path fill="none" stroke="midnightblue" d="M403,-493.805C403,-484.91 403,-474.78 403,-467.751"/>
<polygon fill="midnightblue" stroke="midnightblue" points="399.5,-494.083 403,-504.083 406.5,-494.083 399.5,-494.083"/>
</g>
<!-- Node19&#45;&gt;Node9 -->
<g id="edge34" class="edge"><title>Node19&#45;&gt;Node9</title>
<path fill="none" stroke="midnightblue" d="M411.259,-439.253C420.442,-417.86 434,-380.59 434,-347 434,-347 434,-347 434,-177 434,-120.192 362.62,-89.0468 319.68,-75.4503"/>
<polygon fill="midnightblue" stroke="midnightblue" points="408.059,-437.835 407.181,-448.393 414.452,-440.687 408.059,-437.835"/>
</g>
<!-- Node19&#45;&gt;Node14 -->
<g id="edge22" class="edge"><title>Node19&#45;&gt;Node14</title>
<path fill="none" stroke="midnightblue" d="M397.169,-438.674C389.517,-414.625 376.396,-373.388 370.734,-355.591"/>
<polygon fill="midnightblue" stroke="midnightblue" points="393.886,-439.9 400.254,-448.368 400.557,-437.778 393.886,-439.9"/>
</g>
<!-- Node20 -->
<g id="node18" class="node"><title>Node20</title>
<g id="a_node18"><a xlink:href="api_2spec_2packet__io_8h.html" target="_top" xlink:title="ODP Packet IO. ">
<polygon fill="white" stroke="black" points="288.5,-392.5 288.5,-411.5 359.5,-411.5 359.5,-392.5 288.5,-392.5"/>
<text text-anchor="middle" x="324" y="-399.5" font-family="Helvetica,sans-Serif" font-size="10.00">packet_io.h</text>
</a>
</g>
</g>
<!-- Node19&#45;&gt;Node20 -->
<g id="edge23" class="edge"><title>Node19&#45;&gt;Node20</title>
<path fill="none" stroke="midnightblue" d="M381.966,-442.622C367.534,-432.757 348.859,-419.992 336.661,-411.655"/>
<polygon fill="midnightblue" stroke="midnightblue" points="380.077,-445.57 390.307,-448.324 384.027,-439.791 380.077,-445.57"/>
</g>
<!-- Node19&#45;&gt;Node24 -->
<g id="edge31" class="edge"><title>Node19&#45;&gt;Node24</title>
<path fill="none" stroke="midnightblue" d="M426.806,-443.177C443.919,-433.241 466.465,-420.149 481.095,-411.655"/>
<polygon fill="midnightblue" stroke="midnightblue" points="424.832,-440.276 417.942,-448.324 428.347,-446.329 424.832,-440.276"/>
</g>
<!-- Node21 -->
<g id="node19" class="node"><title>Node21</title>
<g id="a_node19"><a xlink:href="api_2packet__io_8h.html" target="_top" xlink:title="ODP Packet IO. ">
<polygon fill="white" stroke="black" points="182.5,-336.5 182.5,-355.5 253.5,-355.5 253.5,-336.5 182.5,-336.5"/>
<text text-anchor="middle" x="218" y="-343.5" font-family="Helvetica,sans-Serif" font-size="10.00">packet_io.h</text>
</a>
</g>
</g>
<!-- Node20&#45;&gt;Node21 -->
<g id="edge24" class="edge"><title>Node20&#45;&gt;Node21</title>
<path fill="none" stroke="midnightblue" d="M297.944,-387.726C278.316,-377.727 251.972,-364.307 234.988,-355.655"/>
<polygon fill="midnightblue" stroke="midnightblue" points="296.47,-390.903 306.969,-392.324 299.648,-384.666 296.47,-390.903"/>
</g>
<!-- Node21&#45;&gt;Node5 -->
<g id="edge25" class="edge"><title>Node21&#45;&gt;Node5</title>
<path fill="none" stroke="midnightblue" d="M185.077,-332.906C157.44,-322.754 118.656,-308.506 94.1836,-299.516"/>
<polygon fill="midnightblue" stroke="midnightblue" points="184.114,-336.281 194.707,-336.444 186.528,-329.71 184.114,-336.281"/>
</g>
<!-- Node21&#45;&gt;Node7 -->
<g id="edge26" class="edge"><title>Node21&#45;&gt;Node7</title>
<path fill="none" stroke="midnightblue" d="M212.06,-326.395C200.627,-290.585 175.965,-213.342 167.736,-187.568"/>
<polygon fill="midnightblue" stroke="midnightblue" points="208.775,-327.613 215.15,-336.075 215.443,-325.484 208.775,-327.613"/>
</g>
<!-- Node21&#45;&gt;Node9 -->
<g id="edge30" class="edge"><title>Node21&#45;&gt;Node9</title>
<path fill="none" stroke="midnightblue" d="M218,-326.251C218,-304.357 218,-267.052 218,-235 218,-235 218,-235 218,-177 218,-133.086 258.2,-92.5583 277.671,-75.5036"/>
<polygon fill="midnightblue" stroke="midnightblue" points="214.5,-326.442 218,-336.442 221.5,-326.442 214.5,-326.442"/>
</g>
<!-- Node22 -->
<g id="node20" class="node"><title>Node22</title>
<g id="a_node20"><a xlink:href="api_2spec_2traffic__mngr_8h.html" target="_top" xlink:title="Copyright (c) 2015&#45;2018, Linaro Limited All rights reserved. ">
<polygon fill="white" stroke="black" points="246.5,-280.5 246.5,-299.5 329.5,-299.5 329.5,-280.5 246.5,-280.5"/>
<text text-anchor="middle" x="288" y="-287.5" font-family="Helvetica,sans-Serif" font-size="10.00">traffic_mngr.h</text>
</a>
</g>
</g>
<!-- Node21&#45;&gt;Node22 -->
<g id="edge27" class="edge"><title>Node21&#45;&gt;Node22</title>
<path fill="none" stroke="midnightblue" d="M237.314,-330.101C249.912,-320.382 265.928,-308.027 276.549,-299.834"/>
<polygon fill="midnightblue" stroke="midnightblue" points="235.027,-327.445 229.247,-336.324 239.302,-332.987 235.027,-327.445"/>
</g>
<!-- Node23 -->
<g id="node21" class="node"><title>Node23</title>
<g id="a_node21"><a xlink:href="api_2traffic__mngr_8h.html" target="_top" xlink:title="ODP Traffic manager. ">
<polygon fill="white" stroke="black" points="246.5,-168.5 246.5,-187.5 329.5,-187.5 329.5,-168.5 246.5,-168.5"/>
<text text-anchor="middle" x="288" y="-175.5" font-family="Helvetica,sans-Serif" font-size="10.00">traffic_mngr.h</text>
</a>
</g>
</g>
<!-- Node22&#45;&gt;Node23 -->
<g id="edge28" class="edge"><title>Node22&#45;&gt;Node23</title>
<path fill="none" stroke="midnightblue" d="M288,-270.348C288,-246.254 288,-205.308 288,-187.591"/>
<polygon fill="midnightblue" stroke="midnightblue" points="284.5,-270.368 288,-280.368 291.5,-270.369 284.5,-270.368"/>
</g>
<!-- Node23&#45;&gt;Node9 -->
<g id="edge29" class="edge"><title>Node23&#45;&gt;Node9</title>
<path fill="none" stroke="midnightblue" d="M288,-158.348C288,-134.254 288,-93.3079 288,-75.5914"/>
<polygon fill="midnightblue" stroke="midnightblue" points="284.5,-158.368 288,-168.368 291.5,-158.369 284.5,-158.368"/>
</g>
<!-- Node25 -->
<g id="node23" class="node"><title>Node25</title>
<g id="a_node23"><a xlink:href="api_2schedule_8h.html" target="_top" xlink:title="ODP schedule. ">
<polygon fill="white" stroke="black" points="462,-224.5 462,-243.5 530,-243.5 530,-224.5 462,-224.5"/>
<text text-anchor="middle" x="496" y="-231.5" font-family="Helvetica,sans-Serif" font-size="10.00">schedule.h</text>
</a>
</g>
</g>
<!-- Node24&#45;&gt;Node25 -->
<g id="edge32" class="edge"><title>Node24&#45;&gt;Node25</title>
<path fill="none" stroke="midnightblue" d="M496,-381.93C496,-345.92 496,-269.231 496,-243.568"/>
<polygon fill="midnightblue" stroke="midnightblue" points="492.5,-382.075 496,-392.075 499.5,-382.075 492.5,-382.075"/>
</g>
<!-- Node25&#45;&gt;Node9 -->
<g id="edge33" class="edge"><title>Node25&#45;&gt;Node9</title>
<path fill="none" stroke="midnightblue" d="M493.766,-214.264C489.59,-187.655 478.109,-139.144 448,-112 412.209,-79.7334 355.025,-70.4148 319.591,-67.8353"/>
<polygon fill="midnightblue" stroke="midnightblue" points="490.303,-214.774 495.141,-224.2 497.237,-213.815 490.303,-214.774"/>
</g>
</g>
</svg>
