<?xml version="1.0" encoding="UTF-8" standalone="no"?>
<!DOCTYPE svg PUBLIC "-//W3C//DTD SVG 1.1//EN"
 "http://www.w3.org/Graphics/SVG/1.1/DTD/svg11.dtd">
<!-- Generated by graphviz version 2.38.0 (20140413.2041)
 -->
<!-- Title: packet_io_stats.h Pages: 1 -->
<svg width="272pt" height="532pt"
 viewBox="0.00 0.00 271.50 532.00" xmlns="http://www.w3.org/2000/svg" xmlns:xlink="http://www.w3.org/1999/xlink">
<g id="graph0" class="graph" transform="scale(1 1) rotate(0) translate(4 528)">
<title>packet_io_stats.h</title>
<polygon fill="white" stroke="none" points="-4,4 -4,-528 267.5,-528 267.5,4 -4,4"/>
<!-- Node3 -->
<g id="node1" class="node"><title>Node3</title>
<polygon fill="#bfbfbf" stroke="black" points="82.5,-504.5 82.5,-523.5 183.5,-523.5 183.5,-504.5 82.5,-504.5"/>
<text text-anchor="middle" x="133" y="-511.5" font-family="Helvetica,sans-Serif" font-size="10.00">packet_io_stats.h</text>
</g>
<!-- Node4 -->
<g id="node2" class="node"><title>Node4</title>
<g id="a_node2"><a xlink:href="packet__io__stats_8h.html" target="_top" xlink:title="ODP packet IO stats. ">
<polygon fill="white" stroke="black" points="82.5,-448.5 82.5,-467.5 183.5,-467.5 183.5,-448.5 82.5,-448.5"/>
<text text-anchor="middle" x="133" y="-455.5" font-family="Helvetica,sans-Serif" font-size="10.00">packet_io_stats.h</text>
</a>
</g>
</g>
<!-- Node3&#45;&gt;Node4 -->
<g id="edge1" class="edge"><title>Node3&#45;&gt;Node4</title>
<path fill="none" stroke="midnightblue" d="M133,-493.805C133,-484.91 133,-474.78 133,-467.751"/>
<polygon fill="midnightblue" stroke="midnightblue" points="129.5,-494.083 133,-504.083 136.5,-494.083 129.5,-494.083"/>
</g>
<!-- Node5 -->
<g id="node3" class="node"><title>Node5</title>
<g id="a_node3"><a xlink:href="api_2spec_2packet__io_8h.html" target="_top" xlink:title="ODP Packet IO. ">
<polygon fill="white" stroke="black" points="97.5,-392.5 97.5,-411.5 168.5,-411.5 168.5,-392.5 97.5,-392.5"/>
<text text-anchor="middle" x="133" y="-399.5" font-family="Helvetica,sans-Serif" font-size="10.00">packet_io.h</text>
</a>
</g>
</g>
<!-- Node4&#45;&gt;Node5 -->
<g id="edge2" class="edge"><title>Node4&#45;&gt;Node5</title>
<path fill="none" stroke="midnightblue" d="M133,-437.805C133,-428.91 133,-418.78 133,-411.751"/>
<polygon fill="midnightblue" stroke="midnightblue" points="129.5,-438.083 133,-448.083 136.5,-438.083 129.5,-438.083"/>
</g>
<!-- Node6 -->
<g id="node4" class="node"><title>Node6</title>
<g id="a_node4"><a xlink:href="api_2packet__io_8h.html" target="_top" xlink:title="ODP Packet IO. ">
<polygon fill="white" stroke="black" points="97.5,-336.5 97.5,-355.5 168.5,-355.5 168.5,-336.5 97.5,-336.5"/>
<text text-anchor="middle" x="133" y="-343.5" font-family="Helvetica,sans-Serif" font-size="10.00">packet_io.h</text>
</a>
</g>
</g>
<!-- Node5&#45;&gt;Node6 -->
<g id="edge3" class="edge"><title>Node5&#45;&gt;Node6</title>
<path fill="none" stroke="midnightblue" d="M133,-381.805C133,-372.91 133,-362.78 133,-355.751"/>
<polygon fill="midnightblue" stroke="midnightblue" points="129.5,-382.083 133,-392.083 136.5,-382.083 129.5,-382.083"/>
</g>
<!-- Node7 -->
<g id="node5" class="node"><title>Node7</title>
<g id="a_node5"><a xlink:href="api_2spec_2classification_8h.html" target="_top" xlink:title="ODP classification descriptor. ">
<polygon fill="white" stroke="black" points="0,-280.5 0,-299.5 86,-299.5 86,-280.5 0,-280.5"/>
<text text-anchor="middle" x="43" y="-287.5" font-family="Helvetica,sans-Serif" font-size="10.00">classification.h</text>
</a>
</g>
</g>
<!-- Node6&#45;&gt;Node7 -->
<g id="edge4" class="edge"><title>Node6&#45;&gt;Node7</title>
<path fill="none" stroke="midnightblue" d="M109.962,-331.177C93.4011,-321.241 71.582,-308.149 57.4242,-299.655"/>
<polygon fill="midnightblue" stroke="midnightblue" points="108.164,-334.18 118.54,-336.324 111.766,-328.178 108.164,-334.18"/>
</g>
<!-- Node9 -->
<g id="node7" class="node"><title>Node9</title>
<g id="a_node7"><a xlink:href="api_2spec_2ipsec_8h.html" target="_top" xlink:title="ODP IPSEC API. ">
<polygon fill="white" stroke="black" points="74,-168.5 74,-187.5 124,-187.5 124,-168.5 74,-168.5"/>
<text text-anchor="middle" x="99" y="-175.5" font-family="Helvetica,sans-Serif" font-size="10.00">ipsec.h</text>
</a>
</g>
</g>
<!-- Node6&#45;&gt;Node9 -->
<g id="edge11" class="edge"><title>Node6&#45;&gt;Node9</title>
<path fill="none" stroke="midnightblue" d="M129.094,-325.93C121.719,-289.92 106.011,-213.231 100.755,-187.568"/>
<polygon fill="midnightblue" stroke="midnightblue" points="125.737,-326.981 131.172,-336.075 132.594,-325.576 125.737,-326.981"/>
</g>
<!-- Node11 -->
<g id="node9" class="node"><title>Node11</title>
<g id="a_node9"><a xlink:href="odp__api_8h.html" target="_top" xlink:title="The OpenDataPlane API. ">
<polygon fill="white" stroke="black" points="93.5,-56.5 93.5,-75.5 156.5,-75.5 156.5,-56.5 93.5,-56.5"/>
<text text-anchor="middle" x="125" y="-63.5" font-family="Helvetica,sans-Serif" font-size="10.00">odp_api.h</text>
</a>
</g>
</g>
<!-- Node6&#45;&gt;Node11 -->
<g id="edge15" class="edge"><title>Node6&#45;&gt;Node11</title>
<path fill="none" stroke="midnightblue" d="M138.216,-326.39C143.841,-304.65 152,-267.511 152,-235 152,-235 152,-235 152,-177 152,-138.262 136.011,-94.0045 128.641,-75.6622"/>
<polygon fill="midnightblue" stroke="midnightblue" points="134.782,-325.683 135.562,-336.249 141.541,-327.502 134.782,-325.683"/>
</g>
<!-- Node13 -->
<g id="node11" class="node"><title>Node13</title>
<g id="a_node11"><a xlink:href="api_2spec_2traffic__mngr_8h.html" target="_top" xlink:title="Copyright (c) 2015&#45;2018, Linaro Limited All rights reserved. ">
<polygon fill="white" stroke="black" points="180.5,-224.5 180.5,-243.5 263.5,-243.5 263.5,-224.5 180.5,-224.5"/>
<text text-anchor="middle" x="222" y="-231.5" font-family="Helvetica,sans-Serif" font-size="10.00">traffic_mngr.h</text>
</a>
</g>
</g>
<!-- Node6&#45;&gt;Node13 -->
<g id="edge12" class="edge"><title>Node6&#45;&gt;Node13</title>
<path fill="none" stroke="midnightblue" d="M146.281,-328.586C165.468,-304.871 200.26,-261.869 215.049,-243.591"/>
<polygon fill="midnightblue" stroke="midnightblue" points="143.553,-326.393 139.984,-336.368 148.995,-330.796 143.553,-326.393"/>
</g>
<!-- Node8 -->
<g id="node6" class="node"><title>Node8</title>
<g id="a_node6"><a xlink:href="api_2classification_8h.html" target="_top" xlink:title="ODP classification descriptor. ">
<polygon fill="white" stroke="black" points="0,-224.5 0,-243.5 86,-243.5 86,-224.5 0,-224.5"/>
<text text-anchor="middle" x="43" y="-231.5" font-family="Helvetica,sans-Serif" font-size="10.00">classification.h</text>
</a>
</g>
</g>
<!-- Node7&#45;&gt;Node8 -->
<g id="edge5" class="edge"><title>Node7&#45;&gt;Node8</title>
<path fill="none" stroke="midnightblue" d="M43,-269.805C43,-260.91 43,-250.78 43,-243.751"/>
<polygon fill="midnightblue" stroke="midnightblue" points="39.5001,-270.083 43,-280.083 46.5001,-270.083 39.5001,-270.083"/>
</g>
<!-- Node8&#45;&gt;Node9 -->
<g id="edge6" class="edge"><title>Node8&#45;&gt;Node9</title>
<path fill="none" stroke="midnightblue" d="M59.3299,-217.253C69.265,-207.673 81.5875,-195.791 89.8389,-187.834"/>
<polygon fill="midnightblue" stroke="midnightblue" points="56.7664,-214.863 51.9974,-224.324 61.6253,-219.902 56.7664,-214.863"/>
</g>
<!-- Node8&#45;&gt;Node11 -->
<g id="edge10" class="edge"><title>Node8&#45;&gt;Node11</title>
<path fill="none" stroke="midnightblue" d="M42.3147,-214.318C42.2527,-189.19 45.2395,-143.973 65,-112 75.1313,-95.6073 93.602,-83.1283 107.383,-75.5168"/>
<polygon fill="midnightblue" stroke="midnightblue" points="38.8155,-214.399 42.5084,-224.33 45.8142,-214.264 38.8155,-214.399"/>
</g>
<!-- Node10 -->
<g id="node8" class="node"><title>Node10</title>
<g id="a_node8"><a xlink:href="api_2ipsec_8h.html" target="_top" xlink:title="ODP IPSEC API &#45; platform specific header. ">
<polygon fill="white" stroke="black" points="74,-112.5 74,-131.5 124,-131.5 124,-112.5 74,-112.5"/>
<text text-anchor="middle" x="99" y="-119.5" font-family="Helvetica,sans-Serif" font-size="10.00">ipsec.h</text>
</a>
</g>
</g>
<!-- Node9&#45;&gt;Node10 -->
<g id="edge7" class="edge"><title>Node9&#45;&gt;Node10</title>
<path fill="none" stroke="midnightblue" d="M99,-157.805C99,-148.91 99,-138.78 99,-131.751"/>
<polygon fill="midnightblue" stroke="midnightblue" points="95.5001,-158.083 99,-168.083 102.5,-158.083 95.5001,-158.083"/>
</g>
<!-- Node10&#45;&gt;Node11 -->
<g id="edge8" class="edge"><title>Node10&#45;&gt;Node11</title>
<path fill="none" stroke="midnightblue" d="M107.675,-102.983C112.088,-93.8168 117.252,-83.0922 120.787,-75.7511"/>
<polygon fill="midnightblue" stroke="midnightblue" points="104.478,-101.555 103.293,-112.083 110.785,-104.591 104.478,-101.555"/>
</g>
<!-- Node12 -->
<g id="node10" class="node"><title>Node12</title>
<g id="a_node10"><a xlink:href="odp_8h.html" target="_top" xlink:title="WARNING: THIS FILE IS DEPRECATED AND WILL BE REMOVED!!! ODP APPLICATIONS SHOULD NOW INCLUDE odp_api...">
<polygon fill="white" stroke="black" points="103,-0.5 103,-19.5 147,-19.5 147,-0.5 103,-0.5"/>
<text text-anchor="middle" x="125" y="-7.5" font-family="Helvetica,sans-Serif" font-size="10.00">odp.h</text>
</a>
</g>
</g>
<!-- Node11&#45;&gt;Node12 -->
<g id="edge9" class="edge"><title>Node11&#45;&gt;Node12</title>
<path fill="none" stroke="midnightblue" d="M125,-45.8045C125,-36.9102 125,-26.7798 125,-19.7511"/>
<polygon fill="midnightblue" stroke="midnightblue" points="121.5,-46.083 125,-56.083 128.5,-46.083 121.5,-46.083"/>
</g>
<!-- Node14 -->
<g id="node12" class="node"><title>Node14</title>
<g id="a_node12"><a xlink:href="api_2traffic__mngr_8h.html" target="_top" xlink:title="ODP Traffic manager. ">
<polygon fill="white" stroke="black" points="180.5,-168.5 180.5,-187.5 263.5,-187.5 263.5,-168.5 180.5,-168.5"/>
<text text-anchor="middle" x="222" y="-175.5" font-family="Helvetica,sans-Serif" font-size="10.00">traffic_mngr.h</text>
</a>
</g>
</g>
<!-- Node13&#45;&gt;Node14 -->
<g id="edge13" class="edge"><title>Node13&#45;&gt;Node14</title>
<path fill="none" stroke="midnightblue" d="M222,-213.805C222,-204.91 222,-194.78 222,-187.751"/>
<polygon fill="midnightblue" stroke="midnightblue" points="218.5,-214.083 222,-224.083 225.5,-214.083 218.5,-214.083"/>
</g>
<!-- Node14&#45;&gt;Node11 -->
<g id="edge14" class="edge"><title>Node14&#45;&gt;Node11</title>
<path fill="none" stroke="midnightblue" d="M207.859,-160.33C196.612,-147.134 180.423,-128.279 166,-112 154.646,-99.1849 141.243,-84.5686 132.931,-75.5625"/>
<polygon fill="midnightblue" stroke="midnightblue" points="205.324,-162.751 214.469,-168.101 210.656,-158.216 205.324,-162.751"/>
</g>
</g>
</svg>
