<?xml version="1.0" encoding="UTF-8" standalone="no"?>
<!DOCTYPE svg PUBLIC "-//W3C//DTD SVG 1.1//EN"
 "http://www.w3.org/Graphics/SVG/1.1/DTD/svg11.dtd">
<!-- Generated by graphviz version 2.38.0 (20140413.2041)
 -->
<!-- Title: odp_comp_packet_op_param_t Pages: 1 -->
<svg width="300pt" height="117pt"
 viewBox="0.00 0.00 300.00 117.00" xmlns="http://www.w3.org/2000/svg" xmlns:xlink="http://www.w3.org/1999/xlink">
<g id="graph0" class="graph" transform="scale(1 1) rotate(0) translate(4 113)">
<title>odp_comp_packet_op_param_t</title>
<polygon fill="white" stroke="none" points="-4,4 -4,-113 296,-113 296,4 -4,4"/>
<!-- Node1 -->
<g id="node1" class="node"><title>Node1</title>
<polygon fill="#bfbfbf" stroke="black" points="87,-0.5 87,-30.5 209,-30.5 209,-0.5 87,-0.5"/>
<text text-anchor="start" x="95" y="-18.5" font-family="Helvetica,sans-Serif" font-size="10.00">odp_comp_packet_op</text>
<text text-anchor="middle" x="148" y="-7.5" font-family="Helvetica,sans-Serif" font-size="10.00">_param_t</text>
</g>
<!-- Node2 -->
<g id="node2" class="node"><title>Node2</title>
<g id="a_node2"><a xlink:href="struct__odp__abi__comp__session__t.html" target="_top" xlink:title="_odp_abi_comp_session_t">
<polygon fill="white" stroke="black" points="0,-89.5 0,-108.5 142,-108.5 142,-89.5 0,-89.5"/>
<text text-anchor="middle" x="71" y="-96.5" font-family="Helvetica,sans-Serif" font-size="10.00">_odp_abi_comp_session_t</text>
</a>
</g>
</g>
<!-- Node2&#45;&gt;Node1 -->
<g id="edge1" class="edge"><title>Node2&#45;&gt;Node1</title>
<path fill="none" stroke="#9a32cd" stroke-dasharray="5,2" d="M86.3201,-81.7846C100.452,-66.8264 121.223,-44.8419 134.681,-30.5974"/>
<polygon fill="#9a32cd" stroke="#9a32cd" points="83.5638,-79.6055 79.2403,-89.2781 88.652,-84.4128 83.5638,-79.6055"/>
<text text-anchor="middle" x="137" y="-57.5" font-family="Helvetica,sans-Serif" font-size="10.00"> session</text>
</g>
<!-- Node3 -->
<g id="node3" class="node"><title>Node3</title>
<g id="a_node3"><a xlink:href="structodp__packet__data__range.html" target="_top" xlink:title="Packet API data range specifier. ">
<polygon fill="white" stroke="black" points="160,-89.5 160,-108.5 292,-108.5 292,-89.5 160,-89.5"/>
<text text-anchor="middle" x="226" y="-96.5" font-family="Helvetica,sans-Serif" font-size="10.00">odp_packet_data_range</text>
</a>
</g>
</g>
<!-- Node3&#45;&gt;Node1 -->
<g id="edge2" class="edge"><title>Node3&#45;&gt;Node1</title>
<path fill="none" stroke="#9a32cd" stroke-dasharray="5,2" d="M210.481,-81.7846C196.165,-66.8264 175.125,-44.8419 161.492,-30.5974"/>
<polygon fill="#9a32cd" stroke="#9a32cd" points="208.21,-84.4735 217.653,-89.2781 213.267,-79.6336 208.21,-84.4735"/>
<text text-anchor="middle" x="236" y="-63" font-family="Helvetica,sans-Serif" font-size="10.00"> in_data_range</text>
<text text-anchor="middle" x="236" y="-52" font-family="Helvetica,sans-Serif" font-size="10.00">out_data_range</text>
</g>
</g>
</svg>
