<?xml version="1.0" encoding="UTF-8" standalone="no"?>
<!DOCTYPE svg PUBLIC "-//W3C//DTD SVG 1.1//EN"
 "http://www.w3.org/Graphics/SVG/1.1/DTD/svg11.dtd">
<!-- Generated by graphviz version 2.38.0 (20140413.2041)
 -->
<!-- Title: odp_pktio_capability_t Pages: 1 -->
<svg width="448pt" height="162pt"
 viewBox="0.00 0.00 448.00 162.00" xmlns="http://www.w3.org/2000/svg" xmlns:xlink="http://www.w3.org/1999/xlink">
<g id="graph0" class="graph" transform="scale(1 1) rotate(0) translate(4 158)">
<title>odp_pktio_capability_t</title>
<polygon fill="white" stroke="none" points="-4,4 -4,-158 444,-158 444,4 -4,4"/>
<!-- Node1 -->
<g id="node1" class="node"><title>Node1</title>
<polygon fill="#bfbfbf" stroke="black" points="83,-0.5 83,-19.5 205,-19.5 205,-0.5 83,-0.5"/>
<text text-anchor="middle" x="144" y="-7.5" font-family="Helvetica,sans-Serif" font-size="10.00">odp_pktio_capability_t</text>
</g>
<!-- Node2 -->
<g id="node2" class="node"><title>Node2</title>
<g id="a_node2"><a xlink:href="unionodp__pktio__set__op__t.html" target="_top" xlink:title="Packet IO set operations. ">
<polygon fill="white" stroke="black" points="43,-67.5 43,-86.5 153,-86.5 153,-67.5 43,-67.5"/>
<text text-anchor="middle" x="98" y="-74.5" font-family="Helvetica,sans-Serif" font-size="10.00">odp_pktio_set_op_t</text>
</a>
</g>
</g>
<!-- Node2&#45;&gt;Node1 -->
<g id="edge1" class="edge"><title>Node2&#45;&gt;Node1</title>
<path fill="none" stroke="#9a32cd" stroke-dasharray="5,2" d="M110.099,-58.9037C119.038,-46.2729 130.834,-29.6041 137.895,-19.6273"/>
<polygon fill="#9a32cd" stroke="#9a32cd" points="107.124,-57.0492 104.204,-67.2338 112.837,-61.0929 107.124,-57.0492"/>
<text text-anchor="middle" x="142" y="-41" font-family="Helvetica,sans-Serif" font-size="10.00"> set_op</text>
</g>
<!-- Node3 -->
<g id="node3" class="node"><title>Node3</title>
<g id="a_node3"><a xlink:href="structodp__pktio__config__t.html" target="_top" xlink:title="Packet IO configuration options. ">
<polygon fill="white" stroke="black" points="171,-67.5 171,-86.5 277,-86.5 277,-67.5 171,-67.5"/>
<text text-anchor="middle" x="224" y="-74.5" font-family="Helvetica,sans-Serif" font-size="10.00">odp_pktio_config_t</text>
</a>
</g>
</g>
<!-- Node3&#45;&gt;Node1 -->
<g id="edge2" class="edge"><title>Node3&#45;&gt;Node1</title>
<path fill="none" stroke="#9a32cd" stroke-dasharray="5,2" d="M205.186,-60.7134C189.424,-47.907 167.493,-30.0884 154.618,-19.6273"/>
<polygon fill="#9a32cd" stroke="#9a32cd" points="203.243,-63.6443 213.211,-67.2338 207.657,-58.2114 203.243,-63.6443"/>
<text text-anchor="middle" x="205" y="-41" font-family="Helvetica,sans-Serif" font-size="10.00"> config</text>
</g>
<!-- Node4 -->
<g id="node4" class="node"><title>Node4</title>
<g id="a_node4"><a xlink:href="structodp__pktio__parser__config__t.html" target="_top" xlink:title="Parser configuration. ">
<polygon fill="white" stroke="black" points="0,-134.5 0,-153.5 142,-153.5 142,-134.5 0,-134.5"/>
<text text-anchor="middle" x="71" y="-141.5" font-family="Helvetica,sans-Serif" font-size="10.00">odp_pktio_parser_config_t</text>
</a>
</g>
</g>
<!-- Node4&#45;&gt;Node3 -->
<g id="edge3" class="edge"><title>Node4&#45;&gt;Node3</title>
<path fill="none" stroke="#9a32cd" stroke-dasharray="5,2" d="M100.544,-130.448C130.838,-117.579 177.151,-97.9032 203.599,-86.6672"/>
<polygon fill="#9a32cd" stroke="#9a32cd" points="99.1525,-127.237 91.3172,-134.369 101.89,-133.68 99.1525,-127.237"/>
<text text-anchor="middle" x="174" y="-108" font-family="Helvetica,sans-Serif" font-size="10.00"> parser</text>
</g>
<!-- Node5 -->
<g id="node5" class="node"><title>Node5</title>
<g id="a_node5"><a xlink:href="unionodp__pktin__config__opt__t.html" target="_top" xlink:title="Packet input configuration options bit field. ">
<polygon fill="white" stroke="black" points="160.5,-134.5 160.5,-153.5 287.5,-153.5 287.5,-134.5 160.5,-134.5"/>
<text text-anchor="middle" x="224" y="-141.5" font-family="Helvetica,sans-Serif" font-size="10.00">odp_pktin_config_opt_t</text>
</a>
</g>
</g>
<!-- Node5&#45;&gt;Node3 -->
<g id="edge4" class="edge"><title>Node5&#45;&gt;Node3</title>
<path fill="none" stroke="#9a32cd" stroke-dasharray="5,2" d="M224,-124.037C224,-111.67 224,-96.1198 224,-86.6273"/>
<polygon fill="#9a32cd" stroke="#9a32cd" points="220.5,-124.234 224,-134.234 227.5,-124.234 220.5,-124.234"/>
<text text-anchor="middle" x="237.5" y="-108" font-family="Helvetica,sans-Serif" font-size="10.00"> pktin</text>
</g>
<!-- Node6 -->
<g id="node6" class="node"><title>Node6</title>
<g id="a_node6"><a xlink:href="unionodp__pktout__config__opt__t.html" target="_top" xlink:title="Packet output configuration options bit field. ">
<polygon fill="white" stroke="black" points="306,-134.5 306,-153.5 440,-153.5 440,-134.5 306,-134.5"/>
<text text-anchor="middle" x="373" y="-141.5" font-family="Helvetica,sans-Serif" font-size="10.00">odp_pktout_config_opt_t</text>
</a>
</g>
</g>
<!-- Node6&#45;&gt;Node3 -->
<g id="edge5" class="edge"><title>Node6&#45;&gt;Node3</title>
<path fill="none" stroke="#9a32cd" stroke-dasharray="5,2" d="M343.844,-130.281C314.336,-117.409 269.513,-97.8545 243.868,-86.6672"/>
<polygon fill="#9a32cd" stroke="#9a32cd" points="342.649,-133.578 353.214,-134.369 345.448,-127.162 342.649,-133.578"/>
<text text-anchor="middle" x="324" y="-108" font-family="Helvetica,sans-Serif" font-size="10.00"> pktout</text>
</g>
</g>
</svg>
