<?xml version="1.0" encoding="UTF-8" standalone="no"?>
<!DOCTYPE svg PUBLIC "-//W3C//DTD SVG 1.1//EN"
 "http://www.w3.org/Graphics/SVG/1.1/DTD/svg11.dtd">
<!-- Generated by graphviz version 2.38.0 (20140413.2041)
 -->
<!-- Title: odp_tm_egress_t Pages: 1 -->
<svg width="229pt" height="95pt"
 viewBox="0.00 0.00 228.50 95.00" xmlns="http://www.w3.org/2000/svg" xmlns:xlink="http://www.w3.org/1999/xlink">
<g id="graph0" class="graph" transform="scale(1 1) rotate(0) translate(4 91)">
<title>odp_tm_egress_t</title>
<polygon fill="white" stroke="none" points="-4,4 -4,-91 224.5,-91 224.5,4 -4,4"/>
<!-- Node1 -->
<g id="node1" class="node"><title>Node1</title>
<polygon fill="#bfbfbf" stroke="black" points="57.5,-0.5 57.5,-19.5 157.5,-19.5 157.5,-0.5 57.5,-0.5"/>
<text text-anchor="middle" x="107.5" y="-7.5" font-family="Helvetica,sans-Serif" font-size="10.00">odp_tm_egress_t</text>
</g>
<!-- Node2 -->
<g id="node2" class="node"><title>Node2</title>
<g id="a_node2"><a xlink:href="struct__odp__abi__pktio__t.html" target="_top" xlink:title="_odp_abi_pktio_t">
<polygon fill="white" stroke="black" points="0,-67.5 0,-86.5 97,-86.5 97,-67.5 0,-67.5"/>
<text text-anchor="middle" x="48.5" y="-74.5" font-family="Helvetica,sans-Serif" font-size="10.00">_odp_abi_pktio_t</text>
</a>
</g>
</g>
<!-- Node2&#45;&gt;Node1 -->
<g id="edge1" class="edge"><title>Node2&#45;&gt;Node1</title>
<path fill="none" stroke="#9a32cd" stroke-dasharray="5,2" d="M63.3545,-59.6348C74.8932,-46.9228 90.4374,-29.7978 99.6691,-19.6273"/>
<polygon fill="#9a32cd" stroke="#9a32cd" points="60.5865,-57.4769 56.457,-67.2338 65.7697,-62.1816 60.5865,-57.4769"/>
<text text-anchor="middle" x="96" y="-41" font-family="Helvetica,sans-Serif" font-size="10.00"> pktio</text>
</g>
<!-- Node3 -->
<g id="node3" class="node"><title>Node3</title>
<g id="a_node3"><a xlink:href="struct__odp__abi__packet__t.html" target="_top" xlink:title="_odp_abi_packet_t">
<polygon fill="white" stroke="black" points="114.5,-67.5 114.5,-86.5 220.5,-86.5 220.5,-67.5 114.5,-67.5"/>
<text text-anchor="middle" x="167.5" y="-74.5" font-family="Helvetica,sans-Serif" font-size="10.00">_odp_abi_packet_t</text>
</a>
</g>
</g>
<!-- Node3&#45;&gt;Node1 -->
<g id="edge2" class="edge"><title>Node3&#45;&gt;Node1</title>
<path fill="none" stroke="#9a32cd" stroke-dasharray="5,2" d="M152.394,-59.6348C140.659,-46.9228 124.852,-29.7978 115.464,-19.6273"/>
<polygon fill="#9a32cd" stroke="#9a32cd" points="150.053,-62.2597 159.408,-67.2338 155.197,-57.5118 150.053,-62.2597"/>
<text text-anchor="middle" x="168" y="-41" font-family="Helvetica,sans-Serif" font-size="10.00"> egress_fcn</text>
</g>
</g>
</svg>
