<?xml version="1.0" encoding="UTF-8" standalone="no"?>
<!DOCTYPE svg PUBLIC "-//W3C//DTD SVG 1.1//EN"
 "http://www.w3.org/Graphics/SVG/1.1/DTD/svg11.dtd">
<!-- Generated by graphviz version 2.38.0 (20140413.2041)
 -->
<!-- Title: odp_pktin_queue_param_t Pages: 1 -->
<svg width="433pt" height="173pt"
 viewBox="0.00 0.00 432.50 173.00" xmlns="http://www.w3.org/2000/svg" xmlns:xlink="http://www.w3.org/1999/xlink">
<g id="graph0" class="graph" transform="scale(1 1) rotate(0) translate(4 169)">
<title>odp_pktin_queue_param_t</title>
<polygon fill="white" stroke="none" points="-4,4 -4,-169 428.5,-169 428.5,4 -4,4"/>
<!-- Node1 -->
<g id="node1" class="node"><title>Node1</title>
<polygon fill="#bfbfbf" stroke="black" points="136,-0.5 136,-19.5 280,-19.5 280,-0.5 136,-0.5"/>
<text text-anchor="middle" x="208" y="-7.5" font-family="Helvetica,sans-Serif" font-size="10.00">odp_pktin_queue_param_t</text>
</g>
<!-- Node2 -->
<g id="node2" class="node"><title>Node2</title>
<g id="a_node2"><a xlink:href="structodp__queue__param__t.html" target="_top" xlink:title="ODP Queue parameters. ">
<polygon fill="white" stroke="black" points="6,-73 6,-92 122,-92 122,-73 6,-73"/>
<text text-anchor="middle" x="64" y="-80" font-family="Helvetica,sans-Serif" font-size="10.00">odp_queue_param_t</text>
</a>
</g>
</g>
<!-- Node2&#45;&gt;Node1 -->
<g id="edge1" class="edge"><title>Node2&#45;&gt;Node1</title>
<path fill="none" stroke="#9a32cd" stroke-dasharray="5,2" d="M85.0236,-66.8421C98.595,-57.7865 116.857,-46.3434 134,-38 148.879,-30.7586 166.225,-24.3307 180.381,-19.565"/>
<polygon fill="#9a32cd" stroke="#9a32cd" points="82.7571,-64.1504 76.4488,-72.6625 86.6884,-69.9422 82.7571,-64.1504"/>
<text text-anchor="middle" x="169" y="-41" font-family="Helvetica,sans-Serif" font-size="10.00"> queue_param</text>
</g>
<!-- Node3 -->
<g id="node3" class="node"><title>Node3</title>
<g id="a_node3"><a xlink:href="structodp__schedule__param__t.html" target="_top" xlink:title="Scheduler parameters. ">
<polygon fill="white" stroke="black" points="0,-145.5 0,-164.5 128,-164.5 128,-145.5 0,-145.5"/>
<text text-anchor="middle" x="64" y="-152.5" font-family="Helvetica,sans-Serif" font-size="10.00">odp_schedule_param_t</text>
</a>
</g>
</g>
<!-- Node3&#45;&gt;Node2 -->
<g id="edge2" class="edge"><title>Node3&#45;&gt;Node2</title>
<path fill="none" stroke="#9a32cd" stroke-dasharray="5,2" d="M64,-134.942C64,-121.03 64,-102.82 64,-92.2154"/>
<polygon fill="#9a32cd" stroke="#9a32cd" points="60.5001,-135.355 64,-145.355 67.5001,-135.355 60.5001,-135.355"/>
<text text-anchor="middle" x="80" y="-119" font-family="Helvetica,sans-Serif" font-size="10.00"> sched</text>
</g>
<!-- Node4 -->
<g id="node4" class="node"><title>Node4</title>
<g id="a_node4"><a xlink:href="structodp__pktin__queue__param__ovr__t.html" target="_top" xlink:title="Packet input queue parameters override. ">
<polygon fill="white" stroke="black" points="140.5,-67.5 140.5,-97.5 275.5,-97.5 275.5,-67.5 140.5,-67.5"/>
<text text-anchor="start" x="148.5" y="-85.5" font-family="Helvetica,sans-Serif" font-size="10.00">odp_pktin_queue_param</text>
<text text-anchor="middle" x="208" y="-74.5" font-family="Helvetica,sans-Serif" font-size="10.00">_ovr_t</text>
</a>
</g>
</g>
<!-- Node4&#45;&gt;Node1 -->
<g id="edge3" class="edge"><title>Node4&#45;&gt;Node1</title>
<path fill="none" stroke="#9a32cd" stroke-dasharray="5,2" d="M208,-57.0913C208,-44.2136 208,-29.1974 208,-19.8932"/>
<polygon fill="#9a32cd" stroke="#9a32cd" points="204.5,-57.2332 208,-67.2333 211.5,-57.2333 204.5,-57.2332"/>
<text text-anchor="middle" x="253.5" y="-41" font-family="Helvetica,sans-Serif" font-size="10.00"> queue_param_ovr</text>
</g>
<!-- Node5 -->
<g id="node5" class="node"><title>Node5</title>
<g id="a_node5"><a xlink:href="unionodp__pktin__hash__proto__t.html" target="_top" xlink:title="Packet input hash protocols. ">
<polygon fill="white" stroke="black" points="293.5,-73 293.5,-92 424.5,-92 424.5,-73 293.5,-73"/>
<text text-anchor="middle" x="359" y="-80" font-family="Helvetica,sans-Serif" font-size="10.00">odp_pktin_hash_proto_t</text>
</a>
</g>
</g>
<!-- Node5&#45;&gt;Node1 -->
<g id="edge4" class="edge"><title>Node5&#45;&gt;Node1</title>
<path fill="none" stroke="#9a32cd" stroke-dasharray="5,2" d="M342.652,-66.0539C332.057,-56.7728 317.56,-45.3715 303,-38 286.938,-29.8678 268.07,-23.8644 251.4,-19.6116"/>
<polygon fill="#9a32cd" stroke="#9a32cd" points="340.477,-68.8066 350.239,-72.9251 345.176,-63.6181 340.477,-68.8066"/>
<text text-anchor="middle" x="349" y="-41" font-family="Helvetica,sans-Serif" font-size="10.00"> hash_proto</text>
</g>
</g>
</svg>
