<?xml version="1.0" encoding="UTF-8" standalone="no"?>
<!DOCTYPE svg PUBLIC "-//W3C//DTD SVG 1.1//EN"
 "http://www.w3.org/Graphics/SVG/1.1/DTD/svg11.dtd">
<!-- Generated by graphviz version 2.38.0 (20140413.2041)
 -->
<!-- Title: odp_ticketlock_s Pages: 1 -->
<svg width="118pt" height="106pt"
 viewBox="0.00 0.00 117.50 106.00" xmlns="http://www.w3.org/2000/svg" xmlns:xlink="http://www.w3.org/1999/xlink">
<g id="graph0" class="graph" transform="scale(1 1) rotate(0) translate(4 102)">
<title>odp_ticketlock_s</title>
<polygon fill="white" stroke="none" points="-4,4 -4,-102 113.5,-102 113.5,4 -4,4"/>
<!-- Node1 -->
<g id="node1" class="node"><title>Node1</title>
<polygon fill="#bfbfbf" stroke="black" points="6,-0.5 6,-19.5 101,-19.5 101,-0.5 6,-0.5"/>
<text text-anchor="middle" x="53.5" y="-7.5" font-family="Helvetica,sans-Serif" font-size="10.00">odp_ticketlock_s</text>
</g>
<!-- Node2 -->
<g id="node2" class="node"><title>Node2</title>
<g id="a_node2"><a xlink:href="structodp__atomic__u32__s.html" target="_top" xlink:title="odp_atomic_u32_s">
<polygon fill="white" stroke="black" points="-7.10543e-15,-78.5 -7.10543e-15,-97.5 107,-97.5 107,-78.5 -7.10543e-15,-78.5"/>
<text text-anchor="middle" x="53.5" y="-85.5" font-family="Helvetica,sans-Serif" font-size="10.00">odp_atomic_u32_s</text>
</a>
</g>
</g>
<!-- Node2&#45;&gt;Node1 -->
<g id="edge1" class="edge"><title>Node2&#45;&gt;Node1</title>
<path fill="none" stroke="#9a32cd" stroke-dasharray="5,2" d="M53.5,-68.2239C53.5,-52.6974 53.5,-31.3582 53.5,-19.6165"/>
<polygon fill="#9a32cd" stroke="#9a32cd" points="50.0001,-68.2818 53.5,-78.2818 57.0001,-68.2819 50.0001,-68.2818"/>
<text text-anchor="middle" x="81.5" y="-52" font-family="Helvetica,sans-Serif" font-size="10.00"> next_ticket</text>
<text text-anchor="middle" x="81.5" y="-41" font-family="Helvetica,sans-Serif" font-size="10.00">cur_ticket</text>
</g>
</g>
</svg>
