<?xml version="1.0" encoding="UTF-8" standalone="no"?>
<!DOCTYPE svg PUBLIC "-//W3C//DTD SVG 1.1//EN"
 "http://www.w3.org/Graphics/SVG/1.1/DTD/svg11.dtd">
<!-- Generated by graphviz version 2.38.0 (20140413.2041)
 -->
<!-- Title: odp_queue_info_t Pages: 1 -->
<svg width="136pt" height="162pt"
 viewBox="0.00 0.00 136.00 162.00" xmlns="http://www.w3.org/2000/svg" xmlns:xlink="http://www.w3.org/1999/xlink">
<g id="graph0" class="graph" transform="scale(1 1) rotate(0) translate(4 158)">
<title>odp_queue_info_t</title>
<polygon fill="white" stroke="none" points="-4,4 -4,-158 132,-158 132,4 -4,4"/>
<!-- Node1 -->
<g id="node1" class="node"><title>Node1</title>
<polygon fill="#bfbfbf" stroke="black" points="13.5,-0.5 13.5,-19.5 114.5,-19.5 114.5,-0.5 13.5,-0.5"/>
<text text-anchor="middle" x="64" y="-7.5" font-family="Helvetica,sans-Serif" font-size="10.00">odp_queue_info_t</text>
</g>
<!-- Node2 -->
<g id="node2" class="node"><title>Node2</title>
<g id="a_node2"><a xlink:href="structodp__queue__param__t.html" target="_top" xlink:title="ODP Queue parameters. ">
<polygon fill="white" stroke="black" points="6,-67.5 6,-86.5 122,-86.5 122,-67.5 6,-67.5"/>
<text text-anchor="middle" x="64" y="-74.5" font-family="Helvetica,sans-Serif" font-size="10.00">odp_queue_param_t</text>
</a>
</g>
</g>
<!-- Node2&#45;&gt;Node1 -->
<g id="edge1" class="edge"><title>Node2&#45;&gt;Node1</title>
<path fill="none" stroke="#9a32cd" stroke-dasharray="5,2" d="M64,-57.037C64,-44.6703 64,-29.1198 64,-19.6273"/>
<polygon fill="#9a32cd" stroke="#9a32cd" points="60.5001,-57.2338 64,-67.2338 67.5001,-57.2338 60.5001,-57.2338"/>
<text text-anchor="middle" x="81.5" y="-41" font-family="Helvetica,sans-Serif" font-size="10.00"> param</text>
</g>
<!-- Node3 -->
<g id="node3" class="node"><title>Node3</title>
<g id="a_node3"><a xlink:href="structodp__schedule__param__t.html" target="_top" xlink:title="Scheduler parameters. ">
<polygon fill="white" stroke="black" points="0,-134.5 0,-153.5 128,-153.5 128,-134.5 0,-134.5"/>
<text text-anchor="middle" x="64" y="-141.5" font-family="Helvetica,sans-Serif" font-size="10.00">odp_schedule_param_t</text>
</a>
</g>
</g>
<!-- Node3&#45;&gt;Node2 -->
<g id="edge2" class="edge"><title>Node3&#45;&gt;Node2</title>
<path fill="none" stroke="#9a32cd" stroke-dasharray="5,2" d="M64,-124.037C64,-111.67 64,-96.1198 64,-86.6273"/>
<polygon fill="#9a32cd" stroke="#9a32cd" points="60.5001,-124.234 64,-134.234 67.5001,-124.234 60.5001,-124.234"/>
<text text-anchor="middle" x="80" y="-108" font-family="Helvetica,sans-Serif" font-size="10.00"> sched</text>
</g>
</g>
</svg>
