<?xml version="1.0" encoding="UTF-8" standalone="no"?>
<!DOCTYPE svg PUBLIC "-//W3C//DTD SVG 1.1//EN"
 "http://www.w3.org/Graphics/SVG/1.1/DTD/svg11.dtd">
<!-- Generated by graphviz version 2.38.0 (20140413.2041)
 -->
<!-- Title: odp_crypto_packet_op_param_t Pages: 1 -->
<svg width="140pt" height="117pt"
 viewBox="0.00 0.00 140.00 117.00" xmlns="http://www.w3.org/2000/svg" xmlns:xlink="http://www.w3.org/1999/xlink">
<g id="graph0" class="graph" transform="scale(1 1) rotate(0) translate(4 113)">
<title>odp_crypto_packet_op_param_t</title>
<polygon fill="white" stroke="none" points="-4,4 -4,-113 136,-113 136,4 -4,4"/>
<!-- Node1 -->
<g id="node1" class="node"><title>Node1</title>
<polygon fill="#bfbfbf" stroke="black" points="3.5,-0.5 3.5,-30.5 128.5,-30.5 128.5,-0.5 3.5,-0.5"/>
<text text-anchor="start" x="11.5" y="-18.5" font-family="Helvetica,sans-Serif" font-size="10.00">odp_crypto_packet_op</text>
<text text-anchor="middle" x="66" y="-7.5" font-family="Helvetica,sans-Serif" font-size="10.00">_param_t</text>
</g>
<!-- Node2 -->
<g id="node2" class="node"><title>Node2</title>
<g id="a_node2"><a xlink:href="structodp__packet__data__range.html" target="_top" xlink:title="Packet API data range specifier. ">
<polygon fill="white" stroke="black" points="0,-89.5 0,-108.5 132,-108.5 132,-89.5 0,-89.5"/>
<text text-anchor="middle" x="66" y="-96.5" font-family="Helvetica,sans-Serif" font-size="10.00">odp_packet_data_range</text>
</a>
</g>
</g>
<!-- Node2&#45;&gt;Node1 -->
<g id="edge1" class="edge"><title>Node2&#45;&gt;Node1</title>
<path fill="none" stroke="#9a32cd" stroke-dasharray="5,2" d="M66,-79.229C66,-64.4075 66,-44.0505 66,-30.5974"/>
<polygon fill="#9a32cd" stroke="#9a32cd" points="62.5001,-79.278 66,-89.2781 69.5001,-79.2781 62.5001,-79.278"/>
<text text-anchor="middle" x="99" y="-63" font-family="Helvetica,sans-Serif" font-size="10.00"> cipher_range</text>
<text text-anchor="middle" x="99" y="-52" font-family="Helvetica,sans-Serif" font-size="10.00">auth_range</text>
</g>
</g>
</svg>
