<?xml version="1.0" encoding="UTF-8" standalone="no"?>
<!DOCTYPE svg PUBLIC "-//W3C//DTD SVG 1.1//EN"
 "http://www.w3.org/Graphics/SVG/1.1/DTD/svg11.dtd">
<!-- Generated by graphviz version 2.38.0 (20140413.2041)
 -->
<!-- Title: odp_ipsec_out_param_t Pages: 1 -->
<svg width="343pt" height="162pt"
 viewBox="0.00 0.00 343.00 162.00" xmlns="http://www.w3.org/2000/svg" xmlns:xlink="http://www.w3.org/1999/xlink">
<g id="graph0" class="graph" transform="scale(1 1) rotate(0) translate(4 158)">
<title>odp_ipsec_out_param_t</title>
<polygon fill="white" stroke="none" points="-4,4 -4,-158 339,-158 339,4 -4,4"/>
<!-- Node1 -->
<g id="node1" class="node"><title>Node1</title>
<polygon fill="#bfbfbf" stroke="black" points="35,-0.5 35,-19.5 166,-19.5 166,-0.5 35,-0.5"/>
<text text-anchor="middle" x="100.5" y="-7.5" font-family="Helvetica,sans-Serif" font-size="10.00">odp_ipsec_out_param_t</text>
</g>
<!-- Node2 -->
<g id="node2" class="node"><title>Node2</title>
<g id="a_node2"><a xlink:href="struct__odp__abi__ipsec__sa__t.html" target="_top" xlink:title="_odp_abi_ipsec_sa_t">
<polygon fill="white" stroke="black" points="0,-67.5 0,-86.5 115,-86.5 115,-67.5 0,-67.5"/>
<text text-anchor="middle" x="57.5" y="-74.5" font-family="Helvetica,sans-Serif" font-size="10.00">_odp_abi_ipsec_sa_t</text>
</a>
</g>
</g>
<!-- Node2&#45;&gt;Node1 -->
<g id="edge1" class="edge"><title>Node2&#45;&gt;Node1</title>
<path fill="none" stroke="#9a32cd" stroke-dasharray="5,2" d="M69.054,-58.5347C77.3793,-45.9499 88.2568,-29.5072 94.7927,-19.6273"/>
<polygon fill="#9a32cd" stroke="#9a32cd" points="65.8975,-56.9625 63.2992,-67.2338 71.7356,-60.8247 65.8975,-56.9625"/>
<text text-anchor="middle" x="90" y="-41" font-family="Helvetica,sans-Serif" font-size="10.00"> sa</text>
</g>
<!-- Node3 -->
<g id="node3" class="node"><title>Node3</title>
<g id="a_node3"><a xlink:href="structodp__ipsec__out__opt__t.html" target="_top" xlink:title="IPSEC outbound operation options. ">
<polygon fill="white" stroke="black" points="133.5,-67.5 133.5,-86.5 249.5,-86.5 249.5,-67.5 133.5,-67.5"/>
<text text-anchor="middle" x="191.5" y="-74.5" font-family="Helvetica,sans-Serif" font-size="10.00">odp_ipsec_out_opt_t</text>
</a>
</g>
</g>
<!-- Node3&#45;&gt;Node1 -->
<g id="edge2" class="edge"><title>Node3&#45;&gt;Node1</title>
<path fill="none" stroke="#9a32cd" stroke-dasharray="5,2" d="M171.087,-61.4196C153.097,-48.5695 127.495,-30.2821 112.578,-19.6273"/>
<polygon fill="#9a32cd" stroke="#9a32cd" points="169.056,-64.2695 179.227,-67.2338 173.124,-58.5733 169.056,-64.2695"/>
<text text-anchor="middle" x="161" y="-41" font-family="Helvetica,sans-Serif" font-size="10.00"> opt</text>
</g>
<!-- Node4 -->
<g id="node4" class="node"><title>Node4</title>
<g id="a_node4"><a xlink:href="structodp__ipsec__ipv4__param__t.html" target="_top" xlink:title="IPv4 header parameters. ">
<polygon fill="white" stroke="black" points="47,-134.5 47,-153.5 182,-153.5 182,-134.5 47,-134.5"/>
<text text-anchor="middle" x="114.5" y="-141.5" font-family="Helvetica,sans-Serif" font-size="10.00">odp_ipsec_ipv4_param_t</text>
</a>
</g>
</g>
<!-- Node4&#45;&gt;Node3 -->
<g id="edge3" class="edge"><title>Node4&#45;&gt;Node3</title>
<path fill="none" stroke="#9a32cd" stroke-dasharray="5,2" d="M132.609,-127.713C147.779,-114.907 168.888,-97.0884 181.28,-86.6273"/>
<polygon fill="#9a32cd" stroke="#9a32cd" points="130.268,-125.109 124.885,-134.234 134.784,-130.458 130.268,-125.109"/>
<text text-anchor="middle" x="170" y="-108" font-family="Helvetica,sans-Serif" font-size="10.00"> ipv4</text>
</g>
<!-- Node5 -->
<g id="node5" class="node"><title>Node5</title>
<g id="a_node5"><a xlink:href="structodp__ipsec__ipv6__param__t.html" target="_top" xlink:title="IPv6 header parameters. ">
<polygon fill="white" stroke="black" points="200,-134.5 200,-153.5 335,-153.5 335,-134.5 200,-134.5"/>
<text text-anchor="middle" x="267.5" y="-141.5" font-family="Helvetica,sans-Serif" font-size="10.00">odp_ipsec_ipv6_param_t</text>
</a>
</g>
</g>
<!-- Node5&#45;&gt;Node3 -->
<g id="edge4" class="edge"><title>Node5&#45;&gt;Node3</title>
<path fill="none" stroke="#9a32cd" stroke-dasharray="5,2" d="M249.626,-127.713C234.653,-114.907 213.819,-97.0884 201.587,-86.6273"/>
<polygon fill="#9a32cd" stroke="#9a32cd" points="247.376,-130.394 257.25,-134.234 251.926,-125.074 247.376,-130.394"/>
<text text-anchor="middle" x="245" y="-108" font-family="Helvetica,sans-Serif" font-size="10.00"> ipv6</text>
</g>
</g>
</svg>
