<?xml version="1.0" encoding="UTF-8" standalone="no"?>
<!DOCTYPE svg PUBLIC "-//W3C//DTD SVG 1.1//EN"
 "http://www.w3.org/Graphics/SVG/1.1/DTD/svg11.dtd">
<!-- Generated by graphviz version 2.38.0 (20140413.2041)
 -->
<!-- Title: odp_comp_packet_result_t Pages: 1 -->
<svg width="264pt" height="95pt"
 viewBox="0.00 0.00 264.00 95.00" xmlns="http://www.w3.org/2000/svg" xmlns:xlink="http://www.w3.org/1999/xlink">
<g id="graph0" class="graph" transform="scale(1 1) rotate(0) translate(4 91)">
<title>odp_comp_packet_result_t</title>
<polygon fill="white" stroke="none" points="-4,4 -4,-91 260,-91 260,4 -4,4"/>
<!-- Node1 -->
<g id="node1" class="node"><title>Node1</title>
<polygon fill="#bfbfbf" stroke="black" points="48,-0.5 48,-19.5 194,-19.5 194,-0.5 48,-0.5"/>
<text text-anchor="middle" x="121" y="-7.5" font-family="Helvetica,sans-Serif" font-size="10.00">odp_comp_packet_result_t</text>
</g>
<!-- Node2 -->
<g id="node2" class="node"><title>Node2</title>
<g id="a_node2"><a xlink:href="struct__odp__abi__packet__t.html" target="_top" xlink:title="_odp_abi_packet_t">
<polygon fill="white" stroke="black" points="0,-67.5 0,-86.5 106,-86.5 106,-67.5 0,-67.5"/>
<text text-anchor="middle" x="53" y="-74.5" font-family="Helvetica,sans-Serif" font-size="10.00">_odp_abi_packet_t</text>
</a>
</g>
</g>
<!-- Node2&#45;&gt;Node1 -->
<g id="edge1" class="edge"><title>Node2&#45;&gt;Node1</title>
<path fill="none" stroke="#9a32cd" stroke-dasharray="5,2" d="M69.7418,-59.9968C83.0774,-47.2496 101.233,-29.8947 111.975,-19.6273"/>
<polygon fill="#9a32cd" stroke="#9a32cd" points="66.9811,-57.7939 62.1708,-67.2338 71.818,-62.854 66.9811,-57.7939"/>
<text text-anchor="middle" x="108" y="-41" font-family="Helvetica,sans-Serif" font-size="10.00"> pkt_in</text>
</g>
<!-- Node3 -->
<g id="node3" class="node"><title>Node3</title>
<g id="a_node3"><a xlink:href="structodp__packet__data__range.html" target="_top" xlink:title="Packet API data range specifier. ">
<polygon fill="white" stroke="black" points="124,-67.5 124,-86.5 256,-86.5 256,-67.5 124,-67.5"/>
<text text-anchor="middle" x="190" y="-74.5" font-family="Helvetica,sans-Serif" font-size="10.00">odp_packet_data_range</text>
</a>
</g>
</g>
<!-- Node3&#45;&gt;Node1 -->
<g id="edge2" class="edge"><title>Node3&#45;&gt;Node1</title>
<path fill="none" stroke="#9a32cd" stroke-dasharray="5,2" d="M173.394,-60.3564C159.829,-47.5777 141.16,-29.9915 130.158,-19.6273"/>
<polygon fill="#9a32cd" stroke="#9a32cd" points="171.015,-62.9245 180.694,-67.2338 175.815,-57.8292 171.015,-62.9245"/>
<text text-anchor="middle" x="206.5" y="-41" font-family="Helvetica,sans-Serif" font-size="10.00"> output_data_range</text>
</g>
</g>
</svg>
