<?xml version="1.0" encoding="UTF-8" standalone="no"?>
<!DOCTYPE svg PUBLIC "-//W3C//DTD SVG 1.1//EN"
 "http://www.w3.org/Graphics/SVG/1.1/DTD/svg11.dtd">
<!-- Generated by graphviz version 2.38.0 (20140413.2041)
 -->
<!-- Title: odp_ipsec_inbound_config_t Pages: 1 -->
<svg width="252pt" height="95pt"
 viewBox="0.00 0.00 252.00 95.00" xmlns="http://www.w3.org/2000/svg" xmlns:xlink="http://www.w3.org/1999/xlink">
<g id="graph0" class="graph" transform="scale(1 1) rotate(0) translate(4 91)">
<title>odp_ipsec_inbound_config_t</title>
<polygon fill="white" stroke="none" points="-4,4 -4,-91 248,-91 248,4 -4,4"/>
<!-- Node1 -->
<g id="node1" class="node"><title>Node1</title>
<polygon fill="#bfbfbf" stroke="black" points="50.5,-0.5 50.5,-19.5 201.5,-19.5 201.5,-0.5 50.5,-0.5"/>
<text text-anchor="middle" x="126" y="-7.5" font-family="Helvetica,sans-Serif" font-size="10.00">odp_ipsec_inbound_config_t</text>
</g>
<!-- Node2 -->
<g id="node2" class="node"><title>Node2</title>
<g id="a_node2"><a xlink:href="unionodp__proto__chksums__t.html" target="_top" xlink:title="Flags to control packet data checksum checking. ">
<polygon fill="white" stroke="black" points="0,-67.5 0,-86.5 122,-86.5 122,-67.5 0,-67.5"/>
<text text-anchor="middle" x="61" y="-74.5" font-family="Helvetica,sans-Serif" font-size="10.00">odp_proto_chksums_t</text>
</a>
</g>
</g>
<!-- Node2&#45;&gt;Node1 -->
<g id="edge1" class="edge"><title>Node2&#45;&gt;Node1</title>
<path fill="none" stroke="#9a32cd" stroke-dasharray="5,2" d="M77.0032,-59.9968C89.7504,-47.2496 107.105,-29.8947 117.373,-19.6273"/>
<polygon fill="#9a32cd" stroke="#9a32cd" points="74.3624,-57.6878 69.7662,-67.2338 79.3122,-62.6376 74.3624,-57.6878"/>
<text text-anchor="middle" x="121" y="-41" font-family="Helvetica,sans-Serif" font-size="10.00"> chksums</text>
</g>
<!-- Node3 -->
<g id="node3" class="node"><title>Node3</title>
<g id="a_node3"><a xlink:href="struct__odp__abi__queue__t.html" target="_top" xlink:title="_odp_abi_queue_t">
<polygon fill="white" stroke="black" points="140,-67.5 140,-86.5 244,-86.5 244,-67.5 140,-67.5"/>
<text text-anchor="middle" x="192" y="-74.5" font-family="Helvetica,sans-Serif" font-size="10.00">_odp_abi_queue_t</text>
</a>
</g>
</g>
<!-- Node3&#45;&gt;Node1 -->
<g id="edge2" class="edge"><title>Node3&#45;&gt;Node1</title>
<path fill="none" stroke="#9a32cd" stroke-dasharray="5,2" d="M175.751,-59.9968C162.807,-47.2496 145.185,-29.8947 134.76,-19.6273"/>
<polygon fill="#9a32cd" stroke="#9a32cd" points="173.518,-62.7106 183.099,-67.2338 178.43,-57.7232 173.518,-62.7106"/>
<text text-anchor="middle" x="198" y="-41" font-family="Helvetica,sans-Serif" font-size="10.00"> default_queue</text>
</g>
</g>
</svg>
