<?xml version="1.0" encoding="UTF-8" standalone="no"?>
<!DOCTYPE svg PUBLIC "-//W3C//DTD SVG 1.1//EN"
 "http://www.w3.org/Graphics/SVG/1.1/DTD/svg11.dtd">
<!-- Generated by graphviz version 2.38.0 (20140413.2041)
 -->
<!-- Title: odp_crypto_capability_t Pages: 1 -->
<svg width="308pt" height="106pt"
 viewBox="0.00 0.00 307.50 106.00" xmlns="http://www.w3.org/2000/svg" xmlns:xlink="http://www.w3.org/1999/xlink">
<g id="graph0" class="graph" transform="scale(1 1) rotate(0) translate(4 102)">
<title>odp_crypto_capability_t</title>
<polygon fill="white" stroke="none" points="-4,4 -4,-102 303.5,-102 303.5,4 -4,4"/>
<!-- Node1 -->
<g id="node1" class="node"><title>Node1</title>
<polygon fill="#bfbfbf" stroke="black" points="86.5,-0.5 86.5,-19.5 215.5,-19.5 215.5,-0.5 86.5,-0.5"/>
<text text-anchor="middle" x="151" y="-7.5" font-family="Helvetica,sans-Serif" font-size="10.00">odp_crypto_capability_t</text>
</g>
<!-- Node2 -->
<g id="node2" class="node"><title>Node2</title>
<g id="a_node2"><a xlink:href="unionodp__crypto__cipher__algos__t.html" target="_top" xlink:title="Cipher algorithms in a bit field structure. ">
<polygon fill="white" stroke="black" points="0,-78.5 0,-97.5 144,-97.5 144,-78.5 0,-78.5"/>
<text text-anchor="middle" x="72" y="-85.5" font-family="Helvetica,sans-Serif" font-size="10.00">odp_crypto_cipher_algos_t</text>
</a>
</g>
</g>
<!-- Node2&#45;&gt;Node1 -->
<g id="edge1" class="edge"><title>Node2&#45;&gt;Node1</title>
<path fill="none" stroke="#9a32cd" stroke-dasharray="5,2" d="M88.3155,-71.3041C104.596,-55.6422 129.009,-32.1562 142.043,-19.6165"/>
<polygon fill="#9a32cd" stroke="#9a32cd" points="85.8424,-68.8266 81.0623,-78.2818 90.6954,-73.8712 85.8424,-68.8266"/>
<text text-anchor="middle" x="149" y="-52" font-family="Helvetica,sans-Serif" font-size="10.00"> hw_ciphers</text>
<text text-anchor="middle" x="149" y="-41" font-family="Helvetica,sans-Serif" font-size="10.00">ciphers</text>
</g>
<!-- Node3 -->
<g id="node3" class="node"><title>Node3</title>
<g id="a_node3"><a xlink:href="unionodp__crypto__auth__algos__t.html" target="_top" xlink:title="Authentication algorithms in a bit field structure. ">
<polygon fill="white" stroke="black" points="162.5,-78.5 162.5,-97.5 299.5,-97.5 299.5,-78.5 162.5,-78.5"/>
<text text-anchor="middle" x="231" y="-85.5" font-family="Helvetica,sans-Serif" font-size="10.00">odp_crypto_auth_algos_t</text>
</a>
</g>
</g>
<!-- Node3&#45;&gt;Node1 -->
<g id="edge2" class="edge"><title>Node3&#45;&gt;Node1</title>
<path fill="none" stroke="#9a32cd" stroke-dasharray="5,2" d="M214.886,-70.8656C205.17,-61.2237 192.489,-48.7908 181,-38 174.36,-31.7638 166.728,-24.8987 160.823,-19.6515"/>
<polygon fill="#9a32cd" stroke="#9a32cd" points="212.704,-73.6328 222.259,-78.2111 217.645,-68.6737 212.704,-73.6328"/>
<text text-anchor="middle" x="228.5" y="-52" font-family="Helvetica,sans-Serif" font-size="10.00"> hw_auths</text>
<text text-anchor="middle" x="228.5" y="-41" font-family="Helvetica,sans-Serif" font-size="10.00">auths</text>
</g>
</g>
</svg>
