<?xml version="1.0" encoding="UTF-8" standalone="no"?>
<!DOCTYPE svg PUBLIC "-//W3C//DTD SVG 1.1//EN"
 "http://www.w3.org/Graphics/SVG/1.1/DTD/svg11.dtd">
<!-- Generated by graphviz version 2.38.0 (20140413.2041)
 -->
<!-- Title: odp_cls_capability_t Pages: 1 -->
<svg width="421pt" height="106pt"
 viewBox="0.00 0.00 420.50 106.00" xmlns="http://www.w3.org/2000/svg" xmlns:xlink="http://www.w3.org/1999/xlink">
<g id="graph0" class="graph" transform="scale(1 1) rotate(0) translate(4 102)">
<title>odp_cls_capability_t</title>
<polygon fill="white" stroke="none" points="-4,4 -4,-102 416.5,-102 416.5,4 -4,4"/>
<!-- Node1 -->
<g id="node1" class="node"><title>Node1</title>
<polygon fill="#bfbfbf" stroke="black" points="152.5,-0.5 152.5,-19.5 264.5,-19.5 264.5,-0.5 152.5,-0.5"/>
<text text-anchor="middle" x="208.5" y="-7.5" font-family="Helvetica,sans-Serif" font-size="10.00">odp_cls_capability_t</text>
</g>
<!-- Node2 -->
<g id="node2" class="node"><title>Node2</title>
<g id="a_node2"><a xlink:href="unionodp__threshold__types__t.html" target="_top" xlink:title="Supported threshold types. ">
<polygon fill="white" stroke="black" points="0,-78.5 0,-97.5 125,-97.5 125,-78.5 0,-78.5"/>
<text text-anchor="middle" x="62.5" y="-85.5" font-family="Helvetica,sans-Serif" font-size="10.00">odp_threshold_types_t</text>
</a>
</g>
</g>
<!-- Node2&#45;&gt;Node1 -->
<g id="edge1" class="edge"><title>Node2&#45;&gt;Node1</title>
<path fill="none" stroke="#9a32cd" stroke-dasharray="5,2" d="M81.5211,-72.1284C95.5867,-61.621 115.516,-47.7321 134.5,-38 148.982,-30.576 165.99,-24.2198 180.047,-19.5429"/>
<polygon fill="#9a32cd" stroke="#9a32cd" points="79.0307,-69.6254 73.1935,-78.4672 83.2705,-75.1953 79.0307,-69.6254"/>
<text text-anchor="middle" x="169.5" y="-52" font-family="Helvetica,sans-Serif" font-size="10.00"> threshold_red</text>
<text text-anchor="middle" x="169.5" y="-41" font-family="Helvetica,sans-Serif" font-size="10.00">threshold_bp</text>
</g>
<!-- Node3 -->
<g id="node3" class="node"><title>Node3</title>
<g id="a_node3"><a xlink:href="unionodp__pktin__hash__proto__t.html" target="_top" xlink:title="Packet input hash protocols. ">
<polygon fill="white" stroke="black" points="143,-78.5 143,-97.5 274,-97.5 274,-78.5 143,-78.5"/>
<text text-anchor="middle" x="208.5" y="-85.5" font-family="Helvetica,sans-Serif" font-size="10.00">odp_pktin_hash_proto_t</text>
</a>
</g>
</g>
<!-- Node3&#45;&gt;Node1 -->
<g id="edge2" class="edge"><title>Node3&#45;&gt;Node1</title>
<path fill="none" stroke="#9a32cd" stroke-dasharray="5,2" d="M208.5,-68.2239C208.5,-52.6974 208.5,-31.3582 208.5,-19.6165"/>
<polygon fill="#9a32cd" stroke="#9a32cd" points="205,-68.2818 208.5,-78.2818 212,-68.2819 205,-68.2818"/>
<text text-anchor="middle" x="246.5" y="-46.5" font-family="Helvetica,sans-Serif" font-size="10.00"> hash_protocols</text>
</g>
<!-- Node4 -->
<g id="node4" class="node"><title>Node4</title>
<g id="a_node4"><a xlink:href="unionodp__cls__pmr__terms__t.html" target="_top" xlink:title="Supported PMR term values. ">
<polygon fill="white" stroke="black" points="292.5,-78.5 292.5,-97.5 412.5,-97.5 412.5,-78.5 292.5,-78.5"/>
<text text-anchor="middle" x="352.5" y="-85.5" font-family="Helvetica,sans-Serif" font-size="10.00">odp_cls_pmr_terms_t</text>
</a>
</g>
</g>
<!-- Node4&#45;&gt;Node1 -->
<g id="edge3" class="edge"><title>Node4&#45;&gt;Node1</title>
<path fill="none" stroke="#9a32cd" stroke-dasharray="5,2" d="M335.571,-71.5519C323.248,-60.9526 305.76,-47.1944 288.5,-38 273.881,-30.2123 256.58,-24.0391 241.814,-19.5723"/>
<polygon fill="#9a32cd" stroke="#9a32cd" points="333.397,-74.3007 343.212,-78.2903 338.027,-69.0508 333.397,-74.3007"/>
<text text-anchor="middle" x="364.5" y="-46.5" font-family="Helvetica,sans-Serif" font-size="10.00"> supported_terms</text>
</g>
</g>
</svg>
