<?xml version="1.0" encoding="UTF-8" standalone="no"?>
<!DOCTYPE svg PUBLIC "-//W3C//DTD SVG 1.1//EN"
 "http://www.w3.org/Graphics/SVG/1.1/DTD/svg11.dtd">
<!-- Generated by graphviz version 2.38.0 (20140413.2041)
 -->
<!-- Title: odp_ipsec_config_t Pages: 1 -->
<svg width="335pt" height="173pt"
 viewBox="0.00 0.00 335.00 173.00" xmlns="http://www.w3.org/2000/svg" xmlns:xlink="http://www.w3.org/1999/xlink">
<g id="graph0" class="graph" transform="scale(1 1) rotate(0) translate(4 169)">
<title>odp_ipsec_config_t</title>
<polygon fill="white" stroke="none" points="-4,4 -4,-169 331,-169 331,4 -4,4"/>
<!-- Node1 -->
<g id="node1" class="node"><title>Node1</title>
<polygon fill="#bfbfbf" stroke="black" points="60.5,-0.5 60.5,-19.5 167.5,-19.5 167.5,-0.5 60.5,-0.5"/>
<text text-anchor="middle" x="114" y="-7.5" font-family="Helvetica,sans-Serif" font-size="10.00">odp_ipsec_config_t</text>
</g>
<!-- Node2 -->
<g id="node2" class="node"><title>Node2</title>
<g id="a_node2"><a xlink:href="structodp__ipsec__outbound__config__t.html" target="_top" xlink:title="Configuration options for IPSEC outbound processing. ">
<polygon fill="white" stroke="black" points="0,-67.5 0,-97.5 116,-97.5 116,-67.5 0,-67.5"/>
<text text-anchor="start" x="8" y="-85.5" font-family="Helvetica,sans-Serif" font-size="10.00">odp_ipsec_outbound</text>
<text text-anchor="middle" x="58" y="-74.5" font-family="Helvetica,sans-Serif" font-size="10.00">_config_t</text>
</a>
</g>
</g>
<!-- Node2&#45;&gt;Node1 -->
<g id="edge1" class="edge"><title>Node2&#45;&gt;Node1</title>
<path fill="none" stroke="#9a32cd" stroke-dasharray="5,2" d="M75.5669,-59.3845C86.1699,-46.0362 99.1019,-29.7556 106.936,-19.8932"/>
<polygon fill="#9a32cd" stroke="#9a32cd" points="72.8117,-57.226 69.3324,-67.2333 78.2929,-61.5799 72.8117,-57.226"/>
<text text-anchor="middle" x="116.5" y="-41" font-family="Helvetica,sans-Serif" font-size="10.00"> outbound</text>
</g>
<!-- Node3 -->
<g id="node3" class="node"><title>Node3</title>
<g id="a_node3"><a xlink:href="structodp__ipsec__inbound__config__t.html" target="_top" xlink:title="Configuration options for IPSEC inbound processing. ">
<polygon fill="white" stroke="black" points="134.5,-73 134.5,-92 285.5,-92 285.5,-73 134.5,-73"/>
<text text-anchor="middle" x="210" y="-80" font-family="Helvetica,sans-Serif" font-size="10.00">odp_ipsec_inbound_config_t</text>
</a>
</g>
</g>
<!-- Node3&#45;&gt;Node1 -->
<g id="edge2" class="edge"><title>Node3&#45;&gt;Node1</title>
<path fill="none" stroke="#9a32cd" stroke-dasharray="5,2" d="M190.066,-66.8609C170.686,-52.6288 141.897,-31.4868 125.868,-19.7154"/>
<polygon fill="#9a32cd" stroke="#9a32cd" points="188.097,-69.7572 198.229,-72.8553 192.24,-64.1152 188.097,-69.7572"/>
<text text-anchor="middle" x="186" y="-41" font-family="Helvetica,sans-Serif" font-size="10.00"> inbound</text>
</g>
<!-- Node4 -->
<g id="node4" class="node"><title>Node4</title>
<g id="a_node4"><a xlink:href="unionodp__proto__chksums__t.html" target="_top" xlink:title="Flags to control packet data checksum checking. ">
<polygon fill="white" stroke="black" points="83,-145.5 83,-164.5 205,-164.5 205,-145.5 83,-145.5"/>
<text text-anchor="middle" x="144" y="-152.5" font-family="Helvetica,sans-Serif" font-size="10.00">odp_proto_chksums_t</text>
</a>
</g>
</g>
<!-- Node4&#45;&gt;Node3 -->
<g id="edge3" class="edge"><title>Node4&#45;&gt;Node3</title>
<path fill="none" stroke="#9a32cd" stroke-dasharray="5,2" d="M159.17,-137.796C172.443,-123.617 191.218,-103.563 201.841,-92.2154"/>
<polygon fill="#9a32cd" stroke="#9a32cd" points="156.372,-135.663 152.093,-145.355 161.482,-140.447 156.372,-135.663"/>
<text text-anchor="middle" x="202" y="-119" font-family="Helvetica,sans-Serif" font-size="10.00"> chksums</text>
</g>
<!-- Node5 -->
<g id="node5" class="node"><title>Node5</title>
<g id="a_node5"><a xlink:href="struct__odp__abi__queue__t.html" target="_top" xlink:title="_odp_abi_queue_t">
<polygon fill="white" stroke="black" points="223,-145.5 223,-164.5 327,-164.5 327,-145.5 223,-145.5"/>
<text text-anchor="middle" x="275" y="-152.5" font-family="Helvetica,sans-Serif" font-size="10.00">_odp_abi_queue_t</text>
</a>
</g>
</g>
<!-- Node5&#45;&gt;Node3 -->
<g id="edge4" class="edge"><title>Node5&#45;&gt;Node3</title>
<path fill="none" stroke="#9a32cd" stroke-dasharray="5,2" d="M260.06,-137.796C246.987,-123.617 228.497,-103.563 218.035,-92.2154"/>
<polygon fill="#9a32cd" stroke="#9a32cd" points="257.678,-140.376 267.03,-145.355 262.824,-135.631 257.678,-140.376"/>
<text text-anchor="middle" x="284" y="-119" font-family="Helvetica,sans-Serif" font-size="10.00"> default_queue</text>
</g>
</g>
</svg>
