<?xml version="1.0" encoding="UTF-8" standalone="no"?>
<!DOCTYPE svg PUBLIC "-//W3C//DTD SVG 1.1//EN"
 "http://www.w3.org/Graphics/SVG/1.1/DTD/svg11.dtd">
<!-- Generated by graphviz version 2.38.0 (20140413.2041)
 -->
<!-- Title: odp_init_t Pages: 1 -->
<svg width="202pt" height="106pt"
 viewBox="0.00 0.00 201.50 106.00" xmlns="http://www.w3.org/2000/svg" xmlns:xlink="http://www.w3.org/1999/xlink">
<g id="graph0" class="graph" transform="scale(1 1) rotate(0) translate(4 102)">
<title>odp_init_t</title>
<polygon fill="white" stroke="none" points="-4,4 -4,-102 197.5,-102 197.5,4 -4,4"/>
<!-- Node1 -->
<g id="node1" class="node"><title>Node1</title>
<polygon fill="#bfbfbf" stroke="black" points="67.5,-0.5 67.5,-19.5 130.5,-19.5 130.5,-0.5 67.5,-0.5"/>
<text text-anchor="middle" x="99" y="-7.5" font-family="Helvetica,sans-Serif" font-size="10.00">odp_init_t</text>
</g>
<!-- Node2 -->
<g id="node2" class="node"><title>Node2</title>
<g id="a_node2"><a xlink:href="structodp__cpumask__t.html" target="_top" xlink:title="CPU mask. ">
<polygon fill="white" stroke="black" points="0,-78.5 0,-97.5 92,-97.5 92,-78.5 0,-78.5"/>
<text text-anchor="middle" x="46" y="-85.5" font-family="Helvetica,sans-Serif" font-size="10.00">odp_cpumask_t</text>
</a>
</g>
</g>
<!-- Node2&#45;&gt;Node1 -->
<g id="edge1" class="edge"><title>Node2&#45;&gt;Node1</title>
<path fill="none" stroke="#9a32cd" stroke-dasharray="5,2" d="M51.1069,-68.5471C54.3642,-58.8545 59.2562,-47.128 66,-38 71.2784,-30.8554 78.8593,-24.4763 85.4243,-19.7148"/>
<polygon fill="#9a32cd" stroke="#9a32cd" points="47.6778,-67.7934 48.1123,-78.3793 54.3741,-69.8329 47.6778,-67.7934"/>
<text text-anchor="middle" x="98" y="-52" font-family="Helvetica,sans-Serif" font-size="10.00"> control_cpus</text>
<text text-anchor="middle" x="98" y="-41" font-family="Helvetica,sans-Serif" font-size="10.00">worker_cpus</text>
</g>
<!-- Node3 -->
<g id="node3" class="node"><title>Node3</title>
<g id="a_node3"><a xlink:href="unionodp__feature__t.html" target="_top" xlink:title="Definition of ODP features. ">
<polygon fill="white" stroke="black" points="110.5,-78.5 110.5,-97.5 193.5,-97.5 193.5,-78.5 110.5,-78.5"/>
<text text-anchor="middle" x="152" y="-85.5" font-family="Helvetica,sans-Serif" font-size="10.00">odp_feature_t</text>
</a>
</g>
</g>
<!-- Node3&#45;&gt;Node1 -->
<g id="edge2" class="edge"><title>Node3&#45;&gt;Node1</title>
<path fill="none" stroke="#9a32cd" stroke-dasharray="5,2" d="M146.054,-68.9572C142.338,-59.2347 136.935,-47.3508 130,-38 124.813,-31.0062 117.53,-24.5464 111.326,-19.6999"/>
<polygon fill="#9a32cd" stroke="#9a32cd" points="142.775,-70.1823 149.417,-78.4367 149.372,-67.842 142.775,-70.1823"/>
<text text-anchor="middle" x="167" y="-46.5" font-family="Helvetica,sans-Serif" font-size="10.00"> not_used</text>
</g>
</g>
</svg>
