<?xml version="1.0" encoding="UTF-8" standalone="no"?>
<!DOCTYPE svg PUBLIC "-//W3C//DTD SVG 1.1//EN"
 "http://www.w3.org/Graphics/SVG/1.1/DTD/svg11.dtd">
<!-- Generated by graphviz version 2.38.0 (20140413.2041)
 -->
<!-- Title: odp_cls_cos_param Pages: 1 -->
<svg width="569pt" height="218pt"
 viewBox="0.00 0.00 569.00 218.00" xmlns="http://www.w3.org/2000/svg" xmlns:xlink="http://www.w3.org/1999/xlink">
<g id="graph0" class="graph" transform="scale(1 1) rotate(0) translate(4 214)">
<title>odp_cls_cos_param</title>
<polygon fill="white" stroke="none" points="-4,4 -4,-214 565,-214 565,4 -4,4"/>
<!-- Node1 -->
<g id="node1" class="node"><title>Node1</title>
<polygon fill="#bfbfbf" stroke="black" points="450,-94.5 450,-113.5 561,-113.5 561,-94.5 450,-94.5"/>
<text text-anchor="middle" x="505.5" y="-101.5" font-family="Helvetica,sans-Serif" font-size="10.00">odp_cls_cos_param</text>
</g>
<!-- Node2 -->
<g id="node2" class="node"><title>Node2</title>
<g id="a_node2"><a xlink:href="structodp__red__param__t.html" target="_top" xlink:title="Random Early Detection (RED) Random Early Detection is enabled to initiate a drop probability for the...">
<polygon fill="white" stroke="black" points="228,-190.5 228,-209.5 329,-209.5 329,-190.5 228,-190.5"/>
<text text-anchor="middle" x="278.5" y="-197.5" font-family="Helvetica,sans-Serif" font-size="10.00">odp_red_param_t</text>
</a>
</g>
</g>
<!-- Node2&#45;&gt;Node1 -->
<g id="edge1" class="edge"><title>Node2&#45;&gt;Node1</title>
<path fill="none" stroke="#9a32cd" stroke-dasharray="5,2" d="M339.124,-191.302C368.179,-185.549 403.014,-176.342 432,-162 457.427,-149.419 482.16,-126.723 495.134,-113.766"/>
<polygon fill="#9a32cd" stroke="#9a32cd" points="338.283,-187.899 329.107,-193.196 339.583,-194.777 338.283,-187.899"/>
<text text-anchor="middle" x="397" y="-188" font-family="Helvetica,sans-Serif" font-size="10.00"> red</text>
</g>
<!-- Node3 -->
<g id="node3" class="node"><title>Node3</title>
<g id="a_node3"><a xlink:href="structodp__threshold__t.html" target="_top" xlink:title="ODP Threshold. ">
<polygon fill="white" stroke="black" points="17,-170.5 17,-189.5 111,-189.5 111,-170.5 17,-170.5"/>
<text text-anchor="middle" x="64" y="-177.5" font-family="Helvetica,sans-Serif" font-size="10.00">odp_threshold_t</text>
</a>
</g>
</g>
<!-- Node3&#45;&gt;Node2 -->
<g id="edge2" class="edge"><title>Node3&#45;&gt;Node2</title>
<path fill="none" stroke="#9a32cd" stroke-dasharray="5,2" d="M121.102,-185.28C154.238,-188.399 195.818,-192.312 227.775,-195.32"/>
<polygon fill="#9a32cd" stroke="#9a32cd" points="121.393,-181.792 111.109,-184.34 120.737,-188.761 121.393,-181.792"/>
<text text-anchor="middle" x="170.5" y="-194" font-family="Helvetica,sans-Serif" font-size="10.00"> threshold</text>
</g>
<!-- Node9 -->
<g id="node9" class="node"><title>Node9</title>
<g id="a_node9"><a xlink:href="structodp__bp__param__t.html" target="_top" xlink:title="Back pressure (BP) When back pressure is enabled for a particular flow, the HW can send back pressure...">
<polygon fill="white" stroke="black" points="229.5,-152.5 229.5,-171.5 327.5,-171.5 327.5,-152.5 229.5,-152.5"/>
<text text-anchor="middle" x="278.5" y="-159.5" font-family="Helvetica,sans-Serif" font-size="10.00">odp_bp_param_t</text>
</a>
</g>
</g>
<!-- Node3&#45;&gt;Node9 -->
<g id="edge9" class="edge"><title>Node3&#45;&gt;Node9</title>
<path fill="none" stroke="#9a32cd" stroke-dasharray="5,2" d="M121.125,-169.248C129.439,-167.961 137.925,-166.817 146,-166 173.497,-163.219 204.378,-162.174 229.302,-161.844"/>
<polygon fill="#9a32cd" stroke="#9a32cd" points="120.416,-165.817 111.107,-170.876 121.539,-172.727 120.416,-165.817"/>
<text text-anchor="middle" x="170.5" y="-169" font-family="Helvetica,sans-Serif" font-size="10.00"> threshold</text>
</g>
<!-- Node4 -->
<g id="node4" class="node"><title>Node4</title>
<g id="a_node4"><a xlink:href="structodp__queue__param__t.html" target="_top" xlink:title="ODP Queue parameters. ">
<polygon fill="white" stroke="black" points="220.5,-114.5 220.5,-133.5 336.5,-133.5 336.5,-114.5 220.5,-114.5"/>
<text text-anchor="middle" x="278.5" y="-121.5" font-family="Helvetica,sans-Serif" font-size="10.00">odp_queue_param_t</text>
</a>
</g>
</g>
<!-- Node4&#45;&gt;Node1 -->
<g id="edge3" class="edge"><title>Node4&#45;&gt;Node1</title>
<path fill="none" stroke="#9a32cd" stroke-dasharray="5,2" d="M346.577,-118.038C379.525,-115.109 418.721,-111.625 449.821,-108.86"/>
<polygon fill="#9a32cd" stroke="#9a32cd" points="346.219,-114.556 336.568,-118.927 346.839,-121.528 346.219,-114.556"/>
<text text-anchor="middle" x="397" y="-120" font-family="Helvetica,sans-Serif" font-size="10.00"> queue_param</text>
</g>
<!-- Node5 -->
<g id="node5" class="node"><title>Node5</title>
<g id="a_node5"><a xlink:href="structodp__schedule__param__t.html" target="_top" xlink:title="Scheduler parameters. ">
<polygon fill="white" stroke="black" points="0,-114.5 0,-133.5 128,-133.5 128,-114.5 0,-114.5"/>
<text text-anchor="middle" x="64" y="-121.5" font-family="Helvetica,sans-Serif" font-size="10.00">odp_schedule_param_t</text>
</a>
</g>
</g>
<!-- Node5&#45;&gt;Node4 -->
<g id="edge4" class="edge"><title>Node5&#45;&gt;Node4</title>
<path fill="none" stroke="#9a32cd" stroke-dasharray="5,2" d="M138.304,-124C165.156,-124 195.123,-124 220.354,-124"/>
<polygon fill="#9a32cd" stroke="#9a32cd" points="138.182,-120.5 128.182,-124 138.182,-127.5 138.182,-120.5"/>
<text text-anchor="middle" x="170.5" y="-127" font-family="Helvetica,sans-Serif" font-size="10.00"> sched</text>
</g>
<!-- Node6 -->
<g id="node6" class="node"><title>Node6</title>
<g id="a_node6"><a xlink:href="struct__odp__abi__pool__t.html" target="_top" xlink:title="_odp_abi_pool_t">
<polygon fill="white" stroke="black" points="231.5,-76.5 231.5,-95.5 325.5,-95.5 325.5,-76.5 231.5,-76.5"/>
<text text-anchor="middle" x="278.5" y="-83.5" font-family="Helvetica,sans-Serif" font-size="10.00">_odp_abi_pool_t</text>
</a>
</g>
</g>
<!-- Node6&#45;&gt;Node1 -->
<g id="edge5" class="edge"><title>Node6&#45;&gt;Node1</title>
<path fill="none" stroke="#9a32cd" stroke-dasharray="5,2" d="M335.984,-84.638C364.801,-84.5691 400.36,-85.4464 432,-89 442.857,-90.2194 454.497,-92.2827 465.203,-94.4951"/>
<polygon fill="#9a32cd" stroke="#9a32cd" points="335.669,-81.1398 325.692,-84.7029 335.714,-88.1396 335.669,-81.1398"/>
<text text-anchor="middle" x="397" y="-92" font-family="Helvetica,sans-Serif" font-size="10.00"> pool</text>
</g>
<!-- Node7 -->
<g id="node7" class="node"><title>Node7</title>
<g id="a_node7"><a xlink:href="struct__odp__abi__queue__t.html" target="_top" xlink:title="_odp_abi_queue_t">
<polygon fill="white" stroke="black" points="226.5,-38.5 226.5,-57.5 330.5,-57.5 330.5,-38.5 226.5,-38.5"/>
<text text-anchor="middle" x="278.5" y="-45.5" font-family="Helvetica,sans-Serif" font-size="10.00">_odp_abi_queue_t</text>
</a>
</g>
</g>
<!-- Node7&#45;&gt;Node1 -->
<g id="edge6" class="edge"><title>Node7&#45;&gt;Node1</title>
<path fill="none" stroke="#9a32cd" stroke-dasharray="5,2" d="M340.916,-52.687C369.089,-55.8931 402.672,-61.2197 432,-70 451.977,-75.9809 473.434,-86.6259 487.779,-94.4159"/>
<polygon fill="#9a32cd" stroke="#9a32cd" points="341.116,-49.1884 330.799,-51.5993 340.367,-56.1483 341.116,-49.1884"/>
<text text-anchor="middle" x="397" y="-73" font-family="Helvetica,sans-Serif" font-size="10.00"> queue</text>
</g>
<!-- Node8 -->
<g id="node8" class="node"><title>Node8</title>
<g id="a_node8"><a xlink:href="unionodp__pktin__hash__proto__t.html" target="_top" xlink:title="Packet input hash protocols. ">
<polygon fill="white" stroke="black" points="213,-0.5 213,-19.5 344,-19.5 344,-0.5 213,-0.5"/>
<text text-anchor="middle" x="278.5" y="-7.5" font-family="Helvetica,sans-Serif" font-size="10.00">odp_pktin_hash_proto_t</text>
</a>
</g>
</g>
<!-- Node8&#45;&gt;Node1 -->
<g id="edge7" class="edge"><title>Node8&#45;&gt;Node1</title>
<path fill="none" stroke="#9a32cd" stroke-dasharray="5,2" d="M354.247,-17.3512C379.839,-21.8774 408.04,-29.1892 432,-41 458.922,-54.2706 483.828,-80.0257 496.243,-94.1481"/>
<polygon fill="#9a32cd" stroke="#9a32cd" points="354.647,-13.8698 344.21,-15.6919 353.505,-20.7761 354.647,-13.8698"/>
<text text-anchor="middle" x="397" y="-44" font-family="Helvetica,sans-Serif" font-size="10.00"> hash_proto</text>
</g>
<!-- Node9&#45;&gt;Node1 -->
<g id="edge8" class="edge"><title>Node9&#45;&gt;Node1</title>
<path fill="none" stroke="#9a32cd" stroke-dasharray="5,2" d="M337.62,-153.021C366.312,-147.97 401.276,-140.881 432,-132 449.369,-126.979 468.419,-119.543 482.631,-113.595"/>
<polygon fill="#9a32cd" stroke="#9a32cd" points="337.01,-149.575 327.75,-154.723 338.2,-156.473 337.01,-149.575"/>
<text text-anchor="middle" x="397" y="-150" font-family="Helvetica,sans-Serif" font-size="10.00"> bp</text>
</g>
</g>
</svg>
