<?xml version="1.0" encoding="UTF-8" standalone="no"?>
<!DOCTYPE svg PUBLIC "-//W3C//DTD SVG 1.1//EN"
 "http://www.w3.org/Graphics/SVG/1.1/DTD/svg11.dtd">
<!-- Generated by graphviz version 2.38.0 (20140413.2041)
 -->
<!-- Title: odp_ipsec_sa_param_t Pages: 1 -->
<svg width="633pt" height="237pt"
 viewBox="0.00 0.00 633.00 237.00" xmlns="http://www.w3.org/2000/svg" xmlns:xlink="http://www.w3.org/1999/xlink">
<g id="graph0" class="graph" transform="scale(1 1) rotate(0) translate(4 233)">
<title>odp_ipsec_sa_param_t</title>
<polygon fill="white" stroke="none" points="-4,4 -4,-233 629,-233 629,4 -4,4"/>
<!-- Node1 -->
<g id="node1" class="node"><title>Node1</title>
<polygon fill="#bfbfbf" stroke="black" points="498,-115.5 498,-134.5 625,-134.5 625,-115.5 498,-115.5"/>
<text text-anchor="middle" x="561.5" y="-122.5" font-family="Helvetica,sans-Serif" font-size="10.00">odp_ipsec_sa_param_t</text>
</g>
<!-- Node2 -->
<g id="node2" class="node"><title>Node2</title>
<g id="a_node2"><a xlink:href="struct__odp__abi__cos__t.html" target="_top" xlink:title="_odp_abi_cos_t">
<polygon fill="white" stroke="black" points="284,-209.5 284,-228.5 374,-228.5 374,-209.5 284,-209.5"/>
<text text-anchor="middle" x="329" y="-216.5" font-family="Helvetica,sans-Serif" font-size="10.00">_odp_abi_cos_t</text>
</a>
</g>
</g>
<!-- Node2&#45;&gt;Node1 -->
<g id="edge1" class="edge"><title>Node2&#45;&gt;Node1</title>
<path fill="none" stroke="#9a32cd" stroke-dasharray="5,2" d="M376.46,-206.863C384.963,-204.607 393.753,-202.251 402,-200 436.748,-190.516 447.238,-192.969 480,-178 506.177,-166.04 533.518,-146.226 548.642,-134.511"/>
<polygon fill="#9a32cd" stroke="#9a32cd" points="375.434,-203.514 366.66,-209.454 377.223,-210.282 375.434,-203.514"/>
<text text-anchor="middle" x="450" y="-198" font-family="Helvetica,sans-Serif" font-size="10.00"> dest_cos</text>
</g>
<!-- Node3 -->
<g id="node3" class="node"><title>Node3</title>
<g id="a_node3"><a xlink:href="structodp__ipsec__lifetime__t.html" target="_top" xlink:title="IPSEC SA lifetime limits. ">
<polygon fill="white" stroke="black" points="272,-171.5 272,-190.5 386,-190.5 386,-171.5 272,-171.5"/>
<text text-anchor="middle" x="329" y="-178.5" font-family="Helvetica,sans-Serif" font-size="10.00">odp_ipsec_lifetime_t</text>
</a>
</g>
</g>
<!-- Node3&#45;&gt;Node1 -->
<g id="edge2" class="edge"><title>Node3&#45;&gt;Node1</title>
<path fill="none" stroke="#9a32cd" stroke-dasharray="5,2" d="M392.463,-169.503C419.514,-164.161 451.46,-157.362 480,-150 497.429,-145.504 516.694,-139.557 532.006,-134.591"/>
<polygon fill="#9a32cd" stroke="#9a32cd" points="391.495,-166.126 382.352,-171.478 392.837,-172.996 391.495,-166.126"/>
<text text-anchor="middle" x="450" y="-166" font-family="Helvetica,sans-Serif" font-size="10.00"> lifetime</text>
</g>
<!-- Node4 -->
<g id="node4" class="node"><title>Node4</title>
<g id="a_node4"><a xlink:href="struct__odp__abi__queue__t.html" target="_top" xlink:title="_odp_abi_queue_t">
<polygon fill="white" stroke="black" points="277,-133.5 277,-152.5 381,-152.5 381,-133.5 277,-133.5"/>
<text text-anchor="middle" x="329" y="-140.5" font-family="Helvetica,sans-Serif" font-size="10.00">_odp_abi_queue_t</text>
</a>
</g>
</g>
<!-- Node4&#45;&gt;Node1 -->
<g id="edge3" class="edge"><title>Node4&#45;&gt;Node1</title>
<path fill="none" stroke="#9a32cd" stroke-dasharray="5,2" d="M391.133,-138.226C424.13,-135.649 464.784,-132.475 497.99,-129.881"/>
<polygon fill="#9a32cd" stroke="#9a32cd" points="390.853,-134.737 381.155,-139.005 391.398,-141.716 390.853,-134.737"/>
<text text-anchor="middle" x="450" y="-138" font-family="Helvetica,sans-Serif" font-size="10.00"> dest_queue</text>
</g>
<!-- Node5 -->
<g id="node5" class="node"><title>Node5</title>
<g id="a_node5"><a xlink:href="structodp__ipsec__crypto__param__t.html" target="_top" xlink:title="IPSEC crypto parameters. ">
<polygon fill="white" stroke="black" points="256,-95.5 256,-114.5 402,-114.5 402,-95.5 256,-95.5"/>
<text text-anchor="middle" x="329" y="-102.5" font-family="Helvetica,sans-Serif" font-size="10.00">odp_ipsec_crypto_param_t</text>
</a>
</g>
</g>
<!-- Node5&#45;&gt;Node1 -->
<g id="edge4" class="edge"><title>Node5&#45;&gt;Node1</title>
<path fill="none" stroke="#9a32cd" stroke-dasharray="5,2" d="M412.14,-110.456C434.192,-112.075 458.016,-113.966 480,-116 485.741,-116.531 491.708,-117.123 497.682,-117.743"/>
<polygon fill="#9a32cd" stroke="#9a32cd" points="412.373,-106.963 402.146,-109.731 411.867,-113.945 412.373,-106.963"/>
<text text-anchor="middle" x="450" y="-119" font-family="Helvetica,sans-Serif" font-size="10.00"> crypto</text>
</g>
<!-- Node6 -->
<g id="node6" class="node"><title>Node6</title>
<g id="a_node6"><a xlink:href="structodp__crypto__key.html" target="_top" xlink:title="Crypto API key structure. ">
<polygon fill="white" stroke="black" points="21.5,-95.5 21.5,-114.5 113.5,-114.5 113.5,-95.5 21.5,-95.5"/>
<text text-anchor="middle" x="67.5" y="-102.5" font-family="Helvetica,sans-Serif" font-size="10.00">odp_crypto_key</text>
</a>
</g>
</g>
<!-- Node6&#45;&gt;Node5 -->
<g id="edge5" class="edge"><title>Node6&#45;&gt;Node5</title>
<path fill="none" stroke="#9a32cd" stroke-dasharray="5,2" d="M123.702,-105C162.254,-105 214.096,-105 255.909,-105"/>
<polygon fill="#9a32cd" stroke="#9a32cd" points="123.701,-101.5 113.701,-105 123.701,-108.5 123.701,-101.5"/>
<text text-anchor="middle" x="195.5" y="-141" font-family="Helvetica,sans-Serif" font-size="10.00"> cipher_key_extra</text>
<text text-anchor="middle" x="195.5" y="-130" font-family="Helvetica,sans-Serif" font-size="10.00">auth_key</text>
<text text-anchor="middle" x="195.5" y="-119" font-family="Helvetica,sans-Serif" font-size="10.00">cipher_key</text>
<text text-anchor="middle" x="195.5" y="-108" font-family="Helvetica,sans-Serif" font-size="10.00">auth_key_extra</text>
</g>
<!-- Node7 -->
<g id="node7" class="node"><title>Node7</title>
<g id="a_node7"><a xlink:href="structodp__ipsec__sa__opt__t.html" target="_top" xlink:title="IPSEC SA option flags. ">
<polygon fill="white" stroke="black" points="273.5,-57.5 273.5,-76.5 384.5,-76.5 384.5,-57.5 273.5,-57.5"/>
<text text-anchor="middle" x="329" y="-64.5" font-family="Helvetica,sans-Serif" font-size="10.00">odp_ipsec_sa_opt_t</text>
</a>
</g>
</g>
<!-- Node7&#45;&gt;Node1 -->
<g id="edge6" class="edge"><title>Node7&#45;&gt;Node1</title>
<path fill="none" stroke="#9a32cd" stroke-dasharray="5,2" d="M394.608,-77.2305C421.264,-82.0347 452.334,-88.3915 480,-96 499.479,-101.357 520.981,-109.207 536.859,-115.389"/>
<polygon fill="#9a32cd" stroke="#9a32cd" points="395.08,-73.7599 384.624,-75.4659 393.862,-80.6531 395.08,-73.7599"/>
<text text-anchor="middle" x="450" y="-99" font-family="Helvetica,sans-Serif" font-size="10.00"> opt</text>
</g>
<!-- Node8 -->
<g id="node8" class="node"><title>Node8</title>
<g id="a_node8"><a xlink:href="structodp__ipsec__tunnel__param__t.html" target="_top" xlink:title="IPSEC tunnel parameters. ">
<polygon fill="white" stroke="black" points="256,-19.5 256,-38.5 402,-38.5 402,-19.5 256,-19.5"/>
<text text-anchor="middle" x="329" y="-26.5" font-family="Helvetica,sans-Serif" font-size="10.00">odp_ipsec_tunnel_param_t</text>
</a>
</g>
</g>
<!-- Node8&#45;&gt;Node1 -->
<g id="edge7" class="edge"><title>Node8&#45;&gt;Node1</title>
<path fill="none" stroke="#9a32cd" stroke-dasharray="5,2" d="M398.589,-40.6883C424.815,-46.607 454.523,-55.1232 480,-67 507.478,-79.8096 535.222,-102.42 549.879,-115.301"/>
<polygon fill="#9a32cd" stroke="#9a32cd" points="399.239,-37.2481 388.724,-38.5455 397.753,-44.0886 399.239,-37.2481"/>
<text text-anchor="middle" x="450" y="-70" font-family="Helvetica,sans-Serif" font-size="10.00"> tunnel</text>
</g>
<!-- Node9 -->
<g id="node9" class="node"><title>Node9</title>
<g id="a_node9"><a xlink:href="structodp__ipsec__ipv4__param__t.html" target="_top" xlink:title="IPv4 header parameters. ">
<polygon fill="white" stroke="black" points="0,-38.5 0,-57.5 135,-57.5 135,-38.5 0,-38.5"/>
<text text-anchor="middle" x="67.5" y="-45.5" font-family="Helvetica,sans-Serif" font-size="10.00">odp_ipsec_ipv4_param_t</text>
</a>
</g>
</g>
<!-- Node9&#45;&gt;Node8 -->
<g id="edge8" class="edge"><title>Node9&#45;&gt;Node8</title>
<path fill="none" stroke="#9a32cd" stroke-dasharray="5,2" d="M145.49,-42.363C180.455,-39.8029 221.583,-36.7916 255.936,-34.2764"/>
<polygon fill="#9a32cd" stroke="#9a32cd" points="145.045,-38.8861 135.328,-43.107 145.557,-45.8674 145.045,-38.8861"/>
<text text-anchor="middle" x="195.5" y="-44" font-family="Helvetica,sans-Serif" font-size="10.00"> ipv4</text>
</g>
<!-- Node10 -->
<g id="node10" class="node"><title>Node10</title>
<g id="a_node10"><a xlink:href="structodp__ipsec__ipv6__param__t.html" target="_top" xlink:title="IPv6 header parameters. ">
<polygon fill="white" stroke="black" points="0,-0.5 0,-19.5 135,-19.5 135,-0.5 0,-0.5"/>
<text text-anchor="middle" x="67.5" y="-7.5" font-family="Helvetica,sans-Serif" font-size="10.00">odp_ipsec_ipv6_param_t</text>
</a>
</g>
</g>
<!-- Node10&#45;&gt;Node8 -->
<g id="edge9" class="edge"><title>Node10&#45;&gt;Node8</title>
<path fill="none" stroke="#9a32cd" stroke-dasharray="5,2" d="M145.439,-13.875C174.466,-15.5115 207.771,-17.5978 238,-20 243.792,-20.4602 249.789,-20.9755 255.812,-21.5201"/>
<polygon fill="#9a32cd" stroke="#9a32cd" points="145.541,-10.3754 135.362,-13.3152 145.152,-17.3646 145.541,-10.3754"/>
<text text-anchor="middle" x="195.5" y="-23" font-family="Helvetica,sans-Serif" font-size="10.00"> ipv6</text>
</g>
</g>
</svg>
