<?xml version="1.0" encoding="UTF-8" standalone="no"?>
<!DOCTYPE svg PUBLIC "-//W3C//DTD SVG 1.1//EN"
 "http://www.w3.org/Graphics/SVG/1.1/DTD/svg11.dtd">
<!-- Generated by graphviz version 2.38.0 (20140413.2041)
 -->
<!-- Title: threshold.h Pages: 1 -->
<svg width="102pt" height="364pt"
 viewBox="0.00 0.00 102.00 364.00" xmlns="http://www.w3.org/2000/svg" xmlns:xlink="http://www.w3.org/1999/xlink">
<g id="graph0" class="graph" transform="scale(1 1) rotate(0) translate(4 360)">
<title>threshold.h</title>
<polygon fill="white" stroke="none" points="-4,4 -4,-360 98,-360 98,4 -4,4"/>
<!-- Node8 -->
<g id="node1" class="node"><title>Node8</title>
<polygon fill="#bfbfbf" stroke="black" points="15.5,-336.5 15.5,-355.5 86.5,-355.5 86.5,-336.5 15.5,-336.5"/>
<text text-anchor="middle" x="51" y="-343.5" font-family="Helvetica,sans-Serif" font-size="10.00">threshold.h</text>
</g>
<!-- Node9 -->
<g id="node2" class="node"><title>Node9</title>
<g id="a_node2"><a xlink:href="api_2spec_2classification_8h.html" target="_top" xlink:title="ODP classification descriptor. ">
<polygon fill="white" stroke="black" points="8,-280.5 8,-299.5 94,-299.5 94,-280.5 8,-280.5"/>
<text text-anchor="middle" x="51" y="-287.5" font-family="Helvetica,sans-Serif" font-size="10.00">classification.h</text>
</a>
</g>
</g>
<!-- Node8&#45;&gt;Node9 -->
<g id="edge1" class="edge"><title>Node8&#45;&gt;Node9</title>
<path fill="none" stroke="midnightblue" d="M51,-325.805C51,-316.91 51,-306.78 51,-299.751"/>
<polygon fill="midnightblue" stroke="midnightblue" points="47.5001,-326.083 51,-336.083 54.5001,-326.083 47.5001,-326.083"/>
</g>
<!-- Node10 -->
<g id="node3" class="node"><title>Node10</title>
<g id="a_node3"><a xlink:href="api_2classification_8h.html" target="_top" xlink:title="ODP classification descriptor. ">
<polygon fill="white" stroke="black" points="8,-224.5 8,-243.5 94,-243.5 94,-224.5 8,-224.5"/>
<text text-anchor="middle" x="51" y="-231.5" font-family="Helvetica,sans-Serif" font-size="10.00">classification.h</text>
</a>
</g>
</g>
<!-- Node9&#45;&gt;Node10 -->
<g id="edge2" class="edge"><title>Node9&#45;&gt;Node10</title>
<path fill="none" stroke="midnightblue" d="M51,-269.805C51,-260.91 51,-250.78 51,-243.751"/>
<polygon fill="midnightblue" stroke="midnightblue" points="47.5001,-270.083 51,-280.083 54.5001,-270.083 47.5001,-270.083"/>
</g>
<!-- Node11 -->
<g id="node4" class="node"><title>Node11</title>
<g id="a_node4"><a xlink:href="api_2spec_2ipsec_8h.html" target="_top" xlink:title="ODP IPSEC API. ">
<polygon fill="white" stroke="black" points="0,-168.5 0,-187.5 50,-187.5 50,-168.5 0,-168.5"/>
<text text-anchor="middle" x="25" y="-175.5" font-family="Helvetica,sans-Serif" font-size="10.00">ipsec.h</text>
</a>
</g>
</g>
<!-- Node10&#45;&gt;Node11 -->
<g id="edge3" class="edge"><title>Node10&#45;&gt;Node11</title>
<path fill="none" stroke="midnightblue" d="M42.325,-214.983C37.9118,-205.817 32.7481,-195.092 29.2135,-187.751"/>
<polygon fill="midnightblue" stroke="midnightblue" points="39.2149,-216.591 46.7066,-224.083 45.5219,-213.555 39.2149,-216.591"/>
</g>
<!-- Node13 -->
<g id="node6" class="node"><title>Node13</title>
<g id="a_node6"><a xlink:href="odp__api_8h.html" target="_top" xlink:title="The OpenDataPlane API. ">
<polygon fill="white" stroke="black" points="19.5,-56.5 19.5,-75.5 82.5,-75.5 82.5,-56.5 19.5,-56.5"/>
<text text-anchor="middle" x="51" y="-63.5" font-family="Helvetica,sans-Serif" font-size="10.00">odp_api.h</text>
</a>
</g>
</g>
<!-- Node10&#45;&gt;Node13 -->
<g id="edge7" class="edge"><title>Node10&#45;&gt;Node13</title>
<path fill="none" stroke="midnightblue" d="M55.0315,-214.57C56.6085,-206.464 58.2236,-196.803 59,-188 61.9676,-154.353 61.9676,-145.647 59,-112 57.8706,-99.195 54.967,-84.576 52.9869,-75.5666"/>
<polygon fill="midnightblue" stroke="midnightblue" points="51.5896,-213.931 52.9869,-224.433 58.4439,-215.352 51.5896,-213.931"/>
</g>
<!-- Node12 -->
<g id="node5" class="node"><title>Node12</title>
<g id="a_node5"><a xlink:href="api_2ipsec_8h.html" target="_top" xlink:title="ODP IPSEC API &#45; platform specific header. ">
<polygon fill="white" stroke="black" points="0,-112.5 0,-131.5 50,-131.5 50,-112.5 0,-112.5"/>
<text text-anchor="middle" x="25" y="-119.5" font-family="Helvetica,sans-Serif" font-size="10.00">ipsec.h</text>
</a>
</g>
</g>
<!-- Node11&#45;&gt;Node12 -->
<g id="edge4" class="edge"><title>Node11&#45;&gt;Node12</title>
<path fill="none" stroke="midnightblue" d="M25,-157.805C25,-148.91 25,-138.78 25,-131.751"/>
<polygon fill="midnightblue" stroke="midnightblue" points="21.5001,-158.083 25,-168.083 28.5001,-158.083 21.5001,-158.083"/>
</g>
<!-- Node12&#45;&gt;Node13 -->
<g id="edge5" class="edge"><title>Node12&#45;&gt;Node13</title>
<path fill="none" stroke="midnightblue" d="M33.675,-102.983C38.0882,-93.8168 43.2519,-83.0922 46.7865,-75.7511"/>
<polygon fill="midnightblue" stroke="midnightblue" points="30.4781,-101.555 29.2934,-112.083 36.7851,-104.591 30.4781,-101.555"/>
</g>
<!-- Node14 -->
<g id="node7" class="node"><title>Node14</title>
<g id="a_node7"><a xlink:href="odp_8h.html" target="_top" xlink:title="WARNING: THIS FILE IS DEPRECATED AND WILL BE REMOVED!!! ODP APPLICATIONS SHOULD NOW INCLUDE odp_api...">
<polygon fill="white" stroke="black" points="29,-0.5 29,-19.5 73,-19.5 73,-0.5 29,-0.5"/>
<text text-anchor="middle" x="51" y="-7.5" font-family="Helvetica,sans-Serif" font-size="10.00">odp.h</text>
</a>
</g>
</g>
<!-- Node13&#45;&gt;Node14 -->
<g id="edge6" class="edge"><title>Node13&#45;&gt;Node14</title>
<path fill="none" stroke="midnightblue" d="M51,-45.8045C51,-36.9102 51,-26.7798 51,-19.7511"/>
<polygon fill="midnightblue" stroke="midnightblue" points="47.5001,-46.083 51,-56.083 54.5001,-46.083 47.5001,-46.083"/>
</g>
</g>
</svg>
