<?xml version="1.0" encoding="UTF-8" standalone="no"?>
<!DOCTYPE svg PUBLIC "-//W3C//DTD SVG 1.1//EN"
 "http://www.w3.org/Graphics/SVG/1.1/DTD/svg11.dtd">
<!-- Generated by graphviz version 2.38.0 (20140413.2041)
 -->
<!-- Title: threshold.h Pages: 1 -->
<svg width="388pt" height="252pt"
 viewBox="0.00 0.00 388.00 252.00" xmlns="http://www.w3.org/2000/svg" xmlns:xlink="http://www.w3.org/1999/xlink">
<g id="graph0" class="graph" transform="scale(1 1) rotate(0) translate(4 248)">
<title>threshold.h</title>
<polygon fill="white" stroke="none" points="-4,4 -4,-248 384,-248 384,4 -4,4"/>
<!-- Node0 -->
<g id="node1" class="node"><title>Node0</title>
<polygon fill="#bfbfbf" stroke="black" points="120,-224.5 120,-243.5 191,-243.5 191,-224.5 120,-224.5"/>
<text text-anchor="middle" x="155.5" y="-231.5" font-family="Helvetica,sans-Serif" font-size="10.00">threshold.h</text>
</g>
<!-- Node1 -->
<g id="node2" class="node"><title>Node1</title>
<g id="a_node2"><a xlink:href="spec_2threshold_8h.html" target="_top" xlink:title="ODP threshold descriptor. ">
<polygon fill="white" stroke="black" points="88.5,-168.5 88.5,-187.5 222.5,-187.5 222.5,-168.5 88.5,-168.5"/>
<text text-anchor="middle" x="155.5" y="-175.5" font-family="Helvetica,sans-Serif" font-size="10.00">odp/api/spec/threshold.h</text>
</a>
</g>
</g>
<!-- Node0&#45;&gt;Node1 -->
<g id="edge1" class="edge"><title>Node0&#45;&gt;Node1</title>
<path fill="none" stroke="midnightblue" d="M155.5,-224.083C155.5,-217.006 155.5,-206.861 155.5,-197.986"/>
<polygon fill="midnightblue" stroke="midnightblue" points="159,-197.751 155.5,-187.751 152,-197.751 159,-197.751"/>
</g>
<!-- Node2 -->
<g id="node3" class="node"><title>Node2</title>
<g id="a_node3"><a xlink:href="visibility__begin_8h_source.html" target="_top" xlink:title="odp/visibility_begin.h">
<polygon fill="white" stroke="black" points="0,-0.5 0,-19.5 115,-19.5 115,-0.5 0,-0.5"/>
<text text-anchor="middle" x="57.5" y="-7.5" font-family="Helvetica,sans-Serif" font-size="10.00">odp/visibility_begin.h</text>
</a>
</g>
</g>
<!-- Node1&#45;&gt;Node2 -->
<g id="edge2" class="edge"><title>Node1&#45;&gt;Node2</title>
<path fill="none" stroke="midnightblue" d="M130.445,-168.447C95.5035,-154.998 33.5078,-125.235 7.5,-76 -2.55785,-56.9595 16.7225,-37.7286 34.1847,-25.1787"/>
<polygon fill="midnightblue" stroke="midnightblue" points="36.1431,-28.0795 42.4745,-19.5846 32.2275,-22.2771 36.1431,-28.0795"/>
</g>
<!-- Node3 -->
<g id="node4" class="node"><title>Node3</title>
<g id="a_node4"><a xlink:href="api_2std__types_8h.html" target="_top" xlink:title="Standard C language types and definitions for ODP. ">
<polygon fill="white" stroke="black" points="100.5,-112.5 100.5,-131.5 210.5,-131.5 210.5,-112.5 100.5,-112.5"/>
<text text-anchor="middle" x="155.5" y="-119.5" font-family="Helvetica,sans-Serif" font-size="10.00">odp/api/std_types.h</text>
</a>
</g>
</g>
<!-- Node1&#45;&gt;Node3 -->
<g id="edge3" class="edge"><title>Node1&#45;&gt;Node3</title>
<path fill="none" stroke="midnightblue" d="M155.5,-168.083C155.5,-161.006 155.5,-150.861 155.5,-141.986"/>
<polygon fill="midnightblue" stroke="midnightblue" points="159,-141.751 155.5,-131.751 152,-141.751 159,-141.751"/>
</g>
<!-- Node7 -->
<g id="node8" class="node"><title>Node7</title>
<g id="a_node8"><a xlink:href="visibility__end_8h_source.html" target="_top" xlink:title="odp/visibility_end.h">
<polygon fill="white" stroke="black" points="273,-0.5 273,-19.5 380,-19.5 380,-0.5 273,-0.5"/>
<text text-anchor="middle" x="326.5" y="-7.5" font-family="Helvetica,sans-Serif" font-size="10.00">odp/visibility_end.h</text>
</a>
</g>
</g>
<!-- Node1&#45;&gt;Node7 -->
<g id="edge9" class="edge"><title>Node1&#45;&gt;Node7</title>
<path fill="none" stroke="midnightblue" d="M177.148,-168.438C210.23,-154.245 273.138,-122.701 307.5,-76 317.407,-62.5352 322.171,-43.9757 324.448,-30.1347"/>
<polygon fill="midnightblue" stroke="midnightblue" points="327.969,-30.2109 325.834,-19.8334 321.031,-29.2772 327.969,-30.2109"/>
</g>
<!-- Node4 -->
<g id="node5" class="node"><title>Node4</title>
<polygon fill="white" stroke="#bfbfbf" points="16.5,-56.5 16.5,-75.5 144.5,-75.5 144.5,-56.5 16.5,-56.5"/>
<text text-anchor="middle" x="80.5" y="-63.5" font-family="Helvetica,sans-Serif" font-size="10.00">odp/api/abi/std_types.h</text>
</g>
<!-- Node3&#45;&gt;Node4 -->
<g id="edge4" class="edge"><title>Node3&#45;&gt;Node4</title>
<path fill="none" stroke="midnightblue" d="M143.45,-112.324C132.037,-104.107 114.669,-91.6017 101.065,-81.8069"/>
<polygon fill="midnightblue" stroke="midnightblue" points="102.93,-78.8366 92.7693,-75.8339 98.8396,-84.5174 102.93,-78.8366"/>
</g>
<!-- Node5 -->
<g id="node6" class="node"><title>Node5</title>
<g id="a_node6"><a xlink:href="api_2spec_2std__types_8h.html" target="_top" xlink:title="Standard C language types and definitions for ODP. ">
<polygon fill="white" stroke="black" points="162.5,-56.5 162.5,-75.5 298.5,-75.5 298.5,-56.5 162.5,-56.5"/>
<text text-anchor="middle" x="230.5" y="-63.5" font-family="Helvetica,sans-Serif" font-size="10.00">odp/api/spec/std_types.h</text>
</a>
</g>
</g>
<!-- Node3&#45;&gt;Node5 -->
<g id="edge5" class="edge"><title>Node3&#45;&gt;Node5</title>
<path fill="none" stroke="midnightblue" d="M167.55,-112.324C178.963,-104.107 196.331,-91.6017 209.935,-81.8069"/>
<polygon fill="midnightblue" stroke="midnightblue" points="212.16,-84.5174 218.231,-75.8339 208.07,-78.8366 212.16,-84.5174"/>
</g>
<!-- Node5&#45;&gt;Node2 -->
<g id="edge6" class="edge"><title>Node5&#45;&gt;Node2</title>
<path fill="none" stroke="midnightblue" d="M203.088,-56.4435C173.731,-47.2801 126.981,-32.6876 94.4041,-22.5192"/>
<polygon fill="midnightblue" stroke="midnightblue" points="95.3728,-19.1551 84.7841,-19.5164 93.287,-25.8371 95.3728,-19.1551"/>
</g>
<!-- Node6 -->
<g id="node7" class="node"><title>Node6</title>
<polygon fill="white" stroke="#bfbfbf" points="202,-0.5 202,-19.5 255,-19.5 255,-0.5 202,-0.5"/>
<text text-anchor="middle" x="228.5" y="-7.5" font-family="Helvetica,sans-Serif" font-size="10.00">stdint.h</text>
</g>
<!-- Node5&#45;&gt;Node6 -->
<g id="edge7" class="edge"><title>Node5&#45;&gt;Node6</title>
<path fill="none" stroke="midnightblue" d="M230.17,-56.083C229.908,-49.0059 229.532,-38.8611 229.203,-29.9865"/>
<polygon fill="midnightblue" stroke="midnightblue" points="232.692,-29.6147 228.824,-19.7511 225.697,-29.8738 232.692,-29.6147"/>
</g>
<!-- Node5&#45;&gt;Node7 -->
<g id="edge8" class="edge"><title>Node5&#45;&gt;Node7</title>
<path fill="none" stroke="midnightblue" d="M245.924,-56.324C261.04,-47.8215 284.315,-34.7288 301.971,-24.7975"/>
<polygon fill="midnightblue" stroke="midnightblue" points="304.114,-27.6077 311.114,-19.6545 300.683,-21.5066 304.114,-27.6077"/>
</g>
</g>
</svg>
