<?xml version="1.0" encoding="UTF-8" standalone="no"?>
<!DOCTYPE svg PUBLIC "-//W3C//DTD SVG 1.1//EN"
 "http://www.w3.org/Graphics/SVG/1.1/DTD/svg11.dtd">
<!-- Generated by graphviz version 2.38.0 (20140413.2041)
 -->
<!-- Title: thrmask.h Pages: 1 -->
<svg width="335pt" height="196pt"
 viewBox="0.00 0.00 335.00 196.00" xmlns="http://www.w3.org/2000/svg" xmlns:xlink="http://www.w3.org/1999/xlink">
<g id="graph0" class="graph" transform="scale(1 1) rotate(0) translate(4 192)">
<title>thrmask.h</title>
<polygon fill="white" stroke="none" points="-4,4 -4,-192 331,-192 331,4 -4,4"/>
<!-- Node0 -->
<g id="node1" class="node"><title>Node0</title>
<polygon fill="#bfbfbf" stroke="black" points="103,-168.5 103,-187.5 168,-187.5 168,-168.5 103,-168.5"/>
<text text-anchor="middle" x="135.5" y="-175.5" font-family="Helvetica,sans-Serif" font-size="10.00">thrmask.h</text>
</g>
<!-- Node1 -->
<g id="node2" class="node"><title>Node1</title>
<g id="a_node2"><a xlink:href="cpumask_8h.html" target="_top" xlink:title="ODP CPU masks and enumeration. ">
<polygon fill="white" stroke="black" points="82,-112.5 82,-131.5 189,-131.5 189,-112.5 82,-112.5"/>
<text text-anchor="middle" x="135.5" y="-119.5" font-family="Helvetica,sans-Serif" font-size="10.00">odp/api/cpumask.h</text>
</a>
</g>
</g>
<!-- Node0&#45;&gt;Node1 -->
<g id="edge1" class="edge"><title>Node0&#45;&gt;Node1</title>
<path fill="none" stroke="midnightblue" d="M135.5,-168.083C135.5,-161.006 135.5,-150.861 135.5,-141.986"/>
<polygon fill="midnightblue" stroke="midnightblue" points="139,-141.751 135.5,-131.751 132,-141.751 139,-141.751"/>
</g>
<!-- Node2 -->
<g id="node3" class="node"><title>Node2</title>
<polygon fill="white" stroke="#bfbfbf" points="-7.10543e-15,-56.5 -7.10543e-15,-75.5 125,-75.5 125,-56.5 -7.10543e-15,-56.5"/>
<text text-anchor="middle" x="62.5" y="-63.5" font-family="Helvetica,sans-Serif" font-size="10.00">odp/api/abi/cpumask.h</text>
</g>
<!-- Node1&#45;&gt;Node2 -->
<g id="edge2" class="edge"><title>Node1&#45;&gt;Node2</title>
<path fill="none" stroke="midnightblue" d="M123.771,-112.324C112.663,-104.107 95.7578,-91.6017 82.5167,-81.8069"/>
<polygon fill="midnightblue" stroke="midnightblue" points="84.5631,-78.9671 74.4421,-75.8339 80.4001,-84.5948 84.5631,-78.9671"/>
</g>
<!-- Node3 -->
<g id="node4" class="node"><title>Node3</title>
<g id="a_node4"><a xlink:href="spec_2cpumask_8h.html" target="_top" xlink:title="ODP CPU masks and enumeration. ">
<polygon fill="white" stroke="black" points="143,-56.5 143,-75.5 276,-75.5 276,-56.5 143,-56.5"/>
<text text-anchor="middle" x="209.5" y="-63.5" font-family="Helvetica,sans-Serif" font-size="10.00">odp/api/spec/cpumask.h</text>
</a>
</g>
</g>
<!-- Node1&#45;&gt;Node3 -->
<g id="edge3" class="edge"><title>Node1&#45;&gt;Node3</title>
<path fill="none" stroke="midnightblue" d="M147.389,-112.324C158.65,-104.107 175.787,-91.6017 189.209,-81.8069"/>
<polygon fill="midnightblue" stroke="midnightblue" points="191.38,-84.5559 197.394,-75.8339 187.253,-78.9014 191.38,-84.5559"/>
</g>
<!-- Node4 -->
<g id="node5" class="node"><title>Node4</title>
<polygon fill="white" stroke="#bfbfbf" points="87,-0.5 87,-19.5 202,-19.5 202,-0.5 87,-0.5"/>
<text text-anchor="middle" x="144.5" y="-7.5" font-family="Helvetica,sans-Serif" font-size="10.00">odp/visibility_begin.h</text>
</g>
<!-- Node3&#45;&gt;Node4 -->
<g id="edge4" class="edge"><title>Node3&#45;&gt;Node4</title>
<path fill="none" stroke="midnightblue" d="M199.057,-56.324C189.354,-48.2631 174.685,-36.0765 163,-26.3695"/>
<polygon fill="midnightblue" stroke="midnightblue" points="165.062,-23.532 155.133,-19.8339 160.589,-28.9163 165.062,-23.532"/>
</g>
<!-- Node5 -->
<g id="node6" class="node"><title>Node5</title>
<polygon fill="white" stroke="#bfbfbf" points="220,-0.5 220,-19.5 327,-19.5 327,-0.5 220,-0.5"/>
<text text-anchor="middle" x="273.5" y="-7.5" font-family="Helvetica,sans-Serif" font-size="10.00">odp/visibility_end.h</text>
</g>
<!-- Node3&#45;&gt;Node5 -->
<g id="edge5" class="edge"><title>Node3&#45;&gt;Node5</title>
<path fill="none" stroke="midnightblue" d="M219.783,-56.324C229.336,-48.2631 243.78,-36.0765 255.284,-26.3695"/>
<polygon fill="midnightblue" stroke="midnightblue" points="257.644,-28.9577 263.03,-19.8339 253.13,-23.6076 257.644,-28.9577"/>
</g>
</g>
</svg>
