<?xml version="1.0" encoding="UTF-8" standalone="no"?>
<!DOCTYPE svg PUBLIC "-//W3C//DTD SVG 1.1//EN"
 "http://www.w3.org/Graphics/SVG/1.1/DTD/svg11.dtd">
<!-- Generated by graphviz version 2.38.0 (20140413.2041)
 -->
<!-- Title: atomic.h Pages: 1 -->
<svg width="319pt" height="140pt"
 viewBox="0.00 0.00 318.50 140.00" xmlns="http://www.w3.org/2000/svg" xmlns:xlink="http://www.w3.org/1999/xlink">
<g id="graph0" class="graph" transform="scale(1 1) rotate(0) translate(4 136)">
<title>atomic.h</title>
<polygon fill="white" stroke="none" points="-4,4 -4,-136 314.5,-136 314.5,4 -4,4"/>
<!-- Node0 -->
<g id="node1" class="node"><title>Node0</title>
<polygon fill="#bfbfbf" stroke="black" points="95.5,-112.5 95.5,-131.5 154.5,-131.5 154.5,-112.5 95.5,-112.5"/>
<text text-anchor="middle" x="125" y="-119.5" font-family="Helvetica,sans-Serif" font-size="10.00">atomic.h</text>
</g>
<!-- Node1 -->
<g id="node2" class="node"><title>Node1</title>
<polygon fill="white" stroke="#bfbfbf" points="0,-56.5 0,-75.5 114,-75.5 114,-56.5 0,-56.5"/>
<text text-anchor="middle" x="57" y="-63.5" font-family="Helvetica,sans-Serif" font-size="10.00">odp/api/abi/atomic.h</text>
</g>
<!-- Node0&#45;&gt;Node1 -->
<g id="edge1" class="edge"><title>Node0&#45;&gt;Node1</title>
<path fill="none" stroke="midnightblue" d="M114.075,-112.324C103.825,-104.185 88.2794,-91.8395 75.999,-82.0874"/>
<polygon fill="midnightblue" stroke="midnightblue" points="78.1319,-79.3119 68.1242,-75.8339 73.7787,-84.7937 78.1319,-79.3119"/>
</g>
<!-- Node2 -->
<g id="node3" class="node"><title>Node2</title>
<g id="a_node3"><a xlink:href="spec_2atomic_8h.html" target="_top" xlink:title="ODP atomic operations. ">
<polygon fill="white" stroke="black" points="132,-56.5 132,-75.5 254,-75.5 254,-56.5 132,-56.5"/>
<text text-anchor="middle" x="193" y="-63.5" font-family="Helvetica,sans-Serif" font-size="10.00">odp/api/spec/atomic.h</text>
</a>
</g>
</g>
<!-- Node0&#45;&gt;Node2 -->
<g id="edge2" class="edge"><title>Node0&#45;&gt;Node2</title>
<path fill="none" stroke="midnightblue" d="M135.925,-112.324C146.175,-104.185 161.721,-91.8395 174.001,-82.0874"/>
<polygon fill="midnightblue" stroke="midnightblue" points="176.221,-84.7937 181.876,-75.8339 171.868,-79.3119 176.221,-84.7937"/>
</g>
<!-- Node3 -->
<g id="node4" class="node"><title>Node3</title>
<polygon fill="white" stroke="#bfbfbf" points="70.5,-0.5 70.5,-19.5 185.5,-19.5 185.5,-0.5 70.5,-0.5"/>
<text text-anchor="middle" x="128" y="-7.5" font-family="Helvetica,sans-Serif" font-size="10.00">odp/visibility_begin.h</text>
</g>
<!-- Node2&#45;&gt;Node3 -->
<g id="edge3" class="edge"><title>Node2&#45;&gt;Node3</title>
<path fill="none" stroke="midnightblue" d="M182.557,-56.324C172.854,-48.2631 158.185,-36.0765 146.5,-26.3695"/>
<polygon fill="midnightblue" stroke="midnightblue" points="148.562,-23.532 138.633,-19.8339 144.089,-28.9163 148.562,-23.532"/>
</g>
<!-- Node4 -->
<g id="node5" class="node"><title>Node4</title>
<polygon fill="white" stroke="#bfbfbf" points="203.5,-0.5 203.5,-19.5 310.5,-19.5 310.5,-0.5 203.5,-0.5"/>
<text text-anchor="middle" x="257" y="-7.5" font-family="Helvetica,sans-Serif" font-size="10.00">odp/visibility_end.h</text>
</g>
<!-- Node2&#45;&gt;Node4 -->
<g id="edge4" class="edge"><title>Node2&#45;&gt;Node4</title>
<path fill="none" stroke="midnightblue" d="M203.283,-56.324C212.836,-48.2631 227.28,-36.0765 238.784,-26.3695"/>
<polygon fill="midnightblue" stroke="midnightblue" points="241.144,-28.9577 246.53,-19.8339 236.63,-23.6076 241.144,-28.9577"/>
</g>
</g>
</svg>
