<?xml version="1.0" encoding="UTF-8" standalone="no"?>
<!DOCTYPE svg PUBLIC "-//W3C//DTD SVG 1.1//EN"
 "http://www.w3.org/Graphics/SVG/1.1/DTD/svg11.dtd">
<!-- Generated by graphviz version 2.38.0 (20140413.2041)
 -->
<!-- Title: atomic.h Pages: 1 -->
<svg width="425pt" height="84pt"
 viewBox="0.00 0.00 425.00 84.00" xmlns="http://www.w3.org/2000/svg" xmlns:xlink="http://www.w3.org/1999/xlink">
<g id="graph0" class="graph" transform="scale(1 1) rotate(0) translate(4 80)">
<title>atomic.h</title>
<polygon fill="white" stroke="none" points="-4,4 -4,-80 421,-80 421,4 -4,4"/>
<!-- Node5 -->
<g id="node1" class="node"><title>Node5</title>
<polygon fill="#bfbfbf" stroke="black" points="153.5,-56.5 153.5,-75.5 212.5,-75.5 212.5,-56.5 153.5,-56.5"/>
<text text-anchor="middle" x="183" y="-63.5" font-family="Helvetica,sans-Serif" font-size="10.00">atomic.h</text>
</g>
<!-- Node6 -->
<g id="node2" class="node"><title>Node6</title>
<g id="a_node2"><a xlink:href="abi-default_2barrier_8h.html" target="_top" xlink:title="ODP barrier. ">
<polygon fill="white" stroke="black" points="0,-0.5 0,-19.5 56,-19.5 56,-0.5 0,-0.5"/>
<text text-anchor="middle" x="28" y="-7.5" font-family="Helvetica,sans-Serif" font-size="10.00">barrier.h</text>
</a>
</g>
</g>
<!-- Node5&#45;&gt;Node6 -->
<g id="edge1" class="edge"><title>Node5&#45;&gt;Node6</title>
<path fill="none" stroke="midnightblue" d="M148.668,-53.0392C119.503,-42.8786 78.3627,-28.5457 52.4453,-19.5164"/>
<polygon fill="midnightblue" stroke="midnightblue" points="147.845,-56.4587 158.44,-56.4435 150.148,-49.8484 147.845,-56.4587"/>
</g>
<!-- Node7 -->
<g id="node3" class="node"><title>Node7</title>
<g id="a_node3"><a xlink:href="abi-default_2rwlock_8h.html" target="_top" xlink:title="ODP rwlock. ">
<polygon fill="white" stroke="black" points="74.5,-0.5 74.5,-19.5 129.5,-19.5 129.5,-0.5 74.5,-0.5"/>
<text text-anchor="middle" x="102" y="-7.5" font-family="Helvetica,sans-Serif" font-size="10.00">rwlock.h</text>
</a>
</g>
</g>
<!-- Node5&#45;&gt;Node7 -->
<g id="edge2" class="edge"><title>Node5&#45;&gt;Node7</title>
<path fill="none" stroke="midnightblue" d="M161.433,-50.6221C146.636,-40.7574 127.488,-27.9919 114.982,-19.6545"/>
<polygon fill="midnightblue" stroke="midnightblue" points="159.724,-53.6891 169.986,-56.324 163.607,-47.8647 159.724,-53.6891"/>
</g>
<!-- Node8 -->
<g id="node4" class="node"><title>Node8</title>
<g id="a_node4"><a xlink:href="abi-default_2ticketlock_8h.html" target="_top" xlink:title="ODP ticketlock. ">
<polygon fill="white" stroke="black" points="147.5,-0.5 147.5,-19.5 218.5,-19.5 218.5,-0.5 147.5,-0.5"/>
<text text-anchor="middle" x="183" y="-7.5" font-family="Helvetica,sans-Serif" font-size="10.00">ticketlock.h</text>
</a>
</g>
</g>
<!-- Node5&#45;&gt;Node8 -->
<g id="edge3" class="edge"><title>Node5&#45;&gt;Node8</title>
<path fill="none" stroke="midnightblue" d="M183,-45.8045C183,-36.9102 183,-26.7798 183,-19.7511"/>
<polygon fill="midnightblue" stroke="midnightblue" points="179.5,-46.083 183,-56.083 186.5,-46.083 179.5,-46.083"/>
</g>
<!-- Node9 -->
<g id="node5" class="node"><title>Node9</title>
<g id="a_node5"><a xlink:href="barrier_8h.html" target="_top" xlink:title="ODP execution barriers. ">
<polygon fill="white" stroke="black" points="237,-0.5 237,-19.5 293,-19.5 293,-0.5 237,-0.5"/>
<text text-anchor="middle" x="265" y="-7.5" font-family="Helvetica,sans-Serif" font-size="10.00">barrier.h</text>
</a>
</g>
</g>
<!-- Node5&#45;&gt;Node9 -->
<g id="edge4" class="edge"><title>Node5&#45;&gt;Node9</title>
<path fill="none" stroke="midnightblue" d="M204.833,-50.6221C219.813,-40.7574 239.197,-27.9919 251.858,-19.6545"/>
<polygon fill="midnightblue" stroke="midnightblue" points="202.601,-47.9009 196.175,-56.324 206.451,-53.7471 202.601,-47.9009"/>
</g>
<!-- Node10 -->
<g id="node6" class="node"><title>Node10</title>
<g id="a_node6"><a xlink:href="ticketlock__inlines_8h_source.html" target="_top" xlink:title="ticketlock_inlines.h">
<polygon fill="white" stroke="black" points="311,-0.5 311,-19.5 417,-19.5 417,-0.5 311,-0.5"/>
<text text-anchor="middle" x="364" y="-7.5" font-family="Helvetica,sans-Serif" font-size="10.00">ticketlock_inlines.h</text>
</a>
</g>
</g>
<!-- Node5&#45;&gt;Node10 -->
<g id="edge5" class="edge"><title>Node5&#45;&gt;Node10</title>
<path fill="none" stroke="midnightblue" d="M221.319,-53.5677C255.464,-43.381 304.661,-28.7034 335.454,-19.5164"/>
<polygon fill="midnightblue" stroke="midnightblue" points="220.262,-50.2306 211.68,-56.4435 222.263,-56.9385 220.262,-50.2306"/>
</g>
</g>
</svg>
