<?xml version="1.0" encoding="UTF-8" standalone="no"?>
<!DOCTYPE svg PUBLIC "-//W3C//DTD SVG 1.1//EN"
 "http://www.w3.org/Graphics/SVG/1.1/DTD/svg11.dtd">
<!-- Generated by graphviz version 2.38.0 (20140413.2041)
 -->
<!-- Title: buffer.h Pages: 1 -->
<svg width="717pt" height="196pt"
 viewBox="0.00 0.00 716.50 196.00" xmlns="http://www.w3.org/2000/svg" xmlns:xlink="http://www.w3.org/1999/xlink">
<g id="graph0" class="graph" transform="scale(1 1) rotate(0) translate(4 192)">
<title>buffer.h</title>
<polygon fill="white" stroke="none" points="-4,4 -4,-192 712.5,-192 712.5,4 -4,4"/>
<!-- Node0 -->
<g id="node1" class="node"><title>Node0</title>
<polygon fill="#bfbfbf" stroke="black" points="382.5,-168.5 382.5,-187.5 435.5,-187.5 435.5,-168.5 382.5,-168.5"/>
<text text-anchor="middle" x="409" y="-175.5" font-family="Helvetica,sans-Serif" font-size="10.00">buffer.h</text>
</g>
<!-- Node1 -->
<g id="node2" class="node"><title>Node1</title>
<g id="a_node2"><a xlink:href="std__types_8h.html" target="_top" xlink:title="Standard C language types and definitions for ODP. ">
<polygon fill="white" stroke="black" points="159,-112.5 159,-131.5 269,-131.5 269,-112.5 159,-112.5"/>
<text text-anchor="middle" x="214" y="-119.5" font-family="Helvetica,sans-Serif" font-size="10.00">odp/api/std_types.h</text>
</a>
</g>
</g>
<!-- Node0&#45;&gt;Node1 -->
<g id="edge1" class="edge"><title>Node0&#45;&gt;Node1</title>
<path fill="none" stroke="midnightblue" d="M382.295,-169.605C349.357,-160.483 293.03,-144.885 254.695,-134.269"/>
<polygon fill="midnightblue" stroke="midnightblue" points="255.45,-130.847 244.878,-131.551 253.581,-137.593 255.45,-130.847"/>
</g>
<!-- Node7 -->
<g id="node8" class="node"><title>Node7</title>
<polygon fill="white" stroke="#bfbfbf" points="355,-112.5 355,-131.5 463,-131.5 463,-112.5 355,-112.5"/>
<text text-anchor="middle" x="409" y="-119.5" font-family="Helvetica,sans-Serif" font-size="10.00">odp/api/abi/event.h</text>
</g>
<!-- Node0&#45;&gt;Node7 -->
<g id="edge7" class="edge"><title>Node0&#45;&gt;Node7</title>
<path fill="none" stroke="midnightblue" d="M409,-168.083C409,-161.006 409,-150.861 409,-141.986"/>
<polygon fill="midnightblue" stroke="midnightblue" points="412.5,-141.751 409,-131.751 405.5,-141.751 412.5,-141.751"/>
</g>
<!-- Node8 -->
<g id="node9" class="node"><title>Node8</title>
<polygon fill="white" stroke="#bfbfbf" points="481,-112.5 481,-131.5 589,-131.5 589,-112.5 481,-112.5"/>
<text text-anchor="middle" x="535" y="-119.5" font-family="Helvetica,sans-Serif" font-size="10.00">odp/api/abi/buffer.h</text>
</g>
<!-- Node0&#45;&gt;Node8 -->
<g id="edge8" class="edge"><title>Node0&#45;&gt;Node8</title>
<path fill="none" stroke="midnightblue" d="M428.965,-168.444C449.609,-159.596 482.063,-145.687 505.632,-135.586"/>
<polygon fill="midnightblue" stroke="midnightblue" points="507.316,-138.673 515.128,-131.516 504.558,-132.239 507.316,-138.673"/>
</g>
<!-- Node9 -->
<g id="node10" class="node"><title>Node9</title>
<polygon fill="white" stroke="#bfbfbf" points="607.5,-112.5 607.5,-131.5 708.5,-131.5 708.5,-112.5 607.5,-112.5"/>
<text text-anchor="middle" x="658" y="-119.5" font-family="Helvetica,sans-Serif" font-size="10.00">odp/api/abi/pool.h</text>
</g>
<!-- Node0&#45;&gt;Node9 -->
<g id="edge9" class="edge"><title>Node0&#45;&gt;Node9</title>
<path fill="none" stroke="midnightblue" d="M435.647,-171.221C476.814,-162.293 556.539,-145.004 608.493,-133.737"/>
<polygon fill="midnightblue" stroke="midnightblue" points="609.463,-137.108 618.494,-131.568 607.979,-130.267 609.463,-137.108"/>
</g>
<!-- Node10 -->
<g id="node11" class="node"><title>Node10</title>
<g id="a_node11"><a xlink:href="spec_2buffer_8h.html" target="_top" xlink:title="ODP buffer descriptor. ">
<polygon fill="white" stroke="black" points="300,-56.5 300,-75.5 416,-75.5 416,-56.5 300,-56.5"/>
<text text-anchor="middle" x="358" y="-63.5" font-family="Helvetica,sans-Serif" font-size="10.00">odp/api/spec/buffer.h</text>
</a>
</g>
</g>
<!-- Node0&#45;&gt;Node10 -->
<g id="edge10" class="edge"><title>Node0&#45;&gt;Node10</title>
<path fill="none" stroke="midnightblue" d="M388.153,-168.427C373.422,-161.129 354.795,-149.091 346,-132 338.468,-117.364 343.144,-98.7234 348.712,-85.1602"/>
<polygon fill="midnightblue" stroke="midnightblue" points="351.959,-86.4765 352.956,-75.9287 345.599,-83.5523 351.959,-86.4765"/>
</g>
<!-- Node2 -->
<g id="node3" class="node"><title>Node2</title>
<polygon fill="white" stroke="#bfbfbf" points="0,-56.5 0,-75.5 128,-75.5 128,-56.5 0,-56.5"/>
<text text-anchor="middle" x="64" y="-63.5" font-family="Helvetica,sans-Serif" font-size="10.00">odp/api/abi/std_types.h</text>
</g>
<!-- Node1&#45;&gt;Node2 -->
<g id="edge2" class="edge"><title>Node1&#45;&gt;Node2</title>
<path fill="none" stroke="midnightblue" d="M190.232,-112.444C165.107,-103.399 125.289,-89.064 97.0996,-78.9158"/>
<polygon fill="midnightblue" stroke="midnightblue" points="98.2512,-75.6106 87.6567,-75.5164 95.8801,-82.1968 98.2512,-75.6106"/>
</g>
<!-- Node3 -->
<g id="node4" class="node"><title>Node3</title>
<g id="a_node4"><a xlink:href="spec_2std__types_8h.html" target="_top" xlink:title="Standard C language types and definitions for ODP. ">
<polygon fill="white" stroke="black" points="146,-56.5 146,-75.5 282,-75.5 282,-56.5 146,-56.5"/>
<text text-anchor="middle" x="214" y="-63.5" font-family="Helvetica,sans-Serif" font-size="10.00">odp/api/spec/std_types.h</text>
</a>
</g>
</g>
<!-- Node1&#45;&gt;Node3 -->
<g id="edge3" class="edge"><title>Node1&#45;&gt;Node3</title>
<path fill="none" stroke="midnightblue" d="M214,-112.083C214,-105.006 214,-94.8611 214,-85.9865"/>
<polygon fill="midnightblue" stroke="midnightblue" points="217.5,-85.751 214,-75.7511 210.5,-85.7511 217.5,-85.751"/>
</g>
<!-- Node4 -->
<g id="node5" class="node"><title>Node4</title>
<polygon fill="white" stroke="#bfbfbf" points="300.5,-0.5 300.5,-19.5 415.5,-19.5 415.5,-0.5 300.5,-0.5"/>
<text text-anchor="middle" x="358" y="-7.5" font-family="Helvetica,sans-Serif" font-size="10.00">odp/visibility_begin.h</text>
</g>
<!-- Node3&#45;&gt;Node4 -->
<g id="edge4" class="edge"><title>Node3&#45;&gt;Node4</title>
<path fill="none" stroke="midnightblue" d="M236.817,-56.4435C260.832,-47.4381 298.829,-33.1891 325.869,-23.049"/>
<polygon fill="midnightblue" stroke="midnightblue" points="327.155,-26.3049 335.29,-19.5164 324.697,-19.7506 327.155,-26.3049"/>
</g>
<!-- Node5 -->
<g id="node6" class="node"><title>Node5</title>
<polygon fill="white" stroke="#bfbfbf" points="104.5,-0.5 104.5,-19.5 157.5,-19.5 157.5,-0.5 104.5,-0.5"/>
<text text-anchor="middle" x="131" y="-7.5" font-family="Helvetica,sans-Serif" font-size="10.00">stdint.h</text>
</g>
<!-- Node3&#45;&gt;Node5 -->
<g id="edge5" class="edge"><title>Node3&#45;&gt;Node5</title>
<path fill="none" stroke="midnightblue" d="M200.665,-56.324C187.838,-47.979 168.215,-35.2122 153.06,-25.3524"/>
<polygon fill="midnightblue" stroke="midnightblue" points="154.593,-22.1742 144.302,-19.6545 150.776,-28.0417 154.593,-22.1742"/>
</g>
<!-- Node6 -->
<g id="node7" class="node"><title>Node6</title>
<polygon fill="white" stroke="#bfbfbf" points="175.5,-0.5 175.5,-19.5 282.5,-19.5 282.5,-0.5 175.5,-0.5"/>
<text text-anchor="middle" x="229" y="-7.5" font-family="Helvetica,sans-Serif" font-size="10.00">odp/visibility_end.h</text>
</g>
<!-- Node3&#45;&gt;Node6 -->
<g id="edge6" class="edge"><title>Node3&#45;&gt;Node6</title>
<path fill="none" stroke="midnightblue" d="M216.477,-56.083C218.486,-48.8486 221.386,-38.4087 223.89,-29.3968"/>
<polygon fill="midnightblue" stroke="midnightblue" points="227.265,-30.323 226.569,-19.7511 220.52,-28.4495 227.265,-30.323"/>
</g>
<!-- Node10&#45;&gt;Node4 -->
<g id="edge11" class="edge"><title>Node10&#45;&gt;Node4</title>
<path fill="none" stroke="midnightblue" d="M358,-56.083C358,-49.0059 358,-38.8611 358,-29.9865"/>
<polygon fill="midnightblue" stroke="midnightblue" points="361.5,-29.751 358,-19.7511 354.5,-29.7511 361.5,-29.751"/>
</g>
<!-- Node10&#45;&gt;Node6 -->
<g id="edge12" class="edge"><title>Node10&#45;&gt;Node6</title>
<path fill="none" stroke="midnightblue" d="M337.56,-56.4435C316.33,-47.5566 282.901,-33.5632 258.745,-23.4514"/>
<polygon fill="midnightblue" stroke="midnightblue" points="259.921,-20.1493 249.345,-19.5164 257.218,-26.6064 259.921,-20.1493"/>
</g>
</g>
</svg>
