<?xml version="1.0" encoding="UTF-8" standalone="no"?>
<!DOCTYPE svg PUBLIC "-//W3C//DTD SVG 1.1//EN"
 "http://www.w3.org/Graphics/SVG/1.1/DTD/svg11.dtd">
<!-- Generated by graphviz version 2.38.0 (20140413.2041)
 -->
<!-- Title: classification.h Pages: 1 -->
<svg width="1737pt" height="789pt"
 viewBox="0.00 0.00 1737.00 789.00" xmlns="http://www.w3.org/2000/svg" xmlns:xlink="http://www.w3.org/1999/xlink">
<g id="graph0" class="graph" transform="scale(1 1) rotate(0) translate(4 785)">
<title>classification.h</title>
<polygon fill="white" stroke="none" points="-4,4 -4,-785 1733,-785 1733,4 -4,4"/>
<!-- Node0 -->
<g id="node1" class="node"><title>Node0</title>
<polygon fill="#bfbfbf" stroke="black" points="500,-761.5 500,-780.5 586,-780.5 586,-761.5 500,-761.5"/>
<text text-anchor="middle" x="543" y="-768.5" font-family="Helvetica,sans-Serif" font-size="10.00">classification.h</text>
</g>
<!-- Node1 -->
<g id="node2" class="node"><title>Node1</title>
<g id="a_node2"><a xlink:href="std__types_8h.html" target="_top" xlink:title="Standard C language types and definitions for ODP. ">
<polygon fill="white" stroke="black" points="410,-123.5 410,-142.5 520,-142.5 520,-123.5 410,-123.5"/>
<text text-anchor="middle" x="465" y="-130.5" font-family="Helvetica,sans-Serif" font-size="10.00">odp/api/std_types.h</text>
</a>
</g>
</g>
<!-- Node0&#45;&gt;Node1 -->
<g id="edge1" class="edge"><title>Node0&#45;&gt;Node1</title>
<path fill="none" stroke="midnightblue" d="M499.944,-769.747C377.821,-767.879 38,-754.216 38,-660 38,-660 38,-660 38,-255 38,-180.786 279.78,-149.748 399.47,-138.929"/>
<polygon fill="midnightblue" stroke="midnightblue" points="399.961,-142.4 409.615,-138.034 399.346,-135.427 399.961,-142.4"/>
</g>
<!-- Node7 -->
<g id="node8" class="node"><title>Node7</title>
<polygon fill="white" stroke="#bfbfbf" points="837.5,-246.5 837.5,-265.5 938.5,-265.5 938.5,-246.5 837.5,-246.5"/>
<text text-anchor="middle" x="888" y="-253.5" font-family="Helvetica,sans-Serif" font-size="10.00">odp/api/abi/pool.h</text>
</g>
<!-- Node0&#45;&gt;Node7 -->
<g id="edge7" class="edge"><title>Node0&#45;&gt;Node7</title>
<path fill="none" stroke="midnightblue" d="M586.234,-769.56C771.007,-767.117 1485,-751.743 1485,-660 1485,-660 1485,-660 1485,-602 1485,-344.11 929,-693.89 929,-436 929,-436 929,-436 929,-378 929,-339.551 910.201,-297.692 898.062,-274.671"/>
<polygon fill="midnightblue" stroke="midnightblue" points="901.059,-272.857 893.193,-265.76 894.916,-276.214 901.059,-272.857"/>
</g>
<!-- Node8 -->
<g id="node9" class="node"><title>Node8</title>
<polygon fill="white" stroke="#bfbfbf" points="1315,-593.5 1315,-612.5 1457,-612.5 1457,-593.5 1315,-593.5"/>
<text text-anchor="middle" x="1386" y="-600.5" font-family="Helvetica,sans-Serif" font-size="10.00">odp/api/abi/classification.h</text>
</g>
<!-- Node0&#45;&gt;Node8 -->
<g id="edge8" class="edge"><title>Node0&#45;&gt;Node8</title>
<path fill="none" stroke="midnightblue" d="M586.255,-761.482C727.797,-733.611 1176.95,-645.165 1332.42,-614.551"/>
<polygon fill="midnightblue" stroke="midnightblue" points="1333.53,-617.899 1342.67,-612.533 1332.18,-611.031 1333.53,-617.899"/>
</g>
<!-- Node9 -->
<g id="node10" class="node"><title>Node9</title>
<polygon fill="white" stroke="#bfbfbf" points="249.5,-246.5 249.5,-265.5 362.5,-265.5 362.5,-246.5 249.5,-246.5"/>
<text text-anchor="middle" x="306" y="-253.5" font-family="Helvetica,sans-Serif" font-size="10.00">odp/api/abi/packet.h</text>
</g>
<!-- Node0&#45;&gt;Node9 -->
<g id="edge9" class="edge"><title>Node0&#45;&gt;Node9</title>
<path fill="none" stroke="midnightblue" d="M499.715,-765.727C405.454,-755.222 190,-724.191 190,-660 190,-660 190,-660 190,-378 190,-327.061 244.233,-289.211 278.535,-270.366"/>
<polygon fill="midnightblue" stroke="midnightblue" points="280.417,-273.33 287.619,-265.56 277.144,-267.143 280.417,-273.33"/>
</g>
<!-- Node10 -->
<g id="node11" class="node"><title>Node10</title>
<polygon fill="white" stroke="#bfbfbf" points="104.5,-246.5 104.5,-265.5 231.5,-265.5 231.5,-246.5 104.5,-246.5"/>
<text text-anchor="middle" x="168" y="-253.5" font-family="Helvetica,sans-Serif" font-size="10.00">odp/api/abi/packet_io.h</text>
</g>
<!-- Node0&#45;&gt;Node10 -->
<g id="edge10" class="edge"><title>Node0&#45;&gt;Node10</title>
<path fill="none" stroke="midnightblue" d="M499.902,-768.092C391.113,-762.107 114,-739.099 114,-660 114,-660 114,-660 114,-378 114,-337.766 139.206,-296.028 155.176,-273.622"/>
<polygon fill="midnightblue" stroke="midnightblue" points="158.037,-275.64 161.161,-265.516 152.405,-271.482 158.037,-275.64"/>
</g>
<!-- Node11 -->
<g id="node12" class="node"><title>Node11</title>
<polygon fill="white" stroke="#bfbfbf" points="1475.5,-481.5 1475.5,-500.5 1586.5,-500.5 1586.5,-481.5 1475.5,-481.5"/>
<text text-anchor="middle" x="1531" y="-488.5" font-family="Helvetica,sans-Serif" font-size="10.00">odp/api/abi/queue.h</text>
</g>
<!-- Node0&#45;&gt;Node11 -->
<g id="edge11" class="edge"><title>Node0&#45;&gt;Node11</title>
<path fill="none" stroke="midnightblue" d="M586.254,-770.48C795.307,-772.242 1691,-773.186 1691,-660 1691,-660 1691,-660 1691,-602 1691,-547.241 1626.58,-517.685 1579.49,-503.395"/>
<polygon fill="midnightblue" stroke="midnightblue" points="1580.31,-499.99 1569.73,-500.574 1578.37,-506.714 1580.31,-499.99"/>
</g>
<!-- Node12 -->
<g id="node13" class="node"><title>Node12</title>
<g id="a_node13"><a xlink:href="spec_2classification_8h.html" target="_top" xlink:title="ODP classification descriptor. ">
<polygon fill="white" stroke="black" points="468,-705.5 468,-724.5 618,-724.5 618,-705.5 468,-705.5"/>
<text text-anchor="middle" x="543" y="-712.5" font-family="Helvetica,sans-Serif" font-size="10.00">odp/api/spec/classification.h</text>
</a>
</g>
</g>
<!-- Node0&#45;&gt;Node12 -->
<g id="edge12" class="edge"><title>Node0&#45;&gt;Node12</title>
<path fill="none" stroke="midnightblue" d="M543,-761.083C543,-754.006 543,-743.861 543,-734.986"/>
<polygon fill="midnightblue" stroke="midnightblue" points="546.5,-734.751 543,-724.751 539.5,-734.751 546.5,-734.751"/>
</g>
<!-- Node2 -->
<g id="node3" class="node"><title>Node2</title>
<polygon fill="white" stroke="#bfbfbf" points="549,-62 549,-81 677,-81 677,-62 549,-62"/>
<text text-anchor="middle" x="613" y="-69" font-family="Helvetica,sans-Serif" font-size="10.00">odp/api/abi/std_types.h</text>
</g>
<!-- Node1&#45;&gt;Node2 -->
<g id="edge2" class="edge"><title>Node1&#45;&gt;Node2</title>
<path fill="none" stroke="midnightblue" d="M486.205,-123.475C511.372,-113.357 553.54,-96.4046 582.279,-84.8507"/>
<polygon fill="midnightblue" stroke="midnightblue" points="583.862,-87.9867 591.835,-81.0091 581.251,-81.4919 583.862,-87.9867"/>
</g>
<!-- Node3 -->
<g id="node4" class="node"><title>Node3</title>
<g id="a_node4"><a xlink:href="spec_2std__types_8h.html" target="_top" xlink:title="Standard C language types and definitions for ODP. ">
<polygon fill="white" stroke="black" points="395,-62 395,-81 531,-81 531,-62 395,-62"/>
<text text-anchor="middle" x="463" y="-69" font-family="Helvetica,sans-Serif" font-size="10.00">odp/api/spec/std_types.h</text>
</a>
</g>
</g>
<!-- Node1&#45;&gt;Node3 -->
<g id="edge3" class="edge"><title>Node1&#45;&gt;Node3</title>
<path fill="none" stroke="midnightblue" d="M464.713,-123.475C464.431,-115.08 463.991,-101.981 463.627,-91.1631"/>
<polygon fill="midnightblue" stroke="midnightblue" points="467.12,-90.8858 463.286,-81.0091 460.124,-91.1211 467.12,-90.8858"/>
</g>
<!-- Node4 -->
<g id="node5" class="node"><title>Node4</title>
<polygon fill="white" stroke="#bfbfbf" points="815.5,-0.5 815.5,-19.5 930.5,-19.5 930.5,-0.5 815.5,-0.5"/>
<text text-anchor="middle" x="873" y="-7.5" font-family="Helvetica,sans-Serif" font-size="10.00">odp/visibility_begin.h</text>
</g>
<!-- Node3&#45;&gt;Node4 -->
<g id="edge4" class="edge"><title>Node3&#45;&gt;Node4</title>
<path fill="none" stroke="midnightblue" d="M506.099,-61.9764C517.131,-59.9069 528.988,-57.7796 540,-56 631.617,-41.1935 737.961,-27.4118 805.35,-19.0989"/>
<polygon fill="midnightblue" stroke="midnightblue" points="805.914,-22.556 815.413,-17.8626 805.06,-15.6083 805.914,-22.556"/>
</g>
<!-- Node5 -->
<g id="node6" class="node"><title>Node5</title>
<polygon fill="white" stroke="#bfbfbf" points="436.5,-0.5 436.5,-19.5 489.5,-19.5 489.5,-0.5 436.5,-0.5"/>
<text text-anchor="middle" x="463" y="-7.5" font-family="Helvetica,sans-Serif" font-size="10.00">stdint.h</text>
</g>
<!-- Node3&#45;&gt;Node5 -->
<g id="edge5" class="edge"><title>Node3&#45;&gt;Node5</title>
<path fill="none" stroke="midnightblue" d="M463,-61.9751C463,-53.5803 463,-40.4806 463,-29.6631"/>
<polygon fill="midnightblue" stroke="midnightblue" points="466.5,-29.5091 463,-19.5091 459.5,-29.5091 466.5,-29.5091"/>
</g>
<!-- Node6 -->
<g id="node7" class="node"><title>Node6</title>
<polygon fill="white" stroke="#bfbfbf" points="1400.5,-0.5 1400.5,-19.5 1507.5,-19.5 1507.5,-0.5 1400.5,-0.5"/>
<text text-anchor="middle" x="1454" y="-7.5" font-family="Helvetica,sans-Serif" font-size="10.00">odp/visibility_end.h</text>
</g>
<!-- Node3&#45;&gt;Node6 -->
<g id="edge6" class="edge"><title>Node3&#45;&gt;Node6</title>
<path fill="none" stroke="midnightblue" d="M502.805,-61.9292C514.716,-59.656 527.842,-57.4372 540,-56 857.59,-18.4579 1240.84,-12.1325 1390.13,-11.1434"/>
<polygon fill="midnightblue" stroke="midnightblue" points="1390.49,-14.6414 1400.47,-11.0811 1390.45,-7.64155 1390.49,-14.6414"/>
</g>
<!-- Node12&#45;&gt;Node4 -->
<g id="edge13" class="edge"><title>Node12&#45;&gt;Node4</title>
<path fill="none" stroke="midnightblue" d="M467.611,-708.186C353.991,-697.319 152,-668.876 152,-604 152,-604 152,-604 152,-490 152,-366.357 0,-380.643 0,-257 0,-257 0,-257 0,-132 0,-50.7926 600.341,-21.0609 805.343,-13.2755"/>
<polygon fill="midnightblue" stroke="midnightblue" points="805.52,-16.7714 815.382,-12.8999 805.259,-9.77633 805.52,-16.7714"/>
</g>
<!-- Node12&#45;&gt;Node6 -->
<g id="edge83" class="edge"><title>Node12&#45;&gt;Node6</title>
<path fill="none" stroke="midnightblue" d="M618.192,-714.001C751.931,-712.982 1039.6,-706.182 1279,-669 1379.55,-653.383 1402.73,-639.397 1501,-613 1602.76,-585.666 1729,-653.371 1729,-548 1729,-548 1729,-548 1729,-132 1729,-40.2117 1599.06,-17.4391 1517.82,-12.1712"/>
<polygon fill="midnightblue" stroke="midnightblue" points="1517.86,-8.66792 1507.68,-11.5873 1517.46,-15.6563 1517.86,-8.66792"/>
</g>
<!-- Node13 -->
<g id="node14" class="node"><title>Node13</title>
<g id="a_node14"><a xlink:href="packet__io_8h.html" target="_top" xlink:title="ODP Packet IO. ">
<polygon fill="white" stroke="black" points="488,-649.5 488,-668.5 598,-668.5 598,-649.5 488,-649.5"/>
<text text-anchor="middle" x="543" y="-656.5" font-family="Helvetica,sans-Serif" font-size="10.00">odp/api/packet_io.h</text>
</a>
</g>
</g>
<!-- Node12&#45;&gt;Node13 -->
<g id="edge14" class="edge"><title>Node12&#45;&gt;Node13</title>
<path fill="none" stroke="midnightblue" d="M543,-705.083C543,-698.006 543,-687.861 543,-678.986"/>
<polygon fill="midnightblue" stroke="midnightblue" points="546.5,-678.751 543,-668.751 539.5,-678.751 546.5,-678.751"/>
</g>
<!-- Node34 -->
<g id="node35" class="node"><title>Node34</title>
<g id="a_node35"><a xlink:href="support_8h.html" target="_top" xlink:title="ODP support API &#45; platform specific header. ">
<polygon fill="white" stroke="black" points="1409.5,-123.5 1409.5,-142.5 1510.5,-142.5 1510.5,-123.5 1409.5,-123.5"/>
<text text-anchor="middle" x="1460" y="-130.5" font-family="Helvetica,sans-Serif" font-size="10.00">odp/api/support.h</text>
</a>
</g>
</g>
<!-- Node12&#45;&gt;Node34 -->
<g id="edge77" class="edge"><title>Node12&#45;&gt;Node34</title>
<path fill="none" stroke="midnightblue" d="M618.148,-711.495C810.082,-704.196 1313.91,-679.114 1466,-613 1560.3,-572.004 1615,-538.829 1615,-436 1615,-436 1615,-436 1615,-316.5 1615,-236.915 1528.31,-174.295 1484.59,-147.777"/>
<polygon fill="midnightblue" stroke="midnightblue" points="1486.1,-144.605 1475.72,-142.531 1482.54,-150.632 1486.1,-144.605"/>
</g>
<!-- Node36 -->
<g id="node37" class="node"><title>Node36</title>
<g id="a_node37"><a xlink:href="threshold_8h.html" target="_top" xlink:title="ODP threshold API &#45; platform specific header. ">
<polygon fill="white" stroke="black" points="289.5,-649.5 289.5,-668.5 398.5,-668.5 398.5,-649.5 289.5,-649.5"/>
<text text-anchor="middle" x="344" y="-656.5" font-family="Helvetica,sans-Serif" font-size="10.00">odp/api/threshold.h</text>
</a>
</g>
</g>
<!-- Node12&#45;&gt;Node36 -->
<g id="edge78" class="edge"><title>Node12&#45;&gt;Node36</title>
<path fill="none" stroke="midnightblue" d="M511.468,-705.444C477.408,-696.201 422.994,-681.436 385.485,-671.257"/>
<polygon fill="midnightblue" stroke="midnightblue" points="385.952,-667.758 375.385,-668.516 384.119,-674.513 385.952,-667.758"/>
</g>
<!-- Node13&#45;&gt;Node1 -->
<g id="edge15" class="edge"><title>Node13&#45;&gt;Node1</title>
<path fill="none" stroke="midnightblue" d="M522.355,-649.421C489.504,-634.231 429,-599.293 429,-548 429,-548 429,-548 429,-255 429,-216.988 445.524,-174.943 456.182,-151.777"/>
<polygon fill="midnightblue" stroke="midnightblue" points="459.44,-153.077 460.586,-142.544 453.122,-150.064 459.44,-153.077"/>
</g>
<!-- Node13&#45;&gt;Node7 -->
<g id="edge16" class="edge"><title>Node13&#45;&gt;Node7</title>
<path fill="none" stroke="midnightblue" d="M550.527,-649.252C594.28,-598.397 815.943,-340.753 874.042,-273.224"/>
<polygon fill="midnightblue" stroke="midnightblue" points="876.704,-275.496 880.572,-265.633 871.397,-270.931 876.704,-275.496"/>
</g>
<!-- Node13&#45;&gt;Node8 -->
<g id="edge17" class="edge"><title>Node13&#45;&gt;Node8</title>
<path fill="none" stroke="midnightblue" d="M598.225,-655.597C723.395,-649.959 1038.24,-634.699 1301,-613 1302.11,-612.908 1303.23,-612.814 1304.35,-612.718"/>
<polygon fill="midnightblue" stroke="midnightblue" points="1304.95,-616.178 1314.6,-611.802 1304.33,-609.206 1304.95,-616.178"/>
</g>
<!-- Node13&#45;&gt;Node9 -->
<g id="edge18" class="edge"><title>Node13&#45;&gt;Node9</title>
<path fill="none" stroke="midnightblue" d="M487.87,-653.171C424.759,-644.267 330,-619.065 330,-548 330,-548 330,-548 330,-378 330,-341.024 319.083,-298.885 311.975,-275.367"/>
<polygon fill="midnightblue" stroke="midnightblue" points="315.272,-274.184 308.943,-265.688 308.593,-276.277 315.272,-274.184"/>
</g>
<!-- Node13&#45;&gt;Node10 -->
<g id="edge19" class="edge"><title>Node13&#45;&gt;Node10</title>
<path fill="none" stroke="midnightblue" d="M487.605,-653.634C446.219,-648.479 389.378,-637.28 345,-613 308.882,-593.239 279,-589.171 279,-548 279,-548 279,-548 279,-378 279,-328.184 227.278,-289.996 194.446,-270.775"/>
<polygon fill="midnightblue" stroke="midnightblue" points="195.774,-267.505 185.344,-265.644 192.336,-273.603 195.774,-267.505"/>
</g>
<!-- Node13&#45;&gt;Node11 -->
<g id="edge20" class="edge"><title>Node13&#45;&gt;Node11</title>
<path fill="none" stroke="midnightblue" d="M598.111,-653.963C784.244,-640.048 1382.35,-592.971 1461,-557 1484.7,-546.159 1505.68,-524.132 1518.35,-508.739"/>
<polygon fill="midnightblue" stroke="midnightblue" points="1521.35,-510.591 1524.81,-500.577 1515.86,-506.249 1521.35,-510.591"/>
</g>
<!-- Node14 -->
<g id="node15" class="node"><title>Node14</title>
<g id="a_node15"><a xlink:href="spec_2packet__io_8h.html" target="_top" xlink:title="ODP Packet IO. ">
<polygon fill="white" stroke="black" points="695.5,-593.5 695.5,-612.5 830.5,-612.5 830.5,-593.5 695.5,-593.5"/>
<text text-anchor="middle" x="763" y="-600.5" font-family="Helvetica,sans-Serif" font-size="10.00">odp/api/spec/packet_io.h</text>
</a>
</g>
</g>
<!-- Node13&#45;&gt;Node14 -->
<g id="edge21" class="edge"><title>Node13&#45;&gt;Node14</title>
<path fill="none" stroke="midnightblue" d="M577.86,-649.444C615.916,-640.102 676.958,-625.119 718.46,-614.933"/>
<polygon fill="midnightblue" stroke="midnightblue" points="719.426,-618.299 728.303,-612.516 717.757,-611.501 719.426,-618.299"/>
</g>
<!-- Node14&#45;&gt;Node4 -->
<g id="edge22" class="edge"><title>Node14&#45;&gt;Node4</title>
<path fill="none" stroke="midnightblue" d="M699.474,-593.478C593.226,-575.267 391,-521.958 391,-380 391,-380 391,-380 391,-316.5 391,-283.93 393.659,-269.396 371,-246 334.33,-208.137 289.104,-252.554 258,-210 209.655,-143.858 251.401,-112.33 357,-56 432.841,-15.5436 683.178,-10.4157 805.091,-10.4128"/>
<polygon fill="midnightblue" stroke="midnightblue" points="805.412,-13.9131 815.416,-10.4249 805.42,-6.91309 805.412,-13.9131"/>
</g>
<!-- Node14&#45;&gt;Node6 -->
<g id="edge76" class="edge"><title>Node14&#45;&gt;Node6</title>
<path fill="none" stroke="midnightblue" d="M830.512,-599.218C994.706,-592.213 1403.32,-573.243 1428,-557 1459.71,-536.127 1446.51,-512.96 1467,-481 1532.6,-378.683 1561.06,-361.693 1636,-266 1660.5,-234.711 1691,-235.241 1691,-195.5 1691,-195.5 1691,-195.5 1691,-132 1691,-54.0622 1588.08,-26.2985 1517.88,-16.4262"/>
<polygon fill="midnightblue" stroke="midnightblue" points="1518.15,-12.9314 1507.78,-15.0957 1517.24,-19.8715 1518.15,-12.9314"/>
</g>
<!-- Node15 -->
<g id="node16" class="node"><title>Node15</title>
<g id="a_node16"><a xlink:href="deprecated_8h.html" target="_top" xlink:title="Control deprecated API definitions. ">
<polygon fill="white" stroke="black" points="1159.5,-246.5 1159.5,-265.5 1278.5,-265.5 1278.5,-246.5 1159.5,-246.5"/>
<text text-anchor="middle" x="1219" y="-253.5" font-family="Helvetica,sans-Serif" font-size="10.00">odp/api/deprecated.h</text>
</a>
</g>
</g>
<!-- Node14&#45;&gt;Node15 -->
<g id="edge23" class="edge"><title>Node14&#45;&gt;Node15</title>
<path fill="none" stroke="midnightblue" d="M830.958,-597.997C951.188,-589.342 1193.59,-564.297 1245,-501 1273.02,-466.495 1238.08,-326.101 1224.21,-275.386"/>
<polygon fill="midnightblue" stroke="midnightblue" points="1227.58,-274.445 1221.53,-265.748 1220.83,-276.32 1227.58,-274.445"/>
</g>
<!-- Node17 -->
<g id="node18" class="node"><title>Node17</title>
<g id="a_node18"><a xlink:href="packet__io__stats_8h.html" target="_top" xlink:title="ODP packet IO stats. ">
<polygon fill="white" stroke="black" points="1279.5,-537.5 1279.5,-556.5 1418.5,-556.5 1418.5,-537.5 1279.5,-537.5"/>
<text text-anchor="middle" x="1349" y="-544.5" font-family="Helvetica,sans-Serif" font-size="10.00">odp/api/packet_io_stats.h</text>
</a>
</g>
</g>
<!-- Node14&#45;&gt;Node17 -->
<g id="edge27" class="edge"><title>Node14&#45;&gt;Node17</title>
<path fill="none" stroke="midnightblue" d="M830.834,-596.295C927.335,-588.093 1109.78,-572.272 1265,-557 1266.31,-556.871 1267.64,-556.739 1268.97,-556.606"/>
<polygon fill="midnightblue" stroke="midnightblue" points="1269.74,-560.047 1279.34,-555.558 1269.04,-553.082 1269.74,-560.047"/>
</g>
<!-- Node19 -->
<g id="node20" class="node"><title>Node19</title>
<g id="a_node20"><a xlink:href="queue_8h.html" target="_top" xlink:title="ODP queue. ">
<polygon fill="white" stroke="black" points="841,-537.5 841,-556.5 935,-556.5 935,-537.5 841,-537.5"/>
<text text-anchor="middle" x="888" y="-544.5" font-family="Helvetica,sans-Serif" font-size="10.00">odp/api/queue.h</text>
</a>
</g>
</g>
<!-- Node14&#45;&gt;Node19 -->
<g id="edge31" class="edge"><title>Node14&#45;&gt;Node19</title>
<path fill="none" stroke="midnightblue" d="M782.807,-593.444C803.287,-584.596 835.483,-570.687 858.865,-560.586"/>
<polygon fill="midnightblue" stroke="midnightblue" points="860.494,-563.695 868.286,-556.516 857.718,-557.269 860.494,-563.695"/>
</g>
<!-- Node25 -->
<g id="node26" class="node"><title>Node25</title>
<g id="a_node26"><a xlink:href="packet_8h.html" target="_top" xlink:title="ODP packet descriptor. ">
<polygon fill="white" stroke="black" points="571,-308 571,-327 667,-327 667,-308 571,-308"/>
<text text-anchor="middle" x="619" y="-315" font-family="Helvetica,sans-Serif" font-size="10.00">odp/api/packet.h</text>
</a>
</g>
</g>
<!-- Node14&#45;&gt;Node25 -->
<g id="edge75" class="edge"><title>Node14&#45;&gt;Node25</title>
<path fill="none" stroke="midnightblue" d="M695.491,-596.666C664.585,-591.028 629.478,-579.68 605,-557 582.41,-536.07 581,-522.795 581,-492 581,-492 581,-492 581,-434 581,-397.754 598.095,-358.171 609.353,-336.033"/>
<polygon fill="midnightblue" stroke="midnightblue" points="612.461,-337.641 614.032,-327.163 606.27,-334.375 612.461,-337.641"/>
</g>
<!-- Node27 -->
<g id="node28" class="node"><title>Node27</title>
<g id="a_node28"><a xlink:href="time_8h.html" target="_top" xlink:title="ODP time. ">
<polygon fill="white" stroke="black" points="580,-185 580,-204 666,-204 666,-185 580,-185"/>
<text text-anchor="middle" x="623" y="-192" font-family="Helvetica,sans-Serif" font-size="10.00">odp/api/time.h</text>
</a>
</g>
</g>
<!-- Node14&#45;&gt;Node27 -->
<g id="edge74" class="edge"><title>Node14&#45;&gt;Node27</title>
<path fill="none" stroke="midnightblue" d="M749.511,-593.471C725.462,-577.706 674.73,-541.866 643,-501 592.164,-435.527 580.464,-413.81 562,-333 553.387,-295.305 545.543,-280.99 562,-246 569.322,-230.433 584.059,-218.019 597.213,-209.395"/>
<polygon fill="midnightblue" stroke="midnightblue" points="599.259,-212.247 605.957,-204.038 595.602,-206.278 599.259,-212.247"/>
</g>
<!-- Node16 -->
<g id="node17" class="node"><title>Node16</title>
<g id="a_node17"><a xlink:href="spec_2deprecated_8h.html" target="_top" xlink:title="Macro for deprecated API definitions. ">
<polygon fill="white" stroke="black" points="977,-62 977,-81 1121,-81 1121,-62 977,-62"/>
<text text-anchor="middle" x="1049" y="-69" font-family="Helvetica,sans-Serif" font-size="10.00">odp/api/spec/deprecated.h</text>
</a>
</g>
</g>
<!-- Node15&#45;&gt;Node16 -->
<g id="edge24" class="edge"><title>Node15&#45;&gt;Node16</title>
<path fill="none" stroke="midnightblue" d="M1210.8,-246.198C1184.04,-217.469 1098.97,-126.148 1064.12,-88.7288"/>
<polygon fill="midnightblue" stroke="midnightblue" points="1066.49,-86.1457 1057.12,-81.214 1061.37,-90.9169 1066.49,-86.1457"/>
</g>
<!-- Node16&#45;&gt;Node4 -->
<g id="edge25" class="edge"><title>Node16&#45;&gt;Node4</title>
<path fill="none" stroke="midnightblue" d="M1023.78,-61.9751C993.332,-51.6804 941.951,-34.3103 907.757,-22.7502"/>
<polygon fill="midnightblue" stroke="midnightblue" points="908.764,-19.3961 898.17,-19.5091 906.522,-26.0274 908.764,-19.3961"/>
</g>
<!-- Node16&#45;&gt;Node6 -->
<g id="edge26" class="edge"><title>Node16&#45;&gt;Node6</title>
<path fill="none" stroke="midnightblue" d="M1098.08,-61.9907C1110.14,-59.964 1123.03,-57.8531 1135,-56 1223.4,-42.3145 1325.86,-28.1642 1390.31,-19.4719"/>
<polygon fill="midnightblue" stroke="midnightblue" points="1390.87,-22.9275 1400.31,-18.1246 1389.94,-15.9901 1390.87,-22.9275"/>
</g>
<!-- Node18 -->
<g id="node19" class="node"><title>Node18</title>
<g id="a_node19"><a xlink:href="spec_2packet__io__stats_8h.html" target="_top" xlink:title="ODP Packet IO. ">
<polygon fill="white" stroke="black" points="1397.5,-56.5 1397.5,-86.5 1510.5,-86.5 1510.5,-56.5 1397.5,-56.5"/>
<text text-anchor="start" x="1405.5" y="-74.5" font-family="Helvetica,sans-Serif" font-size="10.00">odp/api/spec/packet</text>
<text text-anchor="middle" x="1454" y="-63.5" font-family="Helvetica,sans-Serif" font-size="10.00">_io_stats.h</text>
</a>
</g>
</g>
<!-- Node17&#45;&gt;Node18 -->
<g id="edge28" class="edge"><title>Node17&#45;&gt;Node18</title>
<path fill="none" stroke="midnightblue" d="M1354.61,-537.418C1381.22,-496.074 1494.42,-312.467 1520,-143 1521.33,-134.211 1523.94,-130.97 1520,-123 1513.79,-110.424 1502.78,-100.117 1491.5,-92.169"/>
<polygon fill="midnightblue" stroke="midnightblue" points="1493.2,-89.0935 1482.91,-86.5525 1489.37,-94.9531 1493.2,-89.0935"/>
</g>
<!-- Node18&#45;&gt;Node4 -->
<g id="edge29" class="edge"><title>Node18&#45;&gt;Node4</title>
<path fill="none" stroke="midnightblue" d="M1397.21,-57.5346C1394.1,-56.9779 1391.02,-56.461 1388,-56 1228.84,-31.6664 1039.84,-19.3386 940.981,-14.1398"/>
<polygon fill="midnightblue" stroke="midnightblue" points="940.998,-10.636 930.83,-13.6144 940.636,-17.6267 940.998,-10.636"/>
</g>
<!-- Node18&#45;&gt;Node6 -->
<g id="edge30" class="edge"><title>Node18&#45;&gt;Node6</title>
<path fill="none" stroke="midnightblue" d="M1454,-56.3993C1454,-48.4664 1454,-38.458 1454,-29.8583"/>
<polygon fill="midnightblue" stroke="midnightblue" points="1457.5,-29.6577 1454,-19.6578 1450.5,-29.6578 1457.5,-29.6577"/>
</g>
<!-- Node19&#45;&gt;Node1 -->
<g id="edge32" class="edge"><title>Node19&#45;&gt;Node1</title>
<path fill="none" stroke="midnightblue" d="M868.469,-537.328C814.083,-512.396 658.57,-435.684 562,-333 510.235,-277.958 480.771,-190.096 469.883,-152.283"/>
<polygon fill="midnightblue" stroke="midnightblue" points="473.25,-151.324 467.199,-142.628 466.506,-153.2 473.25,-151.324"/>
</g>
<!-- Node19&#45;&gt;Node7 -->
<g id="edge36" class="edge"><title>Node19&#45;&gt;Node7</title>
<path fill="none" stroke="midnightblue" d="M888,-537.442C888,-518.936 888,-473.812 888,-436 888,-436 888,-436 888,-378 888,-341.714 888,-299.307 888,-275.559"/>
<polygon fill="midnightblue" stroke="midnightblue" points="891.5,-275.509 888,-265.509 884.5,-275.509 891.5,-275.509"/>
</g>
<!-- Node19&#45;&gt;Node11 -->
<g id="edge34" class="edge"><title>Node19&#45;&gt;Node11</title>
<path fill="none" stroke="midnightblue" d="M935.021,-542.051C1048.05,-532.558 1335.25,-508.439 1465.27,-497.52"/>
<polygon fill="midnightblue" stroke="midnightblue" points="1465.81,-500.987 1475.48,-496.663 1465.22,-494.012 1465.81,-500.987"/>
</g>
<!-- Node20 -->
<g id="node21" class="node"><title>Node20</title>
<polygon fill="white" stroke="#bfbfbf" points="957,-246.5 957,-265.5 1065,-265.5 1065,-246.5 957,-246.5"/>
<text text-anchor="middle" x="1011" y="-253.5" font-family="Helvetica,sans-Serif" font-size="10.00">odp/api/abi/event.h</text>
</g>
<!-- Node19&#45;&gt;Node20 -->
<g id="edge33" class="edge"><title>Node19&#45;&gt;Node20</title>
<path fill="none" stroke="midnightblue" d="M900.344,-537.277C922.562,-520.446 967,-481.143 967,-436 967,-436 967,-436 967,-378 967,-339.252 987.175,-297.499 1000.2,-274.577"/>
<polygon fill="midnightblue" stroke="midnightblue" points="1003.37,-276.101 1005.43,-265.709 997.335,-272.548 1003.37,-276.101"/>
</g>
<!-- Node21 -->
<g id="node22" class="node"><title>Node21</title>
<polygon fill="white" stroke="#bfbfbf" points="711,-246.5 711,-265.5 819,-265.5 819,-246.5 711,-246.5"/>
<text text-anchor="middle" x="765" y="-253.5" font-family="Helvetica,sans-Serif" font-size="10.00">odp/api/abi/buffer.h</text>
</g>
<!-- Node19&#45;&gt;Node21 -->
<g id="edge35" class="edge"><title>Node19&#45;&gt;Node21</title>
<path fill="none" stroke="midnightblue" d="M875.5,-537.313C853,-520.544 808,-481.338 808,-436 808,-436 808,-436 808,-378 808,-339.354 788.284,-297.565 775.553,-274.609"/>
<polygon fill="midnightblue" stroke="midnightblue" points="778.464,-272.651 770.446,-265.726 772.396,-276.14 778.464,-272.651"/>
</g>
<!-- Node22 -->
<g id="node23" class="node"><title>Node22</title>
<g id="a_node23"><a xlink:href="spec_2queue_8h.html" target="_top" xlink:title="ODP queue. ">
<polygon fill="white" stroke="black" points="1117.5,-481.5 1117.5,-500.5 1236.5,-500.5 1236.5,-481.5 1117.5,-481.5"/>
<text text-anchor="middle" x="1177" y="-488.5" font-family="Helvetica,sans-Serif" font-size="10.00">odp/api/spec/queue.h</text>
</a>
</g>
</g>
<!-- Node19&#45;&gt;Node22 -->
<g id="edge37" class="edge"><title>Node19&#45;&gt;Node22</title>
<path fill="none" stroke="midnightblue" d="M933.793,-537.444C984.737,-527.925 1067.03,-512.547 1121.57,-502.356"/>
<polygon fill="midnightblue" stroke="midnightblue" points="1122.23,-505.794 1131.42,-500.516 1120.95,-498.913 1122.23,-505.794"/>
</g>
<!-- Node22&#45;&gt;Node4 -->
<g id="edge38" class="edge"><title>Node22&#45;&gt;Node4</title>
<path fill="none" stroke="midnightblue" d="M1176.61,-481.261C1175.51,-461.021 1171.48,-409.559 1158,-369 1138.49,-310.327 1127.9,-297.037 1093,-246 1070.77,-213.49 1063.09,-206.612 1035,-179 989.552,-134.318 967.841,-134.187 925,-87 908.269,-68.5718 892.656,-44.4492 882.989,-28.3741"/>
<polygon fill="midnightblue" stroke="midnightblue" points="885.87,-26.3701 877.781,-19.5279 879.838,-29.9212 885.87,-26.3701"/>
</g>
<!-- Node22&#45;&gt;Node6 -->
<g id="edge73" class="edge"><title>Node22&#45;&gt;Node6</title>
<path fill="none" stroke="midnightblue" d="M1200.28,-481.382C1295.85,-445.3 1653,-303.245 1653,-195.5 1653,-195.5 1653,-195.5 1653,-132 1653,-67.0215 1574.58,-35.9411 1516.2,-21.8058"/>
<polygon fill="midnightblue" stroke="midnightblue" points="1516.82,-18.3566 1506.28,-19.5194 1515.24,-25.1775 1516.82,-18.3566"/>
</g>
<!-- Node23 -->
<g id="node24" class="node"><title>Node23</title>
<g id="a_node24"><a xlink:href="event_8h.html" target="_top" xlink:title="ODP event. ">
<polygon fill="white" stroke="black" points="1045.5,-425.5 1045.5,-444.5 1136.5,-444.5 1136.5,-425.5 1045.5,-425.5"/>
<text text-anchor="middle" x="1091" y="-432.5" font-family="Helvetica,sans-Serif" font-size="10.00">odp/api/event.h</text>
</a>
</g>
</g>
<!-- Node22&#45;&gt;Node23 -->
<g id="edge39" class="edge"><title>Node22&#45;&gt;Node23</title>
<path fill="none" stroke="midnightblue" d="M1163.18,-481.324C1149.77,-472.9 1129.18,-459.971 1113.41,-450.074"/>
<polygon fill="midnightblue" stroke="midnightblue" points="1115.11,-447.008 1104.78,-444.655 1111.39,-452.936 1115.11,-447.008"/>
</g>
<!-- Node30 -->
<g id="node31" class="node"><title>Node30</title>
<g id="a_node31"><a xlink:href="queue__types_8h.html" target="_top" xlink:title="ODP queue types. ">
<polygon fill="white" stroke="black" points="1252,-302.5 1252,-332.5 1362,-332.5 1362,-302.5 1252,-302.5"/>
<text text-anchor="start" x="1260" y="-320.5" font-family="Helvetica,sans-Serif" font-size="10.00">odp/api/spec/queue</text>
<text text-anchor="middle" x="1307" y="-309.5" font-family="Helvetica,sans-Serif" font-size="10.00">_types.h</text>
</a>
</g>
</g>
<!-- Node22&#45;&gt;Node30 -->
<g id="edge60" class="edge"><title>Node22&#45;&gt;Node30</title>
<path fill="none" stroke="midnightblue" d="M1183.63,-481.26C1203.12,-455.54 1260.74,-379.528 1289.81,-341.175"/>
<polygon fill="midnightblue" stroke="midnightblue" points="1292.97,-342.806 1296.22,-332.723 1287.39,-338.578 1292.97,-342.806"/>
</g>
<!-- Node23&#45;&gt;Node20 -->
<g id="edge40" class="edge"><title>Node23&#45;&gt;Node20</title>
<path fill="none" stroke="midnightblue" d="M1069.37,-425.49C1053.98,-418.225 1034.28,-406.199 1024,-389 1002.81,-353.546 1004.93,-302.969 1008.1,-275.869"/>
<polygon fill="midnightblue" stroke="midnightblue" points="1011.59,-276.183 1009.46,-265.805 1004.65,-275.247 1011.59,-276.183"/>
</g>
<!-- Node24 -->
<g id="node25" class="node"><title>Node24</title>
<g id="a_node25"><a xlink:href="spec_2event_8h.html" target="_top" xlink:title="ODP event. ">
<polygon fill="white" stroke="black" points="1033,-369.5 1033,-388.5 1149,-388.5 1149,-369.5 1033,-369.5"/>
<text text-anchor="middle" x="1091" y="-376.5" font-family="Helvetica,sans-Serif" font-size="10.00">odp/api/spec/event.h</text>
</a>
</g>
</g>
<!-- Node23&#45;&gt;Node24 -->
<g id="edge41" class="edge"><title>Node23&#45;&gt;Node24</title>
<path fill="none" stroke="midnightblue" d="M1091,-425.083C1091,-418.006 1091,-407.861 1091,-398.986"/>
<polygon fill="midnightblue" stroke="midnightblue" points="1094.5,-398.751 1091,-388.751 1087.5,-398.751 1094.5,-398.751"/>
</g>
<!-- Node24&#45;&gt;Node4 -->
<g id="edge42" class="edge"><title>Node24&#45;&gt;Node4</title>
<path fill="none" stroke="midnightblue" d="M1091.87,-369.362C1093.69,-347.348 1096.05,-287.921 1074,-246 1061.69,-222.603 911.289,-109.242 897,-87 885.686,-69.3888 879.363,-46.0518 876.083,-29.9063"/>
<polygon fill="midnightblue" stroke="midnightblue" points="879.442,-28.8155 874.204,-19.6056 872.555,-30.0713 879.442,-28.8155"/>
</g>
<!-- Node24&#45;&gt;Node6 -->
<g id="edge59" class="edge"><title>Node24&#45;&gt;Node6</title>
<path fill="none" stroke="midnightblue" d="M1149.1,-375.866C1235.03,-369.939 1397.3,-347.837 1504,-266 1580.38,-207.416 1618.24,-130.266 1557,-56 1543.78,-39.9742 1523.75,-29.4954 1504.86,-22.7214"/>
<polygon fill="midnightblue" stroke="midnightblue" points="1505.71,-19.3187 1495.12,-19.507 1503.52,-25.9657 1505.71,-19.3187"/>
</g>
<!-- Node24&#45;&gt;Node25 -->
<g id="edge43" class="edge"><title>Node24&#45;&gt;Node25</title>
<path fill="none" stroke="midnightblue" d="M1032.65,-370.644C941.927,-359.208 768.068,-337.291 677.347,-325.855"/>
<polygon fill="midnightblue" stroke="midnightblue" points="677.597,-322.359 667.237,-324.581 676.721,-329.304 677.597,-322.359"/>
</g>
<!-- Node25&#45;&gt;Node1 -->
<g id="edge44" class="edge"><title>Node25&#45;&gt;Node1</title>
<path fill="none" stroke="midnightblue" d="M607.87,-307.827C595.898,-298.236 576.616,-282.015 562,-266 527.152,-227.816 492.886,-177.305 475.945,-151.225"/>
<polygon fill="midnightblue" stroke="midnightblue" points="478.689,-149.02 470.336,-142.502 472.801,-152.806 478.689,-149.02"/>
</g>
<!-- Node25&#45;&gt;Node7 -->
<g id="edge49" class="edge"><title>Node25&#45;&gt;Node7</title>
<path fill="none" stroke="midnightblue" d="M655.041,-307.97C663.548,-305.985 672.589,-303.898 681,-302 734.525,-289.924 795.971,-276.639 837.924,-267.656"/>
<polygon fill="midnightblue" stroke="midnightblue" points="838.842,-271.039 847.889,-265.525 837.378,-264.194 838.842,-271.039"/>
</g>
<!-- Node25&#45;&gt;Node9 -->
<g id="edge47" class="edge"><title>Node25&#45;&gt;Node9</title>
<path fill="none" stroke="midnightblue" d="M574.155,-307.975C517.907,-297.283 421.509,-278.958 360.906,-267.437"/>
<polygon fill="midnightblue" stroke="midnightblue" points="361.24,-263.938 350.762,-265.509 359.932,-270.815 361.24,-263.938"/>
</g>
<!-- Node25&#45;&gt;Node10 -->
<g id="edge46" class="edge"><title>Node25&#45;&gt;Node10</title>
<path fill="none" stroke="midnightblue" d="M570.735,-310.132C491.885,-299.73 334.934,-279.023 241.959,-266.757"/>
<polygon fill="midnightblue" stroke="midnightblue" points="242.152,-263.253 231.78,-265.414 241.236,-270.192 242.152,-263.253"/>
</g>
<!-- Node25&#45;&gt;Node20 -->
<g id="edge45" class="edge"><title>Node25&#45;&gt;Node20</title>
<path fill="none" stroke="midnightblue" d="M667.067,-309.204C737.309,-298.542 868.153,-278.682 946.636,-266.77"/>
<polygon fill="midnightblue" stroke="midnightblue" points="947.518,-270.176 956.88,-265.215 946.468,-263.255 947.518,-270.176"/>
</g>
<!-- Node25&#45;&gt;Node21 -->
<g id="edge48" class="edge"><title>Node25&#45;&gt;Node21</title>
<path fill="none" stroke="midnightblue" d="M639.918,-307.975C664.746,-297.857 706.343,-280.905 734.694,-269.351"/>
<polygon fill="midnightblue" stroke="midnightblue" points="736.181,-272.524 744.121,-265.509 733.539,-266.042 736.181,-272.524"/>
</g>
<!-- Node26 -->
<g id="node27" class="node"><title>Node26</title>
<g id="a_node27"><a xlink:href="spec_2packet_8h.html" target="_top" xlink:title="ODP packet descriptor. ">
<polygon fill="white" stroke="black" points="571,-246.5 571,-265.5 693,-265.5 693,-246.5 571,-246.5"/>
<text text-anchor="middle" x="632" y="-253.5" font-family="Helvetica,sans-Serif" font-size="10.00">odp/api/spec/packet.h</text>
</a>
</g>
</g>
<!-- Node25&#45;&gt;Node26 -->
<g id="edge50" class="edge"><title>Node25&#45;&gt;Node26</title>
<path fill="none" stroke="midnightblue" d="M620.863,-307.975C622.716,-299.492 625.619,-286.204 627.997,-275.322"/>
<polygon fill="midnightblue" stroke="midnightblue" points="631.426,-276.026 630.141,-265.509 624.587,-274.532 631.426,-276.026"/>
</g>
<!-- Node26&#45;&gt;Node4 -->
<g id="edge51" class="edge"><title>Node26&#45;&gt;Node4</title>
<path fill="none" stroke="midnightblue" d="M642.509,-246.483C671.508,-222.749 754.512,-153.247 815,-87 832.401,-67.9421 850.06,-43.9989 861.245,-28.1348"/>
<polygon fill="midnightblue" stroke="midnightblue" points="864.188,-30.0322 867.031,-19.8258 858.444,-26.0319 864.188,-30.0322"/>
</g>
<!-- Node26&#45;&gt;Node6 -->
<g id="edge58" class="edge"><title>Node26&#45;&gt;Node6</title>
<path fill="none" stroke="midnightblue" d="M661.777,-246.468C743.171,-222.968 975.983,-154.547 1166,-87 1201.15,-74.5051 1208.3,-66.8349 1244,-56 1293.22,-41.0615 1350.36,-29.1564 1392.61,-21.3529"/>
<polygon fill="midnightblue" stroke="midnightblue" points="1393.26,-24.7921 1402.47,-19.5557 1392,-17.9055 1393.26,-24.7921"/>
</g>
<!-- Node26&#45;&gt;Node27 -->
<g id="edge52" class="edge"><title>Node26&#45;&gt;Node27</title>
<path fill="none" stroke="midnightblue" d="M630.711,-246.475C629.441,-238.08 627.459,-224.981 625.823,-214.163"/>
<polygon fill="midnightblue" stroke="midnightblue" points="629.243,-213.373 624.287,-204.009 622.322,-214.42 629.243,-213.373"/>
</g>
<!-- Node27&#45;&gt;Node1 -->
<g id="edge53" class="edge"><title>Node27&#45;&gt;Node1</title>
<path fill="none" stroke="midnightblue" d="M600.362,-184.975C573.26,-174.769 527.69,-157.608 496.996,-146.049"/>
<polygon fill="midnightblue" stroke="midnightblue" points="498.187,-142.758 487.596,-142.509 495.72,-149.309 498.187,-142.758"/>
</g>
<!-- Node28 -->
<g id="node29" class="node"><title>Node28</title>
<polygon fill="white" stroke="#bfbfbf" points="571.5,-123.5 571.5,-142.5 674.5,-142.5 674.5,-123.5 571.5,-123.5"/>
<text text-anchor="middle" x="623" y="-130.5" font-family="Helvetica,sans-Serif" font-size="10.00">odp/api/abi/time.h</text>
</g>
<!-- Node27&#45;&gt;Node28 -->
<g id="edge54" class="edge"><title>Node27&#45;&gt;Node28</title>
<path fill="none" stroke="midnightblue" d="M623,-184.975C623,-176.58 623,-163.481 623,-152.663"/>
<polygon fill="midnightblue" stroke="midnightblue" points="626.5,-152.509 623,-142.509 619.5,-152.509 626.5,-152.509"/>
</g>
<!-- Node29 -->
<g id="node30" class="node"><title>Node29</title>
<g id="a_node30"><a xlink:href="spec_2time_8h.html" target="_top" xlink:title="ODP time. ">
<polygon fill="white" stroke="black" points="695.5,-62 695.5,-81 806.5,-81 806.5,-62 695.5,-62"/>
<text text-anchor="middle" x="751" y="-69" font-family="Helvetica,sans-Serif" font-size="10.00">odp/api/spec/time.h</text>
</a>
</g>
</g>
<!-- Node27&#45;&gt;Node29 -->
<g id="edge55" class="edge"><title>Node27&#45;&gt;Node29</title>
<path fill="none" stroke="midnightblue" d="M633.91,-184.886C646.161,-175.084 666.487,-158.431 683,-143 702.111,-125.141 722.805,-103.293 736.28,-88.6952"/>
<polygon fill="midnightblue" stroke="midnightblue" points="739.136,-90.7597 743.314,-81.0234 733.976,-86.0291 739.136,-90.7597"/>
</g>
<!-- Node29&#45;&gt;Node4 -->
<g id="edge56" class="edge"><title>Node29&#45;&gt;Node4</title>
<path fill="none" stroke="midnightblue" d="M768.48,-61.9751C788.863,-52.0338 822.775,-35.4947 846.425,-23.961"/>
<polygon fill="midnightblue" stroke="midnightblue" points="848.099,-27.0385 855.553,-19.5091 845.031,-20.7468 848.099,-27.0385"/>
</g>
<!-- Node29&#45;&gt;Node6 -->
<g id="edge57" class="edge"><title>Node29&#45;&gt;Node6</title>
<path fill="none" stroke="midnightblue" d="M806.751,-65.7814C935.57,-54.8785 1253.28,-27.9885 1389.88,-16.4272"/>
<polygon fill="midnightblue" stroke="midnightblue" points="1390.51,-19.8864 1400.18,-15.5554 1389.92,-12.9113 1390.51,-19.8864"/>
</g>
<!-- Node30&#45;&gt;Node4 -->
<g id="edge61" class="edge"><title>Node30&#45;&gt;Node4</title>
<path fill="none" stroke="midnightblue" d="M1306.68,-302.414C1305.61,-286.884 1301.68,-261.987 1288,-246 1262.38,-216.07 1242.53,-227.021 1207,-210 1099.26,-158.386 1068.25,-151.97 968,-87 939.103,-68.2728 908.483,-42.5751 890.054,-26.3801"/>
<polygon fill="midnightblue" stroke="midnightblue" points="892.296,-23.6901 882.494,-19.6671 887.648,-28.9242 892.296,-23.6901"/>
</g>
<!-- Node30&#45;&gt;Node6 -->
<g id="edge72" class="edge"><title>Node30&#45;&gt;Node6</title>
<path fill="none" stroke="midnightblue" d="M1362.36,-313.941C1400.68,-309.293 1450.29,-297.121 1482,-266 1550.78,-198.497 1585.09,-138.931 1536,-56 1527.03,-40.8399 1510.93,-30.4475 1495.37,-23.5044"/>
<polygon fill="midnightblue" stroke="midnightblue" points="1496.39,-20.1428 1485.81,-19.6153 1493.75,-26.6265 1496.39,-20.1428"/>
</g>
<!-- Node30&#45;&gt;Node15 -->
<g id="edge71" class="edge"><title>Node30&#45;&gt;Node15</title>
<path fill="none" stroke="midnightblue" d="M1286.15,-302.399C1272.3,-293.04 1254.19,-280.792 1240.26,-271.377"/>
<polygon fill="midnightblue" stroke="midnightblue" points="1242.05,-268.36 1231.8,-265.658 1238.13,-274.158 1242.05,-268.36"/>
</g>
<!-- Node31 -->
<g id="node32" class="node"><title>Node31</title>
<g id="a_node32"><a xlink:href="schedule__types_8h.html" target="_top" xlink:title="ODP schedule. ">
<polygon fill="white" stroke="black" points="1335,-246.5 1335,-265.5 1473,-265.5 1473,-246.5 1335,-246.5"/>
<text text-anchor="middle" x="1404" y="-253.5" font-family="Helvetica,sans-Serif" font-size="10.00">odp/api/schedule_types.h</text>
</a>
</g>
</g>
<!-- Node30&#45;&gt;Node31 -->
<g id="edge62" class="edge"><title>Node30&#45;&gt;Node31</title>
<path fill="none" stroke="midnightblue" d="M1329.99,-302.399C1345.39,-292.951 1365.59,-280.559 1381,-271.109"/>
<polygon fill="midnightblue" stroke="midnightblue" points="1383.19,-273.87 1389.89,-265.658 1379.53,-267.903 1383.19,-273.87"/>
</g>
<!-- Node32 -->
<g id="node33" class="node"><title>Node32</title>
<polygon fill="white" stroke="#bfbfbf" points="1357.5,-179.5 1357.5,-209.5 1472.5,-209.5 1472.5,-179.5 1357.5,-179.5"/>
<text text-anchor="start" x="1365.5" y="-197.5" font-family="Helvetica,sans-Serif" font-size="10.00">odp/api/abi/schedule</text>
<text text-anchor="middle" x="1415" y="-186.5" font-family="Helvetica,sans-Serif" font-size="10.00">_types.h</text>
</g>
<!-- Node31&#45;&gt;Node32 -->
<g id="edge63" class="edge"><title>Node31&#45;&gt;Node32</title>
<path fill="none" stroke="midnightblue" d="M1405.58,-246.475C1406.88,-239.396 1408.81,-228.97 1410.58,-219.39"/>
<polygon fill="midnightblue" stroke="midnightblue" points="1414.03,-219.993 1412.41,-209.523 1407.15,-218.72 1414.03,-219.993"/>
</g>
<!-- Node33 -->
<g id="node34" class="node"><title>Node33</title>
<g id="a_node34"><a xlink:href="spec_2schedule__types_8h.html" target="_top" xlink:title="ODP schedule types. ">
<polygon fill="white" stroke="black" points="1216.5,-179.5 1216.5,-209.5 1339.5,-209.5 1339.5,-179.5 1216.5,-179.5"/>
<text text-anchor="start" x="1224.5" y="-197.5" font-family="Helvetica,sans-Serif" font-size="10.00">odp/api/spec/schedule</text>
<text text-anchor="middle" x="1278" y="-186.5" font-family="Helvetica,sans-Serif" font-size="10.00">_types.h</text>
</a>
</g>
</g>
<!-- Node31&#45;&gt;Node33 -->
<g id="edge64" class="edge"><title>Node31&#45;&gt;Node33</title>
<path fill="none" stroke="midnightblue" d="M1385.95,-246.475C1368.01,-238.002 1339.91,-224.737 1316.89,-213.863"/>
<polygon fill="midnightblue" stroke="midnightblue" points="1318.23,-210.628 1307.7,-209.523 1315.24,-216.958 1318.23,-210.628"/>
</g>
<!-- Node33&#45;&gt;Node4 -->
<g id="edge65" class="edge"><title>Node33&#45;&gt;Node4</title>
<path fill="none" stroke="midnightblue" d="M1267.57,-179.42C1245.61,-150.934 1191.57,-86.5785 1130,-56 1070.35,-26.3752 994.451,-15.9356 940.638,-12.4159"/>
<polygon fill="midnightblue" stroke="midnightblue" points="940.708,-8.91406 930.519,-11.8184 940.295,-15.9019 940.708,-8.91406"/>
</g>
<!-- Node33&#45;&gt;Node6 -->
<g id="edge70" class="edge"><title>Node33&#45;&gt;Node6</title>
<path fill="none" stroke="midnightblue" d="M1299.01,-179.485C1322.9,-164.018 1363.48,-139.178 1401,-123 1451.74,-101.121 1487.07,-131.37 1520,-87 1528.21,-75.9367 1526.44,-68.1812 1520,-56 1512.58,-41.9533 1498.58,-31.4667 1485.38,-24.167"/>
<polygon fill="midnightblue" stroke="midnightblue" points="1486.96,-21.0428 1476.46,-19.6178 1483.78,-27.2788 1486.96,-21.0428"/>
</g>
<!-- Node33&#45;&gt;Node34 -->
<g id="edge66" class="edge"><title>Node33&#45;&gt;Node34</title>
<path fill="none" stroke="midnightblue" d="M1321.13,-179.399C1352.58,-169.118 1394.69,-155.351 1424.27,-145.682"/>
<polygon fill="midnightblue" stroke="midnightblue" points="1425.37,-149.005 1433.78,-142.571 1423.19,-142.352 1425.37,-149.005"/>
</g>
<!-- Node35 -->
<g id="node36" class="node"><title>Node35</title>
<g id="a_node36"><a xlink:href="spec_2support_8h.html" target="_top" xlink:title="ODP support API. ">
<polygon fill="white" stroke="black" points="1253,-62 1253,-81 1379,-81 1379,-62 1253,-62"/>
<text text-anchor="middle" x="1316" y="-69" font-family="Helvetica,sans-Serif" font-size="10.00">odp/api/spec/support.h</text>
</a>
</g>
</g>
<!-- Node34&#45;&gt;Node35 -->
<g id="edge67" class="edge"><title>Node34&#45;&gt;Node35</title>
<path fill="none" stroke="midnightblue" d="M1439.37,-123.475C1414.88,-113.357 1373.85,-96.4046 1345.89,-84.8507"/>
<polygon fill="midnightblue" stroke="midnightblue" points="1347.17,-81.5932 1336.59,-81.0091 1344.5,-88.0627 1347.17,-81.5932"/>
</g>
<!-- Node35&#45;&gt;Node4 -->
<g id="edge68" class="edge"><title>Node35&#45;&gt;Node4</title>
<path fill="none" stroke="midnightblue" d="M1273.32,-61.9606C1262.17,-59.8685 1250.16,-57.7345 1239,-56 1135.23,-39.8672 1014.17,-25.9331 940.589,-18.0037"/>
<polygon fill="midnightblue" stroke="midnightblue" points="940.844,-14.511 930.528,-16.9251 940.098,-21.4712 940.844,-14.511"/>
</g>
<!-- Node35&#45;&gt;Node6 -->
<g id="edge69" class="edge"><title>Node35&#45;&gt;Node6</title>
<path fill="none" stroke="midnightblue" d="M1335.77,-61.9751C1359.14,-51.9013 1398.21,-35.0525 1425,-23.5023"/>
<polygon fill="midnightblue" stroke="midnightblue" points="1426.47,-26.6824 1434.26,-19.5091 1423.7,-20.2544 1426.47,-26.6824"/>
</g>
<!-- Node37 -->
<g id="node38" class="node"><title>Node37</title>
<g id="a_node38"><a xlink:href="spec_2threshold_8h.html" target="_top" xlink:title="ODP threshold descriptor. ">
<polygon fill="white" stroke="black" points="267,-185 267,-204 401,-204 401,-185 267,-185"/>
<text text-anchor="middle" x="334" y="-192" font-family="Helvetica,sans-Serif" font-size="10.00">odp/api/spec/threshold.h</text>
</a>
</g>
</g>
<!-- Node36&#45;&gt;Node37 -->
<g id="edge79" class="edge"><title>Node36&#45;&gt;Node37</title>
<path fill="none" stroke="midnightblue" d="M322.724,-649.403C289.236,-634.299 228,-599.622 228,-548 228,-548 228,-548 228,-490 228,-366.492 17.2158,-341.937 95,-246 115.177,-221.114 194.787,-208.013 256.649,-201.454"/>
<polygon fill="midnightblue" stroke="midnightblue" points="257.208,-204.915 266.802,-200.418 256.498,-197.951 257.208,-204.915"/>
</g>
<!-- Node37&#45;&gt;Node1 -->
<g id="edge81" class="edge"><title>Node37&#45;&gt;Node1</title>
<path fill="none" stroke="midnightblue" d="M352.769,-184.975C374.851,-174.945 411.719,-158.2 437.139,-146.655"/>
<polygon fill="midnightblue" stroke="midnightblue" points="438.608,-149.831 446.266,-142.509 435.713,-143.458 438.608,-149.831"/>
</g>
<!-- Node37&#45;&gt;Node4 -->
<g id="edge80" class="edge"><title>Node37&#45;&gt;Node4</title>
<path fill="none" stroke="midnightblue" d="M334.303,-184.921C335.683,-160.192 343.356,-88.4646 386,-56 418.609,-31.1746 679.037,-18.1993 805.099,-13.3203"/>
<polygon fill="midnightblue" stroke="midnightblue" points="805.545,-16.806 815.404,-12.9279 805.278,-9.81104 805.545,-16.806"/>
</g>
<!-- Node37&#45;&gt;Node6 -->
<g id="edge82" class="edge"><title>Node37&#45;&gt;Node6</title>
<path fill="none" stroke="midnightblue" d="M401.294,-188.728C568.234,-176.218 997.464,-139.755 1130,-87 1151.89,-78.287 1151.22,-64.9945 1173,-56 1243.76,-26.7739 1331.8,-16.4413 1390.29,-12.8379"/>
<polygon fill="midnightblue" stroke="midnightblue" points="1390.71,-16.3198 1400.49,-12.259 1390.31,-9.33108 1390.71,-16.3198"/>
</g>
</g>
</svg>
