<?xml version="1.0" encoding="UTF-8" standalone="no"?>
<!DOCTYPE svg PUBLIC "-//W3C//DTD SVG 1.1//EN"
 "http://www.w3.org/Graphics/SVG/1.1/DTD/svg11.dtd">
<!-- Generated by graphviz version 2.38.0 (20140413.2041)
 -->
<!-- Title: comp.h Pages: 1 -->
<svg width="997pt" height="420pt"
 viewBox="0.00 0.00 996.92 420.00" xmlns="http://www.w3.org/2000/svg" xmlns:xlink="http://www.w3.org/1999/xlink">
<g id="graph0" class="graph" transform="scale(1 1) rotate(0) translate(4 416)">
<title>comp.h</title>
<polygon fill="white" stroke="none" points="-4,4 -4,-416 992.916,-416 992.916,4 -4,4"/>
<!-- Node0 -->
<g id="node1" class="node"><title>Node0</title>
<polygon fill="#bfbfbf" stroke="black" points="413.416,-392.5 413.416,-411.5 466.416,-411.5 466.416,-392.5 413.416,-392.5"/>
<text text-anchor="middle" x="439.916" y="-399.5" font-family="Helvetica,sans-Serif" font-size="10.00">comp.h</text>
</g>
<!-- Node1 -->
<g id="node2" class="node"><title>Node1</title>
<polygon fill="white" stroke="#bfbfbf" points="133.916,-336.5 133.916,-355.5 241.916,-355.5 241.916,-336.5 133.916,-336.5"/>
<text text-anchor="middle" x="187.916" y="-343.5" font-family="Helvetica,sans-Serif" font-size="10.00">odp/api/abi/comp.h</text>
</g>
<!-- Node0&#45;&gt;Node1 -->
<g id="edge1" class="edge"><title>Node0&#45;&gt;Node1</title>
<path fill="none" stroke="midnightblue" d="M412.948,-395.221C371.199,-386.275 290.263,-368.932 237.692,-357.666"/>
<polygon fill="midnightblue" stroke="midnightblue" points="238.41,-354.241 227.898,-355.568 236.943,-361.085 238.41,-354.241"/>
</g>
<!-- Node2 -->
<g id="node3" class="node"><title>Node2</title>
<polygon fill="white" stroke="#bfbfbf" points="880.916,-224.5 880.916,-243.5 988.916,-243.5 988.916,-224.5 880.916,-224.5"/>
<text text-anchor="middle" x="934.916" y="-231.5" font-family="Helvetica,sans-Serif" font-size="10.00">odp/api/abi/event.h</text>
</g>
<!-- Node0&#45;&gt;Node2 -->
<g id="edge2" class="edge"><title>Node0&#45;&gt;Node2</title>
<path fill="none" stroke="midnightblue" d="M456.745,-392.367C483.136,-379.055 536.088,-353.254 582.916,-336 690.303,-296.432 820.711,-262.571 888.669,-245.956"/>
<polygon fill="midnightblue" stroke="midnightblue" points="889.739,-249.297 898.629,-243.535 888.085,-242.495 889.739,-249.297"/>
</g>
<!-- Node3 -->
<g id="node4" class="node"><title>Node3</title>
<polygon fill="white" stroke="#bfbfbf" points="591.416,-336.5 591.416,-355.5 702.416,-355.5 702.416,-336.5 591.416,-336.5"/>
<text text-anchor="middle" x="646.916" y="-343.5" font-family="Helvetica,sans-Serif" font-size="10.00">odp/api/abi/queue.h</text>
</g>
<!-- Node0&#45;&gt;Node3 -->
<g id="edge3" class="edge"><title>Node0&#45;&gt;Node3</title>
<path fill="none" stroke="midnightblue" d="M466.554,-394.051C501.457,-384.946 563.077,-368.871 604.452,-358.078"/>
<polygon fill="midnightblue" stroke="midnightblue" points="605.454,-361.433 614.247,-355.522 603.687,-354.66 605.454,-361.433"/>
</g>
<!-- Node4 -->
<g id="node5" class="node"><title>Node4</title>
<g id="a_node5"><a xlink:href="spec_2comp_8h.html" target="_top" xlink:title="ODP Compression. ">
<polygon fill="white" stroke="black" points="259.916,-336.5 259.916,-355.5 375.916,-355.5 375.916,-336.5 259.916,-336.5"/>
<text text-anchor="middle" x="317.916" y="-343.5" font-family="Helvetica,sans-Serif" font-size="10.00">odp/api/spec/comp.h</text>
</a>
</g>
</g>
<!-- Node0&#45;&gt;Node4 -->
<g id="edge4" class="edge"><title>Node0&#45;&gt;Node4</title>
<path fill="none" stroke="midnightblue" d="M420.585,-392.444C400.596,-383.596 369.173,-369.687 346.352,-359.586"/>
<polygon fill="midnightblue" stroke="midnightblue" points="347.718,-356.363 337.157,-355.516 344.885,-362.764 347.718,-356.363"/>
</g>
<!-- Node5 -->
<g id="node6" class="node"><title>Node5</title>
<polygon fill="white" stroke="#bfbfbf" points="122.416,-0.5 122.416,-19.5 237.416,-19.5 237.416,-0.5 122.416,-0.5"/>
<text text-anchor="middle" x="179.916" y="-7.5" font-family="Helvetica,sans-Serif" font-size="10.00">odp/visibility_begin.h</text>
</g>
<!-- Node4&#45;&gt;Node5 -->
<g id="edge5" class="edge"><title>Node4&#45;&gt;Node5</title>
<path fill="none" stroke="midnightblue" d="M259.79,-337.021C174.354,-325.183 24.4164,-303.932 19.9161,-300 -2.74838,-280.196 0.916125,-265.098 0.916125,-235 0.916125,-235 0.916125,-235 0.916125,-121 0.916125,-90.9022 -1.47467,-77.1733 19.9161,-56 44.2504,-31.9131 80.4008,-20.4873 112.186,-15.1605"/>
<polygon fill="midnightblue" stroke="midnightblue" points="112.962,-18.5832 122.331,-13.637 111.923,-11.6608 112.962,-18.5832"/>
</g>
<!-- Node6 -->
<g id="node7" class="node"><title>Node6</title>
<g id="a_node7"><a xlink:href="support_8h.html" target="_top" xlink:title="ODP support API &#45; platform specific header. ">
<polygon fill="white" stroke="black" points="29.4161,-280.5 29.4161,-299.5 130.416,-299.5 130.416,-280.5 29.4161,-280.5"/>
<text text-anchor="middle" x="79.9161" y="-287.5" font-family="Helvetica,sans-Serif" font-size="10.00">odp/api/support.h</text>
</a>
</g>
</g>
<!-- Node4&#45;&gt;Node6 -->
<g id="edge6" class="edge"><title>Node4&#45;&gt;Node6</title>
<path fill="none" stroke="midnightblue" d="M280.204,-336.444C238.773,-327.043 172.159,-311.929 127.249,-301.739"/>
<polygon fill="midnightblue" stroke="midnightblue" points="127.978,-298.316 117.451,-299.516 126.429,-305.142 127.978,-298.316"/>
</g>
<!-- Node8 -->
<g id="node9" class="node"><title>Node8</title>
<polygon fill="white" stroke="#bfbfbf" points="255.416,-0.5 255.416,-19.5 362.416,-19.5 362.416,-0.5 255.416,-0.5"/>
<text text-anchor="middle" x="308.916" y="-7.5" font-family="Helvetica,sans-Serif" font-size="10.00">odp/visibility_end.h</text>
</g>
<!-- Node4&#45;&gt;Node8 -->
<g id="edge31" class="edge"><title>Node4&#45;&gt;Node8</title>
<path fill="none" stroke="midnightblue" d="M293.024,-336.397C258.312,-322.886 196.727,-293.049 170.916,-244 140.407,-186.021 60.0332,-274.943 240.916,-56 251.758,-42.8763 267.419,-32.1527 280.978,-24.4702"/>
<polygon fill="midnightblue" stroke="midnightblue" points="282.798,-27.4659 289.945,-19.6452 279.481,-21.3016 282.798,-27.4659"/>
</g>
<!-- Node9 -->
<g id="node10" class="node"><title>Node9</title>
<g id="a_node10"><a xlink:href="packet_8h.html" target="_top" xlink:title="ODP packet descriptor. ">
<polygon fill="white" stroke="black" points="438.916,-280.5 438.916,-299.5 534.916,-299.5 534.916,-280.5 438.916,-280.5"/>
<text text-anchor="middle" x="486.916" y="-287.5" font-family="Helvetica,sans-Serif" font-size="10.00">odp/api/packet.h</text>
</a>
</g>
</g>
<!-- Node4&#45;&gt;Node9 -->
<g id="edge10" class="edge"><title>Node4&#45;&gt;Node9</title>
<path fill="none" stroke="midnightblue" d="M344.695,-336.444C373.249,-327.32 418.649,-312.813 450.453,-302.651"/>
<polygon fill="midnightblue" stroke="midnightblue" points="451.803,-305.894 460.263,-299.516 449.672,-299.226 451.803,-305.894"/>
</g>
<!-- Node7 -->
<g id="node8" class="node"><title>Node7</title>
<g id="a_node8"><a xlink:href="spec_2support_8h.html" target="_top" xlink:title="ODP support API. ">
<polygon fill="white" stroke="black" points="28.9161,-56.5 28.9161,-75.5 154.916,-75.5 154.916,-56.5 28.9161,-56.5"/>
<text text-anchor="middle" x="91.9161" y="-63.5" font-family="Helvetica,sans-Serif" font-size="10.00">odp/api/spec/support.h</text>
</a>
</g>
</g>
<!-- Node6&#45;&gt;Node7 -->
<g id="edge7" class="edge"><title>Node6&#45;&gt;Node7</title>
<path fill="none" stroke="midnightblue" d="M80.3865,-280.297C82.1522,-247.633 88.4099,-131.866 90.8914,-85.9573"/>
<polygon fill="midnightblue" stroke="midnightblue" points="94.391,-86.0581 91.4359,-75.8837 87.4012,-85.6802 94.391,-86.0581"/>
</g>
<!-- Node7&#45;&gt;Node5 -->
<g id="edge8" class="edge"><title>Node7&#45;&gt;Node5</title>
<path fill="none" stroke="midnightblue" d="M106.055,-56.324C119.782,-47.9002 140.852,-34.9709 156.98,-25.0741"/>
<polygon fill="midnightblue" stroke="midnightblue" points="159.12,-27.8678 165.812,-19.6545 155.459,-21.9016 159.12,-27.8678"/>
</g>
<!-- Node7&#45;&gt;Node8 -->
<g id="edge9" class="edge"><title>Node7&#45;&gt;Node8</title>
<path fill="none" stroke="midnightblue" d="M126.3,-56.4435C163.838,-47.1024 224.047,-32.1194 264.983,-21.9326"/>
<polygon fill="midnightblue" stroke="midnightblue" points="265.834,-25.3278 274.693,-19.5164 264.143,-18.5349 265.834,-25.3278"/>
</g>
<!-- Node9&#45;&gt;Node2 -->
<g id="edge17" class="edge"><title>Node9&#45;&gt;Node2</title>
<path fill="none" stroke="midnightblue" d="M534.959,-281.874C539.673,-281.221 544.386,-280.585 548.916,-280 689.981,-261.781 725.74,-261.332 866.916,-244 868.179,-243.845 869.456,-243.687 870.742,-243.527"/>
<polygon fill="midnightblue" stroke="midnightblue" points="871.255,-246.99 880.737,-242.264 870.378,-240.045 871.255,-246.99"/>
</g>
<!-- Node10 -->
<g id="node11" class="node"><title>Node10</title>
<g id="a_node11"><a xlink:href="std__types_8h.html" target="_top" xlink:title="Standard C language types and definitions for ODP. ">
<polygon fill="white" stroke="black" points="537.916,-112.5 537.916,-131.5 647.916,-131.5 647.916,-112.5 537.916,-112.5"/>
<text text-anchor="middle" x="592.916" y="-119.5" font-family="Helvetica,sans-Serif" font-size="10.00">odp/api/std_types.h</text>
</a>
</g>
</g>
<!-- Node9&#45;&gt;Node10 -->
<g id="edge11" class="edge"><title>Node9&#45;&gt;Node10</title>
<path fill="none" stroke="midnightblue" d="M534.968,-281.935C539.679,-281.269 544.389,-280.614 548.916,-280 612.173,-271.414 791.7,-291.884 833.916,-244 889.814,-180.597 747.004,-146.441 657.958,-131.815"/>
<polygon fill="midnightblue" stroke="midnightblue" points="658.344,-128.332 647.917,-130.21 657.239,-135.245 658.344,-128.332"/>
</g>
<!-- Node14 -->
<g id="node15" class="node"><title>Node14</title>
<polygon fill="white" stroke="#bfbfbf" points="566.416,-224.5 566.416,-243.5 693.416,-243.5 693.416,-224.5 566.416,-224.5"/>
<text text-anchor="middle" x="629.916" y="-231.5" font-family="Helvetica,sans-Serif" font-size="10.00">odp/api/abi/packet_io.h</text>
</g>
<!-- Node9&#45;&gt;Node14 -->
<g id="edge18" class="edge"><title>Node9&#45;&gt;Node14</title>
<path fill="none" stroke="midnightblue" d="M509.575,-280.444C533.318,-271.478 570.825,-257.314 597.655,-247.183"/>
<polygon fill="midnightblue" stroke="midnightblue" points="599.245,-250.324 607.363,-243.516 596.772,-243.775 599.245,-250.324"/>
</g>
<!-- Node15 -->
<g id="node16" class="node"><title>Node15</title>
<polygon fill="white" stroke="#bfbfbf" points="711.416,-224.5 711.416,-243.5 824.416,-243.5 824.416,-224.5 711.416,-224.5"/>
<text text-anchor="middle" x="767.916" y="-231.5" font-family="Helvetica,sans-Serif" font-size="10.00">odp/api/abi/packet.h</text>
</g>
<!-- Node9&#45;&gt;Node15 -->
<g id="edge19" class="edge"><title>Node9&#45;&gt;Node15</title>
<path fill="none" stroke="midnightblue" d="M531.441,-280.444C580.872,-270.944 660.663,-255.611 713.694,-245.42"/>
<polygon fill="midnightblue" stroke="midnightblue" points="714.439,-248.841 723.599,-243.516 713.118,-241.967 714.439,-248.841"/>
</g>
<!-- Node16 -->
<g id="node17" class="node"><title>Node16</title>
<polygon fill="white" stroke="#bfbfbf" points="179.916,-224.5 179.916,-243.5 287.916,-243.5 287.916,-224.5 179.916,-224.5"/>
<text text-anchor="middle" x="233.916" y="-231.5" font-family="Helvetica,sans-Serif" font-size="10.00">odp/api/abi/buffer.h</text>
</g>
<!-- Node9&#45;&gt;Node16 -->
<g id="edge20" class="edge"><title>Node9&#45;&gt;Node16</title>
<path fill="none" stroke="midnightblue" d="M446.828,-280.444C402.6,-271.004 331.378,-255.802 283.631,-245.611"/>
<polygon fill="midnightblue" stroke="midnightblue" points="284.327,-242.181 273.817,-243.516 282.866,-249.027 284.327,-242.181"/>
</g>
<!-- Node17 -->
<g id="node18" class="node"><title>Node17</title>
<polygon fill="white" stroke="#bfbfbf" points="306.416,-224.5 306.416,-243.5 407.416,-243.5 407.416,-224.5 306.416,-224.5"/>
<text text-anchor="middle" x="356.916" y="-231.5" font-family="Helvetica,sans-Serif" font-size="10.00">odp/api/abi/pool.h</text>
</g>
<!-- Node9&#45;&gt;Node17 -->
<g id="edge21" class="edge"><title>Node9&#45;&gt;Node17</title>
<path fill="none" stroke="midnightblue" d="M466.317,-280.444C444.923,-271.557 411.235,-257.563 386.892,-247.451"/>
<polygon fill="midnightblue" stroke="midnightblue" points="387.996,-244.12 377.419,-243.516 385.311,-250.585 387.996,-244.12"/>
</g>
<!-- Node18 -->
<g id="node19" class="node"><title>Node18</title>
<g id="a_node19"><a xlink:href="spec_2packet_8h.html" target="_top" xlink:title="ODP packet descriptor. ">
<polygon fill="white" stroke="black" points="425.916,-224.5 425.916,-243.5 547.916,-243.5 547.916,-224.5 425.916,-224.5"/>
<text text-anchor="middle" x="486.916" y="-231.5" font-family="Helvetica,sans-Serif" font-size="10.00">odp/api/spec/packet.h</text>
</a>
</g>
</g>
<!-- Node9&#45;&gt;Node18 -->
<g id="edge22" class="edge"><title>Node9&#45;&gt;Node18</title>
<path fill="none" stroke="midnightblue" d="M486.916,-280.083C486.916,-273.006 486.916,-262.861 486.916,-253.986"/>
<polygon fill="midnightblue" stroke="midnightblue" points="490.416,-253.751 486.916,-243.751 483.416,-253.751 490.416,-253.751"/>
</g>
<!-- Node11 -->
<g id="node12" class="node"><title>Node11</title>
<polygon fill="white" stroke="#bfbfbf" points="378.916,-56.5 378.916,-75.5 506.916,-75.5 506.916,-56.5 378.916,-56.5"/>
<text text-anchor="middle" x="442.916" y="-63.5" font-family="Helvetica,sans-Serif" font-size="10.00">odp/api/abi/std_types.h</text>
</g>
<!-- Node10&#45;&gt;Node11 -->
<g id="edge12" class="edge"><title>Node10&#45;&gt;Node11</title>
<path fill="none" stroke="midnightblue" d="M569.148,-112.444C544.023,-103.399 504.205,-89.064 476.016,-78.9158"/>
<polygon fill="midnightblue" stroke="midnightblue" points="477.167,-75.6106 466.573,-75.5164 474.796,-82.1968 477.167,-75.6106"/>
</g>
<!-- Node12 -->
<g id="node13" class="node"><title>Node12</title>
<g id="a_node13"><a xlink:href="spec_2std__types_8h.html" target="_top" xlink:title="Standard C language types and definitions for ODP. ">
<polygon fill="white" stroke="black" points="524.916,-56.5 524.916,-75.5 660.916,-75.5 660.916,-56.5 524.916,-56.5"/>
<text text-anchor="middle" x="592.916" y="-63.5" font-family="Helvetica,sans-Serif" font-size="10.00">odp/api/spec/std_types.h</text>
</a>
</g>
</g>
<!-- Node10&#45;&gt;Node12 -->
<g id="edge13" class="edge"><title>Node10&#45;&gt;Node12</title>
<path fill="none" stroke="midnightblue" d="M592.916,-112.083C592.916,-105.006 592.916,-94.8611 592.916,-85.9865"/>
<polygon fill="midnightblue" stroke="midnightblue" points="596.416,-85.751 592.916,-75.7511 589.416,-85.7511 596.416,-85.751"/>
</g>
<!-- Node12&#45;&gt;Node5 -->
<g id="edge14" class="edge"><title>Node12&#45;&gt;Node5</title>
<path fill="none" stroke="midnightblue" d="M526.897,-56.4974C459.441,-47.7907 351.367,-33.7891 247.677,-20.096"/>
<polygon fill="midnightblue" stroke="midnightblue" points="248.03,-16.6123 237.658,-18.772 247.113,-23.5519 248.03,-16.6123"/>
</g>
<!-- Node12&#45;&gt;Node8 -->
<g id="edge16" class="edge"><title>Node12&#45;&gt;Node8</title>
<path fill="none" stroke="midnightblue" d="M547.915,-56.4435C497.957,-46.9444 417.315,-31.611 363.717,-21.4198"/>
<polygon fill="midnightblue" stroke="midnightblue" points="364.184,-17.9461 353.706,-19.5164 362.876,-24.8228 364.184,-17.9461"/>
</g>
<!-- Node13 -->
<g id="node14" class="node"><title>Node13</title>
<polygon fill="white" stroke="#bfbfbf" points="566.416,-0.5 566.416,-19.5 619.416,-19.5 619.416,-0.5 566.416,-0.5"/>
<text text-anchor="middle" x="592.916" y="-7.5" font-family="Helvetica,sans-Serif" font-size="10.00">stdint.h</text>
</g>
<!-- Node12&#45;&gt;Node13 -->
<g id="edge15" class="edge"><title>Node12&#45;&gt;Node13</title>
<path fill="none" stroke="midnightblue" d="M592.916,-56.083C592.916,-49.0059 592.916,-38.8611 592.916,-29.9865"/>
<polygon fill="midnightblue" stroke="midnightblue" points="596.416,-29.751 592.916,-19.7511 589.416,-29.7511 596.416,-29.751"/>
</g>
<!-- Node18&#45;&gt;Node5 -->
<g id="edge23" class="edge"><title>Node18&#45;&gt;Node5</title>
<path fill="none" stroke="midnightblue" d="M470.436,-224.367C429.443,-202.508 320.459,-141.996 240.916,-76 222.965,-61.1063 205.008,-41.2195 193.273,-27.3813"/>
<polygon fill="midnightblue" stroke="midnightblue" points="195.917,-25.0871 186.827,-19.6454 190.54,-29.5684 195.917,-25.0871"/>
</g>
<!-- Node18&#45;&gt;Node8 -->
<g id="edge30" class="edge"><title>Node18&#45;&gt;Node8</title>
<path fill="none" stroke="midnightblue" d="M508.903,-224.472C569.626,-199.754 731.211,-125.409 669.916,-56 650.611,-34.1385 471.223,-20.3971 372.814,-14.4393"/>
<polygon fill="midnightblue" stroke="midnightblue" points="372.871,-10.9366 362.681,-13.836 372.455,-17.9242 372.871,-10.9366"/>
</g>
<!-- Node19 -->
<g id="node20" class="node"><title>Node19</title>
<g id="a_node20"><a xlink:href="time_8h.html" target="_top" xlink:title="ODP time. ">
<polygon fill="white" stroke="black" points="433.916,-168.5 433.916,-187.5 519.916,-187.5 519.916,-168.5 433.916,-168.5"/>
<text text-anchor="middle" x="476.916" y="-175.5" font-family="Helvetica,sans-Serif" font-size="10.00">odp/api/time.h</text>
</a>
</g>
</g>
<!-- Node18&#45;&gt;Node19 -->
<g id="edge24" class="edge"><title>Node18&#45;&gt;Node19</title>
<path fill="none" stroke="midnightblue" d="M485.265,-224.083C483.94,-216.927 482.034,-206.635 480.377,-197.691"/>
<polygon fill="midnightblue" stroke="midnightblue" points="483.799,-196.947 478.537,-187.751 476.916,-198.221 483.799,-196.947"/>
</g>
<!-- Node19&#45;&gt;Node10 -->
<g id="edge25" class="edge"><title>Node19&#45;&gt;Node10</title>
<path fill="none" stroke="midnightblue" d="M495.297,-168.444C514.133,-159.675 543.647,-145.935 565.295,-135.858"/>
<polygon fill="midnightblue" stroke="midnightblue" points="567.033,-138.91 574.622,-131.516 564.079,-132.564 567.033,-138.91"/>
</g>
<!-- Node20 -->
<g id="node21" class="node"><title>Node20</title>
<polygon fill="white" stroke="#bfbfbf" points="416.416,-112.5 416.416,-131.5 519.416,-131.5 519.416,-112.5 416.416,-112.5"/>
<text text-anchor="middle" x="467.916" y="-119.5" font-family="Helvetica,sans-Serif" font-size="10.00">odp/api/abi/time.h</text>
</g>
<!-- Node19&#45;&gt;Node20 -->
<g id="edge26" class="edge"><title>Node19&#45;&gt;Node20</title>
<path fill="none" stroke="midnightblue" d="M475.43,-168.083C474.237,-160.927 472.522,-150.635 471.031,-141.691"/>
<polygon fill="midnightblue" stroke="midnightblue" points="474.471,-141.04 469.375,-131.751 467.566,-142.19 474.471,-141.04"/>
</g>
<!-- Node21 -->
<g id="node22" class="node"><title>Node21</title>
<g id="a_node22"><a xlink:href="spec_2time_8h.html" target="_top" xlink:title="ODP time. ">
<polygon fill="white" stroke="black" points="249.416,-56.5 249.416,-75.5 360.416,-75.5 360.416,-56.5 249.416,-56.5"/>
<text text-anchor="middle" x="304.916" y="-63.5" font-family="Helvetica,sans-Serif" font-size="10.00">odp/api/spec/time.h</text>
</a>
</g>
</g>
<!-- Node19&#45;&gt;Node21 -->
<g id="edge27" class="edge"><title>Node19&#45;&gt;Node21</title>
<path fill="none" stroke="midnightblue" d="M463.42,-168.368C433.904,-149.492 363.373,-104.385 327.177,-81.2367"/>
<polygon fill="midnightblue" stroke="midnightblue" points="328.66,-78.0306 318.35,-75.5914 324.889,-83.9278 328.66,-78.0306"/>
</g>
<!-- Node21&#45;&gt;Node5 -->
<g id="edge28" class="edge"><title>Node21&#45;&gt;Node5</title>
<path fill="none" stroke="midnightblue" d="M285.11,-56.4435C264.629,-47.5961 232.433,-33.6875 209.051,-23.5865"/>
<polygon fill="midnightblue" stroke="midnightblue" points="210.198,-20.2692 199.63,-19.5164 207.422,-26.6953 210.198,-20.2692"/>
</g>
<!-- Node21&#45;&gt;Node8 -->
<g id="edge29" class="edge"><title>Node21&#45;&gt;Node8</title>
<path fill="none" stroke="midnightblue" d="M305.577,-56.083C306.101,-49.0059 306.852,-38.8611 307.51,-29.9865"/>
<polygon fill="midnightblue" stroke="midnightblue" points="311.02,-29.9823 308.268,-19.7511 304.039,-29.4652 311.02,-29.9823"/>
</g>
</g>
</svg>
