<?xml version="1.0" encoding="UTF-8" standalone="no"?>
<!DOCTYPE svg PUBLIC "-//W3C//DTD SVG 1.1//EN"
 "http://www.w3.org/Graphics/SVG/1.1/DTD/svg11.dtd">
<!-- Generated by graphviz version 2.38.0 (20140413.2041)
 -->
<!-- Title: cpu.h Pages: 1 -->
<svg width="744pt" height="263pt"
 viewBox="0.00 0.00 744.42 263.00" xmlns="http://www.w3.org/2000/svg" xmlns:xlink="http://www.w3.org/1999/xlink">
<g id="graph0" class="graph" transform="scale(1 1) rotate(0) translate(4 259)">
<title>cpu.h</title>
<polygon fill="white" stroke="none" points="-4,4 -4,-259 740.42,-259 740.42,4 -4,4"/>
<!-- Node0 -->
<g id="node1" class="node"><title>Node0</title>
<polygon fill="#bfbfbf" stroke="black" points="254,-235.5 254,-254.5 297,-254.5 297,-235.5 254,-235.5"/>
<text text-anchor="middle" x="275.5" y="-242.5" font-family="Helvetica,sans-Serif" font-size="10.00">cpu.h</text>
</g>
<!-- Node1 -->
<g id="node2" class="node"><title>Node1</title>
<polygon fill="white" stroke="#bfbfbf" points="149.5,-179.5 149.5,-198.5 247.5,-198.5 247.5,-179.5 149.5,-179.5"/>
<text text-anchor="middle" x="198.5" y="-186.5" font-family="Helvetica,sans-Serif" font-size="10.00">odp/api/abi/cpu.h</text>
</g>
<!-- Node0&#45;&gt;Node1 -->
<g id="edge1" class="edge"><title>Node0&#45;&gt;Node1</title>
<path fill="none" stroke="midnightblue" d="M263.129,-235.324C251.342,-227.058 233.368,-214.453 219.364,-204.632"/>
<polygon fill="midnightblue" stroke="midnightblue" points="221.038,-201.531 210.841,-198.655 217.018,-207.262 221.038,-201.531"/>
</g>
<!-- Node2 -->
<g id="node3" class="node"><title>Node2</title>
<g id="a_node3"><a xlink:href="thread_8h.html" target="_top" xlink:title="ODP thread API. ">
<polygon fill="white" stroke="black" points="198,-123.5 198,-142.5 293,-142.5 293,-123.5 198,-123.5"/>
<text text-anchor="middle" x="245.5" y="-130.5" font-family="Helvetica,sans-Serif" font-size="10.00">odp/api/thread.h</text>
</a>
</g>
</g>
<!-- Node0&#45;&gt;Node2 -->
<g id="edge2" class="edge"><title>Node0&#45;&gt;Node2</title>
<path fill="none" stroke="midnightblue" d="M273.146,-235.368C268.283,-217.537 257.035,-176.295 250.483,-152.272"/>
<polygon fill="midnightblue" stroke="midnightblue" points="253.851,-151.318 247.843,-142.591 247.098,-153.16 253.851,-151.318"/>
</g>
<!-- Node8 -->
<g id="node9" class="node"><title>Node8</title>
<g id="a_node9"><a xlink:href="spec_2cpu_8h.html" target="_top" xlink:title="ODP CPU API. ">
<polygon fill="white" stroke="black" points="421,-179.5 421,-198.5 528,-198.5 528,-179.5 421,-179.5"/>
<text text-anchor="middle" x="474.5" y="-186.5" font-family="Helvetica,sans-Serif" font-size="10.00">odp/api/spec/cpu.h</text>
</a>
</g>
</g>
<!-- Node0&#45;&gt;Node8 -->
<g id="edge8" class="edge"><title>Node0&#45;&gt;Node8</title>
<path fill="none" stroke="midnightblue" d="M297.175,-238.118C329.747,-229.28 391.9,-212.414 433.282,-201.185"/>
<polygon fill="midnightblue" stroke="midnightblue" points="434.331,-204.527 443.066,-198.53 432.498,-197.771 434.331,-204.527"/>
</g>
<!-- Node3 -->
<g id="node4" class="node"><title>Node3</title>
<g id="a_node4"><a xlink:href="thread__types_8h.html" target="_top" xlink:title="ODP thread API types. ">
<polygon fill="white" stroke="black" points="131.5,-56.5 131.5,-86.5 243.5,-86.5 243.5,-56.5 131.5,-56.5"/>
<text text-anchor="start" x="139.5" y="-74.5" font-family="Helvetica,sans-Serif" font-size="10.00">odp/api/spec/thread</text>
<text text-anchor="middle" x="187.5" y="-63.5" font-family="Helvetica,sans-Serif" font-size="10.00">_types.h</text>
</a>
</g>
</g>
<!-- Node2&#45;&gt;Node3 -->
<g id="edge3" class="edge"><title>Node2&#45;&gt;Node3</title>
<path fill="none" stroke="midnightblue" d="M237.19,-123.475C229.702,-115.793 218.373,-104.172 208.423,-93.9643"/>
<polygon fill="midnightblue" stroke="midnightblue" points="210.656,-91.2407 201.169,-86.523 205.643,-96.1268 210.656,-91.2407"/>
</g>
<!-- Node4 -->
<g id="node5" class="node"><title>Node4</title>
<polygon fill="white" stroke="#bfbfbf" points="0,-62 0,-81 113,-81 113,-62 0,-62"/>
<text text-anchor="middle" x="56.5" y="-69" font-family="Helvetica,sans-Serif" font-size="10.00">odp/api/abi/thread.h</text>
</g>
<!-- Node2&#45;&gt;Node4 -->
<g id="edge4" class="edge"><title>Node2&#45;&gt;Node4</title>
<path fill="none" stroke="midnightblue" d="M218.421,-123.475C185.58,-113.136 130.07,-95.6611 93.3525,-84.1017"/>
<polygon fill="midnightblue" stroke="midnightblue" points="94.1184,-80.6735 83.5289,-81.0091 92.0163,-87.3505 94.1184,-80.6735"/>
</g>
<!-- Node5 -->
<g id="node6" class="node"><title>Node5</title>
<g id="a_node6"><a xlink:href="spec_2thread_8h.html" target="_top" xlink:title="ODP thread API. ">
<polygon fill="white" stroke="black" points="262,-62 262,-81 383,-81 383,-62 262,-62"/>
<text text-anchor="middle" x="322.5" y="-69" font-family="Helvetica,sans-Serif" font-size="10.00">odp/api/spec/thread.h</text>
</a>
</g>
</g>
<!-- Node2&#45;&gt;Node5 -->
<g id="edge5" class="edge"><title>Node2&#45;&gt;Node5</title>
<path fill="none" stroke="midnightblue" d="M256.532,-123.475C268.768,-114.02 288.729,-98.5961 303.493,-87.1871"/>
<polygon fill="midnightblue" stroke="midnightblue" points="305.715,-89.8931 311.488,-81.0091 301.435,-84.3541 305.715,-89.8931"/>
</g>
<!-- Node6 -->
<g id="node7" class="node"><title>Node6</title>
<polygon fill="white" stroke="#bfbfbf" points="545,-0.5 545,-19.5 660,-19.5 660,-0.5 545,-0.5"/>
<text text-anchor="middle" x="602.5" y="-7.5" font-family="Helvetica,sans-Serif" font-size="10.00">odp/visibility_begin.h</text>
</g>
<!-- Node5&#45;&gt;Node6 -->
<g id="edge6" class="edge"><title>Node5&#45;&gt;Node6</title>
<path fill="none" stroke="midnightblue" d="M362.617,-61.9751C412.622,-51.349 498.101,-33.1847 552.371,-21.6524"/>
<polygon fill="midnightblue" stroke="midnightblue" points="553.403,-25.0113 562.457,-19.5091 551.948,-18.1642 553.403,-25.0113"/>
</g>
<!-- Node7 -->
<g id="node8" class="node"><title>Node7</title>
<polygon fill="white" stroke="#bfbfbf" points="358,-0.5 358,-19.5 465,-19.5 465,-0.5 358,-0.5"/>
<text text-anchor="middle" x="411.5" y="-7.5" font-family="Helvetica,sans-Serif" font-size="10.00">odp/visibility_end.h</text>
</g>
<!-- Node5&#45;&gt;Node7 -->
<g id="edge7" class="edge"><title>Node5&#45;&gt;Node7</title>
<path fill="none" stroke="midnightblue" d="M335.252,-61.9751C349.527,-52.4315 372.897,-36.8073 390.008,-25.3683"/>
<polygon fill="midnightblue" stroke="midnightblue" points="392.404,-27.9766 398.772,-19.5091 388.514,-22.1572 392.404,-27.9766"/>
</g>
<!-- Node8&#45;&gt;Node6 -->
<g id="edge9" class="edge"><title>Node8&#45;&gt;Node6</title>
<path fill="none" stroke="midnightblue" d="M528.174,-183.96C588.918,-176.188 685.276,-153.459 730.5,-87 738.251,-75.6093 738.465,-67.2425 730.5,-56 720.936,-42.5003 683.33,-30.2668 651.335,-21.9744"/>
<polygon fill="midnightblue" stroke="midnightblue" points="652.174,-18.5767 641.622,-19.5304 650.466,-25.365 652.174,-18.5767"/>
</g>
<!-- Node8&#45;&gt;Node7 -->
<g id="edge16" class="edge"><title>Node8&#45;&gt;Node7</title>
<path fill="none" stroke="midnightblue" d="M465.937,-179.5C457.878,-170.999 446.09,-157.181 439.5,-143 421.956,-105.248 415.276,-56.3032 412.832,-29.8956"/>
<polygon fill="midnightblue" stroke="midnightblue" points="416.307,-29.4434 412.003,-19.7619 409.33,-30.0138 416.307,-29.4434"/>
</g>
<!-- Node9 -->
<g id="node10" class="node"><title>Node9</title>
<g id="a_node10"><a xlink:href="std__types_8h.html" target="_top" xlink:title="Standard C language types and definitions for ODP. ">
<polygon fill="white" stroke="black" points="448.5,-123.5 448.5,-142.5 558.5,-142.5 558.5,-123.5 448.5,-123.5"/>
<text text-anchor="middle" x="503.5" y="-130.5" font-family="Helvetica,sans-Serif" font-size="10.00">odp/api/std_types.h</text>
</a>
</g>
</g>
<!-- Node8&#45;&gt;Node9 -->
<g id="edge10" class="edge"><title>Node8&#45;&gt;Node9</title>
<path fill="none" stroke="midnightblue" d="M479.289,-179.083C483.258,-171.691 489.025,-160.953 493.935,-151.811"/>
<polygon fill="midnightblue" stroke="midnightblue" points="497.153,-153.217 498.8,-142.751 490.986,-149.905 497.153,-153.217"/>
</g>
<!-- Node10 -->
<g id="node11" class="node"><title>Node10</title>
<polygon fill="white" stroke="#bfbfbf" points="439.5,-62 439.5,-81 567.5,-81 567.5,-62 439.5,-62"/>
<text text-anchor="middle" x="503.5" y="-69" font-family="Helvetica,sans-Serif" font-size="10.00">odp/api/abi/std_types.h</text>
</g>
<!-- Node9&#45;&gt;Node10 -->
<g id="edge11" class="edge"><title>Node9&#45;&gt;Node10</title>
<path fill="none" stroke="midnightblue" d="M503.5,-123.475C503.5,-115.08 503.5,-101.981 503.5,-91.1631"/>
<polygon fill="midnightblue" stroke="midnightblue" points="507,-91.0091 503.5,-81.0091 500,-91.0091 507,-91.0091"/>
</g>
<!-- Node11 -->
<g id="node12" class="node"><title>Node11</title>
<g id="a_node12"><a xlink:href="spec_2std__types_8h.html" target="_top" xlink:title="Standard C language types and definitions for ODP. ">
<polygon fill="white" stroke="black" points="585.5,-62 585.5,-81 721.5,-81 721.5,-62 585.5,-62"/>
<text text-anchor="middle" x="653.5" y="-69" font-family="Helvetica,sans-Serif" font-size="10.00">odp/api/spec/std_types.h</text>
</a>
</g>
</g>
<!-- Node9&#45;&gt;Node11 -->
<g id="edge12" class="edge"><title>Node9&#45;&gt;Node11</title>
<path fill="none" stroke="midnightblue" d="M524.991,-123.475C550.61,-113.313 593.61,-96.2564 622.745,-84.6996"/>
<polygon fill="midnightblue" stroke="midnightblue" points="624.044,-87.9497 632.049,-81.0091 621.463,-81.4429 624.044,-87.9497"/>
</g>
<!-- Node11&#45;&gt;Node6 -->
<g id="edge13" class="edge"><title>Node11&#45;&gt;Node6</title>
<path fill="none" stroke="midnightblue" d="M646.193,-61.9751C638.467,-52.9617 626.092,-38.5246 616.482,-27.3118"/>
<polygon fill="midnightblue" stroke="midnightblue" points="618.959,-24.8239 609.794,-19.5091 613.644,-29.3795 618.959,-24.8239"/>
</g>
<!-- Node11&#45;&gt;Node7 -->
<g id="edge15" class="edge"><title>Node11&#45;&gt;Node7</title>
<path fill="none" stroke="midnightblue" d="M618.827,-61.9751C575.968,-51.4374 502.957,-33.4863 456.001,-21.9415"/>
<polygon fill="midnightblue" stroke="midnightblue" points="456.655,-18.498 446.108,-19.5091 454.984,-25.2955 456.655,-18.498"/>
</g>
<!-- Node12 -->
<g id="node13" class="node"><title>Node12</title>
<polygon fill="white" stroke="#bfbfbf" points="678,-0.5 678,-19.5 731,-19.5 731,-0.5 678,-0.5"/>
<text text-anchor="middle" x="704.5" y="-7.5" font-family="Helvetica,sans-Serif" font-size="10.00">stdint.h</text>
</g>
<!-- Node11&#45;&gt;Node12 -->
<g id="edge14" class="edge"><title>Node11&#45;&gt;Node12</title>
<path fill="none" stroke="midnightblue" d="M660.807,-61.9751C668.533,-52.9617 680.908,-38.5246 690.518,-27.3118"/>
<polygon fill="midnightblue" stroke="midnightblue" points="693.356,-29.3795 697.206,-19.5091 688.041,-24.8239 693.356,-29.3795"/>
</g>
</g>
</svg>
