<?xml version="1.0" encoding="UTF-8" standalone="no"?>
<!DOCTYPE svg PUBLIC "-//W3C//DTD SVG 1.1//EN"
 "http://www.w3.org/Graphics/SVG/1.1/DTD/svg11.dtd">
<!-- Generated by graphviz version 2.38.0 (20140413.2041)
 -->
<!-- Title: cpumask.h Pages: 1 -->
<svg width="163pt" height="252pt"
 viewBox="0.00 0.00 163.00 252.00" xmlns="http://www.w3.org/2000/svg" xmlns:xlink="http://www.w3.org/1999/xlink">
<g id="graph0" class="graph" transform="scale(1 1) rotate(0) translate(4 248)">
<title>cpumask.h</title>
<polygon fill="white" stroke="none" points="-4,4 -4,-248 159,-248 159,4 -4,4"/>
<!-- Node5 -->
<g id="node1" class="node"><title>Node5</title>
<polygon fill="#bfbfbf" stroke="black" points="33,-224.5 33,-243.5 102,-243.5 102,-224.5 33,-224.5"/>
<text text-anchor="middle" x="67.5" y="-231.5" font-family="Helvetica,sans-Serif" font-size="10.00">cpumask.h</text>
</g>
<!-- Node6 -->
<g id="node2" class="node"><title>Node6</title>
<g id="a_node2"><a xlink:href="abi-default_2thrmask_8h.html" target="_top" xlink:title="ODP thread masks. ">
<polygon fill="white" stroke="black" points="0,-168.5 0,-187.5 65,-187.5 65,-168.5 0,-168.5"/>
<text text-anchor="middle" x="32.5" y="-175.5" font-family="Helvetica,sans-Serif" font-size="10.00">thrmask.h</text>
</a>
</g>
</g>
<!-- Node5&#45;&gt;Node6 -->
<g id="edge1" class="edge"><title>Node5&#45;&gt;Node6</title>
<path fill="none" stroke="midnightblue" d="M56.1999,-215.566C50.1781,-206.275 43.0314,-195.248 38.172,-187.751"/>
<polygon fill="midnightblue" stroke="midnightblue" points="53.3444,-217.595 61.7205,-224.083 59.2185,-213.788 53.3444,-217.595"/>
</g>
<!-- Node7 -->
<g id="node3" class="node"><title>Node7</title>
<g id="a_node3"><a xlink:href="spec_2init_8h.html" target="_top" xlink:title="init.h">
<polygon fill="white" stroke="black" points="83.5,-168.5 83.5,-187.5 123.5,-187.5 123.5,-168.5 83.5,-168.5"/>
<text text-anchor="middle" x="103.5" y="-175.5" font-family="Helvetica,sans-Serif" font-size="10.00">init.h</text>
</a>
</g>
</g>
<!-- Node5&#45;&gt;Node7 -->
<g id="edge2" class="edge"><title>Node5&#45;&gt;Node7</title>
<path fill="none" stroke="midnightblue" d="M79.1229,-215.566C85.3168,-206.275 92.6677,-195.248 97.6659,-187.751"/>
<polygon fill="midnightblue" stroke="midnightblue" points="76.0795,-213.821 73.4447,-224.083 81.9039,-217.704 76.0795,-213.821"/>
</g>
<!-- Node8 -->
<g id="node4" class="node"><title>Node8</title>
<g id="a_node4"><a xlink:href="init_8h.html" target="_top" xlink:title="ODP initialization. ">
<polygon fill="white" stroke="black" points="83.5,-112.5 83.5,-131.5 123.5,-131.5 123.5,-112.5 83.5,-112.5"/>
<text text-anchor="middle" x="103.5" y="-119.5" font-family="Helvetica,sans-Serif" font-size="10.00">init.h</text>
</a>
</g>
</g>
<!-- Node7&#45;&gt;Node8 -->
<g id="edge3" class="edge"><title>Node7&#45;&gt;Node8</title>
<path fill="none" stroke="midnightblue" d="M103.5,-157.805C103.5,-148.91 103.5,-138.78 103.5,-131.751"/>
<polygon fill="midnightblue" stroke="midnightblue" points="100,-158.083 103.5,-168.083 107,-158.083 100,-158.083"/>
</g>
<!-- Node9 -->
<g id="node5" class="node"><title>Node9</title>
<g id="a_node5"><a xlink:href="spec_2shared__memory_8h.html" target="_top" xlink:title="ODP shared memory. ">
<polygon fill="white" stroke="black" points="52,-56.5 52,-75.5 155,-75.5 155,-56.5 52,-56.5"/>
<text text-anchor="middle" x="103.5" y="-63.5" font-family="Helvetica,sans-Serif" font-size="10.00">shared_memory.h</text>
</a>
</g>
</g>
<!-- Node8&#45;&gt;Node9 -->
<g id="edge4" class="edge"><title>Node8&#45;&gt;Node9</title>
<path fill="none" stroke="midnightblue" d="M103.5,-101.805C103.5,-92.9102 103.5,-82.7798 103.5,-75.7511"/>
<polygon fill="midnightblue" stroke="midnightblue" points="100,-102.083 103.5,-112.083 107,-102.083 100,-102.083"/>
</g>
<!-- Node10 -->
<g id="node6" class="node"><title>Node10</title>
<g id="a_node6"><a xlink:href="shared__memory_8h.html" target="_top" xlink:title="ODP shared memory. ">
<polygon fill="white" stroke="black" points="52,-0.5 52,-19.5 155,-19.5 155,-0.5 52,-0.5"/>
<text text-anchor="middle" x="103.5" y="-7.5" font-family="Helvetica,sans-Serif" font-size="10.00">shared_memory.h</text>
</a>
</g>
</g>
<!-- Node9&#45;&gt;Node10 -->
<g id="edge5" class="edge"><title>Node9&#45;&gt;Node10</title>
<path fill="none" stroke="midnightblue" d="M103.5,-45.8045C103.5,-36.9102 103.5,-26.7798 103.5,-19.7511"/>
<polygon fill="midnightblue" stroke="midnightblue" points="100,-46.083 103.5,-56.083 107,-46.083 100,-46.083"/>
</g>
</g>
</svg>
