<?xml version="1.0" encoding="UTF-8" standalone="no"?>
<!DOCTYPE svg PUBLIC "-//W3C//DTD SVG 1.1//EN"
 "http://www.w3.org/Graphics/SVG/1.1/DTD/svg11.dtd">
<!-- Generated by graphviz version 2.38.0 (20140413.2041)
 -->
<!-- Title: debug.h Pages: 1 -->
<svg width="314pt" height="140pt"
 viewBox="0.00 0.00 314.00 140.00" xmlns="http://www.w3.org/2000/svg" xmlns:xlink="http://www.w3.org/1999/xlink">
<g id="graph0" class="graph" transform="scale(1 1) rotate(0) translate(4 136)">
<title>debug.h</title>
<polygon fill="white" stroke="none" points="-4,4 -4,-136 310,-136 310,4 -4,4"/>
<!-- Node0 -->
<g id="node1" class="node"><title>Node0</title>
<polygon fill="#bfbfbf" stroke="black" points="93.5,-112.5 93.5,-131.5 149.5,-131.5 149.5,-112.5 93.5,-112.5"/>
<text text-anchor="middle" x="121.5" y="-119.5" font-family="Helvetica,sans-Serif" font-size="10.00">debug.h</text>
</g>
<!-- Node1 -->
<g id="node2" class="node"><title>Node1</title>
<polygon fill="white" stroke="#bfbfbf" points="-7.10543e-15,-56.5 -7.10543e-15,-75.5 111,-75.5 111,-56.5 -7.10543e-15,-56.5"/>
<text text-anchor="middle" x="55.5" y="-63.5" font-family="Helvetica,sans-Serif" font-size="10.00">odp/api/abi/debug.h</text>
</g>
<!-- Node0&#45;&gt;Node1 -->
<g id="edge1" class="edge"><title>Node0&#45;&gt;Node1</title>
<path fill="none" stroke="midnightblue" d="M110.896,-112.324C101.044,-104.263 86.1491,-92.0765 74.2849,-82.3695"/>
<polygon fill="midnightblue" stroke="midnightblue" points="76.2529,-79.4575 66.297,-75.8339 71.8202,-84.8752 76.2529,-79.4575"/>
</g>
<!-- Node2 -->
<g id="node3" class="node"><title>Node2</title>
<g id="a_node3"><a xlink:href="spec_2debug_8h.html" target="_top" xlink:title="ODP debug. ">
<polygon fill="white" stroke="black" points="129,-56.5 129,-75.5 248,-75.5 248,-56.5 129,-56.5"/>
<text text-anchor="middle" x="188.5" y="-63.5" font-family="Helvetica,sans-Serif" font-size="10.00">odp/api/spec/debug.h</text>
</a>
</g>
</g>
<!-- Node0&#45;&gt;Node2 -->
<g id="edge2" class="edge"><title>Node0&#45;&gt;Node2</title>
<path fill="none" stroke="midnightblue" d="M132.265,-112.324C142.266,-104.263 157.387,-92.0765 169.43,-82.3695"/>
<polygon fill="midnightblue" stroke="midnightblue" points="171.95,-84.8343 177.539,-75.8339 167.557,-79.3841 171.95,-84.8343"/>
</g>
<!-- Node3 -->
<g id="node4" class="node"><title>Node3</title>
<polygon fill="white" stroke="#bfbfbf" points="66,-0.5 66,-19.5 181,-19.5 181,-0.5 66,-0.5"/>
<text text-anchor="middle" x="123.5" y="-7.5" font-family="Helvetica,sans-Serif" font-size="10.00">odp/visibility_begin.h</text>
</g>
<!-- Node2&#45;&gt;Node3 -->
<g id="edge3" class="edge"><title>Node2&#45;&gt;Node3</title>
<path fill="none" stroke="midnightblue" d="M178.057,-56.324C168.354,-48.2631 153.685,-36.0765 142,-26.3695"/>
<polygon fill="midnightblue" stroke="midnightblue" points="144.062,-23.532 134.133,-19.8339 139.589,-28.9163 144.062,-23.532"/>
</g>
<!-- Node4 -->
<g id="node5" class="node"><title>Node4</title>
<polygon fill="white" stroke="#bfbfbf" points="199,-0.5 199,-19.5 306,-19.5 306,-0.5 199,-0.5"/>
<text text-anchor="middle" x="252.5" y="-7.5" font-family="Helvetica,sans-Serif" font-size="10.00">odp/visibility_end.h</text>
</g>
<!-- Node2&#45;&gt;Node4 -->
<g id="edge4" class="edge"><title>Node2&#45;&gt;Node4</title>
<path fill="none" stroke="midnightblue" d="M198.783,-56.324C208.336,-48.2631 222.78,-36.0765 234.284,-26.3695"/>
<polygon fill="midnightblue" stroke="midnightblue" points="236.644,-28.9577 242.03,-19.8339 232.13,-23.6076 236.644,-28.9577"/>
</g>
</g>
</svg>
