<?xml version="1.0" encoding="UTF-8" standalone="no"?>
<!DOCTYPE svg PUBLIC "-//W3C//DTD SVG 1.1//EN"
 "http://www.w3.org/Graphics/SVG/1.1/DTD/svg11.dtd">
<!-- Generated by graphviz version 2.38.0 (20140413.2041)
 -->
<!-- Title: deprecated.h Pages: 1 -->
<svg width="374pt" height="532pt"
 viewBox="0.00 0.00 374.21 532.00" xmlns="http://www.w3.org/2000/svg" xmlns:xlink="http://www.w3.org/1999/xlink">
<g id="graph0" class="graph" transform="scale(1 1) rotate(0) translate(4 528)">
<title>deprecated.h</title>
<polygon fill="white" stroke="none" points="-4,4 -4,-528 370.205,-528 370.205,4 -4,4"/>
<!-- Node4 -->
<g id="node1" class="node"><title>Node4</title>
<polygon fill="#bfbfbf" stroke="black" points="110,-504.5 110,-523.5 190,-523.5 190,-504.5 110,-504.5"/>
<text text-anchor="middle" x="150" y="-511.5" font-family="Helvetica,sans-Serif" font-size="10.00">deprecated.h</text>
</g>
<!-- Node5 -->
<g id="node2" class="node"><title>Node5</title>
<g id="a_node2"><a xlink:href="abi-default_2classification_8h_source.html" target="_top" xlink:title="classification.h">
<polygon fill="white" stroke="black" points="0,-448.5 0,-467.5 86,-467.5 86,-448.5 0,-448.5"/>
<text text-anchor="middle" x="43" y="-455.5" font-family="Helvetica,sans-Serif" font-size="10.00">classification.h</text>
</a>
</g>
</g>
<!-- Node4&#45;&gt;Node5 -->
<g id="edge1" class="edge"><title>Node4&#45;&gt;Node5</title>
<path fill="none" stroke="midnightblue" d="M123.698,-499.726C103.885,-489.727 77.2925,-476.307 60.1487,-467.655"/>
<polygon fill="midnightblue" stroke="midnightblue" points="122.304,-502.943 132.809,-504.324 125.458,-496.694 122.304,-502.943"/>
</g>
<!-- Node6 -->
<g id="node3" class="node"><title>Node6</title>
<g id="a_node3"><a xlink:href="spec_2crypto_8h.html" target="_top" xlink:title="ODP crypto. ">
<polygon fill="white" stroke="black" points="8,-392.5 8,-411.5 64,-411.5 64,-392.5 8,-392.5"/>
<text text-anchor="middle" x="36" y="-399.5" font-family="Helvetica,sans-Serif" font-size="10.00">crypto.h</text>
</a>
</g>
</g>
<!-- Node4&#45;&gt;Node6 -->
<g id="edge2" class="edge"><title>Node4&#45;&gt;Node6</title>
<path fill="none" stroke="midnightblue" d="M137.637,-496.461C127.041,-482.783 110.996,-463.205 95,-448 80.2475,-433.977 61.2308,-420.122 48.8331,-411.57"/>
<polygon fill="midnightblue" stroke="midnightblue" points="134.913,-498.661 143.758,-504.493 140.48,-494.418 134.913,-498.661"/>
</g>
<!-- Node10 -->
<g id="node7" class="node"><title>Node10</title>
<g id="a_node7"><a xlink:href="spec_2packet__io_8h.html" target="_top" xlink:title="ODP Packet IO. ">
<polygon fill="white" stroke="black" points="266.5,-280.5 266.5,-299.5 337.5,-299.5 337.5,-280.5 266.5,-280.5"/>
<text text-anchor="middle" x="302" y="-287.5" font-family="Helvetica,sans-Serif" font-size="10.00">packet_io.h</text>
</a>
</g>
</g>
<!-- Node4&#45;&gt;Node10 -->
<g id="edge6" class="edge"><title>Node4&#45;&gt;Node10</title>
<path fill="none" stroke="midnightblue" d="M182.967,-500.462C200.691,-492.746 222.276,-481.704 239,-468 263.483,-447.938 270.358,-441.018 283,-412 300.156,-372.621 302.067,-320.05 302.11,-299.624"/>
<polygon fill="midnightblue" stroke="midnightblue" points="181.44,-497.307 173.572,-504.402 184.148,-503.762 181.44,-497.307"/>
</g>
<!-- Node16 -->
<g id="node13" class="node"><title>Node16</title>
<g id="a_node13"><a xlink:href="queue__types_8h.html" target="_top" xlink:title="ODP queue types. ">
<polygon fill="white" stroke="black" points="142.5,-448.5 142.5,-467.5 229.5,-467.5 229.5,-448.5 142.5,-448.5"/>
<text text-anchor="middle" x="186" y="-455.5" font-family="Helvetica,sans-Serif" font-size="10.00">queue_types.h</text>
</a>
</g>
</g>
<!-- Node4&#45;&gt;Node16 -->
<g id="edge14" class="edge"><title>Node4&#45;&gt;Node16</title>
<path fill="none" stroke="midnightblue" d="M161.623,-495.566C167.817,-486.275 175.168,-475.248 180.166,-467.751"/>
<polygon fill="midnightblue" stroke="midnightblue" points="158.58,-493.821 155.945,-504.083 164.404,-497.704 158.58,-493.821"/>
</g>
<!-- Node7 -->
<g id="node4" class="node"><title>Node7</title>
<g id="a_node4"><a xlink:href="crypto_8h.html" target="_top" xlink:title="ODP crypto. ">
<polygon fill="white" stroke="black" points="100,-280.5 100,-299.5 156,-299.5 156,-280.5 100,-280.5"/>
<text text-anchor="middle" x="128" y="-287.5" font-family="Helvetica,sans-Serif" font-size="10.00">crypto.h</text>
</a>
</g>
</g>
<!-- Node6&#45;&gt;Node7 -->
<g id="edge3" class="edge"><title>Node6&#45;&gt;Node7</title>
<path fill="none" stroke="midnightblue" d="M48.2644,-384.16C58.135,-370.831 72.5335,-351.881 86,-336 97.0585,-322.959 110.7,-308.641 119.376,-299.737"/>
<polygon fill="midnightblue" stroke="midnightblue" points="45.3228,-382.252 42.2214,-392.383 50.9635,-386.398 45.3228,-382.252"/>
</g>
<!-- Node8 -->
<g id="node5" class="node"><title>Node8</title>
<g id="a_node5"><a xlink:href="spec_2ipsec_8h.html" target="_top" xlink:title="ODP IPSEC API. ">
<polygon fill="white" stroke="black" points="174,-56.5 174,-75.5 224,-75.5 224,-56.5 174,-56.5"/>
<text text-anchor="middle" x="199" y="-63.5" font-family="Helvetica,sans-Serif" font-size="10.00">ipsec.h</text>
</a>
</g>
</g>
<!-- Node7&#45;&gt;Node8 -->
<g id="edge4" class="edge"><title>Node7&#45;&gt;Node8</title>
<path fill="none" stroke="midnightblue" d="M125.69,-269.954C122.483,-236.051 119.822,-163.927 147,-112 155.304,-96.1336 171.73,-83.4111 183.908,-75.5956"/>
<polygon fill="midnightblue" stroke="midnightblue" points="122.248,-270.688 126.798,-280.256 129.208,-269.939 122.248,-270.688"/>
</g>
<!-- Node9 -->
<g id="node6" class="node"><title>Node9</title>
<g id="a_node6"><a xlink:href="ipsec_8h.html" target="_top" xlink:title="ODP IPSEC API &#45; platform specific header. ">
<polygon fill="white" stroke="black" points="174,-0.5 174,-19.5 224,-19.5 224,-0.5 174,-0.5"/>
<text text-anchor="middle" x="199" y="-7.5" font-family="Helvetica,sans-Serif" font-size="10.00">ipsec.h</text>
</a>
</g>
</g>
<!-- Node8&#45;&gt;Node9 -->
<g id="edge5" class="edge"><title>Node8&#45;&gt;Node9</title>
<path fill="none" stroke="midnightblue" d="M199,-45.8045C199,-36.9102 199,-26.7798 199,-19.7511"/>
<polygon fill="midnightblue" stroke="midnightblue" points="195.5,-46.083 199,-56.083 202.5,-46.083 195.5,-46.083"/>
</g>
<!-- Node11 -->
<g id="node8" class="node"><title>Node11</title>
<g id="a_node8"><a xlink:href="packet__io_8h.html" target="_top" xlink:title="ODP Packet IO. ">
<polygon fill="white" stroke="black" points="266.5,-224.5 266.5,-243.5 337.5,-243.5 337.5,-224.5 266.5,-224.5"/>
<text text-anchor="middle" x="302" y="-231.5" font-family="Helvetica,sans-Serif" font-size="10.00">packet_io.h</text>
</a>
</g>
</g>
<!-- Node10&#45;&gt;Node11 -->
<g id="edge7" class="edge"><title>Node10&#45;&gt;Node11</title>
<path fill="none" stroke="midnightblue" d="M302,-269.805C302,-260.91 302,-250.78 302,-243.751"/>
<polygon fill="midnightblue" stroke="midnightblue" points="298.5,-270.083 302,-280.083 305.5,-270.083 298.5,-270.083"/>
</g>
<!-- Node11&#45;&gt;Node8 -->
<g id="edge11" class="edge"><title>Node11&#45;&gt;Node8</title>
<path fill="none" stroke="midnightblue" d="M326.121,-218.473C336.437,-210.828 347.384,-200.445 353,-188 366.894,-157.212 373.26,-139.027 353,-112 337.504,-91.3283 263.606,-76.9868 224.08,-70.6555"/>
<polygon fill="midnightblue" stroke="midnightblue" points="323.994,-215.688 317.734,-224.236 327.958,-221.457 323.994,-215.688"/>
</g>
<!-- Node12 -->
<g id="node9" class="node"><title>Node12</title>
<g id="a_node9"><a xlink:href="spec_2classification_8h.html" target="_top" xlink:title="ODP classification descriptor. ">
<polygon fill="white" stroke="black" points="156,-168.5 156,-187.5 242,-187.5 242,-168.5 156,-168.5"/>
<text text-anchor="middle" x="199" y="-175.5" font-family="Helvetica,sans-Serif" font-size="10.00">classification.h</text>
</a>
</g>
</g>
<!-- Node11&#45;&gt;Node12 -->
<g id="edge8" class="edge"><title>Node11&#45;&gt;Node12</title>
<path fill="none" stroke="midnightblue" d="M276.421,-219.59C257.377,-209.605 231.936,-196.267 215.508,-187.655"/>
<polygon fill="midnightblue" stroke="midnightblue" points="274.969,-222.78 285.451,-224.324 278.22,-216.581 274.969,-222.78"/>
</g>
<!-- Node14 -->
<g id="node11" class="node"><title>Node14</title>
<g id="a_node11"><a xlink:href="spec_2traffic__mngr_8h.html" target="_top" xlink:title="Copyright (c) 2015&#45;2018, Linaro Limited All rights reserved. ">
<polygon fill="white" stroke="black" points="260.5,-168.5 260.5,-187.5 343.5,-187.5 343.5,-168.5 260.5,-168.5"/>
<text text-anchor="middle" x="302" y="-175.5" font-family="Helvetica,sans-Serif" font-size="10.00">traffic_mngr.h</text>
</a>
</g>
</g>
<!-- Node11&#45;&gt;Node14 -->
<g id="edge12" class="edge"><title>Node11&#45;&gt;Node14</title>
<path fill="none" stroke="midnightblue" d="M302,-213.805C302,-204.91 302,-194.78 302,-187.751"/>
<polygon fill="midnightblue" stroke="midnightblue" points="298.5,-214.083 302,-224.083 305.5,-214.083 298.5,-214.083"/>
</g>
<!-- Node13 -->
<g id="node10" class="node"><title>Node13</title>
<g id="a_node10"><a xlink:href="classification_8h.html" target="_top" xlink:title="ODP classification descriptor. ">
<polygon fill="white" stroke="black" points="156,-112.5 156,-131.5 242,-131.5 242,-112.5 156,-112.5"/>
<text text-anchor="middle" x="199" y="-119.5" font-family="Helvetica,sans-Serif" font-size="10.00">classification.h</text>
</a>
</g>
</g>
<!-- Node12&#45;&gt;Node13 -->
<g id="edge9" class="edge"><title>Node12&#45;&gt;Node13</title>
<path fill="none" stroke="midnightblue" d="M199,-157.805C199,-148.91 199,-138.78 199,-131.751"/>
<polygon fill="midnightblue" stroke="midnightblue" points="195.5,-158.083 199,-168.083 202.5,-158.083 195.5,-158.083"/>
</g>
<!-- Node13&#45;&gt;Node8 -->
<g id="edge10" class="edge"><title>Node13&#45;&gt;Node8</title>
<path fill="none" stroke="midnightblue" d="M199,-101.805C199,-92.9102 199,-82.7798 199,-75.7511"/>
<polygon fill="midnightblue" stroke="midnightblue" points="195.5,-102.083 199,-112.083 202.5,-102.083 195.5,-102.083"/>
</g>
<!-- Node15 -->
<g id="node12" class="node"><title>Node15</title>
<g id="a_node12"><a xlink:href="traffic__mngr_8h.html" target="_top" xlink:title="ODP Traffic manager. ">
<polygon fill="white" stroke="black" points="260.5,-112.5 260.5,-131.5 343.5,-131.5 343.5,-112.5 260.5,-112.5"/>
<text text-anchor="middle" x="302" y="-119.5" font-family="Helvetica,sans-Serif" font-size="10.00">traffic_mngr.h</text>
</a>
</g>
</g>
<!-- Node14&#45;&gt;Node15 -->
<g id="edge13" class="edge"><title>Node14&#45;&gt;Node15</title>
<path fill="none" stroke="midnightblue" d="M302,-157.805C302,-148.91 302,-138.78 302,-131.751"/>
<polygon fill="midnightblue" stroke="midnightblue" points="298.5,-158.083 302,-168.083 305.5,-158.083 298.5,-158.083"/>
</g>
<!-- Node17 -->
<g id="node14" class="node"><title>Node17</title>
<g id="a_node14"><a xlink:href="spec_2queue_8h.html" target="_top" xlink:title="ODP queue. ">
<polygon fill="white" stroke="black" points="218,-392.5 218,-411.5 274,-411.5 274,-392.5 218,-392.5"/>
<text text-anchor="middle" x="246" y="-399.5" font-family="Helvetica,sans-Serif" font-size="10.00">queue.h</text>
</a>
</g>
</g>
<!-- Node16&#45;&gt;Node17 -->
<g id="edge15" class="edge"><title>Node16&#45;&gt;Node17</title>
<path fill="none" stroke="midnightblue" d="M203.181,-441.537C213.879,-431.909 227.256,-419.869 236.185,-411.834"/>
<polygon fill="midnightblue" stroke="midnightblue" points="200.732,-439.033 195.64,-448.324 205.414,-444.236 200.732,-439.033"/>
</g>
<!-- Node21 -->
<g id="node18" class="node"><title>Node21</title>
<g id="a_node18"><a xlink:href="queue__inline__types_8h_source.html" target="_top" xlink:title="queue_inline_types.h">
<polygon fill="white" stroke="black" points="82.5,-392.5 82.5,-411.5 199.5,-411.5 199.5,-392.5 82.5,-392.5"/>
<text text-anchor="middle" x="141" y="-399.5" font-family="Helvetica,sans-Serif" font-size="10.00">queue_inline_types.h</text>
</a>
</g>
</g>
<!-- Node16&#45;&gt;Node21 -->
<g id="edge21" class="edge"><title>Node16&#45;&gt;Node21</title>
<path fill="none" stroke="midnightblue" d="M171.953,-440.144C164.113,-430.736 154.671,-419.405 148.293,-411.751"/>
<polygon fill="midnightblue" stroke="midnightblue" points="169.479,-442.641 178.569,-448.083 174.856,-438.16 169.479,-442.641"/>
</g>
<!-- Node18 -->
<g id="node15" class="node"><title>Node18</title>
<g id="a_node15"><a xlink:href="queue_8h.html" target="_top" xlink:title="ODP queue. ">
<polygon fill="white" stroke="black" points="212,-336.5 212,-355.5 268,-355.5 268,-336.5 212,-336.5"/>
<text text-anchor="middle" x="240" y="-343.5" font-family="Helvetica,sans-Serif" font-size="10.00">queue.h</text>
</a>
</g>
</g>
<!-- Node17&#45;&gt;Node18 -->
<g id="edge16" class="edge"><title>Node17&#45;&gt;Node18</title>
<path fill="none" stroke="midnightblue" d="M243.9,-382.101C242.904,-373.136 241.762,-362.858 240.972,-355.751"/>
<polygon fill="midnightblue" stroke="midnightblue" points="240.426,-382.531 245.009,-392.083 247.383,-381.758 240.426,-382.531"/>
</g>
<!-- Node18&#45;&gt;Node7 -->
<g id="edge17" class="edge"><title>Node18&#45;&gt;Node7</title>
<path fill="none" stroke="midnightblue" d="M212.751,-331.862C191.984,-321.849 163.977,-308.346 145.95,-299.655"/>
<polygon fill="midnightblue" stroke="midnightblue" points="211.477,-335.134 222.005,-336.324 214.518,-328.828 211.477,-335.134"/>
</g>
<!-- Node18&#45;&gt;Node10 -->
<g id="edge18" class="edge"><title>Node18&#45;&gt;Node10</title>
<path fill="none" stroke="midnightblue" d="M257.754,-329.537C268.808,-319.909 282.631,-307.869 291.857,-299.834"/>
<polygon fill="midnightblue" stroke="midnightblue" points="255.203,-327.117 249.961,-336.324 259.801,-332.395 255.203,-327.117"/>
</g>
<!-- Node19 -->
<g id="node16" class="node"><title>Node19</title>
<g id="a_node16"><a xlink:href="spec_2schedule_8h.html" target="_top" xlink:title="ODP schedule. ">
<polygon fill="white" stroke="black" points="180,-280.5 180,-299.5 248,-299.5 248,-280.5 180,-280.5"/>
<text text-anchor="middle" x="214" y="-287.5" font-family="Helvetica,sans-Serif" font-size="10.00">schedule.h</text>
</a>
</g>
</g>
<!-- Node18&#45;&gt;Node19 -->
<g id="edge19" class="edge"><title>Node18&#45;&gt;Node19</title>
<path fill="none" stroke="midnightblue" d="M231.325,-326.983C226.912,-317.817 221.748,-307.092 218.213,-299.751"/>
<polygon fill="midnightblue" stroke="midnightblue" points="228.215,-328.591 235.707,-336.083 234.522,-325.555 228.215,-328.591"/>
</g>
<!-- Node20 -->
<g id="node17" class="node"><title>Node20</title>
<g id="a_node17"><a xlink:href="schedule_8h.html" target="_top" xlink:title="ODP schedule. ">
<polygon fill="white" stroke="black" points="180,-224.5 180,-243.5 248,-243.5 248,-224.5 180,-224.5"/>
<text text-anchor="middle" x="214" y="-231.5" font-family="Helvetica,sans-Serif" font-size="10.00">schedule.h</text>
</a>
</g>
</g>
<!-- Node19&#45;&gt;Node20 -->
<g id="edge20" class="edge"><title>Node19&#45;&gt;Node20</title>
<path fill="none" stroke="midnightblue" d="M214,-269.805C214,-260.91 214,-250.78 214,-243.751"/>
<polygon fill="midnightblue" stroke="midnightblue" points="210.5,-270.083 214,-280.083 217.5,-270.083 210.5,-270.083"/>
</g>
<!-- Node22 -->
<g id="node19" class="node"><title>Node22</title>
<g id="a_node19"><a xlink:href="queue__inlines_8h_source.html" target="_top" xlink:title="queue_inlines.h">
<polygon fill="white" stroke="black" points="95.5,-336.5 95.5,-355.5 186.5,-355.5 186.5,-336.5 95.5,-336.5"/>
<text text-anchor="middle" x="141" y="-343.5" font-family="Helvetica,sans-Serif" font-size="10.00">queue_inlines.h</text>
</a>
</g>
</g>
<!-- Node21&#45;&gt;Node22 -->
<g id="edge22" class="edge"><title>Node21&#45;&gt;Node22</title>
<path fill="none" stroke="midnightblue" d="M141,-381.805C141,-372.91 141,-362.78 141,-355.751"/>
<polygon fill="midnightblue" stroke="midnightblue" points="137.5,-382.083 141,-392.083 144.5,-382.083 137.5,-382.083"/>
</g>
</g>
</svg>
