<?xml version="1.0" encoding="UTF-8" standalone="no"?>
<!DOCTYPE svg PUBLIC "-//W3C//DTD SVG 1.1//EN"
 "http://www.w3.org/Graphics/SVG/1.1/DTD/svg11.dtd">
<!-- Generated by graphviz version 2.38.0 (20140413.2041)
 -->
<!-- Title: errno.h Pages: 1 -->
<svg width="308pt" height="140pt"
 viewBox="0.00 0.00 308.00 140.00" xmlns="http://www.w3.org/2000/svg" xmlns:xlink="http://www.w3.org/1999/xlink">
<g id="graph0" class="graph" transform="scale(1 1) rotate(0) translate(4 136)">
<title>errno.h</title>
<polygon fill="white" stroke="none" points="-4,4 -4,-136 304,-136 304,4 -4,4"/>
<!-- Node0 -->
<g id="node1" class="node"><title>Node0</title>
<polygon fill="#bfbfbf" stroke="black" points="92,-112.5 92,-131.5 143,-131.5 143,-112.5 92,-112.5"/>
<text text-anchor="middle" x="117.5" y="-119.5" font-family="Helvetica,sans-Serif" font-size="10.00">errno.h</text>
</g>
<!-- Node1 -->
<g id="node2" class="node"><title>Node1</title>
<polygon fill="white" stroke="#bfbfbf" points="-7.10543e-15,-56.5 -7.10543e-15,-75.5 107,-75.5 107,-56.5 -7.10543e-15,-56.5"/>
<text text-anchor="middle" x="53.5" y="-63.5" font-family="Helvetica,sans-Serif" font-size="10.00">odp/api/abi/errno.h</text>
</g>
<!-- Node0&#45;&gt;Node1 -->
<g id="edge1" class="edge"><title>Node0&#45;&gt;Node1</title>
<path fill="none" stroke="midnightblue" d="M107.217,-112.324C97.6637,-104.263 83.2203,-92.0765 71.7157,-82.3695"/>
<polygon fill="midnightblue" stroke="midnightblue" points="73.8698,-79.6076 63.9698,-75.8339 69.3557,-84.9577 73.8698,-79.6076"/>
</g>
<!-- Node2 -->
<g id="node3" class="node"><title>Node2</title>
<g id="a_node3"><a xlink:href="spec_2errno_8h.html" target="_top" xlink:title="ODP errno API. ">
<polygon fill="white" stroke="black" points="125,-56.5 125,-75.5 240,-75.5 240,-56.5 125,-56.5"/>
<text text-anchor="middle" x="182.5" y="-63.5" font-family="Helvetica,sans-Serif" font-size="10.00">odp/api/spec/errno.h</text>
</a>
</g>
</g>
<!-- Node0&#45;&gt;Node2 -->
<g id="edge2" class="edge"><title>Node0&#45;&gt;Node2</title>
<path fill="none" stroke="midnightblue" d="M127.943,-112.324C137.646,-104.263 152.315,-92.0765 164,-82.3695"/>
<polygon fill="midnightblue" stroke="midnightblue" points="166.411,-84.9163 171.867,-75.8339 161.938,-79.532 166.411,-84.9163"/>
</g>
<!-- Node3 -->
<g id="node4" class="node"><title>Node3</title>
<polygon fill="white" stroke="#bfbfbf" points="60,-0.5 60,-19.5 175,-19.5 175,-0.5 60,-0.5"/>
<text text-anchor="middle" x="117.5" y="-7.5" font-family="Helvetica,sans-Serif" font-size="10.00">odp/visibility_begin.h</text>
</g>
<!-- Node2&#45;&gt;Node3 -->
<g id="edge3" class="edge"><title>Node2&#45;&gt;Node3</title>
<path fill="none" stroke="midnightblue" d="M172.057,-56.324C162.354,-48.2631 147.685,-36.0765 136,-26.3695"/>
<polygon fill="midnightblue" stroke="midnightblue" points="138.062,-23.532 128.133,-19.8339 133.589,-28.9163 138.062,-23.532"/>
</g>
<!-- Node4 -->
<g id="node5" class="node"><title>Node4</title>
<polygon fill="white" stroke="#bfbfbf" points="193,-0.5 193,-19.5 300,-19.5 300,-0.5 193,-0.5"/>
<text text-anchor="middle" x="246.5" y="-7.5" font-family="Helvetica,sans-Serif" font-size="10.00">odp/visibility_end.h</text>
</g>
<!-- Node2&#45;&gt;Node4 -->
<g id="edge4" class="edge"><title>Node2&#45;&gt;Node4</title>
<path fill="none" stroke="midnightblue" d="M192.783,-56.324C202.336,-48.2631 216.78,-36.0765 228.284,-26.3695"/>
<polygon fill="midnightblue" stroke="midnightblue" points="230.644,-28.9577 236.03,-19.8339 226.13,-23.6076 230.644,-28.9577"/>
</g>
</g>
</svg>
