<?xml version="1.0" encoding="UTF-8" standalone="no"?>
<!DOCTYPE svg PUBLIC "-//W3C//DTD SVG 1.1//EN"
 "http://www.w3.org/Graphics/SVG/1.1/DTD/svg11.dtd">
<!-- Generated by graphviz version 2.38.0 (20140413.2041)
 -->
<!-- Title: event.h Pages: 1 -->
<svg width="283pt" height="476pt"
 viewBox="0.00 0.00 282.50 476.00" xmlns="http://www.w3.org/2000/svg" xmlns:xlink="http://www.w3.org/1999/xlink">
<g id="graph0" class="graph" transform="scale(1 1) rotate(0) translate(4 472)">
<title>event.h</title>
<polygon fill="white" stroke="none" points="-4,4 -4,-472 278.5,-472 278.5,4 -4,4"/>
<!-- Node18 -->
<g id="node1" class="node"><title>Node18</title>
<polygon fill="#bfbfbf" stroke="black" points="132.5,-448.5 132.5,-467.5 185.5,-467.5 185.5,-448.5 132.5,-448.5"/>
<text text-anchor="middle" x="159" y="-455.5" font-family="Helvetica,sans-Serif" font-size="10.00">event.h</text>
</g>
<!-- Node19 -->
<g id="node2" class="node"><title>Node19</title>
<g id="a_node2"><a xlink:href="spec_2queue_8h.html" target="_top" xlink:title="ODP queue. ">
<polygon fill="white" stroke="black" points="103,-392.5 103,-411.5 159,-411.5 159,-392.5 103,-392.5"/>
<text text-anchor="middle" x="131" y="-399.5" font-family="Helvetica,sans-Serif" font-size="10.00">queue.h</text>
</a>
</g>
</g>
<!-- Node18&#45;&gt;Node19 -->
<g id="edge1" class="edge"><title>Node18&#45;&gt;Node19</title>
<path fill="none" stroke="midnightblue" d="M149.658,-438.983C144.905,-429.817 139.344,-419.092 135.538,-411.751"/>
<polygon fill="midnightblue" stroke="midnightblue" points="146.666,-440.817 154.376,-448.083 152.88,-437.594 146.666,-440.817"/>
</g>
<!-- Node30 -->
<g id="node13" class="node"><title>Node30</title>
<g id="a_node13"><a xlink:href="spec_2schedule_8h.html" target="_top" xlink:title="ODP schedule. ">
<polygon fill="white" stroke="black" points="177,-280.5 177,-299.5 245,-299.5 245,-280.5 177,-280.5"/>
<text text-anchor="middle" x="211" y="-287.5" font-family="Helvetica,sans-Serif" font-size="10.00">schedule.h</text>
</a>
</g>
</g>
<!-- Node18&#45;&gt;Node30 -->
<g id="edge16" class="edge"><title>Node18&#45;&gt;Node30</title>
<path fill="none" stroke="midnightblue" d="M164.828,-438.395C176.046,-402.585 200.242,-325.342 208.316,-299.568"/>
<polygon fill="midnightblue" stroke="midnightblue" points="161.445,-437.486 161.796,-448.075 168.125,-439.579 161.445,-437.486"/>
</g>
<!-- Node20 -->
<g id="node3" class="node"><title>Node20</title>
<g id="a_node3"><a xlink:href="queue_8h.html" target="_top" xlink:title="ODP queue. ">
<polygon fill="white" stroke="black" points="103,-336.5 103,-355.5 159,-355.5 159,-336.5 103,-336.5"/>
<text text-anchor="middle" x="131" y="-343.5" font-family="Helvetica,sans-Serif" font-size="10.00">queue.h</text>
</a>
</g>
</g>
<!-- Node19&#45;&gt;Node20 -->
<g id="edge2" class="edge"><title>Node19&#45;&gt;Node20</title>
<path fill="none" stroke="midnightblue" d="M131,-381.805C131,-372.91 131,-362.78 131,-355.751"/>
<polygon fill="midnightblue" stroke="midnightblue" points="127.5,-382.083 131,-392.083 134.5,-382.083 127.5,-382.083"/>
</g>
<!-- Node21 -->
<g id="node4" class="node"><title>Node21</title>
<g id="a_node4"><a xlink:href="crypto_8h.html" target="_top" xlink:title="ODP crypto. ">
<polygon fill="white" stroke="black" points="0,-224.5 0,-243.5 56,-243.5 56,-224.5 0,-224.5"/>
<text text-anchor="middle" x="28" y="-231.5" font-family="Helvetica,sans-Serif" font-size="10.00">crypto.h</text>
</a>
</g>
</g>
<!-- Node20&#45;&gt;Node21 -->
<g id="edge3" class="edge"><title>Node20&#45;&gt;Node21</title>
<path fill="none" stroke="midnightblue" d="M111.352,-329.975C100.967,-321.634 88.2785,-310.787 78,-300 60.3214,-281.447 42.7841,-256.849 33.9294,-243.879"/>
<polygon fill="midnightblue" stroke="midnightblue" points="109.408,-332.899 119.43,-336.335 113.739,-327.399 109.408,-332.899"/>
</g>
<!-- Node24 -->
<g id="node7" class="node"><title>Node24</title>
<g id="a_node7"><a xlink:href="spec_2packet__io_8h.html" target="_top" xlink:title="ODP Packet IO. ">
<polygon fill="white" stroke="black" points="87.5,-280.5 87.5,-299.5 158.5,-299.5 158.5,-280.5 87.5,-280.5"/>
<text text-anchor="middle" x="123" y="-287.5" font-family="Helvetica,sans-Serif" font-size="10.00">packet_io.h</text>
</a>
</g>
</g>
<!-- Node20&#45;&gt;Node24 -->
<g id="edge6" class="edge"><title>Node20&#45;&gt;Node24</title>
<path fill="none" stroke="midnightblue" d="M128.2,-326.101C126.872,-317.136 125.349,-306.858 124.296,-299.751"/>
<polygon fill="midnightblue" stroke="midnightblue" points="124.751,-326.704 129.679,-336.083 131.676,-325.678 124.751,-326.704"/>
</g>
<!-- Node20&#45;&gt;Node30 -->
<g id="edge14" class="edge"><title>Node20&#45;&gt;Node30</title>
<path fill="none" stroke="midnightblue" d="M152.301,-330.622C166.915,-320.757 185.827,-307.992 198.179,-299.655"/>
<polygon fill="midnightblue" stroke="midnightblue" points="150.184,-327.828 143.853,-336.324 154.1,-333.63 150.184,-327.828"/>
</g>
<!-- Node22 -->
<g id="node5" class="node"><title>Node22</title>
<g id="a_node5"><a xlink:href="spec_2ipsec_8h.html" target="_top" xlink:title="ODP IPSEC API. ">
<polygon fill="white" stroke="black" points="34,-56.5 34,-75.5 84,-75.5 84,-56.5 34,-56.5"/>
<text text-anchor="middle" x="59" y="-63.5" font-family="Helvetica,sans-Serif" font-size="10.00">ipsec.h</text>
</a>
</g>
</g>
<!-- Node21&#45;&gt;Node22 -->
<g id="edge4" class="edge"><title>Node21&#45;&gt;Node22</title>
<path fill="none" stroke="midnightblue" d="M29.6808,-214.272C32.0445,-190.348 36.982,-147.755 45,-112 47.9003,-99.0666 52.7362,-84.4817 55.8966,-75.5147"/>
<polygon fill="midnightblue" stroke="midnightblue" points="26.1795,-214.121 28.7249,-224.406 33.1486,-214.779 26.1795,-214.121"/>
</g>
<!-- Node23 -->
<g id="node6" class="node"><title>Node23</title>
<g id="a_node6"><a xlink:href="ipsec_8h.html" target="_top" xlink:title="ODP IPSEC API &#45; platform specific header. ">
<polygon fill="white" stroke="black" points="34,-0.5 34,-19.5 84,-19.5 84,-0.5 34,-0.5"/>
<text text-anchor="middle" x="59" y="-7.5" font-family="Helvetica,sans-Serif" font-size="10.00">ipsec.h</text>
</a>
</g>
</g>
<!-- Node22&#45;&gt;Node23 -->
<g id="edge5" class="edge"><title>Node22&#45;&gt;Node23</title>
<path fill="none" stroke="midnightblue" d="M59,-45.8045C59,-36.9102 59,-26.7798 59,-19.7511"/>
<polygon fill="midnightblue" stroke="midnightblue" points="55.5001,-46.083 59,-56.083 62.5001,-46.083 55.5001,-46.083"/>
</g>
<!-- Node25 -->
<g id="node8" class="node"><title>Node25</title>
<g id="a_node8"><a xlink:href="packet__io_8h.html" target="_top" xlink:title="ODP Packet IO. ">
<polygon fill="white" stroke="black" points="87.5,-224.5 87.5,-243.5 158.5,-243.5 158.5,-224.5 87.5,-224.5"/>
<text text-anchor="middle" x="123" y="-231.5" font-family="Helvetica,sans-Serif" font-size="10.00">packet_io.h</text>
</a>
</g>
</g>
<!-- Node24&#45;&gt;Node25 -->
<g id="edge7" class="edge"><title>Node24&#45;&gt;Node25</title>
<path fill="none" stroke="midnightblue" d="M123,-269.805C123,-260.91 123,-250.78 123,-243.751"/>
<polygon fill="midnightblue" stroke="midnightblue" points="119.5,-270.083 123,-280.083 126.5,-270.083 119.5,-270.083"/>
</g>
<!-- Node25&#45;&gt;Node22 -->
<g id="edge11" class="edge"><title>Node25&#45;&gt;Node22</title>
<path fill="none" stroke="midnightblue" d="M103,-217.98C93.9178,-210.072 83.9064,-199.611 78,-188 58.5247,-149.715 57.9541,-96.5115 58.5799,-75.7698"/>
<polygon fill="midnightblue" stroke="midnightblue" points="100.982,-220.852 110.935,-224.484 105.42,-215.438 100.982,-220.852"/>
</g>
<!-- Node26 -->
<g id="node9" class="node"><title>Node26</title>
<g id="a_node9"><a xlink:href="spec_2classification_8h.html" target="_top" xlink:title="ODP classification descriptor. ">
<polygon fill="white" stroke="black" points="87,-168.5 87,-187.5 173,-187.5 173,-168.5 87,-168.5"/>
<text text-anchor="middle" x="130" y="-175.5" font-family="Helvetica,sans-Serif" font-size="10.00">classification.h</text>
</a>
</g>
</g>
<!-- Node25&#45;&gt;Node26 -->
<g id="edge8" class="edge"><title>Node25&#45;&gt;Node26</title>
<path fill="none" stroke="midnightblue" d="M125.45,-214.101C126.612,-205.136 127.944,-194.858 128.866,-187.751"/>
<polygon fill="midnightblue" stroke="midnightblue" points="121.971,-213.716 124.156,-224.083 128.912,-214.616 121.971,-213.716"/>
</g>
<!-- Node28 -->
<g id="node11" class="node"><title>Node28</title>
<g id="a_node11"><a xlink:href="spec_2traffic__mngr_8h.html" target="_top" xlink:title="Copyright (c) 2015&#45;2018, Linaro Limited All rights reserved. ">
<polygon fill="white" stroke="black" points="191.5,-168.5 191.5,-187.5 274.5,-187.5 274.5,-168.5 191.5,-168.5"/>
<text text-anchor="middle" x="233" y="-175.5" font-family="Helvetica,sans-Serif" font-size="10.00">traffic_mngr.h</text>
</a>
</g>
</g>
<!-- Node25&#45;&gt;Node28 -->
<g id="edge12" class="edge"><title>Node25&#45;&gt;Node28</title>
<path fill="none" stroke="midnightblue" d="M149.762,-219.862C170.159,-209.849 197.666,-196.346 215.37,-187.655"/>
<polygon fill="midnightblue" stroke="midnightblue" points="148.108,-216.775 140.673,-224.324 151.192,-223.059 148.108,-216.775"/>
</g>
<!-- Node27 -->
<g id="node10" class="node"><title>Node27</title>
<g id="a_node10"><a xlink:href="classification_8h.html" target="_top" xlink:title="ODP classification descriptor. ">
<polygon fill="white" stroke="black" points="87,-112.5 87,-131.5 173,-131.5 173,-112.5 87,-112.5"/>
<text text-anchor="middle" x="130" y="-119.5" font-family="Helvetica,sans-Serif" font-size="10.00">classification.h</text>
</a>
</g>
</g>
<!-- Node26&#45;&gt;Node27 -->
<g id="edge9" class="edge"><title>Node26&#45;&gt;Node27</title>
<path fill="none" stroke="midnightblue" d="M130,-157.805C130,-148.91 130,-138.78 130,-131.751"/>
<polygon fill="midnightblue" stroke="midnightblue" points="126.5,-158.083 130,-168.083 133.5,-158.083 126.5,-158.083"/>
</g>
<!-- Node27&#45;&gt;Node22 -->
<g id="edge10" class="edge"><title>Node27&#45;&gt;Node22</title>
<path fill="none" stroke="midnightblue" d="M110.41,-106.101C97.6324,-96.3824 81.3873,-84.0269 70.6149,-75.8339"/>
<polygon fill="midnightblue" stroke="midnightblue" points="108.514,-109.056 118.593,-112.324 112.752,-103.484 108.514,-109.056"/>
</g>
<!-- Node29 -->
<g id="node12" class="node"><title>Node29</title>
<g id="a_node12"><a xlink:href="traffic__mngr_8h.html" target="_top" xlink:title="ODP Traffic manager. ">
<polygon fill="white" stroke="black" points="191.5,-112.5 191.5,-131.5 274.5,-131.5 274.5,-112.5 191.5,-112.5"/>
<text text-anchor="middle" x="233" y="-119.5" font-family="Helvetica,sans-Serif" font-size="10.00">traffic_mngr.h</text>
</a>
</g>
</g>
<!-- Node28&#45;&gt;Node29 -->
<g id="edge13" class="edge"><title>Node28&#45;&gt;Node29</title>
<path fill="none" stroke="midnightblue" d="M233,-157.805C233,-148.91 233,-138.78 233,-131.751"/>
<polygon fill="midnightblue" stroke="midnightblue" points="229.5,-158.083 233,-168.083 236.5,-158.083 229.5,-158.083"/>
</g>
<!-- Node31 -->
<g id="node14" class="node"><title>Node31</title>
<g id="a_node14"><a xlink:href="schedule_8h.html" target="_top" xlink:title="ODP schedule. ">
<polygon fill="white" stroke="black" points="177,-224.5 177,-243.5 245,-243.5 245,-224.5 177,-224.5"/>
<text text-anchor="middle" x="211" y="-231.5" font-family="Helvetica,sans-Serif" font-size="10.00">schedule.h</text>
</a>
</g>
</g>
<!-- Node30&#45;&gt;Node31 -->
<g id="edge15" class="edge"><title>Node30&#45;&gt;Node31</title>
<path fill="none" stroke="midnightblue" d="M211,-269.805C211,-260.91 211,-250.78 211,-243.751"/>
<polygon fill="midnightblue" stroke="midnightblue" points="207.5,-270.083 211,-280.083 214.5,-270.083 207.5,-270.083"/>
</g>
</g>
</svg>
