<?xml version="1.0" encoding="UTF-8" standalone="no"?>
<!DOCTYPE svg PUBLIC "-//W3C//DTD SVG 1.1//EN"
 "http://www.w3.org/Graphics/SVG/1.1/DTD/svg11.dtd">
<!-- Generated by graphviz version 2.38.0 (20140413.2041)
 -->
<!-- Title: event.h Pages: 1 -->
<svg width="1047pt" height="420pt"
 viewBox="0.00 0.00 1047.00 420.00" xmlns="http://www.w3.org/2000/svg" xmlns:xlink="http://www.w3.org/1999/xlink">
<g id="graph0" class="graph" transform="scale(1 1) rotate(0) translate(4 416)">
<title>event.h</title>
<polygon fill="white" stroke="none" points="-4,4 -4,-416 1043,-416 1043,4 -4,4"/>
<!-- Node0 -->
<g id="node1" class="node"><title>Node0</title>
<polygon fill="#bfbfbf" stroke="black" points="159.5,-392.5 159.5,-411.5 212.5,-411.5 212.5,-392.5 159.5,-392.5"/>
<text text-anchor="middle" x="186" y="-399.5" font-family="Helvetica,sans-Serif" font-size="10.00">event.h</text>
</g>
<!-- Node1 -->
<g id="node2" class="node"><title>Node1</title>
<polygon fill="white" stroke="#bfbfbf" points="0,-224.5 0,-243.5 108,-243.5 108,-224.5 0,-224.5"/>
<text text-anchor="middle" x="54" y="-231.5" font-family="Helvetica,sans-Serif" font-size="10.00">odp/api/abi/event.h</text>
</g>
<!-- Node0&#45;&gt;Node1 -->
<g id="edge1" class="edge"><title>Node0&#45;&gt;Node1</title>
<path fill="none" stroke="midnightblue" d="M178.903,-392.075C157.765,-365.493 94.982,-286.538 67.3299,-251.763"/>
<polygon fill="midnightblue" stroke="midnightblue" points="69.7766,-249.217 60.8132,-243.568 64.2977,-253.574 69.7766,-249.217"/>
</g>
<!-- Node2 -->
<g id="node3" class="node"><title>Node2</title>
<g id="a_node3"><a xlink:href="spec_2event_8h.html" target="_top" xlink:title="ODP event. ">
<polygon fill="white" stroke="black" points="238,-336.5 238,-355.5 354,-355.5 354,-336.5 238,-336.5"/>
<text text-anchor="middle" x="296" y="-343.5" font-family="Helvetica,sans-Serif" font-size="10.00">odp/api/spec/event.h</text>
</a>
</g>
</g>
<!-- Node0&#45;&gt;Node2 -->
<g id="edge2" class="edge"><title>Node0&#45;&gt;Node2</title>
<path fill="none" stroke="midnightblue" d="M203.673,-392.324C221.394,-383.625 248.903,-370.12 269.288,-360.113"/>
<polygon fill="midnightblue" stroke="midnightblue" points="270.936,-363.203 278.37,-355.655 267.851,-356.919 270.936,-363.203"/>
</g>
<!-- Node3 -->
<g id="node4" class="node"><title>Node3</title>
<polygon fill="white" stroke="#bfbfbf" points="901.5,-0.5 901.5,-19.5 1016.5,-19.5 1016.5,-0.5 901.5,-0.5"/>
<text text-anchor="middle" x="959" y="-7.5" font-family="Helvetica,sans-Serif" font-size="10.00">odp/visibility_begin.h</text>
</g>
<!-- Node2&#45;&gt;Node3 -->
<g id="edge3" class="edge"><title>Node2&#45;&gt;Node3</title>
<path fill="none" stroke="midnightblue" d="M354.302,-342.493C529.457,-334.194 1039,-304.111 1039,-235 1039,-235 1039,-235 1039,-121 1039,-80.6206 1003.31,-45.1055 979.602,-25.9729"/>
<polygon fill="midnightblue" stroke="midnightblue" points="981.546,-23.0515 971.5,-19.6866 977.255,-28.582 981.546,-23.0515"/>
</g>
<!-- Node4 -->
<g id="node5" class="node"><title>Node4</title>
<g id="a_node5"><a xlink:href="packet_8h.html" target="_top" xlink:title="ODP packet descriptor. ">
<polygon fill="white" stroke="black" points="382,-280.5 382,-299.5 478,-299.5 478,-280.5 382,-280.5"/>
<text text-anchor="middle" x="430" y="-287.5" font-family="Helvetica,sans-Serif" font-size="10.00">odp/api/packet.h</text>
</a>
</g>
</g>
<!-- Node2&#45;&gt;Node4 -->
<g id="edge4" class="edge"><title>Node2&#45;&gt;Node4</title>
<path fill="none" stroke="midnightblue" d="M317.233,-336.444C339.384,-327.517 374.319,-313.439 399.436,-303.317"/>
<polygon fill="midnightblue" stroke="midnightblue" points="400.9,-306.501 408.867,-299.516 398.283,-300.008 400.9,-306.501"/>
</g>
<!-- Node9 -->
<g id="node10" class="node"><title>Node9</title>
<polygon fill="white" stroke="#bfbfbf" points="479.5,-0.5 479.5,-19.5 586.5,-19.5 586.5,-0.5 479.5,-0.5"/>
<text text-anchor="middle" x="533" y="-7.5" font-family="Helvetica,sans-Serif" font-size="10.00">odp/visibility_end.h</text>
</g>
<!-- Node2&#45;&gt;Node9 -->
<g id="edge25" class="edge"><title>Node2&#45;&gt;Node9</title>
<path fill="none" stroke="midnightblue" d="M257.268,-336.426C209.916,-323.392 136,-293.654 136,-235 136,-235 136,-235 136,-121 136,-52.6851 357.076,-25.0728 469.279,-15.458"/>
<polygon fill="midnightblue" stroke="midnightblue" points="469.784,-18.9281 479.459,-14.6094 469.203,-11.9523 469.784,-18.9281"/>
</g>
<!-- Node4&#45;&gt;Node1 -->
<g id="edge11" class="edge"><title>Node4&#45;&gt;Node1</title>
<path fill="none" stroke="midnightblue" d="M381.997,-282.106C314.967,-272.479 193.158,-254.985 118.33,-244.239"/>
<polygon fill="midnightblue" stroke="midnightblue" points="118.49,-240.726 108.094,-242.769 117.495,-247.655 118.49,-240.726"/>
</g>
<!-- Node5 -->
<g id="node6" class="node"><title>Node5</title>
<g id="a_node6"><a xlink:href="std__types_8h.html" target="_top" xlink:title="Standard C language types and definitions for ODP. ">
<polygon fill="white" stroke="black" points="655,-112.5 655,-131.5 765,-131.5 765,-112.5 655,-112.5"/>
<text text-anchor="middle" x="710" y="-119.5" font-family="Helvetica,sans-Serif" font-size="10.00">odp/api/std_types.h</text>
</a>
</g>
</g>
<!-- Node4&#45;&gt;Node5 -->
<g id="edge5" class="edge"><title>Node4&#45;&gt;Node5</title>
<path fill="none" stroke="midnightblue" d="M478.149,-286.297C541.89,-281.732 649.556,-270.28 678,-244 706.639,-217.539 710.852,-168.722 710.81,-141.891"/>
<polygon fill="midnightblue" stroke="midnightblue" points="714.302,-141.487 710.577,-131.568 707.304,-141.644 714.302,-141.487"/>
</g>
<!-- Node10 -->
<g id="node11" class="node"><title>Node10</title>
<polygon fill="white" stroke="#bfbfbf" points="164.5,-224.5 164.5,-243.5 291.5,-243.5 291.5,-224.5 164.5,-224.5"/>
<text text-anchor="middle" x="228" y="-231.5" font-family="Helvetica,sans-Serif" font-size="10.00">odp/api/abi/packet_io.h</text>
</g>
<!-- Node4&#45;&gt;Node10 -->
<g id="edge12" class="edge"><title>Node4&#45;&gt;Node10</title>
<path fill="none" stroke="midnightblue" d="M397.992,-280.444C363.271,-271.162 307.712,-256.309 269.623,-246.127"/>
<polygon fill="midnightblue" stroke="midnightblue" points="270.422,-242.718 259.858,-243.516 268.615,-249.48 270.422,-242.718"/>
</g>
<!-- Node11 -->
<g id="node12" class="node"><title>Node11</title>
<polygon fill="white" stroke="#bfbfbf" points="309.5,-224.5 309.5,-243.5 422.5,-243.5 422.5,-224.5 309.5,-224.5"/>
<text text-anchor="middle" x="366" y="-231.5" font-family="Helvetica,sans-Serif" font-size="10.00">odp/api/abi/packet.h</text>
</g>
<!-- Node4&#45;&gt;Node11 -->
<g id="edge13" class="edge"><title>Node4&#45;&gt;Node11</title>
<path fill="none" stroke="midnightblue" d="M419.717,-280.324C410.164,-272.263 395.72,-260.077 384.216,-250.369"/>
<polygon fill="midnightblue" stroke="midnightblue" points="386.37,-247.608 376.47,-243.834 381.856,-252.958 386.37,-247.608"/>
</g>
<!-- Node12 -->
<g id="node13" class="node"><title>Node12</title>
<polygon fill="white" stroke="#bfbfbf" points="441,-224.5 441,-243.5 549,-243.5 549,-224.5 441,-224.5"/>
<text text-anchor="middle" x="495" y="-231.5" font-family="Helvetica,sans-Serif" font-size="10.00">odp/api/abi/buffer.h</text>
</g>
<!-- Node4&#45;&gt;Node12 -->
<g id="edge14" class="edge"><title>Node4&#45;&gt;Node12</title>
<path fill="none" stroke="midnightblue" d="M440.443,-280.324C450.146,-272.263 464.815,-260.077 476.5,-250.369"/>
<polygon fill="midnightblue" stroke="midnightblue" points="478.911,-252.916 484.367,-243.834 474.438,-247.532 478.911,-252.916"/>
</g>
<!-- Node13 -->
<g id="node14" class="node"><title>Node13</title>
<polygon fill="white" stroke="#bfbfbf" points="567.5,-224.5 567.5,-243.5 668.5,-243.5 668.5,-224.5 567.5,-224.5"/>
<text text-anchor="middle" x="618" y="-231.5" font-family="Helvetica,sans-Serif" font-size="10.00">odp/api/abi/pool.h</text>
</g>
<!-- Node4&#45;&gt;Node13 -->
<g id="edge15" class="edge"><title>Node4&#45;&gt;Node13</title>
<path fill="none" stroke="midnightblue" d="M459.789,-280.444C491.829,-271.241 542.933,-256.562 578.353,-246.388"/>
<polygon fill="midnightblue" stroke="midnightblue" points="579.705,-249.641 588.35,-243.516 577.773,-242.913 579.705,-249.641"/>
</g>
<!-- Node14 -->
<g id="node15" class="node"><title>Node14</title>
<g id="a_node15"><a xlink:href="spec_2packet_8h.html" target="_top" xlink:title="ODP packet descriptor. ">
<polygon fill="white" stroke="black" points="735,-224.5 735,-243.5 857,-243.5 857,-224.5 735,-224.5"/>
<text text-anchor="middle" x="796" y="-231.5" font-family="Helvetica,sans-Serif" font-size="10.00">odp/api/spec/packet.h</text>
</a>
</g>
</g>
<!-- Node4&#45;&gt;Node14 -->
<g id="edge16" class="edge"><title>Node4&#45;&gt;Node14</title>
<path fill="none" stroke="midnightblue" d="M478.224,-281.885C542.277,-272.435 655.761,-255.691 728.355,-244.98"/>
<polygon fill="midnightblue" stroke="midnightblue" points="728.935,-248.433 738.317,-243.511 727.914,-241.508 728.935,-248.433"/>
</g>
<!-- Node6 -->
<g id="node7" class="node"><title>Node6</title>
<polygon fill="white" stroke="#bfbfbf" points="715,-56.5 715,-75.5 843,-75.5 843,-56.5 715,-56.5"/>
<text text-anchor="middle" x="779" y="-63.5" font-family="Helvetica,sans-Serif" font-size="10.00">odp/api/abi/std_types.h</text>
</g>
<!-- Node5&#45;&gt;Node6 -->
<g id="edge6" class="edge"><title>Node5&#45;&gt;Node6</title>
<path fill="none" stroke="midnightblue" d="M721.086,-112.324C731.486,-104.185 747.261,-91.8395 759.722,-82.0874"/>
<polygon fill="midnightblue" stroke="midnightblue" points="761.994,-84.7533 767.712,-75.8339 757.68,-79.2407 761.994,-84.7533"/>
</g>
<!-- Node7 -->
<g id="node8" class="node"><title>Node7</title>
<g id="a_node8"><a xlink:href="spec_2std__types_8h.html" target="_top" xlink:title="Standard C language types and definitions for ODP. ">
<polygon fill="white" stroke="black" points="561,-56.5 561,-75.5 697,-75.5 697,-56.5 561,-56.5"/>
<text text-anchor="middle" x="629" y="-63.5" font-family="Helvetica,sans-Serif" font-size="10.00">odp/api/spec/std_types.h</text>
</a>
</g>
</g>
<!-- Node5&#45;&gt;Node7 -->
<g id="edge7" class="edge"><title>Node5&#45;&gt;Node7</title>
<path fill="none" stroke="midnightblue" d="M696.986,-112.324C684.468,-103.979 665.318,-91.2122 650.529,-81.3524"/>
<polygon fill="midnightblue" stroke="midnightblue" points="652.244,-78.2894 641.982,-75.6545 648.361,-84.1137 652.244,-78.2894"/>
</g>
<!-- Node7&#45;&gt;Node3 -->
<g id="edge8" class="edge"><title>Node7&#45;&gt;Node3</title>
<path fill="none" stroke="midnightblue" d="M681.289,-56.4435C739.823,-46.8654 834.605,-31.3556 896.87,-21.1667"/>
<polygon fill="midnightblue" stroke="midnightblue" points="897.652,-24.5855 906.955,-19.5164 896.521,-17.6773 897.652,-24.5855"/>
</g>
<!-- Node8 -->
<g id="node9" class="node"><title>Node8</title>
<polygon fill="white" stroke="#bfbfbf" points="604.5,-0.5 604.5,-19.5 657.5,-19.5 657.5,-0.5 604.5,-0.5"/>
<text text-anchor="middle" x="631" y="-7.5" font-family="Helvetica,sans-Serif" font-size="10.00">stdint.h</text>
</g>
<!-- Node7&#45;&gt;Node8 -->
<g id="edge9" class="edge"><title>Node7&#45;&gt;Node8</title>
<path fill="none" stroke="midnightblue" d="M629.33,-56.083C629.592,-49.0059 629.968,-38.8611 630.297,-29.9865"/>
<polygon fill="midnightblue" stroke="midnightblue" points="633.803,-29.8738 630.676,-19.7511 626.808,-29.6147 633.803,-29.8738"/>
</g>
<!-- Node7&#45;&gt;Node9 -->
<g id="edge10" class="edge"><title>Node7&#45;&gt;Node9</title>
<path fill="none" stroke="midnightblue" d="M613.576,-56.324C598.46,-47.8215 575.185,-34.7288 557.529,-24.7975"/>
<polygon fill="midnightblue" stroke="midnightblue" points="558.817,-21.5066 548.386,-19.6545 555.386,-27.6077 558.817,-21.5066"/>
</g>
<!-- Node14&#45;&gt;Node3 -->
<g id="edge17" class="edge"><title>Node14&#45;&gt;Node3</title>
<path fill="none" stroke="midnightblue" d="M813.566,-224.418C843.638,-209.085 905.727,-174.57 947,-132 972.886,-105.301 990.704,-92.1546 982,-56 979.693,-46.4183 974.983,-36.5813 970.422,-28.5579"/>
<polygon fill="midnightblue" stroke="midnightblue" points="973.289,-26.537 965.105,-19.8095 967.308,-30.1727 973.289,-26.537"/>
</g>
<!-- Node14&#45;&gt;Node9 -->
<g id="edge24" class="edge"><title>Node14&#45;&gt;Node9</title>
<path fill="none" stroke="midnightblue" d="M772.558,-224.493C723.871,-205.614 611.399,-155.494 552,-76 541.994,-62.6086 537.242,-44.0409 534.994,-30.1782"/>
<polygon fill="midnightblue" stroke="midnightblue" points="538.41,-29.3143 533.634,-19.857 531.47,-30.2284 538.41,-29.3143"/>
</g>
<!-- Node15 -->
<g id="node16" class="node"><title>Node15</title>
<g id="a_node16"><a xlink:href="time_8h.html" target="_top" xlink:title="ODP time. ">
<polygon fill="white" stroke="black" points="763,-168.5 763,-187.5 849,-187.5 849,-168.5 763,-168.5"/>
<text text-anchor="middle" x="806" y="-175.5" font-family="Helvetica,sans-Serif" font-size="10.00">odp/api/time.h</text>
</a>
</g>
</g>
<!-- Node14&#45;&gt;Node15 -->
<g id="edge18" class="edge"><title>Node14&#45;&gt;Node15</title>
<path fill="none" stroke="midnightblue" d="M797.651,-224.083C798.976,-216.927 800.882,-206.635 802.539,-197.691"/>
<polygon fill="midnightblue" stroke="midnightblue" points="806,-198.221 804.379,-187.751 799.117,-196.947 806,-198.221"/>
</g>
<!-- Node15&#45;&gt;Node5 -->
<g id="edge19" class="edge"><title>Node15&#45;&gt;Node5</title>
<path fill="none" stroke="midnightblue" d="M790.576,-168.324C775.46,-159.822 752.185,-146.729 734.529,-136.797"/>
<polygon fill="midnightblue" stroke="midnightblue" points="735.817,-133.507 725.386,-131.655 732.386,-139.608 735.817,-133.507"/>
</g>
<!-- Node16 -->
<g id="node17" class="node"><title>Node16</title>
<polygon fill="white" stroke="#bfbfbf" points="834.5,-112.5 834.5,-131.5 937.5,-131.5 937.5,-112.5 834.5,-112.5"/>
<text text-anchor="middle" x="886" y="-119.5" font-family="Helvetica,sans-Serif" font-size="10.00">odp/api/abi/time.h</text>
</g>
<!-- Node15&#45;&gt;Node16 -->
<g id="edge20" class="edge"><title>Node15&#45;&gt;Node16</title>
<path fill="none" stroke="midnightblue" d="M818.853,-168.324C831.216,-159.979 850.13,-147.212 864.737,-137.352"/>
<polygon fill="midnightblue" stroke="midnightblue" points="866.848,-140.15 873.179,-131.655 862.932,-134.348 866.848,-140.15"/>
</g>
<!-- Node17 -->
<g id="node18" class="node"><title>Node17</title>
<g id="a_node18"><a xlink:href="spec_2time_8h.html" target="_top" xlink:title="ODP time. ">
<polygon fill="white" stroke="black" points="861.5,-56.5 861.5,-75.5 972.5,-75.5 972.5,-56.5 861.5,-56.5"/>
<text text-anchor="middle" x="917" y="-63.5" font-family="Helvetica,sans-Serif" font-size="10.00">odp/api/spec/time.h</text>
</a>
</g>
</g>
<!-- Node15&#45;&gt;Node17 -->
<g id="edge21" class="edge"><title>Node15&#45;&gt;Node17</title>
<path fill="none" stroke="midnightblue" d="M806.515,-168.394C807.749,-154.886 811.921,-128.545 826,-112 839.01,-96.7105 858.459,-86.118 876.04,-79.0697"/>
<polygon fill="midnightblue" stroke="midnightblue" points="877.421,-82.2903 885.563,-75.5113 874.97,-75.7331 877.421,-82.2903"/>
</g>
<!-- Node17&#45;&gt;Node3 -->
<g id="edge22" class="edge"><title>Node17&#45;&gt;Node3</title>
<path fill="none" stroke="midnightblue" d="M923.935,-56.083C929.929,-48.3768 938.752,-37.0333 946.048,-27.6531"/>
<polygon fill="midnightblue" stroke="midnightblue" points="948.817,-29.7934 952.194,-19.7511 943.291,-25.4958 948.817,-29.7934"/>
</g>
<!-- Node17&#45;&gt;Node9 -->
<g id="edge23" class="edge"><title>Node17&#45;&gt;Node9</title>
<path fill="none" stroke="midnightblue" d="M861.359,-57.2604C787.553,-46.9882 660.082,-29.225 597.038,-20.2828"/>
<polygon fill="midnightblue" stroke="midnightblue" points="597.159,-16.7649 586.766,-18.8225 596.174,-23.6952 597.159,-16.7649"/>
</g>
</g>
</svg>
