<?xml version="1.0" encoding="UTF-8" standalone="no"?>
<!DOCTYPE svg PUBLIC "-//W3C//DTD SVG 1.1//EN"
 "http://www.w3.org/Graphics/SVG/1.1/DTD/svg11.dtd">
<!-- Generated by graphviz version 2.38.0 (20140413.2041)
 -->
<!-- Title: hash.h Pages: 1 -->
<svg width="412pt" height="252pt"
 viewBox="0.00 0.00 411.50 252.00" xmlns="http://www.w3.org/2000/svg" xmlns:xlink="http://www.w3.org/1999/xlink">
<g id="graph0" class="graph" transform="scale(1 1) rotate(0) translate(4 248)">
<title>hash.h</title>
<polygon fill="white" stroke="none" points="-4,4 -4,-248 407.5,-248 407.5,4 -4,4"/>
<!-- Node0 -->
<g id="node1" class="node"><title>Node0</title>
<polygon fill="#bfbfbf" stroke="black" points="90.5,-224.5 90.5,-243.5 139.5,-243.5 139.5,-224.5 90.5,-224.5"/>
<text text-anchor="middle" x="115" y="-231.5" font-family="Helvetica,sans-Serif" font-size="10.00">hash.h</text>
</g>
<!-- Node1 -->
<g id="node2" class="node"><title>Node1</title>
<polygon fill="white" stroke="#bfbfbf" points="0,-168.5 0,-187.5 104,-187.5 104,-168.5 0,-168.5"/>
<text text-anchor="middle" x="52" y="-175.5" font-family="Helvetica,sans-Serif" font-size="10.00">odp/api/abi/hash.h</text>
</g>
<!-- Node0&#45;&gt;Node1 -->
<g id="edge1" class="edge"><title>Node0&#45;&gt;Node1</title>
<path fill="none" stroke="midnightblue" d="M104.878,-224.324C95.4736,-216.263 81.2559,-204.077 69.931,-194.369"/>
<polygon fill="midnightblue" stroke="midnightblue" points="72.1766,-191.684 62.3062,-187.834 67.621,-196.999 72.1766,-191.684"/>
</g>
<!-- Node2 -->
<g id="node3" class="node"><title>Node2</title>
<g id="a_node3"><a xlink:href="spec_2hash_8h.html" target="_top" xlink:title="ODP Hash functions. ">
<polygon fill="white" stroke="black" points="122.5,-168.5 122.5,-187.5 235.5,-187.5 235.5,-168.5 122.5,-168.5"/>
<text text-anchor="middle" x="179" y="-175.5" font-family="Helvetica,sans-Serif" font-size="10.00">odp/api/spec/hash.h</text>
</a>
</g>
</g>
<!-- Node0&#45;&gt;Node2 -->
<g id="edge2" class="edge"><title>Node0&#45;&gt;Node2</title>
<path fill="none" stroke="midnightblue" d="M125.283,-224.324C134.836,-216.263 149.28,-204.077 160.784,-194.369"/>
<polygon fill="midnightblue" stroke="midnightblue" points="163.144,-196.958 168.53,-187.834 158.63,-191.608 163.144,-196.958"/>
</g>
<!-- Node3 -->
<g id="node4" class="node"><title>Node3</title>
<polygon fill="white" stroke="#bfbfbf" points="23.5,-0.5 23.5,-19.5 138.5,-19.5 138.5,-0.5 23.5,-0.5"/>
<text text-anchor="middle" x="81" y="-7.5" font-family="Helvetica,sans-Serif" font-size="10.00">odp/visibility_begin.h</text>
</g>
<!-- Node2&#45;&gt;Node3 -->
<g id="edge3" class="edge"><title>Node2&#45;&gt;Node3</title>
<path fill="none" stroke="midnightblue" d="M153.945,-168.447C119.004,-154.998 57.0078,-125.235 31,-76 20.9422,-56.9595 40.2225,-37.7286 57.6847,-25.1787"/>
<polygon fill="midnightblue" stroke="midnightblue" points="59.6431,-28.0795 65.9745,-19.5846 55.7275,-22.2771 59.6431,-28.0795"/>
</g>
<!-- Node4 -->
<g id="node5" class="node"><title>Node4</title>
<g id="a_node5"><a xlink:href="std__types_8h.html" target="_top" xlink:title="Standard C language types and definitions for ODP. ">
<polygon fill="white" stroke="black" points="124,-112.5 124,-131.5 234,-131.5 234,-112.5 124,-112.5"/>
<text text-anchor="middle" x="179" y="-119.5" font-family="Helvetica,sans-Serif" font-size="10.00">odp/api/std_types.h</text>
</a>
</g>
</g>
<!-- Node2&#45;&gt;Node4 -->
<g id="edge4" class="edge"><title>Node2&#45;&gt;Node4</title>
<path fill="none" stroke="midnightblue" d="M179,-168.083C179,-161.006 179,-150.861 179,-141.986"/>
<polygon fill="midnightblue" stroke="midnightblue" points="182.5,-141.751 179,-131.751 175.5,-141.751 182.5,-141.751"/>
</g>
<!-- Node8 -->
<g id="node9" class="node"><title>Node8</title>
<polygon fill="white" stroke="#bfbfbf" points="296.5,-0.5 296.5,-19.5 403.5,-19.5 403.5,-0.5 296.5,-0.5"/>
<text text-anchor="middle" x="350" y="-7.5" font-family="Helvetica,sans-Serif" font-size="10.00">odp/visibility_end.h</text>
</g>
<!-- Node2&#45;&gt;Node8 -->
<g id="edge10" class="edge"><title>Node2&#45;&gt;Node8</title>
<path fill="none" stroke="midnightblue" d="M200.648,-168.438C233.73,-154.245 296.638,-122.701 331,-76 340.907,-62.5352 345.671,-43.9757 347.948,-30.1347"/>
<polygon fill="midnightblue" stroke="midnightblue" points="351.469,-30.2109 349.334,-19.8334 344.531,-29.2772 351.469,-30.2109"/>
</g>
<!-- Node5 -->
<g id="node6" class="node"><title>Node5</title>
<polygon fill="white" stroke="#bfbfbf" points="40,-56.5 40,-75.5 168,-75.5 168,-56.5 40,-56.5"/>
<text text-anchor="middle" x="104" y="-63.5" font-family="Helvetica,sans-Serif" font-size="10.00">odp/api/abi/std_types.h</text>
</g>
<!-- Node4&#45;&gt;Node5 -->
<g id="edge5" class="edge"><title>Node4&#45;&gt;Node5</title>
<path fill="none" stroke="midnightblue" d="M166.95,-112.324C155.537,-104.107 138.169,-91.6017 124.565,-81.8069"/>
<polygon fill="midnightblue" stroke="midnightblue" points="126.43,-78.8366 116.269,-75.8339 122.34,-84.5174 126.43,-78.8366"/>
</g>
<!-- Node6 -->
<g id="node7" class="node"><title>Node6</title>
<g id="a_node7"><a xlink:href="spec_2std__types_8h.html" target="_top" xlink:title="Standard C language types and definitions for ODP. ">
<polygon fill="white" stroke="black" points="186,-56.5 186,-75.5 322,-75.5 322,-56.5 186,-56.5"/>
<text text-anchor="middle" x="254" y="-63.5" font-family="Helvetica,sans-Serif" font-size="10.00">odp/api/spec/std_types.h</text>
</a>
</g>
</g>
<!-- Node4&#45;&gt;Node6 -->
<g id="edge6" class="edge"><title>Node4&#45;&gt;Node6</title>
<path fill="none" stroke="midnightblue" d="M191.05,-112.324C202.463,-104.107 219.831,-91.6017 233.435,-81.8069"/>
<polygon fill="midnightblue" stroke="midnightblue" points="235.66,-84.5174 241.731,-75.8339 231.57,-78.8366 235.66,-84.5174"/>
</g>
<!-- Node6&#45;&gt;Node3 -->
<g id="edge7" class="edge"><title>Node6&#45;&gt;Node3</title>
<path fill="none" stroke="midnightblue" d="M226.588,-56.4435C197.231,-47.2801 150.481,-32.6876 117.904,-22.5192"/>
<polygon fill="midnightblue" stroke="midnightblue" points="118.873,-19.1551 108.284,-19.5164 116.787,-25.8371 118.873,-19.1551"/>
</g>
<!-- Node7 -->
<g id="node8" class="node"><title>Node7</title>
<polygon fill="white" stroke="#bfbfbf" points="225.5,-0.5 225.5,-19.5 278.5,-19.5 278.5,-0.5 225.5,-0.5"/>
<text text-anchor="middle" x="252" y="-7.5" font-family="Helvetica,sans-Serif" font-size="10.00">stdint.h</text>
</g>
<!-- Node6&#45;&gt;Node7 -->
<g id="edge8" class="edge"><title>Node6&#45;&gt;Node7</title>
<path fill="none" stroke="midnightblue" d="M253.67,-56.083C253.408,-49.0059 253.032,-38.8611 252.703,-29.9865"/>
<polygon fill="midnightblue" stroke="midnightblue" points="256.192,-29.6147 252.324,-19.7511 249.197,-29.8738 256.192,-29.6147"/>
</g>
<!-- Node6&#45;&gt;Node8 -->
<g id="edge9" class="edge"><title>Node6&#45;&gt;Node8</title>
<path fill="none" stroke="midnightblue" d="M269.424,-56.324C284.54,-47.8215 307.815,-34.7288 325.471,-24.7975"/>
<polygon fill="midnightblue" stroke="midnightblue" points="327.614,-27.6077 334.614,-19.6545 324.183,-21.5066 327.614,-27.6077"/>
</g>
</g>
</svg>
