<?xml version="1.0" encoding="UTF-8" standalone="no"?>
<!DOCTYPE svg PUBLIC "-//W3C//DTD SVG 1.1//EN"
 "http://www.w3.org/Graphics/SVG/1.1/DTD/svg11.dtd">
<!-- Generated by graphviz version 2.38.0 (20140413.2041)
 -->
<!-- Title: packet_io_stats.h Pages: 1 -->
<svg width="234pt" height="364pt"
 viewBox="0.00 0.00 233.50 364.00" xmlns="http://www.w3.org/2000/svg" xmlns:xlink="http://www.w3.org/1999/xlink">
<g id="graph0" class="graph" transform="scale(1 1) rotate(0) translate(4 360)">
<title>packet_io_stats.h</title>
<polygon fill="white" stroke="none" points="-4,4 -4,-360 229.5,-360 229.5,4 -4,4"/>
<!-- Node4 -->
<g id="node1" class="node"><title>Node4</title>
<polygon fill="#bfbfbf" stroke="black" points="63.5,-336.5 63.5,-355.5 164.5,-355.5 164.5,-336.5 63.5,-336.5"/>
<text text-anchor="middle" x="114" y="-343.5" font-family="Helvetica,sans-Serif" font-size="10.00">packet_io_stats.h</text>
</g>
<!-- Node5 -->
<g id="node2" class="node"><title>Node5</title>
<g id="a_node2"><a xlink:href="spec_2packet__io_8h.html" target="_top" xlink:title="ODP Packet IO. ">
<polygon fill="white" stroke="black" points="78.5,-280.5 78.5,-299.5 149.5,-299.5 149.5,-280.5 78.5,-280.5"/>
<text text-anchor="middle" x="114" y="-287.5" font-family="Helvetica,sans-Serif" font-size="10.00">packet_io.h</text>
</a>
</g>
</g>
<!-- Node4&#45;&gt;Node5 -->
<g id="edge1" class="edge"><title>Node4&#45;&gt;Node5</title>
<path fill="none" stroke="midnightblue" d="M114,-325.805C114,-316.91 114,-306.78 114,-299.751"/>
<polygon fill="midnightblue" stroke="midnightblue" points="110.5,-326.083 114,-336.083 117.5,-326.083 110.5,-326.083"/>
</g>
<!-- Node6 -->
<g id="node3" class="node"><title>Node6</title>
<g id="a_node3"><a xlink:href="packet__io_8h.html" target="_top" xlink:title="ODP Packet IO. ">
<polygon fill="white" stroke="black" points="78.5,-224.5 78.5,-243.5 149.5,-243.5 149.5,-224.5 78.5,-224.5"/>
<text text-anchor="middle" x="114" y="-231.5" font-family="Helvetica,sans-Serif" font-size="10.00">packet_io.h</text>
</a>
</g>
</g>
<!-- Node5&#45;&gt;Node6 -->
<g id="edge2" class="edge"><title>Node5&#45;&gt;Node6</title>
<path fill="none" stroke="midnightblue" d="M114,-269.805C114,-260.91 114,-250.78 114,-243.751"/>
<polygon fill="midnightblue" stroke="midnightblue" points="110.5,-270.083 114,-280.083 117.5,-270.083 110.5,-270.083"/>
</g>
<!-- Node7 -->
<g id="node4" class="node"><title>Node7</title>
<g id="a_node4"><a xlink:href="spec_2classification_8h.html" target="_top" xlink:title="ODP classification descriptor. ">
<polygon fill="white" stroke="black" points="0,-168.5 0,-187.5 86,-187.5 86,-168.5 0,-168.5"/>
<text text-anchor="middle" x="43" y="-175.5" font-family="Helvetica,sans-Serif" font-size="10.00">classification.h</text>
</a>
</g>
</g>
<!-- Node6&#45;&gt;Node7 -->
<g id="edge3" class="edge"><title>Node6&#45;&gt;Node7</title>
<path fill="none" stroke="midnightblue" d="M94.4103,-218.101C81.6324,-208.382 65.3873,-196.027 54.6149,-187.834"/>
<polygon fill="midnightblue" stroke="midnightblue" points="92.5143,-221.056 102.593,-224.324 96.7519,-215.484 92.5143,-221.056"/>
</g>
<!-- Node9 -->
<g id="node6" class="node"><title>Node9</title>
<g id="a_node6"><a xlink:href="spec_2ipsec_8h.html" target="_top" xlink:title="ODP IPSEC API. ">
<polygon fill="white" stroke="black" points="53,-56.5 53,-75.5 103,-75.5 103,-56.5 53,-56.5"/>
<text text-anchor="middle" x="78" y="-63.5" font-family="Helvetica,sans-Serif" font-size="10.00">ipsec.h</text>
</a>
</g>
</g>
<!-- Node6&#45;&gt;Node9 -->
<g id="edge7" class="edge"><title>Node6&#45;&gt;Node9</title>
<path fill="none" stroke="midnightblue" d="M112.257,-214.195C109.758,-190.189 104.389,-147.511 95,-112 91.5845,-99.0817 85.7977,-84.7331 81.938,-75.7884"/>
<polygon fill="midnightblue" stroke="midnightblue" points="108.796,-214.758 113.259,-224.366 115.762,-214.072 108.796,-214.758"/>
</g>
<!-- Node11 -->
<g id="node8" class="node"><title>Node11</title>
<g id="a_node8"><a xlink:href="spec_2traffic__mngr_8h.html" target="_top" xlink:title="Copyright (c) 2015&#45;2018, Linaro Limited All rights reserved. ">
<polygon fill="white" stroke="black" points="142.5,-168.5 142.5,-187.5 225.5,-187.5 225.5,-168.5 142.5,-168.5"/>
<text text-anchor="middle" x="184" y="-175.5" font-family="Helvetica,sans-Serif" font-size="10.00">traffic_mngr.h</text>
</a>
</g>
</g>
<!-- Node6&#45;&gt;Node11 -->
<g id="edge8" class="edge"><title>Node6&#45;&gt;Node11</title>
<path fill="none" stroke="midnightblue" d="M133.314,-218.101C145.912,-208.382 161.928,-196.027 172.549,-187.834"/>
<polygon fill="midnightblue" stroke="midnightblue" points="131.027,-215.445 125.247,-224.324 135.302,-220.987 131.027,-215.445"/>
</g>
<!-- Node8 -->
<g id="node5" class="node"><title>Node8</title>
<g id="a_node5"><a xlink:href="classification_8h.html" target="_top" xlink:title="ODP classification descriptor. ">
<polygon fill="white" stroke="black" points="0,-112.5 0,-131.5 86,-131.5 86,-112.5 0,-112.5"/>
<text text-anchor="middle" x="43" y="-119.5" font-family="Helvetica,sans-Serif" font-size="10.00">classification.h</text>
</a>
</g>
</g>
<!-- Node7&#45;&gt;Node8 -->
<g id="edge4" class="edge"><title>Node7&#45;&gt;Node8</title>
<path fill="none" stroke="midnightblue" d="M43,-157.805C43,-148.91 43,-138.78 43,-131.751"/>
<polygon fill="midnightblue" stroke="midnightblue" points="39.5001,-158.083 43,-168.083 46.5001,-158.083 39.5001,-158.083"/>
</g>
<!-- Node8&#45;&gt;Node9 -->
<g id="edge5" class="edge"><title>Node8&#45;&gt;Node9</title>
<path fill="none" stroke="midnightblue" d="M54.3001,-103.566C60.3219,-94.2747 67.4686,-83.2484 72.328,-75.7511"/>
<polygon fill="midnightblue" stroke="midnightblue" points="51.2815,-101.788 48.7795,-112.083 57.1556,-105.595 51.2815,-101.788"/>
</g>
<!-- Node10 -->
<g id="node7" class="node"><title>Node10</title>
<g id="a_node7"><a xlink:href="ipsec_8h.html" target="_top" xlink:title="ODP IPSEC API &#45; platform specific header. ">
<polygon fill="white" stroke="black" points="53,-0.5 53,-19.5 103,-19.5 103,-0.5 53,-0.5"/>
<text text-anchor="middle" x="78" y="-7.5" font-family="Helvetica,sans-Serif" font-size="10.00">ipsec.h</text>
</a>
</g>
</g>
<!-- Node9&#45;&gt;Node10 -->
<g id="edge6" class="edge"><title>Node9&#45;&gt;Node10</title>
<path fill="none" stroke="midnightblue" d="M78,-45.8045C78,-36.9102 78,-26.7798 78,-19.7511"/>
<polygon fill="midnightblue" stroke="midnightblue" points="74.5001,-46.083 78,-56.083 81.5001,-46.083 74.5001,-46.083"/>
</g>
<!-- Node12 -->
<g id="node9" class="node"><title>Node12</title>
<g id="a_node9"><a xlink:href="traffic__mngr_8h.html" target="_top" xlink:title="ODP Traffic manager. ">
<polygon fill="white" stroke="black" points="142.5,-112.5 142.5,-131.5 225.5,-131.5 225.5,-112.5 142.5,-112.5"/>
<text text-anchor="middle" x="184" y="-119.5" font-family="Helvetica,sans-Serif" font-size="10.00">traffic_mngr.h</text>
</a>
</g>
</g>
<!-- Node11&#45;&gt;Node12 -->
<g id="edge9" class="edge"><title>Node11&#45;&gt;Node12</title>
<path fill="none" stroke="midnightblue" d="M184,-157.805C184,-148.91 184,-138.78 184,-131.751"/>
<polygon fill="midnightblue" stroke="midnightblue" points="180.5,-158.083 184,-168.083 187.5,-158.083 180.5,-158.083"/>
</g>
</g>
</svg>
