<?xml version="1.0" encoding="UTF-8" standalone="no"?>
<!DOCTYPE svg PUBLIC "-//W3C//DTD SVG 1.1//EN"
 "http://www.w3.org/Graphics/SVG/1.1/DTD/svg11.dtd">
<!-- Generated by graphviz version 2.38.0 (20140413.2041)
 -->
<!-- Title: packet.h Pages: 1 -->
<svg width="800pt" height="308pt"
 viewBox="0.00 0.00 800.00 308.00" xmlns="http://www.w3.org/2000/svg" xmlns:xlink="http://www.w3.org/1999/xlink">
<g id="graph0" class="graph" transform="scale(1 1) rotate(0) translate(4 304)">
<title>packet.h</title>
<polygon fill="white" stroke="none" points="-4,4 -4,-304 796,-304 796,4 -4,4"/>
<!-- Node0 -->
<g id="node1" class="node"><title>Node0</title>
<polygon fill="#bfbfbf" stroke="black" points="322.5,-280.5 322.5,-299.5 380.5,-299.5 380.5,-280.5 322.5,-280.5"/>
<text text-anchor="middle" x="351.5" y="-287.5" font-family="Helvetica,sans-Serif" font-size="10.00">packet.h</text>
</g>
<!-- Node1 -->
<g id="node2" class="node"><title>Node1</title>
<g id="a_node2"><a xlink:href="std__types_8h.html" target="_top" xlink:title="Standard C language types and definitions for ODP. ">
<polygon fill="white" stroke="black" points="50.5,-112.5 50.5,-131.5 160.5,-131.5 160.5,-112.5 50.5,-112.5"/>
<text text-anchor="middle" x="105.5" y="-119.5" font-family="Helvetica,sans-Serif" font-size="10.00">odp/api/std_types.h</text>
</a>
</g>
</g>
<!-- Node0&#45;&gt;Node1 -->
<g id="edge1" class="edge"><title>Node0&#45;&gt;Node1</title>
<path fill="none" stroke="midnightblue" d="M322.361,-287.296C243.922,-282.415 32.8433,-267.222 12.5,-244 -20.0112,-206.888 43.9856,-159.742 81.2901,-136.798"/>
<polygon fill="midnightblue" stroke="midnightblue" points="83.3437,-139.648 90.1242,-131.507 79.7469,-133.642 83.3437,-139.648"/>
</g>
<!-- Node7 -->
<g id="node8" class="node"><title>Node7</title>
<polygon fill="white" stroke="#bfbfbf" points="161.5,-224.5 161.5,-243.5 269.5,-243.5 269.5,-224.5 161.5,-224.5"/>
<text text-anchor="middle" x="215.5" y="-231.5" font-family="Helvetica,sans-Serif" font-size="10.00">odp/api/abi/event.h</text>
</g>
<!-- Node0&#45;&gt;Node7 -->
<g id="edge7" class="edge"><title>Node0&#45;&gt;Node7</title>
<path fill="none" stroke="midnightblue" d="M329.95,-280.444C307.469,-271.517 272.012,-257.439 246.52,-247.317"/>
<polygon fill="midnightblue" stroke="midnightblue" points="247.535,-243.954 236.949,-243.516 244.951,-250.46 247.535,-243.954"/>
</g>
<!-- Node8 -->
<g id="node9" class="node"><title>Node8</title>
<polygon fill="white" stroke="#bfbfbf" points="288,-224.5 288,-243.5 415,-243.5 415,-224.5 288,-224.5"/>
<text text-anchor="middle" x="351.5" y="-231.5" font-family="Helvetica,sans-Serif" font-size="10.00">odp/api/abi/packet_io.h</text>
</g>
<!-- Node0&#45;&gt;Node8 -->
<g id="edge8" class="edge"><title>Node0&#45;&gt;Node8</title>
<path fill="none" stroke="midnightblue" d="M351.5,-280.083C351.5,-273.006 351.5,-262.861 351.5,-253.986"/>
<polygon fill="midnightblue" stroke="midnightblue" points="355,-253.751 351.5,-243.751 348,-253.751 355,-253.751"/>
</g>
<!-- Node9 -->
<g id="node10" class="node"><title>Node9</title>
<polygon fill="white" stroke="#bfbfbf" points="433,-224.5 433,-243.5 546,-243.5 546,-224.5 433,-224.5"/>
<text text-anchor="middle" x="489.5" y="-231.5" font-family="Helvetica,sans-Serif" font-size="10.00">odp/api/abi/packet.h</text>
</g>
<!-- Node0&#45;&gt;Node9 -->
<g id="edge9" class="edge"><title>Node0&#45;&gt;Node9</title>
<path fill="none" stroke="midnightblue" d="M373.367,-280.444C396.279,-271.478 432.475,-257.314 458.366,-247.183"/>
<polygon fill="midnightblue" stroke="midnightblue" points="459.699,-250.42 467.736,-243.516 457.148,-243.901 459.699,-250.42"/>
</g>
<!-- Node10 -->
<g id="node11" class="node"><title>Node10</title>
<polygon fill="white" stroke="#bfbfbf" points="564.5,-224.5 564.5,-243.5 672.5,-243.5 672.5,-224.5 564.5,-224.5"/>
<text text-anchor="middle" x="618.5" y="-231.5" font-family="Helvetica,sans-Serif" font-size="10.00">odp/api/abi/buffer.h</text>
</g>
<!-- Node0&#45;&gt;Node10 -->
<g id="edge10" class="edge"><title>Node0&#45;&gt;Node10</title>
<path fill="none" stroke="midnightblue" d="M380.582,-283.118C425.115,-274.112 510.863,-256.769 566.335,-245.55"/>
<polygon fill="midnightblue" stroke="midnightblue" points="567.217,-248.943 576.324,-243.53 565.829,-242.082 567.217,-248.943"/>
</g>
<!-- Node11 -->
<g id="node12" class="node"><title>Node11</title>
<polygon fill="white" stroke="#bfbfbf" points="691,-224.5 691,-243.5 792,-243.5 792,-224.5 691,-224.5"/>
<text text-anchor="middle" x="741.5" y="-231.5" font-family="Helvetica,sans-Serif" font-size="10.00">odp/api/abi/pool.h</text>
</g>
<!-- Node0&#45;&gt;Node11 -->
<g id="edge11" class="edge"><title>Node0&#45;&gt;Node11</title>
<path fill="none" stroke="midnightblue" d="M380.653,-285.158C436.572,-277.759 563.027,-260.89 680.52,-244.124"/>
<polygon fill="midnightblue" stroke="midnightblue" points="681.364,-247.539 690.768,-242.658 680.373,-240.609 681.364,-247.539"/>
</g>
<!-- Node12 -->
<g id="node13" class="node"><title>Node12</title>
<g id="a_node13"><a xlink:href="spec_2packet_8h.html" target="_top" xlink:title="ODP packet descriptor. ">
<polygon fill="white" stroke="black" points="21.5,-224.5 21.5,-243.5 143.5,-243.5 143.5,-224.5 21.5,-224.5"/>
<text text-anchor="middle" x="82.5" y="-231.5" font-family="Helvetica,sans-Serif" font-size="10.00">odp/api/spec/packet.h</text>
</a>
</g>
</g>
<!-- Node0&#45;&gt;Node12 -->
<g id="edge12" class="edge"><title>Node0&#45;&gt;Node12</title>
<path fill="none" stroke="midnightblue" d="M322.457,-283.17C277.694,-274.184 191.168,-256.814 135.169,-245.573"/>
<polygon fill="midnightblue" stroke="midnightblue" points="135.579,-242.085 125.086,-243.549 134.201,-248.949 135.579,-242.085"/>
</g>
<!-- Node2 -->
<g id="node3" class="node"><title>Node2</title>
<polygon fill="white" stroke="#bfbfbf" points="191.5,-56.5 191.5,-75.5 319.5,-75.5 319.5,-56.5 191.5,-56.5"/>
<text text-anchor="middle" x="255.5" y="-63.5" font-family="Helvetica,sans-Serif" font-size="10.00">odp/api/abi/std_types.h</text>
</g>
<!-- Node1&#45;&gt;Node2 -->
<g id="edge2" class="edge"><title>Node1&#45;&gt;Node2</title>
<path fill="none" stroke="midnightblue" d="M129.268,-112.444C154.393,-103.399 194.211,-89.064 222.4,-78.9158"/>
<polygon fill="midnightblue" stroke="midnightblue" points="223.62,-82.1968 231.843,-75.5164 221.249,-75.6106 223.62,-82.1968"/>
</g>
<!-- Node3 -->
<g id="node4" class="node"><title>Node3</title>
<g id="a_node4"><a xlink:href="spec_2std__types_8h.html" target="_top" xlink:title="Standard C language types and definitions for ODP. ">
<polygon fill="white" stroke="black" points="37.5,-56.5 37.5,-75.5 173.5,-75.5 173.5,-56.5 37.5,-56.5"/>
<text text-anchor="middle" x="105.5" y="-63.5" font-family="Helvetica,sans-Serif" font-size="10.00">odp/api/spec/std_types.h</text>
</a>
</g>
</g>
<!-- Node1&#45;&gt;Node3 -->
<g id="edge3" class="edge"><title>Node1&#45;&gt;Node3</title>
<path fill="none" stroke="midnightblue" d="M105.5,-112.083C105.5,-105.006 105.5,-94.8611 105.5,-85.9865"/>
<polygon fill="midnightblue" stroke="midnightblue" points="109,-85.751 105.5,-75.7511 102,-85.7511 109,-85.751"/>
</g>
<!-- Node4 -->
<g id="node5" class="node"><title>Node4</title>
<polygon fill="white" stroke="#bfbfbf" points="0,-0.5 0,-19.5 115,-19.5 115,-0.5 0,-0.5"/>
<text text-anchor="middle" x="57.5" y="-7.5" font-family="Helvetica,sans-Serif" font-size="10.00">odp/visibility_begin.h</text>
</g>
<!-- Node3&#45;&gt;Node4 -->
<g id="edge4" class="edge"><title>Node3&#45;&gt;Node4</title>
<path fill="none" stroke="midnightblue" d="M97.5738,-56.083C90.6539,-48.2982 80.4346,-36.8015 72.048,-27.3665"/>
<polygon fill="midnightblue" stroke="midnightblue" points="74.5383,-24.8999 65.2787,-19.7511 69.3065,-29.5505 74.5383,-24.8999"/>
</g>
<!-- Node5 -->
<g id="node6" class="node"><title>Node5</title>
<polygon fill="white" stroke="#bfbfbf" points="133,-0.5 133,-19.5 186,-19.5 186,-0.5 133,-0.5"/>
<text text-anchor="middle" x="159.5" y="-7.5" font-family="Helvetica,sans-Serif" font-size="10.00">stdint.h</text>
</g>
<!-- Node3&#45;&gt;Node5 -->
<g id="edge5" class="edge"><title>Node3&#45;&gt;Node5</title>
<path fill="none" stroke="midnightblue" d="M114.417,-56.083C122.28,-48.2195 133.931,-36.5688 143.419,-27.0813"/>
<polygon fill="midnightblue" stroke="midnightblue" points="146.153,-29.2971 150.749,-19.7511 141.203,-24.3473 146.153,-29.2971"/>
</g>
<!-- Node6 -->
<g id="node7" class="node"><title>Node6</title>
<polygon fill="white" stroke="#bfbfbf" points="340,-0.5 340,-19.5 447,-19.5 447,-0.5 340,-0.5"/>
<text text-anchor="middle" x="393.5" y="-7.5" font-family="Helvetica,sans-Serif" font-size="10.00">odp/visibility_end.h</text>
</g>
<!-- Node3&#45;&gt;Node6 -->
<g id="edge6" class="edge"><title>Node3&#45;&gt;Node6</title>
<path fill="none" stroke="midnightblue" d="M151.134,-56.4435C201.797,-46.9444 283.575,-31.611 337.928,-21.4198"/>
<polygon fill="midnightblue" stroke="midnightblue" points="338.895,-24.7994 348.079,-19.5164 337.605,-17.9193 338.895,-24.7994"/>
</g>
<!-- Node12&#45;&gt;Node4 -->
<g id="edge13" class="edge"><title>Node12&#45;&gt;Node4</title>
<path fill="none" stroke="midnightblue" d="M78.0686,-224.461C66.4059,-201.343 35.2902,-135.278 28.5,-76 27.4884,-67.1689 25.9903,-64.5272 28.5,-56 31.5124,-45.7645 37.6546,-35.6599 43.5139,-27.627"/>
<polygon fill="midnightblue" stroke="midnightblue" points="46.4316,-29.5773 49.8271,-19.5413 40.9142,-25.2694 46.4316,-29.5773"/>
</g>
<!-- Node12&#45;&gt;Node6 -->
<g id="edge20" class="edge"><title>Node12&#45;&gt;Node6</title>
<path fill="none" stroke="midnightblue" d="M114.656,-224.495C198.04,-201.718 417.526,-136.931 457.5,-76 470.785,-55.7499 445.358,-36.4976 422.73,-24.2776"/>
<polygon fill="midnightblue" stroke="midnightblue" points="424.144,-21.0695 413.645,-19.6429 420.962,-27.305 424.144,-21.0695"/>
</g>
<!-- Node13 -->
<g id="node14" class="node"><title>Node13</title>
<g id="a_node14"><a xlink:href="time_8h.html" target="_top" xlink:title="ODP time. ">
<polygon fill="white" stroke="black" points="103.5,-168.5 103.5,-187.5 189.5,-187.5 189.5,-168.5 103.5,-168.5"/>
<text text-anchor="middle" x="146.5" y="-175.5" font-family="Helvetica,sans-Serif" font-size="10.00">odp/api/time.h</text>
</a>
</g>
</g>
<!-- Node12&#45;&gt;Node13 -->
<g id="edge14" class="edge"><title>Node12&#45;&gt;Node13</title>
<path fill="none" stroke="midnightblue" d="M92.7827,-224.324C102.336,-216.263 116.78,-204.077 128.284,-194.369"/>
<polygon fill="midnightblue" stroke="midnightblue" points="130.644,-196.958 136.03,-187.834 126.13,-191.608 130.644,-196.958"/>
</g>
<!-- Node13&#45;&gt;Node1 -->
<g id="edge15" class="edge"><title>Node13&#45;&gt;Node1</title>
<path fill="none" stroke="midnightblue" d="M139.73,-168.083C133.938,-160.455 125.442,-149.264 118.362,-139.941"/>
<polygon fill="midnightblue" stroke="midnightblue" points="120.979,-137.599 112.144,-131.751 115.404,-141.832 120.979,-137.599"/>
</g>
<!-- Node14 -->
<g id="node15" class="node"><title>Node14</title>
<polygon fill="white" stroke="#bfbfbf" points="217,-112.5 217,-131.5 320,-131.5 320,-112.5 217,-112.5"/>
<text text-anchor="middle" x="268.5" y="-119.5" font-family="Helvetica,sans-Serif" font-size="10.00">odp/api/abi/time.h</text>
</g>
<!-- Node13&#45;&gt;Node14 -->
<g id="edge16" class="edge"><title>Node13&#45;&gt;Node14</title>
<path fill="none" stroke="midnightblue" d="M165.831,-168.444C185.82,-159.596 217.243,-145.687 240.064,-135.586"/>
<polygon fill="midnightblue" stroke="midnightblue" points="241.532,-138.764 249.259,-131.516 238.698,-132.363 241.532,-138.764"/>
</g>
<!-- Node15 -->
<g id="node16" class="node"><title>Node15</title>
<g id="a_node16"><a xlink:href="spec_2time_8h.html" target="_top" xlink:title="ODP time. ">
<polygon fill="white" stroke="black" points="338,-56.5 338,-75.5 449,-75.5 449,-56.5 338,-56.5"/>
<text text-anchor="middle" x="393.5" y="-63.5" font-family="Helvetica,sans-Serif" font-size="10.00">odp/api/spec/time.h</text>
</a>
</g>
</g>
<!-- Node13&#45;&gt;Node15 -->
<g id="edge17" class="edge"><title>Node13&#45;&gt;Node15</title>
<path fill="none" stroke="midnightblue" d="M152.109,-168.327C161.695,-154.234 182.624,-126.483 207.5,-112 228.966,-99.5019 288.812,-86.2514 334.881,-77.3915"/>
<polygon fill="midnightblue" stroke="midnightblue" points="335.606,-80.8164 344.778,-75.5141 334.301,-73.939 335.606,-80.8164"/>
</g>
<!-- Node15&#45;&gt;Node4 -->
<g id="edge18" class="edge"><title>Node15&#45;&gt;Node4</title>
<path fill="none" stroke="midnightblue" d="M340.26,-56.4435C280.54,-46.8456 183.759,-31.2916 120.368,-21.1037"/>
<polygon fill="midnightblue" stroke="midnightblue" points="120.92,-17.6476 110.491,-19.5164 119.809,-24.559 120.92,-17.6476"/>
</g>
<!-- Node15&#45;&gt;Node6 -->
<g id="edge19" class="edge"><title>Node15&#45;&gt;Node6</title>
<path fill="none" stroke="midnightblue" d="M393.5,-56.083C393.5,-49.0059 393.5,-38.8611 393.5,-29.9865"/>
<polygon fill="midnightblue" stroke="midnightblue" points="397,-29.751 393.5,-19.7511 390,-29.7511 397,-29.751"/>
</g>
</g>
</svg>
