<?xml version="1.0" encoding="UTF-8" standalone="no"?>
<!DOCTYPE svg PUBLIC "-//W3C//DTD SVG 1.1//EN"
 "http://www.w3.org/Graphics/SVG/1.1/DTD/svg11.dtd">
<!-- Generated by graphviz version 2.38.0 (20140413.2041)
 -->
<!-- Title: packet_flags.h Pages: 1 -->
<svg width="924pt" height="431pt"
 viewBox="0.00 0.00 924.00 431.00" xmlns="http://www.w3.org/2000/svg" xmlns:xlink="http://www.w3.org/1999/xlink">
<g id="graph0" class="graph" transform="scale(1 1) rotate(0) translate(4 427)">
<title>packet_flags.h</title>
<polygon fill="white" stroke="none" points="-4,4 -4,-427 920,-427 920,4 -4,4"/>
<!-- Node0 -->
<g id="node1" class="node"><title>Node0</title>
<polygon fill="#bfbfbf" stroke="black" points="72,-403.5 72,-422.5 158,-422.5 158,-403.5 72,-403.5"/>
<text text-anchor="middle" x="115" y="-410.5" font-family="Helvetica,sans-Serif" font-size="10.00">packet_flags.h</text>
</g>
<!-- Node1 -->
<g id="node2" class="node"><title>Node1</title>
<polygon fill="white" stroke="#bfbfbf" points="0,-336.5 0,-366.5 104,-366.5 104,-336.5 0,-336.5"/>
<text text-anchor="start" x="8" y="-354.5" font-family="Helvetica,sans-Serif" font-size="10.00">odp/api/abi/packet</text>
<text text-anchor="middle" x="52" y="-343.5" font-family="Helvetica,sans-Serif" font-size="10.00">_flags.h</text>
</g>
<!-- Node0&#45;&gt;Node1 -->
<g id="edge1" class="edge"><title>Node0&#45;&gt;Node1</title>
<path fill="none" stroke="midnightblue" d="M105.974,-403.475C97.7601,-395.718 85.2931,-383.943 74.4095,-373.665"/>
<polygon fill="midnightblue" stroke="midnightblue" points="76.5212,-370.845 66.8479,-366.523 71.7148,-375.934 76.5212,-370.845"/>
</g>
<!-- Node2 -->
<g id="node3" class="node"><title>Node2</title>
<g id="a_node3"><a xlink:href="spec_2packet__flags_8h.html" target="_top" xlink:title="ODP packet flags. ">
<polygon fill="white" stroke="black" points="122.5,-336.5 122.5,-366.5 235.5,-366.5 235.5,-336.5 122.5,-336.5"/>
<text text-anchor="start" x="130.5" y="-354.5" font-family="Helvetica,sans-Serif" font-size="10.00">odp/api/spec/packet</text>
<text text-anchor="middle" x="179" y="-343.5" font-family="Helvetica,sans-Serif" font-size="10.00">_flags.h</text>
</a>
</g>
</g>
<!-- Node0&#45;&gt;Node2 -->
<g id="edge2" class="edge"><title>Node0&#45;&gt;Node2</title>
<path fill="none" stroke="midnightblue" d="M124.17,-403.475C132.595,-395.643 145.425,-383.714 156.556,-373.366"/>
<polygon fill="midnightblue" stroke="midnightblue" points="158.976,-375.895 163.916,-366.523 154.209,-370.769 158.976,-375.895"/>
</g>
<!-- Node3 -->
<g id="node4" class="node"><title>Node3</title>
<polygon fill="white" stroke="#bfbfbf" points="495.5,-0.5 495.5,-19.5 610.5,-19.5 610.5,-0.5 495.5,-0.5"/>
<text text-anchor="middle" x="553" y="-7.5" font-family="Helvetica,sans-Serif" font-size="10.00">odp/visibility_begin.h</text>
</g>
<!-- Node2&#45;&gt;Node3 -->
<g id="edge3" class="edge"><title>Node2&#45;&gt;Node3</title>
<path fill="none" stroke="midnightblue" d="M235.607,-347.589C408.185,-337.965 916,-303.804 916,-235 916,-235 916,-235 916,-121 916,-59.9798 725.756,-29.6597 620.718,-17.5697"/>
<polygon fill="midnightblue" stroke="midnightblue" points="620.847,-14.0622 610.518,-16.4221 620.064,-21.0183 620.847,-14.0622"/>
</g>
<!-- Node4 -->
<g id="node5" class="node"><title>Node4</title>
<g id="a_node5"><a xlink:href="std__types_8h.html" target="_top" xlink:title="Standard C language types and definitions for ODP. ">
<polygon fill="white" stroke="black" points="168,-112.5 168,-131.5 278,-131.5 278,-112.5 168,-112.5"/>
<text text-anchor="middle" x="223" y="-119.5" font-family="Helvetica,sans-Serif" font-size="10.00">odp/api/std_types.h</text>
</a>
</g>
</g>
<!-- Node2&#45;&gt;Node4 -->
<g id="edge4" class="edge"><title>Node2&#45;&gt;Node4</title>
<path fill="none" stroke="midnightblue" d="M159.906,-336.383C133.177,-314.758 88.6368,-270.97 96,-224 100.049,-198.172 96.2732,-187.215 114,-168 128.912,-151.836 150.502,-141.313 170.54,-134.545"/>
<polygon fill="midnightblue" stroke="midnightblue" points="171.719,-137.843 180.216,-131.515 169.627,-131.163 171.719,-137.843"/>
</g>
<!-- Node8 -->
<g id="node9" class="node"><title>Node8</title>
<polygon fill="white" stroke="#bfbfbf" points="73.5,-0.5 73.5,-19.5 180.5,-19.5 180.5,-0.5 73.5,-0.5"/>
<text text-anchor="middle" x="127" y="-7.5" font-family="Helvetica,sans-Serif" font-size="10.00">odp/visibility_end.h</text>
</g>
<!-- Node2&#45;&gt;Node8 -->
<g id="edge26" class="edge"><title>Node2&#45;&gt;Node8</title>
<path fill="none" stroke="midnightblue" d="M122.8,-336.469C74.6421,-320.679 13,-289.77 13,-235 13,-235 13,-235 13,-121 13,-74.1149 63.5515,-40.8944 97.3292,-23.9302"/>
<polygon fill="midnightblue" stroke="midnightblue" points="98.8676,-27.0742 106.355,-19.5787 95.8277,-20.7687 98.8676,-27.0742"/>
</g>
<!-- Node9 -->
<g id="node10" class="node"><title>Node9</title>
<g id="a_node10"><a xlink:href="packet_8h.html" target="_top" xlink:title="ODP packet descriptor. ">
<polygon fill="white" stroke="black" points="328,-280.5 328,-299.5 424,-299.5 424,-280.5 328,-280.5"/>
<text text-anchor="middle" x="376" y="-287.5" font-family="Helvetica,sans-Serif" font-size="10.00">odp/api/packet.h</text>
</a>
</g>
</g>
<!-- Node2&#45;&gt;Node9 -->
<g id="edge10" class="edge"><title>Node2&#45;&gt;Node9</title>
<path fill="none" stroke="midnightblue" d="M225.686,-336.399C259.875,-326.073 305.706,-312.231 337.739,-302.556"/>
<polygon fill="midnightblue" stroke="midnightblue" points="339.061,-305.813 347.622,-299.571 337.037,-299.112 339.061,-305.813"/>
</g>
<!-- Node5 -->
<g id="node6" class="node"><title>Node5</title>
<polygon fill="white" stroke="#bfbfbf" points="309,-56.5 309,-75.5 437,-75.5 437,-56.5 309,-56.5"/>
<text text-anchor="middle" x="373" y="-63.5" font-family="Helvetica,sans-Serif" font-size="10.00">odp/api/abi/std_types.h</text>
</g>
<!-- Node4&#45;&gt;Node5 -->
<g id="edge5" class="edge"><title>Node4&#45;&gt;Node5</title>
<path fill="none" stroke="midnightblue" d="M246.768,-112.444C271.893,-103.399 311.711,-89.064 339.9,-78.9158"/>
<polygon fill="midnightblue" stroke="midnightblue" points="341.12,-82.1968 349.343,-75.5164 338.749,-75.6106 341.12,-82.1968"/>
</g>
<!-- Node6 -->
<g id="node7" class="node"><title>Node6</title>
<g id="a_node7"><a xlink:href="spec_2std__types_8h.html" target="_top" xlink:title="Standard C language types and definitions for ODP. ">
<polygon fill="white" stroke="black" points="155,-56.5 155,-75.5 291,-75.5 291,-56.5 155,-56.5"/>
<text text-anchor="middle" x="223" y="-63.5" font-family="Helvetica,sans-Serif" font-size="10.00">odp/api/spec/std_types.h</text>
</a>
</g>
</g>
<!-- Node4&#45;&gt;Node6 -->
<g id="edge6" class="edge"><title>Node4&#45;&gt;Node6</title>
<path fill="none" stroke="midnightblue" d="M223,-112.083C223,-105.006 223,-94.8611 223,-85.9865"/>
<polygon fill="midnightblue" stroke="midnightblue" points="226.5,-85.751 223,-75.7511 219.5,-85.7511 226.5,-85.751"/>
</g>
<!-- Node6&#45;&gt;Node3 -->
<g id="edge7" class="edge"><title>Node6&#45;&gt;Node3</title>
<path fill="none" stroke="midnightblue" d="M275.289,-56.4435C333.823,-46.8654 428.605,-31.3556 490.87,-21.1667"/>
<polygon fill="midnightblue" stroke="midnightblue" points="491.652,-24.5855 500.955,-19.5164 490.521,-17.6773 491.652,-24.5855"/>
</g>
<!-- Node7 -->
<g id="node8" class="node"><title>Node7</title>
<polygon fill="white" stroke="#bfbfbf" points="198.5,-0.5 198.5,-19.5 251.5,-19.5 251.5,-0.5 198.5,-0.5"/>
<text text-anchor="middle" x="225" y="-7.5" font-family="Helvetica,sans-Serif" font-size="10.00">stdint.h</text>
</g>
<!-- Node6&#45;&gt;Node7 -->
<g id="edge8" class="edge"><title>Node6&#45;&gt;Node7</title>
<path fill="none" stroke="midnightblue" d="M223.33,-56.083C223.592,-49.0059 223.968,-38.8611 224.297,-29.9865"/>
<polygon fill="midnightblue" stroke="midnightblue" points="227.803,-29.8738 224.676,-19.7511 220.808,-29.6147 227.803,-29.8738"/>
</g>
<!-- Node6&#45;&gt;Node8 -->
<g id="edge9" class="edge"><title>Node6&#45;&gt;Node8</title>
<path fill="none" stroke="midnightblue" d="M207.576,-56.324C192.46,-47.8215 169.185,-34.7288 151.529,-24.7975"/>
<polygon fill="midnightblue" stroke="midnightblue" points="152.817,-21.5066 142.386,-19.6545 149.386,-27.6077 152.817,-21.5066"/>
</g>
<!-- Node9&#45;&gt;Node4 -->
<g id="edge11" class="edge"><title>Node9&#45;&gt;Node4</title>
<path fill="none" stroke="midnightblue" d="M327.859,-288.079C258.469,-285.619 135.617,-276.64 108,-244 73.2079,-202.879 149.554,-157.687 193.999,-136.011"/>
<polygon fill="midnightblue" stroke="midnightblue" points="195.683,-139.086 203.21,-131.63 192.677,-132.764 195.683,-139.086"/>
</g>
<!-- Node10 -->
<g id="node11" class="node"><title>Node10</title>
<polygon fill="white" stroke="#bfbfbf" points="117,-224.5 117,-243.5 225,-243.5 225,-224.5 117,-224.5"/>
<text text-anchor="middle" x="171" y="-231.5" font-family="Helvetica,sans-Serif" font-size="10.00">odp/api/abi/event.h</text>
</g>
<!-- Node9&#45;&gt;Node10 -->
<g id="edge12" class="edge"><title>Node9&#45;&gt;Node10</title>
<path fill="none" stroke="midnightblue" d="M343.517,-280.444C308.28,-271.162 251.896,-256.309 213.241,-246.127"/>
<polygon fill="midnightblue" stroke="midnightblue" points="213.893,-242.679 203.331,-243.516 212.109,-249.448 213.893,-242.679"/>
</g>
<!-- Node11 -->
<g id="node12" class="node"><title>Node11</title>
<polygon fill="white" stroke="#bfbfbf" points="243.5,-224.5 243.5,-243.5 370.5,-243.5 370.5,-224.5 243.5,-224.5"/>
<text text-anchor="middle" x="307" y="-231.5" font-family="Helvetica,sans-Serif" font-size="10.00">odp/api/abi/packet_io.h</text>
</g>
<!-- Node9&#45;&gt;Node11 -->
<g id="edge13" class="edge"><title>Node9&#45;&gt;Node11</title>
<path fill="none" stroke="midnightblue" d="M364.914,-280.324C354.514,-272.185 338.739,-259.839 326.278,-250.087"/>
<polygon fill="midnightblue" stroke="midnightblue" points="328.32,-247.241 318.288,-243.834 324.006,-252.753 328.32,-247.241"/>
</g>
<!-- Node12 -->
<g id="node13" class="node"><title>Node12</title>
<polygon fill="white" stroke="#bfbfbf" points="388.5,-224.5 388.5,-243.5 501.5,-243.5 501.5,-224.5 388.5,-224.5"/>
<text text-anchor="middle" x="445" y="-231.5" font-family="Helvetica,sans-Serif" font-size="10.00">odp/api/abi/packet.h</text>
</g>
<!-- Node9&#45;&gt;Node12 -->
<g id="edge14" class="edge"><title>Node9&#45;&gt;Node12</title>
<path fill="none" stroke="midnightblue" d="M387.086,-280.324C397.486,-272.185 413.261,-259.839 425.722,-250.087"/>
<polygon fill="midnightblue" stroke="midnightblue" points="427.994,-252.753 433.712,-243.834 423.68,-247.241 427.994,-252.753"/>
</g>
<!-- Node13 -->
<g id="node14" class="node"><title>Node13</title>
<polygon fill="white" stroke="#bfbfbf" points="660,-224.5 660,-243.5 768,-243.5 768,-224.5 660,-224.5"/>
<text text-anchor="middle" x="714" y="-231.5" font-family="Helvetica,sans-Serif" font-size="10.00">odp/api/abi/buffer.h</text>
</g>
<!-- Node9&#45;&gt;Node13 -->
<g id="edge15" class="edge"><title>Node9&#45;&gt;Node13</title>
<path fill="none" stroke="midnightblue" d="M424.068,-281.32C483.408,-271.84 584.519,-255.686 650.282,-245.18"/>
<polygon fill="midnightblue" stroke="midnightblue" points="651.198,-248.578 660.521,-243.544 650.094,-241.666 651.198,-248.578"/>
</g>
<!-- Node14 -->
<g id="node15" class="node"><title>Node14</title>
<polygon fill="white" stroke="#bfbfbf" points="786.5,-224.5 786.5,-243.5 887.5,-243.5 887.5,-224.5 786.5,-224.5"/>
<text text-anchor="middle" x="837" y="-231.5" font-family="Helvetica,sans-Serif" font-size="10.00">odp/api/abi/pool.h</text>
</g>
<!-- Node9&#45;&gt;Node14 -->
<g id="edge16" class="edge"><title>Node9&#45;&gt;Node14</title>
<path fill="none" stroke="midnightblue" d="M424.216,-284.174C497.754,-276.684 642.593,-261.428 776.266,-244.052"/>
<polygon fill="midnightblue" stroke="midnightblue" points="776.817,-247.51 786.28,-242.743 775.91,-240.569 776.817,-247.51"/>
</g>
<!-- Node15 -->
<g id="node16" class="node"><title>Node15</title>
<g id="a_node16"><a xlink:href="spec_2packet_8h.html" target="_top" xlink:title="ODP packet descriptor. ">
<polygon fill="white" stroke="black" points="520,-224.5 520,-243.5 642,-243.5 642,-224.5 520,-224.5"/>
<text text-anchor="middle" x="581" y="-231.5" font-family="Helvetica,sans-Serif" font-size="10.00">odp/api/spec/packet.h</text>
</a>
</g>
</g>
<!-- Node9&#45;&gt;Node15 -->
<g id="edge17" class="edge"><title>Node9&#45;&gt;Node15</title>
<path fill="none" stroke="midnightblue" d="M408.483,-280.444C443.72,-271.162 500.104,-256.309 538.759,-246.127"/>
<polygon fill="midnightblue" stroke="midnightblue" points="539.891,-249.448 548.669,-243.516 538.107,-242.679 539.891,-249.448"/>
</g>
<!-- Node15&#45;&gt;Node3 -->
<g id="edge18" class="edge"><title>Node15&#45;&gt;Node3</title>
<path fill="none" stroke="midnightblue" d="M582.081,-224.341C585.047,-198.335 592.071,-118.842 576,-56 573.527,-46.331 568.711,-36.37 564.122,-28.2855"/>
<polygon fill="midnightblue" stroke="midnightblue" points="566.979,-26.2468 558.81,-19.5006 560.989,-29.8689 566.979,-26.2468"/>
</g>
<!-- Node15&#45;&gt;Node8 -->
<g id="edge25" class="edge"><title>Node15&#45;&gt;Node8</title>
<path fill="none" stroke="midnightblue" d="M533.515,-224.465C428.964,-205.277 185.981,-158.351 159,-132 131.24,-104.888 126.638,-56.7239 126.393,-30.0696"/>
<polygon fill="midnightblue" stroke="midnightblue" points="129.896,-29.8268 126.51,-19.7877 122.896,-29.7473 129.896,-29.8268"/>
</g>
<!-- Node16 -->
<g id="node17" class="node"><title>Node16</title>
<g id="a_node17"><a xlink:href="time_8h.html" target="_top" xlink:title="ODP time. ">
<polygon fill="white" stroke="black" points="428,-168.5 428,-187.5 514,-187.5 514,-168.5 428,-168.5"/>
<text text-anchor="middle" x="471" y="-175.5" font-family="Helvetica,sans-Serif" font-size="10.00">odp/api/time.h</text>
</a>
</g>
</g>
<!-- Node15&#45;&gt;Node16 -->
<g id="edge19" class="edge"><title>Node15&#45;&gt;Node16</title>
<path fill="none" stroke="midnightblue" d="M563.327,-224.324C545.606,-215.625 518.097,-202.12 497.712,-192.113"/>
<polygon fill="midnightblue" stroke="midnightblue" points="499.149,-188.919 488.63,-187.655 496.064,-195.203 499.149,-188.919"/>
</g>
<!-- Node16&#45;&gt;Node4 -->
<g id="edge20" class="edge"><title>Node16&#45;&gt;Node4</title>
<path fill="none" stroke="midnightblue" d="M431.704,-168.444C388.441,-159.023 318.827,-143.866 272.027,-133.675"/>
<polygon fill="midnightblue" stroke="midnightblue" points="272.628,-130.224 262.112,-131.516 271.139,-137.064 272.628,-130.224"/>
</g>
<!-- Node17 -->
<g id="node18" class="node"><title>Node17</title>
<polygon fill="white" stroke="#bfbfbf" points="379.5,-112.5 379.5,-131.5 482.5,-131.5 482.5,-112.5 379.5,-112.5"/>
<text text-anchor="middle" x="431" y="-119.5" font-family="Helvetica,sans-Serif" font-size="10.00">odp/api/abi/time.h</text>
</g>
<!-- Node16&#45;&gt;Node17 -->
<g id="edge21" class="edge"><title>Node16&#45;&gt;Node17</title>
<path fill="none" stroke="midnightblue" d="M464.395,-168.083C458.745,-160.455 450.455,-149.264 443.549,-139.941"/>
<polygon fill="midnightblue" stroke="midnightblue" points="446.247,-137.703 437.482,-131.751 440.622,-141.87 446.247,-137.703"/>
</g>
<!-- Node18 -->
<g id="node19" class="node"><title>Node18</title>
<g id="a_node19"><a xlink:href="spec_2time_8h.html" target="_top" xlink:title="ODP time. ">
<polygon fill="white" stroke="black" points="455.5,-56.5 455.5,-75.5 566.5,-75.5 566.5,-56.5 455.5,-56.5"/>
<text text-anchor="middle" x="511" y="-63.5" font-family="Helvetica,sans-Serif" font-size="10.00">odp/api/spec/time.h</text>
</a>
</g>
</g>
<!-- Node16&#45;&gt;Node18 -->
<g id="edge22" class="edge"><title>Node16&#45;&gt;Node18</title>
<path fill="none" stroke="midnightblue" d="M475.592,-168.207C480.147,-159.259 487.134,-144.907 492,-132 497.832,-116.53 502.99,-98.4418 506.455,-85.2804"/>
<polygon fill="midnightblue" stroke="midnightblue" points="509.857,-86.1046 508.944,-75.5491 503.075,-84.3695 509.857,-86.1046"/>
</g>
<!-- Node18&#45;&gt;Node3 -->
<g id="edge23" class="edge"><title>Node18&#45;&gt;Node3</title>
<path fill="none" stroke="midnightblue" d="M517.935,-56.083C523.929,-48.3768 532.752,-37.0333 540.048,-27.6531"/>
<polygon fill="midnightblue" stroke="midnightblue" points="542.817,-29.7934 546.194,-19.7511 537.291,-25.4958 542.817,-29.7934"/>
</g>
<!-- Node18&#45;&gt;Node8 -->
<g id="edge24" class="edge"><title>Node18&#45;&gt;Node8</title>
<path fill="none" stroke="midnightblue" d="M455.323,-57.2399C393.365,-48.5941 289.982,-34.1379 190.535,-20.0726"/>
<polygon fill="midnightblue" stroke="midnightblue" points="191.007,-16.6046 180.615,-18.669 190.026,-23.5355 191.007,-16.6046"/>
</g>
</g>
</svg>
