<?xml version="1.0" encoding="UTF-8" standalone="no"?>
<!DOCTYPE svg PUBLIC "-//W3C//DTD SVG 1.1//EN"
 "http://www.w3.org/Graphics/SVG/1.1/DTD/svg11.dtd">
<!-- Generated by graphviz version 2.38.0 (20140413.2041)
 -->
<!-- Title: packet_inline_types.h Pages: 1 -->
<svg width="235pt" height="84pt"
 viewBox="0.00 0.00 234.50 84.00" xmlns="http://www.w3.org/2000/svg" xmlns:xlink="http://www.w3.org/1999/xlink">
<g id="graph0" class="graph" transform="scale(1 1) rotate(0) translate(4 80)">
<title>packet_inline_types.h</title>
<polygon fill="white" stroke="none" points="-4,4 -4,-80 230.5,-80 230.5,4 -4,4"/>
<!-- Node2 -->
<g id="node1" class="node"><title>Node2</title>
<polygon fill="#bfbfbf" stroke="black" points="59.5,-56.5 59.5,-75.5 178.5,-75.5 178.5,-56.5 59.5,-56.5"/>
<text text-anchor="middle" x="119" y="-63.5" font-family="Helvetica,sans-Serif" font-size="10.00">packet_inline_types.h</text>
</g>
<!-- Node3 -->
<g id="node2" class="node"><title>Node3</title>
<g id="a_node2"><a xlink:href="packet__flag__inlines_8h.html" target="_top" xlink:title="Packet inline functions. ">
<polygon fill="white" stroke="black" points="0,-0.5 0,-19.5 116,-19.5 116,-0.5 0,-0.5"/>
<text text-anchor="middle" x="58" y="-7.5" font-family="Helvetica,sans-Serif" font-size="10.00">packet_flag_inlines.h</text>
</a>
</g>
</g>
<!-- Node2&#45;&gt;Node3 -->
<g id="edge1" class="edge"><title>Node2&#45;&gt;Node3</title>
<path fill="none" stroke="midnightblue" d="M101.533,-49.5372C90.6562,-39.9087 77.0561,-27.8694 67.979,-19.8339"/>
<polygon fill="midnightblue" stroke="midnightblue" points="99.3917,-52.3162 109.199,-56.324 104.032,-47.0749 99.3917,-52.3162"/>
</g>
<!-- Node4 -->
<g id="node3" class="node"><title>Node4</title>
<g id="a_node3"><a xlink:href="packet__inlines_8h.html" target="_top" xlink:title="Packet inline functions. ">
<polygon fill="white" stroke="black" points="133.5,-0.5 133.5,-19.5 226.5,-19.5 226.5,-0.5 133.5,-0.5"/>
<text text-anchor="middle" x="180" y="-7.5" font-family="Helvetica,sans-Serif" font-size="10.00">packet_inlines.h</text>
</a>
</g>
</g>
<!-- Node2&#45;&gt;Node4 -->
<g id="edge2" class="edge"><title>Node2&#45;&gt;Node4</title>
<path fill="none" stroke="midnightblue" d="M136.467,-49.5372C147.344,-39.9087 160.944,-27.8694 170.021,-19.8339"/>
<polygon fill="midnightblue" stroke="midnightblue" points="133.968,-47.0749 128.801,-56.324 138.608,-52.3162 133.968,-47.0749"/>
</g>
</g>
</svg>
