<?xml version="1.0" encoding="UTF-8" standalone="no"?>
<!DOCTYPE svg PUBLIC "-//W3C//DTD SVG 1.1//EN"
 "http://www.w3.org/Graphics/SVG/1.1/DTD/svg11.dtd">
<!-- Generated by graphviz version 2.38.0 (20140413.2041)
 -->
<!-- Title: packet_inlines.h Pages: 1 -->
<svg width="1132pt" height="341pt"
 viewBox="0.00 0.00 1132.00 341.00" xmlns="http://www.w3.org/2000/svg" xmlns:xlink="http://www.w3.org/1999/xlink">
<g id="graph0" class="graph" transform="scale(1 1) rotate(0) translate(4 337)">
<title>packet_inlines.h</title>
<polygon fill="white" stroke="none" points="-4,4 -4,-337 1128,-337 1128,4 -4,4"/>
<!-- Node0 -->
<g id="node1" class="node"><title>Node0</title>
<polygon fill="#bfbfbf" stroke="black" points="571,-313.5 571,-332.5 664,-332.5 664,-313.5 571,-313.5"/>
<text text-anchor="middle" x="617.5" y="-320.5" font-family="Helvetica,sans-Serif" font-size="10.00">packet_inlines.h</text>
</g>
<!-- Node1 -->
<g id="node2" class="node"><title>Node1</title>
<polygon fill="white" stroke="#bfbfbf" points="0,-252 0,-271 113,-271 113,-252 0,-252"/>
<text text-anchor="middle" x="56.5" y="-259" font-family="Helvetica,sans-Serif" font-size="10.00">odp/api/abi/packet.h</text>
</g>
<!-- Node0&#45;&gt;Node1 -->
<g id="edge1" class="edge"><title>Node0&#45;&gt;Node1</title>
<path fill="none" stroke="midnightblue" d="M570.679,-319.418C483.244,-314.216 289.341,-300.884 127.5,-277 119.971,-275.889 112.036,-274.493 104.307,-273.01"/>
<polygon fill="midnightblue" stroke="midnightblue" points="104.807,-269.541 94.3165,-271.025 103.443,-276.407 104.807,-269.541"/>
</g>
<!-- Node2 -->
<g id="node3" class="node"><title>Node2</title>
<g id="a_node3"><a xlink:href="pool_8h.html" target="_top" xlink:title="ODP pool. ">
<polygon fill="white" stroke="black" points="505.5,-252 505.5,-271 589.5,-271 589.5,-252 505.5,-252"/>
<text text-anchor="middle" x="547.5" y="-259" font-family="Helvetica,sans-Serif" font-size="10.00">odp/api/pool.h</text>
</a>
</g>
</g>
<!-- Node0&#45;&gt;Node2 -->
<g id="edge2" class="edge"><title>Node0&#45;&gt;Node2</title>
<path fill="none" stroke="midnightblue" d="M607.471,-313.475C596.451,-304.108 578.54,-288.884 565.157,-277.508"/>
<polygon fill="midnightblue" stroke="midnightblue" points="567.397,-274.819 557.511,-271.009 562.863,-280.152 567.397,-274.819"/>
</g>
<!-- Node5 -->
<g id="node6" class="node"><title>Node5</title>
<polygon fill="white" stroke="#bfbfbf" points="645.5,-185 645.5,-204 753.5,-204 753.5,-185 645.5,-185"/>
<text text-anchor="middle" x="699.5" y="-192" font-family="Helvetica,sans-Serif" font-size="10.00">odp/api/abi/event.h</text>
</g>
<!-- Node0&#45;&gt;Node5 -->
<g id="edge27" class="edge"><title>Node0&#45;&gt;Node5</title>
<path fill="none" stroke="midnightblue" d="M617.889,-313.318C618.923,-298.423 622.701,-267.526 636.5,-246 646.15,-230.946 661.825,-218.356 675.125,-209.512"/>
<polygon fill="midnightblue" stroke="midnightblue" points="677.263,-212.301 683.85,-204.003 673.526,-206.382 677.263,-212.301"/>
</g>
<!-- Node13 -->
<g id="node14" class="node"><title>Node13</title>
<polygon fill="white" stroke="#bfbfbf" points="360,-252 360,-271 487,-271 487,-252 360,-252"/>
<text text-anchor="middle" x="423.5" y="-259" font-family="Helvetica,sans-Serif" font-size="10.00">odp/api/abi/packet_io.h</text>
</g>
<!-- Node0&#45;&gt;Node13 -->
<g id="edge15" class="edge"><title>Node0&#45;&gt;Node13</title>
<path fill="none" stroke="midnightblue" d="M589.705,-313.475C555.85,-303.092 498.529,-285.512 460.845,-273.954"/>
<polygon fill="midnightblue" stroke="midnightblue" points="461.831,-270.595 451.244,-271.009 459.778,-277.288 461.831,-270.595"/>
</g>
<!-- Node14 -->
<g id="node15" class="node"><title>Node14</title>
<g id="a_node15"><a xlink:href="hints_8h.html" target="_top" xlink:title="ODP compiler hints. ">
<polygon fill="white" stroke="black" points="53,-118 53,-137 140,-137 140,-118 53,-118"/>
<text text-anchor="middle" x="96.5" y="-125" font-family="Helvetica,sans-Serif" font-size="10.00">odp/api/hints.h</text>
</a>
</g>
</g>
<!-- Node0&#45;&gt;Node14 -->
<g id="edge16" class="edge"><title>Node0&#45;&gt;Node14</title>
<path fill="none" stroke="midnightblue" d="M570.941,-321.037C505.291,-318.5 382.48,-309.4 283.5,-277 224.338,-257.634 208.034,-250.195 160.5,-210 138.245,-191.181 118.528,-163.543 107.048,-145.784"/>
<polygon fill="midnightblue" stroke="midnightblue" points="109.843,-143.652 101.555,-137.052 103.918,-147.38 109.843,-143.652"/>
</g>
<!-- Node16 -->
<g id="node17" class="node"><title>Node16</title>
<g id="a_node17"><a xlink:href="time_8h.html" target="_top" xlink:title="ODP time. ">
<polygon fill="white" stroke="black" points="169.5,-185 169.5,-204 255.5,-204 255.5,-185 169.5,-185"/>
<text text-anchor="middle" x="212.5" y="-192" font-family="Helvetica,sans-Serif" font-size="10.00">odp/api/time.h</text>
</a>
</g>
</g>
<!-- Node0&#45;&gt;Node16 -->
<g id="edge20" class="edge"><title>Node0&#45;&gt;Node16</title>
<path fill="none" stroke="midnightblue" d="M570.837,-319.309C516.486,-315.008 424.679,-304.096 350.5,-277 304.911,-260.347 257.378,-228.55 231.717,-209.977"/>
<polygon fill="midnightblue" stroke="midnightblue" points="233.722,-207.107 223.591,-204.006 229.577,-212.748 233.722,-207.107"/>
</g>
<!-- Node19 -->
<g id="node20" class="node"><title>Node19</title>
<polygon fill="white" stroke="#bfbfbf" points="645.5,-252 645.5,-271 753.5,-271 753.5,-252 645.5,-252"/>
<text text-anchor="middle" x="699.5" y="-259" font-family="Helvetica,sans-Serif" font-size="10.00">odp/api/abi/buffer.h</text>
</g>
<!-- Node0&#45;&gt;Node19 -->
<g id="edge26" class="edge"><title>Node0&#45;&gt;Node19</title>
<path fill="none" stroke="midnightblue" d="M629.249,-313.475C642.279,-304.02 663.536,-288.596 679.259,-277.187"/>
<polygon fill="midnightblue" stroke="midnightblue" points="681.735,-279.715 687.773,-271.009 677.624,-274.049 681.735,-279.715"/>
</g>
<!-- Node20 -->
<g id="node21" class="node"><title>Node20</title>
<g id="a_node21"><a xlink:href="packet__inline__types_8h.html" target="_top" xlink:title="ODP packet descriptor. ">
<polygon fill="white" stroke="black" points="700.5,-112.5 700.5,-142.5 808.5,-142.5 808.5,-112.5 700.5,-112.5"/>
<text text-anchor="start" x="708.5" y="-130.5" font-family="Helvetica,sans-Serif" font-size="10.00">odp/api/plat/packet</text>
<text text-anchor="middle" x="754.5" y="-119.5" font-family="Helvetica,sans-Serif" font-size="10.00">_inline_types.h</text>
</a>
</g>
</g>
<!-- Node0&#45;&gt;Node20 -->
<g id="edge28" class="edge"><title>Node0&#45;&gt;Node20</title>
<path fill="none" stroke="midnightblue" d="M664.247,-321.175C697.52,-317.831 740.144,-307.346 762.5,-277 789.446,-240.424 775.571,-183.973 764.26,-152.247"/>
<polygon fill="midnightblue" stroke="midnightblue" points="767.53,-150.999 760.733,-142.872 760.978,-153.464 767.53,-150.999"/>
</g>
<!-- Node21 -->
<g id="node22" class="node"><title>Node21</title>
<g id="a_node22"><a xlink:href="pool__inline__types_8h.html" target="_top" xlink:title="ODP packet descriptor. ">
<polygon fill="white" stroke="black" points="809.5,-246.5 809.5,-276.5 935.5,-276.5 935.5,-246.5 809.5,-246.5"/>
<text text-anchor="start" x="817.5" y="-264.5" font-family="Helvetica,sans-Serif" font-size="10.00">odp/api/plat/pool_inline</text>
<text text-anchor="middle" x="872.5" y="-253.5" font-family="Helvetica,sans-Serif" font-size="10.00">_types.h</text>
</a>
</g>
</g>
<!-- Node0&#45;&gt;Node21 -->
<g id="edge30" class="edge"><title>Node0&#45;&gt;Node21</title>
<path fill="none" stroke="midnightblue" d="M654.035,-313.475C692.606,-304.475 754.351,-290.068 802.375,-278.862"/>
<polygon fill="midnightblue" stroke="midnightblue" points="803.458,-282.204 812.402,-276.523 801.868,-275.387 803.458,-282.204"/>
</g>
<!-- Node22 -->
<g id="node23" class="node"><title>Node22</title>
<g id="a_node23"><a xlink:href="pktio__inlines_8h_source.html" target="_top" xlink:title="odp/api/plat/pktio\l_inlines.h">
<polygon fill="white" stroke="black" points="954,-246.5 954,-276.5 1053,-276.5 1053,-246.5 954,-246.5"/>
<text text-anchor="start" x="962" y="-264.5" font-family="Helvetica,sans-Serif" font-size="10.00">odp/api/plat/pktio</text>
<text text-anchor="middle" x="1003.5" y="-253.5" font-family="Helvetica,sans-Serif" font-size="10.00">_inlines.h</text>
</a>
</g>
</g>
<!-- Node0&#45;&gt;Node22 -->
<g id="edge31" class="edge"><title>Node0&#45;&gt;Node22</title>
<path fill="none" stroke="midnightblue" d="M664.048,-317.141C725.766,-310.357 838.224,-296.815 943.819,-277.003"/>
<polygon fill="midnightblue" stroke="midnightblue" points="944.515,-280.433 953.687,-275.129 943.209,-273.556 944.515,-280.433"/>
</g>
<!-- Node23 -->
<g id="node24" class="node"><title>Node23</title>
<polygon fill="white" stroke="#bfbfbf" points="1071,-252 1071,-271 1124,-271 1124,-252 1071,-252"/>
<text text-anchor="middle" x="1097.5" y="-259" font-family="Helvetica,sans-Serif" font-size="10.00">string.h</text>
</g>
<!-- Node0&#45;&gt;Node23 -->
<g id="edge32" class="edge"><title>Node0&#45;&gt;Node23</title>
<path fill="none" stroke="midnightblue" d="M664.069,-321.727C745.918,-320.273 920.374,-312.802 1062.5,-277 1065.01,-276.367 1067.58,-275.586 1070.12,-274.718"/>
<polygon fill="midnightblue" stroke="midnightblue" points="1071.59,-277.904 1079.68,-271.06 1069.09,-271.367 1071.59,-277.904"/>
</g>
<!-- Node3 -->
<g id="node4" class="node"><title>Node3</title>
<polygon fill="white" stroke="#bfbfbf" points="526,-185 526,-204 627,-204 627,-185 526,-185"/>
<text text-anchor="middle" x="576.5" y="-192" font-family="Helvetica,sans-Serif" font-size="10.00">odp/api/abi/pool.h</text>
</g>
<!-- Node2&#45;&gt;Node3 -->
<g id="edge3" class="edge"><title>Node2&#45;&gt;Node3</title>
<path fill="none" stroke="midnightblue" d="M551.411,-251.734C555.759,-241.988 562.901,-225.981 568.455,-213.532"/>
<polygon fill="midnightblue" stroke="midnightblue" points="571.773,-214.686 572.651,-204.127 565.38,-211.834 571.773,-214.686"/>
</g>
<!-- Node4 -->
<g id="node5" class="node"><title>Node4</title>
<polygon fill="white" stroke="#bfbfbf" points="274,-179.5 274,-209.5 379,-209.5 379,-179.5 274,-179.5"/>
<text text-anchor="start" x="282" y="-197.5" font-family="Helvetica,sans-Serif" font-size="10.00">odp/api/abi/shared</text>
<text text-anchor="middle" x="326.5" y="-186.5" font-family="Helvetica,sans-Serif" font-size="10.00">_memory.h</text>
</g>
<!-- Node2&#45;&gt;Node4 -->
<g id="edge4" class="edge"><title>Node2&#45;&gt;Node4</title>
<path fill="none" stroke="midnightblue" d="M518.153,-251.869C484.058,-241.841 426.99,-225.056 383.974,-212.404"/>
<polygon fill="midnightblue" stroke="midnightblue" points="384.777,-208.992 374.195,-209.528 382.801,-215.708 384.777,-208.992"/>
</g>
<!-- Node2&#45;&gt;Node5 -->
<g id="edge5" class="edge"><title>Node2&#45;&gt;Node5</title>
<path fill="none" stroke="midnightblue" d="M567.684,-251.869C593.804,-240.699 639.526,-221.147 669.661,-208.26"/>
<polygon fill="midnightblue" stroke="midnightblue" points="671.414,-211.317 679.232,-204.167 668.661,-204.881 671.414,-211.317"/>
</g>
<!-- Node6 -->
<g id="node7" class="node"><title>Node6</title>
<g id="a_node7"><a xlink:href="spec_2pool_8h.html" target="_top" xlink:title="ODP pool. ">
<polygon fill="white" stroke="black" points="397.5,-185 397.5,-204 507.5,-204 507.5,-185 397.5,-185"/>
<text text-anchor="middle" x="452.5" y="-192" font-family="Helvetica,sans-Serif" font-size="10.00">odp/api/spec/pool.h</text>
</a>
</g>
</g>
<!-- Node2&#45;&gt;Node6 -->
<g id="edge6" class="edge"><title>Node2&#45;&gt;Node6</title>
<path fill="none" stroke="midnightblue" d="M534.688,-251.734C519.019,-241.013 492.278,-222.716 473.566,-209.914"/>
<polygon fill="midnightblue" stroke="midnightblue" points="475.339,-206.886 465.109,-204.127 471.386,-212.663 475.339,-206.886"/>
</g>
<!-- Node7 -->
<g id="node8" class="node"><title>Node7</title>
<polygon fill="white" stroke="#bfbfbf" points="230,-0.5 230,-19.5 345,-19.5 345,-0.5 230,-0.5"/>
<text text-anchor="middle" x="287.5" y="-7.5" font-family="Helvetica,sans-Serif" font-size="10.00">odp/visibility_begin.h</text>
</g>
<!-- Node6&#45;&gt;Node7 -->
<g id="edge7" class="edge"><title>Node6&#45;&gt;Node7</title>
<path fill="none" stroke="midnightblue" d="M454.485,-184.86C459.383,-161.169 469.447,-94.3942 437.5,-56 417.345,-31.7778 384.695,-20.2645 354.995,-14.9173"/>
<polygon fill="midnightblue" stroke="midnightblue" points="355.485,-11.4512 345.058,-13.3308 354.381,-18.3637 355.485,-11.4512"/>
</g>
<!-- Node8 -->
<g id="node9" class="node"><title>Node8</title>
<g id="a_node9"><a xlink:href="std__types_8h.html" target="_top" xlink:title="Standard C language types and definitions for ODP. ">
<polygon fill="white" stroke="black" points="318.5,-118 318.5,-137 428.5,-137 428.5,-118 318.5,-118"/>
<text text-anchor="middle" x="373.5" y="-125" font-family="Helvetica,sans-Serif" font-size="10.00">odp/api/std_types.h</text>
</a>
</g>
</g>
<!-- Node6&#45;&gt;Node8 -->
<g id="edge8" class="edge"><title>Node6&#45;&gt;Node8</title>
<path fill="none" stroke="midnightblue" d="M441.846,-184.734C429.053,-174.208 407.384,-156.379 391.873,-143.617"/>
<polygon fill="midnightblue" stroke="midnightblue" points="393.931,-140.778 383.985,-137.127 389.484,-146.184 393.931,-140.778"/>
</g>
<!-- Node12 -->
<g id="node13" class="node"><title>Node12</title>
<polygon fill="white" stroke="#bfbfbf" points="425,-0.5 425,-19.5 532,-19.5 532,-0.5 425,-0.5"/>
<text text-anchor="middle" x="478.5" y="-7.5" font-family="Helvetica,sans-Serif" font-size="10.00">odp/visibility_end.h</text>
</g>
<!-- Node6&#45;&gt;Node12 -->
<g id="edge14" class="edge"><title>Node6&#45;&gt;Node12</title>
<path fill="none" stroke="midnightblue" d="M479.349,-184.916C520.436,-170.153 597.505,-135.642 629.5,-76 650.137,-37.5291 592.204,-21.8255 542.224,-15.4167"/>
<polygon fill="midnightblue" stroke="midnightblue" points="542.376,-11.9105 532.036,-14.22 541.56,-18.8627 542.376,-11.9105"/>
</g>
<!-- Node9 -->
<g id="node10" class="node"><title>Node9</title>
<polygon fill="white" stroke="#bfbfbf" points="300.5,-56.5 300.5,-75.5 428.5,-75.5 428.5,-56.5 300.5,-56.5"/>
<text text-anchor="middle" x="364.5" y="-63.5" font-family="Helvetica,sans-Serif" font-size="10.00">odp/api/abi/std_types.h</text>
</g>
<!-- Node8&#45;&gt;Node9 -->
<g id="edge9" class="edge"><title>Node8&#45;&gt;Node9</title>
<path fill="none" stroke="midnightblue" d="M372.211,-117.975C370.941,-109.58 368.959,-96.4806 367.323,-85.6631"/>
<polygon fill="midnightblue" stroke="midnightblue" points="370.743,-84.8731 365.787,-75.5091 363.822,-85.9201 370.743,-84.8731"/>
</g>
<!-- Node10 -->
<g id="node11" class="node"><title>Node10</title>
<g id="a_node11"><a xlink:href="spec_2std__types_8h.html" target="_top" xlink:title="Standard C language types and definitions for ODP. ">
<polygon fill="white" stroke="black" points="484.5,-56.5 484.5,-75.5 620.5,-75.5 620.5,-56.5 484.5,-56.5"/>
<text text-anchor="middle" x="552.5" y="-63.5" font-family="Helvetica,sans-Serif" font-size="10.00">odp/api/spec/std_types.h</text>
</a>
</g>
</g>
<!-- Node8&#45;&gt;Node10 -->
<g id="edge10" class="edge"><title>Node8&#45;&gt;Node10</title>
<path fill="none" stroke="midnightblue" d="M399.146,-117.975C430.117,-107.68 482.373,-90.3103 517.151,-78.7502"/>
<polygon fill="midnightblue" stroke="midnightblue" points="518.516,-81.9848 526.901,-75.5091 516.308,-75.3422 518.516,-81.9848"/>
</g>
<!-- Node10&#45;&gt;Node7 -->
<g id="edge11" class="edge"><title>Node10&#45;&gt;Node7</title>
<path fill="none" stroke="midnightblue" d="M510.51,-56.4435C464.088,-46.9839 389.272,-31.7384 339.26,-21.5472"/>
<polygon fill="midnightblue" stroke="midnightblue" points="339.791,-18.0837 329.294,-19.5164 338.393,-24.9427 339.791,-18.0837"/>
</g>
<!-- Node11 -->
<g id="node12" class="node"><title>Node11</title>
<polygon fill="white" stroke="#bfbfbf" points="599,-0.5 599,-19.5 652,-19.5 652,-0.5 599,-0.5"/>
<text text-anchor="middle" x="625.5" y="-7.5" font-family="Helvetica,sans-Serif" font-size="10.00">stdint.h</text>
</g>
<!-- Node10&#45;&gt;Node11 -->
<g id="edge12" class="edge"><title>Node10&#45;&gt;Node11</title>
<path fill="none" stroke="midnightblue" d="M564.229,-56.324C575.337,-48.1066 592.242,-35.6017 605.483,-25.8069"/>
<polygon fill="midnightblue" stroke="midnightblue" points="607.6,-28.5948 613.558,-19.8339 603.437,-22.9671 607.6,-28.5948"/>
</g>
<!-- Node10&#45;&gt;Node12 -->
<g id="edge13" class="edge"><title>Node10&#45;&gt;Node12</title>
<path fill="none" stroke="midnightblue" d="M540.611,-56.324C529.35,-48.1066 512.213,-35.6017 498.791,-25.8069"/>
<polygon fill="midnightblue" stroke="midnightblue" points="500.747,-22.9014 490.606,-19.8339 496.62,-28.5559 500.747,-22.9014"/>
</g>
<!-- Node15 -->
<g id="node16" class="node"><title>Node15</title>
<g id="a_node16"><a xlink:href="spec_2hints_8h.html" target="_top" xlink:title="ODP compiler hints. ">
<polygon fill="white" stroke="black" points="40,-56.5 40,-75.5 153,-75.5 153,-56.5 40,-56.5"/>
<text text-anchor="middle" x="96.5" y="-63.5" font-family="Helvetica,sans-Serif" font-size="10.00">odp/api/spec/hints.h</text>
</a>
</g>
</g>
<!-- Node14&#45;&gt;Node15 -->
<g id="edge17" class="edge"><title>Node14&#45;&gt;Node15</title>
<path fill="none" stroke="midnightblue" d="M96.5,-117.975C96.5,-109.58 96.5,-96.4806 96.5,-85.6631"/>
<polygon fill="midnightblue" stroke="midnightblue" points="100,-85.5091 96.5,-75.5091 93.0001,-85.5091 100,-85.5091"/>
</g>
<!-- Node15&#45;&gt;Node7 -->
<g id="edge18" class="edge"><title>Node15&#45;&gt;Node7</title>
<path fill="none" stroke="midnightblue" d="M126.765,-56.4435C159.455,-47.2011 211.682,-32.4356 247.683,-22.2572"/>
<polygon fill="midnightblue" stroke="midnightblue" points="248.706,-25.6051 257.377,-19.5164 246.802,-18.8691 248.706,-25.6051"/>
</g>
<!-- Node15&#45;&gt;Node12 -->
<g id="edge19" class="edge"><title>Node15&#45;&gt;Node12</title>
<path fill="none" stroke="midnightblue" d="M153.277,-56.974C223.249,-47.0826 341.818,-30.3216 414.82,-20.0019"/>
<polygon fill="midnightblue" stroke="midnightblue" points="415.397,-23.4552 424.809,-18.5899 414.417,-16.5241 415.397,-23.4552"/>
</g>
<!-- Node16&#45;&gt;Node8 -->
<g id="edge21" class="edge"><title>Node16&#45;&gt;Node8</title>
<path fill="none" stroke="midnightblue" d="M233.88,-184.869C261.864,-173.571 311.091,-153.696 342.988,-140.818"/>
<polygon fill="midnightblue" stroke="midnightblue" points="344.326,-144.053 352.288,-137.064 341.705,-137.562 344.326,-144.053"/>
</g>
<!-- Node17 -->
<g id="node18" class="node"><title>Node17</title>
<polygon fill="white" stroke="#bfbfbf" points="158,-118 158,-137 261,-137 261,-118 158,-118"/>
<text text-anchor="middle" x="209.5" y="-125" font-family="Helvetica,sans-Serif" font-size="10.00">odp/api/abi/time.h</text>
</g>
<!-- Node16&#45;&gt;Node17 -->
<g id="edge22" class="edge"><title>Node16&#45;&gt;Node17</title>
<path fill="none" stroke="midnightblue" d="M212.095,-184.734C211.655,-175.183 210.936,-159.618 210.367,-147.283"/>
<polygon fill="midnightblue" stroke="midnightblue" points="213.856,-146.955 209.898,-137.127 206.863,-147.278 213.856,-146.955"/>
</g>
<!-- Node18 -->
<g id="node19" class="node"><title>Node18</title>
<g id="a_node19"><a xlink:href="spec_2time_8h.html" target="_top" xlink:title="ODP time. ">
<polygon fill="white" stroke="black" points="171,-56.5 171,-75.5 282,-75.5 282,-56.5 171,-56.5"/>
<text text-anchor="middle" x="226.5" y="-63.5" font-family="Helvetica,sans-Serif" font-size="10.00">odp/api/spec/time.h</text>
</a>
</g>
</g>
<!-- Node16&#45;&gt;Node18 -->
<g id="edge23" class="edge"><title>Node16&#45;&gt;Node18</title>
<path fill="none" stroke="midnightblue" d="M228.189,-184.847C241.968,-176.258 261.09,-161.687 269.5,-143 275.154,-130.436 274.628,-124.788 269.5,-112 264.82,-100.328 255.509,-89.9687 246.744,-82.1405"/>
<polygon fill="midnightblue" stroke="midnightblue" points="248.924,-79.4011 238.997,-75.698 244.448,-84.7832 248.924,-79.4011"/>
</g>
<!-- Node18&#45;&gt;Node7 -->
<g id="edge24" class="edge"><title>Node18&#45;&gt;Node7</title>
<path fill="none" stroke="midnightblue" d="M236.301,-56.324C245.318,-48.3414 258.906,-36.3128 269.818,-26.6529"/>
<polygon fill="midnightblue" stroke="midnightblue" points="272.353,-29.083 277.521,-19.8339 267.713,-23.8416 272.353,-29.083"/>
</g>
<!-- Node18&#45;&gt;Node12 -->
<g id="edge25" class="edge"><title>Node18&#45;&gt;Node12</title>
<path fill="none" stroke="midnightblue" d="M266.43,-56.4435C310.391,-47.0234 381.127,-31.8656 428.683,-21.6752"/>
<polygon fill="midnightblue" stroke="midnightblue" points="429.712,-25.0341 438.757,-19.5164 428.245,-18.1895 429.712,-25.0341"/>
</g>
<!-- Node20&#45;&gt;Node11 -->
<g id="edge29" class="edge"><title>Node20&#45;&gt;Node11</title>
<path fill="none" stroke="midnightblue" d="M738.682,-112.337C714.383,-90.5812 668.045,-49.0929 642.853,-26.5371"/>
<polygon fill="midnightblue" stroke="midnightblue" points="644.968,-23.7324 635.183,-19.6695 640.298,-28.9475 644.968,-23.7324"/>
</g>
</g>
</svg>
