<?xml version="1.0" encoding="UTF-8" standalone="no"?>
<!DOCTYPE svg PUBLIC "-//W3C//DTD SVG 1.1//EN"
 "http://www.w3.org/Graphics/SVG/1.1/DTD/svg11.dtd">
<!-- Generated by graphviz version 2.38.0 (20140413.2041)
 -->
<!-- Title: packet_flag_inlines.h Pages: 1 -->
<svg width="428pt" height="207pt"
 viewBox="0.00 0.00 428.00 207.00" xmlns="http://www.w3.org/2000/svg" xmlns:xlink="http://www.w3.org/1999/xlink">
<g id="graph0" class="graph" transform="scale(1 1) rotate(0) translate(4 203)">
<title>packet_flag_inlines.h</title>
<polygon fill="white" stroke="none" points="-4,4 -4,-203 424,-203 424,4 -4,4"/>
<!-- Node0 -->
<g id="node1" class="node"><title>Node0</title>
<polygon fill="#bfbfbf" stroke="black" points="127.5,-179.5 127.5,-198.5 243.5,-198.5 243.5,-179.5 127.5,-179.5"/>
<text text-anchor="middle" x="185.5" y="-186.5" font-family="Helvetica,sans-Serif" font-size="10.00">packet_flag_inlines.h</text>
</g>
<!-- Node1 -->
<g id="node2" class="node"><title>Node1</title>
<polygon fill="white" stroke="#bfbfbf" points="0,-118 0,-137 113,-137 113,-118 0,-118"/>
<text text-anchor="middle" x="56.5" y="-125" font-family="Helvetica,sans-Serif" font-size="10.00">odp/api/abi/packet.h</text>
</g>
<!-- Node0&#45;&gt;Node1 -->
<g id="edge1" class="edge"><title>Node0&#45;&gt;Node1</title>
<path fill="none" stroke="midnightblue" d="M167.017,-179.475C145.368,-169.49 109.287,-152.848 84.2675,-141.307"/>
<polygon fill="midnightblue" stroke="midnightblue" points="85.4948,-138.019 74.9483,-137.009 82.563,-144.376 85.4948,-138.019"/>
</g>
<!-- Node2 -->
<g id="node3" class="node"><title>Node2</title>
<g id="a_node3"><a xlink:href="packet__inline__types_8h.html" target="_top" xlink:title="ODP packet descriptor. ">
<polygon fill="white" stroke="black" points="131.5,-112.5 131.5,-142.5 239.5,-142.5 239.5,-112.5 131.5,-112.5"/>
<text text-anchor="start" x="139.5" y="-130.5" font-family="Helvetica,sans-Serif" font-size="10.00">odp/api/plat/packet</text>
<text text-anchor="middle" x="185.5" y="-119.5" font-family="Helvetica,sans-Serif" font-size="10.00">_inline_types.h</text>
</a>
</g>
</g>
<!-- Node0&#45;&gt;Node2 -->
<g id="edge2" class="edge"><title>Node0&#45;&gt;Node2</title>
<path fill="none" stroke="midnightblue" d="M185.5,-179.475C185.5,-172.471 185.5,-162.192 185.5,-152.696"/>
<polygon fill="midnightblue" stroke="midnightblue" points="189,-152.523 185.5,-142.523 182,-152.523 189,-152.523"/>
</g>
<!-- Node4 -->
<g id="node5" class="node"><title>Node4</title>
<g id="a_node5"><a xlink:href="hints_8h.html" target="_top" xlink:title="ODP compiler hints. ">
<polygon fill="white" stroke="black" points="258,-118 258,-137 345,-137 345,-118 258,-118"/>
<text text-anchor="middle" x="301.5" y="-125" font-family="Helvetica,sans-Serif" font-size="10.00">odp/api/hints.h</text>
</a>
</g>
</g>
<!-- Node0&#45;&gt;Node4 -->
<g id="edge4" class="edge"><title>Node0&#45;&gt;Node4</title>
<path fill="none" stroke="midnightblue" d="M202.12,-179.475C221.415,-169.578 253.459,-153.142 275.931,-141.615"/>
<polygon fill="midnightblue" stroke="midnightblue" points="277.61,-144.687 284.911,-137.009 274.416,-138.459 277.61,-144.687"/>
</g>
<!-- Node3 -->
<g id="node4" class="node"><title>Node3</title>
<polygon fill="white" stroke="#bfbfbf" points="159,-56.5 159,-75.5 212,-75.5 212,-56.5 159,-56.5"/>
<text text-anchor="middle" x="185.5" y="-63.5" font-family="Helvetica,sans-Serif" font-size="10.00">stdint.h</text>
</g>
<!-- Node2&#45;&gt;Node3 -->
<g id="edge3" class="edge"><title>Node2&#45;&gt;Node3</title>
<path fill="none" stroke="midnightblue" d="M185.5,-112.399C185.5,-104.466 185.5,-94.458 185.5,-85.8583"/>
<polygon fill="midnightblue" stroke="midnightblue" points="189,-85.6577 185.5,-75.6578 182,-85.6578 189,-85.6577"/>
</g>
<!-- Node5 -->
<g id="node6" class="node"><title>Node5</title>
<g id="a_node6"><a xlink:href="spec_2hints_8h.html" target="_top" xlink:title="ODP compiler hints. ">
<polygon fill="white" stroke="black" points="245,-56.5 245,-75.5 358,-75.5 358,-56.5 245,-56.5"/>
<text text-anchor="middle" x="301.5" y="-63.5" font-family="Helvetica,sans-Serif" font-size="10.00">odp/api/spec/hints.h</text>
</a>
</g>
</g>
<!-- Node4&#45;&gt;Node5 -->
<g id="edge5" class="edge"><title>Node4&#45;&gt;Node5</title>
<path fill="none" stroke="midnightblue" d="M301.5,-117.975C301.5,-109.58 301.5,-96.4806 301.5,-85.6631"/>
<polygon fill="midnightblue" stroke="midnightblue" points="305,-85.5091 301.5,-75.5091 298,-85.5091 305,-85.5091"/>
</g>
<!-- Node6 -->
<g id="node7" class="node"><title>Node6</title>
<polygon fill="white" stroke="#bfbfbf" points="180,-0.5 180,-19.5 295,-19.5 295,-0.5 180,-0.5"/>
<text text-anchor="middle" x="237.5" y="-7.5" font-family="Helvetica,sans-Serif" font-size="10.00">odp/visibility_begin.h</text>
</g>
<!-- Node5&#45;&gt;Node6 -->
<g id="edge6" class="edge"><title>Node5&#45;&gt;Node6</title>
<path fill="none" stroke="midnightblue" d="M291.217,-56.324C281.664,-48.2631 267.22,-36.0765 255.716,-26.3695"/>
<polygon fill="midnightblue" stroke="midnightblue" points="257.87,-23.6076 247.97,-19.8339 253.356,-28.9577 257.87,-23.6076"/>
</g>
<!-- Node7 -->
<g id="node8" class="node"><title>Node7</title>
<polygon fill="white" stroke="#bfbfbf" points="313,-0.5 313,-19.5 420,-19.5 420,-0.5 313,-0.5"/>
<text text-anchor="middle" x="366.5" y="-7.5" font-family="Helvetica,sans-Serif" font-size="10.00">odp/visibility_end.h</text>
</g>
<!-- Node5&#45;&gt;Node7 -->
<g id="edge7" class="edge"><title>Node5&#45;&gt;Node7</title>
<path fill="none" stroke="midnightblue" d="M311.943,-56.324C321.646,-48.2631 336.315,-36.0765 348,-26.3695"/>
<polygon fill="midnightblue" stroke="midnightblue" points="350.411,-28.9163 355.867,-19.8339 345.938,-23.532 350.411,-28.9163"/>
</g>
</g>
</svg>
