<?xml version="1.0" encoding="UTF-8" standalone="no"?>
<!DOCTYPE svg PUBLIC "-//W3C//DTD SVG 1.1//EN"
 "http://www.w3.org/Graphics/SVG/1.1/DTD/svg11.dtd">
<!-- Generated by graphviz version 2.38.0 (20140413.2041)
 -->
<!-- Title: queue.h Pages: 1 -->
<svg width="1328pt" height="554pt"
 viewBox="0.00 0.00 1328.00 554.00" xmlns="http://www.w3.org/2000/svg" xmlns:xlink="http://www.w3.org/1999/xlink">
<g id="graph0" class="graph" transform="scale(1 1) rotate(0) translate(4 550)">
<title>queue.h</title>
<polygon fill="white" stroke="none" points="-4,4 -4,-550 1324,-550 1324,4 -4,4"/>
<!-- Node0 -->
<g id="node1" class="node"><title>Node0</title>
<polygon fill="#bfbfbf" stroke="black" points="136,-526.5 136,-545.5 192,-545.5 192,-526.5 136,-526.5"/>
<text text-anchor="middle" x="164" y="-533.5" font-family="Helvetica,sans-Serif" font-size="10.00">queue.h</text>
</g>
<!-- Node1 -->
<g id="node2" class="node"><title>Node1</title>
<g id="a_node2"><a xlink:href="std__types_8h.html" target="_top" xlink:title="Standard C language types and definitions for ODP. ">
<polygon fill="white" stroke="black" points="308,-112.5 308,-131.5 418,-131.5 418,-112.5 308,-112.5"/>
<text text-anchor="middle" x="363" y="-119.5" font-family="Helvetica,sans-Serif" font-size="10.00">odp/api/std_types.h</text>
</a>
</g>
</g>
<!-- Node0&#45;&gt;Node1 -->
<g id="edge1" class="edge"><title>Node0&#45;&gt;Node1</title>
<path fill="none" stroke="midnightblue" d="M135.807,-529.569C88.9174,-518.719 0,-489.625 0,-425 0,-425 0,-425 0,-244 0,-181.961 193.236,-146.039 297.734,-131.148"/>
<polygon fill="midnightblue" stroke="midnightblue" points="298.45,-134.582 307.868,-129.73 297.48,-127.65 298.45,-134.582"/>
</g>
<!-- Node7 -->
<g id="node8" class="node"><title>Node7</title>
<polygon fill="white" stroke="#bfbfbf" points="808,-235.5 808,-254.5 916,-254.5 916,-235.5 808,-235.5"/>
<text text-anchor="middle" x="862" y="-242.5" font-family="Helvetica,sans-Serif" font-size="10.00">odp/api/abi/event.h</text>
</g>
<!-- Node0&#45;&gt;Node7 -->
<g id="edge7" class="edge"><title>Node0&#45;&gt;Node7</title>
<path fill="none" stroke="midnightblue" d="M192.048,-534.092C289.428,-530.19 607,-510.882 607,-425 607,-425 607,-425 607,-367 607,-320.843 745.093,-277.093 818.035,-257.203"/>
<polygon fill="midnightblue" stroke="midnightblue" points="819.126,-260.534 827.874,-254.557 817.308,-253.774 819.126,-260.534"/>
</g>
<!-- Node8 -->
<g id="node9" class="node"><title>Node8</title>
<polygon fill="white" stroke="#bfbfbf" points="66.5,-470.5 66.5,-489.5 177.5,-489.5 177.5,-470.5 66.5,-470.5"/>
<text text-anchor="middle" x="122" y="-477.5" font-family="Helvetica,sans-Serif" font-size="10.00">odp/api/abi/queue.h</text>
</g>
<!-- Node0&#45;&gt;Node8 -->
<g id="edge8" class="edge"><title>Node0&#45;&gt;Node8</title>
<path fill="none" stroke="midnightblue" d="M157.065,-526.083C151.071,-518.377 142.248,-507.033 134.952,-497.653"/>
<polygon fill="midnightblue" stroke="midnightblue" points="137.709,-495.496 128.806,-489.751 132.183,-499.793 137.709,-495.496"/>
</g>
<!-- Node9 -->
<g id="node10" class="node"><title>Node9</title>
<polygon fill="white" stroke="#bfbfbf" points="30,-235.5 30,-254.5 138,-254.5 138,-235.5 30,-235.5"/>
<text text-anchor="middle" x="84" y="-242.5" font-family="Helvetica,sans-Serif" font-size="10.00">odp/api/abi/buffer.h</text>
</g>
<!-- Node0&#45;&gt;Node9 -->
<g id="edge9" class="edge"><title>Node0&#45;&gt;Node9</title>
<path fill="none" stroke="midnightblue" d="M135.944,-530.181C111.738,-524.586 77.5281,-513.006 57,-490 36.9615,-467.543 38,-455.098 38,-425 38,-425 38,-425 38,-367 38,-327.868 59.2814,-285.99 72.894,-263.205"/>
<polygon fill="midnightblue" stroke="midnightblue" points="75.8879,-265.018 78.1741,-254.673 69.9355,-261.335 75.8879,-265.018"/>
</g>
<!-- Node10 -->
<g id="node11" class="node"><title>Node10</title>
<polygon fill="white" stroke="#bfbfbf" points="233.5,-235.5 233.5,-254.5 334.5,-254.5 334.5,-235.5 233.5,-235.5"/>
<text text-anchor="middle" x="284" y="-242.5" font-family="Helvetica,sans-Serif" font-size="10.00">odp/api/abi/pool.h</text>
</g>
<!-- Node0&#45;&gt;Node10 -->
<g id="edge10" class="edge"><title>Node0&#45;&gt;Node10</title>
<path fill="none" stroke="midnightblue" d="M168.406,-526.461C172.987,-517.474 180.277,-502.873 186,-490 223.031,-406.701 261.92,-304.889 277.237,-264.131"/>
<polygon fill="midnightblue" stroke="midnightblue" points="280.606,-265.114 280.835,-254.522 274.051,-262.659 280.606,-265.114"/>
</g>
<!-- Node11 -->
<g id="node12" class="node"><title>Node11</title>
<g id="a_node12"><a xlink:href="spec_2queue_8h.html" target="_top" xlink:title="ODP queue. ">
<polygon fill="white" stroke="black" points="751.5,-470.5 751.5,-489.5 870.5,-489.5 870.5,-470.5 751.5,-470.5"/>
<text text-anchor="middle" x="811" y="-477.5" font-family="Helvetica,sans-Serif" font-size="10.00">odp/api/spec/queue.h</text>
</a>
</g>
</g>
<!-- Node0&#45;&gt;Node11 -->
<g id="edge11" class="edge"><title>Node0&#45;&gt;Node11</title>
<path fill="none" stroke="midnightblue" d="M192.217,-532.645C287.664,-524.679 600.312,-498.584 741.136,-486.831"/>
<polygon fill="midnightblue" stroke="midnightblue" points="741.705,-490.296 751.379,-485.976 741.123,-483.32 741.705,-490.296"/>
</g>
<!-- Node2 -->
<g id="node3" class="node"><title>Node2</title>
<polygon fill="white" stroke="#bfbfbf" points="278,-56.5 278,-75.5 406,-75.5 406,-56.5 278,-56.5"/>
<text text-anchor="middle" x="342" y="-63.5" font-family="Helvetica,sans-Serif" font-size="10.00">odp/api/abi/std_types.h</text>
</g>
<!-- Node1&#45;&gt;Node2 -->
<g id="edge2" class="edge"><title>Node1&#45;&gt;Node2</title>
<path fill="none" stroke="midnightblue" d="M359.532,-112.083C356.688,-104.77 352.571,-94.1814 349.04,-85.1034"/>
<polygon fill="midnightblue" stroke="midnightblue" points="352.29,-83.8025 345.403,-75.7511 345.766,-86.3397 352.29,-83.8025"/>
</g>
<!-- Node3 -->
<g id="node4" class="node"><title>Node3</title>
<g id="a_node4"><a xlink:href="spec_2std__types_8h.html" target="_top" xlink:title="Standard C language types and definitions for ODP. ">
<polygon fill="white" stroke="black" points="424,-56.5 424,-75.5 560,-75.5 560,-56.5 424,-56.5"/>
<text text-anchor="middle" x="492" y="-63.5" font-family="Helvetica,sans-Serif" font-size="10.00">odp/api/spec/std_types.h</text>
</a>
</g>
</g>
<!-- Node1&#45;&gt;Node3 -->
<g id="edge3" class="edge"><title>Node1&#45;&gt;Node3</title>
<path fill="none" stroke="midnightblue" d="M383.44,-112.444C404.67,-103.557 438.099,-89.5632 462.255,-79.4514"/>
<polygon fill="midnightblue" stroke="midnightblue" points="463.782,-82.6064 471.655,-75.5164 461.079,-76.1493 463.782,-82.6064"/>
</g>
<!-- Node4 -->
<g id="node5" class="node"><title>Node4</title>
<polygon fill="white" stroke="#bfbfbf" points="1080.5,-0.5 1080.5,-19.5 1195.5,-19.5 1195.5,-0.5 1080.5,-0.5"/>
<text text-anchor="middle" x="1138" y="-7.5" font-family="Helvetica,sans-Serif" font-size="10.00">odp/visibility_begin.h</text>
</g>
<!-- Node3&#45;&gt;Node4 -->
<g id="edge4" class="edge"><title>Node3&#45;&gt;Node4</title>
<path fill="none" stroke="midnightblue" d="M560.217,-59.2977C684.509,-48.9079 946.434,-27.0133 1070.32,-16.6571"/>
<polygon fill="midnightblue" stroke="midnightblue" points="1070.77,-20.1324 1080.44,-15.8115 1070.18,-13.1568 1070.77,-20.1324"/>
</g>
<!-- Node5 -->
<g id="node6" class="node"><title>Node5</title>
<polygon fill="white" stroke="#bfbfbf" points="465.5,-0.5 465.5,-19.5 518.5,-19.5 518.5,-0.5 465.5,-0.5"/>
<text text-anchor="middle" x="492" y="-7.5" font-family="Helvetica,sans-Serif" font-size="10.00">stdint.h</text>
</g>
<!-- Node3&#45;&gt;Node5 -->
<g id="edge5" class="edge"><title>Node3&#45;&gt;Node5</title>
<path fill="none" stroke="midnightblue" d="M492,-56.083C492,-49.0059 492,-38.8611 492,-29.9865"/>
<polygon fill="midnightblue" stroke="midnightblue" points="495.5,-29.751 492,-19.7511 488.5,-29.7511 495.5,-29.751"/>
</g>
<!-- Node6 -->
<g id="node7" class="node"><title>Node6</title>
<polygon fill="white" stroke="#bfbfbf" points="618.5,-0.5 618.5,-19.5 725.5,-19.5 725.5,-0.5 618.5,-0.5"/>
<text text-anchor="middle" x="672" y="-7.5" font-family="Helvetica,sans-Serif" font-size="10.00">odp/visibility_end.h</text>
</g>
<!-- Node3&#45;&gt;Node6 -->
<g id="edge6" class="edge"><title>Node3&#45;&gt;Node6</title>
<path fill="none" stroke="midnightblue" d="M520.522,-56.4435C551.066,-47.2801 599.708,-32.6876 633.603,-22.5192"/>
<polygon fill="midnightblue" stroke="midnightblue" points="635.039,-25.7424 643.612,-19.5164 633.028,-19.0376 635.039,-25.7424"/>
</g>
<!-- Node11&#45;&gt;Node4 -->
<g id="edge12" class="edge"><title>Node11&#45;&gt;Node4</title>
<path fill="none" stroke="midnightblue" d="M870.635,-478.546C1005.04,-475.913 1320,-460.03 1320,-369 1320,-369 1320,-369 1320,-121 1320,-63.4235 1252.46,-35.1749 1199.67,-21.8889"/>
<polygon fill="midnightblue" stroke="midnightblue" points="1200.21,-18.4191 1189.67,-19.5027 1198.58,-25.228 1200.21,-18.4191"/>
</g>
<!-- Node11&#45;&gt;Node6 -->
<g id="edge50" class="edge"><title>Node11&#45;&gt;Node6</title>
<path fill="none" stroke="midnightblue" d="M751.281,-475.846C591.63,-465.795 167,-427.758 167,-307.5 167,-307.5 167,-307.5 167,-121 167,-81.985 191.165,-73.5702 226,-56 259.303,-39.2023 492.854,-22.3265 608.051,-14.9101"/>
<polygon fill="midnightblue" stroke="midnightblue" points="608.393,-18.3955 618.149,-14.2647 607.946,-11.4098 608.393,-18.3955"/>
</g>
<!-- Node12 -->
<g id="node13" class="node"><title>Node12</title>
<g id="a_node13"><a xlink:href="event_8h.html" target="_top" xlink:title="ODP event. ">
<polygon fill="white" stroke="black" points="765.5,-414.5 765.5,-433.5 856.5,-433.5 856.5,-414.5 765.5,-414.5"/>
<text text-anchor="middle" x="811" y="-421.5" font-family="Helvetica,sans-Serif" font-size="10.00">odp/api/event.h</text>
</a>
</g>
</g>
<!-- Node11&#45;&gt;Node12 -->
<g id="edge13" class="edge"><title>Node11&#45;&gt;Node12</title>
<path fill="none" stroke="midnightblue" d="M811,-470.083C811,-463.006 811,-452.861 811,-443.986"/>
<polygon fill="midnightblue" stroke="midnightblue" points="814.5,-443.751 811,-433.751 807.5,-443.751 814.5,-443.751"/>
</g>
<!-- Node21 -->
<g id="node22" class="node"><title>Node21</title>
<g id="a_node22"><a xlink:href="queue__types_8h.html" target="_top" xlink:title="ODP queue types. ">
<polygon fill="white" stroke="black" points="927,-291.5 927,-321.5 1037,-321.5 1037,-291.5 927,-291.5"/>
<text text-anchor="start" x="935" y="-309.5" font-family="Helvetica,sans-Serif" font-size="10.00">odp/api/spec/queue</text>
<text text-anchor="middle" x="982" y="-298.5" font-family="Helvetica,sans-Serif" font-size="10.00">_types.h</text>
</a>
</g>
</g>
<!-- Node11&#45;&gt;Node21 -->
<g id="edge34" class="edge"><title>Node11&#45;&gt;Node21</title>
<path fill="none" stroke="midnightblue" d="M822.113,-470.434C833.287,-461.662 850.841,-447.445 865,-434 901.604,-399.24 940.785,-355.344 963.244,-329.458"/>
<polygon fill="midnightblue" stroke="midnightblue" points="966.038,-331.577 969.924,-321.72 960.74,-327.003 966.038,-331.577"/>
</g>
<!-- Node12&#45;&gt;Node7 -->
<g id="edge14" class="edge"><title>Node12&#45;&gt;Node7</title>
<path fill="none" stroke="midnightblue" d="M813.46,-414.463C821.283,-387.311 845.717,-302.512 856.635,-264.618"/>
<polygon fill="midnightblue" stroke="midnightblue" points="860.039,-265.447 859.445,-254.868 853.313,-263.508 860.039,-265.447"/>
</g>
<!-- Node13 -->
<g id="node14" class="node"><title>Node13</title>
<g id="a_node14"><a xlink:href="spec_2event_8h.html" target="_top" xlink:title="ODP event. ">
<polygon fill="white" stroke="black" points="452,-358.5 452,-377.5 568,-377.5 568,-358.5 452,-358.5"/>
<text text-anchor="middle" x="510" y="-365.5" font-family="Helvetica,sans-Serif" font-size="10.00">odp/api/spec/event.h</text>
</a>
</g>
</g>
<!-- Node12&#45;&gt;Node13 -->
<g id="edge15" class="edge"><title>Node12&#45;&gt;Node13</title>
<path fill="none" stroke="midnightblue" d="M765.285,-414.799C712.302,-405.293 624.925,-389.618 567.412,-379.3"/>
<polygon fill="midnightblue" stroke="midnightblue" points="567.85,-375.823 557.39,-377.502 566.614,-382.713 567.85,-375.823"/>
</g>
<!-- Node13&#45;&gt;Node4 -->
<g id="edge16" class="edge"><title>Node13&#45;&gt;Node4</title>
<path fill="none" stroke="midnightblue" d="M568.112,-366.436C667.143,-364.518 874.545,-356.337 1046,-322 1154.05,-300.361 1282,-356.194 1282,-246 1282,-246 1282,-246 1282,-121 1282,-68.7569 1221.41,-38.0051 1178.83,-22.846"/>
<polygon fill="midnightblue" stroke="midnightblue" points="1179.84,-19.4928 1169.25,-19.5847 1177.59,-26.1197 1179.84,-19.4928"/>
</g>
<!-- Node13&#45;&gt;Node6 -->
<g id="edge33" class="edge"><title>Node13&#45;&gt;Node6</title>
<path fill="none" stroke="midnightblue" d="M451.876,-359.855C387.018,-348.786 283.412,-321.335 224,-255 202.35,-230.827 205,-216.951 205,-184.5 205,-184.5 205,-184.5 205,-121 205,-80.458 232.533,-73.7138 269,-56 298.761,-41.5438 502.13,-24.0528 608.086,-15.7796"/>
<polygon fill="midnightblue" stroke="midnightblue" points="608.637,-19.2474 618.336,-14.9843 608.096,-12.2684 608.637,-19.2474"/>
</g>
<!-- Node14 -->
<g id="node15" class="node"><title>Node14</title>
<g id="a_node15"><a xlink:href="packet_8h.html" target="_top" xlink:title="ODP packet descriptor. ">
<polygon fill="white" stroke="black" points="418,-297 418,-316 514,-316 514,-297 418,-297"/>
<text text-anchor="middle" x="466" y="-304" font-family="Helvetica,sans-Serif" font-size="10.00">odp/api/packet.h</text>
</a>
</g>
</g>
<!-- Node13&#45;&gt;Node14 -->
<g id="edge17" class="edge"><title>Node13&#45;&gt;Node14</title>
<path fill="none" stroke="midnightblue" d="M503.696,-358.475C497.096,-349.55 486.563,-335.307 478.307,-324.143"/>
<polygon fill="midnightblue" stroke="midnightblue" points="481.052,-321.968 472.292,-316.009 475.424,-326.131 481.052,-321.968"/>
</g>
<!-- Node14&#45;&gt;Node1 -->
<g id="edge18" class="edge"><title>Node14&#45;&gt;Node1</title>
<path fill="none" stroke="midnightblue" d="M440.017,-296.843C420.785,-289.025 395.65,-275.553 382,-255 358.912,-220.235 358.917,-168.986 360.942,-141.701"/>
<polygon fill="midnightblue" stroke="midnightblue" points="364.441,-141.871 361.872,-131.592 357.47,-141.23 364.441,-141.871"/>
</g>
<!-- Node14&#45;&gt;Node7 -->
<g id="edge19" class="edge"><title>Node14&#45;&gt;Node7</title>
<path fill="none" stroke="midnightblue" d="M514.161,-298.264C585.177,-287.593 718.123,-267.618 797.496,-255.692"/>
<polygon fill="midnightblue" stroke="midnightblue" points="798.483,-259.083 807.852,-254.136 797.443,-252.161 798.483,-259.083"/>
</g>
<!-- Node14&#45;&gt;Node9 -->
<g id="edge22" class="edge"><title>Node14&#45;&gt;Node9</title>
<path fill="none" stroke="midnightblue" d="M417.619,-297.964C349.219,-287.31 224.122,-267.825 148.073,-255.98"/>
<polygon fill="midnightblue" stroke="midnightblue" points="148.555,-252.513 138.136,-254.432 147.478,-259.43 148.555,-252.513"/>
</g>
<!-- Node14&#45;&gt;Node10 -->
<g id="edge23" class="edge"><title>Node14&#45;&gt;Node10</title>
<path fill="none" stroke="midnightblue" d="M439.924,-296.975C408.434,-286.68 355.302,-269.31 319.942,-257.75"/>
<polygon fill="midnightblue" stroke="midnightblue" points="320.62,-254.29 310.028,-254.509 318.445,-260.943 320.62,-254.29"/>
</g>
<!-- Node15 -->
<g id="node16" class="node"><title>Node15</title>
<polygon fill="white" stroke="#bfbfbf" points="391.5,-235.5 391.5,-254.5 518.5,-254.5 518.5,-235.5 391.5,-235.5"/>
<text text-anchor="middle" x="455" y="-242.5" font-family="Helvetica,sans-Serif" font-size="10.00">odp/api/abi/packet_io.h</text>
</g>
<!-- Node14&#45;&gt;Node15 -->
<g id="edge20" class="edge"><title>Node14&#45;&gt;Node15</title>
<path fill="none" stroke="midnightblue" d="M464.424,-296.975C462.872,-288.58 460.45,-275.481 458.45,-264.663"/>
<polygon fill="midnightblue" stroke="midnightblue" points="461.833,-263.706 456.573,-254.509 454.949,-264.979 461.833,-263.706"/>
</g>
<!-- Node16 -->
<g id="node17" class="node"><title>Node16</title>
<polygon fill="white" stroke="#bfbfbf" points="536.5,-235.5 536.5,-254.5 649.5,-254.5 649.5,-235.5 536.5,-235.5"/>
<text text-anchor="middle" x="593" y="-242.5" font-family="Helvetica,sans-Serif" font-size="10.00">odp/api/abi/packet.h</text>
</g>
<!-- Node14&#45;&gt;Node16 -->
<g id="edge21" class="edge"><title>Node14&#45;&gt;Node16</title>
<path fill="none" stroke="midnightblue" d="M484.196,-296.975C505.509,-286.99 541.031,-270.348 565.663,-258.807"/>
<polygon fill="midnightblue" stroke="midnightblue" points="567.267,-261.921 574.838,-254.509 564.297,-255.582 567.267,-261.921"/>
</g>
<!-- Node17 -->
<g id="node18" class="node"><title>Node17</title>
<g id="a_node18"><a xlink:href="spec_2packet_8h.html" target="_top" xlink:title="ODP packet descriptor. ">
<polygon fill="white" stroke="black" points="668,-235.5 668,-254.5 790,-254.5 790,-235.5 668,-235.5"/>
<text text-anchor="middle" x="729" y="-242.5" font-family="Helvetica,sans-Serif" font-size="10.00">odp/api/spec/packet.h</text>
</a>
</g>
</g>
<!-- Node14&#45;&gt;Node17 -->
<g id="edge24" class="edge"><title>Node14&#45;&gt;Node17</title>
<path fill="none" stroke="midnightblue" d="M503.681,-296.975C550.553,-286.371 630.606,-268.26 681.596,-256.724"/>
<polygon fill="midnightblue" stroke="midnightblue" points="682.407,-260.129 691.388,-254.509 680.863,-253.302 682.407,-260.129"/>
</g>
<!-- Node17&#45;&gt;Node4 -->
<g id="edge25" class="edge"><title>Node17&#45;&gt;Node4</title>
<path fill="none" stroke="midnightblue" d="M736.461,-235.249C750.155,-219.689 780.857,-187.054 813,-168 878.171,-129.368 901.382,-133.595 974,-112 1037.65,-93.0732 1071.09,-121.98 1119,-76 1131.45,-64.0516 1135.87,-44.4393 1137.37,-29.8778"/>
<polygon fill="midnightblue" stroke="midnightblue" points="1140.89,-29.7334 1138.05,-19.5255 1133.91,-29.2745 1140.89,-29.7334"/>
</g>
<!-- Node17&#45;&gt;Node6 -->
<g id="edge32" class="edge"><title>Node17&#45;&gt;Node6</title>
<path fill="none" stroke="midnightblue" d="M719.481,-235.359C694.958,-212.371 629.938,-146.623 607,-76 604.254,-67.5458 602.875,-63.8736 607,-56 614.279,-42.1082 628.009,-31.6523 640.983,-24.3328"/>
<polygon fill="midnightblue" stroke="midnightblue" points="642.928,-27.2662 650.192,-19.553 639.704,-21.0532 642.928,-27.2662"/>
</g>
<!-- Node18 -->
<g id="node19" class="node"><title>Node18</title>
<g id="a_node19"><a xlink:href="time_8h.html" target="_top" xlink:title="ODP time. ">
<polygon fill="white" stroke="black" points="469,-174 469,-193 555,-193 555,-174 469,-174"/>
<text text-anchor="middle" x="512" y="-181" font-family="Helvetica,sans-Serif" font-size="10.00">odp/api/time.h</text>
</a>
</g>
</g>
<!-- Node17&#45;&gt;Node18 -->
<g id="edge26" class="edge"><title>Node17&#45;&gt;Node18</title>
<path fill="none" stroke="midnightblue" d="M697.909,-235.475C659.719,-225.004 594.831,-207.212 552.701,-195.66"/>
<polygon fill="midnightblue" stroke="midnightblue" points="553.603,-192.278 543.033,-193.009 551.752,-199.029 553.603,-192.278"/>
</g>
<!-- Node18&#45;&gt;Node1 -->
<g id="edge27" class="edge"><title>Node18&#45;&gt;Node1</title>
<path fill="none" stroke="midnightblue" d="M490.652,-173.975C465.314,-163.857 422.862,-146.905 393.929,-135.351"/>
<polygon fill="midnightblue" stroke="midnightblue" points="394.893,-131.967 384.308,-131.509 392.297,-138.468 394.893,-131.967"/>
</g>
<!-- Node19 -->
<g id="node20" class="node"><title>Node19</title>
<polygon fill="white" stroke="#bfbfbf" points="456.5,-112.5 456.5,-131.5 559.5,-131.5 559.5,-112.5 456.5,-112.5"/>
<text text-anchor="middle" x="508" y="-119.5" font-family="Helvetica,sans-Serif" font-size="10.00">odp/api/abi/time.h</text>
</g>
<!-- Node18&#45;&gt;Node19 -->
<g id="edge28" class="edge"><title>Node18&#45;&gt;Node19</title>
<path fill="none" stroke="midnightblue" d="M511.427,-173.975C510.863,-165.58 509.982,-152.481 509.255,-141.663"/>
<polygon fill="midnightblue" stroke="midnightblue" points="512.735,-141.252 508.572,-131.509 505.751,-141.721 512.735,-141.252"/>
</g>
<!-- Node20 -->
<g id="node21" class="node"><title>Node20</title>
<g id="a_node21"><a xlink:href="spec_2time_8h.html" target="_top" xlink:title="ODP time. ">
<polygon fill="white" stroke="black" points="616.5,-56.5 616.5,-75.5 727.5,-75.5 727.5,-56.5 616.5,-56.5"/>
<text text-anchor="middle" x="672" y="-63.5" font-family="Helvetica,sans-Serif" font-size="10.00">odp/api/spec/time.h</text>
</a>
</g>
</g>
<!-- Node18&#45;&gt;Node20 -->
<g id="edge29" class="edge"><title>Node18&#45;&gt;Node20</title>
<path fill="none" stroke="midnightblue" d="M524.026,-173.819C551.245,-154.17 617.823,-106.109 651.613,-81.7169"/>
<polygon fill="midnightblue" stroke="midnightblue" points="653.775,-84.473 659.834,-75.782 649.678,-78.7973 653.775,-84.473"/>
</g>
<!-- Node20&#45;&gt;Node4 -->
<g id="edge30" class="edge"><title>Node20&#45;&gt;Node4</title>
<path fill="none" stroke="midnightblue" d="M727.748,-58.54C813.555,-48.5966 977.743,-29.5706 1070.27,-18.8487"/>
<polygon fill="midnightblue" stroke="midnightblue" points="1070.83,-22.3068 1080.36,-17.6789 1070.03,-15.3533 1070.83,-22.3068"/>
</g>
<!-- Node20&#45;&gt;Node6 -->
<g id="edge31" class="edge"><title>Node20&#45;&gt;Node6</title>
<path fill="none" stroke="midnightblue" d="M672,-56.083C672,-49.0059 672,-38.8611 672,-29.9865"/>
<polygon fill="midnightblue" stroke="midnightblue" points="675.5,-29.751 672,-19.7511 668.5,-29.7511 675.5,-29.751"/>
</g>
<!-- Node21&#45;&gt;Node4 -->
<g id="edge35" class="edge"><title>Node21&#45;&gt;Node4</title>
<path fill="none" stroke="midnightblue" d="M1037.24,-303.708C1114.11,-297.932 1244,-274.81 1244,-184.5 1244,-184.5 1244,-184.5 1244,-121 1244,-75.8148 1197.05,-42.0516 1165.64,-24.5209"/>
<polygon fill="midnightblue" stroke="midnightblue" points="1166.93,-21.2411 1156.46,-19.6068 1163.63,-27.4123 1166.93,-21.2411"/>
</g>
<!-- Node21&#45;&gt;Node6 -->
<g id="edge49" class="edge"><title>Node21&#45;&gt;Node6</title>
<path fill="none" stroke="midnightblue" d="M973.983,-291.251C964.331,-275.335 946.68,-249.862 925,-235 881.874,-205.436 853.194,-232.44 813,-199 757.51,-152.834 783.919,-109.983 736,-56 724.971,-43.5754 709.871,-32.7509 697.108,-24.8337"/>
<polygon fill="midnightblue" stroke="midnightblue" points="698.702,-21.7095 688.319,-19.6013 695.122,-27.7243 698.702,-21.7095"/>
</g>
<!-- Node22 -->
<g id="node23" class="node"><title>Node22</title>
<g id="a_node23"><a xlink:href="schedule__types_8h.html" target="_top" xlink:title="ODP schedule. ">
<polygon fill="white" stroke="black" points="1010,-235.5 1010,-254.5 1148,-254.5 1148,-235.5 1010,-235.5"/>
<text text-anchor="middle" x="1079" y="-242.5" font-family="Helvetica,sans-Serif" font-size="10.00">odp/api/schedule_types.h</text>
</a>
</g>
</g>
<!-- Node21&#45;&gt;Node22 -->
<g id="edge36" class="edge"><title>Node21&#45;&gt;Node22</title>
<path fill="none" stroke="midnightblue" d="M1004.99,-291.399C1020.39,-281.951 1040.59,-269.559 1056,-260.109"/>
<polygon fill="midnightblue" stroke="midnightblue" points="1058.19,-262.87 1064.89,-254.658 1054.53,-256.903 1058.19,-262.87"/>
</g>
<!-- Node27 -->
<g id="node28" class="node"><title>Node27</title>
<g id="a_node28"><a xlink:href="deprecated_8h.html" target="_top" xlink:title="Control deprecated API definitions. ">
<polygon fill="white" stroke="black" points="822.5,-174 822.5,-193 941.5,-193 941.5,-174 822.5,-174"/>
<text text-anchor="middle" x="882" y="-181" font-family="Helvetica,sans-Serif" font-size="10.00">odp/api/deprecated.h</text>
</a>
</g>
</g>
<!-- Node21&#45;&gt;Node27 -->
<g id="edge45" class="edge"><title>Node21&#45;&gt;Node27</title>
<path fill="none" stroke="midnightblue" d="M979.942,-291.238C977.148,-276.008 970.937,-251.8 958,-235 945.638,-218.947 926.658,-206.329 910.759,-197.721"/>
<polygon fill="midnightblue" stroke="midnightblue" points="912.32,-194.588 901.827,-193.12 909.114,-200.811 912.32,-194.588"/>
</g>
<!-- Node23 -->
<g id="node24" class="node"><title>Node23</title>
<polygon fill="white" stroke="#bfbfbf" points="1100.5,-168.5 1100.5,-198.5 1215.5,-198.5 1215.5,-168.5 1100.5,-168.5"/>
<text text-anchor="start" x="1108.5" y="-186.5" font-family="Helvetica,sans-Serif" font-size="10.00">odp/api/abi/schedule</text>
<text text-anchor="middle" x="1158" y="-175.5" font-family="Helvetica,sans-Serif" font-size="10.00">_types.h</text>
</g>
<!-- Node22&#45;&gt;Node23 -->
<g id="edge37" class="edge"><title>Node22&#45;&gt;Node23</title>
<path fill="none" stroke="midnightblue" d="M1090.32,-235.475C1100.92,-227.492 1117.17,-215.254 1131.09,-204.77"/>
<polygon fill="midnightblue" stroke="midnightblue" points="1133.5,-207.335 1139.38,-198.523 1129.29,-201.743 1133.5,-207.335"/>
</g>
<!-- Node24 -->
<g id="node25" class="node"><title>Node24</title>
<g id="a_node25"><a xlink:href="spec_2schedule__types_8h.html" target="_top" xlink:title="ODP schedule types. ">
<polygon fill="white" stroke="black" points="959.5,-168.5 959.5,-198.5 1082.5,-198.5 1082.5,-168.5 959.5,-168.5"/>
<text text-anchor="start" x="967.5" y="-186.5" font-family="Helvetica,sans-Serif" font-size="10.00">odp/api/spec/schedule</text>
<text text-anchor="middle" x="1021" y="-175.5" font-family="Helvetica,sans-Serif" font-size="10.00">_types.h</text>
</a>
</g>
</g>
<!-- Node22&#45;&gt;Node24 -->
<g id="edge38" class="edge"><title>Node22&#45;&gt;Node24</title>
<path fill="none" stroke="midnightblue" d="M1070.69,-235.475C1063.2,-227.793 1051.87,-216.172 1041.92,-205.964"/>
<polygon fill="midnightblue" stroke="midnightblue" points="1044.16,-203.241 1034.67,-198.523 1039.14,-208.127 1044.16,-203.241"/>
</g>
<!-- Node24&#45;&gt;Node4 -->
<g id="edge39" class="edge"><title>Node24&#45;&gt;Node4</title>
<path fill="none" stroke="midnightblue" d="M1051.95,-168.388C1084.31,-151.643 1132.97,-120.301 1152,-76 1158.54,-60.7866 1153.35,-42.2154 1147.53,-28.8252"/>
<polygon fill="midnightblue" stroke="midnightblue" points="1150.64,-27.2173 1143.14,-19.737 1144.34,-30.2636 1150.64,-27.2173"/>
</g>
<!-- Node24&#45;&gt;Node6 -->
<g id="edge44" class="edge"><title>Node24&#45;&gt;Node6</title>
<path fill="none" stroke="midnightblue" d="M993.677,-168.32C947.739,-144.571 852.001,-95.4744 770,-56 746.766,-44.8155 720.166,-32.6403 700.547,-23.7778"/>
<polygon fill="midnightblue" stroke="midnightblue" points="701.805,-20.5062 691.25,-19.5903 698.931,-26.8886 701.805,-20.5062"/>
</g>
<!-- Node25 -->
<g id="node26" class="node"><title>Node25</title>
<g id="a_node26"><a xlink:href="support_8h.html" target="_top" xlink:title="ODP support API &#45; platform specific header. ">
<polygon fill="white" stroke="black" points="983.5,-112.5 983.5,-131.5 1084.5,-131.5 1084.5,-112.5 983.5,-112.5"/>
<text text-anchor="middle" x="1034" y="-119.5" font-family="Helvetica,sans-Serif" font-size="10.00">odp/api/support.h</text>
</a>
</g>
</g>
<!-- Node24&#45;&gt;Node25 -->
<g id="edge40" class="edge"><title>Node24&#45;&gt;Node25</title>
<path fill="none" stroke="midnightblue" d="M1024.08,-168.399C1025.83,-160.377 1028.05,-150.233 1029.94,-141.569"/>
<polygon fill="midnightblue" stroke="midnightblue" points="1033.39,-142.174 1032.11,-131.658 1026.55,-140.68 1033.39,-142.174"/>
</g>
<!-- Node26 -->
<g id="node27" class="node"><title>Node26</title>
<g id="a_node27"><a xlink:href="spec_2support_8h.html" target="_top" xlink:title="ODP support API. ">
<polygon fill="white" stroke="black" points="984,-56.5 984,-75.5 1110,-75.5 1110,-56.5 984,-56.5"/>
<text text-anchor="middle" x="1047" y="-63.5" font-family="Helvetica,sans-Serif" font-size="10.00">odp/api/spec/support.h</text>
</a>
</g>
</g>
<!-- Node25&#45;&gt;Node26 -->
<g id="edge41" class="edge"><title>Node25&#45;&gt;Node26</title>
<path fill="none" stroke="midnightblue" d="M1036.15,-112.083C1037.87,-104.927 1040.35,-94.6353 1042.5,-85.6911"/>
<polygon fill="midnightblue" stroke="midnightblue" points="1045.96,-86.2925 1044.89,-75.7511 1039.15,-84.6541 1045.96,-86.2925"/>
</g>
<!-- Node26&#45;&gt;Node4 -->
<g id="edge42" class="edge"><title>Node26&#45;&gt;Node4</title>
<path fill="none" stroke="midnightblue" d="M1061.62,-56.324C1075.95,-47.8215 1098.01,-34.7288 1114.75,-24.7975"/>
<polygon fill="midnightblue" stroke="midnightblue" points="1116.6,-27.7677 1123.42,-19.6545 1113.03,-21.7478 1116.6,-27.7677"/>
</g>
<!-- Node26&#45;&gt;Node6 -->
<g id="edge43" class="edge"><title>Node26&#45;&gt;Node6</title>
<path fill="none" stroke="midnightblue" d="M987.58,-56.4435C918.882,-46.551 806.244,-30.3311 735.757,-20.1811"/>
<polygon fill="midnightblue" stroke="midnightblue" points="736.071,-16.6901 725.674,-18.729 735.073,-23.6187 736.071,-16.6901"/>
</g>
<!-- Node28 -->
<g id="node29" class="node"><title>Node28</title>
<g id="a_node29"><a xlink:href="spec_2deprecated_8h.html" target="_top" xlink:title="Macro for deprecated API definitions. ">
<polygon fill="white" stroke="black" points="822,-56.5 822,-75.5 966,-75.5 966,-56.5 822,-56.5"/>
<text text-anchor="middle" x="894" y="-63.5" font-family="Helvetica,sans-Serif" font-size="10.00">odp/api/spec/deprecated.h</text>
</a>
</g>
</g>
<!-- Node27&#45;&gt;Node28 -->
<g id="edge46" class="edge"><title>Node27&#45;&gt;Node28</title>
<path fill="none" stroke="midnightblue" d="M882.902,-173.819C884.83,-155.257 889.393,-111.339 892.029,-85.9734"/>
<polygon fill="midnightblue" stroke="midnightblue" points="895.535,-86.0902 893.088,-75.782 888.573,-85.3668 895.535,-86.0902"/>
</g>
<!-- Node28&#45;&gt;Node4 -->
<g id="edge47" class="edge"><title>Node28&#45;&gt;Node4</title>
<path fill="none" stroke="midnightblue" d="M932.663,-56.4435C975.138,-47.0431 1043.43,-31.9291 1089.47,-21.7393"/>
<polygon fill="midnightblue" stroke="midnightblue" points="1090.51,-25.0946 1099.52,-19.5164 1089,-18.26 1090.51,-25.0946"/>
</g>
<!-- Node28&#45;&gt;Node6 -->
<g id="edge48" class="edge"><title>Node28&#45;&gt;Node6</title>
<path fill="none" stroke="midnightblue" d="M858.823,-56.4435C820.421,-47.1024 758.824,-32.1194 716.945,-21.9326"/>
<polygon fill="midnightblue" stroke="midnightblue" points="717.556,-18.4792 707.012,-19.5164 715.901,-25.2809 717.556,-18.4792"/>
</g>
</g>
</svg>
