<?xml version="1.0" encoding="UTF-8" standalone="no"?>
<!DOCTYPE svg PUBLIC "-//W3C//DTD SVG 1.1//EN"
 "http://www.w3.org/Graphics/SVG/1.1/DTD/svg11.dtd">
<!-- Generated by graphviz version 2.38.0 (20140413.2041)
 -->
<!-- Title: queue_types.h Pages: 1 -->
<svg width="431pt" height="319pt"
 viewBox="0.00 0.00 431.45 319.00" xmlns="http://www.w3.org/2000/svg" xmlns:xlink="http://www.w3.org/1999/xlink">
<g id="graph0" class="graph" transform="scale(1 1) rotate(0) translate(4 315)">
<title>queue_types.h</title>
<polygon fill="white" stroke="none" points="-4,4 -4,-315 427.445,-315 427.445,4 -4,4"/>
<!-- Node0 -->
<g id="node1" class="node"><title>Node0</title>
<polygon fill="#bfbfbf" stroke="black" points="129.945,-291.5 129.945,-310.5 216.945,-310.5 216.945,-291.5 129.945,-291.5"/>
<text text-anchor="middle" x="173.445" y="-298.5" font-family="Helvetica,sans-Serif" font-size="10.00">queue_types.h</text>
</g>
<!-- Node1 -->
<g id="node2" class="node"><title>Node1</title>
<polygon fill="white" stroke="#bfbfbf" points="92.9455,-0.5 92.9455,-19.5 207.945,-19.5 207.945,-0.5 92.9455,-0.5"/>
<text text-anchor="middle" x="150.445" y="-7.5" font-family="Helvetica,sans-Serif" font-size="10.00">odp/visibility_begin.h</text>
</g>
<!-- Node0&#45;&gt;Node1 -->
<g id="edge1" class="edge"><title>Node0&#45;&gt;Node1</title>
<path fill="none" stroke="midnightblue" d="M129.649,-295.665C98.8977,-290.54 58.576,-279.363 31.4455,-255 5.97813,-232.13 0.445462,-218.729 0.445462,-184.5 0.445462,-184.5 0.445462,-184.5 0.445462,-121 0.445462,-90.9022 -1.33639,-77.7713 19.4455,-56 36.2261,-38.4203 60.1737,-27.7076 83.0142,-21.1797"/>
<polygon fill="midnightblue" stroke="midnightblue" points="83.9297,-24.558 92.7111,-18.6304 82.1498,-17.7881 83.9297,-24.558"/>
</g>
<!-- Node2 -->
<g id="node3" class="node"><title>Node2</title>
<g id="a_node3"><a xlink:href="schedule__types_8h.html" target="_top" xlink:title="ODP schedule. ">
<polygon fill="white" stroke="black" points="178.445,-235.5 178.445,-254.5 316.445,-254.5 316.445,-235.5 178.445,-235.5"/>
<text text-anchor="middle" x="247.445" y="-242.5" font-family="Helvetica,sans-Serif" font-size="10.00">odp/api/schedule_types.h</text>
</a>
</g>
</g>
<!-- Node0&#45;&gt;Node2 -->
<g id="edge2" class="edge"><title>Node0&#45;&gt;Node2</title>
<path fill="none" stroke="midnightblue" d="M185.335,-291.324C196.596,-283.107 213.732,-270.602 227.155,-260.807"/>
<polygon fill="midnightblue" stroke="midnightblue" points="229.325,-263.556 235.34,-254.834 225.199,-257.901 229.325,-263.556"/>
</g>
<!-- Node7 -->
<g id="node8" class="node"><title>Node7</title>
<polygon fill="white" stroke="#bfbfbf" points="282.945,-0.5 282.945,-19.5 389.945,-19.5 389.945,-0.5 282.945,-0.5"/>
<text text-anchor="middle" x="336.445" y="-7.5" font-family="Helvetica,sans-Serif" font-size="10.00">odp/visibility_end.h</text>
</g>
<!-- Node0&#45;&gt;Node7 -->
<g id="edge15" class="edge"><title>Node0&#45;&gt;Node7</title>
<path fill="none" stroke="midnightblue" d="M216.992,-298.907C288.619,-294.541 423.445,-274.385 423.445,-184.5 423.445,-184.5 423.445,-184.5 423.445,-121 423.445,-79.3996 384.693,-44.3306 358.916,-25.6049"/>
<polygon fill="midnightblue" stroke="midnightblue" points="360.627,-22.5314 350.424,-19.679 356.621,-28.2719 360.627,-22.5314"/>
</g>
<!-- Node8 -->
<g id="node9" class="node"><title>Node8</title>
<g id="a_node9"><a xlink:href="deprecated_8h.html" target="_top" xlink:title="Control deprecated API definitions. ">
<polygon fill="white" stroke="black" points="40.9455,-235.5 40.9455,-254.5 159.945,-254.5 159.945,-235.5 40.9455,-235.5"/>
<text text-anchor="middle" x="100.445" y="-242.5" font-family="Helvetica,sans-Serif" font-size="10.00">odp/api/deprecated.h</text>
</a>
</g>
</g>
<!-- Node0&#45;&gt;Node8 -->
<g id="edge11" class="edge"><title>Node0&#45;&gt;Node8</title>
<path fill="none" stroke="midnightblue" d="M161.717,-291.324C150.608,-283.107 133.703,-270.602 120.462,-260.807"/>
<polygon fill="midnightblue" stroke="midnightblue" points="122.509,-257.967 112.388,-254.834 118.346,-263.595 122.509,-257.967"/>
</g>
<!-- Node3 -->
<g id="node4" class="node"><title>Node3</title>
<polygon fill="white" stroke="#bfbfbf" points="279.945,-168.5 279.945,-198.5 394.945,-198.5 394.945,-168.5 279.945,-168.5"/>
<text text-anchor="start" x="287.945" y="-186.5" font-family="Helvetica,sans-Serif" font-size="10.00">odp/api/abi/schedule</text>
<text text-anchor="middle" x="337.445" y="-175.5" font-family="Helvetica,sans-Serif" font-size="10.00">_types.h</text>
</g>
<!-- Node2&#45;&gt;Node3 -->
<g id="edge3" class="edge"><title>Node2&#45;&gt;Node3</title>
<path fill="none" stroke="midnightblue" d="M260.34,-235.475C272.643,-227.341 291.627,-214.791 307.679,-204.179"/>
<polygon fill="midnightblue" stroke="midnightblue" points="309.823,-206.958 316.234,-198.523 305.962,-201.118 309.823,-206.958"/>
</g>
<!-- Node4 -->
<g id="node5" class="node"><title>Node4</title>
<g id="a_node5"><a xlink:href="spec_2schedule__types_8h.html" target="_top" xlink:title="ODP schedule types. ">
<polygon fill="white" stroke="black" points="138.945,-168.5 138.945,-198.5 261.945,-198.5 261.945,-168.5 138.945,-168.5"/>
<text text-anchor="start" x="146.945" y="-186.5" font-family="Helvetica,sans-Serif" font-size="10.00">odp/api/spec/schedule</text>
<text text-anchor="middle" x="200.445" y="-175.5" font-family="Helvetica,sans-Serif" font-size="10.00">_types.h</text>
</a>
</g>
</g>
<!-- Node2&#45;&gt;Node4 -->
<g id="edge4" class="edge"><title>Node2&#45;&gt;Node4</title>
<path fill="none" stroke="midnightblue" d="M240.712,-235.475C234.762,-227.944 225.822,-216.626 217.876,-206.566"/>
<polygon fill="midnightblue" stroke="midnightblue" points="220.468,-204.201 211.522,-198.523 214.975,-208.54 220.468,-204.201"/>
</g>
<!-- Node4&#45;&gt;Node1 -->
<g id="edge5" class="edge"><title>Node4&#45;&gt;Node1</title>
<path fill="none" stroke="midnightblue" d="M200.373,-168.302C199.807,-144.32 196.701,-94.6256 181.445,-56 177.402,-45.7619 170.655,-35.5601 164.487,-27.4649"/>
<polygon fill="midnightblue" stroke="midnightblue" points="167.166,-25.2112 158.175,-19.6056 161.708,-29.5942 167.166,-25.2112"/>
</g>
<!-- Node5 -->
<g id="node6" class="node"><title>Node5</title>
<g id="a_node6"><a xlink:href="support_8h.html" target="_top" xlink:title="ODP support API &#45; platform specific header. ">
<polygon fill="white" stroke="black" points="234.945,-112.5 234.945,-131.5 335.945,-131.5 335.945,-112.5 234.945,-112.5"/>
<text text-anchor="middle" x="285.445" y="-119.5" font-family="Helvetica,sans-Serif" font-size="10.00">odp/api/support.h</text>
</a>
</g>
</g>
<!-- Node4&#45;&gt;Node5 -->
<g id="edge6" class="edge"><title>Node4&#45;&gt;Node5</title>
<path fill="none" stroke="midnightblue" d="M220.589,-168.399C233.832,-159.129 251.123,-147.025 264.521,-137.647"/>
<polygon fill="midnightblue" stroke="midnightblue" points="266.892,-140.26 273.077,-131.658 262.878,-134.525 266.892,-140.26"/>
</g>
<!-- Node4&#45;&gt;Node7 -->
<g id="edge10" class="edge"><title>Node4&#45;&gt;Node7</title>
<path fill="none" stroke="midnightblue" d="M255.828,-168.484C290.746,-158.651 331.586,-144.992 344.445,-132 368.939,-107.255 372.739,-89.554 363.445,-56 360.654,-45.9205 354.936,-35.832 349.479,-27.7694"/>
<polygon fill="midnightblue" stroke="midnightblue" points="352.293,-25.6881 343.597,-19.6357 346.621,-29.7899 352.293,-25.6881"/>
</g>
<!-- Node6 -->
<g id="node7" class="node"><title>Node6</title>
<g id="a_node7"><a xlink:href="spec_2support_8h.html" target="_top" xlink:title="ODP support API. ">
<polygon fill="white" stroke="black" points="228.445,-56.5 228.445,-75.5 354.445,-75.5 354.445,-56.5 228.445,-56.5"/>
<text text-anchor="middle" x="291.445" y="-63.5" font-family="Helvetica,sans-Serif" font-size="10.00">odp/api/spec/support.h</text>
</a>
</g>
</g>
<!-- Node5&#45;&gt;Node6 -->
<g id="edge7" class="edge"><title>Node5&#45;&gt;Node6</title>
<path fill="none" stroke="midnightblue" d="M286.436,-112.083C287.231,-104.927 288.375,-94.6353 289.369,-85.6911"/>
<polygon fill="midnightblue" stroke="midnightblue" points="292.847,-86.0765 290.473,-75.7511 285.89,-85.3034 292.847,-86.0765"/>
</g>
<!-- Node6&#45;&gt;Node1 -->
<g id="edge8" class="edge"><title>Node6&#45;&gt;Node1</title>
<path fill="none" stroke="midnightblue" d="M269.104,-56.4435C245.693,-47.4776 208.71,-33.314 182.256,-23.1827"/>
<polygon fill="midnightblue" stroke="midnightblue" points="183.273,-19.8245 172.683,-19.5164 180.77,-26.3615 183.273,-19.8245"/>
</g>
<!-- Node6&#45;&gt;Node7 -->
<g id="edge9" class="edge"><title>Node6&#45;&gt;Node7</title>
<path fill="none" stroke="midnightblue" d="M298.876,-56.083C305.298,-48.3768 314.751,-37.0333 322.568,-27.6531"/>
<polygon fill="midnightblue" stroke="midnightblue" points="325.44,-29.674 329.153,-19.7511 320.062,-25.1927 325.44,-29.674"/>
</g>
<!-- Node9 -->
<g id="node10" class="node"><title>Node9</title>
<g id="a_node10"><a xlink:href="spec_2deprecated_8h.html" target="_top" xlink:title="Macro for deprecated API definitions. ">
<polygon fill="white" stroke="black" points="28.4455,-56.5 28.4455,-75.5 172.445,-75.5 172.445,-56.5 28.4455,-56.5"/>
<text text-anchor="middle" x="100.445" y="-63.5" font-family="Helvetica,sans-Serif" font-size="10.00">odp/api/spec/deprecated.h</text>
</a>
</g>
</g>
<!-- Node8&#45;&gt;Node9 -->
<g id="edge12" class="edge"><title>Node8&#45;&gt;Node9</title>
<path fill="none" stroke="midnightblue" d="M100.445,-235.463C100.445,-208.428 100.445,-124.239 100.445,-86.109"/>
<polygon fill="midnightblue" stroke="midnightblue" points="103.946,-85.8683 100.445,-75.8684 96.9456,-85.8684 103.946,-85.8683"/>
</g>
<!-- Node9&#45;&gt;Node1 -->
<g id="edge13" class="edge"><title>Node9&#45;&gt;Node1</title>
<path fill="none" stroke="midnightblue" d="M108.702,-56.083C115.91,-48.2982 126.555,-36.8015 135.291,-27.3665"/>
<polygon fill="midnightblue" stroke="midnightblue" points="138.117,-29.4666 142.343,-19.7511 132.98,-24.7108 138.117,-29.4666"/>
</g>
<!-- Node9&#45;&gt;Node7 -->
<g id="edge14" class="edge"><title>Node9&#45;&gt;Node7</title>
<path fill="none" stroke="midnightblue" d="M137.84,-56.4435C178.837,-47.0629 244.7,-31.9926 289.23,-21.8036"/>
<polygon fill="midnightblue" stroke="midnightblue" points="290.258,-25.1588 299.226,-19.5164 288.697,-18.3352 290.258,-25.1588"/>
</g>
</g>
</svg>
