<?xml version="1.0" encoding="UTF-8" standalone="no"?>
<!DOCTYPE svg PUBLIC "-//W3C//DTD SVG 1.1//EN"
 "http://www.w3.org/Graphics/SVG/1.1/DTD/svg11.dtd">
<!-- Generated by graphviz version 2.38.0 (20140413.2041)
 -->
<!-- Title: rwlock_recursive.h Pages: 1 -->
<svg width="301pt" height="151pt"
 viewBox="0.00 0.00 301.00 151.00" xmlns="http://www.w3.org/2000/svg" xmlns:xlink="http://www.w3.org/1999/xlink">
<g id="graph0" class="graph" transform="scale(1 1) rotate(0) translate(4 147)">
<title>rwlock_recursive.h</title>
<polygon fill="white" stroke="none" points="-4,4 -4,-147 297,-147 297,4 -4,4"/>
<!-- Node0 -->
<g id="node1" class="node"><title>Node0</title>
<polygon fill="#bfbfbf" stroke="black" points="60.5,-123.5 60.5,-142.5 164.5,-142.5 164.5,-123.5 60.5,-123.5"/>
<text text-anchor="middle" x="112.5" y="-130.5" font-family="Helvetica,sans-Serif" font-size="10.00">rwlock_recursive.h</text>
</g>
<!-- Node1 -->
<g id="node2" class="node"><title>Node1</title>
<polygon fill="white" stroke="#bfbfbf" points="0,-56.5 0,-86.5 101,-86.5 101,-56.5 0,-56.5"/>
<text text-anchor="start" x="8" y="-74.5" font-family="Helvetica,sans-Serif" font-size="10.00">odp/api/abi/rwlock</text>
<text text-anchor="middle" x="50.5" y="-63.5" font-family="Helvetica,sans-Serif" font-size="10.00">_recursive.h</text>
</g>
<!-- Node0&#45;&gt;Node1 -->
<g id="edge1" class="edge"><title>Node0&#45;&gt;Node1</title>
<path fill="none" stroke="midnightblue" d="M103.617,-123.475C95.5338,-115.718 83.2646,-103.943 72.5538,-93.6645"/>
<polygon fill="midnightblue" stroke="midnightblue" points="74.7507,-90.9218 65.1122,-86.523 69.9038,-95.9724 74.7507,-90.9218"/>
</g>
<!-- Node2 -->
<g id="node3" class="node"><title>Node2</title>
<g id="a_node3"><a xlink:href="spec_2rwlock__recursive_8h.html" target="_top" xlink:title="ODP recursive read/write lock. ">
<polygon fill="white" stroke="black" points="119.5,-56.5 119.5,-86.5 229.5,-86.5 229.5,-56.5 119.5,-56.5"/>
<text text-anchor="start" x="127.5" y="-74.5" font-family="Helvetica,sans-Serif" font-size="10.00">odp/api/spec/rwlock</text>
<text text-anchor="middle" x="174.5" y="-63.5" font-family="Helvetica,sans-Serif" font-size="10.00">_recursive.h</text>
</a>
</g>
</g>
<!-- Node0&#45;&gt;Node2 -->
<g id="edge2" class="edge"><title>Node0&#45;&gt;Node2</title>
<path fill="none" stroke="midnightblue" d="M121.383,-123.475C129.466,-115.718 141.735,-103.943 152.446,-93.6645"/>
<polygon fill="midnightblue" stroke="midnightblue" points="155.096,-95.9724 159.888,-86.523 150.249,-90.9218 155.096,-95.9724"/>
</g>
<!-- Node3 -->
<g id="node4" class="node"><title>Node3</title>
<polygon fill="white" stroke="#bfbfbf" points="53,-0.5 53,-19.5 168,-19.5 168,-0.5 53,-0.5"/>
<text text-anchor="middle" x="110.5" y="-7.5" font-family="Helvetica,sans-Serif" font-size="10.00">odp/visibility_begin.h</text>
</g>
<!-- Node2&#45;&gt;Node3 -->
<g id="edge3" class="edge"><title>Node2&#45;&gt;Node3</title>
<path fill="none" stroke="midnightblue" d="M159.333,-56.3993C149.745,-47.4859 137.339,-35.9523 127.431,-26.7408"/>
<polygon fill="midnightblue" stroke="midnightblue" points="129.52,-23.9033 119.813,-19.6578 124.753,-29.0301 129.52,-23.9033"/>
</g>
<!-- Node4 -->
<g id="node5" class="node"><title>Node4</title>
<polygon fill="white" stroke="#bfbfbf" points="186,-0.5 186,-19.5 293,-19.5 293,-0.5 186,-0.5"/>
<text text-anchor="middle" x="239.5" y="-7.5" font-family="Helvetica,sans-Serif" font-size="10.00">odp/visibility_end.h</text>
</g>
<!-- Node2&#45;&gt;Node4 -->
<g id="edge4" class="edge"><title>Node2&#45;&gt;Node4</title>
<path fill="none" stroke="midnightblue" d="M189.904,-56.3993C199.739,-47.3967 212.493,-35.7214 222.605,-26.4652"/>
<polygon fill="midnightblue" stroke="midnightblue" points="225.029,-28.9916 230.042,-19.6578 220.302,-23.8282 225.029,-28.9916"/>
</g>
</g>
</svg>
