<?xml version="1.0" encoding="UTF-8" standalone="no"?>
<!DOCTYPE svg PUBLIC "-//W3C//DTD SVG 1.1//EN"
 "http://www.w3.org/Graphics/SVG/1.1/DTD/svg11.dtd">
<!-- Generated by graphviz version 2.38.0 (20140413.2041)
 -->
<!-- Title: schedule_types.h Pages: 1 -->
<svg width="283pt" height="532pt"
 viewBox="0.00 0.00 282.50 532.00" xmlns="http://www.w3.org/2000/svg" xmlns:xlink="http://www.w3.org/1999/xlink">
<g id="graph0" class="graph" transform="scale(1 1) rotate(0) translate(4 528)">
<title>schedule_types.h</title>
<polygon fill="white" stroke="none" points="-4,4 -4,-528 278.5,-528 278.5,4 -4,4"/>
<!-- Node7 -->
<g id="node1" class="node"><title>Node7</title>
<polygon fill="#bfbfbf" stroke="black" points="165,-504.5 165,-523.5 265,-523.5 265,-504.5 165,-504.5"/>
<text text-anchor="middle" x="215" y="-511.5" font-family="Helvetica,sans-Serif" font-size="10.00">schedule_types.h</text>
</g>
<!-- Node8 -->
<g id="node2" class="node"><title>Node8</title>
<g id="a_node2"><a xlink:href="queue__types_8h.html" target="_top" xlink:title="ODP queue types. ">
<polygon fill="white" stroke="black" points="128.5,-448.5 128.5,-467.5 215.5,-467.5 215.5,-448.5 128.5,-448.5"/>
<text text-anchor="middle" x="172" y="-455.5" font-family="Helvetica,sans-Serif" font-size="10.00">queue_types.h</text>
</a>
</g>
</g>
<!-- Node7&#45;&gt;Node8 -->
<g id="edge1" class="edge"><title>Node7&#45;&gt;Node8</title>
<path fill="none" stroke="midnightblue" d="M201.578,-496.144C194.086,-486.736 185.063,-475.405 178.968,-467.751"/>
<polygon fill="midnightblue" stroke="midnightblue" points="198.932,-498.44 207.899,-504.083 204.408,-494.08 198.932,-498.44"/>
</g>
<!-- Node20 -->
<g id="node14" class="node"><title>Node20</title>
<g id="a_node14"><a xlink:href="spec_2schedule_8h.html" target="_top" xlink:title="ODP schedule. ">
<polygon fill="white" stroke="black" points="181,-280.5 181,-299.5 249,-299.5 249,-280.5 181,-280.5"/>
<text text-anchor="middle" x="215" y="-287.5" font-family="Helvetica,sans-Serif" font-size="10.00">schedule.h</text>
</a>
</g>
</g>
<!-- Node7&#45;&gt;Node20 -->
<g id="edge19" class="edge"><title>Node7&#45;&gt;Node20</title>
<path fill="none" stroke="midnightblue" d="M220.681,-494.812C226.62,-474.766 235.549,-441.452 239,-412 243.985,-369.459 226.533,-319.536 218.658,-299.73"/>
<polygon fill="midnightblue" stroke="midnightblue" points="217.303,-493.889 217.742,-504.475 224,-495.926 217.303,-493.889"/>
</g>
<!-- Node9 -->
<g id="node3" class="node"><title>Node9</title>
<g id="a_node3"><a xlink:href="spec_2queue_8h.html" target="_top" xlink:title="ODP queue. ">
<polygon fill="white" stroke="black" points="39,-392.5 39,-411.5 95,-411.5 95,-392.5 39,-392.5"/>
<text text-anchor="middle" x="67" y="-399.5" font-family="Helvetica,sans-Serif" font-size="10.00">queue.h</text>
</a>
</g>
</g>
<!-- Node8&#45;&gt;Node9 -->
<g id="edge2" class="edge"><title>Node8&#45;&gt;Node9</title>
<path fill="none" stroke="midnightblue" d="M146.19,-443.726C126.747,-433.727 100.652,-420.307 83.8282,-411.655"/>
<polygon fill="midnightblue" stroke="midnightblue" points="144.636,-446.863 155.13,-448.324 147.838,-440.638 144.636,-446.863"/>
</g>
<!-- Node22 -->
<g id="node16" class="node"><title>Node22</title>
<g id="a_node16"><a xlink:href="queue__inline__types_8h_source.html" target="_top" xlink:title="queue_inline_types.h">
<polygon fill="white" stroke="black" points="113.5,-392.5 113.5,-411.5 230.5,-411.5 230.5,-392.5 113.5,-392.5"/>
<text text-anchor="middle" x="172" y="-399.5" font-family="Helvetica,sans-Serif" font-size="10.00">queue_inline_types.h</text>
</a>
</g>
</g>
<!-- Node8&#45;&gt;Node22 -->
<g id="edge17" class="edge"><title>Node8&#45;&gt;Node22</title>
<path fill="none" stroke="midnightblue" d="M172,-437.805C172,-428.91 172,-418.78 172,-411.751"/>
<polygon fill="midnightblue" stroke="midnightblue" points="168.5,-438.083 172,-448.083 175.5,-438.083 168.5,-438.083"/>
</g>
<!-- Node10 -->
<g id="node4" class="node"><title>Node10</title>
<g id="a_node4"><a xlink:href="queue_8h.html" target="_top" xlink:title="ODP queue. ">
<polygon fill="white" stroke="black" points="45,-336.5 45,-355.5 101,-355.5 101,-336.5 45,-336.5"/>
<text text-anchor="middle" x="73" y="-343.5" font-family="Helvetica,sans-Serif" font-size="10.00">queue.h</text>
</a>
</g>
</g>
<!-- Node9&#45;&gt;Node10 -->
<g id="edge3" class="edge"><title>Node9&#45;&gt;Node10</title>
<path fill="none" stroke="midnightblue" d="M69.0999,-382.101C70.096,-373.136 71.238,-362.858 72.0277,-355.751"/>
<polygon fill="midnightblue" stroke="midnightblue" points="65.6166,-381.758 67.9908,-392.083 72.5738,-382.531 65.6166,-381.758"/>
</g>
<!-- Node11 -->
<g id="node5" class="node"><title>Node11</title>
<g id="a_node5"><a xlink:href="crypto_8h.html" target="_top" xlink:title="ODP crypto. ">
<polygon fill="white" stroke="black" points="0,-224.5 0,-243.5 56,-243.5 56,-224.5 0,-224.5"/>
<text text-anchor="middle" x="28" y="-231.5" font-family="Helvetica,sans-Serif" font-size="10.00">crypto.h</text>
</a>
</g>
</g>
<!-- Node10&#45;&gt;Node11 -->
<g id="edge4" class="edge"><title>Node10&#45;&gt;Node11</title>
<path fill="none" stroke="midnightblue" d="M65.6356,-326.998C55.8169,-302.997 38.8279,-261.468 31.5147,-243.591"/>
<polygon fill="midnightblue" stroke="midnightblue" points="62.4431,-328.438 69.4689,-336.368 68.922,-325.788 62.4431,-328.438"/>
</g>
<!-- Node14 -->
<g id="node8" class="node"><title>Node14</title>
<g id="a_node8"><a xlink:href="spec_2packet__io_8h.html" target="_top" xlink:title="ODP Packet IO. ">
<polygon fill="white" stroke="black" points="82.5,-280.5 82.5,-299.5 153.5,-299.5 153.5,-280.5 82.5,-280.5"/>
<text text-anchor="middle" x="118" y="-287.5" font-family="Helvetica,sans-Serif" font-size="10.00">packet_io.h</text>
</a>
</g>
</g>
<!-- Node10&#45;&gt;Node14 -->
<g id="edge7" class="edge"><title>Node10&#45;&gt;Node14</title>
<path fill="none" stroke="midnightblue" d="M87.0467,-328.144C94.8869,-318.736 104.329,-307.405 110.707,-299.751"/>
<polygon fill="midnightblue" stroke="midnightblue" points="84.1439,-326.16 80.4308,-336.083 89.5215,-330.641 84.1439,-326.16"/>
</g>
<!-- Node10&#45;&gt;Node20 -->
<g id="edge15" class="edge"><title>Node10&#45;&gt;Node20</title>
<path fill="none" stroke="midnightblue" d="M105.155,-332.772C131.828,-322.629 169.069,-308.467 192.605,-299.516"/>
<polygon fill="midnightblue" stroke="midnightblue" points="103.603,-329.618 95.5003,-336.444 106.091,-336.16 103.603,-329.618"/>
</g>
<!-- Node12 -->
<g id="node6" class="node"><title>Node12</title>
<g id="a_node6"><a xlink:href="spec_2ipsec_8h.html" target="_top" xlink:title="ODP IPSEC API. ">
<polygon fill="white" stroke="black" points="34,-56.5 34,-75.5 84,-75.5 84,-56.5 34,-56.5"/>
<text text-anchor="middle" x="59" y="-63.5" font-family="Helvetica,sans-Serif" font-size="10.00">ipsec.h</text>
</a>
</g>
</g>
<!-- Node11&#45;&gt;Node12 -->
<g id="edge5" class="edge"><title>Node11&#45;&gt;Node12</title>
<path fill="none" stroke="midnightblue" d="M29.6808,-214.272C32.0445,-190.348 36.982,-147.755 45,-112 47.9003,-99.0666 52.7362,-84.4817 55.8966,-75.5147"/>
<polygon fill="midnightblue" stroke="midnightblue" points="26.1795,-214.121 28.7249,-224.406 33.1486,-214.779 26.1795,-214.121"/>
</g>
<!-- Node13 -->
<g id="node7" class="node"><title>Node13</title>
<g id="a_node7"><a xlink:href="ipsec_8h.html" target="_top" xlink:title="ODP IPSEC API &#45; platform specific header. ">
<polygon fill="white" stroke="black" points="34,-0.5 34,-19.5 84,-19.5 84,-0.5 34,-0.5"/>
<text text-anchor="middle" x="59" y="-7.5" font-family="Helvetica,sans-Serif" font-size="10.00">ipsec.h</text>
</a>
</g>
</g>
<!-- Node12&#45;&gt;Node13 -->
<g id="edge6" class="edge"><title>Node12&#45;&gt;Node13</title>
<path fill="none" stroke="midnightblue" d="M59,-45.8045C59,-36.9102 59,-26.7798 59,-19.7511"/>
<polygon fill="midnightblue" stroke="midnightblue" points="55.5001,-46.083 59,-56.083 62.5001,-46.083 55.5001,-46.083"/>
</g>
<!-- Node15 -->
<g id="node9" class="node"><title>Node15</title>
<g id="a_node9"><a xlink:href="packet__io_8h.html" target="_top" xlink:title="ODP Packet IO. ">
<polygon fill="white" stroke="black" points="87.5,-224.5 87.5,-243.5 158.5,-243.5 158.5,-224.5 87.5,-224.5"/>
<text text-anchor="middle" x="123" y="-231.5" font-family="Helvetica,sans-Serif" font-size="10.00">packet_io.h</text>
</a>
</g>
</g>
<!-- Node14&#45;&gt;Node15 -->
<g id="edge8" class="edge"><title>Node14&#45;&gt;Node15</title>
<path fill="none" stroke="midnightblue" d="M119.75,-270.101C120.58,-261.136 121.532,-250.858 122.19,-243.751"/>
<polygon fill="midnightblue" stroke="midnightblue" points="116.263,-269.803 118.826,-280.083 123.233,-270.448 116.263,-269.803"/>
</g>
<!-- Node15&#45;&gt;Node12 -->
<g id="edge12" class="edge"><title>Node15&#45;&gt;Node12</title>
<path fill="none" stroke="midnightblue" d="M103,-217.98C93.9178,-210.072 83.9064,-199.611 78,-188 58.5247,-149.715 57.9541,-96.5115 58.5799,-75.7698"/>
<polygon fill="midnightblue" stroke="midnightblue" points="100.982,-220.852 110.935,-224.484 105.42,-215.438 100.982,-220.852"/>
</g>
<!-- Node16 -->
<g id="node10" class="node"><title>Node16</title>
<g id="a_node10"><a xlink:href="spec_2classification_8h.html" target="_top" xlink:title="ODP classification descriptor. ">
<polygon fill="white" stroke="black" points="87,-168.5 87,-187.5 173,-187.5 173,-168.5 87,-168.5"/>
<text text-anchor="middle" x="130" y="-175.5" font-family="Helvetica,sans-Serif" font-size="10.00">classification.h</text>
</a>
</g>
</g>
<!-- Node15&#45;&gt;Node16 -->
<g id="edge9" class="edge"><title>Node15&#45;&gt;Node16</title>
<path fill="none" stroke="midnightblue" d="M125.45,-214.101C126.612,-205.136 127.944,-194.858 128.866,-187.751"/>
<polygon fill="midnightblue" stroke="midnightblue" points="121.971,-213.716 124.156,-224.083 128.912,-214.616 121.971,-213.716"/>
</g>
<!-- Node18 -->
<g id="node12" class="node"><title>Node18</title>
<g id="a_node12"><a xlink:href="spec_2traffic__mngr_8h.html" target="_top" xlink:title="Copyright (c) 2015&#45;2018, Linaro Limited All rights reserved. ">
<polygon fill="white" stroke="black" points="191.5,-168.5 191.5,-187.5 274.5,-187.5 274.5,-168.5 191.5,-168.5"/>
<text text-anchor="middle" x="233" y="-175.5" font-family="Helvetica,sans-Serif" font-size="10.00">traffic_mngr.h</text>
</a>
</g>
</g>
<!-- Node15&#45;&gt;Node18 -->
<g id="edge13" class="edge"><title>Node15&#45;&gt;Node18</title>
<path fill="none" stroke="midnightblue" d="M149.762,-219.862C170.159,-209.849 197.666,-196.346 215.37,-187.655"/>
<polygon fill="midnightblue" stroke="midnightblue" points="148.108,-216.775 140.673,-224.324 151.192,-223.059 148.108,-216.775"/>
</g>
<!-- Node17 -->
<g id="node11" class="node"><title>Node17</title>
<g id="a_node11"><a xlink:href="classification_8h.html" target="_top" xlink:title="ODP classification descriptor. ">
<polygon fill="white" stroke="black" points="87,-112.5 87,-131.5 173,-131.5 173,-112.5 87,-112.5"/>
<text text-anchor="middle" x="130" y="-119.5" font-family="Helvetica,sans-Serif" font-size="10.00">classification.h</text>
</a>
</g>
</g>
<!-- Node16&#45;&gt;Node17 -->
<g id="edge10" class="edge"><title>Node16&#45;&gt;Node17</title>
<path fill="none" stroke="midnightblue" d="M130,-157.805C130,-148.91 130,-138.78 130,-131.751"/>
<polygon fill="midnightblue" stroke="midnightblue" points="126.5,-158.083 130,-168.083 133.5,-158.083 126.5,-158.083"/>
</g>
<!-- Node17&#45;&gt;Node12 -->
<g id="edge11" class="edge"><title>Node17&#45;&gt;Node12</title>
<path fill="none" stroke="midnightblue" d="M110.41,-106.101C97.6324,-96.3824 81.3873,-84.0269 70.6149,-75.8339"/>
<polygon fill="midnightblue" stroke="midnightblue" points="108.514,-109.056 118.593,-112.324 112.752,-103.484 108.514,-109.056"/>
</g>
<!-- Node19 -->
<g id="node13" class="node"><title>Node19</title>
<g id="a_node13"><a xlink:href="traffic__mngr_8h.html" target="_top" xlink:title="ODP Traffic manager. ">
<polygon fill="white" stroke="black" points="191.5,-112.5 191.5,-131.5 274.5,-131.5 274.5,-112.5 191.5,-112.5"/>
<text text-anchor="middle" x="233" y="-119.5" font-family="Helvetica,sans-Serif" font-size="10.00">traffic_mngr.h</text>
</a>
</g>
</g>
<!-- Node18&#45;&gt;Node19 -->
<g id="edge14" class="edge"><title>Node18&#45;&gt;Node19</title>
<path fill="none" stroke="midnightblue" d="M233,-157.805C233,-148.91 233,-138.78 233,-131.751"/>
<polygon fill="midnightblue" stroke="midnightblue" points="229.5,-158.083 233,-168.083 236.5,-158.083 229.5,-158.083"/>
</g>
<!-- Node21 -->
<g id="node15" class="node"><title>Node21</title>
<g id="a_node15"><a xlink:href="schedule_8h.html" target="_top" xlink:title="ODP schedule. ">
<polygon fill="white" stroke="black" points="181,-224.5 181,-243.5 249,-243.5 249,-224.5 181,-224.5"/>
<text text-anchor="middle" x="215" y="-231.5" font-family="Helvetica,sans-Serif" font-size="10.00">schedule.h</text>
</a>
</g>
</g>
<!-- Node20&#45;&gt;Node21 -->
<g id="edge16" class="edge"><title>Node20&#45;&gt;Node21</title>
<path fill="none" stroke="midnightblue" d="M215,-269.805C215,-260.91 215,-250.78 215,-243.751"/>
<polygon fill="midnightblue" stroke="midnightblue" points="211.5,-270.083 215,-280.083 218.5,-270.083 211.5,-270.083"/>
</g>
<!-- Node23 -->
<g id="node17" class="node"><title>Node23</title>
<g id="a_node17"><a xlink:href="queue__inlines_8h_source.html" target="_top" xlink:title="queue_inlines.h">
<polygon fill="white" stroke="black" points="126.5,-336.5 126.5,-355.5 217.5,-355.5 217.5,-336.5 126.5,-336.5"/>
<text text-anchor="middle" x="172" y="-343.5" font-family="Helvetica,sans-Serif" font-size="10.00">queue_inlines.h</text>
</a>
</g>
</g>
<!-- Node22&#45;&gt;Node23 -->
<g id="edge18" class="edge"><title>Node22&#45;&gt;Node23</title>
<path fill="none" stroke="midnightblue" d="M172,-381.805C172,-372.91 172,-362.78 172,-355.751"/>
<polygon fill="midnightblue" stroke="midnightblue" points="168.5,-382.083 172,-392.083 175.5,-382.083 168.5,-382.083"/>
</g>
</g>
</svg>
