<?xml version="1.0" encoding="UTF-8" standalone="no"?>
<!DOCTYPE svg PUBLIC "-//W3C//DTD SVG 1.1//EN"
 "http://www.w3.org/Graphics/SVG/1.1/DTD/svg11.dtd">
<!-- Generated by graphviz version 2.38.0 (20140413.2041)
 -->
<!-- Title: schedule_types.h Pages: 1 -->
<svg width="333pt" height="263pt"
 viewBox="0.00 0.00 333.00 263.00" xmlns="http://www.w3.org/2000/svg" xmlns:xlink="http://www.w3.org/1999/xlink">
<g id="graph0" class="graph" transform="scale(1 1) rotate(0) translate(4 259)">
<title>schedule_types.h</title>
<polygon fill="white" stroke="none" points="-4,4 -4,-259 329,-259 329,4 -4,4"/>
<!-- Node0 -->
<g id="node1" class="node"><title>Node0</title>
<polygon fill="#bfbfbf" stroke="black" points="75.5,-235.5 75.5,-254.5 175.5,-254.5 175.5,-235.5 75.5,-235.5"/>
<text text-anchor="middle" x="125.5" y="-242.5" font-family="Helvetica,sans-Serif" font-size="10.00">schedule_types.h</text>
</g>
<!-- Node1 -->
<g id="node2" class="node"><title>Node1</title>
<polygon fill="white" stroke="#bfbfbf" points="0,-168.5 0,-198.5 115,-198.5 115,-168.5 0,-168.5"/>
<text text-anchor="start" x="8" y="-186.5" font-family="Helvetica,sans-Serif" font-size="10.00">odp/api/abi/schedule</text>
<text text-anchor="middle" x="57.5" y="-175.5" font-family="Helvetica,sans-Serif" font-size="10.00">_types.h</text>
</g>
<!-- Node0&#45;&gt;Node1 -->
<g id="edge1" class="edge"><title>Node0&#45;&gt;Node1</title>
<path fill="none" stroke="midnightblue" d="M115.757,-235.475C106.806,-227.643 93.1737,-215.714 81.3463,-205.366"/>
<polygon fill="midnightblue" stroke="midnightblue" points="83.3568,-202.474 73.5263,-198.523 78.7473,-207.742 83.3568,-202.474"/>
</g>
<!-- Node2 -->
<g id="node3" class="node"><title>Node2</title>
<g id="a_node3"><a xlink:href="spec_2schedule__types_8h.html" target="_top" xlink:title="ODP schedule types. ">
<polygon fill="white" stroke="black" points="133,-168.5 133,-198.5 256,-198.5 256,-168.5 133,-168.5"/>
<text text-anchor="start" x="141" y="-186.5" font-family="Helvetica,sans-Serif" font-size="10.00">odp/api/spec/schedule</text>
<text text-anchor="middle" x="194.5" y="-175.5" font-family="Helvetica,sans-Serif" font-size="10.00">_types.h</text>
</a>
</g>
</g>
<!-- Node0&#45;&gt;Node2 -->
<g id="edge2" class="edge"><title>Node0&#45;&gt;Node2</title>
<path fill="none" stroke="midnightblue" d="M135.386,-235.475C144.556,-227.567 158.568,-215.485 170.649,-205.067"/>
<polygon fill="midnightblue" stroke="midnightblue" points="172.951,-207.704 178.238,-198.523 168.379,-202.403 172.951,-207.704"/>
</g>
<!-- Node3 -->
<g id="node4" class="node"><title>Node3</title>
<polygon fill="white" stroke="#bfbfbf" points="72,-0.5 72,-19.5 187,-19.5 187,-0.5 72,-0.5"/>
<text text-anchor="middle" x="129.5" y="-7.5" font-family="Helvetica,sans-Serif" font-size="10.00">odp/visibility_begin.h</text>
</g>
<!-- Node2&#45;&gt;Node3 -->
<g id="edge3" class="edge"><title>Node2&#45;&gt;Node3</title>
<path fill="none" stroke="midnightblue" d="M171.233,-168.453C158.477,-159.563 143.477,-146.938 134.5,-132 115.435,-100.276 120.226,-54.9654 125.079,-29.7551"/>
<polygon fill="midnightblue" stroke="midnightblue" points="128.559,-30.2183 127.227,-19.7074 121.713,-28.7544 128.559,-30.2183"/>
</g>
<!-- Node4 -->
<g id="node5" class="node"><title>Node4</title>
<g id="a_node5"><a xlink:href="support_8h.html" target="_top" xlink:title="ODP support API &#45; platform specific header. ">
<polygon fill="white" stroke="black" points="144,-112.5 144,-131.5 245,-131.5 245,-112.5 144,-112.5"/>
<text text-anchor="middle" x="194.5" y="-119.5" font-family="Helvetica,sans-Serif" font-size="10.00">odp/api/support.h</text>
</a>
</g>
</g>
<!-- Node2&#45;&gt;Node4 -->
<g id="edge4" class="edge"><title>Node2&#45;&gt;Node4</title>
<path fill="none" stroke="midnightblue" d="M194.5,-168.399C194.5,-160.466 194.5,-150.458 194.5,-141.858"/>
<polygon fill="midnightblue" stroke="midnightblue" points="198,-141.658 194.5,-131.658 191,-141.658 198,-141.658"/>
</g>
<!-- Node6 -->
<g id="node7" class="node"><title>Node6</title>
<polygon fill="white" stroke="#bfbfbf" points="218,-0.5 218,-19.5 325,-19.5 325,-0.5 218,-0.5"/>
<text text-anchor="middle" x="271.5" y="-7.5" font-family="Helvetica,sans-Serif" font-size="10.00">odp/visibility_end.h</text>
</g>
<!-- Node2&#45;&gt;Node6 -->
<g id="edge8" class="edge"><title>Node2&#45;&gt;Node6</title>
<path fill="none" stroke="midnightblue" d="M217.767,-168.453C230.523,-159.563 245.523,-146.938 254.5,-132 273.736,-99.9917 274.555,-54.7878 273.19,-29.6719"/>
<polygon fill="midnightblue" stroke="midnightblue" points="276.679,-29.3872 272.468,-19.6653 269.697,-29.8914 276.679,-29.3872"/>
</g>
<!-- Node5 -->
<g id="node6" class="node"><title>Node5</title>
<g id="a_node6"><a xlink:href="spec_2support_8h.html" target="_top" xlink:title="ODP support API. ">
<polygon fill="white" stroke="black" points="131.5,-56.5 131.5,-75.5 257.5,-75.5 257.5,-56.5 131.5,-56.5"/>
<text text-anchor="middle" x="194.5" y="-63.5" font-family="Helvetica,sans-Serif" font-size="10.00">odp/api/spec/support.h</text>
</a>
</g>
</g>
<!-- Node4&#45;&gt;Node5 -->
<g id="edge5" class="edge"><title>Node4&#45;&gt;Node5</title>
<path fill="none" stroke="midnightblue" d="M194.5,-112.083C194.5,-105.006 194.5,-94.8611 194.5,-85.9865"/>
<polygon fill="midnightblue" stroke="midnightblue" points="198,-85.751 194.5,-75.7511 191,-85.7511 198,-85.751"/>
</g>
<!-- Node5&#45;&gt;Node3 -->
<g id="edge6" class="edge"><title>Node5&#45;&gt;Node3</title>
<path fill="none" stroke="midnightblue" d="M184.057,-56.324C174.354,-48.2631 159.685,-36.0765 148,-26.3695"/>
<polygon fill="midnightblue" stroke="midnightblue" points="150.062,-23.532 140.133,-19.8339 145.589,-28.9163 150.062,-23.532"/>
</g>
<!-- Node5&#45;&gt;Node6 -->
<g id="edge7" class="edge"><title>Node5&#45;&gt;Node6</title>
<path fill="none" stroke="midnightblue" d="M206.871,-56.324C218.658,-48.0577 236.632,-35.4527 250.636,-25.6322"/>
<polygon fill="midnightblue" stroke="midnightblue" points="252.982,-28.2619 259.159,-19.6545 248.962,-22.5307 252.982,-28.2619"/>
</g>
</g>
</svg>
