<?xml version="1.0" encoding="UTF-8" standalone="no"?>
<!DOCTYPE svg PUBLIC "-//W3C//DTD SVG 1.1//EN"
 "http://www.w3.org/Graphics/SVG/1.1/DTD/svg11.dtd">
<!-- Generated by graphviz version 2.38.0 (20140413.2041)
 -->
<!-- Title: feature.h Pages: 1 -->
<svg width="111pt" height="308pt"
 viewBox="0.00 0.00 111.00 308.00" xmlns="http://www.w3.org/2000/svg" xmlns:xlink="http://www.w3.org/1999/xlink">
<g id="graph0" class="graph" transform="scale(1 1) rotate(0) translate(4 304)">
<title>feature.h</title>
<polygon fill="white" stroke="none" points="-4,4 -4,-304 107,-304 107,4 -4,4"/>
<!-- Node7 -->
<g id="node1" class="node"><title>Node7</title>
<polygon fill="#bfbfbf" stroke="black" points="21.5,-280.5 21.5,-299.5 81.5,-299.5 81.5,-280.5 21.5,-280.5"/>
<text text-anchor="middle" x="51.5" y="-287.5" font-family="Helvetica,sans-Serif" font-size="10.00">feature.h</text>
</g>
<!-- Node8 -->
<g id="node2" class="node"><title>Node8</title>
<g id="a_node2"><a xlink:href="feature_8h.html" target="_top" xlink:title="ODP features. ">
<polygon fill="white" stroke="black" points="21.5,-224.5 21.5,-243.5 81.5,-243.5 81.5,-224.5 21.5,-224.5"/>
<text text-anchor="middle" x="51.5" y="-231.5" font-family="Helvetica,sans-Serif" font-size="10.00">feature.h</text>
</a>
</g>
</g>
<!-- Node7&#45;&gt;Node8 -->
<g id="edge1" class="edge"><title>Node7&#45;&gt;Node8</title>
<path fill="none" stroke="midnightblue" d="M51.5,-269.805C51.5,-260.91 51.5,-250.78 51.5,-243.751"/>
<polygon fill="midnightblue" stroke="midnightblue" points="48.0001,-270.083 51.5,-280.083 55.0001,-270.083 48.0001,-270.083"/>
</g>
<!-- Node9 -->
<g id="node3" class="node"><title>Node9</title>
<g id="a_node3"><a xlink:href="spec_2init_8h.html" target="_top" xlink:title="init.h">
<polygon fill="white" stroke="black" points="31.5,-168.5 31.5,-187.5 71.5,-187.5 71.5,-168.5 31.5,-168.5"/>
<text text-anchor="middle" x="51.5" y="-175.5" font-family="Helvetica,sans-Serif" font-size="10.00">init.h</text>
</a>
</g>
</g>
<!-- Node8&#45;&gt;Node9 -->
<g id="edge2" class="edge"><title>Node8&#45;&gt;Node9</title>
<path fill="none" stroke="midnightblue" d="M51.5,-213.805C51.5,-204.91 51.5,-194.78 51.5,-187.751"/>
<polygon fill="midnightblue" stroke="midnightblue" points="48.0001,-214.083 51.5,-224.083 55.0001,-214.083 48.0001,-214.083"/>
</g>
<!-- Node10 -->
<g id="node4" class="node"><title>Node10</title>
<g id="a_node4"><a xlink:href="init_8h.html" target="_top" xlink:title="ODP initialization. ">
<polygon fill="white" stroke="black" points="31.5,-112.5 31.5,-131.5 71.5,-131.5 71.5,-112.5 31.5,-112.5"/>
<text text-anchor="middle" x="51.5" y="-119.5" font-family="Helvetica,sans-Serif" font-size="10.00">init.h</text>
</a>
</g>
</g>
<!-- Node9&#45;&gt;Node10 -->
<g id="edge3" class="edge"><title>Node9&#45;&gt;Node10</title>
<path fill="none" stroke="midnightblue" d="M51.5,-157.805C51.5,-148.91 51.5,-138.78 51.5,-131.751"/>
<polygon fill="midnightblue" stroke="midnightblue" points="48.0001,-158.083 51.5,-168.083 55.0001,-158.083 48.0001,-158.083"/>
</g>
<!-- Node11 -->
<g id="node5" class="node"><title>Node11</title>
<g id="a_node5"><a xlink:href="spec_2shared__memory_8h.html" target="_top" xlink:title="ODP shared memory. ">
<polygon fill="white" stroke="black" points="0,-56.5 0,-75.5 103,-75.5 103,-56.5 0,-56.5"/>
<text text-anchor="middle" x="51.5" y="-63.5" font-family="Helvetica,sans-Serif" font-size="10.00">shared_memory.h</text>
</a>
</g>
</g>
<!-- Node10&#45;&gt;Node11 -->
<g id="edge4" class="edge"><title>Node10&#45;&gt;Node11</title>
<path fill="none" stroke="midnightblue" d="M51.5,-101.805C51.5,-92.9102 51.5,-82.7798 51.5,-75.7511"/>
<polygon fill="midnightblue" stroke="midnightblue" points="48.0001,-102.083 51.5,-112.083 55.0001,-102.083 48.0001,-102.083"/>
</g>
<!-- Node12 -->
<g id="node6" class="node"><title>Node12</title>
<g id="a_node6"><a xlink:href="shared__memory_8h.html" target="_top" xlink:title="ODP shared memory. ">
<polygon fill="white" stroke="black" points="0,-0.5 0,-19.5 103,-19.5 103,-0.5 0,-0.5"/>
<text text-anchor="middle" x="51.5" y="-7.5" font-family="Helvetica,sans-Serif" font-size="10.00">shared_memory.h</text>
</a>
</g>
</g>
<!-- Node11&#45;&gt;Node12 -->
<g id="edge5" class="edge"><title>Node11&#45;&gt;Node12</title>
<path fill="none" stroke="midnightblue" d="M51.5,-45.8045C51.5,-36.9102 51.5,-26.7798 51.5,-19.7511"/>
<polygon fill="midnightblue" stroke="midnightblue" points="48.0001,-46.083 51.5,-56.083 55.0001,-46.083 48.0001,-46.083"/>
</g>
</g>
</svg>
