<?xml version="1.0" encoding="UTF-8" standalone="no"?>
<!DOCTYPE svg PUBLIC "-//W3C//DTD SVG 1.1//EN"
 "http://www.w3.org/Graphics/SVG/1.1/DTD/svg11.dtd">
<!-- Generated by graphviz version 2.38.0 (20140413.2041)
 -->
<!-- Title: comp.h Pages: 1 -->
<svg width="911pt" height="364pt"
 viewBox="0.00 0.00 911.00 364.00" xmlns="http://www.w3.org/2000/svg" xmlns:xlink="http://www.w3.org/1999/xlink">
<g id="graph0" class="graph" transform="scale(1 1) rotate(0) translate(4 360)">
<title>comp.h</title>
<polygon fill="white" stroke="none" points="-4,4 -4,-360 907,-360 907,4 -4,4"/>
<!-- Node0 -->
<g id="node1" class="node"><title>Node0</title>
<polygon fill="#bfbfbf" stroke="black" points="574.5,-336.5 574.5,-355.5 627.5,-355.5 627.5,-336.5 574.5,-336.5"/>
<text text-anchor="middle" x="601" y="-343.5" font-family="Helvetica,sans-Serif" font-size="10.00">comp.h</text>
</g>
<!-- Node1 -->
<g id="node2" class="node"><title>Node1</title>
<polygon fill="white" stroke="#bfbfbf" points="308.5,-0.5 308.5,-19.5 423.5,-19.5 423.5,-0.5 308.5,-0.5"/>
<text text-anchor="middle" x="366" y="-7.5" font-family="Helvetica,sans-Serif" font-size="10.00">odp/visibility_begin.h</text>
</g>
<!-- Node0&#45;&gt;Node1 -->
<g id="edge1" class="edge"><title>Node0&#45;&gt;Node1</title>
<path fill="none" stroke="midnightblue" d="M574.4,-342.997C458.089,-333.892 0,-294.269 0,-235 0,-235 0,-235 0,-121 0,-74.8419 38.7865,-74.6706 81,-56 90.8848,-51.6281 217.018,-32.6922 298.136,-20.8207"/>
<polygon fill="midnightblue" stroke="midnightblue" points="298.895,-24.247 308.284,-19.3379 297.883,-17.3205 298.895,-24.247"/>
</g>
<!-- Node2 -->
<g id="node3" class="node"><title>Node2</title>
<g id="a_node3"><a xlink:href="support_8h.html" target="_top" xlink:title="ODP support API &#45; platform specific header. ">
<polygon fill="white" stroke="black" points="686.5,-280.5 686.5,-299.5 787.5,-299.5 787.5,-280.5 686.5,-280.5"/>
<text text-anchor="middle" x="737" y="-287.5" font-family="Helvetica,sans-Serif" font-size="10.00">odp/api/support.h</text>
</a>
</g>
</g>
<!-- Node0&#45;&gt;Node2 -->
<g id="edge2" class="edge"><title>Node0&#45;&gt;Node2</title>
<path fill="none" stroke="midnightblue" d="M622.55,-336.444C645.031,-327.517 680.488,-313.439 705.98,-303.317"/>
<polygon fill="midnightblue" stroke="midnightblue" points="707.549,-306.46 715.551,-299.516 704.965,-299.954 707.549,-306.46"/>
</g>
<!-- Node4 -->
<g id="node5" class="node"><title>Node4</title>
<polygon fill="white" stroke="#bfbfbf" points="490.5,-0.5 490.5,-19.5 597.5,-19.5 597.5,-0.5 490.5,-0.5"/>
<text text-anchor="middle" x="544" y="-7.5" font-family="Helvetica,sans-Serif" font-size="10.00">odp/visibility_end.h</text>
</g>
<!-- Node0&#45;&gt;Node4 -->
<g id="edge27" class="edge"><title>Node0&#45;&gt;Node4</title>
<path fill="none" stroke="midnightblue" d="M627.536,-341.175C701.229,-329.815 903,-293.381 903,-235 903,-235 903,-235 903,-121 903,-59.9645 710.902,-29.3638 607.745,-17.3314"/>
<polygon fill="midnightblue" stroke="midnightblue" points="608.078,-13.8468 597.746,-16.1907 607.285,-20.8017 608.078,-13.8468"/>
</g>
<!-- Node5 -->
<g id="node6" class="node"><title>Node5</title>
<g id="a_node6"><a xlink:href="packet_8h.html" target="_top" xlink:title="ODP packet descriptor. ">
<polygon fill="white" stroke="black" points="417,-280.5 417,-299.5 513,-299.5 513,-280.5 417,-280.5"/>
<text text-anchor="middle" x="465" y="-287.5" font-family="Helvetica,sans-Serif" font-size="10.00">odp/api/packet.h</text>
</a>
</g>
</g>
<!-- Node0&#45;&gt;Node5 -->
<g id="edge6" class="edge"><title>Node0&#45;&gt;Node5</title>
<path fill="none" stroke="midnightblue" d="M579.45,-336.444C556.969,-327.517 521.512,-313.439 496.02,-303.317"/>
<polygon fill="midnightblue" stroke="midnightblue" points="497.035,-299.954 486.449,-299.516 494.451,-306.46 497.035,-299.954"/>
</g>
<!-- Node3 -->
<g id="node4" class="node"><title>Node3</title>
<g id="a_node4"><a xlink:href="spec_2support_8h.html" target="_top" xlink:title="ODP support API. ">
<polygon fill="white" stroke="black" points="572,-56.5 572,-75.5 698,-75.5 698,-56.5 572,-56.5"/>
<text text-anchor="middle" x="635" y="-63.5" font-family="Helvetica,sans-Serif" font-size="10.00">odp/api/spec/support.h</text>
</a>
</g>
</g>
<!-- Node2&#45;&gt;Node3 -->
<g id="edge3" class="edge"><title>Node2&#45;&gt;Node3</title>
<path fill="none" stroke="midnightblue" d="M782.664,-280.439C818.491,-271.307 859.997,-253.936 845,-224 807.519,-149.18 715.577,-100.856 666.719,-79.5574"/>
<polygon fill="midnightblue" stroke="midnightblue" points="667.839,-76.2304 657.267,-75.5403 665.101,-82.6728 667.839,-76.2304"/>
</g>
<!-- Node3&#45;&gt;Node1 -->
<g id="edge4" class="edge"><title>Node3&#45;&gt;Node1</title>
<path fill="none" stroke="midnightblue" d="M592.376,-56.4435C545.253,-46.9839 469.308,-31.7384 418.541,-21.5472"/>
<polygon fill="midnightblue" stroke="midnightblue" points="418.918,-18.0531 408.424,-19.5164 417.54,-24.9162 418.918,-18.0531"/>
</g>
<!-- Node3&#45;&gt;Node4 -->
<g id="edge5" class="edge"><title>Node3&#45;&gt;Node4</title>
<path fill="none" stroke="midnightblue" d="M620.379,-56.324C606.051,-47.8215 583.987,-34.7288 567.251,-24.7975"/>
<polygon fill="midnightblue" stroke="midnightblue" points="568.97,-21.7478 558.584,-19.6545 565.398,-27.7677 568.97,-21.7478"/>
</g>
<!-- Node6 -->
<g id="node7" class="node"><title>Node6</title>
<g id="a_node7"><a xlink:href="std__types_8h.html" target="_top" xlink:title="Standard C language types and definitions for ODP. ">
<polygon fill="white" stroke="black" points="113,-112.5 113,-131.5 223,-131.5 223,-112.5 113,-112.5"/>
<text text-anchor="middle" x="168" y="-119.5" font-family="Helvetica,sans-Serif" font-size="10.00">odp/api/std_types.h</text>
</a>
</g>
</g>
<!-- Node5&#45;&gt;Node6 -->
<g id="edge7" class="edge"><title>Node5&#45;&gt;Node6</title>
<path fill="none" stroke="midnightblue" d="M416.845,-287.228C314.073,-282.952 80.6552,-270.408 57,-244 21.4707,-204.337 96.8877,-158.134 140.26,-136.052"/>
<polygon fill="midnightblue" stroke="midnightblue" points="141.836,-139.177 149.233,-131.592 138.721,-132.908 141.836,-139.177"/>
</g>
<!-- Node10 -->
<g id="node11" class="node"><title>Node10</title>
<polygon fill="white" stroke="#bfbfbf" points="66,-224.5 66,-243.5 174,-243.5 174,-224.5 66,-224.5"/>
<text text-anchor="middle" x="120" y="-231.5" font-family="Helvetica,sans-Serif" font-size="10.00">odp/api/abi/event.h</text>
</g>
<!-- Node5&#45;&gt;Node10 -->
<g id="edge13" class="edge"><title>Node5&#45;&gt;Node10</title>
<path fill="none" stroke="midnightblue" d="M416.666,-281.435C355.987,-271.937 251.703,-255.614 184.329,-245.069"/>
<polygon fill="midnightblue" stroke="midnightblue" points="184.677,-241.581 174.256,-243.492 183.595,-248.497 184.677,-241.581"/>
</g>
<!-- Node11 -->
<g id="node12" class="node"><title>Node11</title>
<polygon fill="white" stroke="#bfbfbf" points="332.5,-224.5 332.5,-243.5 459.5,-243.5 459.5,-224.5 332.5,-224.5"/>
<text text-anchor="middle" x="396" y="-231.5" font-family="Helvetica,sans-Serif" font-size="10.00">odp/api/abi/packet_io.h</text>
</g>
<!-- Node5&#45;&gt;Node11 -->
<g id="edge14" class="edge"><title>Node5&#45;&gt;Node11</title>
<path fill="none" stroke="midnightblue" d="M453.914,-280.324C443.514,-272.185 427.739,-259.839 415.278,-250.087"/>
<polygon fill="midnightblue" stroke="midnightblue" points="417.32,-247.241 407.288,-243.834 413.006,-252.753 417.32,-247.241"/>
</g>
<!-- Node12 -->
<g id="node13" class="node"><title>Node12</title>
<polygon fill="white" stroke="#bfbfbf" points="477.5,-224.5 477.5,-243.5 590.5,-243.5 590.5,-224.5 477.5,-224.5"/>
<text text-anchor="middle" x="534" y="-231.5" font-family="Helvetica,sans-Serif" font-size="10.00">odp/api/abi/packet.h</text>
</g>
<!-- Node5&#45;&gt;Node12 -->
<g id="edge15" class="edge"><title>Node5&#45;&gt;Node12</title>
<path fill="none" stroke="midnightblue" d="M476.086,-280.324C486.486,-272.185 502.261,-259.839 514.722,-250.087"/>
<polygon fill="midnightblue" stroke="midnightblue" points="516.994,-252.753 522.712,-243.834 512.68,-247.241 516.994,-252.753"/>
</g>
<!-- Node13 -->
<g id="node14" class="node"><title>Node13</title>
<polygon fill="white" stroke="#bfbfbf" points="609,-224.5 609,-243.5 717,-243.5 717,-224.5 609,-224.5"/>
<text text-anchor="middle" x="663" y="-231.5" font-family="Helvetica,sans-Serif" font-size="10.00">odp/api/abi/buffer.h</text>
</g>
<!-- Node5&#45;&gt;Node13 -->
<g id="edge16" class="edge"><title>Node5&#45;&gt;Node13</title>
<path fill="none" stroke="midnightblue" d="M496.374,-280.444C530.263,-271.201 584.403,-256.436 621.724,-246.257"/>
<polygon fill="midnightblue" stroke="midnightblue" points="623.046,-249.524 631.773,-243.516 621.205,-242.771 623.046,-249.524"/>
</g>
<!-- Node14 -->
<g id="node15" class="node"><title>Node14</title>
<polygon fill="white" stroke="#bfbfbf" points="735.5,-224.5 735.5,-243.5 836.5,-243.5 836.5,-224.5 735.5,-224.5"/>
<text text-anchor="middle" x="786" y="-231.5" font-family="Helvetica,sans-Serif" font-size="10.00">odp/api/abi/pool.h</text>
</g>
<!-- Node5&#45;&gt;Node14 -->
<g id="edge17" class="edge"><title>Node5&#45;&gt;Node14</title>
<path fill="none" stroke="midnightblue" d="M513.057,-280.916C569.718,-271.384 663.952,-255.531 725.526,-245.173"/>
<polygon fill="midnightblue" stroke="midnightblue" points="726.213,-248.607 735.493,-243.496 725.051,-241.704 726.213,-248.607"/>
</g>
<!-- Node15 -->
<g id="node16" class="node"><title>Node15</title>
<g id="a_node16"><a xlink:href="spec_2packet_8h.html" target="_top" xlink:title="ODP packet descriptor. ">
<polygon fill="white" stroke="black" points="192,-224.5 192,-243.5 314,-243.5 314,-224.5 192,-224.5"/>
<text text-anchor="middle" x="253" y="-231.5" font-family="Helvetica,sans-Serif" font-size="10.00">odp/api/spec/packet.h</text>
</a>
</g>
</g>
<!-- Node5&#45;&gt;Node15 -->
<g id="edge18" class="edge"><title>Node5&#45;&gt;Node15</title>
<path fill="none" stroke="midnightblue" d="M431.408,-280.444C394.813,-271.122 336.162,-256.183 296.174,-245.997"/>
<polygon fill="midnightblue" stroke="midnightblue" points="296.989,-242.593 286.435,-243.516 295.261,-249.377 296.989,-242.593"/>
</g>
<!-- Node7 -->
<g id="node8" class="node"><title>Node7</title>
<polygon fill="white" stroke="#bfbfbf" points="104,-56.5 104,-75.5 232,-75.5 232,-56.5 104,-56.5"/>
<text text-anchor="middle" x="168" y="-63.5" font-family="Helvetica,sans-Serif" font-size="10.00">odp/api/abi/std_types.h</text>
</g>
<!-- Node6&#45;&gt;Node7 -->
<g id="edge8" class="edge"><title>Node6&#45;&gt;Node7</title>
<path fill="none" stroke="midnightblue" d="M168,-112.083C168,-105.006 168,-94.8611 168,-85.9865"/>
<polygon fill="midnightblue" stroke="midnightblue" points="171.5,-85.751 168,-75.7511 164.5,-85.7511 171.5,-85.751"/>
</g>
<!-- Node8 -->
<g id="node9" class="node"><title>Node8</title>
<g id="a_node9"><a xlink:href="spec_2std__types_8h.html" target="_top" xlink:title="Standard C language types and definitions for ODP. ">
<polygon fill="white" stroke="black" points="250,-56.5 250,-75.5 386,-75.5 386,-56.5 250,-56.5"/>
<text text-anchor="middle" x="318" y="-63.5" font-family="Helvetica,sans-Serif" font-size="10.00">odp/api/spec/std_types.h</text>
</a>
</g>
</g>
<!-- Node6&#45;&gt;Node8 -->
<g id="edge9" class="edge"><title>Node6&#45;&gt;Node8</title>
<path fill="none" stroke="midnightblue" d="M191.768,-112.444C216.893,-103.399 256.711,-89.064 284.9,-78.9158"/>
<polygon fill="midnightblue" stroke="midnightblue" points="286.12,-82.1968 294.343,-75.5164 283.749,-75.6106 286.12,-82.1968"/>
</g>
<!-- Node8&#45;&gt;Node1 -->
<g id="edge10" class="edge"><title>Node8&#45;&gt;Node1</title>
<path fill="none" stroke="midnightblue" d="M325.926,-56.083C332.846,-48.2982 343.065,-36.8015 351.452,-27.3665"/>
<polygon fill="midnightblue" stroke="midnightblue" points="354.194,-29.5505 358.221,-19.7511 348.962,-24.8999 354.194,-29.5505"/>
</g>
<!-- Node8&#45;&gt;Node4 -->
<g id="edge12" class="edge"><title>Node8&#45;&gt;Node4</title>
<path fill="none" stroke="midnightblue" d="M353.81,-56.4435C392.988,-47.0826 455.877,-32.0561 498.515,-21.868"/>
<polygon fill="midnightblue" stroke="midnightblue" points="499.444,-25.2446 508.357,-19.5164 497.818,-18.4363 499.444,-25.2446"/>
</g>
<!-- Node9 -->
<g id="node10" class="node"><title>Node9</title>
<polygon fill="white" stroke="#bfbfbf" points="237.5,-0.5 237.5,-19.5 290.5,-19.5 290.5,-0.5 237.5,-0.5"/>
<text text-anchor="middle" x="264" y="-7.5" font-family="Helvetica,sans-Serif" font-size="10.00">stdint.h</text>
</g>
<!-- Node8&#45;&gt;Node9 -->
<g id="edge11" class="edge"><title>Node8&#45;&gt;Node9</title>
<path fill="none" stroke="midnightblue" d="M309.083,-56.083C301.22,-48.2195 289.569,-36.5688 280.081,-27.0813"/>
<polygon fill="midnightblue" stroke="midnightblue" points="282.297,-24.3473 272.751,-19.7511 277.347,-29.2971 282.297,-24.3473"/>
</g>
<!-- Node15&#45;&gt;Node1 -->
<g id="edge19" class="edge"><title>Node15&#45;&gt;Node1</title>
<path fill="none" stroke="midnightblue" d="M234.488,-224.482C181.898,-199.185 38.9346,-122.143 95,-56 98.3224,-52.0804 220.042,-33.0364 299.207,-21.0131"/>
<polygon fill="midnightblue" stroke="midnightblue" points="299.756,-24.4699 309.118,-19.5106 298.707,-17.549 299.756,-24.4699"/>
</g>
<!-- Node15&#45;&gt;Node4 -->
<g id="edge26" class="edge"><title>Node15&#45;&gt;Node4</title>
<path fill="none" stroke="midnightblue" d="M281.005,-224.499C335.929,-206.389 458.152,-158.756 524,-76 534.557,-62.7319 539.564,-43.895 541.925,-29.9125"/>
<polygon fill="midnightblue" stroke="midnightblue" points="545.401,-30.3244 543.307,-19.9387 538.467,-29.3637 545.401,-30.3244"/>
</g>
<!-- Node16 -->
<g id="node17" class="node"><title>Node16</title>
<g id="a_node17"><a xlink:href="time_8h.html" target="_top" xlink:title="ODP time. ">
<polygon fill="white" stroke="black" points="230,-168.5 230,-187.5 316,-187.5 316,-168.5 230,-168.5"/>
<text text-anchor="middle" x="273" y="-175.5" font-family="Helvetica,sans-Serif" font-size="10.00">odp/api/time.h</text>
</a>
</g>
</g>
<!-- Node15&#45;&gt;Node16 -->
<g id="edge20" class="edge"><title>Node15&#45;&gt;Node16</title>
<path fill="none" stroke="midnightblue" d="M256.303,-224.083C258.982,-216.849 262.849,-206.409 266.186,-197.397"/>
<polygon fill="midnightblue" stroke="midnightblue" points="269.568,-198.344 269.759,-187.751 263.004,-195.913 269.568,-198.344"/>
</g>
<!-- Node16&#45;&gt;Node6 -->
<g id="edge21" class="edge"><title>Node16&#45;&gt;Node6</title>
<path fill="none" stroke="midnightblue" d="M256.13,-168.324C239.291,-159.664 213.193,-146.242 193.762,-136.249"/>
<polygon fill="midnightblue" stroke="midnightblue" points="195.322,-133.116 184.828,-131.655 192.12,-139.341 195.322,-133.116"/>
</g>
<!-- Node17 -->
<g id="node18" class="node"><title>Node17</title>
<polygon fill="white" stroke="#bfbfbf" points="241.5,-112.5 241.5,-131.5 344.5,-131.5 344.5,-112.5 241.5,-112.5"/>
<text text-anchor="middle" x="293" y="-119.5" font-family="Helvetica,sans-Serif" font-size="10.00">odp/api/abi/time.h</text>
</g>
<!-- Node16&#45;&gt;Node17 -->
<g id="edge22" class="edge"><title>Node16&#45;&gt;Node17</title>
<path fill="none" stroke="midnightblue" d="M276.303,-168.083C278.982,-160.849 282.849,-150.409 286.186,-141.397"/>
<polygon fill="midnightblue" stroke="midnightblue" points="289.568,-142.344 289.759,-131.751 283.004,-139.913 289.568,-142.344"/>
</g>
<!-- Node18 -->
<g id="node19" class="node"><title>Node18</title>
<g id="a_node19"><a xlink:href="spec_2time_8h.html" target="_top" xlink:title="ODP time. ">
<polygon fill="white" stroke="black" points="404.5,-56.5 404.5,-75.5 515.5,-75.5 515.5,-56.5 404.5,-56.5"/>
<text text-anchor="middle" x="460" y="-63.5" font-family="Helvetica,sans-Serif" font-size="10.00">odp/api/spec/time.h</text>
</a>
</g>
</g>
<!-- Node16&#45;&gt;Node18 -->
<g id="edge23" class="edge"><title>Node16&#45;&gt;Node18</title>
<path fill="none" stroke="midnightblue" d="M288.724,-168.359C304.921,-159.411 330.853,-144.951 353,-132 382.42,-114.796 415.941,-94.2826 437.503,-80.9673"/>
<polygon fill="midnightblue" stroke="midnightblue" points="439.575,-83.8009 446.238,-75.563 435.892,-77.8482 439.575,-83.8009"/>
</g>
<!-- Node18&#45;&gt;Node1 -->
<g id="edge24" class="edge"><title>Node18&#45;&gt;Node1</title>
<path fill="none" stroke="midnightblue" d="M444.897,-56.324C430.097,-47.8215 407.306,-34.7288 390.018,-24.7975"/>
<polygon fill="midnightblue" stroke="midnightblue" points="391.48,-21.6009 381.065,-19.6545 387.993,-27.6707 391.48,-21.6009"/>
</g>
<!-- Node18&#45;&gt;Node4 -->
<g id="edge25" class="edge"><title>Node18&#45;&gt;Node4</title>
<path fill="none" stroke="midnightblue" d="M473.496,-56.324C486.6,-47.9002 506.712,-34.9709 522.107,-25.0741"/>
<polygon fill="midnightblue" stroke="midnightblue" points="524.018,-28.0063 530.537,-19.6545 520.233,-22.118 524.018,-28.0063"/>
</g>
</g>
</svg>
