<?xml version="1.0" encoding="UTF-8" standalone="no"?>
<!DOCTYPE svg PUBLIC "-//W3C//DTD SVG 1.1//EN"
 "http://www.w3.org/Graphics/SVG/1.1/DTD/svg11.dtd">
<!-- Generated by graphviz version 2.38.0 (20140413.2041)
 -->
<!-- Title: crypto.h Pages: 1 -->
<svg width="64pt" height="196pt"
 viewBox="0.00 0.00 64.00 196.00" xmlns="http://www.w3.org/2000/svg" xmlns:xlink="http://www.w3.org/1999/xlink">
<g id="graph0" class="graph" transform="scale(1 1) rotate(0) translate(4 192)">
<title>crypto.h</title>
<polygon fill="white" stroke="none" points="-4,4 -4,-192 60,-192 60,4 -4,4"/>
<!-- Node21 -->
<g id="node1" class="node"><title>Node21</title>
<polygon fill="#bfbfbf" stroke="black" points="-3.55271e-15,-168.5 -3.55271e-15,-187.5 56,-187.5 56,-168.5 -3.55271e-15,-168.5"/>
<text text-anchor="middle" x="28" y="-175.5" font-family="Helvetica,sans-Serif" font-size="10.00">crypto.h</text>
</g>
<!-- Node22 -->
<g id="node2" class="node"><title>Node22</title>
<g id="a_node2"><a xlink:href="crypto_8h.html" target="_top" xlink:title="ODP crypto. ">
<polygon fill="white" stroke="black" points="-3.55271e-15,-112.5 -3.55271e-15,-131.5 56,-131.5 56,-112.5 -3.55271e-15,-112.5"/>
<text text-anchor="middle" x="28" y="-119.5" font-family="Helvetica,sans-Serif" font-size="10.00">crypto.h</text>
</a>
</g>
</g>
<!-- Node21&#45;&gt;Node22 -->
<g id="edge1" class="edge"><title>Node21&#45;&gt;Node22</title>
<path fill="none" stroke="midnightblue" d="M28,-157.805C28,-148.91 28,-138.78 28,-131.751"/>
<polygon fill="midnightblue" stroke="midnightblue" points="24.5001,-158.083 28,-168.083 31.5001,-158.083 24.5001,-158.083"/>
</g>
<!-- Node23 -->
<g id="node3" class="node"><title>Node23</title>
<g id="a_node3"><a xlink:href="spec_2ipsec_8h.html" target="_top" xlink:title="ODP IPSEC API. ">
<polygon fill="white" stroke="black" points="3,-56.5 3,-75.5 53,-75.5 53,-56.5 3,-56.5"/>
<text text-anchor="middle" x="28" y="-63.5" font-family="Helvetica,sans-Serif" font-size="10.00">ipsec.h</text>
</a>
</g>
</g>
<!-- Node22&#45;&gt;Node23 -->
<g id="edge2" class="edge"><title>Node22&#45;&gt;Node23</title>
<path fill="none" stroke="midnightblue" d="M28,-101.805C28,-92.9102 28,-82.7798 28,-75.7511"/>
<polygon fill="midnightblue" stroke="midnightblue" points="24.5001,-102.083 28,-112.083 31.5001,-102.083 24.5001,-102.083"/>
</g>
<!-- Node24 -->
<g id="node4" class="node"><title>Node24</title>
<g id="a_node4"><a xlink:href="ipsec_8h.html" target="_top" xlink:title="ODP IPSEC API &#45; platform specific header. ">
<polygon fill="white" stroke="black" points="3,-0.5 3,-19.5 53,-19.5 53,-0.5 3,-0.5"/>
<text text-anchor="middle" x="28" y="-7.5" font-family="Helvetica,sans-Serif" font-size="10.00">ipsec.h</text>
</a>
</g>
</g>
<!-- Node23&#45;&gt;Node24 -->
<g id="edge3" class="edge"><title>Node23&#45;&gt;Node24</title>
<path fill="none" stroke="midnightblue" d="M28,-45.8045C28,-36.9102 28,-26.7798 28,-19.7511"/>
<polygon fill="midnightblue" stroke="midnightblue" points="24.5001,-46.083 28,-56.083 31.5001,-46.083 24.5001,-46.083"/>
</g>
</g>
</svg>
