<?xml version="1.0" encoding="UTF-8" standalone="no"?>
<!DOCTYPE svg PUBLIC "-//W3C//DTD SVG 1.1//EN"
 "http://www.w3.org/Graphics/SVG/1.1/DTD/svg11.dtd">
<!-- Generated by graphviz version 2.38.0 (20140413.2041)
 -->
<!-- Title: hash.h Pages: 1 -->
<svg width="57pt" height="84pt"
 viewBox="0.00 0.00 57.00 84.00" xmlns="http://www.w3.org/2000/svg" xmlns:xlink="http://www.w3.org/1999/xlink">
<g id="graph0" class="graph" transform="scale(1 1) rotate(0) translate(4 80)">
<title>hash.h</title>
<polygon fill="white" stroke="none" points="-4,4 -4,-80 53,-80 53,4 -4,4"/>
<!-- Node7 -->
<g id="node1" class="node"><title>Node7</title>
<polygon fill="#bfbfbf" stroke="black" points="-3.55271e-15,-56.5 -3.55271e-15,-75.5 49,-75.5 49,-56.5 -3.55271e-15,-56.5"/>
<text text-anchor="middle" x="24.5" y="-63.5" font-family="Helvetica,sans-Serif" font-size="10.00">hash.h</text>
</g>
<!-- Node8 -->
<g id="node2" class="node"><title>Node8</title>
<g id="a_node2"><a xlink:href="hash_8h.html" target="_top" xlink:title="ODP Hash function. ">
<polygon fill="white" stroke="black" points="-3.55271e-15,-0.5 -3.55271e-15,-19.5 49,-19.5 49,-0.5 -3.55271e-15,-0.5"/>
<text text-anchor="middle" x="24.5" y="-7.5" font-family="Helvetica,sans-Serif" font-size="10.00">hash.h</text>
</a>
</g>
</g>
<!-- Node7&#45;&gt;Node8 -->
<g id="edge1" class="edge"><title>Node7&#45;&gt;Node8</title>
<path fill="none" stroke="midnightblue" d="M24.5,-45.8045C24.5,-36.9102 24.5,-26.7798 24.5,-19.7511"/>
<polygon fill="midnightblue" stroke="midnightblue" points="21.0001,-46.083 24.5,-56.083 28.0001,-46.083 21.0001,-46.083"/>
</g>
</g>
</svg>
