<?xml version="1.0" encoding="UTF-8" standalone="no"?>
<!DOCTYPE svg PUBLIC "-//W3C//DTD SVG 1.1//EN"
 "http://www.w3.org/Graphics/SVG/1.1/DTD/svg11.dtd">
<!-- Generated by graphviz version 2.38.0 (20140413.2041)
 -->
<!-- Title: packet_flags.h Pages: 1 -->
<svg width="911pt" height="364pt"
 viewBox="0.00 0.00 911.00 364.00" xmlns="http://www.w3.org/2000/svg" xmlns:xlink="http://www.w3.org/1999/xlink">
<g id="graph0" class="graph" transform="scale(1 1) rotate(0) translate(4 360)">
<title>packet_flags.h</title>
<polygon fill="white" stroke="none" points="-4,4 -4,-360 907,-360 907,4 -4,4"/>
<!-- Node0 -->
<g id="node1" class="node"><title>Node0</title>
<polygon fill="#bfbfbf" stroke="black" points="157,-336.5 157,-355.5 243,-355.5 243,-336.5 157,-336.5"/>
<text text-anchor="middle" x="200" y="-343.5" font-family="Helvetica,sans-Serif" font-size="10.00">packet_flags.h</text>
</g>
<!-- Node1 -->
<g id="node2" class="node"><title>Node1</title>
<polygon fill="white" stroke="#bfbfbf" points="482.5,-0.5 482.5,-19.5 597.5,-19.5 597.5,-0.5 482.5,-0.5"/>
<text text-anchor="middle" x="540" y="-7.5" font-family="Helvetica,sans-Serif" font-size="10.00">odp/visibility_begin.h</text>
</g>
<!-- Node0&#45;&gt;Node1 -->
<g id="edge1" class="edge"><title>Node0&#45;&gt;Node1</title>
<path fill="none" stroke="midnightblue" d="M243.181,-342.828C396.132,-334.569 903,-302.133 903,-235 903,-235 903,-235 903,-121 903,-59.9798 712.756,-29.6597 607.718,-17.5697"/>
<polygon fill="midnightblue" stroke="midnightblue" points="607.847,-14.0622 597.518,-16.4221 607.064,-21.0183 607.847,-14.0622"/>
</g>
<!-- Node2 -->
<g id="node3" class="node"><title>Node2</title>
<g id="a_node3"><a xlink:href="std__types_8h.html" target="_top" xlink:title="Standard C language types and definitions for ODP. ">
<polygon fill="white" stroke="black" points="155,-112.5 155,-131.5 265,-131.5 265,-112.5 155,-112.5"/>
<text text-anchor="middle" x="210" y="-119.5" font-family="Helvetica,sans-Serif" font-size="10.00">odp/api/std_types.h</text>
</a>
</g>
</g>
<!-- Node0&#45;&gt;Node2 -->
<g id="edge2" class="edge"><title>Node0&#45;&gt;Node2</title>
<path fill="none" stroke="midnightblue" d="M182.762,-336.419C155.563,-321.783 103.664,-289.138 83,-244 79.2999,-235.918 81.6233,-232.782 83,-224 87.0489,-198.172 83.2732,-187.215 101,-168 115.912,-151.836 137.502,-141.313 157.54,-134.545"/>
<polygon fill="midnightblue" stroke="midnightblue" points="158.719,-137.843 167.216,-131.515 156.627,-131.163 158.719,-137.843"/>
</g>
<!-- Node6 -->
<g id="node7" class="node"><title>Node6</title>
<polygon fill="white" stroke="#bfbfbf" points="60.5,-0.5 60.5,-19.5 167.5,-19.5 167.5,-0.5 60.5,-0.5"/>
<text text-anchor="middle" x="114" y="-7.5" font-family="Helvetica,sans-Serif" font-size="10.00">odp/visibility_end.h</text>
</g>
<!-- Node0&#45;&gt;Node6 -->
<g id="edge24" class="edge"><title>Node0&#45;&gt;Node6</title>
<path fill="none" stroke="midnightblue" d="M156.603,-340.383C97.7814,-331.45 0,-305.933 0,-235 0,-235 0,-235 0,-121 0,-74.1149 50.5515,-40.8944 84.3292,-23.9302"/>
<polygon fill="midnightblue" stroke="midnightblue" points="85.8676,-27.0742 93.3555,-19.5787 82.8277,-20.7687 85.8676,-27.0742"/>
</g>
<!-- Node7 -->
<g id="node8" class="node"><title>Node7</title>
<g id="a_node8"><a xlink:href="packet_8h.html" target="_top" xlink:title="ODP packet descriptor. ">
<polygon fill="white" stroke="black" points="315,-280.5 315,-299.5 411,-299.5 411,-280.5 315,-280.5"/>
<text text-anchor="middle" x="363" y="-287.5" font-family="Helvetica,sans-Serif" font-size="10.00">odp/api/packet.h</text>
</a>
</g>
</g>
<!-- Node0&#45;&gt;Node7 -->
<g id="edge8" class="edge"><title>Node0&#45;&gt;Node7</title>
<path fill="none" stroke="midnightblue" d="M225.828,-336.444C253.249,-327.359 296.777,-312.939 327.432,-302.783"/>
<polygon fill="midnightblue" stroke="midnightblue" points="328.901,-305.984 337.293,-299.516 326.7,-299.339 328.901,-305.984"/>
</g>
<!-- Node3 -->
<g id="node4" class="node"><title>Node3</title>
<polygon fill="white" stroke="#bfbfbf" points="296,-56.5 296,-75.5 424,-75.5 424,-56.5 296,-56.5"/>
<text text-anchor="middle" x="360" y="-63.5" font-family="Helvetica,sans-Serif" font-size="10.00">odp/api/abi/std_types.h</text>
</g>
<!-- Node2&#45;&gt;Node3 -->
<g id="edge3" class="edge"><title>Node2&#45;&gt;Node3</title>
<path fill="none" stroke="midnightblue" d="M233.768,-112.444C258.893,-103.399 298.711,-89.064 326.9,-78.9158"/>
<polygon fill="midnightblue" stroke="midnightblue" points="328.12,-82.1968 336.343,-75.5164 325.749,-75.6106 328.12,-82.1968"/>
</g>
<!-- Node4 -->
<g id="node5" class="node"><title>Node4</title>
<g id="a_node5"><a xlink:href="spec_2std__types_8h.html" target="_top" xlink:title="Standard C language types and definitions for ODP. ">
<polygon fill="white" stroke="black" points="142,-56.5 142,-75.5 278,-75.5 278,-56.5 142,-56.5"/>
<text text-anchor="middle" x="210" y="-63.5" font-family="Helvetica,sans-Serif" font-size="10.00">odp/api/spec/std_types.h</text>
</a>
</g>
</g>
<!-- Node2&#45;&gt;Node4 -->
<g id="edge4" class="edge"><title>Node2&#45;&gt;Node4</title>
<path fill="none" stroke="midnightblue" d="M210,-112.083C210,-105.006 210,-94.8611 210,-85.9865"/>
<polygon fill="midnightblue" stroke="midnightblue" points="213.5,-85.751 210,-75.7511 206.5,-85.7511 213.5,-85.751"/>
</g>
<!-- Node4&#45;&gt;Node1 -->
<g id="edge5" class="edge"><title>Node4&#45;&gt;Node1</title>
<path fill="none" stroke="midnightblue" d="M262.289,-56.4435C320.823,-46.8654 415.605,-31.3556 477.87,-21.1667"/>
<polygon fill="midnightblue" stroke="midnightblue" points="478.652,-24.5855 487.955,-19.5164 477.521,-17.6773 478.652,-24.5855"/>
</g>
<!-- Node5 -->
<g id="node6" class="node"><title>Node5</title>
<polygon fill="white" stroke="#bfbfbf" points="185.5,-0.5 185.5,-19.5 238.5,-19.5 238.5,-0.5 185.5,-0.5"/>
<text text-anchor="middle" x="212" y="-7.5" font-family="Helvetica,sans-Serif" font-size="10.00">stdint.h</text>
</g>
<!-- Node4&#45;&gt;Node5 -->
<g id="edge6" class="edge"><title>Node4&#45;&gt;Node5</title>
<path fill="none" stroke="midnightblue" d="M210.33,-56.083C210.592,-49.0059 210.968,-38.8611 211.297,-29.9865"/>
<polygon fill="midnightblue" stroke="midnightblue" points="214.803,-29.8738 211.676,-19.7511 207.808,-29.6147 214.803,-29.8738"/>
</g>
<!-- Node4&#45;&gt;Node6 -->
<g id="edge7" class="edge"><title>Node4&#45;&gt;Node6</title>
<path fill="none" stroke="midnightblue" d="M194.576,-56.324C179.46,-47.8215 156.185,-34.7288 138.529,-24.7975"/>
<polygon fill="midnightblue" stroke="midnightblue" points="139.817,-21.5066 129.386,-19.6545 136.386,-27.6077 139.817,-21.5066"/>
</g>
<!-- Node7&#45;&gt;Node2 -->
<g id="edge9" class="edge"><title>Node7&#45;&gt;Node2</title>
<path fill="none" stroke="midnightblue" d="M314.859,-288.079C245.469,-285.619 122.617,-276.64 95,-244 60.2079,-202.879 136.554,-157.687 180.999,-136.011"/>
<polygon fill="midnightblue" stroke="midnightblue" points="182.683,-139.086 190.21,-131.63 179.677,-132.764 182.683,-139.086"/>
</g>
<!-- Node8 -->
<g id="node9" class="node"><title>Node8</title>
<polygon fill="white" stroke="#bfbfbf" points="104,-224.5 104,-243.5 212,-243.5 212,-224.5 104,-224.5"/>
<text text-anchor="middle" x="158" y="-231.5" font-family="Helvetica,sans-Serif" font-size="10.00">odp/api/abi/event.h</text>
</g>
<!-- Node7&#45;&gt;Node8 -->
<g id="edge10" class="edge"><title>Node7&#45;&gt;Node8</title>
<path fill="none" stroke="midnightblue" d="M330.517,-280.444C295.28,-271.162 238.896,-256.309 200.241,-246.127"/>
<polygon fill="midnightblue" stroke="midnightblue" points="200.893,-242.679 190.331,-243.516 199.109,-249.448 200.893,-242.679"/>
</g>
<!-- Node9 -->
<g id="node10" class="node"><title>Node9</title>
<polygon fill="white" stroke="#bfbfbf" points="230.5,-224.5 230.5,-243.5 357.5,-243.5 357.5,-224.5 230.5,-224.5"/>
<text text-anchor="middle" x="294" y="-231.5" font-family="Helvetica,sans-Serif" font-size="10.00">odp/api/abi/packet_io.h</text>
</g>
<!-- Node7&#45;&gt;Node9 -->
<g id="edge11" class="edge"><title>Node7&#45;&gt;Node9</title>
<path fill="none" stroke="midnightblue" d="M351.914,-280.324C341.514,-272.185 325.739,-259.839 313.278,-250.087"/>
<polygon fill="midnightblue" stroke="midnightblue" points="315.32,-247.241 305.288,-243.834 311.006,-252.753 315.32,-247.241"/>
</g>
<!-- Node10 -->
<g id="node11" class="node"><title>Node10</title>
<polygon fill="white" stroke="#bfbfbf" points="375.5,-224.5 375.5,-243.5 488.5,-243.5 488.5,-224.5 375.5,-224.5"/>
<text text-anchor="middle" x="432" y="-231.5" font-family="Helvetica,sans-Serif" font-size="10.00">odp/api/abi/packet.h</text>
</g>
<!-- Node7&#45;&gt;Node10 -->
<g id="edge12" class="edge"><title>Node7&#45;&gt;Node10</title>
<path fill="none" stroke="midnightblue" d="M374.086,-280.324C384.486,-272.185 400.261,-259.839 412.722,-250.087"/>
<polygon fill="midnightblue" stroke="midnightblue" points="414.994,-252.753 420.712,-243.834 410.68,-247.241 414.994,-252.753"/>
</g>
<!-- Node11 -->
<g id="node12" class="node"><title>Node11</title>
<polygon fill="white" stroke="#bfbfbf" points="647,-224.5 647,-243.5 755,-243.5 755,-224.5 647,-224.5"/>
<text text-anchor="middle" x="701" y="-231.5" font-family="Helvetica,sans-Serif" font-size="10.00">odp/api/abi/buffer.h</text>
</g>
<!-- Node7&#45;&gt;Node11 -->
<g id="edge13" class="edge"><title>Node7&#45;&gt;Node11</title>
<path fill="none" stroke="midnightblue" d="M411.068,-281.32C470.408,-271.84 571.519,-255.686 637.282,-245.18"/>
<polygon fill="midnightblue" stroke="midnightblue" points="638.198,-248.578 647.521,-243.544 637.094,-241.666 638.198,-248.578"/>
</g>
<!-- Node12 -->
<g id="node13" class="node"><title>Node12</title>
<polygon fill="white" stroke="#bfbfbf" points="773.5,-224.5 773.5,-243.5 874.5,-243.5 874.5,-224.5 773.5,-224.5"/>
<text text-anchor="middle" x="824" y="-231.5" font-family="Helvetica,sans-Serif" font-size="10.00">odp/api/abi/pool.h</text>
</g>
<!-- Node7&#45;&gt;Node12 -->
<g id="edge14" class="edge"><title>Node7&#45;&gt;Node12</title>
<path fill="none" stroke="midnightblue" d="M411.216,-284.174C484.754,-276.684 629.593,-261.428 763.266,-244.052"/>
<polygon fill="midnightblue" stroke="midnightblue" points="763.817,-247.51 773.28,-242.743 762.91,-240.569 763.817,-247.51"/>
</g>
<!-- Node13 -->
<g id="node14" class="node"><title>Node13</title>
<g id="a_node14"><a xlink:href="spec_2packet_8h.html" target="_top" xlink:title="ODP packet descriptor. ">
<polygon fill="white" stroke="black" points="507,-224.5 507,-243.5 629,-243.5 629,-224.5 507,-224.5"/>
<text text-anchor="middle" x="568" y="-231.5" font-family="Helvetica,sans-Serif" font-size="10.00">odp/api/spec/packet.h</text>
</a>
</g>
</g>
<!-- Node7&#45;&gt;Node13 -->
<g id="edge15" class="edge"><title>Node7&#45;&gt;Node13</title>
<path fill="none" stroke="midnightblue" d="M395.483,-280.444C430.72,-271.162 487.104,-256.309 525.759,-246.127"/>
<polygon fill="midnightblue" stroke="midnightblue" points="526.891,-249.448 535.669,-243.516 525.107,-242.679 526.891,-249.448"/>
</g>
<!-- Node13&#45;&gt;Node1 -->
<g id="edge16" class="edge"><title>Node13&#45;&gt;Node1</title>
<path fill="none" stroke="midnightblue" d="M568.964,-224.351C571.593,-198.373 577.692,-118.949 562,-56 559.607,-46.4018 554.997,-36.4487 550.613,-28.3511"/>
<polygon fill="midnightblue" stroke="midnightblue" points="553.564,-26.4623 545.541,-19.5427 547.498,-29.9552 553.564,-26.4623"/>
</g>
<!-- Node13&#45;&gt;Node6 -->
<g id="edge23" class="edge"><title>Node13&#45;&gt;Node6</title>
<path fill="none" stroke="midnightblue" d="M520.515,-224.465C415.964,-205.277 172.981,-158.351 146,-132 118.24,-104.888 113.638,-56.7239 113.393,-30.0696"/>
<polygon fill="midnightblue" stroke="midnightblue" points="116.896,-29.8268 113.51,-19.7877 109.896,-29.7473 116.896,-29.8268"/>
</g>
<!-- Node14 -->
<g id="node15" class="node"><title>Node14</title>
<g id="a_node15"><a xlink:href="time_8h.html" target="_top" xlink:title="ODP time. ">
<polygon fill="white" stroke="black" points="415,-168.5 415,-187.5 501,-187.5 501,-168.5 415,-168.5"/>
<text text-anchor="middle" x="458" y="-175.5" font-family="Helvetica,sans-Serif" font-size="10.00">odp/api/time.h</text>
</a>
</g>
</g>
<!-- Node13&#45;&gt;Node14 -->
<g id="edge17" class="edge"><title>Node13&#45;&gt;Node14</title>
<path fill="none" stroke="midnightblue" d="M550.327,-224.324C532.606,-215.625 505.097,-202.12 484.712,-192.113"/>
<polygon fill="midnightblue" stroke="midnightblue" points="486.149,-188.919 475.63,-187.655 483.064,-195.203 486.149,-188.919"/>
</g>
<!-- Node14&#45;&gt;Node2 -->
<g id="edge18" class="edge"><title>Node14&#45;&gt;Node2</title>
<path fill="none" stroke="midnightblue" d="M418.704,-168.444C375.441,-159.023 305.827,-143.866 259.027,-133.675"/>
<polygon fill="midnightblue" stroke="midnightblue" points="259.628,-130.224 249.112,-131.516 258.139,-137.064 259.628,-130.224"/>
</g>
<!-- Node15 -->
<g id="node16" class="node"><title>Node15</title>
<polygon fill="white" stroke="#bfbfbf" points="366.5,-112.5 366.5,-131.5 469.5,-131.5 469.5,-112.5 366.5,-112.5"/>
<text text-anchor="middle" x="418" y="-119.5" font-family="Helvetica,sans-Serif" font-size="10.00">odp/api/abi/time.h</text>
</g>
<!-- Node14&#45;&gt;Node15 -->
<g id="edge19" class="edge"><title>Node14&#45;&gt;Node15</title>
<path fill="none" stroke="midnightblue" d="M451.395,-168.083C445.745,-160.455 437.455,-149.264 430.549,-139.941"/>
<polygon fill="midnightblue" stroke="midnightblue" points="433.247,-137.703 424.482,-131.751 427.622,-141.87 433.247,-137.703"/>
</g>
<!-- Node16 -->
<g id="node17" class="node"><title>Node16</title>
<g id="a_node17"><a xlink:href="spec_2time_8h.html" target="_top" xlink:title="ODP time. ">
<polygon fill="white" stroke="black" points="442.5,-56.5 442.5,-75.5 553.5,-75.5 553.5,-56.5 442.5,-56.5"/>
<text text-anchor="middle" x="498" y="-63.5" font-family="Helvetica,sans-Serif" font-size="10.00">odp/api/spec/time.h</text>
</a>
</g>
</g>
<!-- Node14&#45;&gt;Node16 -->
<g id="edge20" class="edge"><title>Node14&#45;&gt;Node16</title>
<path fill="none" stroke="midnightblue" d="M462.304,-168.166C466.589,-159.186 473.202,-144.81 478,-132 483.823,-116.451 489.284,-98.3714 493.023,-85.2328"/>
<polygon fill="midnightblue" stroke="midnightblue" points="496.416,-86.0952 495.729,-75.5226 489.673,-84.2158 496.416,-86.0952"/>
</g>
<!-- Node16&#45;&gt;Node1 -->
<g id="edge21" class="edge"><title>Node16&#45;&gt;Node1</title>
<path fill="none" stroke="midnightblue" d="M504.935,-56.083C510.929,-48.3768 519.752,-37.0333 527.048,-27.6531"/>
<polygon fill="midnightblue" stroke="midnightblue" points="529.817,-29.7934 533.194,-19.7511 524.291,-25.4958 529.817,-29.7934"/>
</g>
<!-- Node16&#45;&gt;Node6 -->
<g id="edge22" class="edge"><title>Node16&#45;&gt;Node6</title>
<path fill="none" stroke="midnightblue" d="M442.359,-57.2604C368.553,-46.9882 241.082,-29.225 178.038,-20.2828"/>
<polygon fill="midnightblue" stroke="midnightblue" points="178.159,-16.7649 167.766,-18.8225 177.174,-23.6952 178.159,-16.7649"/>
</g>
</g>
</svg>
