<?xml version="1.0" encoding="UTF-8" standalone="no"?>
<!DOCTYPE svg PUBLIC "-//W3C//DTD SVG 1.1//EN"
 "http://www.w3.org/Graphics/SVG/1.1/DTD/svg11.dtd">
<!-- Generated by graphviz version 2.38.0 (20140413.2041)
 -->
<!-- Title: hints.h Pages: 1 -->
<svg width="521pt" height="308pt"
 viewBox="0.00 0.00 521.00 308.00" xmlns="http://www.w3.org/2000/svg" xmlns:xlink="http://www.w3.org/1999/xlink">
<g id="graph0" class="graph" transform="scale(1 1) rotate(0) translate(4 304)">
<title>hints.h</title>
<polygon fill="white" stroke="none" points="-4,4 -4,-304 517,-304 517,4 -4,4"/>
<!-- Node3 -->
<g id="node1" class="node"><title>Node3</title>
<polygon fill="#bfbfbf" stroke="black" points="219,-280.5 219,-299.5 268,-299.5 268,-280.5 219,-280.5"/>
<text text-anchor="middle" x="243.5" y="-287.5" font-family="Helvetica,sans-Serif" font-size="10.00">hints.h</text>
</g>
<!-- Node4 -->
<g id="node2" class="node"><title>Node4</title>
<g id="a_node2"><a xlink:href="hints_8h.html" target="_top" xlink:title="ODP compiler hints. ">
<polygon fill="white" stroke="black" points="219,-224.5 219,-243.5 268,-243.5 268,-224.5 219,-224.5"/>
<text text-anchor="middle" x="243.5" y="-231.5" font-family="Helvetica,sans-Serif" font-size="10.00">hints.h</text>
</a>
</g>
</g>
<!-- Node3&#45;&gt;Node4 -->
<g id="edge1" class="edge"><title>Node3&#45;&gt;Node4</title>
<path fill="none" stroke="midnightblue" d="M243.5,-269.805C243.5,-260.91 243.5,-250.78 243.5,-243.751"/>
<polygon fill="midnightblue" stroke="midnightblue" points="240,-270.083 243.5,-280.083 247,-270.083 240,-270.083"/>
</g>
<!-- Node5 -->
<g id="node3" class="node"><title>Node5</title>
<g id="a_node3"><a xlink:href="spec_2init_8h.html" target="_top" xlink:title="init.h">
<polygon fill="white" stroke="black" points="31.5,-168.5 31.5,-187.5 71.5,-187.5 71.5,-168.5 31.5,-168.5"/>
<text text-anchor="middle" x="51.5" y="-175.5" font-family="Helvetica,sans-Serif" font-size="10.00">init.h</text>
</a>
</g>
</g>
<!-- Node4&#45;&gt;Node5 -->
<g id="edge2" class="edge"><title>Node4&#45;&gt;Node5</title>
<path fill="none" stroke="midnightblue" d="M208.787,-223.757C175.726,-214.874 124.605,-200.928 80.5,-188 77.6671,-187.17 74.6859,-186.272 71.7568,-185.376"/>
<polygon fill="midnightblue" stroke="midnightblue" points="208.289,-227.247 218.854,-226.456 210.102,-220.486 208.289,-227.247"/>
</g>
<!-- Node9 -->
<g id="node7" class="node"><title>Node9</title>
<g id="a_node7"><a xlink:href="cpu__inlines_8h_source.html" target="_top" xlink:title="cpu_inlines.h">
<polygon fill="white" stroke="black" points="89.5,-168.5 89.5,-187.5 167.5,-187.5 167.5,-168.5 89.5,-168.5"/>
<text text-anchor="middle" x="128.5" y="-175.5" font-family="Helvetica,sans-Serif" font-size="10.00">cpu_inlines.h</text>
</a>
</g>
</g>
<!-- Node4&#45;&gt;Node9 -->
<g id="edge6" class="edge"><title>Node4&#45;&gt;Node9</title>
<path fill="none" stroke="midnightblue" d="M216.019,-220.096C194.534,-210.007 165.278,-196.27 146.637,-187.516"/>
<polygon fill="midnightblue" stroke="midnightblue" points="214.738,-223.361 225.278,-224.444 217.714,-217.025 214.738,-223.361"/>
</g>
<!-- Node10 -->
<g id="node8" class="node"><title>Node10</title>
<g id="a_node8"><a xlink:href="packet__flag__inlines_8h.html" target="_top" xlink:title="Packet inline functions. ">
<polygon fill="white" stroke="black" points="185.5,-168.5 185.5,-187.5 301.5,-187.5 301.5,-168.5 185.5,-168.5"/>
<text text-anchor="middle" x="243.5" y="-175.5" font-family="Helvetica,sans-Serif" font-size="10.00">packet_flag_inlines.h</text>
</a>
</g>
</g>
<!-- Node4&#45;&gt;Node10 -->
<g id="edge7" class="edge"><title>Node4&#45;&gt;Node10</title>
<path fill="none" stroke="midnightblue" d="M243.5,-213.805C243.5,-204.91 243.5,-194.78 243.5,-187.751"/>
<polygon fill="midnightblue" stroke="midnightblue" points="240,-214.083 243.5,-224.083 247,-214.083 240,-214.083"/>
</g>
<!-- Node11 -->
<g id="node9" class="node"><title>Node11</title>
<g id="a_node9"><a xlink:href="packet__inlines_8h.html" target="_top" xlink:title="Packet inline functions. ">
<polygon fill="white" stroke="black" points="319,-168.5 319,-187.5 412,-187.5 412,-168.5 319,-168.5"/>
<text text-anchor="middle" x="365.5" y="-175.5" font-family="Helvetica,sans-Serif" font-size="10.00">packet_inlines.h</text>
</a>
</g>
</g>
<!-- Node4&#45;&gt;Node11 -->
<g id="edge8" class="edge"><title>Node4&#45;&gt;Node11</title>
<path fill="none" stroke="midnightblue" d="M272.039,-220.368C294.886,-210.255 326.305,-196.349 346.259,-187.516"/>
<polygon fill="midnightblue" stroke="midnightblue" points="270.559,-217.196 262.831,-224.444 273.392,-223.597 270.559,-217.196"/>
</g>
<!-- Node12 -->
<g id="node10" class="node"><title>Node12</title>
<g id="a_node10"><a xlink:href="time__inlines_8h_source.html" target="_top" xlink:title="time_inlines.h">
<polygon fill="white" stroke="black" points="430,-168.5 430,-187.5 513,-187.5 513,-168.5 430,-168.5"/>
<text text-anchor="middle" x="471.5" y="-175.5" font-family="Helvetica,sans-Serif" font-size="10.00">time_inlines.h</text>
</a>
</g>
</g>
<!-- Node4&#45;&gt;Node12 -->
<g id="edge9" class="edge"><title>Node4&#45;&gt;Node12</title>
<path fill="none" stroke="midnightblue" d="M278.224,-224.776C320.739,-214.707 392.39,-197.737 435.485,-187.53"/>
<polygon fill="midnightblue" stroke="midnightblue" points="277.258,-221.408 268.334,-227.118 278.871,-228.219 277.258,-221.408"/>
</g>
<!-- Node6 -->
<g id="node4" class="node"><title>Node6</title>
<g id="a_node4"><a xlink:href="init_8h.html" target="_top" xlink:title="ODP initialization. ">
<polygon fill="white" stroke="black" points="31.5,-112.5 31.5,-131.5 71.5,-131.5 71.5,-112.5 31.5,-112.5"/>
<text text-anchor="middle" x="51.5" y="-119.5" font-family="Helvetica,sans-Serif" font-size="10.00">init.h</text>
</a>
</g>
</g>
<!-- Node5&#45;&gt;Node6 -->
<g id="edge3" class="edge"><title>Node5&#45;&gt;Node6</title>
<path fill="none" stroke="midnightblue" d="M51.5,-157.805C51.5,-148.91 51.5,-138.78 51.5,-131.751"/>
<polygon fill="midnightblue" stroke="midnightblue" points="48.0001,-158.083 51.5,-168.083 55.0001,-158.083 48.0001,-158.083"/>
</g>
<!-- Node7 -->
<g id="node5" class="node"><title>Node7</title>
<g id="a_node5"><a xlink:href="spec_2shared__memory_8h.html" target="_top" xlink:title="ODP shared memory. ">
<polygon fill="white" stroke="black" points="0,-56.5 0,-75.5 103,-75.5 103,-56.5 0,-56.5"/>
<text text-anchor="middle" x="51.5" y="-63.5" font-family="Helvetica,sans-Serif" font-size="10.00">shared_memory.h</text>
</a>
</g>
</g>
<!-- Node6&#45;&gt;Node7 -->
<g id="edge4" class="edge"><title>Node6&#45;&gt;Node7</title>
<path fill="none" stroke="midnightblue" d="M51.5,-101.805C51.5,-92.9102 51.5,-82.7798 51.5,-75.7511"/>
<polygon fill="midnightblue" stroke="midnightblue" points="48.0001,-102.083 51.5,-112.083 55.0001,-102.083 48.0001,-102.083"/>
</g>
<!-- Node8 -->
<g id="node6" class="node"><title>Node8</title>
<g id="a_node6"><a xlink:href="shared__memory_8h.html" target="_top" xlink:title="ODP shared memory. ">
<polygon fill="white" stroke="black" points="0,-0.5 0,-19.5 103,-19.5 103,-0.5 0,-0.5"/>
<text text-anchor="middle" x="51.5" y="-7.5" font-family="Helvetica,sans-Serif" font-size="10.00">shared_memory.h</text>
</a>
</g>
</g>
<!-- Node7&#45;&gt;Node8 -->
<g id="edge5" class="edge"><title>Node7&#45;&gt;Node8</title>
<path fill="none" stroke="midnightblue" d="M51.5,-45.8045C51.5,-36.9102 51.5,-26.7798 51.5,-19.7511"/>
<polygon fill="midnightblue" stroke="midnightblue" points="48.0001,-46.083 51.5,-56.083 55.0001,-46.083 48.0001,-46.083"/>
</g>
</g>
</svg>
