<?xml version="1.0" encoding="UTF-8" standalone="no"?>
<!DOCTYPE svg PUBLIC "-//W3C//DTD SVG 1.1//EN"
 "http://www.w3.org/Graphics/SVG/1.1/DTD/svg11.dtd">
<!-- Generated by graphviz version 2.38.0 (20140413.2041)
 -->
<!-- Title: packet.h Pages: 1 -->
<svg width="353pt" height="644pt"
 viewBox="0.00 0.00 352.50 644.00" xmlns="http://www.w3.org/2000/svg" xmlns:xlink="http://www.w3.org/1999/xlink">
<g id="graph0" class="graph" transform="scale(1 1) rotate(0) translate(4 640)">
<title>packet.h</title>
<polygon fill="white" stroke="none" points="-4,4 -4,-640 348.5,-640 348.5,4 -4,4"/>
<!-- Node10 -->
<g id="node1" class="node"><title>Node10</title>
<polygon fill="#bfbfbf" stroke="black" points="146.5,-616.5 146.5,-635.5 204.5,-635.5 204.5,-616.5 146.5,-616.5"/>
<text text-anchor="middle" x="175.5" y="-623.5" font-family="Helvetica,sans-Serif" font-size="10.00">packet.h</text>
</g>
<!-- Node11 -->
<g id="node2" class="node"><title>Node11</title>
<g id="a_node2"><a xlink:href="packet_8h.html" target="_top" xlink:title="ODP packet descriptor. ">
<polygon fill="white" stroke="black" points="146.5,-560.5 146.5,-579.5 204.5,-579.5 204.5,-560.5 146.5,-560.5"/>
<text text-anchor="middle" x="175.5" y="-567.5" font-family="Helvetica,sans-Serif" font-size="10.00">packet.h</text>
</a>
</g>
</g>
<!-- Node10&#45;&gt;Node11 -->
<g id="edge1" class="edge"><title>Node10&#45;&gt;Node11</title>
<path fill="none" stroke="midnightblue" d="M175.5,-605.805C175.5,-596.91 175.5,-586.78 175.5,-579.751"/>
<polygon fill="midnightblue" stroke="midnightblue" points="172,-606.083 175.5,-616.083 179,-606.083 172,-606.083"/>
</g>
<!-- Node12 -->
<g id="node3" class="node"><title>Node12</title>
<g id="a_node3"><a xlink:href="spec_2comp_8h.html" target="_top" xlink:title="ODP Compression. ">
<polygon fill="white" stroke="black" points="38,-504.5 38,-523.5 91,-523.5 91,-504.5 38,-504.5"/>
<text text-anchor="middle" x="64.5" y="-511.5" font-family="Helvetica,sans-Serif" font-size="10.00">comp.h</text>
</a>
</g>
</g>
<!-- Node11&#45;&gt;Node12 -->
<g id="edge2" class="edge"><title>Node11&#45;&gt;Node12</title>
<path fill="none" stroke="midnightblue" d="M148.495,-555.862C127.912,-545.849 100.155,-532.346 82.2898,-523.655"/>
<polygon fill="midnightblue" stroke="midnightblue" points="147.142,-559.097 157.666,-560.324 150.205,-552.802 147.142,-559.097"/>
</g>
<!-- Node14 -->
<g id="node5" class="node"><title>Node14</title>
<g id="a_node5"><a xlink:href="spec_2crypto_8h.html" target="_top" xlink:title="ODP crypto. ">
<polygon fill="white" stroke="black" points="259.5,-392.5 259.5,-411.5 315.5,-411.5 315.5,-392.5 259.5,-392.5"/>
<text text-anchor="middle" x="287.5" y="-399.5" font-family="Helvetica,sans-Serif" font-size="10.00">crypto.h</text>
</a>
</g>
</g>
<!-- Node11&#45;&gt;Node14 -->
<g id="edge4" class="edge"><title>Node11&#45;&gt;Node14</title>
<path fill="none" stroke="midnightblue" d="M189.445,-552.611C196.194,-544.309 204.182,-533.91 210.5,-524 230.91,-491.987 228.45,-479.596 249.5,-448 258.458,-434.554 270.833,-420.564 278.995,-411.824"/>
<polygon fill="midnightblue" stroke="midnightblue" points="186.678,-550.465 182.983,-560.395 192.063,-554.937 186.678,-550.465"/>
</g>
<!-- Node18 -->
<g id="node9" class="node"><title>Node18</title>
<g id="a_node9"><a xlink:href="spec_2event_8h.html" target="_top" xlink:title="ODP event. ">
<polygon fill="white" stroke="black" points="149,-504.5 149,-523.5 202,-523.5 202,-504.5 149,-504.5"/>
<text text-anchor="middle" x="175.5" y="-511.5" font-family="Helvetica,sans-Serif" font-size="10.00">event.h</text>
</a>
</g>
</g>
<!-- Node11&#45;&gt;Node18 -->
<g id="edge8" class="edge"><title>Node11&#45;&gt;Node18</title>
<path fill="none" stroke="midnightblue" d="M175.5,-549.805C175.5,-540.91 175.5,-530.78 175.5,-523.751"/>
<polygon fill="midnightblue" stroke="midnightblue" points="172,-550.083 175.5,-560.083 179,-550.083 172,-550.083"/>
</g>
<!-- Node22 -->
<g id="node13" class="node"><title>Node22</title>
<g id="a_node13"><a xlink:href="spec_2packet__io_8h.html" target="_top" xlink:title="ODP Packet IO. ">
<polygon fill="white" stroke="black" points="84,-280.5 84,-299.5 155,-299.5 155,-280.5 84,-280.5"/>
<text text-anchor="middle" x="119.5" y="-287.5" font-family="Helvetica,sans-Serif" font-size="10.00">packet_io.h</text>
</a>
</g>
</g>
<!-- Node11&#45;&gt;Node22 -->
<g id="edge26" class="edge"><title>Node11&#45;&gt;Node22</title>
<path fill="none" stroke="midnightblue" d="M160.075,-552.813C153,-544.682 144.986,-534.37 139.5,-524 125.365,-497.283 119.5,-489.225 119.5,-459 119.5,-459 119.5,-459 119.5,-401 119.5,-363.188 119.5,-318.064 119.5,-299.558"/>
<polygon fill="midnightblue" stroke="midnightblue" points="157.652,-555.352 166.962,-560.408 162.837,-550.649 157.652,-555.352"/>
</g>
<!-- Node30 -->
<g id="node21" class="node"><title>Node30</title>
<g id="a_node21"><a xlink:href="spec_2packet__flags_8h.html" target="_top" xlink:title="ODP packet flags. ">
<polygon fill="white" stroke="black" points="258.5,-504.5 258.5,-523.5 344.5,-523.5 344.5,-504.5 258.5,-504.5"/>
<text text-anchor="middle" x="301.5" y="-511.5" font-family="Helvetica,sans-Serif" font-size="10.00">packet_flags.h</text>
</a>
</g>
</g>
<!-- Node11&#45;&gt;Node30 -->
<g id="edge24" class="edge"><title>Node11&#45;&gt;Node30</title>
<path fill="none" stroke="midnightblue" d="M204.66,-556.503C228.281,-546.38 260.928,-532.388 281.628,-523.516"/>
<polygon fill="midnightblue" stroke="midnightblue" points="203.278,-553.287 195.465,-560.444 206.035,-559.721 203.278,-553.287"/>
</g>
<!-- Node13 -->
<g id="node4" class="node"><title>Node13</title>
<g id="a_node4"><a xlink:href="comp_8h.html" target="_top" xlink:title="ODP crypto. ">
<polygon fill="white" stroke="black" points="38,-448.5 38,-467.5 91,-467.5 91,-448.5 38,-448.5"/>
<text text-anchor="middle" x="64.5" y="-455.5" font-family="Helvetica,sans-Serif" font-size="10.00">comp.h</text>
</a>
</g>
</g>
<!-- Node12&#45;&gt;Node13 -->
<g id="edge3" class="edge"><title>Node12&#45;&gt;Node13</title>
<path fill="none" stroke="midnightblue" d="M64.5,-493.805C64.5,-484.91 64.5,-474.78 64.5,-467.751"/>
<polygon fill="midnightblue" stroke="midnightblue" points="61.0001,-494.083 64.5,-504.083 68.0001,-494.083 61.0001,-494.083"/>
</g>
<!-- Node15 -->
<g id="node6" class="node"><title>Node15</title>
<g id="a_node6"><a xlink:href="crypto_8h.html" target="_top" xlink:title="ODP crypto. ">
<polygon fill="white" stroke="black" points="259.5,-280.5 259.5,-299.5 315.5,-299.5 315.5,-280.5 259.5,-280.5"/>
<text text-anchor="middle" x="287.5" y="-287.5" font-family="Helvetica,sans-Serif" font-size="10.00">crypto.h</text>
</a>
</g>
</g>
<!-- Node14&#45;&gt;Node15 -->
<g id="edge5" class="edge"><title>Node14&#45;&gt;Node15</title>
<path fill="none" stroke="midnightblue" d="M287.5,-382.348C287.5,-358.254 287.5,-317.308 287.5,-299.591"/>
<polygon fill="midnightblue" stroke="midnightblue" points="284,-382.368 287.5,-392.368 291,-382.369 284,-382.368"/>
</g>
<!-- Node16 -->
<g id="node7" class="node"><title>Node16</title>
<g id="a_node7"><a xlink:href="spec_2ipsec_8h.html" target="_top" xlink:title="ODP IPSEC API. ">
<polygon fill="white" stroke="black" points="190.5,-56.5 190.5,-75.5 240.5,-75.5 240.5,-56.5 190.5,-56.5"/>
<text text-anchor="middle" x="215.5" y="-63.5" font-family="Helvetica,sans-Serif" font-size="10.00">ipsec.h</text>
</a>
</g>
</g>
<!-- Node15&#45;&gt;Node16 -->
<g id="edge6" class="edge"><title>Node15&#45;&gt;Node16</title>
<path fill="none" stroke="midnightblue" d="M281.946,-270.711C272.118,-238.517 250.868,-169.668 231.5,-112 227.223,-99.2665 221.952,-84.6285 218.658,-75.5956"/>
<polygon fill="midnightblue" stroke="midnightblue" points="278.663,-271.945 284.924,-280.491 285.359,-269.905 278.663,-271.945"/>
</g>
<!-- Node17 -->
<g id="node8" class="node"><title>Node17</title>
<g id="a_node8"><a xlink:href="ipsec_8h.html" target="_top" xlink:title="ODP IPSEC API &#45; platform specific header. ">
<polygon fill="white" stroke="black" points="190.5,-0.5 190.5,-19.5 240.5,-19.5 240.5,-0.5 190.5,-0.5"/>
<text text-anchor="middle" x="215.5" y="-7.5" font-family="Helvetica,sans-Serif" font-size="10.00">ipsec.h</text>
</a>
</g>
</g>
<!-- Node16&#45;&gt;Node17 -->
<g id="edge7" class="edge"><title>Node16&#45;&gt;Node17</title>
<path fill="none" stroke="midnightblue" d="M215.5,-45.8045C215.5,-36.9102 215.5,-26.7798 215.5,-19.7511"/>
<polygon fill="midnightblue" stroke="midnightblue" points="212,-46.083 215.5,-56.083 219,-46.083 212,-46.083"/>
</g>
<!-- Node19 -->
<g id="node10" class="node"><title>Node19</title>
<g id="a_node10"><a xlink:href="event_8h.html" target="_top" xlink:title="ODP event. ">
<polygon fill="white" stroke="black" points="149,-448.5 149,-467.5 202,-467.5 202,-448.5 149,-448.5"/>
<text text-anchor="middle" x="175.5" y="-455.5" font-family="Helvetica,sans-Serif" font-size="10.00">event.h</text>
</a>
</g>
</g>
<!-- Node18&#45;&gt;Node19 -->
<g id="edge9" class="edge"><title>Node18&#45;&gt;Node19</title>
<path fill="none" stroke="midnightblue" d="M175.5,-493.805C175.5,-484.91 175.5,-474.78 175.5,-467.751"/>
<polygon fill="midnightblue" stroke="midnightblue" points="172,-494.083 175.5,-504.083 179,-494.083 172,-494.083"/>
</g>
<!-- Node20 -->
<g id="node11" class="node"><title>Node20</title>
<g id="a_node11"><a xlink:href="spec_2queue_8h.html" target="_top" xlink:title="ODP queue. ">
<polygon fill="white" stroke="black" points="147.5,-392.5 147.5,-411.5 203.5,-411.5 203.5,-392.5 147.5,-392.5"/>
<text text-anchor="middle" x="175.5" y="-399.5" font-family="Helvetica,sans-Serif" font-size="10.00">queue.h</text>
</a>
</g>
</g>
<!-- Node19&#45;&gt;Node20 -->
<g id="edge10" class="edge"><title>Node19&#45;&gt;Node20</title>
<path fill="none" stroke="midnightblue" d="M175.5,-437.805C175.5,-428.91 175.5,-418.78 175.5,-411.751"/>
<polygon fill="midnightblue" stroke="midnightblue" points="172,-438.083 175.5,-448.083 179,-438.083 172,-438.083"/>
</g>
<!-- Node28 -->
<g id="node19" class="node"><title>Node28</title>
<g id="a_node19"><a xlink:href="spec_2schedule_8h.html" target="_top" xlink:title="ODP schedule. ">
<polygon fill="white" stroke="black" points="173.5,-280.5 173.5,-299.5 241.5,-299.5 241.5,-280.5 173.5,-280.5"/>
<text text-anchor="middle" x="207.5" y="-287.5" font-family="Helvetica,sans-Serif" font-size="10.00">schedule.h</text>
</a>
</g>
</g>
<!-- Node19&#45;&gt;Node28 -->
<g id="edge23" class="edge"><title>Node19&#45;&gt;Node28</title>
<path fill="none" stroke="midnightblue" d="M193.14,-441.152C200.643,-433.231 208.559,-422.997 212.5,-412 226.826,-372.019 215.431,-319.796 209.986,-299.543"/>
<polygon fill="midnightblue" stroke="midnightblue" points="190.608,-438.734 185.938,-448.245 195.519,-443.722 190.608,-438.734"/>
</g>
<!-- Node21 -->
<g id="node12" class="node"><title>Node21</title>
<g id="a_node12"><a xlink:href="queue_8h.html" target="_top" xlink:title="ODP queue. ">
<polygon fill="white" stroke="black" points="147.5,-336.5 147.5,-355.5 203.5,-355.5 203.5,-336.5 147.5,-336.5"/>
<text text-anchor="middle" x="175.5" y="-343.5" font-family="Helvetica,sans-Serif" font-size="10.00">queue.h</text>
</a>
</g>
</g>
<!-- Node20&#45;&gt;Node21 -->
<g id="edge11" class="edge"><title>Node20&#45;&gt;Node21</title>
<path fill="none" stroke="midnightblue" d="M175.5,-381.805C175.5,-372.91 175.5,-362.78 175.5,-355.751"/>
<polygon fill="midnightblue" stroke="midnightblue" points="172,-382.083 175.5,-392.083 179,-382.083 172,-382.083"/>
</g>
<!-- Node21&#45;&gt;Node15 -->
<g id="edge12" class="edge"><title>Node21&#45;&gt;Node15</title>
<path fill="none" stroke="midnightblue" d="M202.749,-331.862C223.516,-321.849 251.523,-308.346 269.55,-299.655"/>
<polygon fill="midnightblue" stroke="midnightblue" points="200.982,-328.828 193.495,-336.324 204.023,-335.134 200.982,-328.828"/>
</g>
<!-- Node21&#45;&gt;Node22 -->
<g id="edge13" class="edge"><title>Node21&#45;&gt;Node22</title>
<path fill="none" stroke="midnightblue" d="M159.17,-329.253C149.235,-319.673 136.912,-307.791 128.661,-299.834"/>
<polygon fill="midnightblue" stroke="midnightblue" points="156.875,-331.902 166.503,-336.324 161.734,-326.863 156.875,-331.902"/>
</g>
<!-- Node21&#45;&gt;Node28 -->
<g id="edge21" class="edge"><title>Node21&#45;&gt;Node28</title>
<path fill="none" stroke="midnightblue" d="M186.004,-327.275C191.473,-318.045 197.918,-307.17 202.314,-299.751"/>
<polygon fill="midnightblue" stroke="midnightblue" points="182.871,-325.696 180.784,-336.083 188.893,-329.264 182.871,-325.696"/>
</g>
<!-- Node23 -->
<g id="node14" class="node"><title>Node23</title>
<g id="a_node14"><a xlink:href="packet__io_8h.html" target="_top" xlink:title="ODP Packet IO. ">
<polygon fill="white" stroke="black" points="84,-224.5 84,-243.5 155,-243.5 155,-224.5 84,-224.5"/>
<text text-anchor="middle" x="119.5" y="-231.5" font-family="Helvetica,sans-Serif" font-size="10.00">packet_io.h</text>
</a>
</g>
</g>
<!-- Node22&#45;&gt;Node23 -->
<g id="edge14" class="edge"><title>Node22&#45;&gt;Node23</title>
<path fill="none" stroke="midnightblue" d="M119.5,-269.805C119.5,-260.91 119.5,-250.78 119.5,-243.751"/>
<polygon fill="midnightblue" stroke="midnightblue" points="116,-270.083 119.5,-280.083 123,-270.083 116,-270.083"/>
</g>
<!-- Node23&#45;&gt;Node16 -->
<g id="edge18" class="edge"><title>Node23&#45;&gt;Node16</title>
<path fill="none" stroke="midnightblue" d="M154.996,-220.334C170.112,-213.15 186.526,-202.616 196.5,-188 220.952,-152.169 218.499,-96.6075 216.493,-75.514"/>
<polygon fill="midnightblue" stroke="midnightblue" points="153.558,-217.143 145.821,-224.381 156.383,-223.548 153.558,-217.143"/>
</g>
<!-- Node24 -->
<g id="node15" class="node"><title>Node24</title>
<g id="a_node15"><a xlink:href="spec_2classification_8h.html" target="_top" xlink:title="ODP classification descriptor. ">
<polygon fill="white" stroke="black" points="101.5,-168.5 101.5,-187.5 187.5,-187.5 187.5,-168.5 101.5,-168.5"/>
<text text-anchor="middle" x="144.5" y="-175.5" font-family="Helvetica,sans-Serif" font-size="10.00">classification.h</text>
</a>
</g>
</g>
<!-- Node23&#45;&gt;Node24 -->
<g id="edge15" class="edge"><title>Node23&#45;&gt;Node24</title>
<path fill="none" stroke="midnightblue" d="M127.841,-214.983C132.085,-205.817 137.05,-195.092 140.449,-187.751"/>
<polygon fill="midnightblue" stroke="midnightblue" points="124.653,-213.538 123.628,-224.083 131.006,-216.479 124.653,-213.538"/>
</g>
<!-- Node26 -->
<g id="node17" class="node"><title>Node26</title>
<g id="a_node17"><a xlink:href="spec_2traffic__mngr_8h.html" target="_top" xlink:title="Copyright (c) 2015&#45;2018, Linaro Limited All rights reserved. ">
<polygon fill="white" stroke="black" points="0,-168.5 0,-187.5 83,-187.5 83,-168.5 0,-168.5"/>
<text text-anchor="middle" x="41.5" y="-175.5" font-family="Helvetica,sans-Serif" font-size="10.00">traffic_mngr.h</text>
</a>
</g>
</g>
<!-- Node23&#45;&gt;Node26 -->
<g id="edge19" class="edge"><title>Node23&#45;&gt;Node26</title>
<path fill="none" stroke="midnightblue" d="M98.732,-218.622C84.4829,-208.757 66.0438,-195.992 54.0009,-187.655"/>
<polygon fill="midnightblue" stroke="midnightblue" points="96.7538,-221.51 106.968,-224.324 100.738,-215.754 96.7538,-221.51"/>
</g>
<!-- Node25 -->
<g id="node16" class="node"><title>Node25</title>
<g id="a_node16"><a xlink:href="classification_8h.html" target="_top" xlink:title="ODP classification descriptor. ">
<polygon fill="white" stroke="black" points="101.5,-112.5 101.5,-131.5 187.5,-131.5 187.5,-112.5 101.5,-112.5"/>
<text text-anchor="middle" x="144.5" y="-119.5" font-family="Helvetica,sans-Serif" font-size="10.00">classification.h</text>
</a>
</g>
</g>
<!-- Node24&#45;&gt;Node25 -->
<g id="edge16" class="edge"><title>Node24&#45;&gt;Node25</title>
<path fill="none" stroke="midnightblue" d="M144.5,-157.805C144.5,-148.91 144.5,-138.78 144.5,-131.751"/>
<polygon fill="midnightblue" stroke="midnightblue" points="141,-158.083 144.5,-168.083 148,-158.083 141,-158.083"/>
</g>
<!-- Node25&#45;&gt;Node16 -->
<g id="edge17" class="edge"><title>Node25&#45;&gt;Node16</title>
<path fill="none" stroke="midnightblue" d="M164.09,-106.101C176.868,-96.3824 193.113,-84.0269 203.885,-75.8339"/>
<polygon fill="midnightblue" stroke="midnightblue" points="161.748,-103.484 155.907,-112.324 165.986,-109.056 161.748,-103.484"/>
</g>
<!-- Node27 -->
<g id="node18" class="node"><title>Node27</title>
<g id="a_node18"><a xlink:href="traffic__mngr_8h.html" target="_top" xlink:title="ODP Traffic manager. ">
<polygon fill="white" stroke="black" points="0,-112.5 0,-131.5 83,-131.5 83,-112.5 0,-112.5"/>
<text text-anchor="middle" x="41.5" y="-119.5" font-family="Helvetica,sans-Serif" font-size="10.00">traffic_mngr.h</text>
</a>
</g>
</g>
<!-- Node26&#45;&gt;Node27 -->
<g id="edge20" class="edge"><title>Node26&#45;&gt;Node27</title>
<path fill="none" stroke="midnightblue" d="M41.5,-157.805C41.5,-148.91 41.5,-138.78 41.5,-131.751"/>
<polygon fill="midnightblue" stroke="midnightblue" points="38.0001,-158.083 41.5,-168.083 45.0001,-158.083 38.0001,-158.083"/>
</g>
<!-- Node29 -->
<g id="node20" class="node"><title>Node29</title>
<g id="a_node20"><a xlink:href="schedule_8h.html" target="_top" xlink:title="ODP schedule. ">
<polygon fill="white" stroke="black" points="173.5,-224.5 173.5,-243.5 241.5,-243.5 241.5,-224.5 173.5,-224.5"/>
<text text-anchor="middle" x="207.5" y="-231.5" font-family="Helvetica,sans-Serif" font-size="10.00">schedule.h</text>
</a>
</g>
</g>
<!-- Node28&#45;&gt;Node29 -->
<g id="edge22" class="edge"><title>Node28&#45;&gt;Node29</title>
<path fill="none" stroke="midnightblue" d="M207.5,-269.805C207.5,-260.91 207.5,-250.78 207.5,-243.751"/>
<polygon fill="midnightblue" stroke="midnightblue" points="204,-270.083 207.5,-280.083 211,-270.083 204,-270.083"/>
</g>
<!-- Node31 -->
<g id="node22" class="node"><title>Node31</title>
<g id="a_node22"><a xlink:href="packet__flags_8h.html" target="_top" xlink:title="ODP packet flags. ">
<polygon fill="white" stroke="black" points="258.5,-448.5 258.5,-467.5 344.5,-467.5 344.5,-448.5 258.5,-448.5"/>
<text text-anchor="middle" x="301.5" y="-455.5" font-family="Helvetica,sans-Serif" font-size="10.00">packet_flags.h</text>
</a>
</g>
</g>
<!-- Node30&#45;&gt;Node31 -->
<g id="edge25" class="edge"><title>Node30&#45;&gt;Node31</title>
<path fill="none" stroke="midnightblue" d="M301.5,-493.805C301.5,-484.91 301.5,-474.78 301.5,-467.751"/>
<polygon fill="midnightblue" stroke="midnightblue" points="298,-494.083 301.5,-504.083 305,-494.083 298,-494.083"/>
</g>
</g>
</svg>
