<?xml version="1.0" encoding="UTF-8" standalone="no"?>
<!DOCTYPE svg PUBLIC "-//W3C//DTD SVG 1.1//EN"
 "http://www.w3.org/Graphics/SVG/1.1/DTD/svg11.dtd">
<!-- Generated by graphviz version 2.38.0 (20140413.2041)
 -->
<!-- Title: schedule_types.h Pages: 1 -->
<svg width="261pt" height="196pt"
 viewBox="0.00 0.00 261.00 196.00" xmlns="http://www.w3.org/2000/svg" xmlns:xlink="http://www.w3.org/1999/xlink">
<g id="graph0" class="graph" transform="scale(1 1) rotate(0) translate(4 192)">
<title>schedule_types.h</title>
<polygon fill="white" stroke="none" points="-4,4 -4,-192 257,-192 257,4 -4,4"/>
<!-- Node0 -->
<g id="node1" class="node"><title>Node0</title>
<polygon fill="#bfbfbf" stroke="black" points="72.5,-168.5 72.5,-187.5 172.5,-187.5 172.5,-168.5 72.5,-168.5"/>
<text text-anchor="middle" x="122.5" y="-175.5" font-family="Helvetica,sans-Serif" font-size="10.00">schedule_types.h</text>
</g>
<!-- Node1 -->
<g id="node2" class="node"><title>Node1</title>
<polygon fill="white" stroke="#bfbfbf" points="0,-0.5 0,-19.5 115,-19.5 115,-0.5 0,-0.5"/>
<text text-anchor="middle" x="57.5" y="-7.5" font-family="Helvetica,sans-Serif" font-size="10.00">odp/visibility_begin.h</text>
</g>
<!-- Node0&#45;&gt;Node1 -->
<g id="edge1" class="edge"><title>Node0&#45;&gt;Node1</title>
<path fill="none" stroke="midnightblue" d="M105.02,-168.398C91.317,-160.736 72.8861,-148.233 62.5,-132 42.4624,-100.683 47.7211,-54.8971 52.8899,-29.5734"/>
<polygon fill="midnightblue" stroke="midnightblue" points="56.3108,-30.3136 55.0964,-19.7886 49.4822,-28.7737 56.3108,-30.3136"/>
</g>
<!-- Node2 -->
<g id="node3" class="node"><title>Node2</title>
<g id="a_node3"><a xlink:href="support_8h.html" target="_top" xlink:title="ODP support API &#45; platform specific header. ">
<polygon fill="white" stroke="black" points="72,-112.5 72,-131.5 173,-131.5 173,-112.5 72,-112.5"/>
<text text-anchor="middle" x="122.5" y="-119.5" font-family="Helvetica,sans-Serif" font-size="10.00">odp/api/support.h</text>
</a>
</g>
</g>
<!-- Node0&#45;&gt;Node2 -->
<g id="edge2" class="edge"><title>Node0&#45;&gt;Node2</title>
<path fill="none" stroke="midnightblue" d="M122.5,-168.083C122.5,-161.006 122.5,-150.861 122.5,-141.986"/>
<polygon fill="midnightblue" stroke="midnightblue" points="126,-141.751 122.5,-131.751 119,-141.751 126,-141.751"/>
</g>
<!-- Node4 -->
<g id="node5" class="node"><title>Node4</title>
<polygon fill="white" stroke="#bfbfbf" points="146,-0.5 146,-19.5 253,-19.5 253,-0.5 146,-0.5"/>
<text text-anchor="middle" x="199.5" y="-7.5" font-family="Helvetica,sans-Serif" font-size="10.00">odp/visibility_end.h</text>
</g>
<!-- Node0&#45;&gt;Node4 -->
<g id="edge6" class="edge"><title>Node0&#45;&gt;Node4</title>
<path fill="none" stroke="midnightblue" d="M139.346,-168.437C152.805,-160.721 171.083,-148.122 181.5,-132 201.79,-100.598 202.687,-55.1662 201.267,-29.8492"/>
<polygon fill="midnightblue" stroke="midnightblue" points="204.749,-29.4666 200.514,-19.7551 197.768,-29.988 204.749,-29.4666"/>
</g>
<!-- Node3 -->
<g id="node4" class="node"><title>Node3</title>
<g id="a_node4"><a xlink:href="spec_2support_8h.html" target="_top" xlink:title="ODP support API. ">
<polygon fill="white" stroke="black" points="59.5,-56.5 59.5,-75.5 185.5,-75.5 185.5,-56.5 59.5,-56.5"/>
<text text-anchor="middle" x="122.5" y="-63.5" font-family="Helvetica,sans-Serif" font-size="10.00">odp/api/spec/support.h</text>
</a>
</g>
</g>
<!-- Node2&#45;&gt;Node3 -->
<g id="edge3" class="edge"><title>Node2&#45;&gt;Node3</title>
<path fill="none" stroke="midnightblue" d="M122.5,-112.083C122.5,-105.006 122.5,-94.8611 122.5,-85.9865"/>
<polygon fill="midnightblue" stroke="midnightblue" points="126,-85.751 122.5,-75.7511 119,-85.7511 126,-85.751"/>
</g>
<!-- Node3&#45;&gt;Node1 -->
<g id="edge4" class="edge"><title>Node3&#45;&gt;Node1</title>
<path fill="none" stroke="midnightblue" d="M112.057,-56.324C102.354,-48.2631 87.6847,-36.0765 76.0003,-26.3695"/>
<polygon fill="midnightblue" stroke="midnightblue" points="78.0619,-23.532 68.1334,-19.8339 73.5887,-28.9163 78.0619,-23.532"/>
</g>
<!-- Node3&#45;&gt;Node4 -->
<g id="edge5" class="edge"><title>Node3&#45;&gt;Node4</title>
<path fill="none" stroke="midnightblue" d="M134.871,-56.324C146.658,-48.0577 164.632,-35.4527 178.636,-25.6322"/>
<polygon fill="midnightblue" stroke="midnightblue" points="180.982,-28.2619 187.159,-19.6545 176.962,-22.5307 180.982,-28.2619"/>
</g>
</g>
</svg>
