<?xml version="1.0" encoding="UTF-8" standalone="no"?>
<!DOCTYPE svg PUBLIC "-//W3C//DTD SVG 1.1//EN"
 "http://www.w3.org/Graphics/SVG/1.1/DTD/svg11.dtd">
<!-- Generated by graphviz version 2.38.0 (20140413.2041)
 -->
<!-- Title: support.h Pages: 1 -->
<svg width="416pt" height="700pt"
 viewBox="0.00 0.00 415.50 700.00" xmlns="http://www.w3.org/2000/svg" xmlns:xlink="http://www.w3.org/1999/xlink">
<g id="graph0" class="graph" transform="scale(1 1) rotate(0) translate(4 696)">
<title>support.h</title>
<polygon fill="white" stroke="none" points="-4,4 -4,-696 411.5,-696 411.5,4 -4,4"/>
<!-- Node3 -->
<g id="node1" class="node"><title>Node3</title>
<polygon fill="#bfbfbf" stroke="black" points="239,-672.5 239,-691.5 301,-691.5 301,-672.5 239,-672.5"/>
<text text-anchor="middle" x="270" y="-679.5" font-family="Helvetica,sans-Serif" font-size="10.00">support.h</text>
</g>
<!-- Node4 -->
<g id="node2" class="node"><title>Node4</title>
<g id="a_node2"><a xlink:href="support_8h.html" target="_top" xlink:title="ODP support API &#45; platform specific header. ">
<polygon fill="white" stroke="black" points="239,-616.5 239,-635.5 301,-635.5 301,-616.5 239,-616.5"/>
<text text-anchor="middle" x="270" y="-623.5" font-family="Helvetica,sans-Serif" font-size="10.00">support.h</text>
</a>
</g>
</g>
<!-- Node3&#45;&gt;Node4 -->
<g id="edge1" class="edge"><title>Node3&#45;&gt;Node4</title>
<path fill="none" stroke="midnightblue" d="M270,-661.805C270,-652.91 270,-642.78 270,-635.751"/>
<polygon fill="midnightblue" stroke="midnightblue" points="266.5,-662.083 270,-672.083 273.5,-662.083 266.5,-662.083"/>
</g>
<!-- Node5 -->
<g id="node3" class="node"><title>Node5</title>
<g id="a_node3"><a xlink:href="spec_2classification_8h.html" target="_top" xlink:title="ODP classification descriptor. ">
<polygon fill="white" stroke="black" points="25,-168.5 25,-187.5 111,-187.5 111,-168.5 25,-168.5"/>
<text text-anchor="middle" x="68" y="-175.5" font-family="Helvetica,sans-Serif" font-size="10.00">classification.h</text>
</a>
</g>
</g>
<!-- Node4&#45;&gt;Node5 -->
<g id="edge2" class="edge"><title>Node4&#45;&gt;Node5</title>
<path fill="none" stroke="midnightblue" d="M228.625,-617.092C152.964,-601.439 0,-563.765 0,-515 0,-515 0,-515 0,-289 0,-258.902 3.11063,-249.562 19,-224 28.3902,-208.894 44.2148,-195.678 55.3343,-187.544"/>
<polygon fill="midnightblue" stroke="midnightblue" points="228.267,-620.59 238.764,-619.153 229.662,-613.731 228.267,-620.59"/>
</g>
<!-- Node7 -->
<g id="node5" class="node"><title>Node7</title>
<g id="a_node5"><a xlink:href="spec_2ipsec_8h.html" target="_top" xlink:title="ODP IPSEC API. ">
<polygon fill="white" stroke="black" points="184,-56.5 184,-75.5 234,-75.5 234,-56.5 184,-56.5"/>
<text text-anchor="middle" x="209" y="-63.5" font-family="Helvetica,sans-Serif" font-size="10.00">ipsec.h</text>
</a>
</g>
</g>
<!-- Node4&#45;&gt;Node7 -->
<g id="edge11" class="edge"><title>Node4&#45;&gt;Node7</title>
<path fill="none" stroke="midnightblue" d="M284.531,-608.658C301.123,-588.253 326,-551.564 326,-515 326,-515 326,-515 326,-177 326,-125.143 264.237,-90.5724 230.46,-75.5439"/>
<polygon fill="midnightblue" stroke="midnightblue" points="281.805,-606.461 278.023,-616.358 287.151,-610.979 281.805,-606.461"/>
</g>
<!-- Node9 -->
<g id="node7" class="node"><title>Node9</title>
<g id="a_node7"><a xlink:href="spec_2comp_8h.html" target="_top" xlink:title="ODP Compression. ">
<polygon fill="white" stroke="black" points="354.5,-560.5 354.5,-579.5 407.5,-579.5 407.5,-560.5 354.5,-560.5"/>
<text text-anchor="middle" x="381" y="-567.5" font-family="Helvetica,sans-Serif" font-size="10.00">comp.h</text>
</a>
</g>
</g>
<!-- Node4&#45;&gt;Node9 -->
<g id="edge6" class="edge"><title>Node4&#45;&gt;Node9</title>
<path fill="none" stroke="midnightblue" d="M297.005,-611.862C317.588,-601.849 345.345,-588.346 363.21,-579.655"/>
<polygon fill="midnightblue" stroke="midnightblue" points="295.295,-608.802 287.834,-616.324 298.358,-615.097 295.295,-608.802"/>
</g>
<!-- Node11 -->
<g id="node9" class="node"><title>Node11</title>
<g id="a_node9"><a xlink:href="spec_2crypto_8h.html" target="_top" xlink:title="ODP crypto. ">
<polygon fill="white" stroke="black" points="242,-448.5 242,-467.5 298,-467.5 298,-448.5 242,-448.5"/>
<text text-anchor="middle" x="270" y="-455.5" font-family="Helvetica,sans-Serif" font-size="10.00">crypto.h</text>
</a>
</g>
</g>
<!-- Node4&#45;&gt;Node11 -->
<g id="edge8" class="edge"><title>Node4&#45;&gt;Node11</title>
<path fill="none" stroke="midnightblue" d="M270,-605.93C270,-569.92 270,-493.231 270,-467.568"/>
<polygon fill="midnightblue" stroke="midnightblue" points="266.5,-606.075 270,-616.075 273.5,-606.075 266.5,-606.075"/>
</g>
<!-- Node13 -->
<g id="node11" class="node"><title>Node13</title>
<g id="a_node11"><a xlink:href="spec_2schedule__types_8h.html" target="_top" xlink:title="ODP schedule types. ">
<polygon fill="white" stroke="black" points="136,-560.5 136,-579.5 236,-579.5 236,-560.5 136,-560.5"/>
<text text-anchor="middle" x="186" y="-567.5" font-family="Helvetica,sans-Serif" font-size="10.00">schedule_types.h</text>
</a>
</g>
</g>
<!-- Node4&#45;&gt;Node13 -->
<g id="edge12" class="edge"><title>Node4&#45;&gt;Node13</title>
<path fill="none" stroke="midnightblue" d="M248.068,-610.901C232.665,-600.999 212.554,-588.071 199.463,-579.655"/>
<polygon fill="midnightblue" stroke="midnightblue" points="246.199,-613.86 256.504,-616.324 249.985,-607.972 246.199,-613.86"/>
</g>
<!-- Node6 -->
<g id="node4" class="node"><title>Node6</title>
<g id="a_node4"><a xlink:href="classification_8h.html" target="_top" xlink:title="ODP classification descriptor. ">
<polygon fill="white" stroke="black" points="25,-112.5 25,-131.5 111,-131.5 111,-112.5 25,-112.5"/>
<text text-anchor="middle" x="68" y="-119.5" font-family="Helvetica,sans-Serif" font-size="10.00">classification.h</text>
</a>
</g>
</g>
<!-- Node5&#45;&gt;Node6 -->
<g id="edge3" class="edge"><title>Node5&#45;&gt;Node6</title>
<path fill="none" stroke="midnightblue" d="M68,-157.805C68,-148.91 68,-138.78 68,-131.751"/>
<polygon fill="midnightblue" stroke="midnightblue" points="64.5001,-158.083 68,-168.083 71.5001,-158.083 64.5001,-158.083"/>
</g>
<!-- Node6&#45;&gt;Node7 -->
<g id="edge4" class="edge"><title>Node6&#45;&gt;Node7</title>
<path fill="none" stroke="midnightblue" d="M99.9286,-108.772C126.414,-98.6287 163.392,-84.4669 186.763,-75.5164"/>
<polygon fill="midnightblue" stroke="midnightblue" points="98.4287,-105.599 90.3419,-112.444 100.932,-112.136 98.4287,-105.599"/>
</g>
<!-- Node8 -->
<g id="node6" class="node"><title>Node8</title>
<g id="a_node6"><a xlink:href="ipsec_8h.html" target="_top" xlink:title="ODP IPSEC API &#45; platform specific header. ">
<polygon fill="white" stroke="black" points="184,-0.5 184,-19.5 234,-19.5 234,-0.5 184,-0.5"/>
<text text-anchor="middle" x="209" y="-7.5" font-family="Helvetica,sans-Serif" font-size="10.00">ipsec.h</text>
</a>
</g>
</g>
<!-- Node7&#45;&gt;Node8 -->
<g id="edge5" class="edge"><title>Node7&#45;&gt;Node8</title>
<path fill="none" stroke="midnightblue" d="M209,-45.8045C209,-36.9102 209,-26.7798 209,-19.7511"/>
<polygon fill="midnightblue" stroke="midnightblue" points="205.5,-46.083 209,-56.083 212.5,-46.083 205.5,-46.083"/>
</g>
<!-- Node10 -->
<g id="node8" class="node"><title>Node10</title>
<g id="a_node8"><a xlink:href="comp_8h.html" target="_top" xlink:title="ODP crypto. ">
<polygon fill="white" stroke="black" points="354.5,-504.5 354.5,-523.5 407.5,-523.5 407.5,-504.5 354.5,-504.5"/>
<text text-anchor="middle" x="381" y="-511.5" font-family="Helvetica,sans-Serif" font-size="10.00">comp.h</text>
</a>
</g>
</g>
<!-- Node9&#45;&gt;Node10 -->
<g id="edge7" class="edge"><title>Node9&#45;&gt;Node10</title>
<path fill="none" stroke="midnightblue" d="M381,-549.805C381,-540.91 381,-530.78 381,-523.751"/>
<polygon fill="midnightblue" stroke="midnightblue" points="377.5,-550.083 381,-560.083 384.5,-550.083 377.5,-550.083"/>
</g>
<!-- Node12 -->
<g id="node10" class="node"><title>Node12</title>
<g id="a_node10"><a xlink:href="crypto_8h.html" target="_top" xlink:title="ODP crypto. ">
<polygon fill="white" stroke="black" points="242,-280.5 242,-299.5 298,-299.5 298,-280.5 242,-280.5"/>
<text text-anchor="middle" x="270" y="-287.5" font-family="Helvetica,sans-Serif" font-size="10.00">crypto.h</text>
</a>
</g>
</g>
<!-- Node11&#45;&gt;Node12 -->
<g id="edge9" class="edge"><title>Node11&#45;&gt;Node12</title>
<path fill="none" stroke="midnightblue" d="M270,-437.93C270,-401.92 270,-325.231 270,-299.568"/>
<polygon fill="midnightblue" stroke="midnightblue" points="266.5,-438.075 270,-448.075 273.5,-438.075 266.5,-438.075"/>
</g>
<!-- Node12&#45;&gt;Node7 -->
<g id="edge10" class="edge"><title>Node12&#45;&gt;Node7</title>
<path fill="none" stroke="midnightblue" d="M273.285,-270.084C278.203,-236.387 284.398,-164.574 259,-112 251.38,-96.2264 235.524,-83.488 223.699,-75.6433"/>
<polygon fill="midnightblue" stroke="midnightblue" points="269.772,-269.893 271.653,-280.32 276.684,-270.996 269.772,-269.893"/>
</g>
<!-- Node14 -->
<g id="node12" class="node"><title>Node14</title>
<g id="a_node12"><a xlink:href="schedule__types_8h.html" target="_top" xlink:title="ODP schedule. ">
<polygon fill="white" stroke="black" points="96,-504.5 96,-523.5 196,-523.5 196,-504.5 96,-504.5"/>
<text text-anchor="middle" x="146" y="-511.5" font-family="Helvetica,sans-Serif" font-size="10.00">schedule_types.h</text>
</a>
</g>
</g>
<!-- Node13&#45;&gt;Node14 -->
<g id="edge13" class="edge"><title>Node13&#45;&gt;Node14</title>
<path fill="none" stroke="midnightblue" d="M173.3,-551.855C166.374,-542.505 158.094,-531.327 152.482,-523.751"/>
<polygon fill="midnightblue" stroke="midnightblue" points="170.63,-554.131 179.395,-560.083 176.255,-549.964 170.63,-554.131"/>
</g>
<!-- Node15 -->
<g id="node13" class="node"><title>Node15</title>
<g id="a_node13"><a xlink:href="queue__types_8h.html" target="_top" xlink:title="ODP queue types. ">
<polygon fill="white" stroke="black" points="102.5,-448.5 102.5,-467.5 189.5,-467.5 189.5,-448.5 102.5,-448.5"/>
<text text-anchor="middle" x="146" y="-455.5" font-family="Helvetica,sans-Serif" font-size="10.00">queue_types.h</text>
</a>
</g>
</g>
<!-- Node14&#45;&gt;Node15 -->
<g id="edge14" class="edge"><title>Node14&#45;&gt;Node15</title>
<path fill="none" stroke="midnightblue" d="M146,-493.805C146,-484.91 146,-474.78 146,-467.751"/>
<polygon fill="midnightblue" stroke="midnightblue" points="142.5,-494.083 146,-504.083 149.5,-494.083 142.5,-494.083"/>
</g>
<!-- Node22 -->
<g id="node20" class="node"><title>Node22</title>
<g id="a_node20"><a xlink:href="spec_2schedule_8h.html" target="_top" xlink:title="ODP schedule. ">
<polygon fill="white" stroke="black" points="28,-280.5 28,-299.5 96,-299.5 96,-280.5 28,-280.5"/>
<text text-anchor="middle" x="62" y="-287.5" font-family="Helvetica,sans-Serif" font-size="10.00">schedule.h</text>
</a>
</g>
</g>
<!-- Node14&#45;&gt;Node22 -->
<g id="edge28" class="edge"><title>Node14&#45;&gt;Node22</title>
<path fill="none" stroke="midnightblue" d="M125.128,-498.036C102.847,-480.469 69.3499,-448.99 59,-412 47.619,-371.325 55.9591,-319.93 60.0681,-299.723"/>
<polygon fill="midnightblue" stroke="midnightblue" points="123.25,-501.005 133.327,-504.276 127.489,-495.435 123.25,-501.005"/>
</g>
<!-- Node16 -->
<g id="node14" class="node"><title>Node16</title>
<g id="a_node14"><a xlink:href="spec_2queue_8h.html" target="_top" xlink:title="ODP queue. ">
<polygon fill="white" stroke="black" points="68,-392.5 68,-411.5 124,-411.5 124,-392.5 68,-392.5"/>
<text text-anchor="middle" x="96" y="-399.5" font-family="Helvetica,sans-Serif" font-size="10.00">queue.h</text>
</a>
</g>
</g>
<!-- Node15&#45;&gt;Node16 -->
<g id="edge15" class="edge"><title>Node15&#45;&gt;Node16</title>
<path fill="none" stroke="midnightblue" d="M130.924,-440.718C122.111,-431.2 111.334,-419.561 104.103,-411.751"/>
<polygon fill="midnightblue" stroke="midnightblue" points="128.381,-443.123 137.744,-448.083 133.518,-438.367 128.381,-443.123"/>
</g>
<!-- Node24 -->
<g id="node22" class="node"><title>Node24</title>
<g id="a_node22"><a xlink:href="queue__inline__types_8h_source.html" target="_top" xlink:title="queue_inline_types.h">
<polygon fill="white" stroke="black" points="142.5,-392.5 142.5,-411.5 259.5,-411.5 259.5,-392.5 142.5,-392.5"/>
<text text-anchor="middle" x="201" y="-399.5" font-family="Helvetica,sans-Serif" font-size="10.00">queue_inline_types.h</text>
</a>
</g>
</g>
<!-- Node15&#45;&gt;Node24 -->
<g id="edge26" class="edge"><title>Node15&#45;&gt;Node24</title>
<path fill="none" stroke="midnightblue" d="M162.294,-441.002C172.041,-431.433 184.053,-419.639 192.087,-411.751"/>
<polygon fill="midnightblue" stroke="midnightblue" points="159.766,-438.58 155.082,-448.083 164.67,-443.575 159.766,-438.58"/>
</g>
<!-- Node17 -->
<g id="node15" class="node"><title>Node17</title>
<g id="a_node15"><a xlink:href="queue_8h.html" target="_top" xlink:title="ODP queue. ">
<polygon fill="white" stroke="black" points="74,-336.5 74,-355.5 130,-355.5 130,-336.5 74,-336.5"/>
<text text-anchor="middle" x="102" y="-343.5" font-family="Helvetica,sans-Serif" font-size="10.00">queue.h</text>
</a>
</g>
</g>
<!-- Node16&#45;&gt;Node17 -->
<g id="edge16" class="edge"><title>Node16&#45;&gt;Node17</title>
<path fill="none" stroke="midnightblue" d="M98.0999,-382.101C99.096,-373.136 100.238,-362.858 101.028,-355.751"/>
<polygon fill="midnightblue" stroke="midnightblue" points="94.6166,-381.758 96.9908,-392.083 101.574,-382.531 94.6166,-381.758"/>
</g>
<!-- Node17&#45;&gt;Node12 -->
<g id="edge17" class="edge"><title>Node17&#45;&gt;Node12</title>
<path fill="none" stroke="midnightblue" d="M138.386,-333.304C170.042,-323.129 215.168,-308.625 243.504,-299.516"/>
<polygon fill="midnightblue" stroke="midnightblue" points="137.069,-330.051 128.62,-336.444 139.211,-336.715 137.069,-330.051"/>
</g>
<!-- Node18 -->
<g id="node16" class="node"><title>Node18</title>
<g id="a_node16"><a xlink:href="spec_2packet__io_8h.html" target="_top" xlink:title="ODP Packet IO. ">
<polygon fill="white" stroke="black" points="114.5,-280.5 114.5,-299.5 185.5,-299.5 185.5,-280.5 114.5,-280.5"/>
<text text-anchor="middle" x="150" y="-287.5" font-family="Helvetica,sans-Serif" font-size="10.00">packet_io.h</text>
</a>
</g>
</g>
<!-- Node17&#45;&gt;Node18 -->
<g id="edge18" class="edge"><title>Node17&#45;&gt;Node18</title>
<path fill="none" stroke="midnightblue" d="M116.728,-328.431C125.14,-318.967 135.349,-307.483 142.221,-299.751"/>
<polygon fill="midnightblue" stroke="midnightblue" points="113.954,-326.284 109.926,-336.083 119.186,-330.934 113.954,-326.284"/>
</g>
<!-- Node17&#45;&gt;Node22 -->
<g id="edge24" class="edge"><title>Node17&#45;&gt;Node22</title>
<path fill="none" stroke="midnightblue" d="M89.3003,-327.855C82.374,-318.505 74.0937,-307.327 68.4823,-299.751"/>
<polygon fill="midnightblue" stroke="midnightblue" points="86.63,-330.131 95.3948,-336.083 92.255,-325.964 86.63,-330.131"/>
</g>
<!-- Node19 -->
<g id="node17" class="node"><title>Node19</title>
<g id="a_node17"><a xlink:href="packet__io_8h.html" target="_top" xlink:title="ODP Packet IO. ">
<polygon fill="white" stroke="black" points="114.5,-224.5 114.5,-243.5 185.5,-243.5 185.5,-224.5 114.5,-224.5"/>
<text text-anchor="middle" x="150" y="-231.5" font-family="Helvetica,sans-Serif" font-size="10.00">packet_io.h</text>
</a>
</g>
</g>
<!-- Node18&#45;&gt;Node19 -->
<g id="edge19" class="edge"><title>Node18&#45;&gt;Node19</title>
<path fill="none" stroke="midnightblue" d="M150,-269.805C150,-260.91 150,-250.78 150,-243.751"/>
<polygon fill="midnightblue" stroke="midnightblue" points="146.5,-270.083 150,-280.083 153.5,-270.083 146.5,-270.083"/>
</g>
<!-- Node19&#45;&gt;Node5 -->
<g id="edge20" class="edge"><title>Node19&#45;&gt;Node5</title>
<path fill="none" stroke="midnightblue" d="M128.167,-218.622C113.187,-208.757 93.8025,-195.992 81.142,-187.655"/>
<polygon fill="midnightblue" stroke="midnightblue" points="126.549,-221.747 136.825,-224.324 130.399,-215.901 126.549,-221.747"/>
</g>
<!-- Node19&#45;&gt;Node7 -->
<g id="edge21" class="edge"><title>Node19&#45;&gt;Node7</title>
<path fill="none" stroke="midnightblue" d="M146.982,-213.992C143.96,-189.153 141.803,-144.946 158,-112 165.814,-96.1048 181.981,-83.3873 194.029,-75.5808"/>
<polygon fill="midnightblue" stroke="midnightblue" points="143.56,-214.796 148.413,-224.214 150.493,-213.825 143.56,-214.796"/>
</g>
<!-- Node20 -->
<g id="node18" class="node"><title>Node20</title>
<g id="a_node18"><a xlink:href="spec_2traffic__mngr_8h.html" target="_top" xlink:title="Copyright (c) 2015&#45;2018, Linaro Limited All rights reserved. ">
<polygon fill="white" stroke="black" points="167.5,-168.5 167.5,-187.5 250.5,-187.5 250.5,-168.5 167.5,-168.5"/>
<text text-anchor="middle" x="209" y="-175.5" font-family="Helvetica,sans-Serif" font-size="10.00">traffic_mngr.h</text>
</a>
</g>
</g>
<!-- Node19&#45;&gt;Node20 -->
<g id="edge22" class="edge"><title>Node19&#45;&gt;Node20</title>
<path fill="none" stroke="midnightblue" d="M166.895,-217.537C177.415,-207.909 190.569,-195.869 199.348,-187.834"/>
<polygon fill="midnightblue" stroke="midnightblue" points="164.493,-214.99 159.479,-224.324 169.219,-220.154 164.493,-214.99"/>
</g>
<!-- Node21 -->
<g id="node19" class="node"><title>Node21</title>
<g id="a_node19"><a xlink:href="traffic__mngr_8h.html" target="_top" xlink:title="ODP Traffic manager. ">
<polygon fill="white" stroke="black" points="167.5,-112.5 167.5,-131.5 250.5,-131.5 250.5,-112.5 167.5,-112.5"/>
<text text-anchor="middle" x="209" y="-119.5" font-family="Helvetica,sans-Serif" font-size="10.00">traffic_mngr.h</text>
</a>
</g>
</g>
<!-- Node20&#45;&gt;Node21 -->
<g id="edge23" class="edge"><title>Node20&#45;&gt;Node21</title>
<path fill="none" stroke="midnightblue" d="M209,-157.805C209,-148.91 209,-138.78 209,-131.751"/>
<polygon fill="midnightblue" stroke="midnightblue" points="205.5,-158.083 209,-168.083 212.5,-158.083 205.5,-158.083"/>
</g>
<!-- Node23 -->
<g id="node21" class="node"><title>Node23</title>
<g id="a_node21"><a xlink:href="schedule_8h.html" target="_top" xlink:title="ODP schedule. ">
<polygon fill="white" stroke="black" points="28,-224.5 28,-243.5 96,-243.5 96,-224.5 28,-224.5"/>
<text text-anchor="middle" x="62" y="-231.5" font-family="Helvetica,sans-Serif" font-size="10.00">schedule.h</text>
</a>
</g>
</g>
<!-- Node22&#45;&gt;Node23 -->
<g id="edge25" class="edge"><title>Node22&#45;&gt;Node23</title>
<path fill="none" stroke="midnightblue" d="M62,-269.805C62,-260.91 62,-250.78 62,-243.751"/>
<polygon fill="midnightblue" stroke="midnightblue" points="58.5001,-270.083 62,-280.083 65.5001,-270.083 58.5001,-270.083"/>
</g>
<!-- Node25 -->
<g id="node23" class="node"><title>Node25</title>
<g id="a_node23"><a xlink:href="queue__inlines_8h_source.html" target="_top" xlink:title="queue_inlines.h">
<polygon fill="white" stroke="black" points="155.5,-336.5 155.5,-355.5 246.5,-355.5 246.5,-336.5 155.5,-336.5"/>
<text text-anchor="middle" x="201" y="-343.5" font-family="Helvetica,sans-Serif" font-size="10.00">queue_inlines.h</text>
</a>
</g>
</g>
<!-- Node24&#45;&gt;Node25 -->
<g id="edge27" class="edge"><title>Node24&#45;&gt;Node25</title>
<path fill="none" stroke="midnightblue" d="M201,-381.805C201,-372.91 201,-362.78 201,-355.751"/>
<polygon fill="midnightblue" stroke="midnightblue" points="197.5,-382.083 201,-392.083 204.5,-382.083 197.5,-382.083"/>
</g>
</g>
</svg>
