<?xml version="1.0" encoding="UTF-8" standalone="no"?>
<!DOCTYPE svg PUBLIC "-//W3C//DTD SVG 1.1//EN"
 "http://www.w3.org/Graphics/SVG/1.1/DTD/svg11.dtd">
<!-- Generated by graphviz version 2.38.0 (20140413.2041)
 -->
<!-- Title: queue.h Pages: 1 -->
<svg width="283pt" height="420pt"
 viewBox="0.00 0.00 282.50 420.00" xmlns="http://www.w3.org/2000/svg" xmlns:xlink="http://www.w3.org/1999/xlink">
<g id="graph0" class="graph" transform="scale(1 1) rotate(0) translate(4 416)">
<title>queue.h</title>
<polygon fill="white" stroke="none" points="-4,4 -4,-416 278.5,-416 278.5,4 -4,4"/>
<!-- Node27 -->
<g id="node1" class="node"><title>Node27</title>
<polygon fill="#bfbfbf" stroke="black" points="95,-392.5 95,-411.5 151,-411.5 151,-392.5 95,-392.5"/>
<text text-anchor="middle" x="123" y="-399.5" font-family="Helvetica,sans-Serif" font-size="10.00">queue.h</text>
</g>
<!-- Node28 -->
<g id="node2" class="node"><title>Node28</title>
<g id="a_node2"><a xlink:href="queue_8h.html" target="_top" xlink:title="ODP queue. ">
<polygon fill="white" stroke="black" points="95,-336.5 95,-355.5 151,-355.5 151,-336.5 95,-336.5"/>
<text text-anchor="middle" x="123" y="-343.5" font-family="Helvetica,sans-Serif" font-size="10.00">queue.h</text>
</a>
</g>
</g>
<!-- Node27&#45;&gt;Node28 -->
<g id="edge1" class="edge"><title>Node27&#45;&gt;Node28</title>
<path fill="none" stroke="midnightblue" d="M123,-381.805C123,-372.91 123,-362.78 123,-355.751"/>
<polygon fill="midnightblue" stroke="midnightblue" points="119.5,-382.083 123,-392.083 126.5,-382.083 119.5,-382.083"/>
</g>
<!-- Node29 -->
<g id="node3" class="node"><title>Node29</title>
<g id="a_node3"><a xlink:href="crypto_8h.html" target="_top" xlink:title="ODP crypto. ">
<polygon fill="white" stroke="black" points="0,-224.5 0,-243.5 56,-243.5 56,-224.5 0,-224.5"/>
<text text-anchor="middle" x="28" y="-231.5" font-family="Helvetica,sans-Serif" font-size="10.00">crypto.h</text>
</a>
</g>
</g>
<!-- Node28&#45;&gt;Node29 -->
<g id="edge2" class="edge"><title>Node28&#45;&gt;Node29</title>
<path fill="none" stroke="midnightblue" d="M106.336,-329.348C97.6177,-320.911 86.93,-310.17 78,-300 61.0915,-280.743 43.2413,-256.431 34.133,-243.693"/>
<polygon fill="midnightblue" stroke="midnightblue" points="104.034,-331.989 113.682,-336.366 108.869,-326.927 104.034,-331.989"/>
</g>
<!-- Node32 -->
<g id="node6" class="node"><title>Node32</title>
<g id="a_node6"><a xlink:href="spec_2packet__io_8h.html" target="_top" xlink:title="ODP Packet IO. ">
<polygon fill="white" stroke="black" points="87.5,-280.5 87.5,-299.5 158.5,-299.5 158.5,-280.5 87.5,-280.5"/>
<text text-anchor="middle" x="123" y="-287.5" font-family="Helvetica,sans-Serif" font-size="10.00">packet_io.h</text>
</a>
</g>
</g>
<!-- Node28&#45;&gt;Node32 -->
<g id="edge5" class="edge"><title>Node28&#45;&gt;Node32</title>
<path fill="none" stroke="midnightblue" d="M123,-325.805C123,-316.91 123,-306.78 123,-299.751"/>
<polygon fill="midnightblue" stroke="midnightblue" points="119.5,-326.083 123,-336.083 126.5,-326.083 119.5,-326.083"/>
</g>
<!-- Node38 -->
<g id="node12" class="node"><title>Node38</title>
<g id="a_node12"><a xlink:href="spec_2schedule_8h.html" target="_top" xlink:title="ODP schedule. ">
<polygon fill="white" stroke="black" points="177,-280.5 177,-299.5 245,-299.5 245,-280.5 177,-280.5"/>
<text text-anchor="middle" x="211" y="-287.5" font-family="Helvetica,sans-Serif" font-size="10.00">schedule.h</text>
</a>
</g>
</g>
<!-- Node28&#45;&gt;Node38 -->
<g id="edge13" class="edge"><title>Node28&#45;&gt;Node38</title>
<path fill="none" stroke="midnightblue" d="M145.977,-330.901C162.113,-320.999 183.181,-308.071 196.896,-299.655"/>
<polygon fill="midnightblue" stroke="midnightblue" points="143.831,-328.111 137.139,-336.324 147.493,-334.077 143.831,-328.111"/>
</g>
<!-- Node30 -->
<g id="node4" class="node"><title>Node30</title>
<g id="a_node4"><a xlink:href="spec_2ipsec_8h.html" target="_top" xlink:title="ODP IPSEC API. ">
<polygon fill="white" stroke="black" points="34,-56.5 34,-75.5 84,-75.5 84,-56.5 34,-56.5"/>
<text text-anchor="middle" x="59" y="-63.5" font-family="Helvetica,sans-Serif" font-size="10.00">ipsec.h</text>
</a>
</g>
</g>
<!-- Node29&#45;&gt;Node30 -->
<g id="edge3" class="edge"><title>Node29&#45;&gt;Node30</title>
<path fill="none" stroke="midnightblue" d="M29.6808,-214.272C32.0445,-190.348 36.982,-147.755 45,-112 47.9003,-99.0666 52.7362,-84.4817 55.8966,-75.5147"/>
<polygon fill="midnightblue" stroke="midnightblue" points="26.1795,-214.121 28.7249,-224.406 33.1486,-214.779 26.1795,-214.121"/>
</g>
<!-- Node31 -->
<g id="node5" class="node"><title>Node31</title>
<g id="a_node5"><a xlink:href="ipsec_8h.html" target="_top" xlink:title="ODP IPSEC API &#45; platform specific header. ">
<polygon fill="white" stroke="black" points="34,-0.5 34,-19.5 84,-19.5 84,-0.5 34,-0.5"/>
<text text-anchor="middle" x="59" y="-7.5" font-family="Helvetica,sans-Serif" font-size="10.00">ipsec.h</text>
</a>
</g>
</g>
<!-- Node30&#45;&gt;Node31 -->
<g id="edge4" class="edge"><title>Node30&#45;&gt;Node31</title>
<path fill="none" stroke="midnightblue" d="M59,-45.8045C59,-36.9102 59,-26.7798 59,-19.7511"/>
<polygon fill="midnightblue" stroke="midnightblue" points="55.5001,-46.083 59,-56.083 62.5001,-46.083 55.5001,-46.083"/>
</g>
<!-- Node33 -->
<g id="node7" class="node"><title>Node33</title>
<g id="a_node7"><a xlink:href="packet__io_8h.html" target="_top" xlink:title="ODP Packet IO. ">
<polygon fill="white" stroke="black" points="87.5,-224.5 87.5,-243.5 158.5,-243.5 158.5,-224.5 87.5,-224.5"/>
<text text-anchor="middle" x="123" y="-231.5" font-family="Helvetica,sans-Serif" font-size="10.00">packet_io.h</text>
</a>
</g>
</g>
<!-- Node32&#45;&gt;Node33 -->
<g id="edge6" class="edge"><title>Node32&#45;&gt;Node33</title>
<path fill="none" stroke="midnightblue" d="M123,-269.805C123,-260.91 123,-250.78 123,-243.751"/>
<polygon fill="midnightblue" stroke="midnightblue" points="119.5,-270.083 123,-280.083 126.5,-270.083 119.5,-270.083"/>
</g>
<!-- Node33&#45;&gt;Node30 -->
<g id="edge10" class="edge"><title>Node33&#45;&gt;Node30</title>
<path fill="none" stroke="midnightblue" d="M103,-217.98C93.9178,-210.072 83.9064,-199.611 78,-188 58.5247,-149.715 57.9541,-96.5115 58.5799,-75.7698"/>
<polygon fill="midnightblue" stroke="midnightblue" points="100.982,-220.852 110.935,-224.484 105.42,-215.438 100.982,-220.852"/>
</g>
<!-- Node34 -->
<g id="node8" class="node"><title>Node34</title>
<g id="a_node8"><a xlink:href="spec_2classification_8h.html" target="_top" xlink:title="ODP classification descriptor. ">
<polygon fill="white" stroke="black" points="87,-168.5 87,-187.5 173,-187.5 173,-168.5 87,-168.5"/>
<text text-anchor="middle" x="130" y="-175.5" font-family="Helvetica,sans-Serif" font-size="10.00">classification.h</text>
</a>
</g>
</g>
<!-- Node33&#45;&gt;Node34 -->
<g id="edge7" class="edge"><title>Node33&#45;&gt;Node34</title>
<path fill="none" stroke="midnightblue" d="M125.45,-214.101C126.612,-205.136 127.944,-194.858 128.866,-187.751"/>
<polygon fill="midnightblue" stroke="midnightblue" points="121.971,-213.716 124.156,-224.083 128.912,-214.616 121.971,-213.716"/>
</g>
<!-- Node36 -->
<g id="node10" class="node"><title>Node36</title>
<g id="a_node10"><a xlink:href="spec_2traffic__mngr_8h.html" target="_top" xlink:title="Copyright (c) 2015&#45;2018, Linaro Limited All rights reserved. ">
<polygon fill="white" stroke="black" points="191.5,-168.5 191.5,-187.5 274.5,-187.5 274.5,-168.5 191.5,-168.5"/>
<text text-anchor="middle" x="233" y="-175.5" font-family="Helvetica,sans-Serif" font-size="10.00">traffic_mngr.h</text>
</a>
</g>
</g>
<!-- Node33&#45;&gt;Node36 -->
<g id="edge11" class="edge"><title>Node33&#45;&gt;Node36</title>
<path fill="none" stroke="midnightblue" d="M149.762,-219.862C170.159,-209.849 197.666,-196.346 215.37,-187.655"/>
<polygon fill="midnightblue" stroke="midnightblue" points="148.108,-216.775 140.673,-224.324 151.192,-223.059 148.108,-216.775"/>
</g>
<!-- Node35 -->
<g id="node9" class="node"><title>Node35</title>
<g id="a_node9"><a xlink:href="classification_8h.html" target="_top" xlink:title="ODP classification descriptor. ">
<polygon fill="white" stroke="black" points="87,-112.5 87,-131.5 173,-131.5 173,-112.5 87,-112.5"/>
<text text-anchor="middle" x="130" y="-119.5" font-family="Helvetica,sans-Serif" font-size="10.00">classification.h</text>
</a>
</g>
</g>
<!-- Node34&#45;&gt;Node35 -->
<g id="edge8" class="edge"><title>Node34&#45;&gt;Node35</title>
<path fill="none" stroke="midnightblue" d="M130,-157.805C130,-148.91 130,-138.78 130,-131.751"/>
<polygon fill="midnightblue" stroke="midnightblue" points="126.5,-158.083 130,-168.083 133.5,-158.083 126.5,-158.083"/>
</g>
<!-- Node35&#45;&gt;Node30 -->
<g id="edge9" class="edge"><title>Node35&#45;&gt;Node30</title>
<path fill="none" stroke="midnightblue" d="M110.41,-106.101C97.6324,-96.3824 81.3873,-84.0269 70.6149,-75.8339"/>
<polygon fill="midnightblue" stroke="midnightblue" points="108.514,-109.056 118.593,-112.324 112.752,-103.484 108.514,-109.056"/>
</g>
<!-- Node37 -->
<g id="node11" class="node"><title>Node37</title>
<g id="a_node11"><a xlink:href="traffic__mngr_8h.html" target="_top" xlink:title="ODP Traffic manager. ">
<polygon fill="white" stroke="black" points="191.5,-112.5 191.5,-131.5 274.5,-131.5 274.5,-112.5 191.5,-112.5"/>
<text text-anchor="middle" x="233" y="-119.5" font-family="Helvetica,sans-Serif" font-size="10.00">traffic_mngr.h</text>
</a>
</g>
</g>
<!-- Node36&#45;&gt;Node37 -->
<g id="edge12" class="edge"><title>Node36&#45;&gt;Node37</title>
<path fill="none" stroke="midnightblue" d="M233,-157.805C233,-148.91 233,-138.78 233,-131.751"/>
<polygon fill="midnightblue" stroke="midnightblue" points="229.5,-158.083 233,-168.083 236.5,-158.083 229.5,-158.083"/>
</g>
<!-- Node39 -->
<g id="node13" class="node"><title>Node39</title>
<g id="a_node13"><a xlink:href="schedule_8h.html" target="_top" xlink:title="ODP schedule. ">
<polygon fill="white" stroke="black" points="177,-224.5 177,-243.5 245,-243.5 245,-224.5 177,-224.5"/>
<text text-anchor="middle" x="211" y="-231.5" font-family="Helvetica,sans-Serif" font-size="10.00">schedule.h</text>
</a>
</g>
</g>
<!-- Node38&#45;&gt;Node39 -->
<g id="edge14" class="edge"><title>Node38&#45;&gt;Node39</title>
<path fill="none" stroke="midnightblue" d="M211,-269.805C211,-260.91 211,-250.78 211,-243.751"/>
<polygon fill="midnightblue" stroke="midnightblue" points="207.5,-270.083 211,-280.083 214.5,-270.083 207.5,-270.083"/>
</g>
</g>
</svg>
