<?xml version="1.0" encoding="UTF-8" standalone="no"?>
<!DOCTYPE svg PUBLIC "-//W3C//DTD SVG 1.1//EN"
 "http://www.w3.org/Graphics/SVG/1.1/DTD/svg11.dtd">
<!-- Generated by graphviz version 2.38.0 (20140413.2041)
 -->
<!-- Title: ticketlock.h Pages: 1 -->
<svg width="248pt" height="84pt"
 viewBox="0.00 0.00 248.00 84.00" xmlns="http://www.w3.org/2000/svg" xmlns:xlink="http://www.w3.org/1999/xlink">
<g id="graph0" class="graph" transform="scale(1 1) rotate(0) translate(4 80)">
<title>ticketlock.h</title>
<polygon fill="white" stroke="none" points="-4,4 -4,-80 244,-80 244,4 -4,4"/>
<!-- Node0 -->
<g id="node1" class="node"><title>Node0</title>
<polygon fill="#bfbfbf" stroke="black" points="86,-56.5 86,-75.5 157,-75.5 157,-56.5 86,-56.5"/>
<text text-anchor="middle" x="121.5" y="-63.5" font-family="Helvetica,sans-Serif" font-size="10.00">ticketlock.h</text>
</g>
<!-- Node1 -->
<g id="node2" class="node"><title>Node1</title>
<polygon fill="white" stroke="#bfbfbf" points="0,-0.5 0,-19.5 115,-19.5 115,-0.5 0,-0.5"/>
<text text-anchor="middle" x="57.5" y="-7.5" font-family="Helvetica,sans-Serif" font-size="10.00">odp/visibility_begin.h</text>
</g>
<!-- Node0&#45;&gt;Node1 -->
<g id="edge1" class="edge"><title>Node0&#45;&gt;Node1</title>
<path fill="none" stroke="midnightblue" d="M111.217,-56.324C101.664,-48.2631 87.2203,-36.0765 75.7157,-26.3695"/>
<polygon fill="midnightblue" stroke="midnightblue" points="77.8698,-23.6076 67.9698,-19.8339 73.3557,-28.9577 77.8698,-23.6076"/>
</g>
<!-- Node2 -->
<g id="node3" class="node"><title>Node2</title>
<polygon fill="white" stroke="#bfbfbf" points="133,-0.5 133,-19.5 240,-19.5 240,-0.5 133,-0.5"/>
<text text-anchor="middle" x="186.5" y="-7.5" font-family="Helvetica,sans-Serif" font-size="10.00">odp/visibility_end.h</text>
</g>
<!-- Node0&#45;&gt;Node2 -->
<g id="edge2" class="edge"><title>Node0&#45;&gt;Node2</title>
<path fill="none" stroke="midnightblue" d="M131.943,-56.324C141.646,-48.2631 156.315,-36.0765 168,-26.3695"/>
<polygon fill="midnightblue" stroke="midnightblue" points="170.411,-28.9163 175.867,-19.8339 165.938,-23.532 170.411,-28.9163"/>
</g>
</g>
</svg>
