<?xml version="1.0" encoding="UTF-8" standalone="no"?>
<!DOCTYPE svg PUBLIC "-//W3C//DTD SVG 1.1//EN"
 "http://www.w3.org/Graphics/SVG/1.1/DTD/svg11.dtd">
<!-- Generated by graphviz version 2.38.0 (20140413.2041)
 -->
<!-- Title: align.h Pages: 1 -->
<svg width="255pt" height="140pt"
 viewBox="0.00 0.00 255.00 140.00" xmlns="http://www.w3.org/2000/svg" xmlns:xlink="http://www.w3.org/1999/xlink">
<g id="graph0" class="graph" transform="scale(1 1) rotate(0) translate(4 136)">
<title>align.h</title>
<polygon fill="white" stroke="none" points="-4,4 -4,-136 251,-136 251,4 -4,4"/>
<!-- Node3 -->
<g id="node1" class="node"><title>Node3</title>
<polygon fill="#bfbfbf" stroke="black" points="87.5,-112.5 87.5,-131.5 135.5,-131.5 135.5,-112.5 87.5,-112.5"/>
<text text-anchor="middle" x="111.5" y="-119.5" font-family="Helvetica,sans-Serif" font-size="10.00">align.h</text>
</g>
<!-- Node4 -->
<g id="node2" class="node"><title>Node4</title>
<g id="a_node2"><a xlink:href="align_8h.html" target="_top" xlink:title="ODP alignments. ">
<polygon fill="white" stroke="black" points="87.5,-56.5 87.5,-75.5 135.5,-75.5 135.5,-56.5 87.5,-56.5"/>
<text text-anchor="middle" x="111.5" y="-63.5" font-family="Helvetica,sans-Serif" font-size="10.00">align.h</text>
</a>
</g>
</g>
<!-- Node3&#45;&gt;Node4 -->
<g id="edge1" class="edge"><title>Node3&#45;&gt;Node4</title>
<path fill="none" stroke="midnightblue" d="M111.5,-101.805C111.5,-92.9102 111.5,-82.7798 111.5,-75.7511"/>
<polygon fill="midnightblue" stroke="midnightblue" points="108,-102.083 111.5,-112.083 115,-102.083 108,-102.083"/>
</g>
<!-- Node5 -->
<g id="node3" class="node"><title>Node5</title>
<g id="a_node3"><a xlink:href="abi-default_2atomic_8h.html" target="_top" xlink:title="ODP atomic operations. ">
<polygon fill="white" stroke="black" points="0,-0.5 0,-19.5 59,-19.5 59,-0.5 0,-0.5"/>
<text text-anchor="middle" x="29.5" y="-7.5" font-family="Helvetica,sans-Serif" font-size="10.00">atomic.h</text>
</a>
</g>
</g>
<!-- Node4&#45;&gt;Node5 -->
<g id="edge2" class="edge"><title>Node4&#45;&gt;Node5</title>
<path fill="none" stroke="midnightblue" d="M89.6669,-50.6221C74.6871,-40.7574 55.3025,-27.9919 42.642,-19.6545"/>
<polygon fill="midnightblue" stroke="midnightblue" points="88.0486,-53.7471 98.3253,-56.324 91.8985,-47.9009 88.0486,-53.7471"/>
</g>
<!-- Node6 -->
<g id="node4" class="node"><title>Node6</title>
<g id="a_node4"><a xlink:href="abi-default_2cpumask_8h.html" target="_top" xlink:title="ODP CPU masks and enumeration. ">
<polygon fill="white" stroke="black" points="77,-0.5 77,-19.5 146,-19.5 146,-0.5 77,-0.5"/>
<text text-anchor="middle" x="111.5" y="-7.5" font-family="Helvetica,sans-Serif" font-size="10.00">cpumask.h</text>
</a>
</g>
</g>
<!-- Node4&#45;&gt;Node6 -->
<g id="edge3" class="edge"><title>Node4&#45;&gt;Node6</title>
<path fill="none" stroke="midnightblue" d="M111.5,-45.8045C111.5,-36.9102 111.5,-26.7798 111.5,-19.7511"/>
<polygon fill="midnightblue" stroke="midnightblue" points="108,-46.083 111.5,-56.083 115,-46.083 108,-46.083"/>
</g>
<!-- Node7 -->
<g id="node5" class="node"><title>Node7</title>
<g id="a_node5"><a xlink:href="time__inlines_8h_source.html" target="_top" xlink:title="time_inlines.h">
<polygon fill="white" stroke="black" points="164,-0.5 164,-19.5 247,-19.5 247,-0.5 164,-0.5"/>
<text text-anchor="middle" x="205.5" y="-7.5" font-family="Helvetica,sans-Serif" font-size="10.00">time_inlines.h</text>
</a>
</g>
</g>
<!-- Node4&#45;&gt;Node7 -->
<g id="edge4" class="edge"><title>Node4&#45;&gt;Node7</title>
<path fill="none" stroke="midnightblue" d="M135.562,-51.1774C152.859,-41.2407 175.648,-28.1492 190.435,-19.6545"/>
<polygon fill="midnightblue" stroke="midnightblue" points="133.53,-48.3078 126.603,-56.324 137.017,-54.3775 133.53,-48.3078"/>
</g>
</g>
</svg>
