<?xml version="1.0" encoding="UTF-8" standalone="no"?>
<!DOCTYPE svg PUBLIC "-//W3C//DTD SVG 1.1//EN"
 "http://www.w3.org/Graphics/SVG/1.1/DTD/svg11.dtd">
<!-- Generated by graphviz version 2.38.0 (20140413.2041)
 -->
<!-- Title: packet.h Pages: 1 -->
<svg width="466pt" height="252pt"
 viewBox="0.00 0.00 465.60 252.00" xmlns="http://www.w3.org/2000/svg" xmlns:xlink="http://www.w3.org/1999/xlink">
<g id="graph0" class="graph" transform="scale(1 1) rotate(0) translate(4 248)">
<title>packet.h</title>
<polygon fill="white" stroke="none" points="-4,4 -4,-248 461.604,-248 461.604,4 -4,4"/>
<!-- Node0 -->
<g id="node1" class="node"><title>Node0</title>
<polygon fill="#bfbfbf" stroke="black" points="177.104,-224.5 177.104,-243.5 235.104,-243.5 235.104,-224.5 177.104,-224.5"/>
<text text-anchor="middle" x="206.104" y="-231.5" font-family="Helvetica,sans-Serif" font-size="10.00">packet.h</text>
</g>
<!-- Node1 -->
<g id="node2" class="node"><title>Node1</title>
<polygon fill="white" stroke="#bfbfbf" points="10.6038,-0.5 10.6038,-19.5 125.604,-19.5 125.604,-0.5 10.6038,-0.5"/>
<text text-anchor="middle" x="68.1038" y="-7.5" font-family="Helvetica,sans-Serif" font-size="10.00">odp/visibility_begin.h</text>
</g>
<!-- Node0&#45;&gt;Node1 -->
<g id="edge1" class="edge"><title>Node0&#45;&gt;Node1</title>
<path fill="none" stroke="midnightblue" d="M184.888,-224.382C141.14,-205.291 41.7736,-154.793 3.10382,-76 -7.41662,-54.5638 16.5653,-35.9808 38.3121,-24.2386"/>
<polygon fill="midnightblue" stroke="midnightblue" points="40.052,-27.2806 47.3882,-19.6366 36.8863,-21.0373 40.052,-27.2806"/>
</g>
<!-- Node2 -->
<g id="node3" class="node"><title>Node2</title>
<g id="a_node3"><a xlink:href="time_8h.html" target="_top" xlink:title="ODP time. ">
<polygon fill="white" stroke="black" points="163.104,-168.5 163.104,-187.5 249.104,-187.5 249.104,-168.5 163.104,-168.5"/>
<text text-anchor="middle" x="206.104" y="-175.5" font-family="Helvetica,sans-Serif" font-size="10.00">odp/api/time.h</text>
</a>
</g>
</g>
<!-- Node0&#45;&gt;Node2 -->
<g id="edge2" class="edge"><title>Node0&#45;&gt;Node2</title>
<path fill="none" stroke="midnightblue" d="M206.104,-224.083C206.104,-217.006 206.104,-206.861 206.104,-197.986"/>
<polygon fill="midnightblue" stroke="midnightblue" points="209.604,-197.751 206.104,-187.751 202.604,-197.751 209.604,-197.751"/>
</g>
<!-- Node7 -->
<g id="node8" class="node"><title>Node7</title>
<polygon fill="white" stroke="#bfbfbf" points="350.604,-0.5 350.604,-19.5 457.604,-19.5 457.604,-0.5 350.604,-0.5"/>
<text text-anchor="middle" x="404.104" y="-7.5" font-family="Helvetica,sans-Serif" font-size="10.00">odp/visibility_end.h</text>
</g>
<!-- Node0&#45;&gt;Node7 -->
<g id="edge13" class="edge"><title>Node0&#45;&gt;Node7</title>
<path fill="none" stroke="midnightblue" d="M228.493,-224.467C265.301,-209.679 339.644,-176.546 391.104,-132 414.626,-111.638 423.266,-105.515 433.104,-76 438.755,-59.0459 428.766,-40.5026 419.004,-27.5768"/>
<polygon fill="midnightblue" stroke="midnightblue" points="421.523,-25.1294 412.477,-19.6142 416.109,-29.5669 421.523,-25.1294"/>
</g>
<!-- Node3 -->
<g id="node4" class="node"><title>Node3</title>
<g id="a_node4"><a xlink:href="std__types_8h.html" target="_top" xlink:title="Standard C language types and definitions for ODP. ">
<polygon fill="white" stroke="black" points="151.104,-112.5 151.104,-131.5 261.104,-131.5 261.104,-112.5 151.104,-112.5"/>
<text text-anchor="middle" x="206.104" y="-119.5" font-family="Helvetica,sans-Serif" font-size="10.00">odp/api/std_types.h</text>
</a>
</g>
</g>
<!-- Node2&#45;&gt;Node3 -->
<g id="edge3" class="edge"><title>Node2&#45;&gt;Node3</title>
<path fill="none" stroke="midnightblue" d="M206.104,-168.083C206.104,-161.006 206.104,-150.861 206.104,-141.986"/>
<polygon fill="midnightblue" stroke="midnightblue" points="209.604,-141.751 206.104,-131.751 202.604,-141.751 209.604,-141.751"/>
</g>
<!-- Node8 -->
<g id="node9" class="node"><title>Node8</title>
<polygon fill="white" stroke="#bfbfbf" points="279.604,-112.5 279.604,-131.5 382.604,-131.5 382.604,-112.5 279.604,-112.5"/>
<text text-anchor="middle" x="331.104" y="-119.5" font-family="Helvetica,sans-Serif" font-size="10.00">odp/api/abi/time.h</text>
</g>
<!-- Node2&#45;&gt;Node8 -->
<g id="edge9" class="edge"><title>Node2&#45;&gt;Node8</title>
<path fill="none" stroke="midnightblue" d="M225.91,-168.444C246.391,-159.596 278.586,-145.687 301.968,-135.586"/>
<polygon fill="midnightblue" stroke="midnightblue" points="303.598,-138.695 311.39,-131.516 300.822,-132.269 303.598,-138.695"/>
</g>
<!-- Node9 -->
<g id="node10" class="node"><title>Node9</title>
<g id="a_node10"><a xlink:href="spec_2time_8h.html" target="_top" xlink:title="ODP time. ">
<polygon fill="white" stroke="black" points="12.6038,-56.5 12.6038,-75.5 123.604,-75.5 123.604,-56.5 12.6038,-56.5"/>
<text text-anchor="middle" x="68.1038" y="-63.5" font-family="Helvetica,sans-Serif" font-size="10.00">odp/api/spec/time.h</text>
</a>
</g>
</g>
<!-- Node2&#45;&gt;Node9 -->
<g id="edge10" class="edge"><title>Node2&#45;&gt;Node9</title>
<path fill="none" stroke="midnightblue" d="M193.058,-168.432C179.912,-159.659 159.182,-145.441 142.104,-132 121.885,-116.087 99.8693,-96.4249 85.154,-82.9181"/>
<polygon fill="midnightblue" stroke="midnightblue" points="87.1211,-79.9701 77.4022,-75.7517 82.3692,-85.1101 87.1211,-79.9701"/>
</g>
<!-- Node4 -->
<g id="node5" class="node"><title>Node4</title>
<polygon fill="white" stroke="#bfbfbf" points="142.104,-56.5 142.104,-75.5 270.104,-75.5 270.104,-56.5 142.104,-56.5"/>
<text text-anchor="middle" x="206.104" y="-63.5" font-family="Helvetica,sans-Serif" font-size="10.00">odp/api/abi/std_types.h</text>
</g>
<!-- Node3&#45;&gt;Node4 -->
<g id="edge4" class="edge"><title>Node3&#45;&gt;Node4</title>
<path fill="none" stroke="midnightblue" d="M206.104,-112.083C206.104,-105.006 206.104,-94.8611 206.104,-85.9865"/>
<polygon fill="midnightblue" stroke="midnightblue" points="209.604,-85.751 206.104,-75.7511 202.604,-85.7511 209.604,-85.751"/>
</g>
<!-- Node5 -->
<g id="node6" class="node"><title>Node5</title>
<g id="a_node6"><a xlink:href="spec_2std__types_8h.html" target="_top" xlink:title="Standard C language types and definitions for ODP. ">
<polygon fill="white" stroke="black" points="288.104,-56.5 288.104,-75.5 424.104,-75.5 424.104,-56.5 288.104,-56.5"/>
<text text-anchor="middle" x="356.104" y="-63.5" font-family="Helvetica,sans-Serif" font-size="10.00">odp/api/spec/std_types.h</text>
</a>
</g>
</g>
<!-- Node3&#45;&gt;Node5 -->
<g id="edge5" class="edge"><title>Node3&#45;&gt;Node5</title>
<path fill="none" stroke="midnightblue" d="M229.872,-112.444C254.997,-103.399 294.815,-89.064 323.004,-78.9158"/>
<polygon fill="midnightblue" stroke="midnightblue" points="324.224,-82.1968 332.447,-75.5164 321.853,-75.6106 324.224,-82.1968"/>
</g>
<!-- Node5&#45;&gt;Node1 -->
<g id="edge6" class="edge"><title>Node5&#45;&gt;Node1</title>
<path fill="none" stroke="midnightblue" d="M310.469,-56.4435C259.807,-46.9444 178.029,-31.611 123.676,-21.4198"/>
<polygon fill="midnightblue" stroke="midnightblue" points="123.999,-17.9193 113.525,-19.5164 122.708,-24.7994 123.999,-17.9193"/>
</g>
<!-- Node6 -->
<g id="node7" class="node"><title>Node6</title>
<polygon fill="white" stroke="#bfbfbf" points="279.604,-0.5 279.604,-19.5 332.604,-19.5 332.604,-0.5 279.604,-0.5"/>
<text text-anchor="middle" x="306.104" y="-7.5" font-family="Helvetica,sans-Serif" font-size="10.00">stdint.h</text>
</g>
<!-- Node5&#45;&gt;Node6 -->
<g id="edge7" class="edge"><title>Node5&#45;&gt;Node6</title>
<path fill="none" stroke="midnightblue" d="M347.847,-56.083C340.639,-48.2982 329.994,-36.8015 321.258,-27.3665"/>
<polygon fill="midnightblue" stroke="midnightblue" points="323.569,-24.7108 314.207,-19.7511 318.433,-29.4666 323.569,-24.7108"/>
</g>
<!-- Node5&#45;&gt;Node7 -->
<g id="edge8" class="edge"><title>Node5&#45;&gt;Node7</title>
<path fill="none" stroke="midnightblue" d="M364.03,-56.083C370.95,-48.2982 381.169,-36.8015 389.556,-27.3665"/>
<polygon fill="midnightblue" stroke="midnightblue" points="392.297,-29.5505 396.325,-19.7511 387.065,-24.8999 392.297,-29.5505"/>
</g>
<!-- Node9&#45;&gt;Node1 -->
<g id="edge11" class="edge"><title>Node9&#45;&gt;Node1</title>
<path fill="none" stroke="midnightblue" d="M68.1038,-56.083C68.1038,-49.0059 68.1038,-38.8611 68.1038,-29.9865"/>
<polygon fill="midnightblue" stroke="midnightblue" points="71.6039,-29.751 68.1038,-19.7511 64.6039,-29.7511 71.6039,-29.751"/>
</g>
<!-- Node9&#45;&gt;Node7 -->
<g id="edge12" class="edge"><title>Node9&#45;&gt;Node7</title>
<path fill="none" stroke="midnightblue" d="M121.344,-56.4435C181.064,-46.8456 277.845,-31.2916 341.236,-21.1037"/>
<polygon fill="midnightblue" stroke="midnightblue" points="341.795,-24.559 351.113,-19.5164 340.684,-17.6476 341.795,-24.559"/>
</g>
</g>
</svg>
