<?xml version="1.0" encoding="UTF-8" standalone="no"?>
<!DOCTYPE svg PUBLIC "-//W3C//DTD SVG 1.1//EN"
 "http://www.w3.org/Graphics/SVG/1.1/DTD/svg11.dtd">
<!-- Generated by graphviz version 2.38.0 (20140413.2041)
 -->
<!-- Title: std_types.h Pages: 1 -->
<svg width="2487pt" height="420pt"
 viewBox="0.00 0.00 2486.50 420.00" xmlns="http://www.w3.org/2000/svg" xmlns:xlink="http://www.w3.org/1999/xlink">
<g id="graph0" class="graph" transform="scale(1 1) rotate(0) translate(4 416)">
<title>std_types.h</title>
<polygon fill="white" stroke="none" points="-4,4 -4,-416 2482.5,-416 2482.5,4 -4,4"/>
<!-- Node4 -->
<g id="node1" class="node"><title>Node4</title>
<polygon fill="#bfbfbf" stroke="black" points="1283.5,-392.5 1283.5,-411.5 1355.5,-411.5 1355.5,-392.5 1283.5,-392.5"/>
<text text-anchor="middle" x="1319.5" y="-399.5" font-family="Helvetica,sans-Serif" font-size="10.00">std_types.h</text>
</g>
<!-- Node5 -->
<g id="node2" class="node"><title>Node5</title>
<g id="a_node2"><a xlink:href="std__types_8h.html" target="_top" xlink:title="Standard C language types and definitions for ODP. ">
<polygon fill="white" stroke="black" points="1283.5,-336.5 1283.5,-355.5 1355.5,-355.5 1355.5,-336.5 1283.5,-336.5"/>
<text text-anchor="middle" x="1319.5" y="-343.5" font-family="Helvetica,sans-Serif" font-size="10.00">std_types.h</text>
</a>
</g>
</g>
<!-- Node4&#45;&gt;Node5 -->
<g id="edge1" class="edge"><title>Node4&#45;&gt;Node5</title>
<path fill="none" stroke="midnightblue" d="M1319.5,-381.805C1319.5,-372.91 1319.5,-362.78 1319.5,-355.751"/>
<polygon fill="midnightblue" stroke="midnightblue" points="1316,-382.083 1319.5,-392.083 1323,-382.083 1316,-382.083"/>
</g>
<!-- Node6 -->
<g id="node3" class="node"><title>Node6</title>
<g id="a_node3"><a xlink:href="abi-default_2atomic_8h.html" target="_top" xlink:title="ODP atomic operations. ">
<polygon fill="white" stroke="black" points="0,-280.5 0,-299.5 59,-299.5 59,-280.5 0,-280.5"/>
<text text-anchor="middle" x="29.5" y="-287.5" font-family="Helvetica,sans-Serif" font-size="10.00">atomic.h</text>
</a>
</g>
</g>
<!-- Node5&#45;&gt;Node6 -->
<g id="edge2" class="edge"><title>Node5&#45;&gt;Node6</title>
<path fill="none" stroke="midnightblue" d="M1273.2,-344.518C1076.37,-342.284 308.214,-331.675 68.5,-300 65.4689,-299.599 62.3276,-299.071 59.2036,-298.47"/>
<polygon fill="midnightblue" stroke="midnightblue" points="1273.17,-348.017 1283.21,-344.629 1273.25,-341.018 1273.17,-348.017"/>
</g>
<!-- Node7 -->
<g id="node4" class="node"><title>Node7</title>
<g id="a_node4"><a xlink:href="abi-default_2barrier_8h.html" target="_top" xlink:title="ODP barrier. ">
<polygon fill="white" stroke="black" points="77.5,-280.5 77.5,-299.5 133.5,-299.5 133.5,-280.5 77.5,-280.5"/>
<text text-anchor="middle" x="105.5" y="-287.5" font-family="Helvetica,sans-Serif" font-size="10.00">barrier.h</text>
</a>
</g>
</g>
<!-- Node5&#45;&gt;Node7 -->
<g id="edge3" class="edge"><title>Node5&#45;&gt;Node7</title>
<path fill="none" stroke="midnightblue" d="M1273.24,-344.431C1083.92,-341.915 367.647,-330.537 143.5,-300 140.276,-299.561 136.924,-298.97 133.607,-298.299"/>
<polygon fill="midnightblue" stroke="midnightblue" points="1273.36,-347.932 1283.41,-344.564 1273.45,-340.933 1273.36,-347.932"/>
</g>
<!-- Node8 -->
<g id="node5" class="node"><title>Node8</title>
<g id="a_node5"><a xlink:href="abi-default_2byteorder_8h.html" target="_top" xlink:title="ODP byteorder. ">
<polygon fill="white" stroke="black" points="152,-280.5 152,-299.5 223,-299.5 223,-280.5 152,-280.5"/>
<text text-anchor="middle" x="187.5" y="-287.5" font-family="Helvetica,sans-Serif" font-size="10.00">byteorder.h</text>
</a>
</g>
</g>
<!-- Node5&#45;&gt;Node8 -->
<g id="edge4" class="edge"><title>Node5&#45;&gt;Node8</title>
<path fill="none" stroke="midnightblue" d="M1273.28,-344.048C1093.25,-340.192 438.779,-324.744 232.5,-300 229.494,-299.639 226.389,-299.188 223.28,-298.68"/>
<polygon fill="midnightblue" stroke="midnightblue" points="1273.39,-347.551 1283.46,-344.265 1273.54,-340.553 1273.39,-347.551"/>
</g>
<!-- Node9 -->
<g id="node6" class="node"><title>Node9</title>
<g id="a_node6"><a xlink:href="abi-default_2cpumask_8h.html" target="_top" xlink:title="ODP CPU masks and enumeration. ">
<polygon fill="white" stroke="black" points="241,-280.5 241,-299.5 310,-299.5 310,-280.5 241,-280.5"/>
<text text-anchor="middle" x="275.5" y="-287.5" font-family="Helvetica,sans-Serif" font-size="10.00">cpumask.h</text>
</a>
</g>
</g>
<!-- Node5&#45;&gt;Node9 -->
<g id="edge5" class="edge"><title>Node5&#45;&gt;Node9</title>
<path fill="none" stroke="midnightblue" d="M1273.33,-345.487C1130.75,-346.444 685.035,-345.325 319.5,-300 316.405,-299.616 313.203,-299.133 310.003,-298.59"/>
<polygon fill="midnightblue" stroke="midnightblue" points="1273.48,-348.987 1283.45,-345.412 1273.43,-341.987 1273.48,-348.987"/>
</g>
<!-- Node10 -->
<g id="node7" class="node"><title>Node10</title>
<g id="a_node7"><a xlink:href="abi-default_2init_8h.html" target="_top" xlink:title="ODP initialization. ">
<polygon fill="white" stroke="black" points="328.5,-280.5 328.5,-299.5 368.5,-299.5 368.5,-280.5 328.5,-280.5"/>
<text text-anchor="middle" x="348.5" y="-287.5" font-family="Helvetica,sans-Serif" font-size="10.00">init.h</text>
</a>
</g>
</g>
<!-- Node5&#45;&gt;Node10 -->
<g id="edge6" class="edge"><title>Node5&#45;&gt;Node10</title>
<path fill="none" stroke="midnightblue" d="M1273,-344.334C1108.21,-341.732 552.54,-330.827 377.5,-300 374.593,-299.488 371.57,-298.769 368.621,-297.959"/>
<polygon fill="midnightblue" stroke="midnightblue" points="1273.23,-347.838 1283.28,-344.494 1273.34,-340.839 1273.23,-347.838"/>
</g>
<!-- Node11 -->
<g id="node8" class="node"><title>Node11</title>
<g id="a_node8"><a xlink:href="abi-default_2ipsec_8h.html" target="_top" xlink:title="ODP IPSEC API &#45; platform specific types. ">
<polygon fill="white" stroke="black" points="386.5,-280.5 386.5,-299.5 436.5,-299.5 436.5,-280.5 386.5,-280.5"/>
<text text-anchor="middle" x="411.5" y="-287.5" font-family="Helvetica,sans-Serif" font-size="10.00">ipsec.h</text>
</a>
</g>
</g>
<!-- Node5&#45;&gt;Node11 -->
<g id="edge7" class="edge"><title>Node5&#45;&gt;Node11</title>
<path fill="none" stroke="midnightblue" d="M1273.11,-343.834C1116.5,-339.708 608.186,-324.7 446.5,-300 443.275,-299.507 439.916,-298.843 436.61,-298.098"/>
<polygon fill="midnightblue" stroke="midnightblue" points="1273.25,-347.339 1283.33,-344.102 1273.43,-340.342 1273.25,-347.339"/>
</g>
<!-- Node12 -->
<g id="node9" class="node"><title>Node12</title>
<g id="a_node9"><a xlink:href="abi-default_2packet__io_8h.html" target="_top" xlink:title="ODP Packet IO. ">
<polygon fill="white" stroke="black" points="455,-280.5 455,-299.5 526,-299.5 526,-280.5 455,-280.5"/>
<text text-anchor="middle" x="490.5" y="-287.5" font-family="Helvetica,sans-Serif" font-size="10.00">packet_io.h</text>
</a>
</g>
</g>
<!-- Node5&#45;&gt;Node12 -->
<g id="edge8" class="edge"><title>Node5&#45;&gt;Node12</title>
<path fill="none" stroke="midnightblue" d="M1273.33,-344.603C1151.96,-343.073 814.07,-335.673 535.5,-300 532.497,-299.615 529.394,-299.147 526.287,-298.627"/>
<polygon fill="midnightblue" stroke="midnightblue" points="1273.35,-348.103 1283.39,-344.723 1273.43,-341.104 1273.35,-348.103"/>
</g>
<!-- Node13 -->
<g id="node10" class="node"><title>Node13</title>
<g id="a_node10"><a xlink:href="abi-default_2rwlock__recursive_8h.html" target="_top" xlink:title="ODP recursive read/write lock. ">
<polygon fill="white" stroke="black" points="544.5,-280.5 544.5,-299.5 648.5,-299.5 648.5,-280.5 544.5,-280.5"/>
<text text-anchor="middle" x="596.5" y="-287.5" font-family="Helvetica,sans-Serif" font-size="10.00">rwlock_recursive.h</text>
</a>
</g>
</g>
<!-- Node5&#45;&gt;Node13 -->
<g id="edge9" class="edge"><title>Node5&#45;&gt;Node13</title>
<path fill="none" stroke="midnightblue" d="M1272.93,-343.095C1164.68,-338.391 887.778,-324.776 657.5,-300 654.626,-299.691 651.68,-299.347 648.709,-298.979"/>
<polygon fill="midnightblue" stroke="midnightblue" points="1273.03,-346.603 1283.17,-343.535 1273.33,-339.609 1273.03,-346.603"/>
</g>
<!-- Node14 -->
<g id="node11" class="node"><title>Node14</title>
<g id="a_node11"><a xlink:href="abi-default_2schedule_8h.html" target="_top" xlink:title="ODP schedule. ">
<polygon fill="white" stroke="black" points="666.5,-280.5 666.5,-299.5 734.5,-299.5 734.5,-280.5 666.5,-280.5"/>
<text text-anchor="middle" x="700.5" y="-287.5" font-family="Helvetica,sans-Serif" font-size="10.00">schedule.h</text>
</a>
</g>
</g>
<!-- Node5&#45;&gt;Node14 -->
<g id="edge10" class="edge"><title>Node5&#45;&gt;Node14</title>
<path fill="none" stroke="midnightblue" d="M1273.18,-343.319C1175.2,-339.338 939.9,-327.523 744.5,-300 741.257,-299.543 737.894,-298.994 734.538,-298.395"/>
<polygon fill="midnightblue" stroke="midnightblue" points="1273.21,-346.823 1283.34,-343.724 1273.48,-339.829 1273.21,-346.823"/>
</g>
<!-- Node15 -->
<g id="node12" class="node"><title>Node15</title>
<g id="a_node12"><a xlink:href="abi-default_2spinlock__recursive_8h.html" target="_top" xlink:title="ODP recursive spinlock. ">
<polygon fill="white" stroke="black" points="753,-280.5 753,-299.5 866,-299.5 866,-280.5 753,-280.5"/>
<text text-anchor="middle" x="809.5" y="-287.5" font-family="Helvetica,sans-Serif" font-size="10.00">spinlock_recursive.h</text>
</a>
</g>
</g>
<!-- Node5&#45;&gt;Node15 -->
<g id="edge11" class="edge"><title>Node5&#45;&gt;Node15</title>
<path fill="none" stroke="midnightblue" d="M1273.16,-340.834C1192.33,-333.45 1020.37,-317.214 875.5,-300 872.399,-299.632 869.219,-299.241 866.009,-298.836"/>
<polygon fill="midnightblue" stroke="midnightblue" points="1273.21,-344.353 1283.48,-341.775 1273.84,-337.382 1273.21,-344.353"/>
</g>
<!-- Node16 -->
<g id="node13" class="node"><title>Node16</title>
<g id="a_node13"><a xlink:href="abi-default_2traffic__mngr_8h.html" target="_top" xlink:title="ODP traffic mngr. ">
<polygon fill="white" stroke="black" points="884,-280.5 884,-299.5 967,-299.5 967,-280.5 884,-280.5"/>
<text text-anchor="middle" x="925.5" y="-287.5" font-family="Helvetica,sans-Serif" font-size="10.00">traffic_mngr.h</text>
</a>
</g>
</g>
<!-- Node5&#45;&gt;Node16 -->
<g id="edge12" class="edge"><title>Node5&#45;&gt;Node16</title>
<path fill="none" stroke="midnightblue" d="M1273.31,-339.598C1207.35,-331.734 1082.43,-316.288 976.5,-300 973.479,-299.535 970.36,-299.036 967.224,-298.518"/>
<polygon fill="midnightblue" stroke="midnightblue" points="1273.03,-343.09 1283.38,-340.794 1273.86,-336.138 1273.03,-343.09"/>
</g>
<!-- Node17 -->
<g id="node14" class="node"><title>Node17</title>
<g id="a_node14"><a xlink:href="barrier_8h.html" target="_top" xlink:title="ODP execution barriers. ">
<polygon fill="white" stroke="black" points="985.5,-280.5 985.5,-299.5 1041.5,-299.5 1041.5,-280.5 985.5,-280.5"/>
<text text-anchor="middle" x="1013.5" y="-287.5" font-family="Helvetica,sans-Serif" font-size="10.00">barrier.h</text>
</a>
</g>
</g>
<!-- Node5&#45;&gt;Node17 -->
<g id="edge13" class="edge"><title>Node5&#45;&gt;Node17</title>
<path fill="none" stroke="midnightblue" d="M1273.18,-338.176C1219.62,-330.064 1128.89,-315.643 1051.5,-300 1048.31,-299.355 1044.98,-298.636 1041.68,-297.892"/>
<polygon fill="midnightblue" stroke="midnightblue" points="1272.97,-341.684 1283.38,-339.712 1274.01,-334.762 1272.97,-341.684"/>
</g>
<!-- Node18 -->
<g id="node15" class="node"><title>Node18</title>
<g id="a_node15"><a xlink:href="buffer_8h.html" target="_top" xlink:title="ODP buffer descriptor. ">
<polygon fill="white" stroke="black" points="1060,-280.5 1060,-299.5 1113,-299.5 1113,-280.5 1060,-280.5"/>
<text text-anchor="middle" x="1086.5" y="-287.5" font-family="Helvetica,sans-Serif" font-size="10.00">buffer.h</text>
</a>
</g>
</g>
<!-- Node5&#45;&gt;Node18 -->
<g id="edge14" class="edge"><title>Node5&#45;&gt;Node18</title>
<path fill="none" stroke="midnightblue" d="M1273.55,-334.35C1225.71,-323.263 1152.41,-306.276 1113.29,-297.209"/>
<polygon fill="midnightblue" stroke="midnightblue" points="1272.82,-337.774 1283.35,-336.622 1274.4,-330.954 1272.82,-337.774"/>
</g>
<!-- Node19 -->
<g id="node16" class="node"><title>Node19</title>
<g id="a_node16"><a xlink:href="classification_8h.html" target="_top" xlink:title="ODP classification descriptor. ">
<polygon fill="white" stroke="black" points="1169.5,-56.5 1169.5,-75.5 1255.5,-75.5 1255.5,-56.5 1169.5,-56.5"/>
<text text-anchor="middle" x="1212.5" y="-63.5" font-family="Helvetica,sans-Serif" font-size="10.00">classification.h</text>
</a>
</g>
</g>
<!-- Node5&#45;&gt;Node19 -->
<g id="edge15" class="edge"><title>Node5&#45;&gt;Node19</title>
<path fill="none" stroke="midnightblue" d="M1273.37,-335.936C1239.85,-328.498 1193.84,-316.498 1155.5,-300 1139.75,-293.222 1138.43,-286.349 1122.5,-280 1052.37,-252.053 1003.89,-302.767 956.5,-244 887.562,-158.51 1089.46,-97.1968 1175.59,-75.559"/>
<polygon fill="midnightblue" stroke="midnightblue" points="1272.83,-339.401 1283.34,-338.098 1274.31,-332.56 1272.83,-339.401"/>
</g>
<!-- Node22 -->
<g id="node18" class="node"><title>Node22</title>
<g id="a_node18"><a xlink:href="crypto_8h.html" target="_top" xlink:title="ODP crypto. ">
<polygon fill="white" stroke="black" points="1083.5,-168.5 1083.5,-187.5 1139.5,-187.5 1139.5,-168.5 1083.5,-168.5"/>
<text text-anchor="middle" x="1111.5" y="-175.5" font-family="Helvetica,sans-Serif" font-size="10.00">crypto.h</text>
</a>
</g>
</g>
<!-- Node5&#45;&gt;Node22 -->
<g id="edge17" class="edge"><title>Node5&#45;&gt;Node22</title>
<path fill="none" stroke="midnightblue" d="M1285.18,-333.057C1260.81,-324.374 1227.4,-312.073 1198.5,-300 1179.05,-291.876 1175.56,-286.475 1155.5,-280 1074.54,-253.863 1021.7,-309.569 967.5,-244 933.858,-203.305 1032.23,-187.058 1083.11,-181.502"/>
<polygon fill="midnightblue" stroke="midnightblue" points="1284.12,-336.392 1294.71,-336.43 1286.45,-329.794 1284.12,-336.392"/>
</g>
<!-- Node23 -->
<g id="node19" class="node"><title>Node23</title>
<g id="a_node19"><a xlink:href="packet_8h.html" target="_top" xlink:title="ODP packet descriptor. ">
<polygon fill="white" stroke="black" points="1207.5,-280.5 1207.5,-299.5 1265.5,-299.5 1265.5,-280.5 1207.5,-280.5"/>
<text text-anchor="middle" x="1236.5" y="-287.5" font-family="Helvetica,sans-Serif" font-size="10.00">packet.h</text>
</a>
</g>
</g>
<!-- Node5&#45;&gt;Node23 -->
<g id="edge19" class="edge"><title>Node5&#45;&gt;Node23</title>
<path fill="none" stroke="midnightblue" d="M1297.4,-330.622C1282.24,-320.757 1262.62,-307.992 1249.8,-299.655"/>
<polygon fill="midnightblue" stroke="midnightblue" points="1295.87,-333.804 1306.16,-336.324 1299.69,-327.937 1295.87,-333.804"/>
</g>
<!-- Node38 -->
<g id="node23" class="node"><title>Node38</title>
<g id="a_node23"><a xlink:href="spec_2packet__flags_8h.html" target="_top" xlink:title="ODP packet flags. ">
<polygon fill="white" stroke="black" points="1193.5,-224.5 1193.5,-243.5 1279.5,-243.5 1279.5,-224.5 1193.5,-224.5"/>
<text text-anchor="middle" x="1236.5" y="-231.5" font-family="Helvetica,sans-Serif" font-size="10.00">packet_flags.h</text>
</a>
</g>
</g>
<!-- Node5&#45;&gt;Node38 -->
<g id="edge49" class="edge"><title>Node5&#45;&gt;Node38</title>
<path fill="none" stroke="midnightblue" d="M1308.25,-327.806C1299.4,-314.516 1286.58,-295.785 1274.5,-280 1264.55,-267.009 1252.2,-252.679 1244.33,-243.758"/>
<polygon fill="midnightblue" stroke="midnightblue" points="1305.5,-329.986 1313.93,-336.402 1311.34,-326.129 1305.5,-329.986"/>
</g>
<!-- Node32 -->
<g id="node26" class="node"><title>Node32</title>
<g id="a_node26"><a xlink:href="packet__io_8h.html" target="_top" xlink:title="ODP Packet IO. ">
<polygon fill="white" stroke="black" points="1298,-168.5 1298,-187.5 1369,-187.5 1369,-168.5 1298,-168.5"/>
<text text-anchor="middle" x="1333.5" y="-175.5" font-family="Helvetica,sans-Serif" font-size="10.00">packet_io.h</text>
</a>
</g>
</g>
<!-- Node5&#45;&gt;Node32 -->
<g id="edge32" class="edge"><title>Node5&#45;&gt;Node32</title>
<path fill="none" stroke="midnightblue" d="M1365.72,-340.351C1397.96,-335.078 1440.43,-323.854 1470.5,-300 1492.96,-282.185 1495.14,-271.705 1502.5,-244 1504.78,-235.409 1507.92,-231.048 1502.5,-224 1486.36,-202.996 1413.7,-189.718 1369.07,-183.392"/>
<polygon fill="midnightblue" stroke="midnightblue" points="1365.01,-336.918 1355.64,-341.862 1366.04,-343.841 1365.01,-336.918"/>
</g>
<!-- Node34 -->
<g id="node28" class="node"><title>Node34</title>
<g id="a_node28"><a xlink:href="spec_2traffic__mngr_8h.html" target="_top" xlink:title="Copyright (c) 2015&#45;2018, Linaro Limited All rights reserved. ">
<polygon fill="white" stroke="red" points="1405,-112.5 1405,-131.5 1488,-131.5 1488,-112.5 1405,-112.5"/>
<text text-anchor="middle" x="1446.5" y="-119.5" font-family="Helvetica,sans-Serif" font-size="10.00">traffic_mngr.h</text>
</a>
</g>
</g>
<!-- Node5&#45;&gt;Node34 -->
<g id="edge56" class="edge"><title>Node5&#45;&gt;Node34</title>
<path fill="none" stroke="midnightblue" d="M1366.1,-343.92C1404.42,-340.686 1458.01,-330.471 1493.5,-300 1538.11,-261.693 1534.62,-217.257 1502.5,-168 1492.21,-152.224 1474.58,-139.403 1461.84,-131.539"/>
<polygon fill="midnightblue" stroke="midnightblue" points="1365.45,-340.457 1355.72,-344.658 1365.95,-347.44 1365.45,-340.457"/>
</g>
<!-- Node30 -->
<g id="node29" class="node"><title>Node30</title>
<g id="a_node29"><a xlink:href="queue_8h.html" target="_top" xlink:title="ODP queue. ">
<polygon fill="white" stroke="black" points="1387.5,-280.5 1387.5,-299.5 1443.5,-299.5 1443.5,-280.5 1387.5,-280.5"/>
<text text-anchor="middle" x="1415.5" y="-287.5" font-family="Helvetica,sans-Serif" font-size="10.00">queue.h</text>
</a>
</g>
</g>
<!-- Node5&#45;&gt;Node30 -->
<g id="edge33" class="edge"><title>Node5&#45;&gt;Node30</title>
<path fill="none" stroke="midnightblue" d="M1344.07,-331.177C1361.74,-321.241 1385.01,-308.149 1400.11,-299.655"/>
<polygon fill="midnightblue" stroke="midnightblue" points="1341.92,-328.371 1334.92,-336.324 1345.36,-334.472 1341.92,-328.371"/>
</g>
<!-- Node36 -->
<g id="node30" class="node"><title>Node36</title>
<g id="a_node30"><a xlink:href="spec_2schedule_8h.html" target="_top" xlink:title="ODP schedule. ">
<polygon fill="white" stroke="black" points="1425.5,-224.5 1425.5,-243.5 1493.5,-243.5 1493.5,-224.5 1425.5,-224.5"/>
<text text-anchor="middle" x="1459.5" y="-231.5" font-family="Helvetica,sans-Serif" font-size="10.00">schedule.h</text>
</a>
</g>
</g>
<!-- Node5&#45;&gt;Node36 -->
<g id="edge52" class="edge"><title>Node5&#45;&gt;Node36</title>
<path fill="none" stroke="midnightblue" d="M1365.83,-341.698C1395.3,-337.014 1431.7,-325.942 1452.5,-300 1465.57,-283.708 1463.47,-257.256 1461.25,-243.666"/>
<polygon fill="midnightblue" stroke="midnightblue" points="1365.16,-338.258 1355.74,-343.102 1366.12,-345.191 1365.16,-338.258"/>
</g>
<!-- Node40 -->
<g id="node32" class="node"><title>Node40</title>
<g id="a_node32"><a xlink:href="spec_2chksum_8h.html" target="_top" xlink:title="ODP checksum functions. ">
<polygon fill="white" stroke="black" points="1588,-280.5 1588,-299.5 1651,-299.5 1651,-280.5 1588,-280.5"/>
<text text-anchor="middle" x="1619.5" y="-287.5" font-family="Helvetica,sans-Serif" font-size="10.00">chksum.h</text>
</a>
</g>
</g>
<!-- Node5&#45;&gt;Node40 -->
<g id="edge38" class="edge"><title>Node5&#45;&gt;Node40</title>
<path fill="none" stroke="midnightblue" d="M1365.75,-337.062C1416.69,-328.258 1501.01,-313.512 1573.5,-300 1578.14,-299.135 1583.04,-298.2 1587.84,-297.271"/>
<polygon fill="midnightblue" stroke="midnightblue" points="1364.97,-333.644 1355.71,-338.794 1366.16,-340.543 1364.97,-333.644"/>
</g>
<!-- Node42 -->
<g id="node34" class="node"><title>Node42</title>
<g id="a_node34"><a xlink:href="spec_2cpu_8h.html" target="_top" xlink:title="ODP CPU API. ">
<polygon fill="white" stroke="black" points="1669,-280.5 1669,-299.5 1712,-299.5 1712,-280.5 1669,-280.5"/>
<text text-anchor="middle" x="1690.5" y="-287.5" font-family="Helvetica,sans-Serif" font-size="10.00">cpu.h</text>
</a>
</g>
</g>
<!-- Node5&#45;&gt;Node42 -->
<g id="edge40" class="edge"><title>Node5&#45;&gt;Node42</title>
<path fill="none" stroke="midnightblue" d="M1365.73,-341.267C1431.68,-335.409 1556.31,-322.353 1660.5,-300 1663.26,-299.407 1666.14,-298.683 1668.98,-297.907"/>
<polygon fill="midnightblue" stroke="midnightblue" points="1365.32,-337.79 1355.66,-342.146 1365.93,-344.763 1365.32,-337.79"/>
</g>
<!-- Node45 -->
<g id="node36" class="node"><title>Node45</title>
<g id="a_node36"><a xlink:href="spec_2feature_8h.html" target="_top" xlink:title="ODP features. ">
<polygon fill="white" stroke="black" points="1730.5,-280.5 1730.5,-299.5 1790.5,-299.5 1790.5,-280.5 1730.5,-280.5"/>
<text text-anchor="middle" x="1760.5" y="-287.5" font-family="Helvetica,sans-Serif" font-size="10.00">feature.h</text>
</a>
</g>
</g>
<!-- Node5&#45;&gt;Node45 -->
<g id="edge42" class="edge"><title>Node5&#45;&gt;Node45</title>
<path fill="none" stroke="midnightblue" d="M1365.79,-341.564C1440.84,-335.603 1593.57,-321.847 1721.5,-300 1724.38,-299.509 1727.36,-298.936 1730.34,-298.323"/>
<polygon fill="midnightblue" stroke="midnightblue" points="1365.43,-338.082 1355.73,-342.353 1365.97,-345.06 1365.43,-338.082"/>
</g>
<!-- Node47 -->
<g id="node38" class="node"><title>Node47</title>
<g id="a_node38"><a xlink:href="spec_2init_8h.html" target="_top" xlink:title="init.h">
<polygon fill="white" stroke="black" points="1769.5,-168.5 1769.5,-187.5 1809.5,-187.5 1809.5,-168.5 1769.5,-168.5"/>
<text text-anchor="middle" x="1789.5" y="-175.5" font-family="Helvetica,sans-Serif" font-size="10.00">init.h</text>
</a>
</g>
</g>
<!-- Node5&#45;&gt;Node47 -->
<g id="edge48" class="edge"><title>Node5&#45;&gt;Node47</title>
<path fill="none" stroke="midnightblue" d="M1365.87,-344.124C1480.6,-341.479 1770.64,-331.693 1799.5,-300 1828.59,-268.051 1804.68,-209.679 1794,-187.689"/>
<polygon fill="midnightblue" stroke="midnightblue" points="1365.57,-340.63 1355.65,-344.352 1365.72,-347.628 1365.57,-340.63"/>
</g>
<!-- Node51 -->
<g id="node40" class="node"><title>Node51</title>
<g id="a_node40"><a xlink:href="spec_2hash_8h.html" target="_top" xlink:title="ODP Hash functions. ">
<polygon fill="white" stroke="black" points="1847,-280.5 1847,-299.5 1896,-299.5 1896,-280.5 1847,-280.5"/>
<text text-anchor="middle" x="1871.5" y="-287.5" font-family="Helvetica,sans-Serif" font-size="10.00">hash.h</text>
</a>
</g>
</g>
<!-- Node5&#45;&gt;Node51 -->
<g id="edge46" class="edge"><title>Node5&#45;&gt;Node51</title>
<path fill="none" stroke="midnightblue" d="M1365.97,-343.094C1456.31,-338.91 1661.77,-327.053 1832.5,-300 1837.17,-299.261 1842.11,-298.279 1846.84,-297.236"/>
<polygon fill="midnightblue" stroke="midnightblue" points="1365.62,-339.606 1355.78,-343.556 1365.93,-346.599 1365.62,-339.606"/>
</g>
<!-- Node53 -->
<g id="node42" class="node"><title>Node53</title>
<g id="a_node42"><a xlink:href="spec_2pool_8h.html" target="_top" xlink:title="ODP pool. ">
<polygon fill="white" stroke="black" points="1914.5,-280.5 1914.5,-299.5 1960.5,-299.5 1960.5,-280.5 1914.5,-280.5"/>
<text text-anchor="middle" x="1937.5" y="-287.5" font-family="Helvetica,sans-Serif" font-size="10.00">pool.h</text>
</a>
</g>
</g>
<!-- Node5&#45;&gt;Node53 -->
<g id="edge50" class="edge"><title>Node5&#45;&gt;Node53</title>
<path fill="none" stroke="midnightblue" d="M1365.85,-344.54C1465.42,-342.875 1706.82,-335.211 1905.5,-300 1908.34,-299.496 1911.29,-298.846 1914.2,-298.126"/>
<polygon fill="midnightblue" stroke="midnightblue" points="1365.76,-341.041 1355.82,-344.695 1365.87,-348.04 1365.76,-341.041"/>
</g>
<!-- Node56 -->
<g id="node44" class="node"><title>Node56</title>
<g id="a_node44"><a xlink:href="spec_2stash_8h.html" target="_top" xlink:title="ODP stash. ">
<polygon fill="white" stroke="red" points="1978.5,-280.5 1978.5,-299.5 2030.5,-299.5 2030.5,-280.5 1978.5,-280.5"/>
<text text-anchor="middle" x="2004.5" y="-287.5" font-family="Helvetica,sans-Serif" font-size="10.00">stash.h</text>
</a>
</g>
</g>
<!-- Node5&#45;&gt;Node56 -->
<g id="edge53" class="edge"><title>Node5&#45;&gt;Node56</title>
<path fill="none" stroke="midnightblue" d="M1365.83,-344.686C1472.86,-343.332 1745.26,-336.281 1969.5,-300 1972.35,-299.539 1975.3,-298.953 1978.24,-298.302"/>
<polygon fill="midnightblue" stroke="midnightblue" points="1365.66,-341.188 1355.7,-344.803 1365.74,-348.187 1365.66,-341.188"/>
</g>
<!-- Node58 -->
<g id="node45" class="node"><title>Node58</title>
<g id="a_node45"><a xlink:href="spec_2threshold_8h.html" target="_top" xlink:title="ODP threshold descriptor. ">
<polygon fill="white" stroke="red" points="2049,-280.5 2049,-299.5 2120,-299.5 2120,-280.5 2049,-280.5"/>
<text text-anchor="middle" x="2084.5" y="-287.5" font-family="Helvetica,sans-Serif" font-size="10.00">threshold.h</text>
</a>
</g>
</g>
<!-- Node5&#45;&gt;Node58 -->
<g id="edge54" class="edge"><title>Node5&#45;&gt;Node58</title>
<path fill="none" stroke="midnightblue" d="M1365.8,-344.269C1480.45,-341.99 1786.6,-333.04 2039.5,-300 2042.5,-299.608 2045.6,-299.134 2048.71,-298.611"/>
<polygon fill="midnightblue" stroke="midnightblue" points="1365.56,-340.773 1355.63,-344.464 1365.69,-347.772 1365.56,-340.773"/>
</g>
<!-- Node60 -->
<g id="node46" class="node"><title>Node60</title>
<g id="a_node46"><a xlink:href="spec_2thrmask_8h.html" target="_top" xlink:title="ODP thread masks. ">
<polygon fill="white" stroke="red" points="2138,-280.5 2138,-299.5 2203,-299.5 2203,-280.5 2138,-280.5"/>
<text text-anchor="middle" x="2170.5" y="-287.5" font-family="Helvetica,sans-Serif" font-size="10.00">thrmask.h</text>
</a>
</g>
</g>
<!-- Node5&#45;&gt;Node60 -->
<g id="edge55" class="edge"><title>Node5&#45;&gt;Node60</title>
<path fill="none" stroke="midnightblue" d="M1365.91,-345.021C1490.26,-344.517 1841.03,-339.415 2129.5,-300 2132.24,-299.625 2135.08,-299.163 2137.91,-298.648"/>
<polygon fill="midnightblue" stroke="midnightblue" points="1365.61,-341.522 1355.63,-345.054 1365.64,-348.522 1365.61,-341.522"/>
</g>
<!-- Node62 -->
<g id="node47" class="node"><title>Node62</title>
<g id="a_node47"><a xlink:href="system__info_8h.html" target="_top" xlink:title="ODP system information. ">
<polygon fill="white" stroke="black" points="2221,-280.5 2221,-299.5 2304,-299.5 2304,-280.5 2221,-280.5"/>
<text text-anchor="middle" x="2262.5" y="-287.5" font-family="Helvetica,sans-Serif" font-size="10.00">system_info.h</text>
</a>
</g>
</g>
<!-- Node5&#45;&gt;Node62 -->
<g id="edge57" class="edge"><title>Node5&#45;&gt;Node62</title>
<path fill="none" stroke="midnightblue" d="M1365.99,-344.747C1498.62,-343.576 1890.05,-336.992 2212.5,-300 2215.22,-299.688 2218.01,-299.32 2220.82,-298.914"/>
<polygon fill="midnightblue" stroke="midnightblue" points="1365.76,-341.249 1355.79,-344.831 1365.82,-348.249 1365.76,-341.249"/>
</g>
<!-- Node63 -->
<g id="node48" class="node"><title>Node63</title>
<g id="a_node48"><a xlink:href="time_8h.html" target="_top" xlink:title="ODP time. ">
<polygon fill="white" stroke="red" points="1322,-280.5 1322,-299.5 1369,-299.5 1369,-280.5 1322,-280.5"/>
<text text-anchor="middle" x="1345.5" y="-287.5" font-family="Helvetica,sans-Serif" font-size="10.00">time.h</text>
</a>
</g>
</g>
<!-- Node5&#45;&gt;Node63 -->
<g id="edge58" class="edge"><title>Node5&#45;&gt;Node63</title>
<path fill="none" stroke="midnightblue" d="M1328.17,-326.983C1332.59,-317.817 1337.75,-307.092 1341.29,-299.751"/>
<polygon fill="midnightblue" stroke="midnightblue" points="1324.98,-325.555 1323.79,-336.083 1331.29,-328.591 1324.98,-325.555"/>
</g>
<!-- Node65 -->
<g id="node49" class="node"><title>Node65</title>
<g id="a_node49"><a xlink:href="timer_8h.html" target="_top" xlink:title="ODP timer service. ">
<polygon fill="white" stroke="black" points="2322.5,-280.5 2322.5,-299.5 2372.5,-299.5 2372.5,-280.5 2322.5,-280.5"/>
<text text-anchor="middle" x="2347.5" y="-287.5" font-family="Helvetica,sans-Serif" font-size="10.00">timer.h</text>
</a>
</g>
</g>
<!-- Node5&#45;&gt;Node65 -->
<g id="edge60" class="edge"><title>Node5&#45;&gt;Node65</title>
<path fill="none" stroke="midnightblue" d="M1365.69,-344.217C1535.79,-341.132 2127.12,-328.551 2313.5,-300 2316.4,-299.556 2319.4,-298.962 2322.38,-298.29"/>
<polygon fill="midnightblue" stroke="midnightblue" points="1365.5,-340.72 1355.56,-344.399 1365.62,-347.719 1365.5,-340.72"/>
</g>
<!-- Node66 -->
<g id="node50" class="node"><title>Node66</title>
<g id="a_node50"><a xlink:href="strong__types_8h.html" target="_top" xlink:title="ODP Strong Types. ">
<polygon fill="white" stroke="black" points="2390.5,-280.5 2390.5,-299.5 2478.5,-299.5 2478.5,-280.5 2390.5,-280.5"/>
<text text-anchor="middle" x="2434.5" y="-287.5" font-family="Helvetica,sans-Serif" font-size="10.00">strong_types.h</text>
</a>
</g>
</g>
<!-- Node5&#45;&gt;Node66 -->
<g id="edge61" class="edge"><title>Node5&#45;&gt;Node66</title>
<path fill="none" stroke="midnightblue" d="M1365.96,-345.114C1514.38,-345.033 1990.36,-341.331 2381.5,-300 2384.38,-299.696 2387.33,-299.334 2390.31,-298.931"/>
<polygon fill="midnightblue" stroke="midnightblue" points="1365.84,-341.614 1355.84,-345.114 1365.84,-348.614 1365.84,-341.614"/>
</g>
<!-- Node20 -->
<g id="node17" class="node"><title>Node20</title>
<g id="a_node17"><a xlink:href="spec_2ipsec_8h.html" target="_top" xlink:title="ODP IPSEC API. ">
<polygon fill="white" stroke="red" points="1187.5,-0.5 1187.5,-19.5 1237.5,-19.5 1237.5,-0.5 1187.5,-0.5"/>
<text text-anchor="middle" x="1212.5" y="-7.5" font-family="Helvetica,sans-Serif" font-size="10.00">ipsec.h</text>
</a>
</g>
</g>
<!-- Node19&#45;&gt;Node20 -->
<g id="edge16" class="edge"><title>Node19&#45;&gt;Node20</title>
<path fill="none" stroke="midnightblue" d="M1212.5,-45.8045C1212.5,-36.9102 1212.5,-26.7798 1212.5,-19.7511"/>
<polygon fill="midnightblue" stroke="midnightblue" points="1209,-46.083 1212.5,-56.083 1216,-46.083 1209,-46.083"/>
</g>
<!-- Node22&#45;&gt;Node20 -->
<g id="edge18" class="edge"><title>Node22&#45;&gt;Node20</title>
<path fill="none" stroke="midnightblue" d="M1116.06,-158.456C1122.83,-133.486 1137.28,-88.4461 1160.5,-56 1171.2,-41.048 1187.84,-27.8006 1199.41,-19.6178"/>
<polygon fill="midnightblue" stroke="midnightblue" points="1112.6,-157.842 1113.49,-168.4 1119.38,-159.594 1112.6,-157.842"/>
</g>
<!-- Node24 -->
<g id="node20" class="node"><title>Node24</title>
<g id="a_node20"><a xlink:href="spec_2comp_8h.html" target="_top" xlink:title="ODP Compression. ">
<polygon fill="white" stroke="red" points="1122,-224.5 1122,-243.5 1175,-243.5 1175,-224.5 1122,-224.5"/>
<text text-anchor="middle" x="1148.5" y="-231.5" font-family="Helvetica,sans-Serif" font-size="10.00">comp.h</text>
</a>
</g>
</g>
<!-- Node23&#45;&gt;Node24 -->
<g id="edge20" class="edge"><title>Node23&#45;&gt;Node24</title>
<path fill="none" stroke="midnightblue" d="M1213.52,-274.901C1197.39,-264.999 1176.32,-252.071 1162.6,-243.655"/>
<polygon fill="midnightblue" stroke="midnightblue" points="1212.01,-278.077 1222.36,-280.324 1215.67,-272.111 1212.01,-278.077"/>
</g>
<!-- Node26 -->
<g id="node21" class="node"><title>Node26</title>
<g id="a_node21"><a xlink:href="spec_2crypto_8h.html" target="_top" xlink:title="ODP crypto. ">
<polygon fill="white" stroke="black" points="1047.5,-224.5 1047.5,-243.5 1103.5,-243.5 1103.5,-224.5 1047.5,-224.5"/>
<text text-anchor="middle" x="1075.5" y="-231.5" font-family="Helvetica,sans-Serif" font-size="10.00">crypto.h</text>
</a>
</g>
</g>
<!-- Node23&#45;&gt;Node26 -->
<g id="edge21" class="edge"><title>Node23&#45;&gt;Node26</title>
<path fill="none" stroke="midnightblue" d="M1201.24,-277.172C1170.92,-267.004 1127.93,-252.585 1100.89,-243.516"/>
<polygon fill="midnightblue" stroke="midnightblue" points="1200.4,-280.582 1210.99,-280.444 1202.62,-273.945 1200.4,-280.582"/>
</g>
<!-- Node27 -->
<g id="node22" class="node"><title>Node27</title>
<g id="a_node22"><a xlink:href="spec_2event_8h.html" target="_top" xlink:title="ODP event. ">
<polygon fill="white" stroke="red" points="976,-224.5 976,-243.5 1029,-243.5 1029,-224.5 976,-224.5"/>
<text text-anchor="middle" x="1002.5" y="-231.5" font-family="Helvetica,sans-Serif" font-size="10.00">event.h</text>
</a>
</g>
</g>
<!-- Node23&#45;&gt;Node27 -->
<g id="edge23" class="edge"><title>Node23&#45;&gt;Node27</title>
<path fill="none" stroke="midnightblue" d="M1197.39,-280.372C1157.41,-271.49 1093.54,-257.134 1038.5,-244 1035.49,-243.282 1032.35,-242.517 1029.22,-241.748"/>
<polygon fill="midnightblue" stroke="midnightblue" points="1196.75,-283.814 1207.27,-282.562 1198.26,-276.98 1196.75,-283.814"/>
</g>
<!-- Node23&#45;&gt;Node38 -->
<g id="edge24" class="edge"><title>Node23&#45;&gt;Node38</title>
<path fill="none" stroke="midnightblue" d="M1236.5,-269.805C1236.5,-260.91 1236.5,-250.78 1236.5,-243.751"/>
<polygon fill="midnightblue" stroke="midnightblue" points="1233,-270.083 1236.5,-280.083 1240,-270.083 1233,-270.083"/>
</g>
<!-- Node31 -->
<g id="node25" class="node"><title>Node31</title>
<g id="a_node25"><a xlink:href="spec_2packet__io_8h.html" target="_top" xlink:title="ODP Packet IO. ">
<polygon fill="white" stroke="black" points="1298,-224.5 1298,-243.5 1369,-243.5 1369,-224.5 1298,-224.5"/>
<text text-anchor="middle" x="1333.5" y="-231.5" font-family="Helvetica,sans-Serif" font-size="10.00">packet_io.h</text>
</a>
</g>
</g>
<!-- Node23&#45;&gt;Node31 -->
<g id="edge26" class="edge"><title>Node23&#45;&gt;Node31</title>
<path fill="none" stroke="midnightblue" d="M1260.84,-275.453C1278.74,-265.483 1302.55,-252.228 1317.95,-243.655"/>
<polygon fill="midnightblue" stroke="midnightblue" points="1259.12,-272.402 1252.08,-280.324 1262.52,-278.518 1259.12,-272.402"/>
</g>
<!-- Node26&#45;&gt;Node22 -->
<g id="edge22" class="edge"><title>Node26&#45;&gt;Node22</title>
<path fill="none" stroke="midnightblue" d="M1087.12,-215.566C1093.32,-206.275 1100.67,-195.248 1105.67,-187.751"/>
<polygon fill="midnightblue" stroke="midnightblue" points="1084.08,-213.821 1081.44,-224.083 1089.9,-217.704 1084.08,-213.821"/>
</g>
<!-- Node39 -->
<g id="node24" class="node"><title>Node39</title>
<g id="a_node24"><a xlink:href="packet__flags_8h.html" target="_top" xlink:title="ODP packet flags. ">
<polygon fill="white" stroke="black" points="1193.5,-168.5 1193.5,-187.5 1279.5,-187.5 1279.5,-168.5 1193.5,-168.5"/>
<text text-anchor="middle" x="1236.5" y="-175.5" font-family="Helvetica,sans-Serif" font-size="10.00">packet_flags.h</text>
</a>
</g>
</g>
<!-- Node38&#45;&gt;Node39 -->
<g id="edge25" class="edge"><title>Node38&#45;&gt;Node39</title>
<path fill="none" stroke="midnightblue" d="M1236.5,-213.805C1236.5,-204.91 1236.5,-194.78 1236.5,-187.751"/>
<polygon fill="midnightblue" stroke="midnightblue" points="1233,-214.083 1236.5,-224.083 1240,-214.083 1233,-214.083"/>
</g>
<!-- Node31&#45;&gt;Node32 -->
<g id="edge27" class="edge"><title>Node31&#45;&gt;Node32</title>
<path fill="none" stroke="midnightblue" d="M1333.5,-213.805C1333.5,-204.91 1333.5,-194.78 1333.5,-187.751"/>
<polygon fill="midnightblue" stroke="midnightblue" points="1330,-214.083 1333.5,-224.083 1337,-214.083 1330,-214.083"/>
</g>
<!-- Node32&#45;&gt;Node20 -->
<g id="edge30" class="edge"><title>Node32&#45;&gt;Node20</title>
<path fill="none" stroke="midnightblue" d="M1326.56,-158.879C1321.19,-145.57 1313.22,-127.231 1304.5,-112 1289.3,-85.4561 1285.1,-78.6107 1264.5,-56 1251.8,-42.0553 1234.97,-28.1822 1223.94,-19.6041"/>
<polygon fill="midnightblue" stroke="midnightblue" points="1323.35,-160.294 1330.27,-168.319 1329.87,-157.732 1323.35,-160.294"/>
</g>
<!-- Node33 -->
<g id="node27" class="node"><title>Node33</title>
<g id="a_node27"><a xlink:href="spec_2classification_8h.html" target="_top" xlink:title="ODP classification descriptor. ">
<polygon fill="white" stroke="black" points="1209.5,-112.5 1209.5,-131.5 1295.5,-131.5 1295.5,-112.5 1209.5,-112.5"/>
<text text-anchor="middle" x="1252.5" y="-119.5" font-family="Helvetica,sans-Serif" font-size="10.00">classification.h</text>
</a>
</g>
</g>
<!-- Node32&#45;&gt;Node33 -->
<g id="edge28" class="edge"><title>Node32&#45;&gt;Node33</title>
<path fill="none" stroke="midnightblue" d="M1311.93,-162.622C1297.14,-152.757 1277.99,-139.992 1265.48,-131.655"/>
<polygon fill="midnightblue" stroke="midnightblue" points="1310.22,-165.689 1320.49,-168.324 1314.11,-159.865 1310.22,-165.689"/>
</g>
<!-- Node32&#45;&gt;Node34 -->
<g id="edge31" class="edge"><title>Node32&#45;&gt;Node34</title>
<path fill="none" stroke="midnightblue" d="M1360.5,-164.096C1381.61,-154.007 1410.36,-140.27 1428.68,-131.516"/>
<polygon fill="midnightblue" stroke="midnightblue" points="1358.92,-160.974 1351.41,-168.444 1361.94,-167.29 1358.92,-160.974"/>
</g>
<!-- Node33&#45;&gt;Node19 -->
<g id="edge29" class="edge"><title>Node33&#45;&gt;Node19</title>
<path fill="none" stroke="midnightblue" d="M1239.8,-103.855C1232.87,-94.5048 1224.59,-83.3265 1218.98,-75.7511"/>
<polygon fill="midnightblue" stroke="midnightblue" points="1237.13,-106.131 1245.89,-112.083 1242.75,-101.964 1237.13,-106.131"/>
</g>
<!-- Node30&#45;&gt;Node22 -->
<g id="edge34" class="edge"><title>Node30&#45;&gt;Node22</title>
<path fill="none" stroke="midnightblue" d="M1409.9,-270.438C1404.38,-255.469 1394.43,-235.136 1378.5,-224 1359.04,-210.398 1204.05,-190.244 1139.53,-182.346"/>
<polygon fill="midnightblue" stroke="midnightblue" points="1406.66,-271.807 1413.15,-280.182 1413.3,-269.588 1406.66,-271.807"/>
</g>
<!-- Node30&#45;&gt;Node31 -->
<g id="edge35" class="edge"><title>Node30&#45;&gt;Node31</title>
<path fill="none" stroke="midnightblue" d="M1393.67,-274.622C1378.69,-264.757 1359.3,-251.992 1346.64,-243.655"/>
<polygon fill="midnightblue" stroke="midnightblue" points="1392.05,-277.747 1402.33,-280.324 1395.9,-271.901 1392.05,-277.747"/>
</g>
<!-- Node30&#45;&gt;Node36 -->
<g id="edge36" class="edge"><title>Node30&#45;&gt;Node36</title>
<path fill="none" stroke="midnightblue" d="M1429.23,-272.144C1436.9,-262.736 1446.13,-251.405 1452.37,-243.751"/>
<polygon fill="midnightblue" stroke="midnightblue" points="1426.37,-270.12 1422.77,-280.083 1431.8,-274.541 1426.37,-270.12"/>
</g>
<!-- Node37 -->
<g id="node31" class="node"><title>Node37</title>
<g id="a_node31"><a xlink:href="schedule_8h.html" target="_top" xlink:title="ODP schedule. ">
<polygon fill="white" stroke="black" points="1425.5,-168.5 1425.5,-187.5 1493.5,-187.5 1493.5,-168.5 1425.5,-168.5"/>
<text text-anchor="middle" x="1459.5" y="-175.5" font-family="Helvetica,sans-Serif" font-size="10.00">schedule.h</text>
</a>
</g>
</g>
<!-- Node36&#45;&gt;Node37 -->
<g id="edge37" class="edge"><title>Node36&#45;&gt;Node37</title>
<path fill="none" stroke="midnightblue" d="M1459.5,-213.805C1459.5,-204.91 1459.5,-194.78 1459.5,-187.751"/>
<polygon fill="midnightblue" stroke="midnightblue" points="1456,-214.083 1459.5,-224.083 1463,-214.083 1456,-214.083"/>
</g>
<!-- Node41 -->
<g id="node33" class="node"><title>Node41</title>
<g id="a_node33"><a xlink:href="chksum_8h.html" target="_top" xlink:title="ODP checksum functions. ">
<polygon fill="white" stroke="black" points="1588,-224.5 1588,-243.5 1651,-243.5 1651,-224.5 1588,-224.5"/>
<text text-anchor="middle" x="1619.5" y="-231.5" font-family="Helvetica,sans-Serif" font-size="10.00">chksum.h</text>
</a>
</g>
</g>
<!-- Node40&#45;&gt;Node41 -->
<g id="edge39" class="edge"><title>Node40&#45;&gt;Node41</title>
<path fill="none" stroke="midnightblue" d="M1619.5,-269.805C1619.5,-260.91 1619.5,-250.78 1619.5,-243.751"/>
<polygon fill="midnightblue" stroke="midnightblue" points="1616,-270.083 1619.5,-280.083 1623,-270.083 1616,-270.083"/>
</g>
<!-- Node43 -->
<g id="node35" class="node"><title>Node43</title>
<g id="a_node35"><a xlink:href="cpu_8h.html" target="_top" xlink:title="ODP CPU. ">
<polygon fill="white" stroke="red" points="1669,-224.5 1669,-243.5 1712,-243.5 1712,-224.5 1669,-224.5"/>
<text text-anchor="middle" x="1690.5" y="-231.5" font-family="Helvetica,sans-Serif" font-size="10.00">cpu.h</text>
</a>
</g>
</g>
<!-- Node42&#45;&gt;Node43 -->
<g id="edge41" class="edge"><title>Node42&#45;&gt;Node43</title>
<path fill="none" stroke="midnightblue" d="M1690.5,-269.805C1690.5,-260.91 1690.5,-250.78 1690.5,-243.751"/>
<polygon fill="midnightblue" stroke="midnightblue" points="1687,-270.083 1690.5,-280.083 1694,-270.083 1687,-270.083"/>
</g>
<!-- Node46 -->
<g id="node37" class="node"><title>Node46</title>
<g id="a_node37"><a xlink:href="feature_8h.html" target="_top" xlink:title="ODP features. ">
<polygon fill="white" stroke="black" points="1730.5,-224.5 1730.5,-243.5 1790.5,-243.5 1790.5,-224.5 1730.5,-224.5"/>
<text text-anchor="middle" x="1760.5" y="-231.5" font-family="Helvetica,sans-Serif" font-size="10.00">feature.h</text>
</a>
</g>
</g>
<!-- Node45&#45;&gt;Node46 -->
<g id="edge43" class="edge"><title>Node45&#45;&gt;Node46</title>
<path fill="none" stroke="midnightblue" d="M1760.5,-269.805C1760.5,-260.91 1760.5,-250.78 1760.5,-243.751"/>
<polygon fill="midnightblue" stroke="midnightblue" points="1757,-270.083 1760.5,-280.083 1764,-270.083 1757,-270.083"/>
</g>
<!-- Node46&#45;&gt;Node47 -->
<g id="edge44" class="edge"><title>Node46&#45;&gt;Node47</title>
<path fill="none" stroke="midnightblue" d="M1770.18,-214.983C1775.1,-205.817 1780.86,-195.092 1784.8,-187.751"/>
<polygon fill="midnightblue" stroke="midnightblue" points="1766.94,-213.617 1765.29,-224.083 1773.1,-216.929 1766.94,-213.617"/>
</g>
<!-- Node48 -->
<g id="node39" class="node"><title>Node48</title>
<g id="a_node39"><a xlink:href="init_8h.html" target="_top" xlink:title="ODP initialization. ">
<polygon fill="white" stroke="red" points="1769.5,-112.5 1769.5,-131.5 1809.5,-131.5 1809.5,-112.5 1769.5,-112.5"/>
<text text-anchor="middle" x="1789.5" y="-119.5" font-family="Helvetica,sans-Serif" font-size="10.00">init.h</text>
</a>
</g>
</g>
<!-- Node47&#45;&gt;Node48 -->
<g id="edge45" class="edge"><title>Node47&#45;&gt;Node48</title>
<path fill="none" stroke="midnightblue" d="M1789.5,-157.805C1789.5,-148.91 1789.5,-138.78 1789.5,-131.751"/>
<polygon fill="midnightblue" stroke="midnightblue" points="1786,-158.083 1789.5,-168.083 1793,-158.083 1786,-158.083"/>
</g>
<!-- Node52 -->
<g id="node41" class="node"><title>Node52</title>
<g id="a_node41"><a xlink:href="hash_8h.html" target="_top" xlink:title="ODP Hash function. ">
<polygon fill="white" stroke="black" points="1847,-224.5 1847,-243.5 1896,-243.5 1896,-224.5 1847,-224.5"/>
<text text-anchor="middle" x="1871.5" y="-231.5" font-family="Helvetica,sans-Serif" font-size="10.00">hash.h</text>
</a>
</g>
</g>
<!-- Node51&#45;&gt;Node52 -->
<g id="edge47" class="edge"><title>Node51&#45;&gt;Node52</title>
<path fill="none" stroke="midnightblue" d="M1871.5,-269.805C1871.5,-260.91 1871.5,-250.78 1871.5,-243.751"/>
<polygon fill="midnightblue" stroke="midnightblue" points="1868,-270.083 1871.5,-280.083 1875,-270.083 1868,-270.083"/>
</g>
<!-- Node54 -->
<g id="node43" class="node"><title>Node54</title>
<g id="a_node43"><a xlink:href="pool_8h.html" target="_top" xlink:title="ODP pool. ">
<polygon fill="white" stroke="red" points="1914.5,-224.5 1914.5,-243.5 1960.5,-243.5 1960.5,-224.5 1914.5,-224.5"/>
<text text-anchor="middle" x="1937.5" y="-231.5" font-family="Helvetica,sans-Serif" font-size="10.00">pool.h</text>
</a>
</g>
</g>
<!-- Node53&#45;&gt;Node54 -->
<g id="edge51" class="edge"><title>Node53&#45;&gt;Node54</title>
<path fill="none" stroke="midnightblue" d="M1937.5,-269.805C1937.5,-260.91 1937.5,-250.78 1937.5,-243.751"/>
<polygon fill="midnightblue" stroke="midnightblue" points="1934,-270.083 1937.5,-280.083 1941,-270.083 1934,-270.083"/>
</g>
<!-- Node63&#45;&gt;Node31 -->
<g id="edge59" class="edge"><title>Node63&#45;&gt;Node31</title>
<path fill="none" stroke="midnightblue" d="M1341.3,-270.101C1339.31,-261.136 1337.02,-250.858 1335.44,-243.751"/>
<polygon fill="midnightblue" stroke="midnightblue" points="1337.93,-271.08 1343.52,-280.083 1344.77,-269.562 1337.93,-271.08"/>
</g>
</g>
</svg>
