<?xml version="1.0" encoding="UTF-8" standalone="no"?>
<!DOCTYPE svg PUBLIC "-//W3C//DTD SVG 1.1//EN"
 "http://www.w3.org/Graphics/SVG/1.1/DTD/svg11.dtd">
<!-- Generated by graphviz version 2.38.0 (20140413.2041)
 -->
<!-- Title: packet_io.h Pages: 1 -->
<svg width="1641pt" height="621pt"
 viewBox="0.00 0.00 1641.00 621.00" xmlns="http://www.w3.org/2000/svg" xmlns:xlink="http://www.w3.org/1999/xlink">
<g id="graph0" class="graph" transform="scale(1 1) rotate(0) translate(4 617)">
<title>packet_io.h</title>
<polygon fill="white" stroke="none" points="-4,4 -4,-617 1637,-617 1637,4 -4,4"/>
<!-- Node0 -->
<g id="node1" class="node"><title>Node0</title>
<polygon fill="#bfbfbf" stroke="black" points="679.5,-593.5 679.5,-612.5 750.5,-612.5 750.5,-593.5 679.5,-593.5"/>
<text text-anchor="middle" x="715" y="-600.5" font-family="Helvetica,sans-Serif" font-size="10.00">packet_io.h</text>
</g>
<!-- Node1 -->
<g id="node2" class="node"><title>Node1</title>
<polygon fill="white" stroke="#bfbfbf" points="1261.5,-0.5 1261.5,-19.5 1376.5,-19.5 1376.5,-0.5 1261.5,-0.5"/>
<text text-anchor="middle" x="1319" y="-7.5" font-family="Helvetica,sans-Serif" font-size="10.00">odp/visibility_begin.h</text>
</g>
<!-- Node0&#45;&gt;Node1 -->
<g id="edge1" class="edge"><title>Node0&#45;&gt;Node1</title>
<path fill="none" stroke="midnightblue" d="M750.705,-601.546C919.922,-598.931 1633,-582.541 1633,-492 1633,-492 1633,-492 1633,-132 1633,-93.1906 1621.8,-78.24 1590,-56 1557.96,-33.5974 1455.82,-21.4332 1386.5,-15.5815"/>
<polygon fill="midnightblue" stroke="midnightblue" points="1386.78,-12.0925 1376.53,-14.7635 1386.21,-19.0691 1386.78,-12.0925"/>
</g>
<!-- Node2 -->
<g id="node3" class="node"><title>Node2</title>
<g id="a_node3"><a xlink:href="deprecated_8h.html" target="_top" xlink:title="Control deprecated API definitions. ">
<polygon fill="white" stroke="black" points="1397.5,-246.5 1397.5,-265.5 1516.5,-265.5 1516.5,-246.5 1397.5,-246.5"/>
<text text-anchor="middle" x="1457" y="-253.5" font-family="Helvetica,sans-Serif" font-size="10.00">odp/api/deprecated.h</text>
</a>
</g>
</g>
<!-- Node0&#45;&gt;Node2 -->
<g id="edge2" class="edge"><title>Node0&#45;&gt;Node2</title>
<path fill="none" stroke="midnightblue" d="M750.642,-601.158C910.904,-596.908 1557,-574.649 1557,-492 1557,-492 1557,-492 1557,-378 1557,-330.087 1509.84,-290.914 1480.29,-271.075"/>
<polygon fill="midnightblue" stroke="midnightblue" points="1482.05,-268.048 1471.76,-265.551 1478.25,-273.924 1482.05,-268.048"/>
</g>
<!-- Node4 -->
<g id="node5" class="node"><title>Node4</title>
<polygon fill="white" stroke="#bfbfbf" points="875.5,-0.5 875.5,-19.5 982.5,-19.5 982.5,-0.5 875.5,-0.5"/>
<text text-anchor="middle" x="929" y="-7.5" font-family="Helvetica,sans-Serif" font-size="10.00">odp/visibility_end.h</text>
</g>
<!-- Node0&#45;&gt;Node4 -->
<g id="edge60" class="edge"><title>Node0&#45;&gt;Node4</title>
<path fill="none" stroke="midnightblue" d="M679.373,-601.047C551.177,-597.413 117.998,-583.288 62,-557 25.8607,-540.034 0,-531.923 0,-492 0,-492 0,-492 0,-132 0,-36.0782 108.202,-76.0744 202,-56 327.714,-29.0949 712.348,-16.541 865.302,-12.5141"/>
<polygon fill="midnightblue" stroke="midnightblue" points="865.567,-16.0085 875.472,-12.25 865.385,-9.01089 865.567,-16.0085"/>
</g>
<!-- Node5 -->
<g id="node6" class="node"><title>Node5</title>
<g id="a_node6"><a xlink:href="packet__io__stats_8h.html" target="_top" xlink:title="ODP packet IO stats. ">
<polygon fill="white" stroke="black" points="929.5,-537.5 929.5,-556.5 1068.5,-556.5 1068.5,-537.5 929.5,-537.5"/>
<text text-anchor="middle" x="999" y="-544.5" font-family="Helvetica,sans-Serif" font-size="10.00">odp/api/packet_io_stats.h</text>
</a>
</g>
</g>
<!-- Node0&#45;&gt;Node5 -->
<g id="edge6" class="edge"><title>Node0&#45;&gt;Node5</title>
<path fill="none" stroke="midnightblue" d="M750.681,-595.216C799.308,-585.97 886.855,-569.323 943.936,-558.47"/>
<polygon fill="midnightblue" stroke="midnightblue" points="944.703,-561.887 953.873,-556.58 943.395,-555.01 944.703,-561.887"/>
</g>
<!-- Node7 -->
<g id="node8" class="node"><title>Node7</title>
<g id="a_node8"><a xlink:href="queue_8h.html" target="_top" xlink:title="ODP queue. ">
<polygon fill="white" stroke="black" points="668,-537.5 668,-556.5 762,-556.5 762,-537.5 668,-537.5"/>
<text text-anchor="middle" x="715" y="-544.5" font-family="Helvetica,sans-Serif" font-size="10.00">odp/api/queue.h</text>
</a>
</g>
</g>
<!-- Node0&#45;&gt;Node7 -->
<g id="edge10" class="edge"><title>Node0&#45;&gt;Node7</title>
<path fill="none" stroke="midnightblue" d="M715,-593.083C715,-586.006 715,-575.861 715,-566.986"/>
<polygon fill="midnightblue" stroke="midnightblue" points="718.5,-566.751 715,-556.751 711.5,-566.751 718.5,-566.751"/>
</g>
<!-- Node19 -->
<g id="node20" class="node"><title>Node19</title>
<g id="a_node20"><a xlink:href="packet_8h.html" target="_top" xlink:title="ODP packet descriptor. ">
<polygon fill="white" stroke="black" points="429,-308 429,-327 525,-327 525,-308 429,-308"/>
<text text-anchor="middle" x="477" y="-315" font-family="Helvetica,sans-Serif" font-size="10.00">odp/api/packet.h</text>
</a>
</g>
</g>
<!-- Node0&#45;&gt;Node19 -->
<g id="edge59" class="edge"><title>Node0&#45;&gt;Node19</title>
<path fill="none" stroke="midnightblue" d="M679.275,-599.665C544.706,-590.4 76,-553.702 76,-492 76,-492 76,-492 76,-434 76,-363.569 307.309,-333.498 418.571,-323.107"/>
<polygon fill="midnightblue" stroke="midnightblue" points="418.989,-326.584 428.63,-322.191 418.354,-319.613 418.989,-326.584"/>
</g>
<!-- Node23 -->
<g id="node24" class="node"><title>Node23</title>
<g id="a_node24"><a xlink:href="time_8h.html" target="_top" xlink:title="ODP time. ">
<polygon fill="white" stroke="black" points="160,-185 160,-204 246,-204 246,-185 160,-185"/>
<text text-anchor="middle" x="203" y="-192" font-family="Helvetica,sans-Serif" font-size="10.00">odp/api/time.h</text>
</a>
</g>
</g>
<!-- Node0&#45;&gt;Node23 -->
<g id="edge58" class="edge"><title>Node0&#45;&gt;Node23</title>
<path fill="none" stroke="midnightblue" d="M679.379,-600.895C573.548,-597.329 262.327,-584.707 165,-557 104.015,-539.639 38,-555.408 38,-492 38,-492 38,-492 38,-316.5 38,-256.348 110.193,-222.831 159.073,-207.032"/>
<polygon fill="midnightblue" stroke="midnightblue" points="160.295,-210.317 168.812,-204.015 158.224,-203.63 160.295,-210.317"/>
</g>
<!-- Node3 -->
<g id="node4" class="node"><title>Node3</title>
<g id="a_node4"><a xlink:href="spec_2deprecated_8h.html" target="_top" xlink:title="Macro for deprecated API definitions. ">
<polygon fill="white" stroke="black" points="1385,-62 1385,-81 1529,-81 1529,-62 1385,-62"/>
<text text-anchor="middle" x="1457" y="-69" font-family="Helvetica,sans-Serif" font-size="10.00">odp/api/spec/deprecated.h</text>
</a>
</g>
</g>
<!-- Node2&#45;&gt;Node3 -->
<g id="edge3" class="edge"><title>Node2&#45;&gt;Node3</title>
<path fill="none" stroke="midnightblue" d="M1457,-246.198C1457,-218.193 1457,-130.713 1457,-91.6598"/>
<polygon fill="midnightblue" stroke="midnightblue" points="1460.5,-91.214 1457,-81.214 1453.5,-91.2141 1460.5,-91.214"/>
</g>
<!-- Node3&#45;&gt;Node1 -->
<g id="edge4" class="edge"><title>Node3&#45;&gt;Node1</title>
<path fill="none" stroke="midnightblue" d="M1437.23,-61.9751C1413.86,-51.9013 1374.79,-35.0525 1348,-23.5023"/>
<polygon fill="midnightblue" stroke="midnightblue" points="1349.3,-20.2544 1338.74,-19.5091 1346.53,-26.6824 1349.3,-20.2544"/>
</g>
<!-- Node3&#45;&gt;Node4 -->
<g id="edge5" class="edge"><title>Node3&#45;&gt;Node4</title>
<path fill="none" stroke="midnightblue" d="M1384.97,-62.3826C1281.26,-50.696 1091.52,-29.3143 992.678,-18.1759"/>
<polygon fill="midnightblue" stroke="midnightblue" points="992.863,-14.6746 982.534,-17.0327 992.079,-21.6306 992.863,-14.6746"/>
</g>
<!-- Node6 -->
<g id="node7" class="node"><title>Node6</title>
<g id="a_node7"><a xlink:href="spec_2packet__io__stats_8h.html" target="_top" xlink:title="ODP Packet IO. ">
<polygon fill="white" stroke="black" points="1033.5,-56.5 1033.5,-86.5 1146.5,-86.5 1146.5,-56.5 1033.5,-56.5"/>
<text text-anchor="start" x="1041.5" y="-74.5" font-family="Helvetica,sans-Serif" font-size="10.00">odp/api/spec/packet</text>
<text text-anchor="middle" x="1090" y="-63.5" font-family="Helvetica,sans-Serif" font-size="10.00">_io_stats.h</text>
</a>
</g>
</g>
<!-- Node5&#45;&gt;Node6 -->
<g id="edge7" class="edge"><title>Node5&#45;&gt;Node6</title>
<path fill="none" stroke="midnightblue" d="M1014.13,-537.495C1026.27,-529.735 1042.49,-517.043 1050,-501 1084.39,-427.504 1055,-399.642 1055,-318.5 1055,-318.5 1055,-318.5 1055,-193.5 1055,-158.484 1068.69,-119.932 1078.95,-95.968"/>
<polygon fill="midnightblue" stroke="midnightblue" points="1082.23,-97.2038 1083.09,-86.6435 1075.83,-94.3659 1082.23,-97.2038"/>
</g>
<!-- Node6&#45;&gt;Node1 -->
<g id="edge8" class="edge"><title>Node6&#45;&gt;Node1</title>
<path fill="none" stroke="midnightblue" d="M1143.98,-56.4747C1184.35,-45.9856 1238.8,-31.8367 1276.19,-22.1221"/>
<polygon fill="midnightblue" stroke="midnightblue" points="1277.46,-25.4087 1286.26,-19.5064 1275.7,-18.6337 1277.46,-25.4087"/>
</g>
<!-- Node6&#45;&gt;Node4 -->
<g id="edge9" class="edge"><title>Node6&#45;&gt;Node4</title>
<path fill="none" stroke="midnightblue" d="M1051.85,-56.3993C1024.47,-46.2826 987.963,-32.7905 961.874,-23.1493"/>
<polygon fill="midnightblue" stroke="midnightblue" points="963.02,-19.8414 952.427,-19.6578 960.594,-26.4073 963.02,-19.8414"/>
</g>
<!-- Node8 -->
<g id="node9" class="node"><title>Node8</title>
<g id="a_node9"><a xlink:href="std__types_8h.html" target="_top" xlink:title="Standard C language types and definitions for ODP. ">
<polygon fill="white" stroke="black" points="103,-123.5 103,-142.5 213,-142.5 213,-123.5 103,-123.5"/>
<text text-anchor="middle" x="158" y="-130.5" font-family="Helvetica,sans-Serif" font-size="10.00">odp/api/std_types.h</text>
</a>
</g>
</g>
<!-- Node7&#45;&gt;Node8 -->
<g id="edge11" class="edge"><title>Node7&#45;&gt;Node8</title>
<path fill="none" stroke="midnightblue" d="M667.992,-540.585C550.497,-524.228 244.485,-463.596 119,-266 112.336,-255.507 99.1394,-234.743 120,-179 124.139,-167.939 132.279,-157.699 139.966,-149.79"/>
<polygon fill="midnightblue" stroke="midnightblue" points="142.547,-152.165 147.338,-142.715 137.7,-147.114 142.547,-152.165"/>
</g>
<!-- Node12 -->
<g id="node13" class="node"><title>Node12</title>
<polygon fill="white" stroke="#bfbfbf" points="805,-246.5 805,-265.5 913,-265.5 913,-246.5 805,-246.5"/>
<text text-anchor="middle" x="859" y="-253.5" font-family="Helvetica,sans-Serif" font-size="10.00">odp/api/abi/event.h</text>
</g>
<!-- Node7&#45;&gt;Node12 -->
<g id="edge17" class="edge"><title>Node7&#45;&gt;Node12</title>
<path fill="none" stroke="midnightblue" d="M717.803,-537.122C728.369,-504.334 767.898,-387.543 821,-302 827.391,-291.705 836.007,-281.299 843.419,-273.091"/>
<polygon fill="midnightblue" stroke="midnightblue" points="846.049,-275.403 850.303,-265.7 840.926,-270.632 846.049,-275.403"/>
</g>
<!-- Node13 -->
<g id="node14" class="node"><title>Node13</title>
<polygon fill="white" stroke="#bfbfbf" points="762.5,-481.5 762.5,-500.5 873.5,-500.5 873.5,-481.5 762.5,-481.5"/>
<text text-anchor="middle" x="818" y="-488.5" font-family="Helvetica,sans-Serif" font-size="10.00">odp/api/abi/queue.h</text>
</g>
<!-- Node7&#45;&gt;Node13 -->
<g id="edge18" class="edge"><title>Node7&#45;&gt;Node13</title>
<path fill="none" stroke="midnightblue" d="M731.549,-537.324C747.992,-528.703 773.435,-515.364 792.468,-505.386"/>
<polygon fill="midnightblue" stroke="midnightblue" points="794.261,-508.398 801.492,-500.655 791.011,-502.198 794.261,-508.398"/>
</g>
<!-- Node14 -->
<g id="node15" class="node"><title>Node14</title>
<polygon fill="white" stroke="#bfbfbf" points="559,-246.5 559,-265.5 667,-265.5 667,-246.5 559,-246.5"/>
<text text-anchor="middle" x="613" y="-253.5" font-family="Helvetica,sans-Serif" font-size="10.00">odp/api/abi/buffer.h</text>
</g>
<!-- Node7&#45;&gt;Node14 -->
<g id="edge19" class="edge"><title>Node7&#45;&gt;Node14</title>
<path fill="none" stroke="midnightblue" d="M712.438,-537.249C707.251,-518.738 696,-474.179 696,-436 696,-436 696,-436 696,-378 696,-333.337 657.068,-293.095 632.532,-272.169"/>
<polygon fill="midnightblue" stroke="midnightblue" points="634.487,-269.245 624.541,-265.596 630.041,-274.652 634.487,-269.245"/>
</g>
<!-- Node15 -->
<g id="node16" class="node"><title>Node15</title>
<polygon fill="white" stroke="#bfbfbf" points="685.5,-246.5 685.5,-265.5 786.5,-265.5 786.5,-246.5 685.5,-246.5"/>
<text text-anchor="middle" x="736" y="-253.5" font-family="Helvetica,sans-Serif" font-size="10.00">odp/api/abi/pool.h</text>
</g>
<!-- Node7&#45;&gt;Node15 -->
<g id="edge20" class="edge"><title>Node7&#45;&gt;Node15</title>
<path fill="none" stroke="midnightblue" d="M717.562,-537.249C722.749,-518.738 734,-474.179 734,-436 734,-436 734,-436 734,-378 734,-341.709 734.911,-299.303 735.503,-275.557"/>
<polygon fill="midnightblue" stroke="midnightblue" points="739.003,-275.595 735.763,-265.508 732.005,-275.414 739.003,-275.595"/>
</g>
<!-- Node16 -->
<g id="node17" class="node"><title>Node16</title>
<g id="a_node17"><a xlink:href="spec_2queue_8h.html" target="_top" xlink:title="ODP queue. ">
<polygon fill="white" stroke="black" points="922.5,-481.5 922.5,-500.5 1041.5,-500.5 1041.5,-481.5 922.5,-481.5"/>
<text text-anchor="middle" x="982" y="-488.5" font-family="Helvetica,sans-Serif" font-size="10.00">odp/api/spec/queue.h</text>
</a>
</g>
</g>
<!-- Node7&#45;&gt;Node16 -->
<g id="edge21" class="edge"><title>Node7&#45;&gt;Node16</title>
<path fill="none" stroke="midnightblue" d="M757.307,-537.444C804.08,-527.984 879.46,-512.738 929.85,-502.547"/>
<polygon fill="midnightblue" stroke="midnightblue" points="930.783,-505.929 939.891,-500.516 929.396,-499.068 930.783,-505.929"/>
</g>
<!-- Node9 -->
<g id="node10" class="node"><title>Node9</title>
<polygon fill="white" stroke="#bfbfbf" points="365,-62 365,-81 493,-81 493,-62 365,-62"/>
<text text-anchor="middle" x="429" y="-69" font-family="Helvetica,sans-Serif" font-size="10.00">odp/api/abi/std_types.h</text>
</g>
<!-- Node8&#45;&gt;Node9 -->
<g id="edge12" class="edge"><title>Node8&#45;&gt;Node9</title>
<path fill="none" stroke="midnightblue" d="M196.828,-123.475C245.125,-112.871 327.613,-94.7602 380.154,-83.2244"/>
<polygon fill="midnightblue" stroke="midnightblue" points="381.228,-86.5722 390.244,-81.0091 379.726,-79.7351 381.228,-86.5722"/>
</g>
<!-- Node10 -->
<g id="node11" class="node"><title>Node10</title>
<g id="a_node11"><a xlink:href="spec_2std__types_8h.html" target="_top" xlink:title="Standard C language types and definitions for ODP. ">
<polygon fill="white" stroke="black" points="211,-62 211,-81 347,-81 347,-62 211,-62"/>
<text text-anchor="middle" x="279" y="-69" font-family="Helvetica,sans-Serif" font-size="10.00">odp/api/spec/std_types.h</text>
</a>
</g>
</g>
<!-- Node8&#45;&gt;Node10 -->
<g id="edge13" class="edge"><title>Node8&#45;&gt;Node10</title>
<path fill="none" stroke="midnightblue" d="M175.336,-123.475C195.553,-113.534 229.187,-96.9947 252.642,-85.461"/>
<polygon fill="midnightblue" stroke="midnightblue" points="254.267,-88.5627 261.696,-81.0091 251.178,-82.281 254.267,-88.5627"/>
</g>
<!-- Node10&#45;&gt;Node1 -->
<g id="edge14" class="edge"><title>Node10&#45;&gt;Node1</title>
<path fill="none" stroke="midnightblue" d="M318.406,-61.9859C330.421,-59.6856 343.705,-57.4378 356,-56 529.742,-35.6822 1061.79,-18.5425 1251.19,-12.9369"/>
<polygon fill="midnightblue" stroke="midnightblue" points="1251.39,-16.4323 1261.29,-12.6392 1251.19,-9.43536 1251.39,-16.4323"/>
</g>
<!-- Node10&#45;&gt;Node4 -->
<g id="edge16" class="edge"><title>Node10&#45;&gt;Node4</title>
<path fill="none" stroke="midnightblue" d="M320.028,-61.9261C331.618,-59.7351 344.269,-57.5606 356,-56 540.034,-31.5181 759.225,-18.8528 865.264,-13.7594"/>
<polygon fill="midnightblue" stroke="midnightblue" points="865.652,-17.2451 875.475,-13.2757 865.32,-10.2529 865.652,-17.2451"/>
</g>
<!-- Node11 -->
<g id="node12" class="node"><title>Node11</title>
<polygon fill="white" stroke="#bfbfbf" points="252.5,-0.5 252.5,-19.5 305.5,-19.5 305.5,-0.5 252.5,-0.5"/>
<text text-anchor="middle" x="279" y="-7.5" font-family="Helvetica,sans-Serif" font-size="10.00">stdint.h</text>
</g>
<!-- Node10&#45;&gt;Node11 -->
<g id="edge15" class="edge"><title>Node10&#45;&gt;Node11</title>
<path fill="none" stroke="midnightblue" d="M279,-61.9751C279,-53.5803 279,-40.4806 279,-29.6631"/>
<polygon fill="midnightblue" stroke="midnightblue" points="282.5,-29.5091 279,-19.5091 275.5,-29.5091 282.5,-29.5091"/>
</g>
<!-- Node16&#45;&gt;Node1 -->
<g id="edge22" class="edge"><title>Node16&#45;&gt;Node1</title>
<path fill="none" stroke="midnightblue" d="M1041.61,-486.063C1195.66,-474.265 1595,-432.671 1595,-318.5 1595,-318.5 1595,-318.5 1595,-132 1595,-95.3502 1591.56,-78.9689 1563,-56 1536.41,-34.6152 1449.28,-22.4642 1386.73,-16.3084"/>
<polygon fill="midnightblue" stroke="midnightblue" points="1386.81,-12.8005 1376.52,-15.3355 1386.15,-19.7689 1386.81,-12.8005"/>
</g>
<!-- Node16&#45;&gt;Node4 -->
<g id="edge57" class="edge"><title>Node16&#45;&gt;Node4</title>
<path fill="none" stroke="midnightblue" d="M981.035,-481.277C974.777,-424.717 939.928,-109.761 931.055,-29.576"/>
<polygon fill="midnightblue" stroke="midnightblue" points="934.52,-29.0621 929.941,-19.5077 927.562,-29.8319 934.52,-29.0621"/>
</g>
<!-- Node17 -->
<g id="node18" class="node"><title>Node17</title>
<g id="a_node18"><a xlink:href="event_8h.html" target="_top" xlink:title="ODP event. ">
<polygon fill="white" stroke="black" points="850.5,-425.5 850.5,-444.5 941.5,-444.5 941.5,-425.5 850.5,-425.5"/>
<text text-anchor="middle" x="896" y="-432.5" font-family="Helvetica,sans-Serif" font-size="10.00">odp/api/event.h</text>
</a>
</g>
</g>
<!-- Node16&#45;&gt;Node17 -->
<g id="edge23" class="edge"><title>Node16&#45;&gt;Node17</title>
<path fill="none" stroke="midnightblue" d="M968.183,-481.324C954.767,-472.9 934.176,-459.971 918.414,-450.074"/>
<polygon fill="midnightblue" stroke="midnightblue" points="920.113,-447.008 909.783,-444.655 916.391,-452.936 920.113,-447.008"/>
</g>
<!-- Node26 -->
<g id="node27" class="node"><title>Node26</title>
<g id="a_node27"><a xlink:href="queue__types_8h.html" target="_top" xlink:title="ODP queue types. ">
<polygon fill="white" stroke="black" points="1157,-302.5 1157,-332.5 1267,-332.5 1267,-302.5 1157,-302.5"/>
<text text-anchor="start" x="1165" y="-320.5" font-family="Helvetica,sans-Serif" font-size="10.00">odp/api/spec/queue</text>
<text text-anchor="middle" x="1212" y="-309.5" font-family="Helvetica,sans-Serif" font-size="10.00">_types.h</text>
</a>
</g>
</g>
<!-- Node16&#45;&gt;Node26 -->
<g id="edge44" class="edge"><title>Node16&#45;&gt;Node26</title>
<path fill="none" stroke="midnightblue" d="M993.406,-481.495C1028.37,-455.427 1134.7,-376.141 1185.03,-338.607"/>
<polygon fill="midnightblue" stroke="midnightblue" points="1187.26,-341.314 1193.18,-332.53 1183.08,-335.702 1187.26,-341.314"/>
</g>
<!-- Node17&#45;&gt;Node12 -->
<g id="edge24" class="edge"><title>Node17&#45;&gt;Node12</title>
<path fill="none" stroke="midnightblue" d="M873.212,-425.471C857.674,-418.316 838.293,-406.435 829,-389 808.907,-351.301 832.475,-300.586 847.83,-274.347"/>
<polygon fill="midnightblue" stroke="midnightblue" points="850.968,-275.923 853.204,-265.567 844.998,-272.268 850.968,-275.923"/>
</g>
<!-- Node18 -->
<g id="node19" class="node"><title>Node18</title>
<g id="a_node19"><a xlink:href="spec_2event_8h.html" target="_top" xlink:title="ODP event. ">
<polygon fill="white" stroke="black" points="838,-369.5 838,-388.5 954,-388.5 954,-369.5 838,-369.5"/>
<text text-anchor="middle" x="896" y="-376.5" font-family="Helvetica,sans-Serif" font-size="10.00">odp/api/spec/event.h</text>
</a>
</g>
</g>
<!-- Node17&#45;&gt;Node18 -->
<g id="edge25" class="edge"><title>Node17&#45;&gt;Node18</title>
<path fill="none" stroke="midnightblue" d="M896,-425.083C896,-418.006 896,-407.861 896,-398.986"/>
<polygon fill="midnightblue" stroke="midnightblue" points="899.5,-398.751 896,-388.751 892.5,-398.751 899.5,-398.751"/>
</g>
<!-- Node18&#45;&gt;Node1 -->
<g id="edge26" class="edge"><title>Node18&#45;&gt;Node1</title>
<path fill="none" stroke="midnightblue" d="M954.137,-376.82C1095.88,-372.586 1452.92,-353.294 1525,-266 1584.54,-193.892 1597.1,-128.473 1538,-56 1519.11,-32.8363 1443.69,-21.2568 1386.6,-15.7068"/>
<polygon fill="midnightblue" stroke="midnightblue" points="1386.81,-12.2114 1376.53,-14.7711 1386.16,-19.1814 1386.81,-12.2114"/>
</g>
<!-- Node18&#45;&gt;Node4 -->
<g id="edge43" class="edge"><title>Node18&#45;&gt;Node4</title>
<path fill="none" stroke="midnightblue" d="M898.706,-369.405C904.409,-350.792 917.502,-305.267 922,-266 932.628,-173.222 900.97,-148.325 915,-56 916.368,-47.001 919.19,-37.3251 921.945,-29.2601"/>
<polygon fill="midnightblue" stroke="midnightblue" points="925.265,-30.3722 925.4,-19.7782 918.688,-27.9759 925.265,-30.3722"/>
</g>
<!-- Node18&#45;&gt;Node19 -->
<g id="edge27" class="edge"><title>Node18&#45;&gt;Node19</title>
<path fill="none" stroke="midnightblue" d="M837.74,-369.727C757.9,-358.389 615.312,-338.141 535.4,-326.793"/>
<polygon fill="midnightblue" stroke="midnightblue" points="535.419,-323.261 525.026,-325.32 534.435,-330.191 535.419,-323.261"/>
</g>
<!-- Node19&#45;&gt;Node8 -->
<g id="edge28" class="edge"><title>Node19&#45;&gt;Node8</title>
<path fill="none" stroke="midnightblue" d="M428.683,-316.821C343.174,-316.245 170.636,-309.565 133,-266 104.766,-233.318 130.455,-178.855 146.833,-151.218"/>
<polygon fill="midnightblue" stroke="midnightblue" points="149.854,-152.988 152.134,-142.641 143.899,-149.308 149.854,-152.988"/>
</g>
<!-- Node19&#45;&gt;Node12 -->
<g id="edge29" class="edge"><title>Node19&#45;&gt;Node12</title>
<path fill="none" stroke="midnightblue" d="M525.381,-308.964C593.781,-298.31 718.878,-278.825 794.927,-266.98"/>
<polygon fill="midnightblue" stroke="midnightblue" points="795.522,-270.43 804.864,-265.432 794.445,-263.513 795.522,-270.43"/>
</g>
<!-- Node19&#45;&gt;Node14 -->
<g id="edge32" class="edge"><title>Node19&#45;&gt;Node14</title>
<path fill="none" stroke="midnightblue" d="M496.485,-307.975C519.41,-297.945 557.685,-281.2 584.075,-269.655"/>
<polygon fill="midnightblue" stroke="midnightblue" points="585.792,-272.724 593.551,-265.509 582.986,-266.311 585.792,-272.724"/>
</g>
<!-- Node19&#45;&gt;Node15 -->
<g id="edge33" class="edge"><title>Node19&#45;&gt;Node15</title>
<path fill="none" stroke="midnightblue" d="M514.108,-307.975C560.171,-297.393 638.774,-279.336 689.003,-267.797"/>
<polygon fill="midnightblue" stroke="midnightblue" points="689.998,-271.159 698.96,-265.509 688.431,-264.337 689.998,-271.159"/>
</g>
<!-- Node20 -->
<g id="node21" class="node"><title>Node20</title>
<polygon fill="white" stroke="#bfbfbf" points="413.5,-246.5 413.5,-265.5 540.5,-265.5 540.5,-246.5 413.5,-246.5"/>
<text text-anchor="middle" x="477" y="-253.5" font-family="Helvetica,sans-Serif" font-size="10.00">odp/api/abi/packet_io.h</text>
</g>
<!-- Node19&#45;&gt;Node20 -->
<g id="edge30" class="edge"><title>Node19&#45;&gt;Node20</title>
<path fill="none" stroke="midnightblue" d="M477,-307.975C477,-299.58 477,-286.481 477,-275.663"/>
<polygon fill="midnightblue" stroke="midnightblue" points="480.5,-275.509 477,-265.509 473.5,-275.509 480.5,-275.509"/>
</g>
<!-- Node21 -->
<g id="node22" class="node"><title>Node21</title>
<polygon fill="white" stroke="#bfbfbf" points="282.5,-246.5 282.5,-265.5 395.5,-265.5 395.5,-246.5 282.5,-246.5"/>
<text text-anchor="middle" x="339" y="-253.5" font-family="Helvetica,sans-Serif" font-size="10.00">odp/api/abi/packet.h</text>
</g>
<!-- Node19&#45;&gt;Node21 -->
<g id="edge31" class="edge"><title>Node19&#45;&gt;Node21</title>
<path fill="none" stroke="midnightblue" d="M457.228,-307.975C433.864,-297.901 394.786,-281.053 367.997,-269.502"/>
<polygon fill="midnightblue" stroke="midnightblue" points="369.304,-266.254 358.735,-265.509 366.532,-272.682 369.304,-266.254"/>
</g>
<!-- Node22 -->
<g id="node23" class="node"><title>Node22</title>
<g id="a_node23"><a xlink:href="spec_2packet_8h.html" target="_top" xlink:title="ODP packet descriptor. ">
<polygon fill="white" stroke="black" points="142,-246.5 142,-265.5 264,-265.5 264,-246.5 142,-246.5"/>
<text text-anchor="middle" x="203" y="-253.5" font-family="Helvetica,sans-Serif" font-size="10.00">odp/api/spec/packet.h</text>
</a>
</g>
</g>
<!-- Node19&#45;&gt;Node22 -->
<g id="edge34" class="edge"><title>Node19&#45;&gt;Node22</title>
<path fill="none" stroke="midnightblue" d="M437.742,-307.975C388.809,-297.349 305.162,-279.185 252.055,-267.652"/>
<polygon fill="midnightblue" stroke="midnightblue" points="252.7,-264.211 242.185,-265.509 251.214,-271.052 252.7,-264.211"/>
</g>
<!-- Node22&#45;&gt;Node1 -->
<g id="edge35" class="edge"><title>Node22&#45;&gt;Node1</title>
<path fill="none" stroke="midnightblue" d="M264.123,-246.735C337.54,-236.633 456.276,-219.691 500,-210 736.987,-157.476 787.039,-108.643 1024,-56 1101.21,-38.8467 1191.25,-26.1485 1251.35,-18.6921"/>
<polygon fill="midnightblue" stroke="midnightblue" points="1251.97,-22.1421 1261.47,-17.4508 1251.12,-15.1941 1251.97,-22.1421"/>
</g>
<!-- Node22&#45;&gt;Node4 -->
<g id="edge42" class="edge"><title>Node22&#45;&gt;Node4</title>
<path fill="none" stroke="midnightblue" d="M254.17,-246.499C359.39,-227.743 606.007,-177.164 795,-87 816.591,-76.6997 818.466,-68.2725 839,-56 858.99,-44.0522 882.567,-32.3449 900.574,-23.8676"/>
<polygon fill="midnightblue" stroke="midnightblue" points="902.355,-26.8995 909.947,-19.5093 899.403,-20.5522 902.355,-26.8995"/>
</g>
<!-- Node22&#45;&gt;Node23 -->
<g id="edge36" class="edge"><title>Node22&#45;&gt;Node23</title>
<path fill="none" stroke="midnightblue" d="M203,-246.475C203,-238.08 203,-224.981 203,-214.163"/>
<polygon fill="midnightblue" stroke="midnightblue" points="206.5,-214.009 203,-204.009 199.5,-214.009 206.5,-214.009"/>
</g>
<!-- Node23&#45;&gt;Node8 -->
<g id="edge37" class="edge"><title>Node23&#45;&gt;Node8</title>
<path fill="none" stroke="midnightblue" d="M196.553,-184.975C189.803,-176.05 179.031,-161.807 170.587,-150.643"/>
<polygon fill="midnightblue" stroke="midnightblue" points="173.259,-148.374 164.435,-142.509 167.676,-152.596 173.259,-148.374"/>
</g>
<!-- Node24 -->
<g id="node25" class="node"><title>Node24</title>
<polygon fill="white" stroke="#bfbfbf" points="231.5,-123.5 231.5,-142.5 334.5,-142.5 334.5,-123.5 231.5,-123.5"/>
<text text-anchor="middle" x="283" y="-130.5" font-family="Helvetica,sans-Serif" font-size="10.00">odp/api/abi/time.h</text>
</g>
<!-- Node23&#45;&gt;Node24 -->
<g id="edge38" class="edge"><title>Node23&#45;&gt;Node24</title>
<path fill="none" stroke="midnightblue" d="M214.462,-184.975C227.175,-175.52 247.913,-160.096 263.253,-148.687"/>
<polygon fill="midnightblue" stroke="midnightblue" points="265.624,-151.285 271.559,-142.509 261.446,-145.669 265.624,-151.285"/>
</g>
<!-- Node25 -->
<g id="node26" class="node"><title>Node25</title>
<g id="a_node26"><a xlink:href="spec_2time_8h.html" target="_top" xlink:title="ODP time. ">
<polygon fill="white" stroke="black" points="675.5,-62 675.5,-81 786.5,-81 786.5,-62 675.5,-62"/>
<text text-anchor="middle" x="731" y="-69" font-family="Helvetica,sans-Serif" font-size="10.00">odp/api/spec/time.h</text>
</a>
</g>
</g>
<!-- Node23&#45;&gt;Node25 -->
<g id="edge39" class="edge"><title>Node23&#45;&gt;Node25</title>
<path fill="none" stroke="midnightblue" d="M240.128,-184.992C333.835,-163.517 579.833,-107.143 683.671,-83.3463"/>
<polygon fill="midnightblue" stroke="midnightblue" points="684.595,-86.7253 693.56,-81.0799 683.031,-79.9022 684.595,-86.7253"/>
</g>
<!-- Node25&#45;&gt;Node1 -->
<g id="edge40" class="edge"><title>Node25&#45;&gt;Node1</title>
<path fill="none" stroke="midnightblue" d="M786.582,-64.8756C894.821,-53.9228 1133.54,-29.7671 1251,-17.8807"/>
<polygon fill="midnightblue" stroke="midnightblue" points="1251.7,-21.3278 1261.3,-16.8387 1251,-14.3634 1251.7,-21.3278"/>
</g>
<!-- Node25&#45;&gt;Node4 -->
<g id="edge41" class="edge"><title>Node25&#45;&gt;Node4</title>
<path fill="none" stroke="midnightblue" d="M759.369,-61.9751C793.921,-51.592 852.424,-34.0116 890.885,-22.4538"/>
<polygon fill="midnightblue" stroke="midnightblue" points="892.114,-25.739 900.684,-19.5091 890.1,-19.0351 892.114,-25.739"/>
</g>
<!-- Node26&#45;&gt;Node1 -->
<g id="edge45" class="edge"><title>Node26&#45;&gt;Node1</title>
<path fill="none" stroke="midnightblue" d="M1245.24,-302.361C1278.99,-285.868 1328.9,-254.996 1348,-210 1374.57,-147.405 1343.92,-64.8639 1327.74,-28.9624"/>
<polygon fill="midnightblue" stroke="midnightblue" points="1330.85,-27.3369 1323.44,-19.7581 1324.5,-30.2996 1330.85,-27.3369"/>
</g>
<!-- Node26&#45;&gt;Node2 -->
<g id="edge55" class="edge"><title>Node26&#45;&gt;Node2</title>
<path fill="none" stroke="midnightblue" d="M1267.29,-303.073C1311,-292.456 1371.26,-277.822 1412.04,-267.918"/>
<polygon fill="midnightblue" stroke="midnightblue" points="1413.08,-271.268 1421.97,-265.507 1411.43,-264.466 1413.08,-271.268"/>
</g>
<!-- Node26&#45;&gt;Node4 -->
<g id="edge56" class="edge"><title>Node26&#45;&gt;Node4</title>
<path fill="none" stroke="midnightblue" d="M1187.7,-302.3C1171.92,-292.711 1151.17,-279.4 1134,-266 1042,-194.191 965.626,-73.3922 939.057,-28.495"/>
<polygon fill="midnightblue" stroke="midnightblue" points="941.965,-26.5336 933.899,-19.6648 935.921,-30.0648 941.965,-26.5336"/>
</g>
<!-- Node27 -->
<g id="node28" class="node"><title>Node27</title>
<g id="a_node28"><a xlink:href="schedule__types_8h.html" target="_top" xlink:title="ODP schedule. ">
<polygon fill="white" stroke="black" points="1143,-246.5 1143,-265.5 1281,-265.5 1281,-246.5 1143,-246.5"/>
<text text-anchor="middle" x="1212" y="-253.5" font-family="Helvetica,sans-Serif" font-size="10.00">odp/api/schedule_types.h</text>
</a>
</g>
</g>
<!-- Node26&#45;&gt;Node27 -->
<g id="edge46" class="edge"><title>Node26&#45;&gt;Node27</title>
<path fill="none" stroke="midnightblue" d="M1212,-302.399C1212,-294.466 1212,-284.458 1212,-275.858"/>
<polygon fill="midnightblue" stroke="midnightblue" points="1215.5,-275.658 1212,-265.658 1208.5,-275.658 1215.5,-275.658"/>
</g>
<!-- Node28 -->
<g id="node29" class="node"><title>Node28</title>
<polygon fill="white" stroke="#bfbfbf" points="1224.5,-179.5 1224.5,-209.5 1339.5,-209.5 1339.5,-179.5 1224.5,-179.5"/>
<text text-anchor="start" x="1232.5" y="-197.5" font-family="Helvetica,sans-Serif" font-size="10.00">odp/api/abi/schedule</text>
<text text-anchor="middle" x="1282" y="-186.5" font-family="Helvetica,sans-Serif" font-size="10.00">_types.h</text>
</g>
<!-- Node27&#45;&gt;Node28 -->
<g id="edge47" class="edge"><title>Node27&#45;&gt;Node28</title>
<path fill="none" stroke="midnightblue" d="M1222.03,-246.475C1231.33,-238.567 1245.55,-226.485 1257.8,-216.067"/>
<polygon fill="midnightblue" stroke="midnightblue" points="1260.15,-218.666 1265.5,-209.523 1255.62,-213.333 1260.15,-218.666"/>
</g>
<!-- Node29 -->
<g id="node30" class="node"><title>Node29</title>
<g id="a_node30"><a xlink:href="spec_2schedule__types_8h.html" target="_top" xlink:title="ODP schedule types. ">
<polygon fill="white" stroke="black" points="1083.5,-179.5 1083.5,-209.5 1206.5,-209.5 1206.5,-179.5 1083.5,-179.5"/>
<text text-anchor="start" x="1091.5" y="-197.5" font-family="Helvetica,sans-Serif" font-size="10.00">odp/api/spec/schedule</text>
<text text-anchor="middle" x="1145" y="-186.5" font-family="Helvetica,sans-Serif" font-size="10.00">_types.h</text>
</a>
</g>
</g>
<!-- Node27&#45;&gt;Node29 -->
<g id="edge48" class="edge"><title>Node27&#45;&gt;Node29</title>
<path fill="none" stroke="midnightblue" d="M1202.4,-246.475C1193.58,-238.643 1180.15,-226.714 1168.5,-216.366"/>
<polygon fill="midnightblue" stroke="midnightblue" points="1170.59,-213.546 1160.79,-209.523 1165.94,-218.78 1170.59,-213.546"/>
</g>
<!-- Node29&#45;&gt;Node1 -->
<g id="edge49" class="edge"><title>Node29&#45;&gt;Node1</title>
<path fill="none" stroke="midnightblue" d="M1182.67,-179.381C1219.78,-163.246 1274.52,-132.976 1300,-87 1309.97,-69.0042 1314.8,-45.7372 1317.07,-29.7133"/>
<polygon fill="midnightblue" stroke="midnightblue" points="1320.58,-29.8544 1318.31,-19.5045 1313.63,-29.0077 1320.58,-29.8544"/>
</g>
<!-- Node29&#45;&gt;Node4 -->
<g id="edge54" class="edge"><title>Node29&#45;&gt;Node4</title>
<path fill="none" stroke="midnightblue" d="M1128.41,-179.483C1088.75,-145.975 988.692,-61.4343 947.33,-26.4871"/>
<polygon fill="midnightblue" stroke="midnightblue" points="949.335,-23.5991 939.437,-19.8187 944.817,-28.9461 949.335,-23.5991"/>
</g>
<!-- Node30 -->
<g id="node31" class="node"><title>Node30</title>
<g id="a_node31"><a xlink:href="support_8h.html" target="_top" xlink:title="ODP support API &#45; platform specific header. ">
<polygon fill="white" stroke="black" points="1136.5,-123.5 1136.5,-142.5 1237.5,-142.5 1237.5,-123.5 1136.5,-123.5"/>
<text text-anchor="middle" x="1187" y="-130.5" font-family="Helvetica,sans-Serif" font-size="10.00">odp/api/support.h</text>
</a>
</g>
</g>
<!-- Node29&#45;&gt;Node30 -->
<g id="edge50" class="edge"><title>Node29&#45;&gt;Node30</title>
<path fill="none" stroke="midnightblue" d="M1154.95,-179.399C1160.99,-170.842 1168.74,-159.871 1175.1,-150.857"/>
<polygon fill="midnightblue" stroke="midnightblue" points="1177.98,-152.846 1180.89,-142.658 1172.26,-148.809 1177.98,-152.846"/>
</g>
<!-- Node31 -->
<g id="node32" class="node"><title>Node31</title>
<g id="a_node32"><a xlink:href="spec_2support_8h.html" target="_top" xlink:title="ODP support API. ">
<polygon fill="white" stroke="black" points="1165,-62 1165,-81 1291,-81 1291,-62 1165,-62"/>
<text text-anchor="middle" x="1228" y="-69" font-family="Helvetica,sans-Serif" font-size="10.00">odp/api/spec/support.h</text>
</a>
</g>
</g>
<!-- Node30&#45;&gt;Node31 -->
<g id="edge51" class="edge"><title>Node30&#45;&gt;Node31</title>
<path fill="none" stroke="midnightblue" d="M1192.87,-123.475C1198.96,-114.638 1208.64,-100.589 1216.3,-89.475"/>
<polygon fill="midnightblue" stroke="midnightblue" points="1219.34,-91.2294 1222.14,-81.0091 1213.58,-87.2575 1219.34,-91.2294"/>
</g>
<!-- Node31&#45;&gt;Node1 -->
<g id="edge52" class="edge"><title>Node31&#45;&gt;Node1</title>
<path fill="none" stroke="midnightblue" d="M1241.04,-61.9751C1255.77,-52.3431 1279.97,-36.5175 1297.51,-25.0517"/>
<polygon fill="midnightblue" stroke="midnightblue" points="1299.53,-27.911 1305.99,-19.5091 1295.7,-22.0522 1299.53,-27.911"/>
</g>
<!-- Node31&#45;&gt;Node4 -->
<g id="edge53" class="edge"><title>Node31&#45;&gt;Node4</title>
<path fill="none" stroke="midnightblue" d="M1185.16,-61.9751C1131.54,-51.3048 1039.72,-33.0335 981.809,-21.5089"/>
<polygon fill="midnightblue" stroke="midnightblue" points="982.251,-18.0282 971.76,-19.5091 980.885,-24.8936 982.251,-18.0282"/>
</g>
</g>
</svg>
