<?xml version="1.0" encoding="UTF-8" standalone="no"?>
<!DOCTYPE svg PUBLIC "-//W3C//DTD SVG 1.1//EN"
 "http://www.w3.org/Graphics/SVG/1.1/DTD/svg11.dtd">
<!-- Generated by graphviz version 2.38.0 (20140413.2041)
 -->
<!-- Title: spinlock_recursive.h Pages: 1 -->
<svg width="314pt" height="151pt"
 viewBox="0.00 0.00 313.50 151.00" xmlns="http://www.w3.org/2000/svg" xmlns:xlink="http://www.w3.org/1999/xlink">
<g id="graph0" class="graph" transform="scale(1 1) rotate(0) translate(4 147)">
<title>spinlock_recursive.h</title>
<polygon fill="white" stroke="none" points="-4,4 -4,-147 309.5,-147 309.5,4 -4,4"/>
<!-- Node0 -->
<g id="node1" class="node"><title>Node0</title>
<polygon fill="#bfbfbf" stroke="black" points="64.5,-123.5 64.5,-142.5 177.5,-142.5 177.5,-123.5 64.5,-123.5"/>
<text text-anchor="middle" x="121" y="-130.5" font-family="Helvetica,sans-Serif" font-size="10.00">spinlock_recursive.h</text>
</g>
<!-- Node1 -->
<g id="node2" class="node"><title>Node1</title>
<polygon fill="white" stroke="#bfbfbf" points="0,-56.5 0,-86.5 110,-86.5 110,-56.5 0,-56.5"/>
<text text-anchor="start" x="8" y="-74.5" font-family="Helvetica,sans-Serif" font-size="10.00">odp/api/abi/spinlock</text>
<text text-anchor="middle" x="55" y="-63.5" font-family="Helvetica,sans-Serif" font-size="10.00">_recursive.h</text>
</g>
<!-- Node0&#45;&gt;Node1 -->
<g id="edge1" class="edge"><title>Node0&#45;&gt;Node1</title>
<path fill="none" stroke="midnightblue" d="M111.544,-123.475C102.856,-115.643 89.6244,-103.714 78.145,-93.3656"/>
<polygon fill="midnightblue" stroke="midnightblue" points="80.3258,-90.6193 70.5549,-86.523 75.6387,-95.8184 80.3258,-90.6193"/>
</g>
<!-- Node2 -->
<g id="node3" class="node"><title>Node2</title>
<g id="a_node3"><a xlink:href="spec_2spinlock__recursive_8h.html" target="_top" xlink:title="ODP recursive spinlock. ">
<polygon fill="white" stroke="black" points="128.5,-56.5 128.5,-86.5 247.5,-86.5 247.5,-56.5 128.5,-56.5"/>
<text text-anchor="start" x="136.5" y="-74.5" font-family="Helvetica,sans-Serif" font-size="10.00">odp/api/spec/spinlock</text>
<text text-anchor="middle" x="188" y="-63.5" font-family="Helvetica,sans-Serif" font-size="10.00">_recursive.h</text>
</a>
</g>
</g>
<!-- Node0&#45;&gt;Node2 -->
<g id="edge2" class="edge"><title>Node0&#45;&gt;Node2</title>
<path fill="none" stroke="midnightblue" d="M130.599,-123.475C139.419,-115.643 152.851,-103.714 164.504,-93.3656"/>
<polygon fill="midnightblue" stroke="midnightblue" points="167.056,-95.7802 172.209,-86.523 162.408,-90.5462 167.056,-95.7802"/>
</g>
<!-- Node3 -->
<g id="node4" class="node"><title>Node3</title>
<polygon fill="white" stroke="#bfbfbf" points="65.5,-0.5 65.5,-19.5 180.5,-19.5 180.5,-0.5 65.5,-0.5"/>
<text text-anchor="middle" x="123" y="-7.5" font-family="Helvetica,sans-Serif" font-size="10.00">odp/visibility_begin.h</text>
</g>
<!-- Node2&#45;&gt;Node3 -->
<g id="edge3" class="edge"><title>Node2&#45;&gt;Node3</title>
<path fill="none" stroke="midnightblue" d="M172.596,-56.3993C162.761,-47.3967 150.007,-35.7214 139.895,-26.4652"/>
<polygon fill="midnightblue" stroke="midnightblue" points="142.198,-23.8282 132.458,-19.6578 137.471,-28.9916 142.198,-23.8282"/>
</g>
<!-- Node4 -->
<g id="node5" class="node"><title>Node4</title>
<polygon fill="white" stroke="#bfbfbf" points="198.5,-0.5 198.5,-19.5 305.5,-19.5 305.5,-0.5 198.5,-0.5"/>
<text text-anchor="middle" x="252" y="-7.5" font-family="Helvetica,sans-Serif" font-size="10.00">odp/visibility_end.h</text>
</g>
<!-- Node2&#45;&gt;Node4 -->
<g id="edge4" class="edge"><title>Node2&#45;&gt;Node4</title>
<path fill="none" stroke="midnightblue" d="M203.167,-56.3993C212.755,-47.4859 225.161,-35.9523 235.069,-26.7408"/>
<polygon fill="midnightblue" stroke="midnightblue" points="237.747,-29.0301 242.687,-19.6578 232.98,-23.9033 237.747,-29.0301"/>
</g>
</g>
</svg>
