<?xml version="1.0" encoding="UTF-8" standalone="no"?>
<!DOCTYPE svg PUBLIC "-//W3C//DTD SVG 1.1//EN"
 "http://www.w3.org/Graphics/SVG/1.1/DTD/svg11.dtd">
<!-- Generated by graphviz version 2.38.0 (20140413.2041)
 -->
<!-- Title: std_types.h Pages: 1 -->
<svg width="2475pt" height="364pt"
 viewBox="0.00 0.00 2474.50 364.00" xmlns="http://www.w3.org/2000/svg" xmlns:xlink="http://www.w3.org/1999/xlink">
<g id="graph0" class="graph" transform="scale(1 1) rotate(0) translate(4 360)">
<title>std_types.h</title>
<polygon fill="white" stroke="none" points="-4,4 -4,-360 2470.5,-360 2470.5,4 -4,4"/>
<!-- Node6 -->
<g id="node1" class="node"><title>Node6</title>
<polygon fill="#bfbfbf" stroke="black" points="1273.5,-336.5 1273.5,-355.5 1345.5,-355.5 1345.5,-336.5 1273.5,-336.5"/>
<text text-anchor="middle" x="1309.5" y="-343.5" font-family="Helvetica,sans-Serif" font-size="10.00">std_types.h</text>
</g>
<!-- Node7 -->
<g id="node2" class="node"><title>Node7</title>
<g id="a_node2"><a xlink:href="abi-default_2atomic_8h.html" target="_top" xlink:title="ODP atomic operations. ">
<polygon fill="white" stroke="black" points="0,-280.5 0,-299.5 59,-299.5 59,-280.5 0,-280.5"/>
<text text-anchor="middle" x="29.5" y="-287.5" font-family="Helvetica,sans-Serif" font-size="10.00">atomic.h</text>
</a>
</g>
</g>
<!-- Node6&#45;&gt;Node7 -->
<g id="edge1" class="edge"><title>Node6&#45;&gt;Node7</title>
<path fill="none" stroke="midnightblue" d="M1262.96,-344.499C1066.72,-342.205 306.046,-331.424 68.5,-300 65.4689,-299.599 62.3277,-299.07 59.2037,-298.469"/>
<polygon fill="midnightblue" stroke="midnightblue" points="1263.17,-348.002 1273.21,-344.617 1263.25,-341.002 1263.17,-348.002"/>
</g>
<!-- Node8 -->
<g id="node3" class="node"><title>Node8</title>
<g id="a_node3"><a xlink:href="abi-default_2barrier_8h.html" target="_top" xlink:title="ODP barrier. ">
<polygon fill="white" stroke="black" points="77.5,-280.5 77.5,-299.5 133.5,-299.5 133.5,-280.5 77.5,-280.5"/>
<text text-anchor="middle" x="105.5" y="-287.5" font-family="Helvetica,sans-Serif" font-size="10.00">barrier.h</text>
</a>
</g>
</g>
<!-- Node6&#45;&gt;Node8 -->
<g id="edge2" class="edge"><title>Node6&#45;&gt;Node8</title>
<path fill="none" stroke="midnightblue" d="M1263.32,-344.414C1075.14,-341.842 365.616,-330.297 143.5,-300 140.276,-299.56 136.924,-298.969 133.607,-298.298"/>
<polygon fill="midnightblue" stroke="midnightblue" points="1263.38,-347.915 1273.43,-344.55 1263.48,-340.916 1263.38,-347.915"/>
</g>
<!-- Node9 -->
<g id="node4" class="node"><title>Node9</title>
<g id="a_node4"><a xlink:href="abi-default_2byteorder_8h.html" target="_top" xlink:title="ODP byteorder. ">
<polygon fill="white" stroke="black" points="152,-280.5 152,-299.5 223,-299.5 223,-280.5 152,-280.5"/>
<text text-anchor="middle" x="187.5" y="-287.5" font-family="Helvetica,sans-Serif" font-size="10.00">byteorder.h</text>
</a>
</g>
</g>
<!-- Node6&#45;&gt;Node9 -->
<g id="edge3" class="edge"><title>Node6&#45;&gt;Node9</title>
<path fill="none" stroke="midnightblue" d="M1263.11,-344.024C1083.89,-340.105 436.652,-324.529 232.5,-300 229.494,-299.639 226.389,-299.187 223.28,-298.678"/>
<polygon fill="midnightblue" stroke="midnightblue" points="1263.18,-347.526 1273.25,-344.244 1263.33,-340.528 1263.18,-347.526"/>
</g>
<!-- Node10 -->
<g id="node5" class="node"><title>Node10</title>
<g id="a_node5"><a xlink:href="abi-default_2cpumask_8h.html" target="_top" xlink:title="ODP CPU masks and enumeration. ">
<polygon fill="white" stroke="black" points="241,-280.5 241,-299.5 310,-299.5 310,-280.5 241,-280.5"/>
<text text-anchor="middle" x="275.5" y="-287.5" font-family="Helvetica,sans-Serif" font-size="10.00">cpumask.h</text>
</a>
</g>
</g>
<!-- Node6&#45;&gt;Node10 -->
<g id="edge4" class="edge"><title>Node6&#45;&gt;Node10</title>
<path fill="none" stroke="midnightblue" d="M1263.3,-345.458C1121.62,-346.314 680.96,-344.903 319.5,-300 316.405,-299.616 313.203,-299.131 310.003,-298.588"/>
<polygon fill="midnightblue" stroke="midnightblue" points="1263.39,-348.957 1273.37,-345.39 1263.34,-341.957 1263.39,-348.957"/>
</g>
<!-- Node11 -->
<g id="node6" class="node"><title>Node11</title>
<g id="a_node6"><a xlink:href="abi-default_2init_8h.html" target="_top" xlink:title="ODP initialization. ">
<polygon fill="white" stroke="black" points="328.5,-280.5 328.5,-299.5 368.5,-299.5 368.5,-280.5 328.5,-280.5"/>
<text text-anchor="middle" x="348.5" y="-287.5" font-family="Helvetica,sans-Serif" font-size="10.00">init.h</text>
</a>
</g>
</g>
<!-- Node6&#45;&gt;Node11 -->
<g id="edge5" class="edge"><title>Node6&#45;&gt;Node11</title>
<path fill="none" stroke="midnightblue" d="M1263.22,-344.31C1099.83,-341.634 550.58,-330.528 377.5,-300 374.593,-299.487 371.57,-298.768 368.621,-297.958"/>
<polygon fill="midnightblue" stroke="midnightblue" points="1263.36,-347.813 1273.42,-344.474 1263.47,-340.814 1263.36,-347.813"/>
</g>
<!-- Node12 -->
<g id="node7" class="node"><title>Node12</title>
<g id="a_node7"><a xlink:href="abi-default_2ipsec_8h.html" target="_top" xlink:title="ODP IPSEC API &#45; platform specific types. ">
<polygon fill="white" stroke="black" points="386.5,-280.5 386.5,-299.5 436.5,-299.5 436.5,-280.5 386.5,-280.5"/>
<text text-anchor="middle" x="411.5" y="-287.5" font-family="Helvetica,sans-Serif" font-size="10.00">ipsec.h</text>
</a>
</g>
</g>
<!-- Node6&#45;&gt;Node12 -->
<g id="edge6" class="edge"><title>Node6&#45;&gt;Node12</title>
<path fill="none" stroke="midnightblue" d="M1263.11,-343.803C1107.68,-339.6 606.15,-324.438 446.5,-300 443.275,-299.506 439.916,-298.842 436.611,-298.096"/>
<polygon fill="midnightblue" stroke="midnightblue" points="1263.18,-347.306 1273.27,-344.075 1263.36,-340.308 1263.18,-347.306"/>
</g>
<!-- Node13 -->
<g id="node8" class="node"><title>Node13</title>
<g id="a_node8"><a xlink:href="abi-default_2packet__io_8h.html" target="_top" xlink:title="ODP Packet IO. ">
<polygon fill="white" stroke="black" points="455,-280.5 455,-299.5 526,-299.5 526,-280.5 455,-280.5"/>
<text text-anchor="middle" x="490.5" y="-287.5" font-family="Helvetica,sans-Serif" font-size="10.00">packet_io.h</text>
</a>
</g>
</g>
<!-- Node6&#45;&gt;Node13 -->
<g id="edge7" class="edge"><title>Node6&#45;&gt;Node13</title>
<path fill="none" stroke="midnightblue" d="M1263.14,-344.552C1142.64,-342.903 809.915,-335.244 535.5,-300 532.497,-299.614 529.394,-299.145 526.287,-298.625"/>
<polygon fill="midnightblue" stroke="midnightblue" points="1263.41,-348.056 1273.46,-344.686 1263.5,-341.057 1263.41,-348.056"/>
</g>
<!-- Node14 -->
<g id="node9" class="node"><title>Node14</title>
<g id="a_node9"><a xlink:href="abi-default_2rwlock__recursive_8h.html" target="_top" xlink:title="ODP recursive read/write lock. ">
<polygon fill="white" stroke="black" points="544.5,-280.5 544.5,-299.5 648.5,-299.5 648.5,-280.5 544.5,-280.5"/>
<text text-anchor="middle" x="596.5" y="-287.5" font-family="Helvetica,sans-Serif" font-size="10.00">rwlock_recursive.h</text>
</a>
</g>
</g>
<!-- Node6&#45;&gt;Node14 -->
<g id="edge8" class="edge"><title>Node6&#45;&gt;Node14</title>
<path fill="none" stroke="midnightblue" d="M1263.25,-343.042C1156.36,-338.249 884.03,-324.491 657.5,-300 654.626,-299.689 651.68,-299.344 648.709,-298.975"/>
<polygon fill="midnightblue" stroke="midnightblue" points="1263.22,-346.545 1273.37,-343.491 1263.53,-339.551 1263.22,-346.545"/>
</g>
<!-- Node15 -->
<g id="node10" class="node"><title>Node15</title>
<g id="a_node10"><a xlink:href="abi-default_2schedule_8h.html" target="_top" xlink:title="ODP schedule. ">
<polygon fill="white" stroke="black" points="666.5,-280.5 666.5,-299.5 734.5,-299.5 734.5,-280.5 666.5,-280.5"/>
<text text-anchor="middle" x="700.5" y="-287.5" font-family="Helvetica,sans-Serif" font-size="10.00">schedule.h</text>
</a>
</g>
</g>
<!-- Node6&#45;&gt;Node15 -->
<g id="edge9" class="edge"><title>Node6&#45;&gt;Node15</title>
<path fill="none" stroke="midnightblue" d="M1263.28,-343.235C1166.58,-339.121 936.034,-327.112 744.5,-300 741.258,-299.541 737.895,-298.99 734.538,-298.391"/>
<polygon fill="midnightblue" stroke="midnightblue" points="1263.17,-346.733 1273.31,-343.653 1263.46,-339.739 1263.17,-346.733"/>
</g>
<!-- Node16 -->
<g id="node11" class="node"><title>Node16</title>
<g id="a_node11"><a xlink:href="abi-default_2spinlock__recursive_8h.html" target="_top" xlink:title="ODP recursive spinlock. ">
<polygon fill="white" stroke="black" points="753,-280.5 753,-299.5 866,-299.5 866,-280.5 753,-280.5"/>
<text text-anchor="middle" x="809.5" y="-287.5" font-family="Helvetica,sans-Serif" font-size="10.00">spinlock_recursive.h</text>
</a>
</g>
</g>
<!-- Node6&#45;&gt;Node16 -->
<g id="edge10" class="edge"><title>Node6&#45;&gt;Node16</title>
<path fill="none" stroke="midnightblue" d="M1263.3,-340.703C1183.92,-333.209 1016.58,-316.929 875.5,-300 872.4,-299.628 869.219,-299.234 866.01,-298.828"/>
<polygon fill="midnightblue" stroke="midnightblue" points="1263.16,-344.205 1273.45,-341.658 1263.82,-337.236 1263.16,-344.205"/>
</g>
<!-- Node17 -->
<g id="node12" class="node"><title>Node17</title>
<g id="a_node12"><a xlink:href="abi-default_2traffic__mngr_8h.html" target="_top" xlink:title="ODP traffic mngr. ">
<polygon fill="white" stroke="black" points="884,-280.5 884,-299.5 967,-299.5 967,-280.5 884,-280.5"/>
<text text-anchor="middle" x="925.5" y="-287.5" font-family="Helvetica,sans-Serif" font-size="10.00">traffic_mngr.h</text>
</a>
</g>
</g>
<!-- Node6&#45;&gt;Node17 -->
<g id="edge11" class="edge"><title>Node6&#45;&gt;Node17</title>
<path fill="none" stroke="midnightblue" d="M1263.24,-339.347C1198.85,-331.343 1078.61,-315.902 976.5,-300 973.479,-299.53 970.362,-299.025 967.226,-298.505"/>
<polygon fill="midnightblue" stroke="midnightblue" points="1263.1,-342.857 1273.46,-340.614 1263.96,-335.91 1263.1,-342.857"/>
</g>
<!-- Node18 -->
<g id="node13" class="node"><title>Node18</title>
<g id="a_node13"><a xlink:href="barrier_8h.html" target="_top" xlink:title="ODP execution barriers. ">
<polygon fill="white" stroke="black" points="985.5,-280.5 985.5,-299.5 1041.5,-299.5 1041.5,-280.5 985.5,-280.5"/>
<text text-anchor="middle" x="1013.5" y="-287.5" font-family="Helvetica,sans-Serif" font-size="10.00">barrier.h</text>
</a>
</g>
</g>
<!-- Node6&#45;&gt;Node18 -->
<g id="edge12" class="edge"><title>Node6&#45;&gt;Node18</title>
<path fill="none" stroke="midnightblue" d="M1263.29,-337.796C1211.54,-329.53 1125.25,-315.151 1051.5,-300 1048.31,-299.345 1044.98,-298.619 1041.68,-297.872"/>
<polygon fill="midnightblue" stroke="midnightblue" points="1263.05,-341.302 1273.48,-339.416 1264.15,-334.389 1263.05,-341.302"/>
</g>
<!-- Node19 -->
<g id="node14" class="node"><title>Node19</title>
<g id="a_node14"><a xlink:href="buffer_8h.html" target="_top" xlink:title="ODP buffer descriptor. ">
<polygon fill="white" stroke="black" points="1060,-280.5 1060,-299.5 1113,-299.5 1113,-280.5 1060,-280.5"/>
<text text-anchor="middle" x="1086.5" y="-287.5" font-family="Helvetica,sans-Serif" font-size="10.00">buffer.h</text>
</a>
</g>
</g>
<!-- Node6&#45;&gt;Node19 -->
<g id="edge13" class="edge"><title>Node6&#45;&gt;Node19</title>
<path fill="none" stroke="midnightblue" d="M1264.29,-334.053C1218.95,-323.074 1150.64,-306.532 1113.27,-297.483"/>
<polygon fill="midnightblue" stroke="midnightblue" points="1263.62,-337.492 1274.16,-336.444 1265.27,-330.688 1263.62,-337.492"/>
</g>
<!-- Node20 -->
<g id="node15" class="node"><title>Node20</title>
<g id="a_node15"><a xlink:href="classification_8h.html" target="_top" xlink:title="ODP classification descriptor. ">
<polygon fill="white" stroke="black" points="1217.5,-56.5 1217.5,-75.5 1303.5,-75.5 1303.5,-56.5 1217.5,-56.5"/>
<text text-anchor="middle" x="1260.5" y="-63.5" font-family="Helvetica,sans-Serif" font-size="10.00">classification.h</text>
</a>
</g>
</g>
<!-- Node6&#45;&gt;Node20 -->
<g id="edge14" class="edge"><title>Node6&#45;&gt;Node20</title>
<path fill="none" stroke="midnightblue" d="M1263.66,-334.935C1232.45,-327.283 1190.58,-315.439 1155.5,-300 1139.8,-293.092 1138.37,-286.5 1122.5,-280 1058.25,-253.688 1013.56,-298.454 970.5,-244 896.593,-150.544 1119.88,-94.3697 1217.37,-74.8293"/>
<polygon fill="midnightblue" stroke="midnightblue" points="1262.86,-338.342 1273.4,-337.271 1264.49,-331.535 1262.86,-338.342"/>
</g>
<!-- Node23 -->
<g id="node17" class="node"><title>Node23</title>
<g id="a_node17"><a xlink:href="crypto_8h.html" target="_top" xlink:title="ODP crypto. ">
<polygon fill="white" stroke="black" points="1443.5,-168.5 1443.5,-187.5 1499.5,-187.5 1499.5,-168.5 1443.5,-168.5"/>
<text text-anchor="middle" x="1471.5" y="-175.5" font-family="Helvetica,sans-Serif" font-size="10.00">crypto.h</text>
</a>
</g>
</g>
<!-- Node6&#45;&gt;Node23 -->
<g id="edge16" class="edge"><title>Node6&#45;&gt;Node23</title>
<path fill="none" stroke="midnightblue" d="M1355.7,-339.95C1403.7,-333.64 1474.06,-321.032 1490.5,-300 1517.22,-265.826 1489.29,-209.28 1476.84,-187.719"/>
<polygon fill="midnightblue" stroke="midnightblue" points="1355.01,-336.51 1345.53,-341.238 1355.89,-343.455 1355.01,-336.51"/>
</g>
<!-- Node24 -->
<g id="node18" class="node"><title>Node24</title>
<g id="a_node18"><a xlink:href="packet_8h.html" target="_top" xlink:title="ODP packet descriptor. ">
<polygon fill="white" stroke="black" points="1245.5,-280.5 1245.5,-299.5 1303.5,-299.5 1303.5,-280.5 1245.5,-280.5"/>
<text text-anchor="middle" x="1274.5" y="-287.5" font-family="Helvetica,sans-Serif" font-size="10.00">packet.h</text>
</a>
</g>
</g>
<!-- Node6&#45;&gt;Node24 -->
<g id="edge18" class="edge"><title>Node6&#45;&gt;Node24</title>
<path fill="none" stroke="midnightblue" d="M1298.2,-327.566C1292.18,-318.275 1285.03,-307.248 1280.17,-299.751"/>
<polygon fill="midnightblue" stroke="midnightblue" points="1295.34,-329.595 1303.72,-336.083 1301.22,-325.788 1295.34,-329.595"/>
</g>
<!-- Node39 -->
<g id="node22" class="node"><title>Node39</title>
<g id="a_node22"><a xlink:href="spec_2packet__flags_8h.html" target="_top" xlink:title="ODP packet flags. ">
<polygon fill="white" stroke="black" points="994.5,-224.5 994.5,-243.5 1080.5,-243.5 1080.5,-224.5 994.5,-224.5"/>
<text text-anchor="middle" x="1037.5" y="-231.5" font-family="Helvetica,sans-Serif" font-size="10.00">packet_flags.h</text>
</a>
</g>
</g>
<!-- Node6&#45;&gt;Node39 -->
<g id="edge48" class="edge"><title>Node6&#45;&gt;Node39</title>
<path fill="none" stroke="midnightblue" d="M1287.9,-330.902C1265.16,-316.541 1227.95,-294.393 1193.5,-280 1154.75,-263.807 1108.26,-251.22 1076.17,-243.526"/>
<polygon fill="midnightblue" stroke="midnightblue" points="1286.12,-333.917 1296.43,-336.354 1289.89,-328.019 1286.12,-333.917"/>
</g>
<!-- Node33 -->
<g id="node25" class="node"><title>Node33</title>
<g id="a_node25"><a xlink:href="packet__io_8h.html" target="_top" xlink:title="ODP Packet IO. ">
<polygon fill="white" stroke="black" points="1296,-168.5 1296,-187.5 1367,-187.5 1367,-168.5 1296,-168.5"/>
<text text-anchor="middle" x="1331.5" y="-175.5" font-family="Helvetica,sans-Serif" font-size="10.00">packet_io.h</text>
</a>
</g>
</g>
<!-- Node6&#45;&gt;Node33 -->
<g id="edge31" class="edge"><title>Node6&#45;&gt;Node33</title>
<path fill="none" stroke="midnightblue" d="M1275.7,-333.051C1252.33,-324.508 1220.68,-312.375 1193.5,-300 1176.13,-292.091 1173.45,-286.483 1155.5,-280 1080.68,-252.978 933.003,-283.767 985.5,-224 1005.79,-200.903 1211.46,-186.14 1295.76,-181.018"/>
<polygon fill="midnightblue" stroke="midnightblue" points="1274.58,-336.367 1285.17,-336.483 1276.96,-329.786 1274.58,-336.367"/>
</g>
<!-- Node35 -->
<g id="node27" class="node"><title>Node35</title>
<g id="a_node27"><a xlink:href="spec_2traffic__mngr_8h.html" target="_top" xlink:title="Copyright (c) 2015&#45;2018, Linaro Limited All rights reserved. ">
<polygon fill="white" stroke="red" points="1360,-112.5 1360,-131.5 1443,-131.5 1443,-112.5 1360,-112.5"/>
<text text-anchor="middle" x="1401.5" y="-119.5" font-family="Helvetica,sans-Serif" font-size="10.00">traffic_mngr.h</text>
</a>
</g>
</g>
<!-- Node6&#45;&gt;Node35 -->
<g id="edge56" class="edge"><title>Node6&#45;&gt;Node35</title>
<path fill="none" stroke="midnightblue" d="M1338.89,-331.683C1352.64,-324.136 1368.21,-313.486 1378.5,-300 1418.55,-247.534 1407.88,-159.842 1403.16,-131.863"/>
<polygon fill="midnightblue" stroke="midnightblue" points="1337.03,-328.706 1329.75,-336.408 1340.24,-334.923 1337.03,-328.706"/>
</g>
<!-- Node31 -->
<g id="node28" class="node"><title>Node31</title>
<g id="a_node28"><a xlink:href="queue_8h.html" target="_top" xlink:title="ODP queue. ">
<polygon fill="white" stroke="black" points="1425.5,-280.5 1425.5,-299.5 1481.5,-299.5 1481.5,-280.5 1425.5,-280.5"/>
<text text-anchor="middle" x="1453.5" y="-287.5" font-family="Helvetica,sans-Serif" font-size="10.00">queue.h</text>
</a>
</g>
</g>
<!-- Node6&#45;&gt;Node31 -->
<g id="edge32" class="edge"><title>Node6&#45;&gt;Node31</title>
<path fill="none" stroke="midnightblue" d="M1341.75,-332.906C1368.82,-322.754 1406.82,-308.506 1430.79,-299.516"/>
<polygon fill="midnightblue" stroke="midnightblue" points="1340.45,-329.655 1332.32,-336.444 1342.91,-336.209 1340.45,-329.655"/>
</g>
<!-- Node37 -->
<g id="node29" class="node"><title>Node37</title>
<g id="a_node29"><a xlink:href="spec_2schedule_8h.html" target="_top" xlink:title="ODP schedule. ">
<polygon fill="white" stroke="black" points="1519.5,-224.5 1519.5,-243.5 1587.5,-243.5 1587.5,-224.5 1519.5,-224.5"/>
<text text-anchor="middle" x="1553.5" y="-231.5" font-family="Helvetica,sans-Serif" font-size="10.00">schedule.h</text>
</a>
</g>
</g>
<!-- Node6&#45;&gt;Node37 -->
<g id="edge51" class="edge"><title>Node6&#45;&gt;Node37</title>
<path fill="none" stroke="midnightblue" d="M1355.78,-340.154C1410.7,-333.582 1498.05,-320.282 1523.5,-300 1541.58,-285.593 1549.22,-257.808 1552.05,-243.691"/>
<polygon fill="midnightblue" stroke="midnightblue" points="1355.12,-336.707 1345.59,-341.341 1355.93,-343.66 1355.12,-336.707"/>
</g>
<!-- Node41 -->
<g id="node31" class="node"><title>Node41</title>
<g id="a_node31"><a xlink:href="spec_2chksum_8h.html" target="_top" xlink:title="ODP checksum functions. ">
<polygon fill="white" stroke="black" points="1576,-280.5 1576,-299.5 1639,-299.5 1639,-280.5 1576,-280.5"/>
<text text-anchor="middle" x="1607.5" y="-287.5" font-family="Helvetica,sans-Serif" font-size="10.00">chksum.h</text>
</a>
</g>
</g>
<!-- Node6&#45;&gt;Node41 -->
<g id="edge37" class="edge"><title>Node6&#45;&gt;Node41</title>
<path fill="none" stroke="midnightblue" d="M1355.81,-336.966C1406.4,-328.136 1489.78,-313.419 1561.5,-300 1566.14,-299.132 1571.04,-298.195 1575.84,-297.266"/>
<polygon fill="midnightblue" stroke="midnightblue" points="1355.09,-333.539 1345.84,-338.705 1356.29,-340.435 1355.09,-333.539"/>
</g>
<!-- Node43 -->
<g id="node33" class="node"><title>Node43</title>
<g id="a_node33"><a xlink:href="spec_2cpu_8h.html" target="_top" xlink:title="ODP CPU API. ">
<polygon fill="white" stroke="black" points="1657,-280.5 1657,-299.5 1700,-299.5 1700,-280.5 1657,-280.5"/>
<text text-anchor="middle" x="1678.5" y="-287.5" font-family="Helvetica,sans-Serif" font-size="10.00">cpu.h</text>
</a>
</g>
</g>
<!-- Node6&#45;&gt;Node43 -->
<g id="edge39" class="edge"><title>Node6&#45;&gt;Node43</title>
<path fill="none" stroke="midnightblue" d="M1355.72,-341.219C1421.35,-335.32 1545.05,-322.234 1648.5,-300 1651.26,-299.406 1654.14,-298.682 1656.98,-297.905"/>
<polygon fill="midnightblue" stroke="midnightblue" points="1355.35,-337.738 1345.7,-342.105 1355.97,-344.711 1355.35,-337.738"/>
</g>
<!-- Node46 -->
<g id="node35" class="node"><title>Node46</title>
<g id="a_node35"><a xlink:href="spec_2feature_8h.html" target="_top" xlink:title="ODP features. ">
<polygon fill="white" stroke="black" points="1756.5,-280.5 1756.5,-299.5 1816.5,-299.5 1816.5,-280.5 1756.5,-280.5"/>
<text text-anchor="middle" x="1786.5" y="-287.5" font-family="Helvetica,sans-Serif" font-size="10.00">feature.h</text>
</a>
</g>
</g>
<!-- Node6&#45;&gt;Node46 -->
<g id="edge41" class="edge"><title>Node6&#45;&gt;Node46</title>
<path fill="none" stroke="midnightblue" d="M1355.73,-341.695C1435.13,-335.684 1602.38,-321.558 1742.5,-300 1746.97,-299.312 1751.67,-298.474 1756.27,-297.589"/>
<polygon fill="midnightblue" stroke="midnightblue" points="1355.29,-338.218 1345.58,-342.455 1355.81,-345.198 1355.29,-338.218"/>
</g>
<!-- Node48 -->
<g id="node37" class="node"><title>Node48</title>
<g id="a_node37"><a xlink:href="spec_2init_8h.html" target="_top" xlink:title="init.h">
<polygon fill="white" stroke="black" points="1767.5,-168.5 1767.5,-187.5 1807.5,-187.5 1807.5,-168.5 1767.5,-168.5"/>
<text text-anchor="middle" x="1787.5" y="-175.5" font-family="Helvetica,sans-Serif" font-size="10.00">init.h</text>
</a>
</g>
</g>
<!-- Node6&#45;&gt;Node48 -->
<g id="edge47" class="edge"><title>Node6&#45;&gt;Node48</title>
<path fill="none" stroke="midnightblue" d="M1355.94,-344.685C1448.35,-343.276 1651.39,-336.041 1709.5,-300 1753.47,-272.733 1777.33,-210.449 1784.85,-187.605"/>
<polygon fill="midnightblue" stroke="midnightblue" points="1355.72,-341.187 1345.76,-344.823 1355.81,-348.187 1355.72,-341.187"/>
</g>
<!-- Node52 -->
<g id="node39" class="node"><title>Node52</title>
<g id="a_node39"><a xlink:href="spec_2hash_8h.html" target="_top" xlink:title="ODP Hash functions. ">
<polygon fill="white" stroke="black" points="1835,-280.5 1835,-299.5 1884,-299.5 1884,-280.5 1835,-280.5"/>
<text text-anchor="middle" x="1859.5" y="-287.5" font-family="Helvetica,sans-Serif" font-size="10.00">hash.h</text>
</a>
</g>
</g>
<!-- Node6&#45;&gt;Node52 -->
<g id="edge45" class="edge"><title>Node6&#45;&gt;Node52</title>
<path fill="none" stroke="midnightblue" d="M1355.98,-343.62C1446.82,-340.334 1654.02,-329.945 1825.5,-300 1828.51,-299.475 1831.64,-298.811 1834.73,-298.084"/>
<polygon fill="midnightblue" stroke="midnightblue" points="1355.62,-340.13 1345.75,-343.977 1355.86,-347.126 1355.62,-340.13"/>
</g>
<!-- Node54 -->
<g id="node41" class="node"><title>Node54</title>
<g id="a_node41"><a xlink:href="spec_2pool_8h.html" target="_top" xlink:title="ODP pool. ">
<polygon fill="white" stroke="black" points="1902.5,-280.5 1902.5,-299.5 1948.5,-299.5 1948.5,-280.5 1902.5,-280.5"/>
<text text-anchor="middle" x="1925.5" y="-287.5" font-family="Helvetica,sans-Serif" font-size="10.00">pool.h</text>
</a>
</g>
</g>
<!-- Node6&#45;&gt;Node54 -->
<g id="edge49" class="edge"><title>Node6&#45;&gt;Node54</title>
<path fill="none" stroke="midnightblue" d="M1355.99,-344.52C1455.41,-342.817 1695.7,-335.082 1893.5,-300 1896.34,-299.496 1899.29,-298.846 1902.2,-298.125"/>
<polygon fill="midnightblue" stroke="midnightblue" points="1355.64,-341.025 1345.7,-344.683 1355.75,-348.024 1355.64,-341.025"/>
</g>
<!-- Node57 -->
<g id="node43" class="node"><title>Node57</title>
<g id="a_node43"><a xlink:href="spec_2stash_8h.html" target="_top" xlink:title="ODP stash. ">
<polygon fill="white" stroke="black" points="1966.5,-280.5 1966.5,-299.5 2018.5,-299.5 2018.5,-280.5 1966.5,-280.5"/>
<text text-anchor="middle" x="1992.5" y="-287.5" font-family="Helvetica,sans-Serif" font-size="10.00">stash.h</text>
</a>
</g>
</g>
<!-- Node6&#45;&gt;Node57 -->
<g id="edge52" class="edge"><title>Node6&#45;&gt;Node57</title>
<path fill="none" stroke="midnightblue" d="M1355.69,-344.674C1462.39,-343.294 1733.95,-336.193 1957.5,-300 1960.35,-299.539 1963.3,-298.953 1966.24,-298.301"/>
<polygon fill="midnightblue" stroke="midnightblue" points="1355.55,-341.175 1345.59,-344.793 1355.63,-348.175 1355.55,-341.175"/>
</g>
<!-- Node59 -->
<g id="node45" class="node"><title>Node59</title>
<g id="a_node45"><a xlink:href="spec_2threshold_8h.html" target="_top" xlink:title="ODP threshold descriptor. ">
<polygon fill="white" stroke="red" points="2037,-280.5 2037,-299.5 2108,-299.5 2108,-280.5 2037,-280.5"/>
<text text-anchor="middle" x="2072.5" y="-287.5" font-family="Helvetica,sans-Serif" font-size="10.00">threshold.h</text>
</a>
</g>
</g>
<!-- Node6&#45;&gt;Node59 -->
<g id="edge54" class="edge"><title>Node6&#45;&gt;Node59</title>
<path fill="none" stroke="midnightblue" d="M1355.67,-344.26C1470,-341.962 1775.3,-332.97 2027.5,-300 2030.5,-299.608 2033.6,-299.133 2036.71,-298.61"/>
<polygon fill="midnightblue" stroke="midnightblue" points="1355.46,-340.764 1345.53,-344.457 1355.59,-347.762 1355.46,-340.764"/>
</g>
<!-- Node61 -->
<g id="node46" class="node"><title>Node61</title>
<g id="a_node46"><a xlink:href="spec_2thrmask_8h.html" target="_top" xlink:title="ODP thread masks. ">
<polygon fill="white" stroke="red" points="2126,-280.5 2126,-299.5 2191,-299.5 2191,-280.5 2126,-280.5"/>
<text text-anchor="middle" x="2158.5" y="-287.5" font-family="Helvetica,sans-Serif" font-size="10.00">thrmask.h</text>
</a>
</g>
</g>
<!-- Node6&#45;&gt;Node61 -->
<g id="edge55" class="edge"><title>Node6&#45;&gt;Node61</title>
<path fill="none" stroke="midnightblue" d="M1355.8,-345.012C1479.84,-344.487 1829.74,-339.338 2117.5,-300 2120.24,-299.625 2123.08,-299.163 2125.91,-298.648"/>
<polygon fill="midnightblue" stroke="midnightblue" points="1355.52,-341.513 1345.54,-345.047 1355.55,-348.513 1355.52,-341.513"/>
</g>
<!-- Node63 -->
<g id="node47" class="node"><title>Node63</title>
<g id="a_node47"><a xlink:href="system__info_8h.html" target="_top" xlink:title="ODP system information. ">
<polygon fill="white" stroke="black" points="2209,-280.5 2209,-299.5 2292,-299.5 2292,-280.5 2209,-280.5"/>
<text text-anchor="middle" x="2250.5" y="-287.5" font-family="Helvetica,sans-Serif" font-size="10.00">system_info.h</text>
</a>
</g>
</g>
<!-- Node6&#45;&gt;Node63 -->
<g id="edge57" class="edge"><title>Node6&#45;&gt;Node63</title>
<path fill="none" stroke="midnightblue" d="M1355.88,-344.741C1488.22,-343.553 1878.77,-336.928 2200.5,-300 2203.22,-299.688 2206.01,-299.32 2208.82,-298.914"/>
<polygon fill="midnightblue" stroke="midnightblue" points="1355.68,-341.242 1345.71,-344.826 1355.74,-348.242 1355.68,-341.242"/>
</g>
<!-- Node64 -->
<g id="node48" class="node"><title>Node64</title>
<g id="a_node48"><a xlink:href="time_8h.html" target="_top" xlink:title="ODP time. ">
<polygon fill="white" stroke="red" points="1322,-280.5 1322,-299.5 1369,-299.5 1369,-280.5 1322,-280.5"/>
<text text-anchor="middle" x="1345.5" y="-287.5" font-family="Helvetica,sans-Serif" font-size="10.00">time.h</text>
</a>
</g>
</g>
<!-- Node6&#45;&gt;Node64 -->
<g id="edge58" class="edge"><title>Node6&#45;&gt;Node64</title>
<path fill="none" stroke="midnightblue" d="M1321.12,-327.566C1327.32,-318.275 1334.67,-307.248 1339.67,-299.751"/>
<polygon fill="midnightblue" stroke="midnightblue" points="1318.08,-325.821 1315.44,-336.083 1323.9,-329.704 1318.08,-325.821"/>
</g>
<!-- Node66 -->
<g id="node49" class="node"><title>Node66</title>
<g id="a_node49"><a xlink:href="timer_8h.html" target="_top" xlink:title="ODP timer service. ">
<polygon fill="white" stroke="black" points="2310.5,-280.5 2310.5,-299.5 2360.5,-299.5 2360.5,-280.5 2310.5,-280.5"/>
<text text-anchor="middle" x="2335.5" y="-287.5" font-family="Helvetica,sans-Serif" font-size="10.00">timer.h</text>
</a>
</g>
</g>
<!-- Node6&#45;&gt;Node66 -->
<g id="edge60" class="edge"><title>Node6&#45;&gt;Node66</title>
<path fill="none" stroke="midnightblue" d="M1355.88,-344.209C1526.02,-341.103 2115.6,-328.487 2301.5,-300 2304.4,-299.556 2307.4,-298.962 2310.38,-298.29"/>
<polygon fill="midnightblue" stroke="midnightblue" points="1355.69,-340.712 1345.75,-344.392 1355.81,-347.711 1355.69,-340.712"/>
</g>
<!-- Node67 -->
<g id="node50" class="node"><title>Node67</title>
<g id="a_node50"><a xlink:href="strong__types_8h.html" target="_top" xlink:title="ODP Strong Types. ">
<polygon fill="white" stroke="black" points="2378.5,-280.5 2378.5,-299.5 2466.5,-299.5 2466.5,-280.5 2378.5,-280.5"/>
<text text-anchor="middle" x="2422.5" y="-287.5" font-family="Helvetica,sans-Serif" font-size="10.00">strong_types.h</text>
</a>
</g>
</g>
<!-- Node6&#45;&gt;Node67 -->
<g id="edge61" class="edge"><title>Node6&#45;&gt;Node67</title>
<path fill="none" stroke="midnightblue" d="M1355.87,-345.109C1504.02,-345.012 1979.09,-341.269 2369.5,-300 2372.38,-299.696 2375.33,-299.333 2378.31,-298.931"/>
<polygon fill="midnightblue" stroke="midnightblue" points="1355.77,-341.609 1345.77,-345.11 1355.77,-348.609 1355.77,-341.609"/>
</g>
<!-- Node21 -->
<g id="node16" class="node"><title>Node21</title>
<g id="a_node16"><a xlink:href="spec_2ipsec_8h.html" target="_top" xlink:title="ODP IPSEC API. ">
<polygon fill="white" stroke="red" points="1306.5,-0.5 1306.5,-19.5 1356.5,-19.5 1356.5,-0.5 1306.5,-0.5"/>
<text text-anchor="middle" x="1331.5" y="-7.5" font-family="Helvetica,sans-Serif" font-size="10.00">ipsec.h</text>
</a>
</g>
</g>
<!-- Node20&#45;&gt;Node21 -->
<g id="edge15" class="edge"><title>Node20&#45;&gt;Node21</title>
<path fill="none" stroke="midnightblue" d="M1280.09,-50.1008C1292.87,-40.3824 1309.11,-28.0269 1319.89,-19.8339"/>
<polygon fill="midnightblue" stroke="midnightblue" points="1277.75,-47.4844 1271.91,-56.324 1281.99,-53.0561 1277.75,-47.4844"/>
</g>
<!-- Node23&#45;&gt;Node21 -->
<g id="edge17" class="edge"><title>Node23&#45;&gt;Node21</title>
<path fill="none" stroke="midnightblue" d="M1469,-158.174C1466.5,-144.487 1461.66,-125.985 1452.5,-112 1424.47,-69.1933 1372.82,-35.0325 1347.02,-19.7274"/>
<polygon fill="midnightblue" stroke="midnightblue" points="1465.59,-158.995 1470.59,-168.333 1472.51,-157.912 1465.59,-158.995"/>
</g>
<!-- Node25 -->
<g id="node19" class="node"><title>Node25</title>
<g id="a_node19"><a xlink:href="spec_2comp_8h.html" target="_top" xlink:title="ODP Compression. ">
<polygon fill="white" stroke="red" points="1170,-224.5 1170,-243.5 1223,-243.5 1223,-224.5 1170,-224.5"/>
<text text-anchor="middle" x="1196.5" y="-231.5" font-family="Helvetica,sans-Serif" font-size="10.00">comp.h</text>
</a>
</g>
</g>
<!-- Node24&#45;&gt;Node25 -->
<g id="edge19" class="edge"><title>Node24&#45;&gt;Node25</title>
<path fill="none" stroke="midnightblue" d="M1253.73,-274.622C1239.48,-264.757 1221.04,-251.992 1209,-243.655"/>
<polygon fill="midnightblue" stroke="midnightblue" points="1251.75,-277.51 1261.97,-280.324 1255.74,-271.754 1251.75,-277.51"/>
</g>
<!-- Node27 -->
<g id="node20" class="node"><title>Node27</title>
<g id="a_node20"><a xlink:href="spec_2crypto_8h.html" target="_top" xlink:title="ODP crypto. ">
<polygon fill="white" stroke="black" points="1241.5,-224.5 1241.5,-243.5 1297.5,-243.5 1297.5,-224.5 1241.5,-224.5"/>
<text text-anchor="middle" x="1269.5" y="-231.5" font-family="Helvetica,sans-Serif" font-size="10.00">crypto.h</text>
</a>
</g>
</g>
<!-- Node24&#45;&gt;Node27 -->
<g id="edge20" class="edge"><title>Node24&#45;&gt;Node27</title>
<path fill="none" stroke="midnightblue" d="M1272.75,-270.101C1271.92,-261.136 1270.97,-250.858 1270.31,-243.751"/>
<polygon fill="midnightblue" stroke="midnightblue" points="1269.27,-270.448 1273.67,-280.083 1276.24,-269.803 1269.27,-270.448"/>
</g>
<!-- Node28 -->
<g id="node21" class="node"><title>Node28</title>
<g id="a_node21"><a xlink:href="spec_2event_8h.html" target="_top" xlink:title="ODP event. ">
<polygon fill="white" stroke="red" points="1099,-224.5 1099,-243.5 1152,-243.5 1152,-224.5 1099,-224.5"/>
<text text-anchor="middle" x="1125.5" y="-231.5" font-family="Helvetica,sans-Serif" font-size="10.00">event.h</text>
</a>
</g>
</g>
<!-- Node24&#45;&gt;Node28 -->
<g id="edge22" class="edge"><title>Node24&#45;&gt;Node28</title>
<path fill="none" stroke="midnightblue" d="M1241.13,-276.906C1213.12,-266.754 1173.8,-252.506 1149,-243.516"/>
<polygon fill="midnightblue" stroke="midnightblue" points="1240.3,-280.327 1250.89,-280.444 1242.68,-273.746 1240.3,-280.327"/>
</g>
<!-- Node24&#45;&gt;Node39 -->
<g id="edge23" class="edge"><title>Node24&#45;&gt;Node39</title>
<path fill="none" stroke="midnightblue" d="M1235.58,-280.133C1191.12,-270.002 1118.87,-253.539 1075,-243.545"/>
<polygon fill="midnightblue" stroke="midnightblue" points="1234.91,-283.569 1245.44,-282.379 1236.47,-276.744 1234.91,-283.569"/>
</g>
<!-- Node32 -->
<g id="node24" class="node"><title>Node32</title>
<g id="a_node24"><a xlink:href="spec_2packet__io_8h.html" target="_top" xlink:title="ODP Packet IO. ">
<polygon fill="white" stroke="black" points="1316,-224.5 1316,-243.5 1387,-243.5 1387,-224.5 1316,-224.5"/>
<text text-anchor="middle" x="1351.5" y="-231.5" font-family="Helvetica,sans-Serif" font-size="10.00">packet_io.h</text>
</a>
</g>
</g>
<!-- Node24&#45;&gt;Node32 -->
<g id="edge25" class="edge"><title>Node24&#45;&gt;Node32</title>
<path fill="none" stroke="midnightblue" d="M1295.4,-274.342C1309.41,-264.517 1327.38,-251.913 1339.16,-243.655"/>
<polygon fill="midnightblue" stroke="midnightblue" points="1293.05,-271.717 1286.87,-280.324 1297.07,-277.448 1293.05,-271.717"/>
</g>
<!-- Node27&#45;&gt;Node23 -->
<g id="edge21" class="edge"><title>Node27&#45;&gt;Node23</title>
<path fill="none" stroke="midnightblue" d="M1307.38,-222.873C1346.88,-212.313 1407.88,-196.007 1443.33,-186.532"/>
<polygon fill="midnightblue" stroke="midnightblue" points="1306.34,-219.528 1297.59,-225.492 1308.15,-226.29 1306.34,-219.528"/>
</g>
<!-- Node40 -->
<g id="node23" class="node"><title>Node40</title>
<g id="a_node23"><a xlink:href="packet__flags_8h.html" target="_top" xlink:title="ODP packet flags. ">
<polygon fill="white" stroke="black" points="994.5,-168.5 994.5,-187.5 1080.5,-187.5 1080.5,-168.5 994.5,-168.5"/>
<text text-anchor="middle" x="1037.5" y="-175.5" font-family="Helvetica,sans-Serif" font-size="10.00">packet_flags.h</text>
</a>
</g>
</g>
<!-- Node39&#45;&gt;Node40 -->
<g id="edge24" class="edge"><title>Node39&#45;&gt;Node40</title>
<path fill="none" stroke="midnightblue" d="M1037.5,-213.805C1037.5,-204.91 1037.5,-194.78 1037.5,-187.751"/>
<polygon fill="midnightblue" stroke="midnightblue" points="1034,-214.083 1037.5,-224.083 1041,-214.083 1034,-214.083"/>
</g>
<!-- Node32&#45;&gt;Node33 -->
<g id="edge26" class="edge"><title>Node32&#45;&gt;Node33</title>
<path fill="none" stroke="midnightblue" d="M1344.72,-214.69C1341.35,-205.589 1337.43,-195.014 1334.74,-187.751"/>
<polygon fill="midnightblue" stroke="midnightblue" points="1341.44,-215.921 1348.2,-224.083 1348.01,-213.49 1341.44,-215.921"/>
</g>
<!-- Node33&#45;&gt;Node21 -->
<g id="edge29" class="edge"><title>Node33&#45;&gt;Node21</title>
<path fill="none" stroke="midnightblue" d="M1331.5,-157.93C1331.5,-121.92 1331.5,-45.2312 1331.5,-19.5681"/>
<polygon fill="midnightblue" stroke="midnightblue" points="1328,-158.075 1331.5,-168.075 1335,-158.075 1328,-158.075"/>
</g>
<!-- Node34 -->
<g id="node26" class="node"><title>Node34</title>
<g id="a_node26"><a xlink:href="spec_2classification_8h.html" target="_top" xlink:title="ODP classification descriptor. ">
<polygon fill="white" stroke="black" points="1217.5,-112.5 1217.5,-131.5 1303.5,-131.5 1303.5,-112.5 1217.5,-112.5"/>
<text text-anchor="middle" x="1260.5" y="-119.5" font-family="Helvetica,sans-Serif" font-size="10.00">classification.h</text>
</a>
</g>
</g>
<!-- Node33&#45;&gt;Node34 -->
<g id="edge27" class="edge"><title>Node33&#45;&gt;Node34</title>
<path fill="none" stroke="midnightblue" d="M1311.91,-162.101C1299.13,-152.382 1282.89,-140.027 1272.11,-131.834"/>
<polygon fill="midnightblue" stroke="midnightblue" points="1310.01,-165.056 1320.09,-168.324 1314.25,-159.484 1310.01,-165.056"/>
</g>
<!-- Node33&#45;&gt;Node35 -->
<g id="edge30" class="edge"><title>Node33&#45;&gt;Node35</title>
<path fill="none" stroke="midnightblue" d="M1350.81,-162.101C1363.41,-152.382 1379.43,-140.027 1390.05,-131.834"/>
<polygon fill="midnightblue" stroke="midnightblue" points="1348.53,-159.445 1342.75,-168.324 1352.8,-164.987 1348.53,-159.445"/>
</g>
<!-- Node34&#45;&gt;Node20 -->
<g id="edge28" class="edge"><title>Node34&#45;&gt;Node20</title>
<path fill="none" stroke="midnightblue" d="M1260.5,-101.805C1260.5,-92.9102 1260.5,-82.7798 1260.5,-75.7511"/>
<polygon fill="midnightblue" stroke="midnightblue" points="1257,-102.083 1260.5,-112.083 1264,-102.083 1257,-102.083"/>
</g>
<!-- Node31&#45;&gt;Node23 -->
<g id="edge33" class="edge"><title>Node31&#45;&gt;Node23</title>
<path fill="none" stroke="midnightblue" d="M1456.55,-270.348C1460.49,-246.254 1467.2,-205.308 1470.09,-187.591"/>
<polygon fill="midnightblue" stroke="midnightblue" points="1453.07,-269.934 1454.91,-280.368 1459.98,-271.065 1453.07,-269.934"/>
</g>
<!-- Node31&#45;&gt;Node32 -->
<g id="edge34" class="edge"><title>Node31&#45;&gt;Node32</title>
<path fill="none" stroke="midnightblue" d="M1428.17,-275.59C1409.31,-265.605 1384.12,-252.267 1367.85,-243.655"/>
<polygon fill="midnightblue" stroke="midnightblue" points="1426.64,-278.738 1437.11,-280.324 1429.91,-272.552 1426.64,-278.738"/>
</g>
<!-- Node31&#45;&gt;Node37 -->
<g id="edge35" class="edge"><title>Node31&#45;&gt;Node37</title>
<path fill="none" stroke="midnightblue" d="M1478.59,-275.453C1497.05,-265.483 1521.6,-252.228 1537.47,-243.655"/>
<polygon fill="midnightblue" stroke="midnightblue" points="1476.7,-272.493 1469.57,-280.324 1480.03,-278.652 1476.7,-272.493"/>
</g>
<!-- Node38 -->
<g id="node30" class="node"><title>Node38</title>
<g id="a_node30"><a xlink:href="schedule_8h.html" target="_top" xlink:title="ODP schedule. ">
<polygon fill="white" stroke="black" points="1519.5,-168.5 1519.5,-187.5 1587.5,-187.5 1587.5,-168.5 1519.5,-168.5"/>
<text text-anchor="middle" x="1553.5" y="-175.5" font-family="Helvetica,sans-Serif" font-size="10.00">schedule.h</text>
</a>
</g>
</g>
<!-- Node37&#45;&gt;Node38 -->
<g id="edge36" class="edge"><title>Node37&#45;&gt;Node38</title>
<path fill="none" stroke="midnightblue" d="M1553.5,-213.805C1553.5,-204.91 1553.5,-194.78 1553.5,-187.751"/>
<polygon fill="midnightblue" stroke="midnightblue" points="1550,-214.083 1553.5,-224.083 1557,-214.083 1550,-214.083"/>
</g>
<!-- Node42 -->
<g id="node32" class="node"><title>Node42</title>
<g id="a_node32"><a xlink:href="chksum_8h.html" target="_top" xlink:title="ODP checksum functions. ">
<polygon fill="white" stroke="black" points="1606,-224.5 1606,-243.5 1669,-243.5 1669,-224.5 1606,-224.5"/>
<text text-anchor="middle" x="1637.5" y="-231.5" font-family="Helvetica,sans-Serif" font-size="10.00">chksum.h</text>
</a>
</g>
</g>
<!-- Node41&#45;&gt;Node42 -->
<g id="edge38" class="edge"><title>Node41&#45;&gt;Node42</title>
<path fill="none" stroke="midnightblue" d="M1617.35,-271.275C1622.47,-262.045 1628.52,-251.17 1632.64,-243.751"/>
<polygon fill="midnightblue" stroke="midnightblue" points="1614.25,-269.642 1612.45,-280.083 1620.37,-273.041 1614.25,-269.642"/>
</g>
<!-- Node44 -->
<g id="node34" class="node"><title>Node44</title>
<g id="a_node34"><a xlink:href="cpu_8h.html" target="_top" xlink:title="ODP CPU. ">
<polygon fill="white" stroke="red" points="1687,-224.5 1687,-243.5 1730,-243.5 1730,-224.5 1687,-224.5"/>
<text text-anchor="middle" x="1708.5" y="-231.5" font-family="Helvetica,sans-Serif" font-size="10.00">cpu.h</text>
</a>
</g>
</g>
<!-- Node43&#45;&gt;Node44 -->
<g id="edge40" class="edge"><title>Node43&#45;&gt;Node44</title>
<path fill="none" stroke="midnightblue" d="M1688.35,-271.275C1693.47,-262.045 1699.52,-251.17 1703.64,-243.751"/>
<polygon fill="midnightblue" stroke="midnightblue" points="1685.25,-269.642 1683.45,-280.083 1691.37,-273.041 1685.25,-269.642"/>
</g>
<!-- Node47 -->
<g id="node36" class="node"><title>Node47</title>
<g id="a_node36"><a xlink:href="feature_8h.html" target="_top" xlink:title="ODP features. ">
<polygon fill="white" stroke="black" points="1786.5,-224.5 1786.5,-243.5 1846.5,-243.5 1846.5,-224.5 1786.5,-224.5"/>
<text text-anchor="middle" x="1816.5" y="-231.5" font-family="Helvetica,sans-Serif" font-size="10.00">feature.h</text>
</a>
</g>
</g>
<!-- Node46&#45;&gt;Node47 -->
<g id="edge42" class="edge"><title>Node46&#45;&gt;Node47</title>
<path fill="none" stroke="midnightblue" d="M1796.35,-271.275C1801.47,-262.045 1807.52,-251.17 1811.64,-243.751"/>
<polygon fill="midnightblue" stroke="midnightblue" points="1793.25,-269.642 1791.45,-280.083 1799.37,-273.041 1793.25,-269.642"/>
</g>
<!-- Node47&#45;&gt;Node48 -->
<g id="edge43" class="edge"><title>Node47&#45;&gt;Node48</title>
<path fill="none" stroke="midnightblue" d="M1806.82,-214.983C1801.9,-205.817 1796.14,-195.092 1792.2,-187.751"/>
<polygon fill="midnightblue" stroke="midnightblue" points="1803.9,-216.929 1811.71,-224.083 1810.06,-213.617 1803.9,-216.929"/>
</g>
<!-- Node49 -->
<g id="node38" class="node"><title>Node49</title>
<g id="a_node38"><a xlink:href="init_8h.html" target="_top" xlink:title="ODP initialization. ">
<polygon fill="white" stroke="red" points="1767.5,-112.5 1767.5,-131.5 1807.5,-131.5 1807.5,-112.5 1767.5,-112.5"/>
<text text-anchor="middle" x="1787.5" y="-119.5" font-family="Helvetica,sans-Serif" font-size="10.00">init.h</text>
</a>
</g>
</g>
<!-- Node48&#45;&gt;Node49 -->
<g id="edge44" class="edge"><title>Node48&#45;&gt;Node49</title>
<path fill="none" stroke="midnightblue" d="M1787.5,-157.805C1787.5,-148.91 1787.5,-138.78 1787.5,-131.751"/>
<polygon fill="midnightblue" stroke="midnightblue" points="1784,-158.083 1787.5,-168.083 1791,-158.083 1784,-158.083"/>
</g>
<!-- Node53 -->
<g id="node40" class="node"><title>Node53</title>
<g id="a_node40"><a xlink:href="hash_8h.html" target="_top" xlink:title="ODP Hash function. ">
<polygon fill="white" stroke="black" points="1865,-224.5 1865,-243.5 1914,-243.5 1914,-224.5 1865,-224.5"/>
<text text-anchor="middle" x="1889.5" y="-231.5" font-family="Helvetica,sans-Serif" font-size="10.00">hash.h</text>
</a>
</g>
</g>
<!-- Node52&#45;&gt;Node53 -->
<g id="edge46" class="edge"><title>Node52&#45;&gt;Node53</title>
<path fill="none" stroke="midnightblue" d="M1869.35,-271.275C1874.47,-262.045 1880.52,-251.17 1884.64,-243.751"/>
<polygon fill="midnightblue" stroke="midnightblue" points="1866.25,-269.642 1864.45,-280.083 1872.37,-273.041 1866.25,-269.642"/>
</g>
<!-- Node55 -->
<g id="node42" class="node"><title>Node55</title>
<g id="a_node42"><a xlink:href="pool_8h.html" target="_top" xlink:title="ODP pool. ">
<polygon fill="white" stroke="red" points="1932.5,-224.5 1932.5,-243.5 1978.5,-243.5 1978.5,-224.5 1932.5,-224.5"/>
<text text-anchor="middle" x="1955.5" y="-231.5" font-family="Helvetica,sans-Serif" font-size="10.00">pool.h</text>
</a>
</g>
</g>
<!-- Node54&#45;&gt;Node55 -->
<g id="edge50" class="edge"><title>Node54&#45;&gt;Node55</title>
<path fill="none" stroke="midnightblue" d="M1935.35,-271.275C1940.47,-262.045 1946.52,-251.17 1950.64,-243.751"/>
<polygon fill="midnightblue" stroke="midnightblue" points="1932.25,-269.642 1930.45,-280.083 1938.37,-273.041 1932.25,-269.642"/>
</g>
<!-- Node58 -->
<g id="node44" class="node"><title>Node58</title>
<g id="a_node44"><a xlink:href="stash_8h.html" target="_top" xlink:title="ODP stash. ">
<polygon fill="white" stroke="black" points="1996.5,-224.5 1996.5,-243.5 2048.5,-243.5 2048.5,-224.5 1996.5,-224.5"/>
<text text-anchor="middle" x="2022.5" y="-231.5" font-family="Helvetica,sans-Serif" font-size="10.00">stash.h</text>
</a>
</g>
</g>
<!-- Node57&#45;&gt;Node58 -->
<g id="edge53" class="edge"><title>Node57&#45;&gt;Node58</title>
<path fill="none" stroke="midnightblue" d="M2002.35,-271.275C2007.47,-262.045 2013.52,-251.17 2017.64,-243.751"/>
<polygon fill="midnightblue" stroke="midnightblue" points="1999.25,-269.642 1997.45,-280.083 2005.37,-273.041 1999.25,-269.642"/>
</g>
<!-- Node64&#45;&gt;Node32 -->
<g id="edge59" class="edge"><title>Node64&#45;&gt;Node32</title>
<path fill="none" stroke="midnightblue" d="M1347.6,-270.101C1348.6,-261.136 1349.74,-250.858 1350.53,-243.751"/>
<polygon fill="midnightblue" stroke="midnightblue" points="1344.12,-269.758 1346.49,-280.083 1351.07,-270.531 1344.12,-269.758"/>
</g>
</g>
</svg>
