<?xml version="1.0" encoding="UTF-8" standalone="no"?>
<!DOCTYPE svg PUBLIC "-//W3C//DTD SVG 1.1//EN"
 "http://www.w3.org/Graphics/SVG/1.1/DTD/svg11.dtd">
<!-- Generated by graphviz version 2.38.0 (20140413.2041)
 -->
<!-- Title: odp_crypto_op_result Pages: 1 -->
<svg width="254pt" height="106pt"
 viewBox="0.00 0.00 254.00 106.00" xmlns="http://www.w3.org/2000/svg" xmlns:xlink="http://www.w3.org/1999/xlink">
<g id="graph0" class="graph" transform="scale(1 1) rotate(0) translate(4 102)">
<title>odp_crypto_op_result</title>
<polygon fill="white" stroke="none" points="-4,4 -4,-102 250,-102 250,4 -4,4"/>
<!-- Node1 -->
<g id="node1" class="node"><title>Node1</title>
<polygon fill="#bfbfbf" stroke="black" points="59.5,-0.5 59.5,-19.5 178.5,-19.5 178.5,-0.5 59.5,-0.5"/>
<text text-anchor="middle" x="119" y="-7.5" font-family="Helvetica,sans-Serif" font-size="10.00">odp_crypto_op_result</text>
</g>
<!-- Node2 -->
<g id="node2" class="node"><title>Node2</title>
<g id="a_node2"><a xlink:href="struct__odp__abi__packet__t.html" target="_top" xlink:title="_odp_abi_packet_t">
<polygon fill="white" stroke="black" points="0,-78.5 0,-97.5 106,-97.5 106,-78.5 0,-78.5"/>
<text text-anchor="middle" x="53" y="-85.5" font-family="Helvetica,sans-Serif" font-size="10.00">_odp_abi_packet_t</text>
</a>
</g>
</g>
<!-- Node2&#45;&gt;Node1 -->
<g id="edge1" class="edge"><title>Node2&#45;&gt;Node1</title>
<path fill="none" stroke="#9a32cd" stroke-dasharray="5,2" d="M67.3792,-70.4421C80.9703,-54.7918 100.826,-31.9282 111.517,-19.6165"/>
<polygon fill="#9a32cd" stroke="#9a32cd" points="64.4853,-68.4366 60.571,-78.2818 69.7706,-73.0264 64.4853,-68.4366"/>
<text text-anchor="middle" x="103.5" y="-46.5" font-family="Helvetica,sans-Serif" font-size="10.00"> pkt</text>
</g>
<!-- Node3 -->
<g id="node3" class="node"><title>Node3</title>
<g id="a_node3"><a xlink:href="structodp__crypto__op__status.html" target="_top" xlink:title="Cryto API per packet operation completion status. ">
<polygon fill="white" stroke="black" points="124,-78.5 124,-97.5 246,-97.5 246,-78.5 124,-78.5"/>
<text text-anchor="middle" x="185" y="-85.5" font-family="Helvetica,sans-Serif" font-size="10.00">odp_crypto_op_status</text>
</a>
</g>
</g>
<!-- Node3&#45;&gt;Node1 -->
<g id="edge2" class="edge"><title>Node3&#45;&gt;Node1</title>
<path fill="none" stroke="#9a32cd" stroke-dasharray="5,2" d="M170.621,-70.4421C157.03,-54.7918 137.174,-31.9282 126.483,-19.6165"/>
<polygon fill="#9a32cd" stroke="#9a32cd" points="168.229,-73.0264 177.429,-78.2818 173.515,-68.4366 168.229,-73.0264"/>
<text text-anchor="middle" x="193" y="-52" font-family="Helvetica,sans-Serif" font-size="10.00"> cipher_status</text>
<text text-anchor="middle" x="193" y="-41" font-family="Helvetica,sans-Serif" font-size="10.00">auth_status</text>
</g>
</g>
</svg>
