<?xml version="1.0" encoding="UTF-8" standalone="no"?>
<!DOCTYPE svg PUBLIC "-//W3C//DTD SVG 1.1//EN"
 "http://www.w3.org/Graphics/SVG/1.1/DTD/svg11.dtd">
<!-- Generated by graphviz version 2.38.0 (20140413.2041)
 -->
<!-- Title: odp_ipsec_capability_t Pages: 1 -->
<svg width="448pt" height="95pt"
 viewBox="0.00 0.00 447.50 95.00" xmlns="http://www.w3.org/2000/svg" xmlns:xlink="http://www.w3.org/1999/xlink">
<g id="graph0" class="graph" transform="scale(1 1) rotate(0) translate(4 91)">
<title>odp_ipsec_capability_t</title>
<polygon fill="white" stroke="none" points="-4,4 -4,-91 443.5,-91 443.5,4 -4,4"/>
<!-- Node1 -->
<g id="node1" class="node"><title>Node1</title>
<polygon fill="#bfbfbf" stroke="black" points="150,-0.5 150,-19.5 274,-19.5 274,-0.5 150,-0.5"/>
<text text-anchor="middle" x="212" y="-7.5" font-family="Helvetica,sans-Serif" font-size="10.00">odp_ipsec_capability_t</text>
</g>
<!-- Node2 -->
<g id="node2" class="node"><title>Node2</title>
<g id="a_node2"><a xlink:href="unionodp__proto__chksums__t.html" target="_top" xlink:title="Flags to control packet data checksum checking. ">
<polygon fill="white" stroke="black" points="0,-67.5 0,-86.5 122,-86.5 122,-67.5 0,-67.5"/>
<text text-anchor="middle" x="61" y="-74.5" font-family="Helvetica,sans-Serif" font-size="10.00">odp_proto_chksums_t</text>
</a>
</g>
</g>
<!-- Node2&#45;&gt;Node1 -->
<g id="edge1" class="edge"><title>Node2&#45;&gt;Node1</title>
<path fill="none" stroke="#9a32cd" stroke-dasharray="5,2" d="M89.67,-63.3695C106.614,-55.9317 128.503,-46.3704 148,-38 162.517,-31.7679 178.935,-24.8438 191.508,-19.5679"/>
<polygon fill="#9a32cd" stroke="#9a32cd" points="88.067,-60.2507 80.3202,-67.4783 90.8833,-66.6592 88.067,-60.2507"/>
<text text-anchor="middle" x="178" y="-41" font-family="Helvetica,sans-Serif" font-size="10.00"> chksums_in</text>
</g>
<!-- Node3 -->
<g id="node3" class="node"><title>Node3</title>
<g id="a_node3"><a xlink:href="unionodp__crypto__cipher__algos__t.html" target="_top" xlink:title="Cipher algorithms in a bit field structure. ">
<polygon fill="white" stroke="black" points="140,-67.5 140,-86.5 284,-86.5 284,-67.5 140,-67.5"/>
<text text-anchor="middle" x="212" y="-74.5" font-family="Helvetica,sans-Serif" font-size="10.00">odp_crypto_cipher_algos_t</text>
</a>
</g>
</g>
<!-- Node3&#45;&gt;Node1 -->
<g id="edge2" class="edge"><title>Node3&#45;&gt;Node1</title>
<path fill="none" stroke="#9a32cd" stroke-dasharray="5,2" d="M212,-57.037C212,-44.6703 212,-29.1198 212,-19.6273"/>
<polygon fill="#9a32cd" stroke="#9a32cd" points="208.5,-57.2338 212,-67.2338 215.5,-57.2338 208.5,-57.2338"/>
<text text-anchor="middle" x="231" y="-41" font-family="Helvetica,sans-Serif" font-size="10.00"> ciphers</text>
</g>
<!-- Node4 -->
<g id="node4" class="node"><title>Node4</title>
<g id="a_node4"><a xlink:href="unionodp__crypto__auth__algos__t.html" target="_top" xlink:title="Authentication algorithms in a bit field structure. ">
<polygon fill="white" stroke="black" points="302.5,-67.5 302.5,-86.5 439.5,-86.5 439.5,-67.5 302.5,-67.5"/>
<text text-anchor="middle" x="371" y="-74.5" font-family="Helvetica,sans-Serif" font-size="10.00">odp_crypto_auth_algos_t</text>
</a>
</g>
</g>
<!-- Node4&#45;&gt;Node1 -->
<g id="edge3" class="edge"><title>Node4&#45;&gt;Node1</title>
<path fill="none" stroke="#9a32cd" stroke-dasharray="5,2" d="M340.269,-63.4369C308.69,-50.5273 260.382,-30.7786 232.948,-19.5637"/>
<polygon fill="#9a32cd" stroke="#9a32cd" points="339.305,-66.8241 349.886,-67.3685 341.954,-60.3446 339.305,-66.8241"/>
<text text-anchor="middle" x="317.5" y="-41" font-family="Helvetica,sans-Serif" font-size="10.00"> auths</text>
</g>
</g>
</svg>
