<?xml version="1.0" encoding="UTF-8" standalone="no"?>
<!DOCTYPE svg PUBLIC "-//W3C//DTD SVG 1.1//EN"
 "http://www.w3.org/Graphics/SVG/1.1/DTD/svg11.dtd">
<!-- Generated by graphviz version 2.38.0 (20140413.2041)
 -->
<!-- Title: odp_pktio_config_t Pages: 1 -->
<svg width="448pt" height="95pt"
 viewBox="0.00 0.00 448.00 95.00" xmlns="http://www.w3.org/2000/svg" xmlns:xlink="http://www.w3.org/1999/xlink">
<g id="graph0" class="graph" transform="scale(1 1) rotate(0) translate(4 91)">
<title>odp_pktio_config_t</title>
<polygon fill="white" stroke="none" points="-4,4 -4,-91 444,-91 444,4 -4,4"/>
<!-- Node1 -->
<g id="node1" class="node"><title>Node1</title>
<polygon fill="#bfbfbf" stroke="black" points="171,-0.5 171,-19.5 277,-19.5 277,-0.5 171,-0.5"/>
<text text-anchor="middle" x="224" y="-7.5" font-family="Helvetica,sans-Serif" font-size="10.00">odp_pktio_config_t</text>
</g>
<!-- Node2 -->
<g id="node2" class="node"><title>Node2</title>
<g id="a_node2"><a xlink:href="structodp__pktio__parser__config__t.html" target="_top" xlink:title="Parser configuration. ">
<polygon fill="white" stroke="black" points="0,-67.5 0,-86.5 142,-86.5 142,-67.5 0,-67.5"/>
<text text-anchor="middle" x="71" y="-74.5" font-family="Helvetica,sans-Serif" font-size="10.00">odp_pktio_parser_config_t</text>
</a>
</g>
</g>
<!-- Node2&#45;&gt;Node1 -->
<g id="edge1" class="edge"><title>Node2&#45;&gt;Node1</title>
<path fill="none" stroke="#9a32cd" stroke-dasharray="5,2" d="M100.544,-63.4485C130.838,-50.5787 177.151,-30.9032 203.599,-19.6672"/>
<polygon fill="#9a32cd" stroke="#9a32cd" points="99.1525,-60.237 91.3172,-67.3685 101.89,-66.6797 99.1525,-60.237"/>
<text text-anchor="middle" x="174" y="-41" font-family="Helvetica,sans-Serif" font-size="10.00"> parser</text>
</g>
<!-- Node3 -->
<g id="node3" class="node"><title>Node3</title>
<g id="a_node3"><a xlink:href="unionodp__pktin__config__opt__t.html" target="_top" xlink:title="Packet input configuration options bit field. ">
<polygon fill="white" stroke="black" points="160.5,-67.5 160.5,-86.5 287.5,-86.5 287.5,-67.5 160.5,-67.5"/>
<text text-anchor="middle" x="224" y="-74.5" font-family="Helvetica,sans-Serif" font-size="10.00">odp_pktin_config_opt_t</text>
</a>
</g>
</g>
<!-- Node3&#45;&gt;Node1 -->
<g id="edge2" class="edge"><title>Node3&#45;&gt;Node1</title>
<path fill="none" stroke="#9a32cd" stroke-dasharray="5,2" d="M224,-57.037C224,-44.6703 224,-29.1198 224,-19.6273"/>
<polygon fill="#9a32cd" stroke="#9a32cd" points="220.5,-57.2338 224,-67.2338 227.5,-57.2338 220.5,-57.2338"/>
<text text-anchor="middle" x="237.5" y="-41" font-family="Helvetica,sans-Serif" font-size="10.00"> pktin</text>
</g>
<!-- Node4 -->
<g id="node4" class="node"><title>Node4</title>
<g id="a_node4"><a xlink:href="unionodp__pktout__config__opt__t.html" target="_top" xlink:title="Packet output configuration options bit field. ">
<polygon fill="white" stroke="black" points="306,-67.5 306,-86.5 440,-86.5 440,-67.5 306,-67.5"/>
<text text-anchor="middle" x="373" y="-74.5" font-family="Helvetica,sans-Serif" font-size="10.00">odp_pktout_config_opt_t</text>
</a>
</g>
</g>
<!-- Node4&#45;&gt;Node1 -->
<g id="edge3" class="edge"><title>Node4&#45;&gt;Node1</title>
<path fill="none" stroke="#9a32cd" stroke-dasharray="5,2" d="M343.844,-63.281C314.336,-50.4085 269.513,-30.8545 243.868,-19.6672"/>
<polygon fill="#9a32cd" stroke="#9a32cd" points="342.649,-66.578 353.214,-67.3685 345.448,-60.1619 342.649,-66.578"/>
<text text-anchor="middle" x="325" y="-41" font-family="Helvetica,sans-Serif" font-size="10.00"> pktout</text>
</g>
</g>
</svg>
