<?xml version="1.0" encoding="UTF-8" standalone="no"?>
<!DOCTYPE svg PUBLIC "-//W3C//DTD SVG 1.1//EN"
 "http://www.w3.org/Graphics/SVG/1.1/DTD/svg11.dtd">
<!-- Generated by graphviz version 2.38.0 (20140413.2041)
 -->
<!-- Title: odp_crypto_session_param_t Pages: 1 -->
<svg width="436pt" height="128pt"
 viewBox="0.00 0.00 436.00 128.00" xmlns="http://www.w3.org/2000/svg" xmlns:xlink="http://www.w3.org/1999/xlink">
<g id="graph0" class="graph" transform="scale(1 1) rotate(0) translate(4 124)">
<title>odp_crypto_session_param_t</title>
<polygon fill="white" stroke="none" points="-4,4 -4,-124 432,-124 432,4 -4,4"/>
<!-- Node1 -->
<g id="node1" class="node"><title>Node1</title>
<polygon fill="#bfbfbf" stroke="black" points="164.5,-0.5 164.5,-30.5 275.5,-30.5 275.5,-0.5 164.5,-0.5"/>
<text text-anchor="start" x="172.5" y="-18.5" font-family="Helvetica,sans-Serif" font-size="10.00">odp_crypto_session</text>
<text text-anchor="middle" x="220" y="-7.5" font-family="Helvetica,sans-Serif" font-size="10.00">_param_t</text>
</g>
<!-- Node2 -->
<g id="node2" class="node"><title>Node2</title>
<g id="a_node2"><a xlink:href="struct__odp__abi__pool__t.html" target="_top" xlink:title="_odp_abi_pool_t">
<polygon fill="white" stroke="black" points="0,-100.5 0,-119.5 94,-119.5 94,-100.5 0,-100.5"/>
<text text-anchor="middle" x="47" y="-107.5" font-family="Helvetica,sans-Serif" font-size="10.00">_odp_abi_pool_t</text>
</a>
</g>
</g>
<!-- Node2&#45;&gt;Node1 -->
<g id="edge1" class="edge"><title>Node2&#45;&gt;Node1</title>
<path fill="none" stroke="#9a32cd" stroke-dasharray="5,2" d="M59.7076,-92.2398C70.7998,-78.7183 88.0542,-60.1701 107,-49 124.409,-38.7361 145.252,-31.5503 164.27,-26.5968"/>
<polygon fill="#9a32cd" stroke="#9a32cd" points="56.8128,-90.2577 53.3524,-100.271 62.3023,-94.6012 56.8128,-90.2577"/>
<text text-anchor="middle" x="137.5" y="-63" font-family="Helvetica,sans-Serif" font-size="10.00"> output_pool</text>
</g>
<!-- Node3 -->
<g id="node3" class="node"><title>Node3</title>
<g id="a_node3"><a xlink:href="struct__odp__abi__queue__t.html" target="_top" xlink:title="_odp_abi_queue_t">
<polygon fill="white" stroke="black" points="112,-100.5 112,-119.5 216,-119.5 216,-100.5 112,-100.5"/>
<text text-anchor="middle" x="164" y="-107.5" font-family="Helvetica,sans-Serif" font-size="10.00">_odp_abi_queue_t</text>
</a>
</g>
</g>
<!-- Node3&#45;&gt;Node1 -->
<g id="edge2" class="edge"><title>Node3&#45;&gt;Node1</title>
<path fill="none" stroke="#9a32cd" stroke-dasharray="5,2" d="M168.393,-90.5844C171.903,-78.1659 177.633,-61.779 186,-49 190.383,-42.305 196.393,-35.9731 202.142,-30.7075"/>
<polygon fill="#9a32cd" stroke="#9a32cd" points="165,-89.7265 165.87,-100.286 171.774,-91.4886 165,-89.7265"/>
<text text-anchor="middle" x="220" y="-63" font-family="Helvetica,sans-Serif" font-size="10.00"> compl_queue</text>
</g>
<!-- Node4 -->
<g id="node4" class="node"><title>Node4</title>
<g id="a_node4"><a xlink:href="structodp__crypto__iv.html" target="_top" xlink:title="Crypto API IV structure. ">
<polygon fill="white" stroke="black" points="234.5,-100.5 234.5,-119.5 317.5,-119.5 317.5,-100.5 234.5,-100.5"/>
<text text-anchor="middle" x="276" y="-107.5" font-family="Helvetica,sans-Serif" font-size="10.00">odp_crypto_iv</text>
</a>
</g>
</g>
<!-- Node4&#45;&gt;Node1 -->
<g id="edge3" class="edge"><title>Node4&#45;&gt;Node1</title>
<path fill="none" stroke="#9a32cd" stroke-dasharray="5,2" d="M271.607,-90.5844C268.097,-78.1659 262.367,-61.779 254,-49 249.617,-42.305 243.607,-35.9731 237.858,-30.7075"/>
<polygon fill="#9a32cd" stroke="#9a32cd" points="268.226,-91.4886 274.13,-100.286 275,-89.7265 268.226,-91.4886"/>
<text text-anchor="middle" x="292" y="-74" font-family="Helvetica,sans-Serif" font-size="10.00"> cipher_iv</text>
<text text-anchor="middle" x="292" y="-63" font-family="Helvetica,sans-Serif" font-size="10.00">iv</text>
<text text-anchor="middle" x="292" y="-52" font-family="Helvetica,sans-Serif" font-size="10.00">auth_iv</text>
</g>
<!-- Node5 -->
<g id="node5" class="node"><title>Node5</title>
<g id="a_node5"><a xlink:href="structodp__crypto__key.html" target="_top" xlink:title="Crypto API key structure. ">
<polygon fill="white" stroke="black" points="336,-100.5 336,-119.5 428,-119.5 428,-100.5 336,-100.5"/>
<text text-anchor="middle" x="382" y="-107.5" font-family="Helvetica,sans-Serif" font-size="10.00">odp_crypto_key</text>
</a>
</g>
</g>
<!-- Node5&#45;&gt;Node1 -->
<g id="edge4" class="edge"><title>Node5&#45;&gt;Node1</title>
<path fill="none" stroke="#9a32cd" stroke-dasharray="5,2" d="M368.375,-92.4516C356.559,-79.0571 338.352,-60.5765 319,-49 305.727,-41.0598 290.277,-34.7981 275.584,-29.9795"/>
<polygon fill="#9a32cd" stroke="#9a32cd" points="366.007,-95.0678 375.165,-100.396 371.328,-90.5198 366.007,-95.0678"/>
<text text-anchor="middle" x="385" y="-68.5" font-family="Helvetica,sans-Serif" font-size="10.00"> auth_key</text>
<text text-anchor="middle" x="385" y="-57.5" font-family="Helvetica,sans-Serif" font-size="10.00">cipher_key</text>
</g>
</g>
</svg>
