<?xml version="1.0" encoding="UTF-8" standalone="no"?>
<!DOCTYPE svg PUBLIC "-//W3C//DTD SVG 1.1//EN"
 "http://www.w3.org/Graphics/SVG/1.1/DTD/svg11.dtd">
<!-- Generated by graphviz version 2.38.0 (20140413.2041)
 -->
<!-- Title: odp_crypto_op_param_t Pages: 1 -->
<svg width="264pt" height="106pt"
 viewBox="0.00 0.00 264.00 106.00" xmlns="http://www.w3.org/2000/svg" xmlns:xlink="http://www.w3.org/1999/xlink">
<g id="graph0" class="graph" transform="scale(1 1) rotate(0) translate(4 102)">
<title>odp_crypto_op_param_t</title>
<polygon fill="white" stroke="none" points="-4,4 -4,-102 260,-102 260,4 -4,4"/>
<!-- Node1 -->
<g id="node1" class="node"><title>Node1</title>
<polygon fill="#bfbfbf" stroke="black" points="54.5,-0.5 54.5,-19.5 187.5,-19.5 187.5,-0.5 54.5,-0.5"/>
<text text-anchor="middle" x="121" y="-7.5" font-family="Helvetica,sans-Serif" font-size="10.00">odp_crypto_op_param_t</text>
</g>
<!-- Node2 -->
<g id="node2" class="node"><title>Node2</title>
<g id="a_node2"><a xlink:href="struct__odp__abi__packet__t.html" target="_top" xlink:title="_odp_abi_packet_t">
<polygon fill="white" stroke="black" points="0,-78.5 0,-97.5 106,-97.5 106,-78.5 0,-78.5"/>
<text text-anchor="middle" x="53" y="-85.5" font-family="Helvetica,sans-Serif" font-size="10.00">_odp_abi_packet_t</text>
</a>
</g>
</g>
<!-- Node2&#45;&gt;Node1 -->
<g id="edge1" class="edge"><title>Node2&#45;&gt;Node1</title>
<path fill="none" stroke="#9a32cd" stroke-dasharray="5,2" d="M67.8149,-70.4421C81.8179,-54.7918 102.275,-31.9282 113.291,-19.6165"/>
<polygon fill="#9a32cd" stroke="#9a32cd" points="64.8601,-68.4956 60.8005,-78.2818 70.0768,-73.1632 64.8601,-68.4956"/>
<text text-anchor="middle" x="114.5" y="-52" font-family="Helvetica,sans-Serif" font-size="10.00"> pkt</text>
<text text-anchor="middle" x="114.5" y="-41" font-family="Helvetica,sans-Serif" font-size="10.00">out_pkt</text>
</g>
<!-- Node3 -->
<g id="node3" class="node"><title>Node3</title>
<g id="a_node3"><a xlink:href="structodp__packet__data__range.html" target="_top" xlink:title="Packet API data range specifier. ">
<polygon fill="white" stroke="black" points="124,-78.5 124,-97.5 256,-97.5 256,-78.5 124,-78.5"/>
<text text-anchor="middle" x="190" y="-85.5" font-family="Helvetica,sans-Serif" font-size="10.00">odp_packet_data_range</text>
</a>
</g>
</g>
<!-- Node3&#45;&gt;Node1 -->
<g id="edge2" class="edge"><title>Node3&#45;&gt;Node1</title>
<path fill="none" stroke="#9a32cd" stroke-dasharray="5,2" d="M175.36,-70.875C161.144,-55.2161 140.104,-32.0422 128.823,-19.6165"/>
<polygon fill="#9a32cd" stroke="#9a32cd" points="172.772,-73.2307 182.085,-78.2818 177.954,-68.5253 172.772,-73.2307"/>
<text text-anchor="middle" x="196" y="-52" font-family="Helvetica,sans-Serif" font-size="10.00"> cipher_range</text>
<text text-anchor="middle" x="196" y="-41" font-family="Helvetica,sans-Serif" font-size="10.00">auth_range</text>
</g>
</g>
</svg>
