<?xml version="1.0" encoding="UTF-8" standalone="no"?>
<!DOCTYPE svg PUBLIC "-//W3C//DTD SVG 1.1//EN"
 "http://www.w3.org/Graphics/SVG/1.1/DTD/svg11.dtd">
<!-- Generated by graphviz version 2.38.0 (20140413.2041)
 -->
<!-- Title: odp_tm_requirements_t Pages: 1 -->
<svg width="167pt" height="95pt"
 viewBox="0.00 0.00 167.00 95.00" xmlns="http://www.w3.org/2000/svg" xmlns:xlink="http://www.w3.org/1999/xlink">
<g id="graph0" class="graph" transform="scale(1 1) rotate(0) translate(4 91)">
<title>odp_tm_requirements_t</title>
<polygon fill="white" stroke="none" points="-4,4 -4,-91 163,-91 163,4 -4,4"/>
<!-- Node1 -->
<g id="node1" class="node"><title>Node1</title>
<polygon fill="#bfbfbf" stroke="black" points="13.5,-0.5 13.5,-19.5 145.5,-19.5 145.5,-0.5 13.5,-0.5"/>
<text text-anchor="middle" x="79.5" y="-7.5" font-family="Helvetica,sans-Serif" font-size="10.00">odp_tm_requirements_t</text>
</g>
<!-- Node2 -->
<g id="node2" class="node"><title>Node2</title>
<g id="a_node2"><a xlink:href="structodp__tm__level__requirements__t.html" target="_top" xlink:title="Per Level Requirements. ">
<polygon fill="white" stroke="black" points="-1.42109e-14,-67.5 -1.42109e-14,-86.5 159,-86.5 159,-67.5 -1.42109e-14,-67.5"/>
<text text-anchor="middle" x="79.5" y="-74.5" font-family="Helvetica,sans-Serif" font-size="10.00">odp_tm_level_requirements_t</text>
</a>
</g>
</g>
<!-- Node2&#45;&gt;Node1 -->
<g id="edge1" class="edge"><title>Node2&#45;&gt;Node1</title>
<path fill="none" stroke="#9a32cd" stroke-dasharray="5,2" d="M79.5,-57.037C79.5,-44.6703 79.5,-29.1198 79.5,-19.6273"/>
<polygon fill="#9a32cd" stroke="#9a32cd" points="76.0001,-57.2338 79.5,-67.2338 83.0001,-57.2338 76.0001,-57.2338"/>
<text text-anchor="middle" x="102.5" y="-41" font-family="Helvetica,sans-Serif" font-size="10.00"> per_level</text>
</g>
</g>
</svg>
