<?xml version="1.0" encoding="UTF-8" standalone="no"?>
<!DOCTYPE svg PUBLIC "-//W3C//DTD SVG 1.1//EN"
 "http://www.w3.org/Graphics/SVG/1.1/DTD/svg11.dtd">
<!-- Generated by graphviz version 2.38.0 (20140413.2041)
 -->
<!-- Title: odp_ipsec_packet_result_t Pages: 1 -->
<svg width="447pt" height="162pt"
 viewBox="0.00 0.00 446.50 162.00" xmlns="http://www.w3.org/2000/svg" xmlns:xlink="http://www.w3.org/1999/xlink">
<g id="graph0" class="graph" transform="scale(1 1) rotate(0) translate(4 158)">
<title>odp_ipsec_packet_result_t</title>
<polygon fill="white" stroke="none" points="-4,4 -4,-158 442.5,-158 442.5,4 -4,4"/>
<!-- Node1 -->
<g id="node1" class="node"><title>Node1</title>
<polygon fill="#bfbfbf" stroke="black" points="117,-0.5 117,-19.5 260,-19.5 260,-0.5 117,-0.5"/>
<text text-anchor="middle" x="188.5" y="-7.5" font-family="Helvetica,sans-Serif" font-size="10.00">odp_ipsec_packet_result_t</text>
</g>
<!-- Node2 -->
<g id="node2" class="node"><title>Node2</title>
<g id="a_node2"><a xlink:href="structodp__ipsec__op__flag__t.html" target="_top" xlink:title="IPSEC operation flags. ">
<polygon fill="white" stroke="black" points="0,-67.5 0,-86.5 113,-86.5 113,-67.5 0,-67.5"/>
<text text-anchor="middle" x="56.5" y="-74.5" font-family="Helvetica,sans-Serif" font-size="10.00">odp_ipsec_op_flag_t</text>
</a>
</g>
</g>
<!-- Node2&#45;&gt;Node1 -->
<g id="edge1" class="edge"><title>Node2&#45;&gt;Node1</title>
<path fill="none" stroke="#9a32cd" stroke-dasharray="5,2" d="M83.0144,-62.9436C109.16,-50.0691 148.378,-30.7573 170.899,-19.6672"/>
<polygon fill="#9a32cd" stroke="#9a32cd" points="81.4537,-59.8108 74.0286,-67.3685 84.5461,-66.0907 81.4537,-59.8108"/>
<text text-anchor="middle" x="141" y="-41" font-family="Helvetica,sans-Serif" font-size="10.00"> flag</text>
</g>
<!-- Node3 -->
<g id="node3" class="node"><title>Node3</title>
<g id="a_node3"><a xlink:href="struct__odp__abi__ipsec__sa__t.html" target="_top" xlink:title="_odp_abi_ipsec_sa_t">
<polygon fill="white" stroke="black" points="131,-67.5 131,-86.5 246,-86.5 246,-67.5 131,-67.5"/>
<text text-anchor="middle" x="188.5" y="-74.5" font-family="Helvetica,sans-Serif" font-size="10.00">_odp_abi_ipsec_sa_t</text>
</a>
</g>
</g>
<!-- Node3&#45;&gt;Node1 -->
<g id="edge2" class="edge"><title>Node3&#45;&gt;Node1</title>
<path fill="none" stroke="#9a32cd" stroke-dasharray="5,2" d="M188.5,-57.037C188.5,-44.6703 188.5,-29.1198 188.5,-19.6273"/>
<polygon fill="#9a32cd" stroke="#9a32cd" points="185,-57.2338 188.5,-67.2338 192,-57.2338 185,-57.2338"/>
<text text-anchor="middle" x="196" y="-41" font-family="Helvetica,sans-Serif" font-size="10.00"> sa</text>
</g>
<!-- Node4 -->
<g id="node4" class="node"><title>Node4</title>
<g id="a_node4"><a xlink:href="structodp__ipsec__op__status__t.html" target="_top" xlink:title="IPSEC operation status. ">
<polygon fill="white" stroke="black" points="264.5,-67.5 264.5,-86.5 390.5,-86.5 390.5,-67.5 264.5,-67.5"/>
<text text-anchor="middle" x="327.5" y="-74.5" font-family="Helvetica,sans-Serif" font-size="10.00">odp_ipsec_op_status_t</text>
</a>
</g>
</g>
<!-- Node4&#45;&gt;Node1 -->
<g id="edge3" class="edge"><title>Node4&#45;&gt;Node1</title>
<path fill="none" stroke="#9a32cd" stroke-dasharray="5,2" d="M299.941,-63.1127C272.41,-50.2387 230.854,-30.8059 207.034,-19.6672"/>
<polygon fill="#9a32cd" stroke="#9a32cd" points="298.501,-66.3029 309.042,-67.3685 301.466,-59.962 298.501,-66.3029"/>
<text text-anchor="middle" x="282.5" y="-41" font-family="Helvetica,sans-Serif" font-size="10.00"> status</text>
</g>
<!-- Node5 -->
<g id="node5" class="node"><title>Node5</title>
<g id="a_node5"><a xlink:href="structodp__ipsec__warn__t.html" target="_top" xlink:title="IPSEC warnings. ">
<polygon fill="white" stroke="black" points="217,-134.5 217,-153.5 318,-153.5 318,-134.5 217,-134.5"/>
<text text-anchor="middle" x="267.5" y="-141.5" font-family="Helvetica,sans-Serif" font-size="10.00">odp_ipsec_warn_t</text>
</a>
</g>
</g>
<!-- Node5&#45;&gt;Node4 -->
<g id="edge4" class="edge"><title>Node5&#45;&gt;Node4</title>
<path fill="none" stroke="#9a32cd" stroke-dasharray="5,2" d="M282.606,-126.635C294.341,-113.923 310.148,-96.7978 319.536,-86.6273"/>
<polygon fill="#9a32cd" stroke="#9a32cd" points="279.803,-124.512 275.592,-134.234 284.947,-129.26 279.803,-124.512"/>
<text text-anchor="middle" x="313.5" y="-108" font-family="Helvetica,sans-Serif" font-size="10.00"> warn</text>
</g>
<!-- Node6 -->
<g id="node6" class="node"><title>Node6</title>
<g id="a_node6"><a xlink:href="structodp__ipsec__error__t.html" target="_top" xlink:title="IPSEC errors. ">
<polygon fill="white" stroke="black" points="336.5,-134.5 336.5,-153.5 438.5,-153.5 438.5,-134.5 336.5,-134.5"/>
<text text-anchor="middle" x="387.5" y="-141.5" font-family="Helvetica,sans-Serif" font-size="10.00">odp_ipsec_error_t</text>
</a>
</g>
</g>
<!-- Node6&#45;&gt;Node4 -->
<g id="edge5" class="edge"><title>Node6&#45;&gt;Node4</title>
<path fill="none" stroke="#9a32cd" stroke-dasharray="5,2" d="M372.394,-126.635C360.659,-113.923 344.852,-96.7978 335.464,-86.6273"/>
<polygon fill="#9a32cd" stroke="#9a32cd" points="370.053,-129.26 379.408,-134.234 375.197,-124.512 370.053,-129.26"/>
<text text-anchor="middle" x="374" y="-108" font-family="Helvetica,sans-Serif" font-size="10.00"> error</text>
</g>
</g>
</svg>
