<?xml version="1.0" encoding="UTF-8" standalone="no"?>
<!DOCTYPE svg PUBLIC "-//W3C//DTD SVG 1.1//EN"
 "http://www.w3.org/Graphics/SVG/1.1/DTD/svg11.dtd">
<!-- Generated by graphviz version 2.38.0 (20140413.2041)
 -->
<!-- Title: odp_comp_session_param_t Pages: 1 -->
<svg width="267pt" height="162pt"
 viewBox="0.00 0.00 267.00 162.00" xmlns="http://www.w3.org/2000/svg" xmlns:xlink="http://www.w3.org/1999/xlink">
<g id="graph0" class="graph" transform="scale(1 1) rotate(0) translate(4 158)">
<title>odp_comp_session_param_t</title>
<polygon fill="white" stroke="none" points="-4,4 -4,-158 263,-158 263,4 -4,4"/>
<!-- Node1 -->
<g id="node1" class="node"><title>Node1</title>
<polygon fill="#bfbfbf" stroke="black" points="91,-0.5 91,-19.5 245,-19.5 245,-0.5 91,-0.5"/>
<text text-anchor="middle" x="168" y="-7.5" font-family="Helvetica,sans-Serif" font-size="10.00">odp_comp_session_param_t</text>
</g>
<!-- Node2 -->
<g id="node2" class="node"><title>Node2</title>
<g id="a_node2"><a xlink:href="unionodp__comp__alg__param__t.html" target="_top" xlink:title="Compression algorithm specific parameters. ">
<polygon fill="white" stroke="black" points="5,-67.5 5,-86.5 137,-86.5 137,-67.5 5,-67.5"/>
<text text-anchor="middle" x="71" y="-74.5" font-family="Helvetica,sans-Serif" font-size="10.00">odp_comp_alg_param_t</text>
</a>
</g>
</g>
<!-- Node2&#45;&gt;Node1 -->
<g id="edge1" class="edge"><title>Node2&#45;&gt;Node1</title>
<path fill="none" stroke="#9a32cd" stroke-dasharray="5,2" d="M91.4937,-61.601C101.792,-54.4264 114.498,-45.6677 126,-38 135.377,-31.7495 146.061,-24.8845 154.306,-19.6411"/>
<polygon fill="#9a32cd" stroke="#9a32cd" points="89.3444,-58.8331 83.1535,-67.431 93.3549,-64.5703 89.3444,-58.8331"/>
<text text-anchor="middle" x="153.5" y="-41" font-family="Helvetica,sans-Serif" font-size="10.00"> alg_param</text>
</g>
<!-- Node3 -->
<g id="node3" class="node"><title>Node3</title>
<g id="a_node3"><a xlink:href="structodp__comp__deflate__param.html" target="_top" xlink:title="Compression DEFLATEe algorithm parameters. ">
<polygon fill="white" stroke="black" points="0,-134.5 0,-153.5 142,-153.5 142,-134.5 0,-134.5"/>
<text text-anchor="middle" x="71" y="-141.5" font-family="Helvetica,sans-Serif" font-size="10.00">odp_comp_deflate_param</text>
</a>
</g>
</g>
<!-- Node3&#45;&gt;Node2 -->
<g id="edge2" class="edge"><title>Node3&#45;&gt;Node2</title>
<path fill="none" stroke="#9a32cd" stroke-dasharray="5,2" d="M71,-124.037C71,-111.67 71,-96.1198 71,-86.6273"/>
<polygon fill="#9a32cd" stroke="#9a32cd" points="67.5001,-124.234 71,-134.234 74.5001,-124.234 67.5001,-124.234"/>
<text text-anchor="middle" x="89.5" y="-108" font-family="Helvetica,sans-Serif" font-size="10.00"> deflate</text>
</g>
<!-- Node4 -->
<g id="node4" class="node"><title>Node4</title>
<g id="a_node4"><a xlink:href="struct__odp__abi__queue__t.html" target="_top" xlink:title="_odp_abi_queue_t">
<polygon fill="white" stroke="black" points="155,-67.5 155,-86.5 259,-86.5 259,-67.5 155,-67.5"/>
<text text-anchor="middle" x="207" y="-74.5" font-family="Helvetica,sans-Serif" font-size="10.00">_odp_abi_queue_t</text>
</a>
</g>
</g>
<!-- Node4&#45;&gt;Node1 -->
<g id="edge3" class="edge"><title>Node4&#45;&gt;Node1</title>
<path fill="none" stroke="#9a32cd" stroke-dasharray="5,2" d="M196.521,-58.5347C188.97,-45.9499 179.104,-29.5072 173.176,-19.6273"/>
<polygon fill="#9a32cd" stroke="#9a32cd" points="193.594,-60.4596 201.74,-67.2338 199.597,-56.8581 193.594,-60.4596"/>
<text text-anchor="middle" x="223" y="-41" font-family="Helvetica,sans-Serif" font-size="10.00"> compl_queue</text>
</g>
</g>
</svg>
