<?xml version="1.0" encoding="UTF-8" standalone="no"?>
<!DOCTYPE svg PUBLIC "-//W3C//DTD SVG 1.1//EN"
 "http://www.w3.org/Graphics/SVG/1.1/DTD/svg11.dtd">
<!-- Generated by graphviz version 2.38.0 (20140413.2041)
 -->
<!-- Title: odp_ipsec_crypto_param_t Pages: 1 -->
<svg width="166pt" height="128pt"
 viewBox="0.00 0.00 166.00 128.00" xmlns="http://www.w3.org/2000/svg" xmlns:xlink="http://www.w3.org/1999/xlink">
<g id="graph0" class="graph" transform="scale(1 1) rotate(0) translate(4 124)">
<title>odp_ipsec_crypto_param_t</title>
<polygon fill="white" stroke="none" points="-4,4 -4,-124 162,-124 162,4 -4,4"/>
<!-- Node1 -->
<g id="node1" class="node"><title>Node1</title>
<polygon fill="#bfbfbf" stroke="black" points="0,-0.5 0,-19.5 146,-19.5 146,-0.5 0,-0.5"/>
<text text-anchor="middle" x="73" y="-7.5" font-family="Helvetica,sans-Serif" font-size="10.00">odp_ipsec_crypto_param_t</text>
</g>
<!-- Node2 -->
<g id="node2" class="node"><title>Node2</title>
<g id="a_node2"><a xlink:href="structodp__crypto__key.html" target="_top" xlink:title="Crypto API key structure. ">
<polygon fill="white" stroke="black" points="27,-100.5 27,-119.5 119,-119.5 119,-100.5 27,-100.5"/>
<text text-anchor="middle" x="73" y="-107.5" font-family="Helvetica,sans-Serif" font-size="10.00">odp_crypto_key</text>
</a>
</g>
</g>
<!-- Node2&#45;&gt;Node1 -->
<g id="edge1" class="edge"><title>Node2&#45;&gt;Node1</title>
<path fill="none" stroke="#9a32cd" stroke-dasharray="5,2" d="M73,-90.2203C73,-68.9514 73,-35.2197 73,-19.5374"/>
<polygon fill="#9a32cd" stroke="#9a32cd" points="69.5001,-90.3031 73,-100.303 76.5001,-90.3032 69.5001,-90.3031"/>
<text text-anchor="middle" x="115.5" y="-74" font-family="Helvetica,sans-Serif" font-size="10.00"> cipher_key_extra</text>
<text text-anchor="middle" x="115.5" y="-63" font-family="Helvetica,sans-Serif" font-size="10.00">auth_key</text>
<text text-anchor="middle" x="115.5" y="-52" font-family="Helvetica,sans-Serif" font-size="10.00">cipher_key</text>
<text text-anchor="middle" x="115.5" y="-41" font-family="Helvetica,sans-Serif" font-size="10.00">auth_key_extra</text>
</g>
</g>
</svg>
