<?xml version="1.0" encoding="UTF-8" standalone="no"?>
<!DOCTYPE svg PUBLIC "-//W3C//DTD SVG 1.1//EN"
 "http://www.w3.org/Graphics/SVG/1.1/DTD/svg11.dtd">
<!-- Generated by graphviz version 2.38.0 (20140413.2041)
 -->
<!-- Title: odp_ipsec_op_status_t Pages: 1 -->
<svg width="230pt" height="95pt"
 viewBox="0.00 0.00 229.50 95.00" xmlns="http://www.w3.org/2000/svg" xmlns:xlink="http://www.w3.org/1999/xlink">
<g id="graph0" class="graph" transform="scale(1 1) rotate(0) translate(4 91)">
<title>odp_ipsec_op_status_t</title>
<polygon fill="white" stroke="none" points="-4,4 -4,-91 225.5,-91 225.5,4 -4,4"/>
<!-- Node1 -->
<g id="node1" class="node"><title>Node1</title>
<polygon fill="#bfbfbf" stroke="black" points="47.5,-0.5 47.5,-19.5 173.5,-19.5 173.5,-0.5 47.5,-0.5"/>
<text text-anchor="middle" x="110.5" y="-7.5" font-family="Helvetica,sans-Serif" font-size="10.00">odp_ipsec_op_status_t</text>
</g>
<!-- Node2 -->
<g id="node2" class="node"><title>Node2</title>
<g id="a_node2"><a xlink:href="structodp__ipsec__warn__t.html" target="_top" xlink:title="IPSEC warnings. ">
<polygon fill="white" stroke="black" points="0,-67.5 0,-86.5 101,-86.5 101,-67.5 0,-67.5"/>
<text text-anchor="middle" x="50.5" y="-74.5" font-family="Helvetica,sans-Serif" font-size="10.00">odp_ipsec_warn_t</text>
</a>
</g>
</g>
<!-- Node2&#45;&gt;Node1 -->
<g id="edge1" class="edge"><title>Node2&#45;&gt;Node1</title>
<path fill="none" stroke="#9a32cd" stroke-dasharray="5,2" d="M65.6063,-59.6348C77.3405,-46.9228 93.1482,-29.7978 102.536,-19.6273"/>
<polygon fill="#9a32cd" stroke="#9a32cd" points="62.8029,-57.5118 58.5919,-67.2338 67.9465,-62.2597 62.8029,-57.5118"/>
<text text-anchor="middle" x="97.5" y="-41" font-family="Helvetica,sans-Serif" font-size="10.00"> warn</text>
</g>
<!-- Node3 -->
<g id="node3" class="node"><title>Node3</title>
<g id="a_node3"><a xlink:href="structodp__ipsec__error__t.html" target="_top" xlink:title="IPSEC errors. ">
<polygon fill="white" stroke="black" points="119.5,-67.5 119.5,-86.5 221.5,-86.5 221.5,-67.5 119.5,-67.5"/>
<text text-anchor="middle" x="170.5" y="-74.5" font-family="Helvetica,sans-Serif" font-size="10.00">odp_ipsec_error_t</text>
</a>
</g>
</g>
<!-- Node3&#45;&gt;Node1 -->
<g id="edge2" class="edge"><title>Node3&#45;&gt;Node1</title>
<path fill="none" stroke="#9a32cd" stroke-dasharray="5,2" d="M155.394,-59.6348C143.659,-46.9228 127.852,-29.7978 118.464,-19.6273"/>
<polygon fill="#9a32cd" stroke="#9a32cd" points="153.053,-62.2597 162.408,-67.2338 158.197,-57.5118 153.053,-62.2597"/>
<text text-anchor="middle" x="158" y="-41" font-family="Helvetica,sans-Serif" font-size="10.00"> error</text>
</g>
</g>
</svg>
