<?xml version="1.0" encoding="UTF-8" standalone="no"?>
<!DOCTYPE svg PUBLIC "-//W3C//DTD SVG 1.1//EN"
 "http://www.w3.org/Graphics/SVG/1.1/DTD/svg11.dtd">
<!-- Generated by graphviz version 2.38.0 (20140413.2041)
 -->
<!-- Title: sync.h Pages: 1 -->
<svg width="302pt" height="140pt"
 viewBox="0.00 0.00 302.00 140.00" xmlns="http://www.w3.org/2000/svg" xmlns:xlink="http://www.w3.org/1999/xlink">
<g id="graph0" class="graph" transform="scale(1 1) rotate(0) translate(4 136)">
<title>sync.h</title>
<polygon fill="white" stroke="none" points="-4,4 -4,-136 298,-136 298,4 -4,4"/>
<!-- Node0 -->
<g id="node1" class="node"><title>Node0</title>
<polygon fill="#bfbfbf" stroke="black" points="90,-112.5 90,-131.5 137,-131.5 137,-112.5 90,-112.5"/>
<text text-anchor="middle" x="113.5" y="-119.5" font-family="Helvetica,sans-Serif" font-size="10.00">sync.h</text>
</g>
<!-- Node1 -->
<g id="node2" class="node"><title>Node1</title>
<polygon fill="white" stroke="#bfbfbf" points="0,-56.5 0,-75.5 103,-75.5 103,-56.5 0,-56.5"/>
<text text-anchor="middle" x="51.5" y="-63.5" font-family="Helvetica,sans-Serif" font-size="10.00">odp/api/abi/sync.h</text>
</g>
<!-- Node0&#45;&gt;Node1 -->
<g id="edge1" class="edge"><title>Node0&#45;&gt;Node1</title>
<path fill="none" stroke="midnightblue" d="M103.539,-112.324C94.3734,-104.341 80.5628,-92.3128 69.4718,-82.6529"/>
<polygon fill="midnightblue" stroke="midnightblue" points="71.4822,-79.7624 61.6426,-75.8339 66.8847,-85.041 71.4822,-79.7624"/>
</g>
<!-- Node2 -->
<g id="node3" class="node"><title>Node2</title>
<g id="a_node3"><a xlink:href="spec_2sync_8h.html" target="_top" xlink:title="ODP memory barriers. ">
<polygon fill="white" stroke="black" points="121,-56.5 121,-75.5 232,-75.5 232,-56.5 121,-56.5"/>
<text text-anchor="middle" x="176.5" y="-63.5" font-family="Helvetica,sans-Serif" font-size="10.00">odp/api/spec/sync.h</text>
</a>
</g>
</g>
<!-- Node0&#45;&gt;Node2 -->
<g id="edge2" class="edge"><title>Node0&#45;&gt;Node2</title>
<path fill="none" stroke="midnightblue" d="M123.622,-112.324C133.026,-104.263 147.244,-92.0765 158.569,-82.3695"/>
<polygon fill="midnightblue" stroke="midnightblue" points="160.879,-84.9993 166.194,-75.8339 156.323,-79.6844 160.879,-84.9993"/>
</g>
<!-- Node3 -->
<g id="node4" class="node"><title>Node3</title>
<polygon fill="white" stroke="#bfbfbf" points="54,-0.5 54,-19.5 169,-19.5 169,-0.5 54,-0.5"/>
<text text-anchor="middle" x="111.5" y="-7.5" font-family="Helvetica,sans-Serif" font-size="10.00">odp/visibility_begin.h</text>
</g>
<!-- Node2&#45;&gt;Node3 -->
<g id="edge3" class="edge"><title>Node2&#45;&gt;Node3</title>
<path fill="none" stroke="midnightblue" d="M166.057,-56.324C156.354,-48.2631 141.685,-36.0765 130,-26.3695"/>
<polygon fill="midnightblue" stroke="midnightblue" points="132.062,-23.532 122.133,-19.8339 127.589,-28.9163 132.062,-23.532"/>
</g>
<!-- Node4 -->
<g id="node5" class="node"><title>Node4</title>
<polygon fill="white" stroke="#bfbfbf" points="187,-0.5 187,-19.5 294,-19.5 294,-0.5 187,-0.5"/>
<text text-anchor="middle" x="240.5" y="-7.5" font-family="Helvetica,sans-Serif" font-size="10.00">odp/visibility_end.h</text>
</g>
<!-- Node2&#45;&gt;Node4 -->
<g id="edge4" class="edge"><title>Node2&#45;&gt;Node4</title>
<path fill="none" stroke="midnightblue" d="M186.783,-56.324C196.336,-48.2631 210.78,-36.0765 222.284,-26.3695"/>
<polygon fill="midnightblue" stroke="midnightblue" points="224.644,-28.9577 230.03,-19.8339 220.13,-23.6076 224.644,-28.9577"/>
</g>
</g>
</svg>
