<?xml version="1.0" encoding="UTF-8" standalone="no"?>
<!DOCTYPE svg PUBLIC "-//W3C//DTD SVG 1.1//EN"
 "http://www.w3.org/Graphics/SVG/1.1/DTD/svg11.dtd">
<!-- Generated by graphviz version 2.38.0 (20140413.2041)
 -->
<!-- Title: system_info.h Pages: 1 -->
<svg width="424pt" height="207pt"
 viewBox="0.00 0.00 424.00 207.00" xmlns="http://www.w3.org/2000/svg" xmlns:xlink="http://www.w3.org/1999/xlink">
<g id="graph0" class="graph" transform="scale(1 1) rotate(0) translate(4 203)">
<title>system_info.h</title>
<polygon fill="white" stroke="none" points="-4,4 -4,-203 420,-203 420,4 -4,4"/>
<!-- Node0 -->
<g id="node1" class="node"><title>Node0</title>
<polygon fill="#bfbfbf" stroke="black" points="228.5,-179.5 228.5,-198.5 311.5,-198.5 311.5,-179.5 228.5,-179.5"/>
<text text-anchor="middle" x="270" y="-186.5" font-family="Helvetica,sans-Serif" font-size="10.00">system_info.h</text>
</g>
<!-- Node1 -->
<g id="node2" class="node"><title>Node1</title>
<g id="a_node2"><a xlink:href="std__types_8h.html" target="_top" xlink:title="Standard C language types and definitions for ODP. ">
<polygon fill="white" stroke="black" points="159,-123.5 159,-142.5 269,-142.5 269,-123.5 159,-123.5"/>
<text text-anchor="middle" x="214" y="-130.5" font-family="Helvetica,sans-Serif" font-size="10.00">odp/api/std_types.h</text>
</a>
</g>
</g>
<!-- Node0&#45;&gt;Node1 -->
<g id="edge1" class="edge"><title>Node0&#45;&gt;Node1</title>
<path fill="none" stroke="midnightblue" d="M261.003,-179.324C252.806,-171.42 240.494,-159.548 230.528,-149.938"/>
<polygon fill="midnightblue" stroke="midnightblue" points="232.789,-147.256 223.161,-142.834 227.93,-152.295 232.789,-147.256"/>
</g>
<!-- Node7 -->
<g id="node8" class="node"><title>Node7</title>
<g id="a_node8"><a xlink:href="spec_2system__info_8h.html" target="_top" xlink:title="ODP system information. ">
<polygon fill="white" stroke="black" points="300,-56.5 300,-86.5 416,-86.5 416,-56.5 300,-56.5"/>
<text text-anchor="start" x="308" y="-74.5" font-family="Helvetica,sans-Serif" font-size="10.00">odp/api/spec/system</text>
<text text-anchor="middle" x="358" y="-63.5" font-family="Helvetica,sans-Serif" font-size="10.00">_info.h</text>
</a>
</g>
</g>
<!-- Node0&#45;&gt;Node7 -->
<g id="edge7" class="edge"><title>Node0&#45;&gt;Node7</title>
<path fill="none" stroke="midnightblue" d="M276.614,-179.319C290.189,-161.502 321.562,-120.324 341.15,-94.615"/>
<polygon fill="midnightblue" stroke="midnightblue" points="344.022,-96.6208 347.299,-86.5453 338.454,-92.3785 344.022,-96.6208"/>
</g>
<!-- Node2 -->
<g id="node3" class="node"><title>Node2</title>
<polygon fill="white" stroke="#bfbfbf" points="0,-62 0,-81 128,-81 128,-62 0,-62"/>
<text text-anchor="middle" x="64" y="-69" font-family="Helvetica,sans-Serif" font-size="10.00">odp/api/abi/std_types.h</text>
</g>
<!-- Node1&#45;&gt;Node2 -->
<g id="edge2" class="edge"><title>Node1&#45;&gt;Node2</title>
<path fill="none" stroke="midnightblue" d="M192.509,-123.475C166.89,-113.313 123.89,-96.2564 94.7553,-84.6996"/>
<polygon fill="midnightblue" stroke="midnightblue" points="96.0374,-81.4429 85.4515,-81.0091 93.4564,-87.9497 96.0374,-81.4429"/>
</g>
<!-- Node3 -->
<g id="node4" class="node"><title>Node3</title>
<g id="a_node4"><a xlink:href="spec_2std__types_8h.html" target="_top" xlink:title="Standard C language types and definitions for ODP. ">
<polygon fill="white" stroke="black" points="146,-62 146,-81 282,-81 282,-62 146,-62"/>
<text text-anchor="middle" x="214" y="-69" font-family="Helvetica,sans-Serif" font-size="10.00">odp/api/spec/std_types.h</text>
</a>
</g>
</g>
<!-- Node1&#45;&gt;Node3 -->
<g id="edge3" class="edge"><title>Node1&#45;&gt;Node3</title>
<path fill="none" stroke="midnightblue" d="M214,-123.475C214,-115.08 214,-101.981 214,-91.1631"/>
<polygon fill="midnightblue" stroke="midnightblue" points="217.5,-91.0091 214,-81.0091 210.5,-91.0091 217.5,-91.0091"/>
</g>
<!-- Node4 -->
<g id="node5" class="node"><title>Node4</title>
<polygon fill="white" stroke="#bfbfbf" points="300.5,-0.5 300.5,-19.5 415.5,-19.5 415.5,-0.5 300.5,-0.5"/>
<text text-anchor="middle" x="358" y="-7.5" font-family="Helvetica,sans-Serif" font-size="10.00">odp/visibility_begin.h</text>
</g>
<!-- Node3&#45;&gt;Node4 -->
<g id="edge4" class="edge"><title>Node3&#45;&gt;Node4</title>
<path fill="none" stroke="midnightblue" d="M234.632,-61.9751C259.119,-51.8571 300.147,-34.9046 328.109,-23.3507"/>
<polygon fill="midnightblue" stroke="midnightblue" points="329.501,-26.5627 337.407,-19.5091 326.828,-20.0932 329.501,-26.5627"/>
</g>
<!-- Node5 -->
<g id="node6" class="node"><title>Node5</title>
<polygon fill="white" stroke="#bfbfbf" points="104.5,-0.5 104.5,-19.5 157.5,-19.5 157.5,-0.5 104.5,-0.5"/>
<text text-anchor="middle" x="131" y="-7.5" font-family="Helvetica,sans-Serif" font-size="10.00">stdint.h</text>
</g>
<!-- Node3&#45;&gt;Node5 -->
<g id="edge5" class="edge"><title>Node3&#45;&gt;Node5</title>
<path fill="none" stroke="midnightblue" d="M202.108,-61.9751C188.795,-52.4315 167,-36.8073 151.043,-25.3683"/>
<polygon fill="midnightblue" stroke="midnightblue" points="153.036,-22.4908 142.87,-19.5091 148.958,-28.18 153.036,-22.4908"/>
</g>
<!-- Node6 -->
<g id="node7" class="node"><title>Node6</title>
<polygon fill="white" stroke="#bfbfbf" points="175.5,-0.5 175.5,-19.5 282.5,-19.5 282.5,-0.5 175.5,-0.5"/>
<text text-anchor="middle" x="229" y="-7.5" font-family="Helvetica,sans-Serif" font-size="10.00">odp/visibility_end.h</text>
</g>
<!-- Node3&#45;&gt;Node6 -->
<g id="edge6" class="edge"><title>Node3&#45;&gt;Node6</title>
<path fill="none" stroke="midnightblue" d="M216.149,-61.9751C218.288,-53.4919 221.638,-40.2043 224.381,-29.3222"/>
<polygon fill="midnightblue" stroke="midnightblue" points="227.804,-30.0613 226.855,-19.5091 221.016,-28.3501 227.804,-30.0613"/>
</g>
<!-- Node7&#45;&gt;Node4 -->
<g id="edge8" class="edge"><title>Node7&#45;&gt;Node4</title>
<path fill="none" stroke="midnightblue" d="M358,-56.3993C358,-48.4664 358,-38.458 358,-29.8583"/>
<polygon fill="midnightblue" stroke="midnightblue" points="361.5,-29.6577 358,-19.6578 354.5,-29.6578 361.5,-29.6577"/>
</g>
<!-- Node7&#45;&gt;Node6 -->
<g id="edge9" class="edge"><title>Node7&#45;&gt;Node6</title>
<path fill="none" stroke="midnightblue" d="M327.429,-56.3993C306.075,-46.55 277.785,-33.5014 257.015,-23.9217"/>
<polygon fill="midnightblue" stroke="midnightblue" points="258.317,-20.668 247.771,-19.6578 255.385,-27.0244 258.317,-20.668"/>
</g>
</g>
</svg>
