<?xml version="1.0" encoding="UTF-8" standalone="no"?>
<!DOCTYPE svg PUBLIC "-//W3C//DTD SVG 1.1//EN"
 "http://www.w3.org/Graphics/SVG/1.1/DTD/svg11.dtd">
<!-- Generated by graphviz version 2.38.0 (20140413.2041)
 -->
<!-- Title: thread_types.h Pages: 1 -->
<svg width="287pt" height="308pt"
 viewBox="0.00 0.00 286.50 308.00" xmlns="http://www.w3.org/2000/svg" xmlns:xlink="http://www.w3.org/1999/xlink">
<g id="graph0" class="graph" transform="scale(1 1) rotate(0) translate(4 304)">
<title>thread_types.h</title>
<polygon fill="white" stroke="none" points="-4,4 -4,-304 282.5,-304 282.5,4 -4,4"/>
<!-- Node1 -->
<g id="node1" class="node"><title>Node1</title>
<polygon fill="#bfbfbf" stroke="black" points="99.5,-280.5 99.5,-299.5 188.5,-299.5 188.5,-280.5 99.5,-280.5"/>
<text text-anchor="middle" x="144" y="-287.5" font-family="Helvetica,sans-Serif" font-size="10.00">thread_types.h</text>
</g>
<!-- Node2 -->
<g id="node2" class="node"><title>Node2</title>
<g id="a_node2"><a xlink:href="thread_8h.html" target="_top" xlink:title="ODP thread API. ">
<polygon fill="white" stroke="black" points="115.5,-224.5 115.5,-243.5 172.5,-243.5 172.5,-224.5 115.5,-224.5"/>
<text text-anchor="middle" x="144" y="-231.5" font-family="Helvetica,sans-Serif" font-size="10.00">thread.h</text>
</a>
</g>
</g>
<!-- Node1&#45;&gt;Node2 -->
<g id="edge1" class="edge"><title>Node1&#45;&gt;Node2</title>
<path fill="none" stroke="midnightblue" d="M144,-269.805C144,-260.91 144,-250.78 144,-243.751"/>
<polygon fill="midnightblue" stroke="midnightblue" points="140.5,-270.083 144,-280.083 147.5,-270.083 140.5,-270.083"/>
</g>
<!-- Node3 -->
<g id="node3" class="node"><title>Node3</title>
<g id="a_node3"><a xlink:href="abi-default_2rwlock__recursive_8h.html" target="_top" xlink:title="ODP recursive read/write lock. ">
<polygon fill="white" stroke="black" points="0,-168.5 0,-187.5 104,-187.5 104,-168.5 0,-168.5"/>
<text text-anchor="middle" x="52" y="-175.5" font-family="Helvetica,sans-Serif" font-size="10.00">rwlock_recursive.h</text>
</a>
</g>
</g>
<!-- Node2&#45;&gt;Node3 -->
<g id="edge2" class="edge"><title>Node2&#45;&gt;Node3</title>
<path fill="none" stroke="midnightblue" d="M120.45,-219.177C103.521,-209.241 81.2172,-196.149 66.7447,-187.655"/>
<polygon fill="midnightblue" stroke="midnightblue" points="118.823,-222.28 129.219,-224.324 122.366,-216.243 118.823,-222.28"/>
</g>
<!-- Node4 -->
<g id="node4" class="node"><title>Node4</title>
<g id="a_node4"><a xlink:href="cpu_8h.html" target="_top" xlink:title="ODP CPU. ">
<polygon fill="white" stroke="black" points="122.5,-168.5 122.5,-187.5 165.5,-187.5 165.5,-168.5 122.5,-168.5"/>
<text text-anchor="middle" x="144" y="-175.5" font-family="Helvetica,sans-Serif" font-size="10.00">cpu.h</text>
</a>
</g>
</g>
<!-- Node2&#45;&gt;Node4 -->
<g id="edge3" class="edge"><title>Node2&#45;&gt;Node4</title>
<path fill="none" stroke="midnightblue" d="M144,-213.805C144,-204.91 144,-194.78 144,-187.751"/>
<polygon fill="midnightblue" stroke="midnightblue" points="140.5,-214.083 144,-224.083 147.5,-214.083 140.5,-214.083"/>
</g>
<!-- Node6 -->
<g id="node6" class="node"><title>Node6</title>
<g id="a_node6"><a xlink:href="spec_2init_8h.html" target="_top" xlink:title="init.h">
<polygon fill="white" stroke="black" points="192,-168.5 192,-187.5 232,-187.5 232,-168.5 192,-168.5"/>
<text text-anchor="middle" x="212" y="-175.5" font-family="Helvetica,sans-Serif" font-size="10.00">init.h</text>
</a>
</g>
</g>
<!-- Node2&#45;&gt;Node6 -->
<g id="edge5" class="edge"><title>Node2&#45;&gt;Node6</title>
<path fill="none" stroke="midnightblue" d="M162.762,-218.101C175,-208.382 190.559,-196.027 200.876,-187.834"/>
<polygon fill="midnightblue" stroke="midnightblue" points="160.58,-215.364 154.925,-224.324 164.933,-220.846 160.58,-215.364"/>
</g>
<!-- Node5 -->
<g id="node5" class="node"><title>Node5</title>
<g id="a_node5"><a xlink:href="ticketlock__inlines_8h_source.html" target="_top" xlink:title="ticketlock_inlines.h">
<polygon fill="white" stroke="black" points="83,-112.5 83,-131.5 189,-131.5 189,-112.5 83,-112.5"/>
<text text-anchor="middle" x="136" y="-119.5" font-family="Helvetica,sans-Serif" font-size="10.00">ticketlock_inlines.h</text>
</a>
</g>
</g>
<!-- Node4&#45;&gt;Node5 -->
<g id="edge4" class="edge"><title>Node4&#45;&gt;Node5</title>
<path fill="none" stroke="midnightblue" d="M141.2,-158.101C139.872,-149.136 138.349,-138.858 137.296,-131.751"/>
<polygon fill="midnightblue" stroke="midnightblue" points="137.751,-158.704 142.679,-168.083 144.676,-157.678 137.751,-158.704"/>
</g>
<!-- Node7 -->
<g id="node7" class="node"><title>Node7</title>
<g id="a_node7"><a xlink:href="init_8h.html" target="_top" xlink:title="ODP initialization. ">
<polygon fill="white" stroke="black" points="207,-112.5 207,-131.5 247,-131.5 247,-112.5 207,-112.5"/>
<text text-anchor="middle" x="227" y="-119.5" font-family="Helvetica,sans-Serif" font-size="10.00">init.h</text>
</a>
</g>
</g>
<!-- Node6&#45;&gt;Node7 -->
<g id="edge6" class="edge"><title>Node6&#45;&gt;Node7</title>
<path fill="none" stroke="midnightblue" d="M217.168,-158.396C219.677,-149.362 222.573,-138.936 224.569,-131.751"/>
<polygon fill="midnightblue" stroke="midnightblue" points="213.781,-157.511 214.477,-168.083 220.526,-159.385 213.781,-157.511"/>
</g>
<!-- Node8 -->
<g id="node8" class="node"><title>Node8</title>
<g id="a_node8"><a xlink:href="spec_2shared__memory_8h.html" target="_top" xlink:title="ODP shared memory. ">
<polygon fill="white" stroke="black" points="175.5,-56.5 175.5,-75.5 278.5,-75.5 278.5,-56.5 175.5,-56.5"/>
<text text-anchor="middle" x="227" y="-63.5" font-family="Helvetica,sans-Serif" font-size="10.00">shared_memory.h</text>
</a>
</g>
</g>
<!-- Node7&#45;&gt;Node8 -->
<g id="edge7" class="edge"><title>Node7&#45;&gt;Node8</title>
<path fill="none" stroke="midnightblue" d="M227,-101.805C227,-92.9102 227,-82.7798 227,-75.7511"/>
<polygon fill="midnightblue" stroke="midnightblue" points="223.5,-102.083 227,-112.083 230.5,-102.083 223.5,-102.083"/>
</g>
<!-- Node9 -->
<g id="node9" class="node"><title>Node9</title>
<g id="a_node9"><a xlink:href="shared__memory_8h.html" target="_top" xlink:title="ODP shared memory. ">
<polygon fill="white" stroke="black" points="175.5,-0.5 175.5,-19.5 278.5,-19.5 278.5,-0.5 175.5,-0.5"/>
<text text-anchor="middle" x="227" y="-7.5" font-family="Helvetica,sans-Serif" font-size="10.00">shared_memory.h</text>
</a>
</g>
</g>
<!-- Node8&#45;&gt;Node9 -->
<g id="edge8" class="edge"><title>Node8&#45;&gt;Node9</title>
<path fill="none" stroke="midnightblue" d="M227,-45.8045C227,-36.9102 227,-26.7798 227,-19.7511"/>
<polygon fill="midnightblue" stroke="midnightblue" points="223.5,-46.083 227,-56.083 230.5,-46.083 223.5,-46.083"/>
</g>
</g>
</svg>
