<?xml version="1.0" encoding="UTF-8" standalone="no"?>
<!DOCTYPE svg PUBLIC "-//W3C//DTD SVG 1.1//EN"
 "http://www.w3.org/Graphics/SVG/1.1/DTD/svg11.dtd">
<!-- Generated by graphviz version 2.38.0 (20140413.2041)
 -->
<!-- Title: timer.h Pages: 1 -->
<svg width="843pt" height="196pt"
 viewBox="0.00 0.00 843.00 196.00" xmlns="http://www.w3.org/2000/svg" xmlns:xlink="http://www.w3.org/1999/xlink">
<g id="graph0" class="graph" transform="scale(1 1) rotate(0) translate(4 192)">
<title>timer.h</title>
<polygon fill="white" stroke="none" points="-4,4 -4,-192 839,-192 839,4 -4,4"/>
<!-- Node0 -->
<g id="node1" class="node"><title>Node0</title>
<polygon fill="#bfbfbf" stroke="black" points="445,-168.5 445,-187.5 495,-187.5 495,-168.5 445,-168.5"/>
<text text-anchor="middle" x="470" y="-175.5" font-family="Helvetica,sans-Serif" font-size="10.00">timer.h</text>
</g>
<!-- Node1 -->
<g id="node2" class="node"><title>Node1</title>
<g id="a_node2"><a xlink:href="std__types_8h.html" target="_top" xlink:title="Standard C language types and definitions for ODP. ">
<polygon fill="white" stroke="black" points="159,-112.5 159,-131.5 269,-131.5 269,-112.5 159,-112.5"/>
<text text-anchor="middle" x="214" y="-119.5" font-family="Helvetica,sans-Serif" font-size="10.00">odp/api/std_types.h</text>
</a>
</g>
</g>
<!-- Node0&#45;&gt;Node1 -->
<g id="edge1" class="edge"><title>Node0&#45;&gt;Node1</title>
<path fill="none" stroke="midnightblue" d="M444.988,-171.724C403.296,-162.93 318.813,-145.109 264.394,-133.63"/>
<polygon fill="midnightblue" stroke="midnightblue" points="265.106,-130.203 254.599,-131.564 263.662,-137.053 265.106,-130.203"/>
</g>
<!-- Node7 -->
<g id="node8" class="node"><title>Node7</title>
<polygon fill="white" stroke="#bfbfbf" points="355,-112.5 355,-131.5 463,-131.5 463,-112.5 355,-112.5"/>
<text text-anchor="middle" x="409" y="-119.5" font-family="Helvetica,sans-Serif" font-size="10.00">odp/api/abi/event.h</text>
</g>
<!-- Node0&#45;&gt;Node7 -->
<g id="edge7" class="edge"><title>Node0&#45;&gt;Node7</title>
<path fill="none" stroke="midnightblue" d="M460.199,-168.324C451.182,-160.341 437.594,-148.313 426.682,-138.653"/>
<polygon fill="midnightblue" stroke="midnightblue" points="428.787,-135.842 418.979,-131.834 424.147,-141.083 428.787,-135.842"/>
</g>
<!-- Node8 -->
<g id="node9" class="node"><title>Node8</title>
<polygon fill="white" stroke="#bfbfbf" points="481.5,-112.5 481.5,-131.5 582.5,-131.5 582.5,-112.5 481.5,-112.5"/>
<text text-anchor="middle" x="532" y="-119.5" font-family="Helvetica,sans-Serif" font-size="10.00">odp/api/abi/pool.h</text>
</g>
<!-- Node0&#45;&gt;Node8 -->
<g id="edge8" class="edge"><title>Node0&#45;&gt;Node8</title>
<path fill="none" stroke="midnightblue" d="M479.961,-168.324C489.127,-160.341 502.937,-148.313 514.028,-138.653"/>
<polygon fill="midnightblue" stroke="midnightblue" points="516.615,-141.041 521.857,-131.834 512.018,-135.762 516.615,-141.041"/>
</g>
<!-- Node9 -->
<g id="node10" class="node"><title>Node9</title>
<polygon fill="white" stroke="#bfbfbf" points="600.5,-112.5 600.5,-131.5 711.5,-131.5 711.5,-112.5 600.5,-112.5"/>
<text text-anchor="middle" x="656" y="-119.5" font-family="Helvetica,sans-Serif" font-size="10.00">odp/api/abi/queue.h</text>
</g>
<!-- Node0&#45;&gt;Node9 -->
<g id="edge9" class="edge"><title>Node0&#45;&gt;Node9</title>
<path fill="none" stroke="midnightblue" d="M495.085,-169.717C526.264,-160.665 579.838,-145.111 616.54,-134.456"/>
<polygon fill="midnightblue" stroke="midnightblue" points="617.785,-137.739 626.412,-131.59 615.833,-131.017 617.785,-137.739"/>
</g>
<!-- Node10 -->
<g id="node11" class="node"><title>Node10</title>
<polygon fill="white" stroke="#bfbfbf" points="729,-112.5 729,-131.5 835,-131.5 835,-112.5 729,-112.5"/>
<text text-anchor="middle" x="782" y="-119.5" font-family="Helvetica,sans-Serif" font-size="10.00">odp/api/abi/timer.h</text>
</g>
<!-- Node0&#45;&gt;Node10 -->
<g id="edge10" class="edge"><title>Node0&#45;&gt;Node10</title>
<path fill="none" stroke="midnightblue" d="M495.005,-172.672C543.97,-164.198 653.699,-145.206 722.401,-133.315"/>
<polygon fill="midnightblue" stroke="midnightblue" points="723.387,-136.697 732.643,-131.542 722.193,-129.799 723.387,-136.697"/>
</g>
<!-- Node11 -->
<g id="node12" class="node"><title>Node11</title>
<g id="a_node12"><a xlink:href="spec_2timer_8h.html" target="_top" xlink:title="ODP timer service. ">
<polygon fill="white" stroke="black" points="300,-56.5 300,-75.5 414,-75.5 414,-56.5 300,-56.5"/>
<text text-anchor="middle" x="357" y="-63.5" font-family="Helvetica,sans-Serif" font-size="10.00">odp/api/spec/timer.h</text>
</a>
</g>
</g>
<!-- Node0&#45;&gt;Node11 -->
<g id="edge11" class="edge"><title>Node0&#45;&gt;Node11</title>
<path fill="none" stroke="midnightblue" d="M444.986,-175.971C415.695,-173.264 368.346,-163.881 346,-132 336.379,-118.274 341.366,-98.9798 347.396,-84.9804"/>
<polygon fill="midnightblue" stroke="midnightblue" points="350.594,-86.4065 351.777,-75.8779 344.286,-83.3707 350.594,-86.4065"/>
</g>
<!-- Node2 -->
<g id="node3" class="node"><title>Node2</title>
<polygon fill="white" stroke="#bfbfbf" points="0,-56.5 0,-75.5 128,-75.5 128,-56.5 0,-56.5"/>
<text text-anchor="middle" x="64" y="-63.5" font-family="Helvetica,sans-Serif" font-size="10.00">odp/api/abi/std_types.h</text>
</g>
<!-- Node1&#45;&gt;Node2 -->
<g id="edge2" class="edge"><title>Node1&#45;&gt;Node2</title>
<path fill="none" stroke="midnightblue" d="M190.232,-112.444C165.107,-103.399 125.289,-89.064 97.0996,-78.9158"/>
<polygon fill="midnightblue" stroke="midnightblue" points="98.2512,-75.6106 87.6567,-75.5164 95.8801,-82.1968 98.2512,-75.6106"/>
</g>
<!-- Node3 -->
<g id="node4" class="node"><title>Node3</title>
<g id="a_node4"><a xlink:href="spec_2std__types_8h.html" target="_top" xlink:title="Standard C language types and definitions for ODP. ">
<polygon fill="white" stroke="black" points="146,-56.5 146,-75.5 282,-75.5 282,-56.5 146,-56.5"/>
<text text-anchor="middle" x="214" y="-63.5" font-family="Helvetica,sans-Serif" font-size="10.00">odp/api/spec/std_types.h</text>
</a>
</g>
</g>
<!-- Node1&#45;&gt;Node3 -->
<g id="edge3" class="edge"><title>Node1&#45;&gt;Node3</title>
<path fill="none" stroke="midnightblue" d="M214,-112.083C214,-105.006 214,-94.8611 214,-85.9865"/>
<polygon fill="midnightblue" stroke="midnightblue" points="217.5,-85.751 214,-75.7511 210.5,-85.7511 217.5,-85.751"/>
</g>
<!-- Node4 -->
<g id="node5" class="node"><title>Node4</title>
<polygon fill="white" stroke="#bfbfbf" points="299.5,-0.5 299.5,-19.5 414.5,-19.5 414.5,-0.5 299.5,-0.5"/>
<text text-anchor="middle" x="357" y="-7.5" font-family="Helvetica,sans-Serif" font-size="10.00">odp/visibility_begin.h</text>
</g>
<!-- Node3&#45;&gt;Node4 -->
<g id="edge4" class="edge"><title>Node3&#45;&gt;Node4</title>
<path fill="none" stroke="midnightblue" d="M236.659,-56.4435C260.402,-47.4776 297.909,-33.314 324.738,-23.1827"/>
<polygon fill="midnightblue" stroke="midnightblue" points="326.329,-26.3235 334.447,-19.5164 323.856,-19.7749 326.329,-26.3235"/>
</g>
<!-- Node5 -->
<g id="node6" class="node"><title>Node5</title>
<polygon fill="white" stroke="#bfbfbf" points="103.5,-0.5 103.5,-19.5 156.5,-19.5 156.5,-0.5 103.5,-0.5"/>
<text text-anchor="middle" x="130" y="-7.5" font-family="Helvetica,sans-Serif" font-size="10.00">stdint.h</text>
</g>
<!-- Node3&#45;&gt;Node5 -->
<g id="edge5" class="edge"><title>Node3&#45;&gt;Node5</title>
<path fill="none" stroke="midnightblue" d="M200.504,-56.324C187.4,-47.9002 167.288,-34.9709 151.893,-25.0741"/>
<polygon fill="midnightblue" stroke="midnightblue" points="153.767,-22.118 143.463,-19.6545 149.982,-28.0063 153.767,-22.118"/>
</g>
<!-- Node6 -->
<g id="node7" class="node"><title>Node6</title>
<polygon fill="white" stroke="#bfbfbf" points="174.5,-0.5 174.5,-19.5 281.5,-19.5 281.5,-0.5 174.5,-0.5"/>
<text text-anchor="middle" x="228" y="-7.5" font-family="Helvetica,sans-Serif" font-size="10.00">odp/visibility_end.h</text>
</g>
<!-- Node3&#45;&gt;Node6 -->
<g id="edge6" class="edge"><title>Node3&#45;&gt;Node6</title>
<path fill="none" stroke="midnightblue" d="M216.312,-56.083C218.167,-48.9272 220.835,-38.6353 223.154,-29.6911"/>
<polygon fill="midnightblue" stroke="midnightblue" points="226.609,-30.3094 225.731,-19.7511 219.834,-28.5527 226.609,-30.3094"/>
</g>
<!-- Node11&#45;&gt;Node4 -->
<g id="edge12" class="edge"><title>Node11&#45;&gt;Node4</title>
<path fill="none" stroke="midnightblue" d="M357,-56.083C357,-49.0059 357,-38.8611 357,-29.9865"/>
<polygon fill="midnightblue" stroke="midnightblue" points="360.5,-29.751 357,-19.7511 353.5,-29.7511 360.5,-29.751"/>
</g>
<!-- Node11&#45;&gt;Node6 -->
<g id="edge13" class="edge"><title>Node11&#45;&gt;Node6</title>
<path fill="none" stroke="midnightblue" d="M336.56,-56.4435C315.33,-47.5566 281.901,-33.5632 257.745,-23.4514"/>
<polygon fill="midnightblue" stroke="midnightblue" points="258.921,-20.1493 248.345,-19.5164 256.218,-26.6064 258.921,-20.1493"/>
</g>
</g>
</svg>
