<?xml version="1.0" encoding="UTF-8" standalone="no"?>
<!DOCTYPE svg PUBLIC "-//W3C//DTD SVG 1.1//EN"
 "http://www.w3.org/Graphics/SVG/1.1/DTD/svg11.dtd">
<!-- Generated by graphviz version 2.38.0 (20140413.2041)
 -->
<!-- Title: time.h Pages: 1 -->
<svg width="423pt" height="700pt"
 viewBox="0.00 0.00 423.00 700.00" xmlns="http://www.w3.org/2000/svg" xmlns:xlink="http://www.w3.org/1999/xlink">
<g id="graph0" class="graph" transform="scale(1 1) rotate(0) translate(4 696)">
<title>time.h</title>
<polygon fill="white" stroke="none" points="-4,4 -4,-696 419,-696 419,4 -4,4"/>
<!-- Node9 -->
<g id="node1" class="node"><title>Node9</title>
<polygon fill="#bfbfbf" stroke="black" points="141,-672.5 141,-691.5 188,-691.5 188,-672.5 141,-672.5"/>
<text text-anchor="middle" x="164.5" y="-679.5" font-family="Helvetica,sans-Serif" font-size="10.00">time.h</text>
</g>
<!-- Node10 -->
<g id="node2" class="node"><title>Node10</title>
<g id="a_node2"><a xlink:href="spec_2packet_8h.html" target="_top" xlink:title="ODP packet descriptor. ">
<polygon fill="white" stroke="black" points="135.5,-616.5 135.5,-635.5 193.5,-635.5 193.5,-616.5 135.5,-616.5"/>
<text text-anchor="middle" x="164.5" y="-623.5" font-family="Helvetica,sans-Serif" font-size="10.00">packet.h</text>
</a>
</g>
</g>
<!-- Node9&#45;&gt;Node10 -->
<g id="edge1" class="edge"><title>Node9&#45;&gt;Node10</title>
<path fill="none" stroke="midnightblue" d="M164.5,-661.805C164.5,-652.91 164.5,-642.78 164.5,-635.751"/>
<polygon fill="midnightblue" stroke="midnightblue" points="161,-662.083 164.5,-672.083 168,-662.083 161,-662.083"/>
</g>
<!-- Node22 -->
<g id="node14" class="node"><title>Node22</title>
<g id="a_node14"><a xlink:href="spec_2packet__io_8h.html" target="_top" xlink:title="ODP Packet IO. ">
<polygon fill="white" stroke="black" points="84,-280.5 84,-299.5 155,-299.5 155,-280.5 84,-280.5"/>
<text text-anchor="middle" x="119.5" y="-287.5" font-family="Helvetica,sans-Serif" font-size="10.00">packet_io.h</text>
</a>
</g>
</g>
<!-- Node9&#45;&gt;Node22 -->
<g id="edge28" class="edge"><title>Node9&#45;&gt;Node22</title>
<path fill="none" stroke="midnightblue" d="M143.448,-666.451C118.859,-647.556 81.5,-612.089 81.5,-571 81.5,-571 81.5,-571 81.5,-401 81.5,-361.399 103.775,-317.957 114.216,-299.769"/>
<polygon fill="midnightblue" stroke="midnightblue" points="141.409,-669.296 151.531,-672.425 145.57,-663.667 141.409,-669.296"/>
</g>
<!-- Node32 -->
<g id="node24" class="node"><title>Node32</title>
<g id="a_node24"><a xlink:href="packet__inlines_8h.html" target="_top" xlink:title="Packet inline functions. ">
<polygon fill="white" stroke="black" points="211,-616.5 211,-635.5 304,-635.5 304,-616.5 211,-616.5"/>
<text text-anchor="middle" x="257.5" y="-623.5" font-family="Helvetica,sans-Serif" font-size="10.00">packet_inlines.h</text>
</a>
</g>
</g>
<!-- Node9&#45;&gt;Node32 -->
<g id="edge29" class="edge"><title>Node9&#45;&gt;Node32</title>
<path fill="none" stroke="midnightblue" d="M188.306,-667.177C205.419,-657.241 227.965,-644.149 242.595,-635.655"/>
<polygon fill="midnightblue" stroke="midnightblue" points="186.332,-664.276 179.442,-672.324 189.847,-670.329 186.332,-664.276"/>
</g>
<!-- Node11 -->
<g id="node3" class="node"><title>Node11</title>
<g id="a_node3"><a xlink:href="packet_8h.html" target="_top" xlink:title="ODP packet descriptor. ">
<polygon fill="white" stroke="black" points="205.5,-560.5 205.5,-579.5 263.5,-579.5 263.5,-560.5 205.5,-560.5"/>
<text text-anchor="middle" x="234.5" y="-567.5" font-family="Helvetica,sans-Serif" font-size="10.00">packet.h</text>
</a>
</g>
</g>
<!-- Node10&#45;&gt;Node11 -->
<g id="edge2" class="edge"><title>Node10&#45;&gt;Node11</title>
<path fill="none" stroke="midnightblue" d="M183.814,-610.101C196.412,-600.382 212.428,-588.027 223.049,-579.834"/>
<polygon fill="midnightblue" stroke="midnightblue" points="181.527,-607.445 175.747,-616.324 185.802,-612.987 181.527,-607.445"/>
</g>
<!-- Node12 -->
<g id="node4" class="node"><title>Node12</title>
<g id="a_node4"><a xlink:href="spec_2comp_8h.html" target="_top" xlink:title="ODP Compression. ">
<polygon fill="white" stroke="black" points="362,-504.5 362,-523.5 415,-523.5 415,-504.5 362,-504.5"/>
<text text-anchor="middle" x="388.5" y="-511.5" font-family="Helvetica,sans-Serif" font-size="10.00">comp.h</text>
</a>
</g>
</g>
<!-- Node11&#45;&gt;Node12 -->
<g id="edge3" class="edge"><title>Node11&#45;&gt;Node12</title>
<path fill="none" stroke="midnightblue" d="M268.611,-557.039C297.587,-546.879 338.462,-532.546 364.212,-523.516"/>
<polygon fill="midnightblue" stroke="midnightblue" points="267.18,-553.832 258.902,-560.444 269.497,-560.437 267.18,-553.832"/>
</g>
<!-- Node14 -->
<g id="node6" class="node"><title>Node14</title>
<g id="a_node6"><a xlink:href="spec_2crypto_8h.html" target="_top" xlink:title="ODP crypto. ">
<polygon fill="white" stroke="black" points="307.5,-392.5 307.5,-411.5 363.5,-411.5 363.5,-392.5 307.5,-392.5"/>
<text text-anchor="middle" x="335.5" y="-399.5" font-family="Helvetica,sans-Serif" font-size="10.00">crypto.h</text>
</a>
</g>
</g>
<!-- Node11&#45;&gt;Node14 -->
<g id="edge5" class="edge"><title>Node11&#45;&gt;Node14</title>
<path fill="none" stroke="midnightblue" d="M270.738,-556.428C286.21,-549.264 303.071,-538.718 313.5,-524 338.681,-488.46 337.7,-432.726 336.263,-411.55"/>
<polygon fill="midnightblue" stroke="midnightblue" points="269.16,-553.297 261.354,-560.46 271.923,-559.729 269.16,-553.297"/>
</g>
<!-- Node18 -->
<g id="node10" class="node"><title>Node18</title>
<g id="a_node10"><a xlink:href="spec_2event_8h.html" target="_top" xlink:title="ODP event. ">
<polygon fill="white" stroke="black" points="252,-504.5 252,-523.5 305,-523.5 305,-504.5 252,-504.5"/>
<text text-anchor="middle" x="278.5" y="-511.5" font-family="Helvetica,sans-Serif" font-size="10.00">event.h</text>
</a>
</g>
</g>
<!-- Node11&#45;&gt;Node18 -->
<g id="edge9" class="edge"><title>Node11&#45;&gt;Node18</title>
<path fill="none" stroke="midnightblue" d="M248.235,-552.144C255.901,-542.736 265.133,-531.405 271.369,-523.751"/>
<polygon fill="midnightblue" stroke="midnightblue" points="245.369,-550.12 241.766,-560.083 250.796,-554.541 245.369,-550.12"/>
</g>
<!-- Node11&#45;&gt;Node22 -->
<g id="edge27" class="edge"><title>Node11&#45;&gt;Node22</title>
<path fill="none" stroke="midnightblue" d="M195.707,-559.135C176.037,-552.286 153.253,-541.219 138.5,-524 118.917,-501.144 119.5,-489.098 119.5,-459 119.5,-459 119.5,-459 119.5,-401 119.5,-363.188 119.5,-318.064 119.5,-299.558"/>
<polygon fill="midnightblue" stroke="midnightblue" points="194.764,-562.509 205.356,-562.255 196.917,-555.848 194.764,-562.509"/>
</g>
<!-- Node30 -->
<g id="node22" class="node"><title>Node30</title>
<g id="a_node22"><a xlink:href="spec_2packet__flags_8h.html" target="_top" xlink:title="ODP packet flags. ">
<polygon fill="white" stroke="black" points="147.5,-504.5 147.5,-523.5 233.5,-523.5 233.5,-504.5 147.5,-504.5"/>
<text text-anchor="middle" x="190.5" y="-511.5" font-family="Helvetica,sans-Serif" font-size="10.00">packet_flags.h</text>
</a>
</g>
</g>
<!-- Node11&#45;&gt;Node30 -->
<g id="edge25" class="edge"><title>Node11&#45;&gt;Node30</title>
<path fill="none" stroke="midnightblue" d="M220.765,-552.144C213.099,-542.736 203.867,-531.405 197.631,-523.751"/>
<polygon fill="midnightblue" stroke="midnightblue" points="218.204,-554.541 227.234,-560.083 223.631,-550.12 218.204,-554.541"/>
</g>
<!-- Node13 -->
<g id="node5" class="node"><title>Node13</title>
<g id="a_node5"><a xlink:href="comp_8h.html" target="_top" xlink:title="ODP crypto. ">
<polygon fill="white" stroke="black" points="362,-448.5 362,-467.5 415,-467.5 415,-448.5 362,-448.5"/>
<text text-anchor="middle" x="388.5" y="-455.5" font-family="Helvetica,sans-Serif" font-size="10.00">comp.h</text>
</a>
</g>
</g>
<!-- Node12&#45;&gt;Node13 -->
<g id="edge4" class="edge"><title>Node12&#45;&gt;Node13</title>
<path fill="none" stroke="midnightblue" d="M388.5,-493.805C388.5,-484.91 388.5,-474.78 388.5,-467.751"/>
<polygon fill="midnightblue" stroke="midnightblue" points="385,-494.083 388.5,-504.083 392,-494.083 385,-494.083"/>
</g>
<!-- Node15 -->
<g id="node7" class="node"><title>Node15</title>
<g id="a_node7"><a xlink:href="crypto_8h.html" target="_top" xlink:title="ODP crypto. ">
<polygon fill="white" stroke="black" points="259.5,-280.5 259.5,-299.5 315.5,-299.5 315.5,-280.5 259.5,-280.5"/>
<text text-anchor="middle" x="287.5" y="-287.5" font-family="Helvetica,sans-Serif" font-size="10.00">crypto.h</text>
</a>
</g>
</g>
<!-- Node14&#45;&gt;Node15 -->
<g id="edge6" class="edge"><title>Node14&#45;&gt;Node15</title>
<path fill="none" stroke="midnightblue" d="M327.645,-382.998C317.171,-358.997 299.05,-317.468 291.249,-299.591"/>
<polygon fill="midnightblue" stroke="midnightblue" points="324.526,-384.603 331.734,-392.368 330.942,-381.803 324.526,-384.603"/>
</g>
<!-- Node16 -->
<g id="node8" class="node"><title>Node16</title>
<g id="a_node8"><a xlink:href="spec_2ipsec_8h.html" target="_top" xlink:title="ODP IPSEC API. ">
<polygon fill="white" stroke="black" points="190.5,-56.5 190.5,-75.5 240.5,-75.5 240.5,-56.5 190.5,-56.5"/>
<text text-anchor="middle" x="215.5" y="-63.5" font-family="Helvetica,sans-Serif" font-size="10.00">ipsec.h</text>
</a>
</g>
</g>
<!-- Node15&#45;&gt;Node16 -->
<g id="edge7" class="edge"><title>Node15&#45;&gt;Node16</title>
<path fill="none" stroke="midnightblue" d="M281.946,-270.711C272.118,-238.517 250.868,-169.668 231.5,-112 227.223,-99.2665 221.952,-84.6285 218.658,-75.5956"/>
<polygon fill="midnightblue" stroke="midnightblue" points="278.663,-271.945 284.924,-280.491 285.359,-269.905 278.663,-271.945"/>
</g>
<!-- Node17 -->
<g id="node9" class="node"><title>Node17</title>
<g id="a_node9"><a xlink:href="ipsec_8h.html" target="_top" xlink:title="ODP IPSEC API &#45; platform specific header. ">
<polygon fill="white" stroke="black" points="190.5,-0.5 190.5,-19.5 240.5,-19.5 240.5,-0.5 190.5,-0.5"/>
<text text-anchor="middle" x="215.5" y="-7.5" font-family="Helvetica,sans-Serif" font-size="10.00">ipsec.h</text>
</a>
</g>
</g>
<!-- Node16&#45;&gt;Node17 -->
<g id="edge8" class="edge"><title>Node16&#45;&gt;Node17</title>
<path fill="none" stroke="midnightblue" d="M215.5,-45.8045C215.5,-36.9102 215.5,-26.7798 215.5,-19.7511"/>
<polygon fill="midnightblue" stroke="midnightblue" points="212,-46.083 215.5,-56.083 219,-46.083 212,-46.083"/>
</g>
<!-- Node19 -->
<g id="node11" class="node"><title>Node19</title>
<g id="a_node11"><a xlink:href="event_8h.html" target="_top" xlink:title="ODP event. ">
<polygon fill="white" stroke="black" points="252,-448.5 252,-467.5 305,-467.5 305,-448.5 252,-448.5"/>
<text text-anchor="middle" x="278.5" y="-455.5" font-family="Helvetica,sans-Serif" font-size="10.00">event.h</text>
</a>
</g>
</g>
<!-- Node18&#45;&gt;Node19 -->
<g id="edge10" class="edge"><title>Node18&#45;&gt;Node19</title>
<path fill="none" stroke="midnightblue" d="M278.5,-493.805C278.5,-484.91 278.5,-474.78 278.5,-467.751"/>
<polygon fill="midnightblue" stroke="midnightblue" points="275,-494.083 278.5,-504.083 282,-494.083 275,-494.083"/>
</g>
<!-- Node20 -->
<g id="node12" class="node"><title>Node20</title>
<g id="a_node12"><a xlink:href="spec_2queue_8h.html" target="_top" xlink:title="ODP queue. ">
<polygon fill="white" stroke="black" points="233.5,-392.5 233.5,-411.5 289.5,-411.5 289.5,-392.5 233.5,-392.5"/>
<text text-anchor="middle" x="261.5" y="-399.5" font-family="Helvetica,sans-Serif" font-size="10.00">queue.h</text>
</a>
</g>
</g>
<!-- Node19&#45;&gt;Node20 -->
<g id="edge11" class="edge"><title>Node19&#45;&gt;Node20</title>
<path fill="none" stroke="midnightblue" d="M272.643,-438.396C269.799,-429.362 266.517,-418.936 264.255,-411.751"/>
<polygon fill="midnightblue" stroke="midnightblue" points="269.351,-439.596 275.693,-448.083 276.028,-437.493 269.351,-439.596"/>
</g>
<!-- Node28 -->
<g id="node20" class="node"><title>Node28</title>
<g id="a_node20"><a xlink:href="spec_2schedule_8h.html" target="_top" xlink:title="ODP schedule. ">
<polygon fill="white" stroke="black" points="173.5,-280.5 173.5,-299.5 241.5,-299.5 241.5,-280.5 173.5,-280.5"/>
<text text-anchor="middle" x="207.5" y="-287.5" font-family="Helvetica,sans-Serif" font-size="10.00">schedule.h</text>
</a>
</g>
</g>
<!-- Node19&#45;&gt;Node28 -->
<g id="edge24" class="edge"><title>Node19&#45;&gt;Node28</title>
<path fill="none" stroke="midnightblue" d="M254.547,-442.908C243.596,-435.191 231.524,-424.621 224.5,-412 203.56,-374.371 205.14,-320.335 206.692,-299.573"/>
<polygon fill="midnightblue" stroke="midnightblue" points="252.697,-445.881 262.971,-448.471 256.554,-440.04 252.697,-445.881"/>
</g>
<!-- Node21 -->
<g id="node13" class="node"><title>Node21</title>
<g id="a_node13"><a xlink:href="queue_8h.html" target="_top" xlink:title="ODP queue. ">
<polygon fill="white" stroke="black" points="233.5,-336.5 233.5,-355.5 289.5,-355.5 289.5,-336.5 233.5,-336.5"/>
<text text-anchor="middle" x="261.5" y="-343.5" font-family="Helvetica,sans-Serif" font-size="10.00">queue.h</text>
</a>
</g>
</g>
<!-- Node20&#45;&gt;Node21 -->
<g id="edge12" class="edge"><title>Node20&#45;&gt;Node21</title>
<path fill="none" stroke="midnightblue" d="M261.5,-381.805C261.5,-372.91 261.5,-362.78 261.5,-355.751"/>
<polygon fill="midnightblue" stroke="midnightblue" points="258,-382.083 261.5,-392.083 265,-382.083 258,-382.083"/>
</g>
<!-- Node21&#45;&gt;Node15 -->
<g id="edge13" class="edge"><title>Node21&#45;&gt;Node15</title>
<path fill="none" stroke="midnightblue" d="M270.175,-326.983C274.588,-317.817 279.752,-307.092 283.287,-299.751"/>
<polygon fill="midnightblue" stroke="midnightblue" points="266.978,-325.555 265.793,-336.083 273.285,-328.591 266.978,-325.555"/>
</g>
<!-- Node21&#45;&gt;Node22 -->
<g id="edge14" class="edge"><title>Node21&#45;&gt;Node22</title>
<path fill="none" stroke="midnightblue" d="M229.345,-332.772C202.672,-322.629 165.431,-308.467 141.895,-299.516"/>
<polygon fill="midnightblue" stroke="midnightblue" points="228.409,-336.16 239,-336.444 230.897,-329.618 228.409,-336.16"/>
</g>
<!-- Node21&#45;&gt;Node28 -->
<g id="edge22" class="edge"><title>Node21&#45;&gt;Node28</title>
<path fill="none" stroke="midnightblue" d="M245.502,-329.002C235.933,-319.433 224.139,-307.639 216.251,-299.751"/>
<polygon fill="midnightblue" stroke="midnightblue" points="243.037,-331.487 252.583,-336.083 247.987,-326.537 243.037,-331.487"/>
</g>
<!-- Node23 -->
<g id="node15" class="node"><title>Node23</title>
<g id="a_node15"><a xlink:href="packet__io_8h.html" target="_top" xlink:title="ODP Packet IO. ">
<polygon fill="white" stroke="black" points="84,-224.5 84,-243.5 155,-243.5 155,-224.5 84,-224.5"/>
<text text-anchor="middle" x="119.5" y="-231.5" font-family="Helvetica,sans-Serif" font-size="10.00">packet_io.h</text>
</a>
</g>
</g>
<!-- Node22&#45;&gt;Node23 -->
<g id="edge15" class="edge"><title>Node22&#45;&gt;Node23</title>
<path fill="none" stroke="midnightblue" d="M119.5,-269.805C119.5,-260.91 119.5,-250.78 119.5,-243.751"/>
<polygon fill="midnightblue" stroke="midnightblue" points="116,-270.083 119.5,-280.083 123,-270.083 116,-270.083"/>
</g>
<!-- Node23&#45;&gt;Node16 -->
<g id="edge19" class="edge"><title>Node23&#45;&gt;Node16</title>
<path fill="none" stroke="midnightblue" d="M154.996,-220.334C170.112,-213.15 186.526,-202.616 196.5,-188 220.952,-152.169 218.499,-96.6075 216.493,-75.514"/>
<polygon fill="midnightblue" stroke="midnightblue" points="153.558,-217.143 145.821,-224.381 156.383,-223.548 153.558,-217.143"/>
</g>
<!-- Node24 -->
<g id="node16" class="node"><title>Node24</title>
<g id="a_node16"><a xlink:href="spec_2classification_8h.html" target="_top" xlink:title="ODP classification descriptor. ">
<polygon fill="white" stroke="black" points="101.5,-168.5 101.5,-187.5 187.5,-187.5 187.5,-168.5 101.5,-168.5"/>
<text text-anchor="middle" x="144.5" y="-175.5" font-family="Helvetica,sans-Serif" font-size="10.00">classification.h</text>
</a>
</g>
</g>
<!-- Node23&#45;&gt;Node24 -->
<g id="edge16" class="edge"><title>Node23&#45;&gt;Node24</title>
<path fill="none" stroke="midnightblue" d="M127.841,-214.983C132.085,-205.817 137.05,-195.092 140.449,-187.751"/>
<polygon fill="midnightblue" stroke="midnightblue" points="124.653,-213.538 123.628,-224.083 131.006,-216.479 124.653,-213.538"/>
</g>
<!-- Node26 -->
<g id="node18" class="node"><title>Node26</title>
<g id="a_node18"><a xlink:href="spec_2traffic__mngr_8h.html" target="_top" xlink:title="Copyright (c) 2015&#45;2018, Linaro Limited All rights reserved. ">
<polygon fill="white" stroke="black" points="0,-168.5 0,-187.5 83,-187.5 83,-168.5 0,-168.5"/>
<text text-anchor="middle" x="41.5" y="-175.5" font-family="Helvetica,sans-Serif" font-size="10.00">traffic_mngr.h</text>
</a>
</g>
</g>
<!-- Node23&#45;&gt;Node26 -->
<g id="edge20" class="edge"><title>Node23&#45;&gt;Node26</title>
<path fill="none" stroke="midnightblue" d="M98.732,-218.622C84.4829,-208.757 66.0438,-195.992 54.0009,-187.655"/>
<polygon fill="midnightblue" stroke="midnightblue" points="96.7538,-221.51 106.968,-224.324 100.738,-215.754 96.7538,-221.51"/>
</g>
<!-- Node25 -->
<g id="node17" class="node"><title>Node25</title>
<g id="a_node17"><a xlink:href="classification_8h.html" target="_top" xlink:title="ODP classification descriptor. ">
<polygon fill="white" stroke="black" points="101.5,-112.5 101.5,-131.5 187.5,-131.5 187.5,-112.5 101.5,-112.5"/>
<text text-anchor="middle" x="144.5" y="-119.5" font-family="Helvetica,sans-Serif" font-size="10.00">classification.h</text>
</a>
</g>
</g>
<!-- Node24&#45;&gt;Node25 -->
<g id="edge17" class="edge"><title>Node24&#45;&gt;Node25</title>
<path fill="none" stroke="midnightblue" d="M144.5,-157.805C144.5,-148.91 144.5,-138.78 144.5,-131.751"/>
<polygon fill="midnightblue" stroke="midnightblue" points="141,-158.083 144.5,-168.083 148,-158.083 141,-158.083"/>
</g>
<!-- Node25&#45;&gt;Node16 -->
<g id="edge18" class="edge"><title>Node25&#45;&gt;Node16</title>
<path fill="none" stroke="midnightblue" d="M164.09,-106.101C176.868,-96.3824 193.113,-84.0269 203.885,-75.8339"/>
<polygon fill="midnightblue" stroke="midnightblue" points="161.748,-103.484 155.907,-112.324 165.986,-109.056 161.748,-103.484"/>
</g>
<!-- Node27 -->
<g id="node19" class="node"><title>Node27</title>
<g id="a_node19"><a xlink:href="traffic__mngr_8h.html" target="_top" xlink:title="ODP Traffic manager. ">
<polygon fill="white" stroke="black" points="0,-112.5 0,-131.5 83,-131.5 83,-112.5 0,-112.5"/>
<text text-anchor="middle" x="41.5" y="-119.5" font-family="Helvetica,sans-Serif" font-size="10.00">traffic_mngr.h</text>
</a>
</g>
</g>
<!-- Node26&#45;&gt;Node27 -->
<g id="edge21" class="edge"><title>Node26&#45;&gt;Node27</title>
<path fill="none" stroke="midnightblue" d="M41.5,-157.805C41.5,-148.91 41.5,-138.78 41.5,-131.751"/>
<polygon fill="midnightblue" stroke="midnightblue" points="38.0001,-158.083 41.5,-168.083 45.0001,-158.083 38.0001,-158.083"/>
</g>
<!-- Node29 -->
<g id="node21" class="node"><title>Node29</title>
<g id="a_node21"><a xlink:href="schedule_8h.html" target="_top" xlink:title="ODP schedule. ">
<polygon fill="white" stroke="black" points="173.5,-224.5 173.5,-243.5 241.5,-243.5 241.5,-224.5 173.5,-224.5"/>
<text text-anchor="middle" x="207.5" y="-231.5" font-family="Helvetica,sans-Serif" font-size="10.00">schedule.h</text>
</a>
</g>
</g>
<!-- Node28&#45;&gt;Node29 -->
<g id="edge23" class="edge"><title>Node28&#45;&gt;Node29</title>
<path fill="none" stroke="midnightblue" d="M207.5,-269.805C207.5,-260.91 207.5,-250.78 207.5,-243.751"/>
<polygon fill="midnightblue" stroke="midnightblue" points="204,-270.083 207.5,-280.083 211,-270.083 204,-270.083"/>
</g>
<!-- Node31 -->
<g id="node23" class="node"><title>Node31</title>
<g id="a_node23"><a xlink:href="packet__flags_8h.html" target="_top" xlink:title="ODP packet flags. ">
<polygon fill="white" stroke="black" points="147.5,-448.5 147.5,-467.5 233.5,-467.5 233.5,-448.5 147.5,-448.5"/>
<text text-anchor="middle" x="190.5" y="-455.5" font-family="Helvetica,sans-Serif" font-size="10.00">packet_flags.h</text>
</a>
</g>
</g>
<!-- Node30&#45;&gt;Node31 -->
<g id="edge26" class="edge"><title>Node30&#45;&gt;Node31</title>
<path fill="none" stroke="midnightblue" d="M190.5,-493.805C190.5,-484.91 190.5,-474.78 190.5,-467.751"/>
<polygon fill="midnightblue" stroke="midnightblue" points="187,-494.083 190.5,-504.083 194,-494.083 187,-494.083"/>
</g>
</g>
</svg>
