<?xml version="1.0" encoding="UTF-8" standalone="no"?>
<!DOCTYPE svg PUBLIC "-//W3C//DTD SVG 1.1//EN"
 "http://www.w3.org/Graphics/SVG/1.1/DTD/svg11.dtd">
<!-- Generated by graphviz version 2.38.0 (20140413.2041)
 -->
<!-- Title: traffic_mngr.h Pages: 1 -->
<svg width="1734pt" height="800pt"
 viewBox="0.00 0.00 1734.00 800.00" xmlns="http://www.w3.org/2000/svg" xmlns:xlink="http://www.w3.org/1999/xlink">
<g id="graph0" class="graph" transform="scale(1 1) rotate(0) translate(4 796)">
<title>traffic_mngr.h</title>
<polygon fill="white" stroke="none" points="-4,4 -4,-796 1730,-796 1730,4 -4,4"/>
<!-- Node0 -->
<g id="node1" class="node"><title>Node0</title>
<polygon fill="#bfbfbf" stroke="black" points="1448.5,-772.5 1448.5,-791.5 1531.5,-791.5 1531.5,-772.5 1448.5,-772.5"/>
<text text-anchor="middle" x="1490" y="-779.5" font-family="Helvetica,sans-Serif" font-size="10.00">traffic_mngr.h</text>
</g>
<!-- Node1 -->
<g id="node2" class="node"><title>Node1</title>
<polygon fill="white" stroke="#bfbfbf" points="1380.5,-705.5 1380.5,-735.5 1479.5,-735.5 1479.5,-705.5 1380.5,-705.5"/>
<text text-anchor="start" x="1388.5" y="-723.5" font-family="Helvetica,sans-Serif" font-size="10.00">odp/api/abi/traffic</text>
<text text-anchor="middle" x="1430" y="-712.5" font-family="Helvetica,sans-Serif" font-size="10.00">_mngr.h</text>
</g>
<!-- Node0&#45;&gt;Node1 -->
<g id="edge1" class="edge"><title>Node0&#45;&gt;Node1</title>
<path fill="none" stroke="midnightblue" d="M1481.4,-772.475C1473.58,-764.718 1461.71,-752.943 1451.34,-742.665"/>
<polygon fill="midnightblue" stroke="midnightblue" points="1453.71,-740.079 1444.14,-735.523 1448.78,-745.05 1453.71,-740.079"/>
</g>
<!-- Node2 -->
<g id="node3" class="node"><title>Node2</title>
<g id="a_node3"><a xlink:href="spec_2traffic__mngr_8h.html" target="_top" xlink:title="Copyright (c) 2015&#45;2018, Linaro Limited All rights reserved. ">
<polygon fill="white" stroke="black" points="1497.5,-705.5 1497.5,-735.5 1604.5,-735.5 1604.5,-705.5 1497.5,-705.5"/>
<text text-anchor="start" x="1505.5" y="-723.5" font-family="Helvetica,sans-Serif" font-size="10.00">odp/api/spec/traffic</text>
<text text-anchor="middle" x="1551" y="-712.5" font-family="Helvetica,sans-Serif" font-size="10.00">_mngr.h</text>
</a>
</g>
</g>
<!-- Node0&#45;&gt;Node2 -->
<g id="edge2" class="edge"><title>Node0&#45;&gt;Node2</title>
<path fill="none" stroke="midnightblue" d="M1498.74,-772.475C1506.69,-764.718 1518.76,-752.943 1529.3,-742.665"/>
<polygon fill="midnightblue" stroke="midnightblue" points="1531.91,-745.011 1536.62,-735.523 1527.02,-740 1531.91,-745.011"/>
</g>
<!-- Node3 -->
<g id="node4" class="node"><title>Node3</title>
<polygon fill="white" stroke="#bfbfbf" points="886.5,-0.5 886.5,-19.5 1001.5,-19.5 1001.5,-0.5 886.5,-0.5"/>
<text text-anchor="middle" x="944" y="-7.5" font-family="Helvetica,sans-Serif" font-size="10.00">odp/visibility_begin.h</text>
</g>
<!-- Node2&#45;&gt;Node3 -->
<g id="edge3" class="edge"><title>Node2&#45;&gt;Node3</title>
<path fill="none" stroke="midnightblue" d="M1604.93,-707.937C1656.35,-693.371 1726,-662.79 1726,-604 1726,-604 1726,-604 1726,-132 1726,-38.9836 1621.69,-76.6684 1531,-56 1481.49,-44.7166 1155.11,-23.8334 1011.55,-15.0545"/>
<polygon fill="midnightblue" stroke="midnightblue" points="1011.73,-11.5591 1001.54,-14.4436 1011.31,-18.5461 1011.73,-11.5591"/>
</g>
<!-- Node4 -->
<g id="node5" class="node"><title>Node4</title>
<g id="a_node5"><a xlink:href="std__types_8h.html" target="_top" xlink:title="Standard C language types and definitions for ODP. ">
<polygon fill="white" stroke="black" points="1285,-123.5 1285,-142.5 1395,-142.5 1395,-123.5 1285,-123.5"/>
<text text-anchor="middle" x="1340" y="-130.5" font-family="Helvetica,sans-Serif" font-size="10.00">odp/api/std_types.h</text>
</a>
</g>
</g>
<!-- Node2&#45;&gt;Node4 -->
<g id="edge4" class="edge"><title>Node2&#45;&gt;Node4</title>
<path fill="none" stroke="midnightblue" d="M1576.57,-705.416C1605.23,-687.991 1650.17,-655.364 1669,-613 1737.48,-458.937 1632.04,-403.925 1573,-246 1561.44,-215.089 1566.81,-199.563 1541,-179 1520.2,-162.427 1455.71,-149.92 1405.32,-142.35"/>
<polygon fill="midnightblue" stroke="midnightblue" points="1405.53,-138.843 1395.13,-140.856 1404.51,-145.769 1405.53,-138.843"/>
</g>
<!-- Node8 -->
<g id="node9" class="node"><title>Node8</title>
<polygon fill="white" stroke="#bfbfbf" points="302.5,-0.5 302.5,-19.5 409.5,-19.5 409.5,-0.5 302.5,-0.5"/>
<text text-anchor="middle" x="356" y="-7.5" font-family="Helvetica,sans-Serif" font-size="10.00">odp/visibility_end.h</text>
</g>
<!-- Node2&#45;&gt;Node8 -->
<g id="edge73" class="edge"><title>Node2&#45;&gt;Node8</title>
<path fill="none" stroke="midnightblue" d="M1497.34,-706.376C1494.52,-705.869 1491.73,-705.405 1489,-705 1406.98,-692.858 0,-686.912 0,-604 0,-604 0,-604 0,-132 0,-89.7778 20.7496,-77.6477 57,-56 95.5791,-32.9616 216.277,-20.612 292.007,-14.9582"/>
<polygon fill="midnightblue" stroke="midnightblue" points="292.662,-18.42 302.382,-14.2045 292.154,-11.4384 292.662,-18.42"/>
</g>
<!-- Node9 -->
<g id="node10" class="node"><title>Node9</title>
<g id="a_node10"><a xlink:href="packet__io_8h.html" target="_top" xlink:title="ODP Packet IO. ">
<polygon fill="white" stroke="black" points="1378,-649.5 1378,-668.5 1488,-668.5 1488,-649.5 1378,-649.5"/>
<text text-anchor="middle" x="1433" y="-656.5" font-family="Helvetica,sans-Serif" font-size="10.00">odp/api/packet_io.h</text>
</a>
</g>
</g>
<!-- Node2&#45;&gt;Node9 -->
<g id="edge10" class="edge"><title>Node2&#45;&gt;Node9</title>
<path fill="none" stroke="midnightblue" d="M1523.04,-705.399C1503.68,-695.639 1478.09,-682.737 1459.14,-673.183"/>
<polygon fill="midnightblue" stroke="midnightblue" points="1460.67,-670.035 1450.17,-668.658 1457.52,-676.285 1460.67,-670.035"/>
</g>
<!-- Node5 -->
<g id="node6" class="node"><title>Node5</title>
<polygon fill="white" stroke="#bfbfbf" points="1276,-62 1276,-81 1404,-81 1404,-62 1276,-62"/>
<text text-anchor="middle" x="1340" y="-69" font-family="Helvetica,sans-Serif" font-size="10.00">odp/api/abi/std_types.h</text>
</g>
<!-- Node4&#45;&gt;Node5 -->
<g id="edge5" class="edge"><title>Node4&#45;&gt;Node5</title>
<path fill="none" stroke="midnightblue" d="M1340,-123.475C1340,-115.08 1340,-101.981 1340,-91.1631"/>
<polygon fill="midnightblue" stroke="midnightblue" points="1343.5,-91.0091 1340,-81.0091 1336.5,-91.0091 1343.5,-91.0091"/>
</g>
<!-- Node6 -->
<g id="node7" class="node"><title>Node6</title>
<g id="a_node7"><a xlink:href="spec_2std__types_8h.html" target="_top" xlink:title="Standard C language types and definitions for ODP. ">
<polygon fill="white" stroke="black" points="1081,-62 1081,-81 1217,-81 1217,-62 1081,-62"/>
<text text-anchor="middle" x="1149" y="-69" font-family="Helvetica,sans-Serif" font-size="10.00">odp/api/spec/std_types.h</text>
</a>
</g>
</g>
<!-- Node4&#45;&gt;Node6 -->
<g id="edge6" class="edge"><title>Node4&#45;&gt;Node6</title>
<path fill="none" stroke="midnightblue" d="M1312.63,-123.475C1279.45,-113.136 1223.35,-95.6611 1186.24,-84.1017"/>
<polygon fill="midnightblue" stroke="midnightblue" points="1186.9,-80.6417 1176.31,-81.0091 1184.82,-87.325 1186.9,-80.6417"/>
</g>
<!-- Node6&#45;&gt;Node3 -->
<g id="edge7" class="edge"><title>Node6&#45;&gt;Node3</title>
<path fill="none" stroke="midnightblue" d="M1119.63,-61.9751C1083.7,-51.5478 1022.77,-33.8618 982.956,-22.3066"/>
<polygon fill="midnightblue" stroke="midnightblue" points="983.896,-18.9353 973.317,-19.5091 981.945,-25.6578 983.896,-18.9353"/>
</g>
<!-- Node7 -->
<g id="node8" class="node"><title>Node7</title>
<polygon fill="white" stroke="#bfbfbf" points="1122.5,-0.5 1122.5,-19.5 1175.5,-19.5 1175.5,-0.5 1122.5,-0.5"/>
<text text-anchor="middle" x="1149" y="-7.5" font-family="Helvetica,sans-Serif" font-size="10.00">stdint.h</text>
</g>
<!-- Node6&#45;&gt;Node7 -->
<g id="edge8" class="edge"><title>Node6&#45;&gt;Node7</title>
<path fill="none" stroke="midnightblue" d="M1149,-61.9751C1149,-53.5803 1149,-40.4806 1149,-29.6631"/>
<polygon fill="midnightblue" stroke="midnightblue" points="1152.5,-29.5091 1149,-19.5091 1145.5,-29.5091 1152.5,-29.5091"/>
</g>
<!-- Node6&#45;&gt;Node8 -->
<g id="edge9" class="edge"><title>Node6&#45;&gt;Node8</title>
<path fill="none" stroke="midnightblue" d="M1080.7,-65.3756C929.271,-54.0134 567.118,-26.8405 419.882,-15.7931"/>
<polygon fill="midnightblue" stroke="midnightblue" points="419.892,-12.2841 409.658,-15.026 419.368,-19.2645 419.892,-12.2841"/>
</g>
<!-- Node9&#45;&gt;Node4 -->
<g id="edge11" class="edge"><title>Node9&#45;&gt;Node4</title>
<path fill="none" stroke="midnightblue" d="M1442.06,-649.188C1470.95,-620.702 1559,-530.714 1559,-492 1559,-492 1559,-492 1559,-255 1559,-184.08 1469.93,-154.405 1405.39,-142.212"/>
<polygon fill="midnightblue" stroke="midnightblue" points="1405.72,-138.715 1395.26,-140.401 1404.49,-145.606 1405.72,-138.715"/>
</g>
<!-- Node10 -->
<g id="node11" class="node"><title>Node10</title>
<polygon fill="white" stroke="#bfbfbf" points="1409.5,-246.5 1409.5,-265.5 1510.5,-265.5 1510.5,-246.5 1409.5,-246.5"/>
<text text-anchor="middle" x="1460" y="-253.5" font-family="Helvetica,sans-Serif" font-size="10.00">odp/api/abi/pool.h</text>
</g>
<!-- Node9&#45;&gt;Node10 -->
<g id="edge12" class="edge"><title>Node9&#45;&gt;Node10</title>
<path fill="none" stroke="midnightblue" d="M1438.43,-649.241C1452.4,-626.107 1489.39,-561.023 1502,-501 1519.6,-417.205 1484.38,-316.08 1467.88,-275.33"/>
<polygon fill="midnightblue" stroke="midnightblue" points="1471.04,-273.794 1463.96,-265.908 1464.57,-276.485 1471.04,-273.794"/>
</g>
<!-- Node11 -->
<g id="node12" class="node"><title>Node11</title>
<polygon fill="white" stroke="#bfbfbf" points="1518,-593.5 1518,-612.5 1660,-612.5 1660,-593.5 1518,-593.5"/>
<text text-anchor="middle" x="1589" y="-600.5" font-family="Helvetica,sans-Serif" font-size="10.00">odp/api/abi/classification.h</text>
</g>
<!-- Node9&#45;&gt;Node11 -->
<g id="edge13" class="edge"><title>Node9&#45;&gt;Node11</title>
<path fill="none" stroke="midnightblue" d="M1457.72,-649.444C1483.85,-640.399 1525.26,-626.064 1554.58,-615.916"/>
<polygon fill="midnightblue" stroke="midnightblue" points="1556.09,-619.095 1564.4,-612.516 1553.8,-612.48 1556.09,-619.095"/>
</g>
<!-- Node12 -->
<g id="node13" class="node"><title>Node12</title>
<polygon fill="white" stroke="#bfbfbf" points="104.5,-246.5 104.5,-265.5 217.5,-265.5 217.5,-246.5 104.5,-246.5"/>
<text text-anchor="middle" x="161" y="-253.5" font-family="Helvetica,sans-Serif" font-size="10.00">odp/api/abi/packet.h</text>
</g>
<!-- Node9&#45;&gt;Node12 -->
<g id="edge14" class="edge"><title>Node9&#45;&gt;Node12</title>
<path fill="none" stroke="midnightblue" d="M1377.74,-656.91C1185.6,-652.934 547.29,-638.112 344,-613 211.187,-596.594 50,-681.822 50,-548 50,-548 50,-548 50,-490 50,-401.191 116.537,-310.231 146.581,-273.686"/>
<polygon fill="midnightblue" stroke="midnightblue" points="149.62,-275.511 153.371,-265.602 144.259,-271.009 149.62,-275.511"/>
</g>
<!-- Node13 -->
<g id="node14" class="node"><title>Node13</title>
<polygon fill="white" stroke="#bfbfbf" points="525.5,-246.5 525.5,-265.5 652.5,-265.5 652.5,-246.5 525.5,-246.5"/>
<text text-anchor="middle" x="589" y="-253.5" font-family="Helvetica,sans-Serif" font-size="10.00">odp/api/abi/packet_io.h</text>
</g>
<!-- Node9&#45;&gt;Node13 -->
<g id="edge15" class="edge"><title>Node9&#45;&gt;Node13</title>
<path fill="none" stroke="midnightblue" d="M1377.66,-656.147C1133.41,-647.614 164,-609.85 164,-548 164,-548 164,-548 164,-378 164,-340.3 414.572,-289.156 530.916,-267.441"/>
<polygon fill="midnightblue" stroke="midnightblue" points="531.88,-270.822 541.073,-265.556 530.603,-263.939 531.88,-270.822"/>
</g>
<!-- Node14 -->
<g id="node15" class="node"><title>Node14</title>
<polygon fill="white" stroke="#bfbfbf" points="1381.5,-481.5 1381.5,-500.5 1492.5,-500.5 1492.5,-481.5 1381.5,-481.5"/>
<text text-anchor="middle" x="1437" y="-488.5" font-family="Helvetica,sans-Serif" font-size="10.00">odp/api/abi/queue.h</text>
</g>
<!-- Node9&#45;&gt;Node14 -->
<g id="edge16" class="edge"><title>Node9&#45;&gt;Node14</title>
<path fill="none" stroke="midnightblue" d="M1433.22,-649.075C1433.84,-622.945 1435.69,-546.211 1436.55,-510.577"/>
<polygon fill="midnightblue" stroke="midnightblue" points="1440.05,-510.65 1436.79,-500.568 1433.05,-510.481 1440.05,-510.65"/>
</g>
<!-- Node15 -->
<g id="node16" class="node"><title>Node15</title>
<g id="a_node16"><a xlink:href="spec_2packet__io_8h.html" target="_top" xlink:title="ODP Packet IO. ">
<polygon fill="white" stroke="black" points="713.5,-593.5 713.5,-612.5 848.5,-612.5 848.5,-593.5 713.5,-593.5"/>
<text text-anchor="middle" x="781" y="-600.5" font-family="Helvetica,sans-Serif" font-size="10.00">odp/api/spec/packet_io.h</text>
</a>
</g>
</g>
<!-- Node9&#45;&gt;Node15 -->
<g id="edge17" class="edge"><title>Node9&#45;&gt;Node15</title>
<path fill="none" stroke="midnightblue" d="M1377.97,-653.443C1262.03,-643.84 992.327,-621.503 858.78,-610.442"/>
<polygon fill="midnightblue" stroke="midnightblue" points="858.88,-606.938 848.625,-609.601 858.302,-613.914 858.88,-606.938"/>
</g>
<!-- Node15&#45;&gt;Node3 -->
<g id="edge18" class="edge"><title>Node15&#45;&gt;Node3</title>
<path fill="none" stroke="midnightblue" d="M848.697,-601.992C969.794,-601.011 1218.03,-594.339 1295,-557 1307.4,-550.983 1635,-209.285 1635,-195.5 1635,-195.5 1635,-195.5 1635,-132 1635,-27.7117 1514.94,-78.02 1413,-56 1338.28,-39.8588 1122.65,-23.2987 1011.71,-15.5363"/>
<polygon fill="midnightblue" stroke="midnightblue" points="1011.85,-12.0378 1001.63,-14.8353 1011.36,-19.0209 1011.85,-12.0378"/>
</g>
<!-- Node15&#45;&gt;Node8 -->
<g id="edge72" class="edge"><title>Node15&#45;&gt;Node8</title>
<path fill="none" stroke="midnightblue" d="M713.298,-600.676C565.963,-597.257 225.974,-586.264 183,-557 60.5951,-473.646 38,-405.091 38,-257 38,-257 38,-257 38,-132 38,-73.6693 91.5938,-79.4573 145,-56 191.988,-35.3619 249.121,-23.9249 292.079,-17.7518"/>
<polygon fill="midnightblue" stroke="midnightblue" points="292.697,-21.1999 302.125,-16.3666 291.741,-14.2655 292.697,-21.1999"/>
</g>
<!-- Node16 -->
<g id="node17" class="node"><title>Node16</title>
<g id="a_node17"><a xlink:href="deprecated_8h.html" target="_top" xlink:title="Control deprecated API definitions. ">
<polygon fill="white" stroke="black" points="388.5,-246.5 388.5,-265.5 507.5,-265.5 507.5,-246.5 388.5,-246.5"/>
<text text-anchor="middle" x="448" y="-253.5" font-family="Helvetica,sans-Serif" font-size="10.00">odp/api/deprecated.h</text>
</a>
</g>
</g>
<!-- Node15&#45;&gt;Node16 -->
<g id="edge19" class="edge"><title>Node15&#45;&gt;Node16</title>
<path fill="none" stroke="midnightblue" d="M713.251,-594.354C612.778,-581.102 436,-549.602 436,-492 436,-492 436,-492 436,-378 436,-341.717 441.409,-299.612 444.964,-275.857"/>
<polygon fill="midnightblue" stroke="midnightblue" points="448.454,-276.195 446.529,-265.776 441.536,-275.121 448.454,-276.195"/>
</g>
<!-- Node18 -->
<g id="node19" class="node"><title>Node18</title>
<g id="a_node19"><a xlink:href="packet__io__stats_8h.html" target="_top" xlink:title="ODP packet IO stats. ">
<polygon fill="white" stroke="black" points="192.5,-537.5 192.5,-556.5 331.5,-556.5 331.5,-537.5 192.5,-537.5"/>
<text text-anchor="middle" x="262" y="-544.5" font-family="Helvetica,sans-Serif" font-size="10.00">odp/api/packet_io_stats.h</text>
</a>
</g>
</g>
<!-- Node15&#45;&gt;Node18 -->
<g id="edge23" class="edge"><title>Node15&#45;&gt;Node18</title>
<path fill="none" stroke="midnightblue" d="M713.179,-595.062C627.594,-586.288 475.871,-570.675 346,-557 344.687,-556.862 343.363,-556.722 342.03,-556.581"/>
<polygon fill="midnightblue" stroke="midnightblue" points="341.983,-553.057 331.67,-555.484 341.246,-560.018 341.983,-553.057"/>
</g>
<!-- Node20 -->
<g id="node21" class="node"><title>Node20</title>
<g id="a_node21"><a xlink:href="queue_8h.html" target="_top" xlink:title="ODP queue. ">
<polygon fill="white" stroke="black" points="1192,-537.5 1192,-556.5 1286,-556.5 1286,-537.5 1192,-537.5"/>
<text text-anchor="middle" x="1239" y="-544.5" font-family="Helvetica,sans-Serif" font-size="10.00">odp/api/queue.h</text>
</a>
</g>
</g>
<!-- Node15&#45;&gt;Node20 -->
<g id="edge27" class="edge"><title>Node15&#45;&gt;Node20</title>
<path fill="none" stroke="midnightblue" d="M848.579,-594.032C938.843,-583.39 1097.18,-564.721 1181.83,-554.741"/>
<polygon fill="midnightblue" stroke="midnightblue" points="1182.25,-558.215 1191.77,-553.568 1181.43,-551.263 1182.25,-558.215"/>
</g>
<!-- Node26 -->
<g id="node27" class="node"><title>Node26</title>
<g id="a_node27"><a xlink:href="packet_8h.html" target="_top" xlink:title="ODP packet descriptor. ">
<polygon fill="white" stroke="black" points="1039,-308 1039,-327 1135,-327 1135,-308 1039,-308"/>
<text text-anchor="middle" x="1087" y="-315" font-family="Helvetica,sans-Serif" font-size="10.00">odp/api/packet.h</text>
</a>
</g>
</g>
<!-- Node15&#45;&gt;Node26 -->
<g id="edge71" class="edge"><title>Node15&#45;&gt;Node26</title>
<path fill="none" stroke="midnightblue" d="M848.553,-594.317C948.735,-581.016 1125,-549.45 1125,-492 1125,-492 1125,-492 1125,-434 1125,-397.754 1107.91,-358.171 1096.65,-336.033"/>
<polygon fill="midnightblue" stroke="midnightblue" points="1099.73,-334.375 1091.97,-327.163 1093.54,-337.641 1099.73,-334.375"/>
</g>
<!-- Node28 -->
<g id="node29" class="node"><title>Node28</title>
<g id="a_node29"><a xlink:href="time_8h.html" target="_top" xlink:title="ODP time. ">
<polygon fill="white" stroke="black" points="511,-185 511,-204 597,-204 597,-185 511,-185"/>
<text text-anchor="middle" x="554" y="-192" font-family="Helvetica,sans-Serif" font-size="10.00">odp/api/time.h</text>
</a>
</g>
</g>
<!-- Node15&#45;&gt;Node28 -->
<g id="edge70" class="edge"><title>Node15&#45;&gt;Node28</title>
<path fill="none" stroke="midnightblue" d="M713.359,-598.28C594.352,-589.868 360,-564.144 360,-492 360,-492 360,-492 360,-316.5 360,-283.93 357.039,-269.1 380,-246 411.755,-214.053 462.43,-202.045 500.922,-197.666"/>
<polygon fill="midnightblue" stroke="midnightblue" points="501.324,-201.143 510.927,-196.666 500.628,-194.178 501.324,-201.143"/>
</g>
<!-- Node17 -->
<g id="node18" class="node"><title>Node17</title>
<g id="a_node18"><a xlink:href="spec_2deprecated_8h.html" target="_top" xlink:title="Macro for deprecated API definitions. ">
<polygon fill="white" stroke="black" points="571,-62 571,-81 715,-81 715,-62 571,-62"/>
<text text-anchor="middle" x="643" y="-69" font-family="Helvetica,sans-Serif" font-size="10.00">odp/api/spec/deprecated.h</text>
</a>
</g>
</g>
<!-- Node16&#45;&gt;Node17 -->
<g id="edge20" class="edge"><title>Node16&#45;&gt;Node17</title>
<path fill="none" stroke="midnightblue" d="M497.11,-246.477C537.588,-238.494 590.735,-225.49 606,-210 637.863,-177.669 643.053,-120.975 643.44,-91.5035"/>
<polygon fill="midnightblue" stroke="midnightblue" points="646.94,-91.3099 643.392,-81.3266 639.94,-91.3431 646.94,-91.3099"/>
</g>
<!-- Node17&#45;&gt;Node3 -->
<g id="edge21" class="edge"><title>Node17&#45;&gt;Node3</title>
<path fill="none" stroke="midnightblue" d="M686.126,-61.9751C740.105,-51.3048 832.536,-33.0335 890.837,-21.5089"/>
<polygon fill="midnightblue" stroke="midnightblue" points="891.823,-24.8819 900.954,-19.5091 890.465,-18.0148 891.823,-24.8819"/>
</g>
<!-- Node17&#45;&gt;Node8 -->
<g id="edge22" class="edge"><title>Node17&#45;&gt;Node8</title>
<path fill="none" stroke="midnightblue" d="M601.88,-61.9751C550.518,-51.3269 462.644,-33.1092 407.036,-21.5806"/>
<polygon fill="midnightblue" stroke="midnightblue" points="407.546,-18.112 397.044,-19.5091 406.125,-24.9663 407.546,-18.112"/>
</g>
<!-- Node19 -->
<g id="node20" class="node"><title>Node19</title>
<g id="a_node20"><a xlink:href="spec_2packet__io__stats_8h.html" target="_top" xlink:title="ODP Packet IO. ">
<polygon fill="white" stroke="black" points="195.5,-56.5 195.5,-86.5 308.5,-86.5 308.5,-56.5 195.5,-56.5"/>
<text text-anchor="start" x="203.5" y="-74.5" font-family="Helvetica,sans-Serif" font-size="10.00">odp/api/spec/packet</text>
<text text-anchor="middle" x="252" y="-63.5" font-family="Helvetica,sans-Serif" font-size="10.00">_io_stats.h</text>
</a>
</g>
</g>
<!-- Node18&#45;&gt;Node19 -->
<g id="edge24" class="edge"><title>Node18&#45;&gt;Node19</title>
<path fill="none" stroke="midnightblue" d="M254.22,-537.186C225.833,-504.359 127.78,-384.956 95,-266 73.8688,-189.318 164.077,-122.97 216.593,-91.668"/>
<polygon fill="midnightblue" stroke="midnightblue" points="218.424,-94.6521 225.301,-86.5919 214.899,-88.6047 218.424,-94.6521"/>
</g>
<!-- Node19&#45;&gt;Node3 -->
<g id="edge25" class="edge"><title>Node19&#45;&gt;Node3</title>
<path fill="none" stroke="midnightblue" d="M308.629,-65.6309C434.94,-54.7703 739.304,-28.6003 875.782,-16.8656"/>
<polygon fill="midnightblue" stroke="midnightblue" points="876.437,-20.3222 886.1,-15.9784 875.837,-13.348 876.437,-20.3222"/>
</g>
<!-- Node19&#45;&gt;Node8 -->
<g id="edge26" class="edge"><title>Node19&#45;&gt;Node8</title>
<path fill="none" stroke="midnightblue" d="M276.647,-56.3993C293.317,-46.8619 315.231,-34.3248 331.805,-24.8422"/>
<polygon fill="midnightblue" stroke="midnightblue" points="333.925,-27.6617 340.867,-19.6578 330.449,-21.5858 333.925,-27.6617"/>
</g>
<!-- Node20&#45;&gt;Node4 -->
<g id="edge28" class="edge"><title>Node20&#45;&gt;Node4</title>
<path fill="none" stroke="midnightblue" d="M1244.28,-537.231C1254.73,-519.043 1277,-475.601 1277,-436 1277,-436 1277,-436 1277,-378 1277,-337.322 1302.61,-333.785 1328,-302 1341.73,-284.804 1353.87,-286.451 1362,-266 1377.39,-227.291 1360.43,-178.054 1348.89,-152.024"/>
<polygon fill="midnightblue" stroke="midnightblue" points="1351.92,-150.256 1344.52,-142.675 1345.58,-153.217 1351.92,-150.256"/>
</g>
<!-- Node20&#45;&gt;Node10 -->
<g id="edge32" class="edge"><title>Node20&#45;&gt;Node10</title>
<path fill="none" stroke="midnightblue" d="M1252.2,-537.46C1263.84,-529.33 1280.53,-516.116 1291,-501 1308.53,-475.681 1315,-466.795 1315,-436 1315,-436 1315,-436 1315,-378 1315,-321.423 1380.88,-286.141 1423.83,-269.153"/>
<polygon fill="midnightblue" stroke="midnightblue" points="1425.3,-272.338 1433.4,-265.514 1422.81,-265.794 1425.3,-272.338"/>
</g>
<!-- Node20&#45;&gt;Node14 -->
<g id="edge30" class="edge"><title>Node20&#45;&gt;Node14</title>
<path fill="none" stroke="midnightblue" d="M1270.37,-537.444C1304.26,-528.201 1358.4,-513.436 1395.72,-503.257"/>
<polygon fill="midnightblue" stroke="midnightblue" points="1397.05,-506.524 1405.77,-500.516 1395.2,-499.771 1397.05,-506.524"/>
</g>
<!-- Node21 -->
<g id="node22" class="node"><title>Node21</title>
<polygon fill="white" stroke="#bfbfbf" points="1245,-246.5 1245,-265.5 1353,-265.5 1353,-246.5 1245,-246.5"/>
<text text-anchor="middle" x="1299" y="-253.5" font-family="Helvetica,sans-Serif" font-size="10.00">odp/api/abi/event.h</text>
</g>
<!-- Node20&#45;&gt;Node21 -->
<g id="edge29" class="edge"><title>Node20&#45;&gt;Node21</title>
<path fill="none" stroke="midnightblue" d="M1239,-537.442C1239,-518.936 1239,-473.812 1239,-436 1239,-436 1239,-436 1239,-378 1239,-342.578 1246.32,-333.249 1263,-302 1268.52,-291.65 1276.54,-281.34 1283.61,-273.205"/>
<polygon fill="midnightblue" stroke="midnightblue" points="1286.37,-275.368 1290.48,-265.604 1281.18,-270.671 1286.37,-275.368"/>
</g>
<!-- Node22 -->
<g id="node23" class="node"><title>Node22</title>
<polygon fill="white" stroke="#bfbfbf" points="1119,-246.5 1119,-265.5 1227,-265.5 1227,-246.5 1119,-246.5"/>
<text text-anchor="middle" x="1173" y="-253.5" font-family="Helvetica,sans-Serif" font-size="10.00">odp/api/abi/buffer.h</text>
</g>
<!-- Node20&#45;&gt;Node22 -->
<g id="edge31" class="edge"><title>Node20&#45;&gt;Node22</title>
<path fill="none" stroke="midnightblue" d="M1233.72,-537.231C1223.27,-519.043 1201,-475.601 1201,-436 1201,-436 1201,-436 1201,-378 1201,-340.772 1188.26,-298.721 1179.97,-275.286"/>
<polygon fill="midnightblue" stroke="midnightblue" points="1183.16,-273.828 1176.43,-265.646 1176.59,-276.24 1183.16,-273.828"/>
</g>
<!-- Node23 -->
<g id="node24" class="node"><title>Node23</title>
<g id="a_node24"><a xlink:href="spec_2queue_8h.html" target="_top" xlink:title="ODP queue. ">
<polygon fill="white" stroke="black" points="893.5,-481.5 893.5,-500.5 1012.5,-500.5 1012.5,-481.5 893.5,-481.5"/>
<text text-anchor="middle" x="953" y="-488.5" font-family="Helvetica,sans-Serif" font-size="10.00">odp/api/spec/queue.h</text>
</a>
</g>
</g>
<!-- Node20&#45;&gt;Node23 -->
<g id="edge33" class="edge"><title>Node20&#45;&gt;Node23</title>
<path fill="none" stroke="midnightblue" d="M1193.68,-537.444C1143.37,-527.944 1062.16,-512.611 1008.19,-502.42"/>
<polygon fill="midnightblue" stroke="midnightblue" points="1008.58,-498.933 998.106,-500.516 1007.28,-505.811 1008.58,-498.933"/>
</g>
<!-- Node23&#45;&gt;Node3 -->
<g id="edge34" class="edge"><title>Node23&#45;&gt;Node3</title>
<path fill="none" stroke="midnightblue" d="M954.082,-481.446C956.65,-461.595 963.536,-410.895 972,-369 987.732,-291.129 1015,-274.944 1015,-195.5 1015,-195.5 1015,-195.5 1015,-132 1015,-89.4535 981.942,-48.6318 960.94,-26.9912"/>
<polygon fill="midnightblue" stroke="midnightblue" points="963.136,-24.2389 953.575,-19.6728 958.202,-29.2042 963.136,-24.2389"/>
</g>
<!-- Node23&#45;&gt;Node8 -->
<g id="edge69" class="edge"><title>Node23&#45;&gt;Node8</title>
<path fill="none" stroke="midnightblue" d="M893.295,-482.975C755.515,-463.832 411.527,-398.881 207,-210 154.966,-161.946 121.241,-110.894 166,-56 181.899,-36.5005 243.243,-24.4844 291.983,-17.8294"/>
<polygon fill="midnightblue" stroke="midnightblue" points="292.714,-21.2637 302.172,-16.49 291.801,-14.3234 292.714,-21.2637"/>
</g>
<!-- Node24 -->
<g id="node25" class="node"><title>Node24</title>
<g id="a_node25"><a xlink:href="event_8h.html" target="_top" xlink:title="ODP event. ">
<polygon fill="white" stroke="black" points="993.5,-425.5 993.5,-444.5 1084.5,-444.5 1084.5,-425.5 993.5,-425.5"/>
<text text-anchor="middle" x="1039" y="-432.5" font-family="Helvetica,sans-Serif" font-size="10.00">odp/api/event.h</text>
</a>
</g>
</g>
<!-- Node23&#45;&gt;Node24 -->
<g id="edge35" class="edge"><title>Node23&#45;&gt;Node24</title>
<path fill="none" stroke="midnightblue" d="M966.817,-481.324C980.233,-472.9 1000.82,-459.971 1016.59,-450.074"/>
<polygon fill="midnightblue" stroke="midnightblue" points="1018.61,-452.936 1025.22,-444.655 1014.89,-447.008 1018.61,-452.936"/>
</g>
<!-- Node31 -->
<g id="node32" class="node"><title>Node31</title>
<g id="a_node32"><a xlink:href="queue__types_8h.html" target="_top" xlink:title="ODP queue types. ">
<polygon fill="white" stroke="black" points="825,-302.5 825,-332.5 935,-332.5 935,-302.5 825,-302.5"/>
<text text-anchor="start" x="833" y="-320.5" font-family="Helvetica,sans-Serif" font-size="10.00">odp/api/spec/queue</text>
<text text-anchor="middle" x="880" y="-309.5" font-family="Helvetica,sans-Serif" font-size="10.00">_types.h</text>
</a>
</g>
</g>
<!-- Node23&#45;&gt;Node31 -->
<g id="edge56" class="edge"><title>Node23&#45;&gt;Node31</title>
<path fill="none" stroke="midnightblue" d="M949.28,-481.26C938.424,-455.757 906.521,-380.807 890.069,-342.154"/>
<polygon fill="midnightblue" stroke="midnightblue" points="893.191,-340.553 886.054,-332.723 886.75,-343.295 893.191,-340.553"/>
</g>
<!-- Node24&#45;&gt;Node21 -->
<g id="edge36" class="edge"><title>Node24&#45;&gt;Node21</title>
<path fill="none" stroke="midnightblue" d="M1052.45,-425.191C1066.06,-416.229 1087.64,-401.868 1106,-389 1159.65,-351.395 1170.52,-338.387 1225,-302 1241.41,-291.04 1260.45,-279.489 1275.1,-270.835"/>
<polygon fill="midnightblue" stroke="midnightblue" points="1277.17,-273.679 1284.03,-265.601 1273.63,-267.64 1277.17,-273.679"/>
</g>
<!-- Node25 -->
<g id="node26" class="node"><title>Node25</title>
<g id="a_node26"><a xlink:href="spec_2event_8h.html" target="_top" xlink:title="ODP event. ">
<polygon fill="white" stroke="black" points="981,-369.5 981,-388.5 1097,-388.5 1097,-369.5 981,-369.5"/>
<text text-anchor="middle" x="1039" y="-376.5" font-family="Helvetica,sans-Serif" font-size="10.00">odp/api/spec/event.h</text>
</a>
</g>
</g>
<!-- Node24&#45;&gt;Node25 -->
<g id="edge37" class="edge"><title>Node24&#45;&gt;Node25</title>
<path fill="none" stroke="midnightblue" d="M1039,-425.083C1039,-418.006 1039,-407.861 1039,-398.986"/>
<polygon fill="midnightblue" stroke="midnightblue" points="1042.5,-398.751 1039,-388.751 1035.5,-398.751 1042.5,-398.751"/>
</g>
<!-- Node25&#45;&gt;Node3 -->
<g id="edge38" class="edge"><title>Node25&#45;&gt;Node3</title>
<path fill="none" stroke="midnightblue" d="M1036.77,-369.449C1034.54,-360.453 1031.27,-345.844 1030,-333 1023.89,-271.341 1053,-257.46 1053,-195.5 1053,-195.5 1053,-195.5 1053,-132 1053,-96.578 1051.68,-83.2085 1029,-56 1016.67,-41.2044 998.188,-30.6055 981.608,-23.4255"/>
<polygon fill="midnightblue" stroke="midnightblue" points="982.708,-20.0951 972.126,-19.5872 980.082,-26.5837 982.708,-20.0951"/>
</g>
<!-- Node25&#45;&gt;Node8 -->
<g id="edge55" class="edge"><title>Node25&#45;&gt;Node8</title>
<path fill="none" stroke="midnightblue" d="M980.767,-376.652C835.411,-372.006 462.389,-351.8 380,-266 316.835,-200.22 339.474,-76.1748 350.976,-29.439"/>
<polygon fill="midnightblue" stroke="midnightblue" points="354.423,-30.0892 353.539,-19.5313 347.646,-28.3356 354.423,-30.0892"/>
</g>
<!-- Node25&#45;&gt;Node26 -->
<g id="edge39" class="edge"><title>Node25&#45;&gt;Node26</title>
<path fill="none" stroke="midnightblue" d="M1045.88,-369.475C1053.15,-360.462 1064.8,-346.025 1073.84,-334.812"/>
<polygon fill="midnightblue" stroke="midnightblue" points="1076.58,-336.99 1080.14,-327.009 1071.13,-332.595 1076.58,-336.99"/>
</g>
<!-- Node26&#45;&gt;Node4 -->
<g id="edge40" class="edge"><title>Node26&#45;&gt;Node4</title>
<path fill="none" stroke="midnightblue" d="M1087.69,-307.62C1089.26,-293.092 1094.27,-264.058 1110,-246 1158.26,-190.58 1240.23,-160.011 1292.16,-145.321"/>
<polygon fill="midnightblue" stroke="midnightblue" points="1293.41,-148.609 1302.13,-142.592 1291.56,-141.857 1293.41,-148.609"/>
</g>
<!-- Node26&#45;&gt;Node10 -->
<g id="edge45" class="edge"><title>Node26&#45;&gt;Node10</title>
<path fill="none" stroke="midnightblue" d="M1135.38,-308.782C1202.97,-298.001 1325.61,-278.437 1399.26,-266.689"/>
<polygon fill="midnightblue" stroke="midnightblue" points="1399.99,-270.116 1409.32,-265.085 1398.89,-263.204 1399.99,-270.116"/>
</g>
<!-- Node26&#45;&gt;Node12 -->
<g id="edge43" class="edge"><title>Node26&#45;&gt;Node12</title>
<path fill="none" stroke="midnightblue" d="M1038.73,-311.076C1011.03,-308.096 975.592,-304.508 944,-302 679.093,-280.967 363.017,-265.85 227.756,-259.853"/>
<polygon fill="midnightblue" stroke="midnightblue" points="227.701,-256.347 217.557,-259.402 227.393,-263.34 227.701,-256.347"/>
</g>
<!-- Node26&#45;&gt;Node13 -->
<g id="edge42" class="edge"><title>Node26&#45;&gt;Node13</title>
<path fill="none" stroke="midnightblue" d="M1038.87,-310.851C961.927,-301.805 806.172,-283.43 662.986,-266.115"/>
<polygon fill="midnightblue" stroke="midnightblue" points="663.047,-262.597 652.699,-264.87 662.206,-269.546 663.047,-262.597"/>
</g>
<!-- Node26&#45;&gt;Node21 -->
<g id="edge41" class="edge"><title>Node26&#45;&gt;Node21</title>
<path fill="none" stroke="midnightblue" d="M1117.37,-307.975C1154.61,-297.526 1217.81,-279.787 1258.98,-268.233"/>
<polygon fill="midnightblue" stroke="midnightblue" points="1260,-271.581 1268.68,-265.509 1258.11,-264.842 1260,-271.581"/>
</g>
<!-- Node26&#45;&gt;Node22 -->
<g id="edge44" class="edge"><title>Node26&#45;&gt;Node22</title>
<path fill="none" stroke="midnightblue" d="M1099.32,-307.975C1113.12,-298.431 1135.7,-282.807 1152.23,-271.368"/>
<polygon fill="midnightblue" stroke="midnightblue" points="1154.47,-274.077 1160.7,-265.509 1150.49,-268.32 1154.47,-274.077"/>
</g>
<!-- Node27 -->
<g id="node28" class="node"><title>Node27</title>
<g id="a_node28"><a xlink:href="spec_2packet_8h.html" target="_top" xlink:title="ODP packet descriptor. ">
<polygon fill="white" stroke="black" points="671,-246.5 671,-265.5 793,-265.5 793,-246.5 671,-246.5"/>
<text text-anchor="middle" x="732" y="-253.5" font-family="Helvetica,sans-Serif" font-size="10.00">odp/api/spec/packet.h</text>
</a>
</g>
</g>
<!-- Node26&#45;&gt;Node27 -->
<g id="edge46" class="edge"><title>Node26&#45;&gt;Node27</title>
<path fill="none" stroke="midnightblue" d="M1038.75,-308.414C974.879,-297.708 862.232,-278.828 792.664,-267.168"/>
<polygon fill="midnightblue" stroke="midnightblue" points="793.165,-263.703 782.724,-265.502 792.008,-270.607 793.165,-263.703"/>
</g>
<!-- Node27&#45;&gt;Node3 -->
<g id="edge47" class="edge"><title>Node27&#45;&gt;Node3</title>
<path fill="none" stroke="midnightblue" d="M743.69,-246.386C774.127,-223.462 856.934,-157.856 907,-87 919.798,-68.8876 930.38,-45.6745 936.902,-29.6949"/>
<polygon fill="midnightblue" stroke="midnightblue" points="940.337,-30.5263 940.747,-19.9393 933.824,-27.9599 940.337,-30.5263"/>
</g>
<!-- Node27&#45;&gt;Node8 -->
<g id="edge54" class="edge"><title>Node27&#45;&gt;Node8</title>
<path fill="none" stroke="midnightblue" d="M676.259,-246.493C618.694,-237.281 533.029,-222.261 502,-210 449.817,-189.38 428.926,-187.691 395,-143 368.956,-108.693 360.253,-57.257 357.382,-29.8212"/>
<polygon fill="midnightblue" stroke="midnightblue" points="360.85,-29.3019 356.476,-19.6522 353.878,-29.9236 360.85,-29.3019"/>
</g>
<!-- Node27&#45;&gt;Node28 -->
<g id="edge48" class="edge"><title>Node27&#45;&gt;Node28</title>
<path fill="none" stroke="midnightblue" d="M706.497,-246.475C675.699,-236.18 623.735,-218.81 589.152,-207.25"/>
<polygon fill="midnightblue" stroke="midnightblue" points="590.05,-203.86 579.456,-204.009 587.83,-210.499 590.05,-203.86"/>
</g>
<!-- Node28&#45;&gt;Node4 -->
<g id="edge49" class="edge"><title>Node28&#45;&gt;Node4</title>
<path fill="none" stroke="midnightblue" d="M597.398,-185.738C612.432,-183.275 629.419,-180.742 645,-179 875.834,-153.193 1151.58,-140.778 1274.86,-136.188"/>
<polygon fill="midnightblue" stroke="midnightblue" points="1275.02,-139.684 1284.89,-135.819 1274.77,-132.689 1275.02,-139.684"/>
</g>
<!-- Node29 -->
<g id="node30" class="node"><title>Node29</title>
<polygon fill="white" stroke="#bfbfbf" points="403.5,-123.5 403.5,-142.5 506.5,-142.5 506.5,-123.5 403.5,-123.5"/>
<text text-anchor="middle" x="455" y="-130.5" font-family="Helvetica,sans-Serif" font-size="10.00">odp/api/abi/time.h</text>
</g>
<!-- Node28&#45;&gt;Node29 -->
<g id="edge50" class="edge"><title>Node28&#45;&gt;Node29</title>
<path fill="none" stroke="midnightblue" d="M539.816,-184.975C523.642,-175.255 496.974,-159.227 477.857,-147.737"/>
<polygon fill="midnightblue" stroke="midnightblue" points="479.532,-144.661 469.158,-142.509 475.926,-150.66 479.532,-144.661"/>
</g>
<!-- Node30 -->
<g id="node31" class="node"><title>Node30</title>
<g id="a_node31"><a xlink:href="spec_2time_8h.html" target="_top" xlink:title="ODP time. ">
<polygon fill="white" stroke="black" points="441.5,-62 441.5,-81 552.5,-81 552.5,-62 441.5,-62"/>
<text text-anchor="middle" x="497" y="-69" font-family="Helvetica,sans-Serif" font-size="10.00">odp/api/spec/time.h</text>
</a>
</g>
</g>
<!-- Node28&#45;&gt;Node30 -->
<g id="edge51" class="edge"><title>Node28&#45;&gt;Node30</title>
<path fill="none" stroke="midnightblue" d="M549.901,-184.798C540.616,-165.089 517.827,-116.711 505.405,-90.342"/>
<polygon fill="midnightblue" stroke="midnightblue" points="508.49,-88.6781 501.062,-81.1232 502.158,-91.6612 508.49,-88.6781"/>
</g>
<!-- Node30&#45;&gt;Node3 -->
<g id="edge52" class="edge"><title>Node30&#45;&gt;Node3</title>
<path fill="none" stroke="midnightblue" d="M532.292,-61.9386C541.89,-59.7987 552.311,-57.6469 562,-56 671.471,-37.392 799.899,-23.9715 876.47,-16.8504"/>
<polygon fill="midnightblue" stroke="midnightblue" points="876.827,-20.3324 886.464,-15.9294 876.185,-13.362 876.827,-20.3324"/>
</g>
<!-- Node30&#45;&gt;Node8 -->
<g id="edge53" class="edge"><title>Node30&#45;&gt;Node8</title>
<path fill="none" stroke="midnightblue" d="M476.798,-61.9751C452.926,-51.9013 412.998,-35.0525 385.627,-23.5023"/>
<polygon fill="midnightblue" stroke="midnightblue" points="386.738,-20.1724 376.164,-19.5091 384.017,-26.6217 386.738,-20.1724"/>
</g>
<!-- Node31&#45;&gt;Node3 -->
<g id="edge57" class="edge"><title>Node31&#45;&gt;Node3</title>
<path fill="none" stroke="midnightblue" d="M912.605,-302.342C928.45,-293.92 946.504,-281.776 958,-266 977.112,-239.773 977,-227.951 977,-195.5 977,-195.5 977,-195.5 977,-132 977,-94.2354 961.853,-52.1029 952.083,-28.8547"/>
<polygon fill="midnightblue" stroke="midnightblue" points="955.248,-27.3562 948.046,-19.5854 948.83,-30.1512 955.248,-27.3562"/>
</g>
<!-- Node31&#45;&gt;Node8 -->
<g id="edge68" class="edge"><title>Node31&#45;&gt;Node8</title>
<path fill="none" stroke="midnightblue" d="M824.625,-315.298C711.567,-312.136 458.267,-301.227 380,-266 264.131,-213.848 108.495,-156.69 186,-56 199.146,-38.9218 249.496,-26.9942 292.017,-19.7303"/>
<polygon fill="midnightblue" stroke="midnightblue" points="292.772,-23.1532 302.069,-18.073 291.633,-16.2464 292.772,-23.1532"/>
</g>
<!-- Node31&#45;&gt;Node16 -->
<g id="edge67" class="edge"><title>Node31&#45;&gt;Node16</title>
<path fill="none" stroke="midnightblue" d="M824.848,-308.904C746.597,-298.126 603.37,-278.399 517.809,-266.615"/>
<polygon fill="midnightblue" stroke="midnightblue" points="518.053,-263.116 507.669,-265.218 517.098,-270.05 518.053,-263.116"/>
</g>
<!-- Node32 -->
<g id="node33" class="node"><title>Node32</title>
<g id="a_node33"><a xlink:href="schedule__types_8h.html" target="_top" xlink:title="ODP schedule. ">
<polygon fill="white" stroke="black" points="811,-246.5 811,-265.5 949,-265.5 949,-246.5 811,-246.5"/>
<text text-anchor="middle" x="880" y="-253.5" font-family="Helvetica,sans-Serif" font-size="10.00">odp/api/schedule_types.h</text>
</a>
</g>
</g>
<!-- Node31&#45;&gt;Node32 -->
<g id="edge58" class="edge"><title>Node31&#45;&gt;Node32</title>
<path fill="none" stroke="midnightblue" d="M880,-302.399C880,-294.466 880,-284.458 880,-275.858"/>
<polygon fill="midnightblue" stroke="midnightblue" points="883.5,-275.658 880,-265.658 876.5,-275.658 883.5,-275.658"/>
</g>
<!-- Node33 -->
<g id="node34" class="node"><title>Node33</title>
<polygon fill="white" stroke="#bfbfbf" points="833.5,-179.5 833.5,-209.5 948.5,-209.5 948.5,-179.5 833.5,-179.5"/>
<text text-anchor="start" x="841.5" y="-197.5" font-family="Helvetica,sans-Serif" font-size="10.00">odp/api/abi/schedule</text>
<text text-anchor="middle" x="891" y="-186.5" font-family="Helvetica,sans-Serif" font-size="10.00">_types.h</text>
</g>
<!-- Node32&#45;&gt;Node33 -->
<g id="edge59" class="edge"><title>Node32&#45;&gt;Node33</title>
<path fill="none" stroke="midnightblue" d="M881.576,-246.475C882.885,-239.396 884.812,-228.97 886.583,-219.39"/>
<polygon fill="midnightblue" stroke="midnightblue" points="890.031,-219.993 888.408,-209.523 883.148,-218.72 890.031,-219.993"/>
</g>
<!-- Node34 -->
<g id="node35" class="node"><title>Node34</title>
<g id="a_node35"><a xlink:href="spec_2schedule__types_8h.html" target="_top" xlink:title="ODP schedule types. ">
<polygon fill="white" stroke="black" points="653.5,-179.5 653.5,-209.5 776.5,-209.5 776.5,-179.5 653.5,-179.5"/>
<text text-anchor="start" x="661.5" y="-197.5" font-family="Helvetica,sans-Serif" font-size="10.00">odp/api/spec/schedule</text>
<text text-anchor="middle" x="715" y="-186.5" font-family="Helvetica,sans-Serif" font-size="10.00">_types.h</text>
</a>
</g>
</g>
<!-- Node32&#45;&gt;Node34 -->
<g id="edge60" class="edge"><title>Node32&#45;&gt;Node34</title>
<path fill="none" stroke="midnightblue" d="M856.36,-246.475C832.237,-237.776 794.107,-224.026 763.524,-212.998"/>
<polygon fill="midnightblue" stroke="midnightblue" points="764.482,-209.623 753.887,-209.523 762.107,-216.208 764.482,-209.623"/>
</g>
<!-- Node34&#45;&gt;Node3 -->
<g id="edge61" class="edge"><title>Node34&#45;&gt;Node3</title>
<path fill="none" stroke="midnightblue" d="M750.317,-179.371C770.506,-170.454 795.756,-157.829 816,-143 863.661,-108.088 909.31,-54.6629 930.945,-27.7411"/>
<polygon fill="midnightblue" stroke="midnightblue" points="933.857,-29.7018 937.33,-19.6922 928.373,-25.3516 933.857,-29.7018"/>
</g>
<!-- Node34&#45;&gt;Node8 -->
<g id="edge66" class="edge"><title>Node34&#45;&gt;Node8</title>
<path fill="none" stroke="midnightblue" d="M674.903,-179.401C602.199,-153.684 454.149,-100.555 433,-87 407.414,-70.601 383.412,-44.5729 369.212,-27.6378"/>
<polygon fill="midnightblue" stroke="midnightblue" points="371.766,-25.2317 362.724,-19.7099 366.349,-29.6652 371.766,-25.2317"/>
</g>
<!-- Node35 -->
<g id="node36" class="node"><title>Node35</title>
<g id="a_node36"><a xlink:href="support_8h.html" target="_top" xlink:title="ODP support API &#45; platform specific header. ">
<polygon fill="white" stroke="black" points="705.5,-123.5 705.5,-142.5 806.5,-142.5 806.5,-123.5 705.5,-123.5"/>
<text text-anchor="middle" x="756" y="-130.5" font-family="Helvetica,sans-Serif" font-size="10.00">odp/api/support.h</text>
</a>
</g>
</g>
<!-- Node34&#45;&gt;Node35 -->
<g id="edge62" class="edge"><title>Node34&#45;&gt;Node35</title>
<path fill="none" stroke="midnightblue" d="M724.716,-179.399C730.551,-170.932 738.016,-160.099 744.19,-151.139"/>
<polygon fill="midnightblue" stroke="midnightblue" points="747.242,-152.878 750.034,-142.658 741.478,-148.906 747.242,-152.878"/>
</g>
<!-- Node36 -->
<g id="node37" class="node"><title>Node36</title>
<g id="a_node37"><a xlink:href="spec_2support_8h.html" target="_top" xlink:title="ODP support API. ">
<polygon fill="white" stroke="black" points="733,-62 733,-81 859,-81 859,-62 733,-62"/>
<text text-anchor="middle" x="796" y="-69" font-family="Helvetica,sans-Serif" font-size="10.00">odp/api/spec/support.h</text>
</a>
</g>
</g>
<!-- Node35&#45;&gt;Node36 -->
<g id="edge63" class="edge"><title>Node35&#45;&gt;Node36</title>
<path fill="none" stroke="midnightblue" d="M761.731,-123.475C767.672,-114.638 777.117,-100.589 784.588,-89.475"/>
<polygon fill="midnightblue" stroke="midnightblue" points="787.605,-91.2608 790.28,-81.0091 781.796,-87.3554 787.605,-91.2608"/>
</g>
<!-- Node36&#45;&gt;Node3 -->
<g id="edge64" class="edge"><title>Node36&#45;&gt;Node3</title>
<path fill="none" stroke="midnightblue" d="M817.205,-61.9751C842.372,-51.8571 884.54,-34.9046 913.279,-23.3507"/>
<polygon fill="midnightblue" stroke="midnightblue" points="914.862,-26.4867 922.835,-19.5091 912.251,-19.9919 914.862,-26.4867"/>
</g>
<!-- Node36&#45;&gt;Node8 -->
<g id="edge65" class="edge"><title>Node36&#45;&gt;Node8</title>
<path fill="none" stroke="midnightblue" d="M756.488,-61.9728C745.96,-59.8571 734.574,-57.7086 724,-56 617.647,-38.8146 493.053,-24.8649 419.534,-17.2662"/>
<polygon fill="midnightblue" stroke="midnightblue" points="419.812,-13.7764 409.507,-16.2365 419.097,-20.7398 419.812,-13.7764"/>
</g>
</g>
</svg>
