<?xml version="1.0" encoding="UTF-8" standalone="no"?>
<!DOCTYPE svg PUBLIC "-//W3C//DTD SVG 1.1//EN"
 "http://www.w3.org/Graphics/SVG/1.1/DTD/svg11.dtd">
<!-- Generated by graphviz version 2.38.0 (20140413.2041)
 -->
<!-- Title: version.h Pages: 1 -->
<svg width="322pt" height="140pt"
 viewBox="0.00 0.00 321.50 140.00" xmlns="http://www.w3.org/2000/svg" xmlns:xlink="http://www.w3.org/1999/xlink">
<g id="graph0" class="graph" transform="scale(1 1) rotate(0) translate(4 136)">
<title>version.h</title>
<polygon fill="white" stroke="none" points="-4,4 -4,-136 317.5,-136 317.5,4 -4,4"/>
<!-- Node0 -->
<g id="node1" class="node"><title>Node0</title>
<polygon fill="#bfbfbf" stroke="black" points="97,-112.5 97,-131.5 157,-131.5 157,-112.5 97,-112.5"/>
<text text-anchor="middle" x="127" y="-119.5" font-family="Helvetica,sans-Serif" font-size="10.00">version.h</text>
</g>
<!-- Node1 -->
<g id="node2" class="node"><title>Node1</title>
<polygon fill="white" stroke="#bfbfbf" points="-7.10543e-15,-56.5 -7.10543e-15,-75.5 116,-75.5 116,-56.5 -7.10543e-15,-56.5"/>
<text text-anchor="middle" x="58" y="-63.5" font-family="Helvetica,sans-Serif" font-size="10.00">odp/api/abi/version.h</text>
</g>
<!-- Node0&#45;&gt;Node1 -->
<g id="edge1" class="edge"><title>Node0&#45;&gt;Node1</title>
<path fill="none" stroke="midnightblue" d="M115.914,-112.324C105.514,-104.185 89.7394,-91.8395 77.2784,-82.0874"/>
<polygon fill="midnightblue" stroke="midnightblue" points="79.3199,-79.2407 69.2878,-75.8339 75.0057,-84.7533 79.3199,-79.2407"/>
</g>
<!-- Node2 -->
<g id="node3" class="node"><title>Node2</title>
<g id="a_node3"><a xlink:href="spec_2version_8h.html" target="_top" xlink:title="ODP version. ">
<polygon fill="white" stroke="black" points="134,-56.5 134,-75.5 258,-75.5 258,-56.5 134,-56.5"/>
<text text-anchor="middle" x="196" y="-63.5" font-family="Helvetica,sans-Serif" font-size="10.00">odp/api/spec/version.h</text>
</a>
</g>
</g>
<!-- Node0&#45;&gt;Node2 -->
<g id="edge2" class="edge"><title>Node0&#45;&gt;Node2</title>
<path fill="none" stroke="midnightblue" d="M138.086,-112.324C148.486,-104.185 164.261,-91.8395 176.722,-82.0874"/>
<polygon fill="midnightblue" stroke="midnightblue" points="178.994,-84.7533 184.712,-75.8339 174.68,-79.2407 178.994,-84.7533"/>
</g>
<!-- Node3 -->
<g id="node4" class="node"><title>Node3</title>
<polygon fill="white" stroke="#bfbfbf" points="73.5,-0.5 73.5,-19.5 188.5,-19.5 188.5,-0.5 73.5,-0.5"/>
<text text-anchor="middle" x="131" y="-7.5" font-family="Helvetica,sans-Serif" font-size="10.00">odp/visibility_begin.h</text>
</g>
<!-- Node2&#45;&gt;Node3 -->
<g id="edge3" class="edge"><title>Node2&#45;&gt;Node3</title>
<path fill="none" stroke="midnightblue" d="M185.557,-56.324C175.854,-48.2631 161.185,-36.0765 149.5,-26.3695"/>
<polygon fill="midnightblue" stroke="midnightblue" points="151.562,-23.532 141.633,-19.8339 147.089,-28.9163 151.562,-23.532"/>
</g>
<!-- Node4 -->
<g id="node5" class="node"><title>Node4</title>
<polygon fill="white" stroke="#bfbfbf" points="206.5,-0.5 206.5,-19.5 313.5,-19.5 313.5,-0.5 206.5,-0.5"/>
<text text-anchor="middle" x="260" y="-7.5" font-family="Helvetica,sans-Serif" font-size="10.00">odp/visibility_end.h</text>
</g>
<!-- Node2&#45;&gt;Node4 -->
<g id="edge4" class="edge"><title>Node2&#45;&gt;Node4</title>
<path fill="none" stroke="midnightblue" d="M206.283,-56.324C215.836,-48.2631 230.28,-36.0765 241.784,-26.3695"/>
<polygon fill="midnightblue" stroke="midnightblue" points="244.144,-28.9577 249.53,-19.8339 239.63,-23.6076 244.144,-28.9577"/>
</g>
</g>
</svg>
