<?xml version="1.0" encoding="UTF-8" standalone="no"?>
<!DOCTYPE svg PUBLIC "-//W3C//DTD SVG 1.1//EN"
 "http://www.w3.org/Graphics/SVG/1.1/DTD/svg11.dtd">
<!-- Generated by graphviz version 2.38.0 (20140413.2041)
 -->
<!-- Title: chksum.h Pages: 1 -->
<svg width="142pt" height="140pt"
 viewBox="0.00 0.00 142.00 140.00" xmlns="http://www.w3.org/2000/svg" xmlns:xlink="http://www.w3.org/1999/xlink">
<g id="graph0" class="graph" transform="scale(1 1) rotate(0) translate(4 136)">
<title>chksum.h</title>
<polygon fill="white" stroke="none" points="-4,4 -4,-136 138,-136 138,4 -4,4"/>
<!-- Node2 -->
<g id="node1" class="node"><title>Node2</title>
<polygon fill="#bfbfbf" stroke="black" points="30.5,-112.5 30.5,-131.5 93.5,-131.5 93.5,-112.5 30.5,-112.5"/>
<text text-anchor="middle" x="62" y="-119.5" font-family="Helvetica,sans-Serif" font-size="10.00">chksum.h</text>
</g>
<!-- Node3 -->
<g id="node2" class="node"><title>Node3</title>
<g id="a_node2"><a xlink:href="ip_8h.html" target="_top" xlink:title="ODP IP header. ">
<polygon fill="white" stroke="black" points="0,-56.5 0,-75.5 34,-75.5 34,-56.5 0,-56.5"/>
<text text-anchor="middle" x="17" y="-63.5" font-family="Helvetica,sans-Serif" font-size="10.00">ip.h</text>
</a>
</g>
</g>
<!-- Node2&#45;&gt;Node3 -->
<g id="edge1" class="edge"><title>Node2&#45;&gt;Node3</title>
<path fill="none" stroke="midnightblue" d="M47.9533,-104.144C40.1131,-94.7357 30.6705,-83.4046 24.2926,-75.7511"/>
<polygon fill="midnightblue" stroke="midnightblue" points="45.4785,-106.641 54.5692,-112.083 50.8561,-102.16 45.4785,-106.641"/>
</g>
<!-- Node4 -->
<g id="node3" class="node"><title>Node4</title>
<g id="a_node3"><a xlink:href="odph__api_8h.html" target="_top" xlink:title="The OpenDataPlane helper API. ">
<polygon fill="white" stroke="black" points="27.5,-0.5 27.5,-19.5 96.5,-19.5 96.5,-0.5 27.5,-0.5"/>
<text text-anchor="middle" x="62" y="-7.5" font-family="Helvetica,sans-Serif" font-size="10.00">odph_api.h</text>
</a>
</g>
</g>
<!-- Node2&#45;&gt;Node4 -->
<g id="edge3" class="edge"><title>Node2&#45;&gt;Node4</title>
<path fill="none" stroke="midnightblue" d="M62,-102.348C62,-78.2538 62,-37.3079 62,-19.5914"/>
<polygon fill="midnightblue" stroke="midnightblue" points="58.5001,-102.368 62,-112.368 65.5001,-102.369 58.5001,-102.368"/>
</g>
<!-- Node5 -->
<g id="node4" class="node"><title>Node5</title>
<g id="a_node4"><a xlink:href="udp_8h.html" target="_top" xlink:title="ODP UDP header. ">
<polygon fill="white" stroke="black" points="90,-56.5 90,-75.5 134,-75.5 134,-56.5 90,-56.5"/>
<text text-anchor="middle" x="112" y="-63.5" font-family="Helvetica,sans-Serif" font-size="10.00">udp.h</text>
</a>
</g>
</g>
<!-- Node2&#45;&gt;Node5 -->
<g id="edge4" class="edge"><title>Node2&#45;&gt;Node5</title>
<path fill="none" stroke="midnightblue" d="M77.0763,-104.718C85.8891,-95.1997 96.6659,-83.5608 103.897,-75.7511"/>
<polygon fill="midnightblue" stroke="midnightblue" points="74.4824,-102.367 70.2565,-112.083 79.6188,-107.123 74.4824,-102.367"/>
</g>
<!-- Node3&#45;&gt;Node4 -->
<g id="edge2" class="edge"><title>Node3&#45;&gt;Node4</title>
<path fill="none" stroke="midnightblue" d="M31.0467,-48.144C38.8869,-38.7357 48.3295,-27.4046 54.7074,-19.7511"/>
<polygon fill="midnightblue" stroke="midnightblue" points="28.1439,-46.1601 24.4308,-56.083 33.5215,-50.6414 28.1439,-46.1601"/>
</g>
<!-- Node5&#45;&gt;Node4 -->
<g id="edge5" class="edge"><title>Node5&#45;&gt;Node4</title>
<path fill="none" stroke="midnightblue" d="M96.9237,-48.7175C88.1109,-39.1997 77.3341,-27.5608 70.1028,-19.7511"/>
<polygon fill="midnightblue" stroke="midnightblue" points="94.3812,-51.1233 103.744,-56.083 99.5176,-46.3674 94.3812,-51.1233"/>
</g>
</g>
</svg>
