<?xml version="1.0" encoding="UTF-8" standalone="no"?>
<!DOCTYPE svg PUBLIC "-//W3C//DTD SVG 1.1//EN"
 "http://www.w3.org/Graphics/SVG/1.1/DTD/svg11.dtd">
<!-- Generated by graphviz version 2.38.0 (20140413.2041)
 -->
<!-- Title: odph_udp_chksum_verify Pages: 1 -->
<svg width="321pt" height="104pt"
 viewBox="0.00 0.00 321.00 104.00" xmlns="http://www.w3.org/2000/svg" xmlns:xlink="http://www.w3.org/1999/xlink">
<g id="graph0" class="graph" transform="scale(1 1) rotate(0) translate(4 100)">
<title>odph_udp_chksum_verify</title>
<polygon fill="white" stroke="none" points="-4,4 -4,-100 317,-100 317,4 -4,4"/>
<!-- Node7 -->
<g id="node1" class="node"><title>Node7</title>
<polygon fill="#bfbfbf" stroke="black" points="0,-38.5 0,-57.5 137,-57.5 137,-38.5 0,-38.5"/>
<text text-anchor="middle" x="68.5" y="-45.5" font-family="Helvetica,sans-Serif" font-size="10.00">odph_udp_chksum_verify</text>
</g>
<!-- Node8 -->
<g id="node2" class="node"><title>Node8</title>
<g id="a_node2"><a xlink:href="group__odph__chksum.html#ga7025c175c6cdb18013aa4499877d0af8" target="_top" xlink:title="Generate SCTP checksum. ">
<polygon fill="white" stroke="black" points="178.5,-76.5 178.5,-95.5 307.5,-95.5 307.5,-76.5 178.5,-76.5"/>
<text text-anchor="middle" x="243" y="-83.5" font-family="Helvetica,sans-Serif" font-size="10.00">odph_sctp_chksum_set</text>
</a>
</g>
</g>
<!-- Node7&#45;&gt;Node8 -->
<g id="edge1" class="edge"><title>Node7&#45;&gt;Node8</title>
<path fill="none" stroke="midnightblue" d="M113.029,-57.589C136.1,-62.6713 164.627,-68.9554 188.981,-74.3203"/>
<polygon fill="midnightblue" stroke="midnightblue" points="188.265,-77.7466 198.784,-76.4799 189.771,-70.9105 188.265,-77.7466"/>
</g>
<!-- Node9 -->
<g id="node3" class="node"><title>Node9</title>
<g id="a_node3"><a xlink:href="group__odph__chksum.html#gac8538fd751fa9df8ac73539fd6a6638d" target="_top" xlink:title="Verify SCTP checksum. ">
<polygon fill="white" stroke="black" points="173,-38.5 173,-57.5 313,-57.5 313,-38.5 173,-38.5"/>
<text text-anchor="middle" x="243" y="-45.5" font-family="Helvetica,sans-Serif" font-size="10.00">odph_sctp_chksum_verify</text>
</a>
</g>
</g>
<!-- Node7&#45;&gt;Node9 -->
<g id="edge2" class="edge"><title>Node7&#45;&gt;Node9</title>
<path fill="none" stroke="midnightblue" d="M137.181,-48C145.502,-48 154.065,-48 162.54,-48"/>
<polygon fill="midnightblue" stroke="midnightblue" points="162.812,-51.5001 172.812,-48 162.812,-44.5001 162.812,-51.5001"/>
</g>
<!-- Node10 -->
<g id="node4" class="node"><title>Node10</title>
<g id="a_node4"><a xlink:href="group__odph__chksum.html#gac208183f2a33d5c60ecc2d12bb02351a" target="_top" xlink:title="General Purpose TCP/UDP checksum function. ">
<polygon fill="white" stroke="black" points="179.5,-0.5 179.5,-19.5 306.5,-19.5 306.5,-0.5 179.5,-0.5"/>
<text text-anchor="middle" x="243" y="-7.5" font-family="Helvetica,sans-Serif" font-size="10.00">odph_udp_tcp_chksum</text>
</a>
</g>
</g>
<!-- Node7&#45;&gt;Node10 -->
<g id="edge3" class="edge"><title>Node7&#45;&gt;Node10</title>
<path fill="none" stroke="midnightblue" d="M113.029,-38.411C136.1,-33.3287 164.627,-27.0446 188.981,-21.6797"/>
<polygon fill="midnightblue" stroke="midnightblue" points="189.771,-25.0895 198.784,-19.5201 188.265,-18.2534 189.771,-25.0895"/>
</g>
</g>
</svg>
