<?xml version="1.0" encoding="UTF-8" standalone="no"?>
<!DOCTYPE svg PUBLIC "-//W3C//DTD SVG 1.1//EN"
 "http://www.w3.org/Graphics/SVG/1.1/DTD/svg11.dtd">
<!-- Generated by graphviz version 2.38.0 (20140413.2041)
 -->
<!-- Title: odph_ipv4_udp_chksum Pages: 1 -->
<svg width="302pt" height="66pt"
 viewBox="0.00 0.00 302.00 66.00" xmlns="http://www.w3.org/2000/svg" xmlns:xlink="http://www.w3.org/1999/xlink">
<g id="graph0" class="graph" transform="scale(1 1) rotate(0) translate(4 62)">
<title>odph_ipv4_udp_chksum</title>
<polygon fill="white" stroke="none" points="-4,4 -4,-62 298,-62 298,4 -4,4"/>
<!-- Node17 -->
<g id="node1" class="node"><title>Node17</title>
<polygon fill="#bfbfbf" stroke="black" points="0,-19.5 0,-38.5 131,-38.5 131,-19.5 0,-19.5"/>
<text text-anchor="middle" x="65.5" y="-26.5" font-family="Helvetica,sans-Serif" font-size="10.00">odph_ipv4_udp_chksum</text>
</g>
<!-- Node18 -->
<g id="node2" class="node"><title>Node18</title>
<g id="a_node2"><a xlink:href="group__odph__header.html#ga4823ba6bb3e3ceed03846da7a064de2c" target="_top" xlink:title="ODP_STATIC_ASSERT">
<polygon fill="white" stroke="black" points="172.5,-38.5 172.5,-57.5 288.5,-57.5 288.5,-38.5 172.5,-38.5"/>
<text text-anchor="middle" x="230.5" y="-45.5" font-family="Helvetica,sans-Serif" font-size="10.00">ODP_STATIC_ASSERT</text>
</a>
</g>
</g>
<!-- Node17&#45;&gt;Node18 -->
<g id="edge1" class="edge"><title>Node17&#45;&gt;Node18</title>
<path fill="none" stroke="midnightblue" d="M131.39,-36.5639C141.578,-37.7514 152.127,-38.9811 162.364,-40.1743"/>
<polygon fill="midnightblue" stroke="midnightblue" points="162.134,-43.6711 172.472,-41.3525 162.944,-36.7182 162.134,-43.6711"/>
</g>
<!-- Node19 -->
<g id="node3" class="node"><title>Node19</title>
<g id="a_node3"><a xlink:href="group__odph__chksum.html#gac208183f2a33d5c60ecc2d12bb02351a" target="_top" xlink:title="General Purpose TCP/UDP checksum function. ">
<polygon fill="white" stroke="black" points="167,-0.5 167,-19.5 294,-19.5 294,-0.5 167,-0.5"/>
<text text-anchor="middle" x="230.5" y="-7.5" font-family="Helvetica,sans-Serif" font-size="10.00">odph_udp_tcp_chksum</text>
</a>
</g>
</g>
<!-- Node17&#45;&gt;Node19 -->
<g id="edge2" class="edge"><title>Node17&#45;&gt;Node19</title>
<path fill="none" stroke="midnightblue" d="M131.39,-21.4361C139.813,-20.4543 148.483,-19.4436 157.02,-18.4486"/>
<polygon fill="midnightblue" stroke="midnightblue" points="157.43,-21.9246 166.957,-17.2903 156.619,-14.9717 157.43,-21.9246"/>
</g>
</g>
</svg>
