<?xml version="1.0" encoding="UTF-8" standalone="no"?>
<!DOCTYPE svg PUBLIC "-//W3C//DTD SVG 1.1//EN"
 "http://www.w3.org/Graphics/SVG/1.1/DTD/svg11.dtd">
<!-- Generated by graphviz version 2.38.0 (20140413.2041)
 -->
<!-- Title: ip.h Pages: 1 -->
<svg width="213pt" height="140pt"
 viewBox="0.00 0.00 213.00 140.00" xmlns="http://www.w3.org/2000/svg" xmlns:xlink="http://www.w3.org/1999/xlink">
<g id="graph0" class="graph" transform="scale(1 1) rotate(0) translate(4 136)">
<title>ip.h</title>
<polygon fill="white" stroke="none" points="-4,4 -4,-136 209,-136 209,4 -4,4"/>
<!-- Node0 -->
<g id="node1" class="node"><title>Node0</title>
<polygon fill="#bfbfbf" stroke="black" points="58.5,-112.5 58.5,-131.5 92.5,-131.5 92.5,-112.5 58.5,-112.5"/>
<text text-anchor="middle" x="75.5" y="-119.5" font-family="Helvetica,sans-Serif" font-size="10.00">ip.h</text>
</g>
<!-- Node1 -->
<g id="node2" class="node"><title>Node1</title>
<polygon fill="white" stroke="#bfbfbf" points="0,-0.5 0,-19.5 63,-19.5 63,-0.5 0,-0.5"/>
<text text-anchor="middle" x="31.5" y="-7.5" font-family="Helvetica,sans-Serif" font-size="10.00">odp_api.h</text>
</g>
<!-- Node0&#45;&gt;Node1 -->
<g id="edge1" class="edge"><title>Node0&#45;&gt;Node1</title>
<path fill="none" stroke="midnightblue" d="M58.1992,-115.054C41.8058,-108.385 18.1547,-95.8274 7.5,-76 -0.827752,-60.5029 8.19251,-41.4983 17.4573,-28.0516"/>
<polygon fill="midnightblue" stroke="midnightblue" points="20.492,-29.8392 23.7002,-19.7417 14.8954,-25.6346 20.492,-29.8392"/>
</g>
<!-- Node2 -->
<g id="node3" class="node"><title>Node2</title>
<g id="a_node3"><a xlink:href="chksum_8h.html" target="_top" xlink:title="ODP checksum helper. ">
<polygon fill="white" stroke="black" points="17,-56.5 17,-75.5 134,-75.5 134,-56.5 17,-56.5"/>
<text text-anchor="middle" x="75.5" y="-63.5" font-family="Helvetica,sans-Serif" font-size="10.00">odp/helper/chksum.h</text>
</a>
</g>
</g>
<!-- Node0&#45;&gt;Node2 -->
<g id="edge2" class="edge"><title>Node0&#45;&gt;Node2</title>
<path fill="none" stroke="midnightblue" d="M75.5,-112.083C75.5,-105.006 75.5,-94.8611 75.5,-85.9865"/>
<polygon fill="midnightblue" stroke="midnightblue" points="79.0001,-85.751 75.5,-75.7511 72.0001,-85.7511 79.0001,-85.751"/>
</g>
<!-- Node3 -->
<g id="node4" class="node"><title>Node3</title>
<polygon fill="white" stroke="#bfbfbf" points="152,-56.5 152,-75.5 205,-75.5 205,-56.5 152,-56.5"/>
<text text-anchor="middle" x="178.5" y="-63.5" font-family="Helvetica,sans-Serif" font-size="10.00">string.h</text>
</g>
<!-- Node0&#45;&gt;Node3 -->
<g id="edge4" class="edge"><title>Node0&#45;&gt;Node3</title>
<path fill="none" stroke="midnightblue" d="M92.0487,-112.324C108.492,-103.703 133.935,-90.3643 152.968,-80.3855"/>
<polygon fill="midnightblue" stroke="midnightblue" points="154.761,-83.3977 161.992,-75.6545 151.511,-77.198 154.761,-83.3977"/>
</g>
<!-- Node2&#45;&gt;Node1 -->
<g id="edge3" class="edge"><title>Node2&#45;&gt;Node1</title>
<path fill="none" stroke="midnightblue" d="M68.2343,-56.083C61.9552,-48.3768 52.7124,-37.0333 45.0692,-27.6531"/>
<polygon fill="midnightblue" stroke="midnightblue" points="47.6606,-25.2926 38.6305,-19.7511 42.2339,-29.7143 47.6606,-25.2926"/>
</g>
</g>
</svg>
