<?xml version="1.0" encoding="UTF-8" standalone="no"?>
<!DOCTYPE svg PUBLIC "-//W3C//DTD SVG 1.1//EN"
 "http://www.w3.org/Graphics/SVG/1.1/DTD/svg11.dtd">
<!-- Generated by graphviz version 2.38.0 (20140413.2041)
 -->
<!-- Title: linux.h Pages: 1 -->
<svg width="235pt" height="196pt"
 viewBox="0.00 0.00 235.00 196.00" xmlns="http://www.w3.org/2000/svg" xmlns:xlink="http://www.w3.org/1999/xlink">
<g id="graph0" class="graph" transform="scale(1 1) rotate(0) translate(4 192)">
<title>linux.h</title>
<polygon fill="white" stroke="none" points="-4,4 -4,-192 231,-192 231,4 -4,4"/>
<!-- Node0 -->
<g id="node1" class="node"><title>Node0</title>
<polygon fill="#bfbfbf" stroke="black" points="43,-168.5 43,-187.5 90,-187.5 90,-168.5 43,-168.5"/>
<text text-anchor="middle" x="66.5" y="-175.5" font-family="Helvetica,sans-Serif" font-size="10.00">linux.h</text>
</g>
<!-- Node1 -->
<g id="node2" class="node"><title>Node1</title>
<g id="a_node2"><a xlink:href="process_8h.html" target="_top" xlink:title="ODP Linux helper for processes. ">
<polygon fill="white" stroke="black" points="45.5,-112.5 45.5,-131.5 187.5,-131.5 187.5,-112.5 45.5,-112.5"/>
<text text-anchor="middle" x="116.5" y="-119.5" font-family="Helvetica,sans-Serif" font-size="10.00">odp/helper/linux/process.h</text>
</a>
</g>
</g>
<!-- Node0&#45;&gt;Node1 -->
<g id="edge1" class="edge"><title>Node0&#45;&gt;Node1</title>
<path fill="none" stroke="midnightblue" d="M74.7565,-168.083C81.9647,-160.298 92.6098,-148.801 101.346,-139.367"/>
<polygon fill="midnightblue" stroke="midnightblue" points="104.171,-141.467 108.397,-131.751 99.0349,-136.711 104.171,-141.467"/>
</g>
<!-- Node3 -->
<g id="node4" class="node"><title>Node3</title>
<g id="a_node4"><a xlink:href="pthread_8h.html" target="_top" xlink:title="ODP Linux helper for pthreads. ">
<polygon fill="white" stroke="black" points="0,-0.5 0,-19.5 63,-19.5 63,-0.5 0,-0.5"/>
<text text-anchor="middle" x="31.5" y="-7.5" font-family="Helvetica,sans-Serif" font-size="10.00">pthread.h</text>
</a>
</g>
</g>
<!-- Node0&#45;&gt;Node3 -->
<g id="edge7" class="edge"><title>Node0&#45;&gt;Node3</title>
<path fill="none" stroke="midnightblue" d="M58.6954,-168.467C51.4428,-159.942 41.0913,-146.107 36.5,-132 25.2093,-97.3089 26.9274,-54.0551 29.2065,-29.7844"/>
<polygon fill="midnightblue" stroke="midnightblue" points="32.6918,-30.108 30.2821,-19.7909 25.732,-29.3589 32.6918,-30.108"/>
</g>
<!-- Node2 -->
<g id="node3" class="node"><title>Node2</title>
<g id="a_node3"><a xlink:href="threads_8h.html" target="_top" xlink:title="ODP Linux helper API. ">
<polygon fill="white" stroke="black" points="51.5,-56.5 51.5,-75.5 167.5,-75.5 167.5,-56.5 51.5,-56.5"/>
<text text-anchor="middle" x="109.5" y="-63.5" font-family="Helvetica,sans-Serif" font-size="10.00">odp/helper/threads.h</text>
</a>
</g>
</g>
<!-- Node1&#45;&gt;Node2 -->
<g id="edge2" class="edge"><title>Node1&#45;&gt;Node2</title>
<path fill="none" stroke="midnightblue" d="M115.344,-112.083C114.416,-104.927 113.082,-94.6353 111.923,-85.6911"/>
<polygon fill="midnightblue" stroke="midnightblue" points="115.391,-85.2181 110.634,-75.7511 108.449,-86.1181 115.391,-85.2181"/>
</g>
<!-- Node2&#45;&gt;Node3 -->
<g id="edge3" class="edge"><title>Node2&#45;&gt;Node3</title>
<path fill="none" stroke="midnightblue" d="M91.8531,-56.324C78.3344,-48.1849 60.1644,-35.8395 47.1645,-26.0874"/>
<polygon fill="midnightblue" stroke="midnightblue" points="49.1563,-23.2028 39.1114,-19.8339 44.863,-28.7316 49.1563,-23.2028"/>
</g>
<!-- Node4 -->
<g id="node5" class="node"><title>Node4</title>
<polygon fill="white" stroke="#bfbfbf" points="81,-0.5 81,-19.5 138,-19.5 138,-0.5 81,-0.5"/>
<text text-anchor="middle" x="109.5" y="-7.5" font-family="Helvetica,sans-Serif" font-size="10.00">getopt.h</text>
</g>
<!-- Node2&#45;&gt;Node4 -->
<g id="edge5" class="edge"><title>Node2&#45;&gt;Node4</title>
<path fill="none" stroke="midnightblue" d="M109.5,-56.083C109.5,-49.0059 109.5,-38.8611 109.5,-29.9865"/>
<polygon fill="midnightblue" stroke="midnightblue" points="113,-29.751 109.5,-19.7511 106,-29.7511 113,-29.751"/>
</g>
<!-- Node5 -->
<g id="node6" class="node"><title>Node5</title>
<polygon fill="white" stroke="#bfbfbf" points="156,-0.5 156,-19.5 227,-19.5 227,-0.5 156,-0.5"/>
<text text-anchor="middle" x="191.5" y="-7.5" font-family="Helvetica,sans-Serif" font-size="10.00">sys/types.h</text>
</g>
<!-- Node2&#45;&gt;Node5 -->
<g id="edge6" class="edge"><title>Node2&#45;&gt;Node5</title>
<path fill="none" stroke="midnightblue" d="M122.675,-56.324C135.347,-47.979 154.733,-35.2122 169.706,-25.3524"/>
<polygon fill="midnightblue" stroke="midnightblue" points="171.931,-28.0776 178.358,-19.6545 168.081,-22.2313 171.931,-28.0776"/>
</g>
<!-- Node3&#45;&gt;Node2 -->
<g id="edge4" class="edge"><title>Node3&#45;&gt;Node2</title>
<path fill="none" stroke="midnightblue" d="M49.1111,-19.6545C62.702,-27.8346 81.0086,-40.2772 94.0328,-50.0607"/>
<polygon fill="midnightblue" stroke="midnightblue" points="92.041,-52.9456 102.083,-56.324 96.3395,-47.4208 92.041,-52.9456"/>
</g>
</g>
</svg>
