<?xml version="1.0" encoding="UTF-8" standalone="no"?>
<!DOCTYPE svg PUBLIC "-//W3C//DTD SVG 1.1//EN"
 "http://www.w3.org/Graphics/SVG/1.1/DTD/svg11.dtd">
<!-- Generated by graphviz version 2.38.0 (20140413.2041)
 -->
<!-- Title: odph_api.h Pages: 1 -->
<svg width="2003pt" height="196pt"
 viewBox="0.00 0.00 2002.50 196.00" xmlns="http://www.w3.org/2000/svg" xmlns:xlink="http://www.w3.org/1999/xlink">
<g id="graph0" class="graph" transform="scale(1 1) rotate(0) translate(4 192)">
<title>odph_api.h</title>
<polygon fill="white" stroke="none" points="-4,4 -4,-192 1998.5,-192 1998.5,4 -4,4"/>
<!-- Node0 -->
<g id="node1" class="node"><title>Node0</title>
<polygon fill="#bfbfbf" stroke="black" points="1185.5,-168.5 1185.5,-187.5 1254.5,-187.5 1254.5,-168.5 1185.5,-168.5"/>
<text text-anchor="middle" x="1220" y="-175.5" font-family="Helvetica,sans-Serif" font-size="10.00">odph_api.h</text>
</g>
<!-- Node1 -->
<g id="node2" class="node"><title>Node1</title>
<g id="a_node2"><a xlink:href="odph__debug_8h.html" target="_top" xlink:title="Helper debug. ">
<polygon fill="white" stroke="black" points="131.5,-112.5 131.5,-131.5 270.5,-131.5 270.5,-112.5 131.5,-112.5"/>
<text text-anchor="middle" x="201" y="-119.5" font-family="Helvetica,sans-Serif" font-size="10.00">odp/helper/odph_debug.h</text>
</a>
</g>
</g>
<!-- Node0&#45;&gt;Node1 -->
<g id="edge1" class="edge"><title>Node0&#45;&gt;Node1</title>
<path fill="none" stroke="midnightblue" d="M1185.18,-175.865C1063.09,-171.764 643.061,-156.645 297,-132 291.811,-131.63 286.467,-131.218 281.082,-130.778"/>
<polygon fill="midnightblue" stroke="midnightblue" points="280.964,-127.256 270.706,-129.904 280.377,-134.232 280.964,-127.256"/>
</g>
<!-- Node5 -->
<g id="node6" class="node"><title>Node5</title>
<g id="a_node6"><a xlink:href="chksum_8h.html" target="_top" xlink:title="ODP checksum helper. ">
<polygon fill="white" stroke="black" points="1161.5,-56.5 1161.5,-75.5 1278.5,-75.5 1278.5,-56.5 1161.5,-56.5"/>
<text text-anchor="middle" x="1220" y="-63.5" font-family="Helvetica,sans-Serif" font-size="10.00">odp/helper/chksum.h</text>
</a>
</g>
</g>
<!-- Node0&#45;&gt;Node5 -->
<g id="edge5" class="edge"><title>Node0&#45;&gt;Node5</title>
<path fill="none" stroke="midnightblue" d="M1220,-168.368C1220,-150.617 1220,-109.666 1220,-85.5974"/>
<polygon fill="midnightblue" stroke="midnightblue" points="1223.5,-85.5914 1220,-75.5914 1216.5,-85.5915 1223.5,-85.5914"/>
</g>
<!-- Node7 -->
<g id="node8" class="node"><title>Node7</title>
<g id="a_node8"><a xlink:href="odph__cuckootable_8h.html" target="_top" xlink:title="ODP Cuckoo Hash Table. ">
<polygon fill="white" stroke="black" points="742.5,-112.5 742.5,-131.5 909.5,-131.5 909.5,-112.5 742.5,-112.5"/>
<text text-anchor="middle" x="826" y="-119.5" font-family="Helvetica,sans-Serif" font-size="10.00">odp/helper/odph_cuckootable.h</text>
</a>
</g>
</g>
<!-- Node0&#45;&gt;Node7 -->
<g id="edge7" class="edge"><title>Node0&#45;&gt;Node7</title>
<path fill="none" stroke="midnightblue" d="M1185.38,-172.255C1121.41,-163.488 983.477,-144.583 898.318,-132.912"/>
<polygon fill="midnightblue" stroke="midnightblue" points="898.585,-129.416 888.202,-131.525 897.635,-136.351 898.585,-129.416"/>
</g>
<!-- Node8 -->
<g id="node9" class="node"><title>Node8</title>
<g id="a_node9"><a xlink:href="table_8h.html" target="_top" xlink:title="ODP table. ">
<polygon fill="white" stroke="black" points="586,-56.5 586,-75.5 690,-75.5 690,-56.5 586,-56.5"/>
<text text-anchor="middle" x="638" y="-63.5" font-family="Helvetica,sans-Serif" font-size="10.00">odp/helper/table.h</text>
</a>
</g>
</g>
<!-- Node0&#45;&gt;Node8 -->
<g id="edge33" class="edge"><title>Node0&#45;&gt;Node8</title>
<path fill="none" stroke="midnightblue" d="M1185.25,-176.485C1028.86,-174.002 396.575,-162.124 368,-132 361.883,-125.551 362.254,-118.782 368,-112 394.093,-81.1982 504.469,-71.4602 575.768,-68.3941"/>
<polygon fill="midnightblue" stroke="midnightblue" points="576.135,-71.8824 585.989,-67.9885 575.858,-64.8879 576.135,-71.8824"/>
</g>
<!-- Node10 -->
<g id="node11" class="node"><title>Node10</title>
<g id="a_node11"><a xlink:href="strong__types_8h.html" target="_top" xlink:title="ODP Strong Types. ">
<polygon fill="white" stroke="black" points="403,-0.5 403,-19.5 545,-19.5 545,-0.5 403,-0.5"/>
<text text-anchor="middle" x="474" y="-7.5" font-family="Helvetica,sans-Serif" font-size="10.00">odp/helper/strong_types.h</text>
</a>
</g>
</g>
<!-- Node0&#45;&gt;Node10 -->
<g id="edge30" class="edge"><title>Node0&#45;&gt;Node10</title>
<path fill="none" stroke="midnightblue" d="M1185.45,-176.506C1028.49,-174.096 388.882,-162.433 360,-132 322.795,-92.7976 401.018,-46.2038 445.708,-24.0079"/>
<polygon fill="midnightblue" stroke="midnightblue" points="447.474,-27.0412 454.945,-19.5286 444.42,-20.7427 447.474,-27.0412"/>
</g>
<!-- Node11 -->
<g id="node12" class="node"><title>Node11</title>
<g id="a_node12"><a xlink:href="eth_8h.html" target="_top" xlink:title="ODP ethernet header. ">
<polygon fill="white" stroke="black" points="1533.5,-56.5 1533.5,-75.5 1628.5,-75.5 1628.5,-56.5 1533.5,-56.5"/>
<text text-anchor="middle" x="1581" y="-63.5" font-family="Helvetica,sans-Serif" font-size="10.00">odp/helper/eth.h</text>
</a>
</g>
</g>
<!-- Node0&#45;&gt;Node11 -->
<g id="edge11" class="edge"><title>Node0&#45;&gt;Node11</title>
<path fill="none" stroke="midnightblue" d="M1254.7,-175.732C1348.12,-171.962 1599.53,-159.348 1624,-132 1638.11,-116.229 1618.93,-95.4663 1601.87,-81.6981"/>
<polygon fill="midnightblue" stroke="midnightblue" points="1603.89,-78.8389 1593.82,-75.5535 1599.64,-84.4032 1603.89,-78.8389"/>
</g>
<!-- Node12 -->
<g id="node13" class="node"><title>Node12</title>
<g id="a_node13"><a xlink:href="odph__hashtable_8h.html" target="_top" xlink:title="ODP Hash Table. ">
<polygon fill="white" stroke="black" points="377,-112.5 377,-131.5 533,-131.5 533,-112.5 377,-112.5"/>
<text text-anchor="middle" x="455" y="-119.5" font-family="Helvetica,sans-Serif" font-size="10.00">odp/helper/odph_hashtable.h</text>
</a>
</g>
</g>
<!-- Node0&#45;&gt;Node12 -->
<g id="edge13" class="edge"><title>Node0&#45;&gt;Node12</title>
<path fill="none" stroke="midnightblue" d="M1185.39,-175.154C1086.84,-169.802 796.06,-153.344 543.349,-132.086"/>
<polygon fill="midnightblue" stroke="midnightblue" points="543.501,-128.586 533.242,-131.231 542.911,-135.561 543.501,-128.586"/>
</g>
<!-- Node13 -->
<g id="node14" class="node"><title>Node13</title>
<g id="a_node14"><a xlink:href="icmp_8h.html" target="_top" xlink:title="ODP ICMP header. ">
<polygon fill="white" stroke="black" points="1891.5,-56.5 1891.5,-75.5 1994.5,-75.5 1994.5,-56.5 1891.5,-56.5"/>
<text text-anchor="middle" x="1943" y="-63.5" font-family="Helvetica,sans-Serif" font-size="10.00">odp/helper/icmp.h</text>
</a>
</g>
</g>
<!-- Node0&#45;&gt;Node13 -->
<g id="edge15" class="edge"><title>Node0&#45;&gt;Node13</title>
<path fill="none" stroke="midnightblue" d="M1254.67,-176.131C1363.02,-173.127 1694.19,-161.691 1797,-132 1815.34,-126.705 1817.73,-120.123 1835,-112 1860.34,-100.08 1889.72,-87.9459 1911.43,-79.2864"/>
<polygon fill="midnightblue" stroke="midnightblue" points="1912.81,-82.5023 1920.82,-75.5655 1910.24,-75.9943 1912.81,-82.5023"/>
</g>
<!-- Node14 -->
<g id="node15" class="node"><title>Node14</title>
<g id="a_node15"><a xlink:href="ip_8h.html" target="_top" xlink:title="ODP IP header. ">
<polygon fill="white" stroke="black" points="1104,-112.5 1104,-131.5 1192,-131.5 1192,-112.5 1104,-112.5"/>
<text text-anchor="middle" x="1148" y="-119.5" font-family="Helvetica,sans-Serif" font-size="10.00">odp/helper/ip.h</text>
</a>
</g>
</g>
<!-- Node0&#45;&gt;Node14 -->
<g id="edge17" class="edge"><title>Node0&#45;&gt;Node14</title>
<path fill="none" stroke="midnightblue" d="M1208.43,-168.324C1197.58,-160.185 1181.12,-147.839 1168.12,-138.087"/>
<polygon fill="midnightblue" stroke="midnightblue" points="1169.88,-135.034 1159.78,-131.834 1165.68,-140.634 1169.88,-135.034"/>
</g>
<!-- Node16 -->
<g id="node17" class="node"><title>Node16</title>
<g id="a_node17"><a xlink:href="ipsec_8h.html" target="_top" xlink:title="ODP IPSec headers. ">
<polygon fill="white" stroke="black" points="1335,-56.5 1335,-75.5 1439,-75.5 1439,-56.5 1335,-56.5"/>
<text text-anchor="middle" x="1387" y="-63.5" font-family="Helvetica,sans-Serif" font-size="10.00">odp/helper/ipsec.h</text>
</a>
</g>
</g>
<!-- Node0&#45;&gt;Node16 -->
<g id="edge21" class="edge"><title>Node0&#45;&gt;Node16</title>
<path fill="none" stroke="midnightblue" d="M1254.73,-172.979C1284.42,-167.926 1326.71,-156.692 1355,-132 1368.9,-119.873 1377.37,-100.315 1382.08,-85.8158"/>
<polygon fill="midnightblue" stroke="midnightblue" points="1385.52,-86.5017 1384.97,-75.9214 1378.8,-84.5383 1385.52,-86.5017"/>
</g>
<!-- Node17 -->
<g id="node18" class="node"><title>Node17</title>
<g id="a_node18"><a xlink:href="odph__lineartable_8h.html" target="_top" xlink:title="ODP Linear Table. ">
<polygon fill="white" stroke="black" points="927.5,-112.5 927.5,-131.5 1086.5,-131.5 1086.5,-112.5 927.5,-112.5"/>
<text text-anchor="middle" x="1007" y="-119.5" font-family="Helvetica,sans-Serif" font-size="10.00">odp/helper/odph_lineartable.h</text>
</a>
</g>
</g>
<!-- Node0&#45;&gt;Node17 -->
<g id="edge23" class="edge"><title>Node0&#45;&gt;Node17</title>
<path fill="none" stroke="midnightblue" d="M1186.25,-168.444C1149.48,-159.122 1090.55,-144.183 1050.38,-133.997"/>
<polygon fill="midnightblue" stroke="midnightblue" points="1051.15,-130.581 1040.59,-131.516 1049.43,-137.367 1051.15,-130.581"/>
</g>
<!-- Node18 -->
<g id="node19" class="node"><title>Node18</title>
<g id="a_node19"><a xlink:href="odph__iplookuptable_8h.html" target="_top" xlink:title="ODP IP Lookup Table. ">
<polygon fill="white" stroke="black" points="551.5,-112.5 551.5,-131.5 724.5,-131.5 724.5,-112.5 551.5,-112.5"/>
<text text-anchor="middle" x="638" y="-119.5" font-family="Helvetica,sans-Serif" font-size="10.00">odp/helper/odph_iplookuptable.h</text>
</a>
</g>
</g>
<!-- Node0&#45;&gt;Node18 -->
<g id="edge26" class="edge"><title>Node0&#45;&gt;Node18</title>
<path fill="none" stroke="midnightblue" d="M1185.46,-173.836C1107.25,-166.666 910.4,-148.586 734.915,-132.178"/>
<polygon fill="midnightblue" stroke="midnightblue" points="735.003,-128.671 724.721,-131.224 734.351,-135.64 735.003,-128.671"/>
</g>
<!-- Node19 -->
<g id="node20" class="node"><title>Node19</title>
<g id="a_node20"><a xlink:href="sctp_8h.html" target="_top" xlink:title="ODP SCTP header. ">
<polygon fill="white" stroke="black" points="1402,-112.5 1402,-131.5 1502,-131.5 1502,-112.5 1402,-112.5"/>
<text text-anchor="middle" x="1452" y="-119.5" font-family="Helvetica,sans-Serif" font-size="10.00">odp/helper/sctp.h</text>
</a>
</g>
</g>
<!-- Node0&#45;&gt;Node19 -->
<g id="edge28" class="edge"><title>Node0&#45;&gt;Node19</title>
<path fill="none" stroke="midnightblue" d="M1254.73,-168.916C1294.72,-159.608 1360.61,-144.272 1405.12,-133.912"/>
<polygon fill="midnightblue" stroke="midnightblue" points="1406.16,-137.262 1415.11,-131.587 1404.58,-130.445 1406.16,-137.262"/>
</g>
<!-- Node20 -->
<g id="node21" class="node"><title>Node20</title>
<g id="a_node21"><a xlink:href="tcp_8h.html" target="_top" xlink:title="ODP TCP header. ">
<polygon fill="white" stroke="black" points="1520.5,-112.5 1520.5,-131.5 1615.5,-131.5 1615.5,-112.5 1520.5,-112.5"/>
<text text-anchor="middle" x="1568" y="-119.5" font-family="Helvetica,sans-Serif" font-size="10.00">odp/helper/tcp.h</text>
</a>
</g>
</g>
<!-- Node0&#45;&gt;Node20 -->
<g id="edge31" class="edge"><title>Node0&#45;&gt;Node20</title>
<path fill="none" stroke="midnightblue" d="M1254.94,-171.633C1307.77,-163.511 1411.39,-147.549 1510.25,-132.113"/>
<polygon fill="midnightblue" stroke="midnightblue" points="1511.08,-135.526 1520.42,-130.525 1510,-128.61 1511.08,-135.526"/>
</g>
<!-- Node21 -->
<g id="node22" class="node"><title>Node21</title>
<g id="a_node22"><a xlink:href="threads_8h.html" target="_top" xlink:title="ODP Linux helper API. ">
<polygon fill="white" stroke="black" points="1672,-112.5 1672,-131.5 1788,-131.5 1788,-112.5 1672,-112.5"/>
<text text-anchor="middle" x="1730" y="-119.5" font-family="Helvetica,sans-Serif" font-size="10.00">odp/helper/threads.h</text>
</a>
</g>
</g>
<!-- Node0&#45;&gt;Node21 -->
<g id="edge34" class="edge"><title>Node0&#45;&gt;Node21</title>
<path fill="none" stroke="midnightblue" d="M1254.66,-173.7C1328.75,-166.589 1508,-149.079 1658,-132 1659.27,-131.856 1660.55,-131.709 1661.84,-131.56"/>
<polygon fill="midnightblue" stroke="midnightblue" points="1662.33,-135.025 1671.85,-130.379 1661.51,-128.073 1662.33,-135.025"/>
</g>
<!-- Node25 -->
<g id="node26" class="node"><title>Node25</title>
<g id="a_node26"><a xlink:href="udp_8h.html" target="_top" xlink:title="ODP UDP header. ">
<polygon fill="white" stroke="black" points="1248,-112.5 1248,-131.5 1346,-131.5 1346,-112.5 1248,-112.5"/>
<text text-anchor="middle" x="1297" y="-119.5" font-family="Helvetica,sans-Serif" font-size="10.00">odp/helper/udp.h</text>
</a>
</g>
</g>
<!-- Node0&#45;&gt;Node25 -->
<g id="edge39" class="edge"><title>Node0&#45;&gt;Node25</title>
<path fill="none" stroke="midnightblue" d="M1232.37,-168.324C1244.16,-160.058 1262.13,-147.453 1276.14,-137.632"/>
<polygon fill="midnightblue" stroke="midnightblue" points="1278.48,-140.262 1284.66,-131.655 1274.46,-134.531 1278.48,-140.262"/>
</g>
<!-- Node26 -->
<g id="node27" class="node"><title>Node26</title>
<g id="a_node27"><a xlink:href="version_8h.html" target="_top" xlink:title="ODP helper version. ">
<polygon fill="white" stroke="black" points="1844,-112.5 1844,-131.5 1958,-131.5 1958,-112.5 1844,-112.5"/>
<text text-anchor="middle" x="1901" y="-119.5" font-family="Helvetica,sans-Serif" font-size="10.00">odp/helper/version.h</text>
</a>
</g>
</g>
<!-- Node0&#45;&gt;Node26 -->
<g id="edge42" class="edge"><title>Node0&#45;&gt;Node26</title>
<path fill="none" stroke="midnightblue" d="M1254.79,-175.075C1348.08,-169.773 1611.54,-153.888 1830,-132 1831.11,-131.889 1832.23,-131.774 1833.36,-131.656"/>
<polygon fill="midnightblue" stroke="midnightblue" points="1834.12,-135.095 1843.68,-130.528 1833.36,-128.136 1834.12,-135.095"/>
</g>
<!-- Node2 -->
<g id="node3" class="node"><title>Node2</title>
<polygon fill="white" stroke="#bfbfbf" points="0,-56.5 0,-75.5 146,-75.5 146,-56.5 0,-56.5"/>
<text text-anchor="middle" x="73" y="-63.5" font-family="Helvetica,sans-Serif" font-size="10.00">odp/autoheader_external.h</text>
</g>
<!-- Node1&#45;&gt;Node2 -->
<g id="edge2" class="edge"><title>Node1&#45;&gt;Node2</title>
<path fill="none" stroke="midnightblue" d="M180.718,-112.444C159.653,-103.557 126.483,-89.5632 102.514,-79.4514"/>
<polygon fill="midnightblue" stroke="midnightblue" points="103.761,-76.1787 93.1871,-75.5164 101.04,-82.6283 103.761,-76.1787"/>
</g>
<!-- Node3 -->
<g id="node4" class="node"><title>Node3</title>
<polygon fill="white" stroke="#bfbfbf" points="164.5,-56.5 164.5,-75.5 213.5,-75.5 213.5,-56.5 164.5,-56.5"/>
<text text-anchor="middle" x="189" y="-63.5" font-family="Helvetica,sans-Serif" font-size="10.00">stdio.h</text>
</g>
<!-- Node1&#45;&gt;Node3 -->
<g id="edge3" class="edge"><title>Node1&#45;&gt;Node3</title>
<path fill="none" stroke="midnightblue" d="M199.018,-112.083C197.428,-104.927 195.141,-94.6353 193.154,-85.6911"/>
<polygon fill="midnightblue" stroke="midnightblue" points="196.531,-84.7537 190.945,-75.7511 189.697,-86.2722 196.531,-84.7537"/>
</g>
<!-- Node4 -->
<g id="node5" class="node"><title>Node4</title>
<polygon fill="white" stroke="#bfbfbf" points="231.5,-56.5 231.5,-75.5 282.5,-75.5 282.5,-56.5 231.5,-56.5"/>
<text text-anchor="middle" x="257" y="-63.5" font-family="Helvetica,sans-Serif" font-size="10.00">stdlib.h</text>
</g>
<!-- Node1&#45;&gt;Node4 -->
<g id="edge4" class="edge"><title>Node1&#45;&gt;Node4</title>
<path fill="none" stroke="midnightblue" d="M209.997,-112.324C218.194,-104.42 230.506,-92.5482 240.472,-82.9377"/>
<polygon fill="midnightblue" stroke="midnightblue" points="243.07,-85.2947 247.839,-75.8339 238.211,-80.2558 243.07,-85.2947"/>
</g>
<!-- Node6 -->
<g id="node7" class="node"><title>Node6</title>
<polygon fill="white" stroke="#bfbfbf" points="1395.5,-0.5 1395.5,-19.5 1458.5,-19.5 1458.5,-0.5 1395.5,-0.5"/>
<text text-anchor="middle" x="1427" y="-7.5" font-family="Helvetica,sans-Serif" font-size="10.00">odp_api.h</text>
</g>
<!-- Node5&#45;&gt;Node6 -->
<g id="edge6" class="edge"><title>Node5&#45;&gt;Node6</title>
<path fill="none" stroke="midnightblue" d="M1252.8,-56.4435C1288.69,-47.0797 1346.32,-32.0467 1385.38,-21.8585"/>
<polygon fill="midnightblue" stroke="midnightblue" points="1386.58,-25.1617 1395.37,-19.2508 1384.81,-18.3884 1386.58,-25.1617"/>
</g>
<!-- Node7&#45;&gt;Node8 -->
<g id="edge8" class="edge"><title>Node7&#45;&gt;Node8</title>
<path fill="none" stroke="midnightblue" d="M796.211,-112.444C764.171,-103.241 713.067,-88.5617 677.647,-78.3879"/>
<polygon fill="midnightblue" stroke="midnightblue" points="678.227,-74.9132 667.65,-75.5164 676.295,-81.6412 678.227,-74.9132"/>
</g>
<!-- Node9 -->
<g id="node10" class="node"><title>Node9</title>
<polygon fill="white" stroke="#bfbfbf" points="704.5,-0.5 704.5,-19.5 757.5,-19.5 757.5,-0.5 704.5,-0.5"/>
<text text-anchor="middle" x="731" y="-7.5" font-family="Helvetica,sans-Serif" font-size="10.00">stdint.h</text>
</g>
<!-- Node8&#45;&gt;Node9 -->
<g id="edge9" class="edge"><title>Node8&#45;&gt;Node9</title>
<path fill="none" stroke="midnightblue" d="M652.942,-56.324C667.585,-47.8215 690.134,-34.7288 707.238,-24.7975"/>
<polygon fill="midnightblue" stroke="midnightblue" points="709.205,-27.7027 716.095,-19.6545 705.69,-21.6491 709.205,-27.7027"/>
</g>
<!-- Node8&#45;&gt;Node10 -->
<g id="edge10" class="edge"><title>Node8&#45;&gt;Node10</title>
<path fill="none" stroke="midnightblue" d="M612.014,-56.4435C584.304,-47.3196 540.248,-32.8133 509.384,-22.6509"/>
<polygon fill="midnightblue" stroke="midnightblue" points="510.458,-19.3196 499.865,-19.5164 508.268,-25.9684 510.458,-19.3196"/>
</g>
<!-- Node11&#45;&gt;Node6 -->
<g id="edge12" class="edge"><title>Node11&#45;&gt;Node6</title>
<path fill="none" stroke="midnightblue" d="M1556.6,-56.4435C1530.8,-47.3986 1489.92,-33.064 1460.98,-22.9158"/>
<polygon fill="midnightblue" stroke="midnightblue" points="1461.88,-19.5226 1451.29,-19.5164 1459.57,-26.1283 1461.88,-19.5226"/>
</g>
<!-- Node12&#45;&gt;Node8 -->
<g id="edge14" class="edge"><title>Node12&#45;&gt;Node8</title>
<path fill="none" stroke="midnightblue" d="M483.997,-112.444C515.185,-103.241 564.93,-88.5617 599.408,-78.3879"/>
<polygon fill="midnightblue" stroke="midnightblue" points="600.538,-81.7036 609.139,-75.5164 598.557,-74.9898 600.538,-81.7036"/>
</g>
<!-- Node13&#45;&gt;Node6 -->
<g id="edge16" class="edge"><title>Node13&#45;&gt;Node6</title>
<path fill="none" stroke="midnightblue" d="M1891.31,-57.0774C1888.5,-56.6997 1885.72,-56.3377 1883,-56 1730.76,-37.0828 1549.13,-21.1309 1468.77,-14.4112"/>
<polygon fill="midnightblue" stroke="midnightblue" points="1468.83,-10.9039 1458.57,-13.5625 1468.25,-17.8798 1468.83,-10.9039"/>
</g>
<!-- Node14&#45;&gt;Node5 -->
<g id="edge19" class="edge"><title>Node14&#45;&gt;Node5</title>
<path fill="none" stroke="midnightblue" d="M1159.57,-112.324C1170.42,-104.185 1186.88,-91.8395 1199.88,-82.0874"/>
<polygon fill="midnightblue" stroke="midnightblue" points="1202.32,-84.6339 1208.22,-75.8339 1198.12,-79.0339 1202.32,-84.6339"/>
</g>
<!-- Node14&#45;&gt;Node6 -->
<g id="edge18" class="edge"><title>Node14&#45;&gt;Node6</title>
<path fill="none" stroke="midnightblue" d="M1127.39,-112.408C1101.35,-100.374 1062.07,-77.5519 1081,-56 1100.81,-33.4497 1297.33,-18.8441 1385.07,-13.3978"/>
<polygon fill="midnightblue" stroke="midnightblue" points="1385.44,-16.8816 1395.21,-12.7791 1385.02,-9.89464 1385.44,-16.8816"/>
</g>
<!-- Node15 -->
<g id="node16" class="node"><title>Node15</title>
<polygon fill="white" stroke="#bfbfbf" points="1090.5,-56.5 1090.5,-75.5 1143.5,-75.5 1143.5,-56.5 1090.5,-56.5"/>
<text text-anchor="middle" x="1117" y="-63.5" font-family="Helvetica,sans-Serif" font-size="10.00">string.h</text>
</g>
<!-- Node14&#45;&gt;Node15 -->
<g id="edge20" class="edge"><title>Node14&#45;&gt;Node15</title>
<path fill="none" stroke="midnightblue" d="M1142.88,-112.083C1138.59,-104.613 1132.34,-93.7244 1127.06,-84.5199"/>
<polygon fill="midnightblue" stroke="midnightblue" points="1130.04,-82.6811 1122.02,-75.7511 1123.97,-86.1662 1130.04,-82.6811"/>
</g>
<!-- Node16&#45;&gt;Node6 -->
<g id="edge22" class="edge"><title>Node16&#45;&gt;Node6</title>
<path fill="none" stroke="midnightblue" d="M1393.61,-56.083C1399.26,-48.4554 1407.54,-37.2645 1414.45,-27.9408"/>
<polygon fill="midnightblue" stroke="midnightblue" points="1417.38,-29.87 1420.52,-19.7511 1411.75,-25.7034 1417.38,-29.87"/>
</g>
<!-- Node17&#45;&gt;Node8 -->
<g id="edge25" class="edge"><title>Node17&#45;&gt;Node8</title>
<path fill="none" stroke="midnightblue" d="M948.531,-112.444C880.738,-102.523 769.46,-86.2381 700.142,-76.094"/>
<polygon fill="midnightblue" stroke="midnightblue" points="700.631,-72.6283 690.229,-74.6433 699.617,-79.5545 700.631,-72.6283"/>
</g>
<!-- Node17&#45;&gt;Node9 -->
<g id="edge24" class="edge"><title>Node17&#45;&gt;Node9</title>
<path fill="none" stroke="midnightblue" d="M985.343,-112.368C936.671,-92.9703 818.491,-45.8696 762.031,-23.3673"/>
<polygon fill="midnightblue" stroke="midnightblue" points="763.142,-20.0425 752.557,-19.5914 760.55,-26.5451 763.142,-20.0425"/>
</g>
<!-- Node18&#45;&gt;Node8 -->
<g id="edge27" class="edge"><title>Node18&#45;&gt;Node8</title>
<path fill="none" stroke="midnightblue" d="M638,-112.083C638,-105.006 638,-94.8611 638,-85.9865"/>
<polygon fill="midnightblue" stroke="midnightblue" points="641.5,-85.751 638,-75.7511 634.5,-85.7511 641.5,-85.751"/>
</g>
<!-- Node19&#45;&gt;Node6 -->
<g id="edge29" class="edge"><title>Node19&#45;&gt;Node6</title>
<path fill="none" stroke="midnightblue" d="M1452.48,-112.43C1452.96,-99.8456 1453.02,-75.7231 1448,-56 1445.58,-46.4958 1441.17,-36.5532 1437.01,-28.4382"/>
<polygon fill="midnightblue" stroke="midnightblue" points="1440.06,-26.7183 1432.21,-19.5984 1433.9,-30.0571 1440.06,-26.7183"/>
</g>
<!-- Node20&#45;&gt;Node6 -->
<g id="edge32" class="edge"><title>Node20&#45;&gt;Node6</title>
<path fill="none" stroke="midnightblue" d="M1556.94,-112.368C1532.95,-93.6531 1475.9,-49.1509 1446.01,-25.8324"/>
<polygon fill="midnightblue" stroke="midnightblue" points="1448.05,-22.9829 1438.01,-19.5914 1443.74,-28.502 1448.05,-22.9829"/>
</g>
<!-- Node22 -->
<g id="node23" class="node"><title>Node22</title>
<g id="a_node23"><a xlink:href="pthread_8h.html" target="_top" xlink:title="ODP Linux helper for pthreads. ">
<polygon fill="white" stroke="black" points="1646.5,-56.5 1646.5,-75.5 1709.5,-75.5 1709.5,-56.5 1646.5,-56.5"/>
<text text-anchor="middle" x="1678" y="-63.5" font-family="Helvetica,sans-Serif" font-size="10.00">pthread.h</text>
</a>
</g>
</g>
<!-- Node21&#45;&gt;Node22 -->
<g id="edge35" class="edge"><title>Node21&#45;&gt;Node22</title>
<path fill="none" stroke="midnightblue" d="M1716.53,-112.324C1707.48,-104.654 1696.11,-93.25 1687.88,-83.7999"/>
<polygon fill="midnightblue" stroke="midnightblue" points="1690.4,-81.3573 1681.36,-75.8339 1684.98,-85.7899 1690.4,-81.3573"/>
</g>
<!-- Node23 -->
<g id="node24" class="node"><title>Node23</title>
<polygon fill="white" stroke="#bfbfbf" points="1727.5,-56.5 1727.5,-75.5 1784.5,-75.5 1784.5,-56.5 1727.5,-56.5"/>
<text text-anchor="middle" x="1756" y="-63.5" font-family="Helvetica,sans-Serif" font-size="10.00">getopt.h</text>
</g>
<!-- Node21&#45;&gt;Node23 -->
<g id="edge37" class="edge"><title>Node21&#45;&gt;Node23</title>
<path fill="none" stroke="midnightblue" d="M1734.29,-112.083C1737.85,-104.691 1743.02,-93.9533 1747.42,-84.8111"/>
<polygon fill="midnightblue" stroke="midnightblue" points="1750.6,-86.2795 1751.79,-75.7511 1744.29,-83.2427 1750.6,-86.2795"/>
</g>
<!-- Node24 -->
<g id="node25" class="node"><title>Node24</title>
<polygon fill="white" stroke="#bfbfbf" points="1802.5,-56.5 1802.5,-75.5 1873.5,-75.5 1873.5,-56.5 1802.5,-56.5"/>
<text text-anchor="middle" x="1838" y="-63.5" font-family="Helvetica,sans-Serif" font-size="10.00">sys/types.h</text>
</g>
<!-- Node21&#45;&gt;Node24 -->
<g id="edge38" class="edge"><title>Node21&#45;&gt;Node24</title>
<path fill="none" stroke="midnightblue" d="M1747.35,-112.324C1764.67,-103.664 1791.52,-90.2424 1811.5,-80.249"/>
<polygon fill="midnightblue" stroke="midnightblue" points="1813.31,-83.2572 1820.69,-75.6545 1810.18,-76.9962 1813.31,-83.2572"/>
</g>
<!-- Node22&#45;&gt;Node21 -->
<g id="edge36" class="edge"><title>Node22&#45;&gt;Node21</title>
<path fill="none" stroke="midnightblue" d="M1691.56,-75.7511C1700.57,-83.4046 1711.88,-94.7357 1720.08,-104.144"/>
<polygon fill="midnightblue" stroke="midnightblue" points="1717.53,-106.565 1726.58,-112.083 1722.95,-102.129 1717.53,-106.565"/>
</g>
<!-- Node25&#45;&gt;Node5 -->
<g id="edge41" class="edge"><title>Node25&#45;&gt;Node5</title>
<path fill="none" stroke="midnightblue" d="M1284.63,-112.324C1272.84,-104.058 1254.87,-91.4527 1240.86,-81.6322"/>
<polygon fill="midnightblue" stroke="midnightblue" points="1242.54,-78.5307 1232.34,-75.6545 1238.52,-84.2619 1242.54,-78.5307"/>
</g>
<!-- Node25&#45;&gt;Node6 -->
<g id="edge40" class="edge"><title>Node25&#45;&gt;Node6</title>
<path fill="none" stroke="midnightblue" d="M1298.78,-112.282C1301.97,-98.6203 1309.92,-72.0732 1326,-56 1342.34,-39.673 1365.62,-28.7532 1385.72,-21.7643"/>
<polygon fill="midnightblue" stroke="midnightblue" points="1386.87,-25.0723 1395.29,-18.6427 1384.7,-18.4177 1386.87,-25.0723"/>
</g>
</g>
</svg>
