<?xml version="1.0" encoding="UTF-8" standalone="no"?>
<!DOCTYPE svg PUBLIC "-//W3C//DTD SVG 1.1//EN"
 "http://www.w3.org/Graphics/SVG/1.1/DTD/svg11.dtd">
<!-- Generated by graphviz version 2.38.0 (20140413.2041)
 -->
<!-- Title: odph_list_del Pages: 1 -->
<svg width="248pt" height="66pt"
 viewBox="0.00 0.00 248.00 66.00" xmlns="http://www.w3.org/2000/svg" xmlns:xlink="http://www.w3.org/1999/xlink">
<g id="graph0" class="graph" transform="scale(1 1) rotate(0) translate(4 62)">
<title>odph_list_del</title>
<polygon fill="white" stroke="none" points="-4,4 -4,-62 244,-62 244,4 -4,4"/>
<!-- Node7 -->
<g id="node1" class="node"><title>Node7</title>
<polygon fill="#bfbfbf" stroke="black" points="0,-19.5 0,-38.5 79,-38.5 79,-19.5 0,-19.5"/>
<text text-anchor="middle" x="39.5" y="-26.5" font-family="Helvetica,sans-Serif" font-size="10.00">odph_list_del</text>
</g>
<!-- Node8 -->
<g id="node2" class="node"><title>Node8</title>
<g id="a_node2"><a xlink:href="odph__list__internal_8h.html#ab71b64fe7640f3da5e6f01a40b7a71d3" target="_top" xlink:title="__odph_list_del">
<polygon fill="white" stroke="black" points="133,-38.5 133,-57.5 222,-57.5 222,-38.5 133,-38.5"/>
<text text-anchor="middle" x="177.5" y="-45.5" font-family="Helvetica,sans-Serif" font-size="10.00">__odph_list_del</text>
</a>
</g>
</g>
<!-- Node7&#45;&gt;Node8 -->
<g id="edge1" class="edge"><title>Node7&#45;&gt;Node8</title>
<path fill="none" stroke="midnightblue" d="M79.1084,-34.3938C92.5052,-36.2654 107.787,-38.4003 122.21,-40.4153"/>
<polygon fill="midnightblue" stroke="midnightblue" points="122.133,-43.9385 132.521,-41.8558 123.101,-37.0058 122.133,-43.9385"/>
</g>
<!-- Node9 -->
<g id="node3" class="node"><title>Node9</title>
<g id="a_node3"><a xlink:href="odph__list__internal_8h.html#a850e3d30a75d18ee06b4ade95d6dff32" target="_top" xlink:title="ODPH_INIT_LIST_HEAD">
<polygon fill="white" stroke="black" points="115,-0.5 115,-19.5 240,-19.5 240,-0.5 115,-0.5"/>
<text text-anchor="middle" x="177.5" y="-7.5" font-family="Helvetica,sans-Serif" font-size="10.00">ODPH_INIT_LIST_HEAD</text>
</a>
</g>
</g>
<!-- Node7&#45;&gt;Node9 -->
<g id="edge2" class="edge"><title>Node7&#45;&gt;Node9</title>
<path fill="none" stroke="midnightblue" d="M79.1084,-23.6062C87.2105,-22.4743 96.002,-21.2461 104.876,-20.0063"/>
<polygon fill="midnightblue" stroke="midnightblue" points="105.478,-23.4562 114.898,-18.6062 104.51,-16.5236 105.478,-23.4562"/>
</g>
</g>
</svg>
