<?xml version="1.0" encoding="UTF-8" standalone="no"?>
<!DOCTYPE svg PUBLIC "-//W3C//DTD SVG 1.1//EN"
 "http://www.w3.org/Graphics/SVG/1.1/DTD/svg11.dtd">
<!-- Generated by graphviz version 2.38.0 (20140413.2041)
 -->
<!-- Title: odph_debug.h Pages: 1 -->
<svg width="291pt" height="84pt"
 viewBox="0.00 0.00 290.50 84.00" xmlns="http://www.w3.org/2000/svg" xmlns:xlink="http://www.w3.org/1999/xlink">
<g id="graph0" class="graph" transform="scale(1 1) rotate(0) translate(4 80)">
<title>odph_debug.h</title>
<polygon fill="white" stroke="none" points="-4,4 -4,-80 286.5,-80 286.5,4 -4,4"/>
<!-- Node0 -->
<g id="node1" class="node"><title>Node0</title>
<polygon fill="#bfbfbf" stroke="black" points="146.5,-56.5 146.5,-75.5 231.5,-75.5 231.5,-56.5 146.5,-56.5"/>
<text text-anchor="middle" x="189" y="-63.5" font-family="Helvetica,sans-Serif" font-size="10.00">odph_debug.h</text>
</g>
<!-- Node1 -->
<g id="node2" class="node"><title>Node1</title>
<polygon fill="white" stroke="#bfbfbf" points="0,-0.5 0,-19.5 146,-19.5 146,-0.5 0,-0.5"/>
<text text-anchor="middle" x="73" y="-7.5" font-family="Helvetica,sans-Serif" font-size="10.00">odp/autoheader_external.h</text>
</g>
<!-- Node0&#45;&gt;Node1 -->
<g id="edge1" class="edge"><title>Node0&#45;&gt;Node1</title>
<path fill="none" stroke="midnightblue" d="M170.619,-56.4435C151.784,-47.6751 122.269,-33.9355 100.621,-23.8579"/>
<polygon fill="midnightblue" stroke="midnightblue" points="101.838,-20.5637 91.2946,-19.5164 98.8833,-26.9098 101.838,-20.5637"/>
</g>
<!-- Node2 -->
<g id="node3" class="node"><title>Node2</title>
<polygon fill="white" stroke="#bfbfbf" points="164.5,-0.5 164.5,-19.5 213.5,-19.5 213.5,-0.5 164.5,-0.5"/>
<text text-anchor="middle" x="189" y="-7.5" font-family="Helvetica,sans-Serif" font-size="10.00">stdio.h</text>
</g>
<!-- Node0&#45;&gt;Node2 -->
<g id="edge2" class="edge"><title>Node0&#45;&gt;Node2</title>
<path fill="none" stroke="midnightblue" d="M189,-56.083C189,-49.0059 189,-38.8611 189,-29.9865"/>
<polygon fill="midnightblue" stroke="midnightblue" points="192.5,-29.751 189,-19.7511 185.5,-29.7511 192.5,-29.751"/>
</g>
<!-- Node3 -->
<g id="node4" class="node"><title>Node3</title>
<polygon fill="white" stroke="#bfbfbf" points="231.5,-0.5 231.5,-19.5 282.5,-19.5 282.5,-0.5 231.5,-0.5"/>
<text text-anchor="middle" x="257" y="-7.5" font-family="Helvetica,sans-Serif" font-size="10.00">stdlib.h</text>
</g>
<!-- Node0&#45;&gt;Node3 -->
<g id="edge3" class="edge"><title>Node0&#45;&gt;Node3</title>
<path fill="none" stroke="midnightblue" d="M199.925,-56.324C210.175,-48.1849 225.721,-35.8395 238.001,-26.0874"/>
<polygon fill="midnightblue" stroke="midnightblue" points="240.221,-28.7937 245.876,-19.8339 235.868,-23.3119 240.221,-28.7937"/>
</g>
</g>
</svg>
