<?xml version="1.0" encoding="UTF-8" standalone="no"?>
<!DOCTYPE svg PUBLIC "-//W3C//DTD SVG 1.1//EN"
 "http://www.w3.org/Graphics/SVG/1.1/DTD/svg11.dtd">
<!-- Generated by graphviz version 2.38.0 (20140413.2041)
 -->
<!-- Title: odph_lineartable.h Pages: 1 -->
<svg width="222pt" height="140pt"
 viewBox="0.00 0.00 221.50 140.00" xmlns="http://www.w3.org/2000/svg" xmlns:xlink="http://www.w3.org/1999/xlink">
<g id="graph0" class="graph" transform="scale(1 1) rotate(0) translate(4 136)">
<title>odph_lineartable.h</title>
<polygon fill="white" stroke="none" points="-4,4 -4,-136 217.5,-136 217.5,4 -4,4"/>
<!-- Node0 -->
<g id="node1" class="node"><title>Node0</title>
<polygon fill="#bfbfbf" stroke="black" points="14,-112.5 14,-131.5 119,-131.5 119,-112.5 14,-112.5"/>
<text text-anchor="middle" x="66.5" y="-119.5" font-family="Helvetica,sans-Serif" font-size="10.00">odph_lineartable.h</text>
</g>
<!-- Node1 -->
<g id="node2" class="node"><title>Node1</title>
<polygon fill="white" stroke="#bfbfbf" points="0,-0.5 0,-19.5 53,-19.5 53,-0.5 0,-0.5"/>
<text text-anchor="middle" x="26.5" y="-7.5" font-family="Helvetica,sans-Serif" font-size="10.00">stdint.h</text>
</g>
<!-- Node0&#45;&gt;Node1 -->
<g id="edge1" class="edge"><title>Node0&#45;&gt;Node1</title>
<path fill="none" stroke="midnightblue" d="M61.9082,-112.207C57.3525,-103.259 50.3658,-88.9074 45.5,-76 39.6679,-60.5296 34.51,-42.4418 31.0453,-29.2804"/>
<polygon fill="midnightblue" stroke="midnightblue" points="34.4251,-28.3695 28.5556,-19.5491 27.6435,-30.1046 34.4251,-28.3695"/>
</g>
<!-- Node2 -->
<g id="node3" class="node"><title>Node2</title>
<g id="a_node3"><a xlink:href="table_8h.html" target="_top" xlink:title="ODP table. ">
<polygon fill="white" stroke="black" points="54.5,-56.5 54.5,-75.5 158.5,-75.5 158.5,-56.5 54.5,-56.5"/>
<text text-anchor="middle" x="106.5" y="-63.5" font-family="Helvetica,sans-Serif" font-size="10.00">odp/helper/table.h</text>
</a>
</g>
</g>
<!-- Node0&#45;&gt;Node2 -->
<g id="edge2" class="edge"><title>Node0&#45;&gt;Node2</title>
<path fill="none" stroke="midnightblue" d="M73.1052,-112.083C78.7552,-104.455 87.0448,-93.2645 93.9512,-83.9408"/>
<polygon fill="midnightblue" stroke="midnightblue" points="96.8779,-85.87 100.018,-75.7511 91.2529,-81.7034 96.8779,-85.87"/>
</g>
<!-- Node2&#45;&gt;Node1 -->
<g id="edge3" class="edge"><title>Node2&#45;&gt;Node1</title>
<path fill="none" stroke="midnightblue" d="M93.6466,-56.324C81.2836,-47.979 62.3699,-35.2122 47.7628,-25.3524"/>
<polygon fill="midnightblue" stroke="midnightblue" points="49.5682,-22.3483 39.3215,-19.6545 45.6518,-28.1503 49.5682,-22.3483"/>
</g>
<!-- Node3 -->
<g id="node4" class="node"><title>Node3</title>
<g id="a_node4"><a xlink:href="strong__types_8h.html" target="_top" xlink:title="ODP Strong Types. ">
<polygon fill="white" stroke="black" points="71.5,-0.5 71.5,-19.5 213.5,-19.5 213.5,-0.5 71.5,-0.5"/>
<text text-anchor="middle" x="142.5" y="-7.5" font-family="Helvetica,sans-Serif" font-size="10.00">odp/helper/strong_types.h</text>
</a>
</g>
</g>
<!-- Node2&#45;&gt;Node3 -->
<g id="edge4" class="edge"><title>Node2&#45;&gt;Node3</title>
<path fill="none" stroke="midnightblue" d="M112.445,-56.083C117.477,-48.5341 124.837,-37.4948 131.013,-28.2298"/>
<polygon fill="midnightblue" stroke="midnightblue" points="134.031,-30.0131 136.666,-19.7511 128.207,-26.1301 134.031,-30.0131"/>
</g>
</g>
</svg>
