<?xml version="1.0" encoding="UTF-8" standalone="no"?>
<!DOCTYPE svg PUBLIC "-//W3C//DTD SVG 1.1//EN"
 "http://www.w3.org/Graphics/SVG/1.1/DTD/svg11.dtd">
<!-- Generated by graphviz version 2.38.0 (20140413.2041)
 -->
<!-- Title: pthread.h Pages: 1 -->
<svg width="154pt" height="140pt"
 viewBox="0.00 0.00 154.00 140.00" xmlns="http://www.w3.org/2000/svg" xmlns:xlink="http://www.w3.org/1999/xlink">
<g id="graph0" class="graph" transform="scale(1 1) rotate(0) translate(4 136)">
<title>pthread.h</title>
<polygon fill="white" stroke="none" points="-4,4 -4,-136 150,-136 150,4 -4,4"/>
<!-- Node0 -->
<g id="node1" class="node"><title>Node0</title>
<polygon fill="#bfbfbf" stroke="black" points="38,-112.5 38,-131.5 101,-131.5 101,-112.5 38,-112.5"/>
<text text-anchor="middle" x="69.5" y="-119.5" font-family="Helvetica,sans-Serif" font-size="10.00">pthread.h</text>
</g>
<!-- Node1 -->
<g id="node2" class="node"><title>Node1</title>
<g id="a_node2"><a xlink:href="threads_8h.html" target="_top" xlink:title="ODP Linux helper API. ">
<polygon fill="white" stroke="black" points="11.5,-56.5 11.5,-75.5 127.5,-75.5 127.5,-56.5 11.5,-56.5"/>
<text text-anchor="middle" x="69.5" y="-63.5" font-family="Helvetica,sans-Serif" font-size="10.00">odp/helper/threads.h</text>
</a>
</g>
</g>
<!-- Node0&#45;&gt;Node1 -->
<g id="edge1" class="edge"><title>Node0&#45;&gt;Node1</title>
<path fill="none" stroke="midnightblue" d="M64.3337,-112.083C62.8242,-104.927 62.3938,-94.6353 63.0425,-85.6911"/>
<polygon fill="midnightblue" stroke="midnightblue" points="66.5154,-86.1262 64.369,-75.7511 59.5769,-85.2002 66.5154,-86.1262"/>
</g>
<!-- Node1&#45;&gt;Node0 -->
<g id="edge2" class="edge"><title>Node1&#45;&gt;Node0</title>
<path fill="none" stroke="midnightblue" d="M74.631,-75.7511C76.1573,-82.8579 76.6044,-93.1357 75.9724,-102.101"/>
<polygon fill="midnightblue" stroke="midnightblue" points="72.4933,-101.713 74.6663,-112.083 79.4342,-102.622 72.4933,-101.713"/>
</g>
<!-- Node2 -->
<g id="node3" class="node"><title>Node2</title>
<polygon fill="white" stroke="#bfbfbf" points="0,-0.5 0,-19.5 57,-19.5 57,-0.5 0,-0.5"/>
<text text-anchor="middle" x="28.5" y="-7.5" font-family="Helvetica,sans-Serif" font-size="10.00">getopt.h</text>
</g>
<!-- Node1&#45;&gt;Node2 -->
<g id="edge3" class="edge"><title>Node1&#45;&gt;Node2</title>
<path fill="none" stroke="midnightblue" d="M62.7297,-56.083C56.9384,-48.4554 48.4415,-37.2645 41.3625,-27.9408"/>
<polygon fill="midnightblue" stroke="midnightblue" points="43.979,-25.5991 35.1443,-19.7511 38.4039,-29.8321 43.979,-25.5991"/>
</g>
<!-- Node3 -->
<g id="node4" class="node"><title>Node3</title>
<polygon fill="white" stroke="#bfbfbf" points="75,-0.5 75,-19.5 146,-19.5 146,-0.5 75,-0.5"/>
<text text-anchor="middle" x="110.5" y="-7.5" font-family="Helvetica,sans-Serif" font-size="10.00">sys/types.h</text>
</g>
<!-- Node1&#45;&gt;Node3 -->
<g id="edge4" class="edge"><title>Node1&#45;&gt;Node3</title>
<path fill="none" stroke="midnightblue" d="M76.2703,-56.083C82.0616,-48.4554 90.5585,-37.2645 97.6375,-27.9408"/>
<polygon fill="midnightblue" stroke="midnightblue" points="100.596,-29.8321 103.856,-19.7511 95.021,-25.5991 100.596,-29.8321"/>
</g>
</g>
</svg>
