<?xml version="1.0" encoding="UTF-8" standalone="no"?>
<!DOCTYPE svg PUBLIC "-//W3C//DTD SVG 1.1//EN"
 "http://www.w3.org/Graphics/SVG/1.1/DTD/svg11.dtd">
<!-- Generated by graphviz version 2.38.0 (20140413.2041)
 -->
<!-- Title: pthread.h Pages: 1 -->
<svg width="180pt" height="196pt"
 viewBox="0.00 0.00 180.00 196.00" xmlns="http://www.w3.org/2000/svg" xmlns:xlink="http://www.w3.org/1999/xlink">
<g id="graph0" class="graph" transform="scale(1 1) rotate(0) translate(4 192)">
<title>pthread.h</title>
<polygon fill="white" stroke="none" points="-4,4 -4,-192 176,-192 176,4 -4,4"/>
<!-- Node4 -->
<g id="node1" class="node"><title>Node4</title>
<polygon fill="#bfbfbf" stroke="black" points="22,-168.5 22,-187.5 85,-187.5 85,-168.5 22,-168.5"/>
<text text-anchor="middle" x="53.5" y="-175.5" font-family="Helvetica,sans-Serif" font-size="10.00">pthread.h</text>
</g>
<!-- Node5 -->
<g id="node2" class="node"><title>Node5</title>
<g id="a_node2"><a xlink:href="linux_8h.html" target="_top" xlink:title="All ODP Linux helpers. ">
<polygon fill="white" stroke="black" points="0,-0.5 0,-19.5 47,-19.5 47,-0.5 0,-0.5"/>
<text text-anchor="middle" x="23.5" y="-7.5" font-family="Helvetica,sans-Serif" font-size="10.00">linux.h</text>
</a>
</g>
</g>
<!-- Node4&#45;&gt;Node5 -->
<g id="edge1" class="edge"><title>Node4&#45;&gt;Node5</title>
<path fill="none" stroke="midnightblue" d="M34.8001,-161.622C26.6411,-153.718 17.9368,-143.363 13.5,-132 -1.98635,-92.3374 13.1929,-39.9304 20.2857,-19.5859"/>
<polygon fill="midnightblue" stroke="midnightblue" points="32.5336,-164.291 42.2983,-168.403 37.2286,-159.099 32.5336,-164.291"/>
</g>
<!-- Node6 -->
<g id="node3" class="node"><title>Node6</title>
<g id="a_node3"><a xlink:href="threads_8h.html" target="_top" xlink:title="ODP Linux helper API. ">
<polygon fill="white" stroke="black" points="22.5,-112.5 22.5,-131.5 84.5,-131.5 84.5,-112.5 22.5,-112.5"/>
<text text-anchor="middle" x="53.5" y="-119.5" font-family="Helvetica,sans-Serif" font-size="10.00">threads.h</text>
</a>
</g>
</g>
<!-- Node4&#45;&gt;Node6 -->
<g id="edge2" class="edge"><title>Node4&#45;&gt;Node6</title>
<path fill="none" stroke="midnightblue" d="M47.0276,-158.101C46.3956,-149.136 46.8427,-138.858 48.369,-131.751"/>
<polygon fill="midnightblue" stroke="midnightblue" points="43.5658,-158.622 48.3337,-168.083 50.5067,-157.713 43.5658,-158.622"/>
</g>
<!-- Node6&#45;&gt;Node4 -->
<g id="edge5" class="edge"><title>Node6&#45;&gt;Node4</title>
<path fill="none" stroke="midnightblue" d="M59.9575,-141.691C60.6062,-150.635 60.1758,-160.927 58.6663,-168.083"/>
<polygon fill="midnightblue" stroke="midnightblue" points="63.4231,-141.2 58.631,-131.751 56.4846,-142.126 63.4231,-141.2"/>
</g>
<!-- Node7 -->
<g id="node4" class="node"><title>Node7</title>
<g id="a_node4"><a xlink:href="process_8h.html" target="_top" xlink:title="ODP Linux helper for processes. ">
<polygon fill="white" stroke="black" points="22,-56.5 22,-75.5 85,-75.5 85,-56.5 22,-56.5"/>
<text text-anchor="middle" x="53.5" y="-63.5" font-family="Helvetica,sans-Serif" font-size="10.00">process.h</text>
</a>
</g>
</g>
<!-- Node6&#45;&gt;Node7 -->
<g id="edge3" class="edge"><title>Node6&#45;&gt;Node7</title>
<path fill="none" stroke="midnightblue" d="M53.5,-101.805C53.5,-92.9102 53.5,-82.7798 53.5,-75.7511"/>
<polygon fill="midnightblue" stroke="midnightblue" points="50.0001,-102.083 53.5,-112.083 57.0001,-102.083 50.0001,-102.083"/>
</g>
<!-- Node8 -->
<g id="node5" class="node"><title>Node8</title>
<g id="a_node5"><a xlink:href="odph__api_8h.html" target="_top" xlink:title="The OpenDataPlane helper API. ">
<polygon fill="white" stroke="black" points="103,-56.5 103,-75.5 172,-75.5 172,-56.5 103,-56.5"/>
<text text-anchor="middle" x="137.5" y="-63.5" font-family="Helvetica,sans-Serif" font-size="10.00">odph_api.h</text>
</a>
</g>
</g>
<!-- Node6&#45;&gt;Node8 -->
<g id="edge6" class="edge"><title>Node6&#45;&gt;Node8</title>
<path fill="none" stroke="midnightblue" d="M75.4325,-106.901C90.8355,-96.9986 110.946,-84.0705 124.037,-75.6545"/>
<polygon fill="midnightblue" stroke="midnightblue" points="73.5152,-103.972 66.9961,-112.324 77.3005,-109.86 73.5152,-103.972"/>
</g>
<!-- Node7&#45;&gt;Node5 -->
<g id="edge4" class="edge"><title>Node7&#45;&gt;Node5</title>
<path fill="none" stroke="midnightblue" d="M43.6526,-47.2747C38.5252,-38.0454 32.4835,-27.1703 28.3617,-19.7511"/>
<polygon fill="midnightblue" stroke="midnightblue" points="40.6301,-49.0412 48.5461,-56.083 46.7492,-45.6416 40.6301,-49.0412"/>
</g>
</g>
</svg>
