<?xml version="1.0" encoding="UTF-8" standalone="no"?>
<!DOCTYPE svg PUBLIC "-//W3C//DTD SVG 1.1//EN"
 "http://www.w3.org/Graphics/SVG/1.1/DTD/svg11.dtd">
<!-- Generated by graphviz version 2.38.0 (20140413.2041)
 -->
<!-- Title: strong_types.h Pages: 1 -->
<svg width="529pt" height="196pt"
 viewBox="0.00 0.00 528.90 196.00" xmlns="http://www.w3.org/2000/svg" xmlns:xlink="http://www.w3.org/1999/xlink">
<g id="graph0" class="graph" transform="scale(1 1) rotate(0) translate(4 192)">
<title>strong_types.h</title>
<polygon fill="white" stroke="none" points="-4,4 -4,-192 524.904,-192 524.904,4 -4,4"/>
<!-- Node1 -->
<g id="node1" class="node"><title>Node1</title>
<polygon fill="#bfbfbf" stroke="black" points="9.40404,-168.5 9.40404,-187.5 97.404,-187.5 97.404,-168.5 9.40404,-168.5"/>
<text text-anchor="middle" x="53.404" y="-175.5" font-family="Helvetica,sans-Serif" font-size="10.00">strong_types.h</text>
</g>
<!-- Node2 -->
<g id="node2" class="node"><title>Node2</title>
<g id="a_node2"><a xlink:href="odph__api_8h.html" target="_top" xlink:title="The OpenDataPlane helper API. ">
<polygon fill="white" stroke="black" points="111.904,-0.5 111.904,-19.5 180.904,-19.5 180.904,-0.5 111.904,-0.5"/>
<text text-anchor="middle" x="146.404" y="-7.5" font-family="Helvetica,sans-Serif" font-size="10.00">odph_api.h</text>
</a>
</g>
</g>
<!-- Node1&#45;&gt;Node2 -->
<g id="edge1" class="edge"><title>Node1&#45;&gt;Node2</title>
<path fill="none" stroke="midnightblue" d="M38.1497,-160.623C17.1494,-136.03 -15.5009,-88.9389 8.40404,-56 31.8642,-23.6739 79.1744,-14.1266 111.808,-11.5431"/>
<polygon fill="midnightblue" stroke="midnightblue" points="35.7258,-163.165 44.9801,-168.323 40.9626,-158.52 35.7258,-163.165"/>
</g>
<!-- Node3 -->
<g id="node3" class="node"><title>Node3</title>
<g id="a_node3"><a xlink:href="table_8h.html" target="_top" xlink:title="ODP table. ">
<polygon fill="white" stroke="black" points="121.404,-112.5 121.404,-131.5 171.404,-131.5 171.404,-112.5 121.404,-112.5"/>
<text text-anchor="middle" x="146.404" y="-119.5" font-family="Helvetica,sans-Serif" font-size="10.00">table.h</text>
</a>
</g>
</g>
<!-- Node1&#45;&gt;Node3 -->
<g id="edge2" class="edge"><title>Node1&#45;&gt;Node3</title>
<path fill="none" stroke="midnightblue" d="M77.2097,-163.177C94.3229,-153.241 116.869,-140.149 131.499,-131.655"/>
<polygon fill="midnightblue" stroke="midnightblue" points="75.2365,-160.276 68.3461,-168.324 78.7515,-166.329 75.2365,-160.276"/>
</g>
<!-- Node3&#45;&gt;Node2 -->
<g id="edge3" class="edge"><title>Node3&#45;&gt;Node2</title>
<path fill="none" stroke="midnightblue" d="M111.011,-119.405C80.6184,-115.937 38.4752,-105.667 17.404,-76 -8.66274,-39.2997 65.2469,-22.1091 111.747,-15.1123"/>
<polygon fill="midnightblue" stroke="midnightblue" points="110.933,-122.913 121.217,-120.368 111.591,-115.944 110.933,-122.913"/>
</g>
<!-- Node4 -->
<g id="node4" class="node"><title>Node4</title>
<g id="a_node4"><a xlink:href="odph__cuckootable_8h.html" target="_top" xlink:title="ODP Cuckoo Hash Table. ">
<polygon fill="white" stroke="black" points="26.904,-56.5 26.904,-75.5 139.904,-75.5 139.904,-56.5 26.904,-56.5"/>
<text text-anchor="middle" x="83.404" y="-63.5" font-family="Helvetica,sans-Serif" font-size="10.00">odph_cuckootable.h</text>
</a>
</g>
</g>
<!-- Node3&#45;&gt;Node4 -->
<g id="edge4" class="edge"><title>Node3&#45;&gt;Node4</title>
<path fill="none" stroke="midnightblue" d="M128.364,-105.537C117.131,-95.9087 103.085,-83.8694 93.7102,-75.8339"/>
<polygon fill="midnightblue" stroke="midnightblue" points="126.412,-108.473 136.282,-112.324 130.967,-103.159 126.412,-108.473"/>
</g>
<!-- Node5 -->
<g id="node5" class="node"><title>Node5</title>
<g id="a_node5"><a xlink:href="odph__hashtable_8h.html" target="_top" xlink:title="ODP Hash Table. ">
<polygon fill="white" stroke="black" points="158.404,-56.5 158.404,-75.5 260.404,-75.5 260.404,-56.5 158.404,-56.5"/>
<text text-anchor="middle" x="209.404" y="-63.5" font-family="Helvetica,sans-Serif" font-size="10.00">odph_hashtable.h</text>
</a>
</g>
</g>
<!-- Node3&#45;&gt;Node5 -->
<g id="edge6" class="edge"><title>Node3&#45;&gt;Node5</title>
<path fill="none" stroke="midnightblue" d="M164.444,-105.537C175.677,-95.9087 189.723,-83.8694 199.098,-75.8339"/>
<polygon fill="midnightblue" stroke="midnightblue" points="161.841,-103.159 156.526,-112.324 166.396,-108.473 161.841,-103.159"/>
</g>
<!-- Node6 -->
<g id="node6" class="node"><title>Node6</title>
<g id="a_node6"><a xlink:href="odph__iplookuptable_8h.html" target="_top" xlink:title="ODP IP Lookup Table. ">
<polygon fill="white" stroke="black" points="278.904,-56.5 278.904,-75.5 397.904,-75.5 397.904,-56.5 278.904,-56.5"/>
<text text-anchor="middle" x="338.404" y="-63.5" font-family="Helvetica,sans-Serif" font-size="10.00">odph_iplookuptable.h</text>
</a>
</g>
</g>
<!-- Node3&#45;&gt;Node6 -->
<g id="edge8" class="edge"><title>Node3&#45;&gt;Node6</title>
<path fill="none" stroke="midnightblue" d="M181.143,-111.23C217.312,-101.057 273.405,-85.2809 307.911,-75.576"/>
<polygon fill="midnightblue" stroke="midnightblue" points="180.184,-107.864 171.505,-113.94 182.079,-114.602 180.184,-107.864"/>
</g>
<!-- Node7 -->
<g id="node7" class="node"><title>Node7</title>
<g id="a_node7"><a xlink:href="odph__lineartable_8h.html" target="_top" xlink:title="ODP Linear Table. ">
<polygon fill="white" stroke="black" points="415.904,-56.5 415.904,-75.5 520.904,-75.5 520.904,-56.5 415.904,-56.5"/>
<text text-anchor="middle" x="468.404" y="-63.5" font-family="Helvetica,sans-Serif" font-size="10.00">odph_lineartable.h</text>
</a>
</g>
</g>
<!-- Node3&#45;&gt;Node7 -->
<g id="edge10" class="edge"><title>Node3&#45;&gt;Node7</title>
<path fill="none" stroke="midnightblue" d="M181.66,-115.087C238.77,-105.51 351.733,-86.5659 417.543,-75.5295"/>
<polygon fill="midnightblue" stroke="midnightblue" points="180.954,-111.657 171.671,-116.763 182.112,-118.561 180.954,-111.657"/>
</g>
<!-- Node4&#45;&gt;Node2 -->
<g id="edge5" class="edge"><title>Node4&#45;&gt;Node2</title>
<path fill="none" stroke="midnightblue" d="M101.444,-49.5372C112.677,-39.9087 126.723,-27.8694 136.098,-19.8339"/>
<polygon fill="midnightblue" stroke="midnightblue" points="98.8409,-47.1586 93.5261,-56.324 103.396,-52.4734 98.8409,-47.1586"/>
</g>
<!-- Node5&#45;&gt;Node2 -->
<g id="edge7" class="edge"><title>Node5&#45;&gt;Node2</title>
<path fill="none" stroke="midnightblue" d="M191.364,-49.5372C180.131,-39.9087 166.085,-27.8694 156.71,-19.8339"/>
<polygon fill="midnightblue" stroke="midnightblue" points="189.412,-52.4734 199.282,-56.324 193.967,-47.1586 189.412,-52.4734"/>
</g>
<!-- Node6&#45;&gt;Node2 -->
<g id="edge9" class="edge"><title>Node6&#45;&gt;Node2</title>
<path fill="none" stroke="midnightblue" d="M298.221,-53.6986C261.985,-43.507 209.49,-28.7429 176.685,-19.5164"/>
<polygon fill="midnightblue" stroke="midnightblue" points="297.407,-57.1053 307.981,-56.4435 299.302,-50.3667 297.407,-57.1053"/>
</g>
<!-- Node7&#45;&gt;Node2 -->
<g id="edge11" class="edge"><title>Node7&#45;&gt;Node2</title>
<path fill="none" stroke="midnightblue" d="M407.393,-54.7684C340.497,-43.5498 235.477,-25.9378 181.309,-16.8536"/>
<polygon fill="midnightblue" stroke="midnightblue" points="406.941,-58.2413 417.382,-56.4435 408.099,-51.3377 406.941,-58.2413"/>
</g>
</g>
</svg>
