<?xml version="1.0" encoding="UTF-8" standalone="no"?>
<!DOCTYPE svg PUBLIC "-//W3C//DTD SVG 1.1//EN"
 "http://www.w3.org/Graphics/SVG/1.1/DTD/svg11.dtd">
<!-- Generated by graphviz version 2.38.0 (20140413.2041)
 -->
<!-- Title: table.h Pages: 1 -->
<svg width="520pt" height="140pt"
 viewBox="0.00 0.00 519.84 140.00" xmlns="http://www.w3.org/2000/svg" xmlns:xlink="http://www.w3.org/1999/xlink">
<g id="graph0" class="graph" transform="scale(1 1) rotate(0) translate(4 136)">
<title>table.h</title>
<polygon fill="white" stroke="none" points="-4,4 -4,-136 515.842,-136 515.842,4 -4,4"/>
<!-- Node3 -->
<g id="node1" class="node"><title>Node3</title>
<polygon fill="#bfbfbf" stroke="black" points="175.342,-112.5 175.342,-131.5 225.342,-131.5 225.342,-112.5 175.342,-112.5"/>
<text text-anchor="middle" x="200.342" y="-119.5" font-family="Helvetica,sans-Serif" font-size="10.00">table.h</text>
</g>
<!-- Node4 -->
<g id="node2" class="node"><title>Node4</title>
<g id="a_node2"><a xlink:href="odph__api_8h.html" target="_top" xlink:title="The OpenDataPlane helper API. ">
<polygon fill="white" stroke="black" points="165.842,-0.5 165.842,-19.5 234.842,-19.5 234.842,-0.5 165.842,-0.5"/>
<text text-anchor="middle" x="200.342" y="-7.5" font-family="Helvetica,sans-Serif" font-size="10.00">odph_api.h</text>
</a>
</g>
</g>
<!-- Node3&#45;&gt;Node4 -->
<g id="edge1" class="edge"><title>Node3&#45;&gt;Node4</title>
<path fill="none" stroke="midnightblue" d="M165.226,-117.898C115.26,-112.674 27.5525,-100.234 8.342,-76 -34.3426,-22.1545 99.7707,-12.6337 165.826,-11.1472"/>
<polygon fill="midnightblue" stroke="midnightblue" points="164.978,-121.39 175.277,-118.905 165.676,-114.425 164.978,-121.39"/>
</g>
<!-- Node5 -->
<g id="node3" class="node"><title>Node5</title>
<g id="a_node3"><a xlink:href="odph__cuckootable_8h.html" target="_top" xlink:title="ODP Cuckoo Hash Table. ">
<polygon fill="white" stroke="black" points="17.842,-56.5 17.842,-75.5 130.842,-75.5 130.842,-56.5 17.842,-56.5"/>
<text text-anchor="middle" x="74.342" y="-63.5" font-family="Helvetica,sans-Serif" font-size="10.00">odph_cuckootable.h</text>
</a>
</g>
</g>
<!-- Node3&#45;&gt;Node5 -->
<g id="edge2" class="edge"><title>Node3&#45;&gt;Node5</title>
<path fill="none" stroke="midnightblue" d="M171.182,-108.503C147.561,-98.3795 114.914,-84.388 94.2137,-75.5164"/>
<polygon fill="midnightblue" stroke="midnightblue" points="169.807,-111.721 180.377,-112.444 172.564,-105.287 169.807,-111.721"/>
</g>
<!-- Node6 -->
<g id="node4" class="node"><title>Node6</title>
<g id="a_node4"><a xlink:href="odph__hashtable_8h.html" target="_top" xlink:title="ODP Hash Table. ">
<polygon fill="white" stroke="black" points="149.342,-56.5 149.342,-75.5 251.342,-75.5 251.342,-56.5 149.342,-56.5"/>
<text text-anchor="middle" x="200.342" y="-63.5" font-family="Helvetica,sans-Serif" font-size="10.00">odph_hashtable.h</text>
</a>
</g>
</g>
<!-- Node3&#45;&gt;Node6 -->
<g id="edge4" class="edge"><title>Node3&#45;&gt;Node6</title>
<path fill="none" stroke="midnightblue" d="M200.342,-101.805C200.342,-92.9102 200.342,-82.7798 200.342,-75.7511"/>
<polygon fill="midnightblue" stroke="midnightblue" points="196.842,-102.083 200.342,-112.083 203.842,-102.083 196.842,-102.083"/>
</g>
<!-- Node7 -->
<g id="node5" class="node"><title>Node7</title>
<g id="a_node5"><a xlink:href="odph__iplookuptable_8h.html" target="_top" xlink:title="ODP IP Lookup Table. ">
<polygon fill="white" stroke="black" points="269.842,-56.5 269.842,-75.5 388.842,-75.5 388.842,-56.5 269.842,-56.5"/>
<text text-anchor="middle" x="329.342" y="-63.5" font-family="Helvetica,sans-Serif" font-size="10.00">odph_iplookuptable.h</text>
</a>
</g>
</g>
<!-- Node3&#45;&gt;Node7 -->
<g id="edge6" class="edge"><title>Node3&#45;&gt;Node7</title>
<path fill="none" stroke="midnightblue" d="M230.196,-108.503C254.38,-98.3795 287.804,-84.388 308.997,-75.5164"/>
<polygon fill="midnightblue" stroke="midnightblue" points="228.655,-105.354 220.782,-112.444 231.358,-111.811 228.655,-105.354"/>
</g>
<!-- Node8 -->
<g id="node6" class="node"><title>Node8</title>
<g id="a_node6"><a xlink:href="odph__lineartable_8h.html" target="_top" xlink:title="ODP Linear Table. ">
<polygon fill="white" stroke="black" points="406.842,-56.5 406.842,-75.5 511.842,-75.5 511.842,-56.5 406.842,-56.5"/>
<text text-anchor="middle" x="459.342" y="-63.5" font-family="Helvetica,sans-Serif" font-size="10.00">odph_lineartable.h</text>
</a>
</g>
</g>
<!-- Node3&#45;&gt;Node8 -->
<g id="edge8" class="edge"><title>Node3&#45;&gt;Node8</title>
<path fill="none" stroke="midnightblue" d="M235.493,-113.671C283.073,-103.751 367.81,-86.0838 418.267,-75.5639"/>
<polygon fill="midnightblue" stroke="midnightblue" points="234.723,-110.256 225.648,-115.724 236.151,-117.109 234.723,-110.256"/>
</g>
<!-- Node5&#45;&gt;Node4 -->
<g id="edge3" class="edge"><title>Node5&#45;&gt;Node4</title>
<path fill="none" stroke="midnightblue" d="M103.502,-52.503C127.123,-42.3795 159.77,-28.388 180.47,-19.5164"/>
<polygon fill="midnightblue" stroke="midnightblue" points="102.12,-49.2873 94.3071,-56.4435 104.877,-55.7213 102.12,-49.2873"/>
</g>
<!-- Node6&#45;&gt;Node4 -->
<g id="edge5" class="edge"><title>Node6&#45;&gt;Node4</title>
<path fill="none" stroke="midnightblue" d="M200.342,-45.8045C200.342,-36.9102 200.342,-26.7798 200.342,-19.7511"/>
<polygon fill="midnightblue" stroke="midnightblue" points="196.842,-46.083 200.342,-56.083 203.842,-46.083 196.842,-46.083"/>
</g>
<!-- Node7&#45;&gt;Node4 -->
<g id="edge7" class="edge"><title>Node7&#45;&gt;Node4</title>
<path fill="none" stroke="midnightblue" d="M299.488,-52.503C275.304,-42.3795 241.88,-28.388 220.687,-19.5164"/>
<polygon fill="midnightblue" stroke="midnightblue" points="298.326,-55.8106 308.902,-56.4435 301.029,-49.3536 298.326,-55.8106"/>
</g>
<!-- Node8&#45;&gt;Node4 -->
<g id="edge9" class="edge"><title>Node8&#45;&gt;Node4</title>
<path fill="none" stroke="midnightblue" d="M408.421,-54.3832C357.163,-43.6963 279.496,-27.5031 234.973,-18.2203"/>
<polygon fill="midnightblue" stroke="midnightblue" points="407.799,-57.8287 418.303,-56.4435 409.228,-50.9761 407.799,-57.8287"/>
</g>
</g>
</svg>
