<?xml version="1.0" encoding="UTF-8" standalone="no"?>
<!DOCTYPE svg PUBLIC "-//W3C//DTD SVG 1.1//EN"
 "http://www.w3.org/Graphics/SVG/1.1/DTD/svg11.dtd">
<!-- Generated by graphviz version 2.38.0 (20140413.2041)
 -->
<!-- Title: threads.h Pages: 1 -->
<svg width="239pt" height="140pt"
 viewBox="0.00 0.00 239.00 140.00" xmlns="http://www.w3.org/2000/svg" xmlns:xlink="http://www.w3.org/1999/xlink">
<g id="graph0" class="graph" transform="scale(1 1) rotate(0) translate(4 136)">
<title>threads.h</title>
<polygon fill="white" stroke="none" points="-4,4 -4,-136 235,-136 235,4 -4,4"/>
<!-- Node4 -->
<g id="node1" class="node"><title>Node4</title>
<polygon fill="#bfbfbf" stroke="black" points="81.5,-112.5 81.5,-131.5 143.5,-131.5 143.5,-112.5 81.5,-112.5"/>
<text text-anchor="middle" x="112.5" y="-119.5" font-family="Helvetica,sans-Serif" font-size="10.00">threads.h</text>
</g>
<!-- Node5 -->
<g id="node2" class="node"><title>Node5</title>
<g id="a_node2"><a xlink:href="process_8h.html" target="_top" xlink:title="ODP Linux helper for processes. ">
<polygon fill="white" stroke="black" points="0,-56.5 0,-75.5 63,-75.5 63,-56.5 0,-56.5"/>
<text text-anchor="middle" x="31.5" y="-63.5" font-family="Helvetica,sans-Serif" font-size="10.00">process.h</text>
</a>
</g>
</g>
<!-- Node4&#45;&gt;Node5 -->
<g id="edge1" class="edge"><title>Node4&#45;&gt;Node5</title>
<path fill="none" stroke="midnightblue" d="M90.9332,-106.622C76.136,-96.7574 56.9878,-83.9919 44.4818,-75.6545"/>
<polygon fill="midnightblue" stroke="midnightblue" points="89.224,-109.689 99.4859,-112.324 93.1069,-103.865 89.224,-109.689"/>
</g>
<!-- Node7 -->
<g id="node4" class="node"><title>Node7</title>
<g id="a_node4"><a xlink:href="pthread_8h.html" target="_top" xlink:title="ODP Linux helper for pthreads. ">
<polygon fill="white" stroke="black" points="81,-56.5 81,-75.5 144,-75.5 144,-56.5 81,-56.5"/>
<text text-anchor="middle" x="112.5" y="-63.5" font-family="Helvetica,sans-Serif" font-size="10.00">pthread.h</text>
</a>
</g>
</g>
<!-- Node4&#45;&gt;Node7 -->
<g id="edge3" class="edge"><title>Node4&#45;&gt;Node7</title>
<path fill="none" stroke="midnightblue" d="M106.028,-102.101C105.396,-93.1357 105.843,-82.8579 107.369,-75.7511"/>
<polygon fill="midnightblue" stroke="midnightblue" points="102.566,-102.622 107.334,-112.083 109.507,-101.713 102.566,-102.622"/>
</g>
<!-- Node8 -->
<g id="node5" class="node"><title>Node8</title>
<g id="a_node5"><a xlink:href="odph__api_8h.html" target="_top" xlink:title="The OpenDataPlane helper API. ">
<polygon fill="white" stroke="black" points="162,-56.5 162,-75.5 231,-75.5 231,-56.5 162,-56.5"/>
<text text-anchor="middle" x="196.5" y="-63.5" font-family="Helvetica,sans-Serif" font-size="10.00">odph_api.h</text>
</a>
</g>
</g>
<!-- Node4&#45;&gt;Node8 -->
<g id="edge6" class="edge"><title>Node4&#45;&gt;Node8</title>
<path fill="none" stroke="midnightblue" d="M134.432,-106.901C149.835,-96.9986 169.946,-84.0705 183.037,-75.6545"/>
<polygon fill="midnightblue" stroke="midnightblue" points="132.515,-103.972 125.996,-112.324 136.301,-109.86 132.515,-103.972"/>
</g>
<!-- Node6 -->
<g id="node3" class="node"><title>Node6</title>
<g id="a_node3"><a xlink:href="linux_8h.html" target="_top" xlink:title="All ODP Linux helpers. ">
<polygon fill="white" stroke="black" points="48,-0.5 48,-19.5 95,-19.5 95,-0.5 48,-0.5"/>
<text text-anchor="middle" x="71.5" y="-7.5" font-family="Helvetica,sans-Serif" font-size="10.00">linux.h</text>
</a>
</g>
</g>
<!-- Node5&#45;&gt;Node6 -->
<g id="edge2" class="edge"><title>Node5&#45;&gt;Node6</title>
<path fill="none" stroke="midnightblue" d="M44.1997,-47.8554C51.126,-38.5048 59.4063,-27.3265 65.0177,-19.7511"/>
<polygon fill="midnightblue" stroke="midnightblue" points="41.245,-45.9641 38.1052,-56.083 46.87,-50.1307 41.245,-45.9641"/>
</g>
<!-- Node7&#45;&gt;Node4 -->
<g id="edge5" class="edge"><title>Node7&#45;&gt;Node4</title>
<path fill="none" stroke="midnightblue" d="M118.958,-85.6911C119.606,-94.6353 119.176,-104.927 117.666,-112.083"/>
<polygon fill="midnightblue" stroke="midnightblue" points="122.423,-85.2002 117.631,-75.7511 115.485,-86.1262 122.423,-85.2002"/>
</g>
<!-- Node7&#45;&gt;Node6 -->
<g id="edge4" class="edge"><title>Node7&#45;&gt;Node6</title>
<path fill="none" stroke="midnightblue" d="M99.4828,-47.8554C92.3833,-38.5048 83.896,-27.3265 78.1443,-19.7511"/>
<polygon fill="midnightblue" stroke="midnightblue" points="96.895,-50.235 105.73,-56.083 102.47,-46.002 96.895,-50.235"/>
</g>
</g>
</svg>
