<?xml version="1.0" encoding="UTF-8" standalone="no"?>
<!DOCTYPE svg PUBLIC "-//W3C//DTD SVG 1.1//EN"
 "http://www.w3.org/Graphics/SVG/1.1/DTD/svg11.dtd">
<!-- Generated by graphviz version 2.38.0 (20140413.2041)
 -->
<!-- Title: udp.h Pages: 1 -->
<svg width="142pt" height="140pt"
 viewBox="0.00 0.00 142.00 140.00" xmlns="http://www.w3.org/2000/svg" xmlns:xlink="http://www.w3.org/1999/xlink">
<g id="graph0" class="graph" transform="scale(1 1) rotate(0) translate(4 136)">
<title>udp.h</title>
<polygon fill="white" stroke="none" points="-4,4 -4,-136 138,-136 138,4 -4,4"/>
<!-- Node0 -->
<g id="node1" class="node"><title>Node0</title>
<polygon fill="#bfbfbf" stroke="black" points="9.5,-112.5 9.5,-131.5 53.5,-131.5 53.5,-112.5 9.5,-112.5"/>
<text text-anchor="middle" x="31.5" y="-119.5" font-family="Helvetica,sans-Serif" font-size="10.00">udp.h</text>
</g>
<!-- Node1 -->
<g id="node2" class="node"><title>Node1</title>
<polygon fill="white" stroke="#bfbfbf" points="0,-0.5 0,-19.5 63,-19.5 63,-0.5 0,-0.5"/>
<text text-anchor="middle" x="31.5" y="-7.5" font-family="Helvetica,sans-Serif" font-size="10.00">odp_api.h</text>
</g>
<!-- Node0&#45;&gt;Node1 -->
<g id="edge1" class="edge"><title>Node0&#45;&gt;Node1</title>
<path fill="none" stroke="midnightblue" d="M24.7273,-112.36C15.9384,-100.083 2.30675,-76.773 7.5,-56 9.9387,-46.2452 14.9366,-36.2896 19.7432,-28.231"/>
<polygon fill="midnightblue" stroke="midnightblue" points="22.7134,-30.0828 25.1332,-19.768 16.8091,-26.3225 22.7134,-30.0828"/>
</g>
<!-- Node2 -->
<g id="node3" class="node"><title>Node2</title>
<g id="a_node3"><a xlink:href="chksum_8h.html" target="_top" xlink:title="ODP checksum helper. ">
<polygon fill="white" stroke="black" points="17,-56.5 17,-75.5 134,-75.5 134,-56.5 17,-56.5"/>
<text text-anchor="middle" x="75.5" y="-63.5" font-family="Helvetica,sans-Serif" font-size="10.00">odp/helper/chksum.h</text>
</a>
</g>
</g>
<!-- Node0&#45;&gt;Node2 -->
<g id="edge2" class="edge"><title>Node0&#45;&gt;Node2</title>
<path fill="none" stroke="midnightblue" d="M38.7657,-112.083C45.0448,-104.377 54.2876,-93.0333 61.9308,-83.6531"/>
<polygon fill="midnightblue" stroke="midnightblue" points="64.7661,-85.7143 68.3695,-75.7511 59.3394,-81.2926 64.7661,-85.7143"/>
</g>
<!-- Node2&#45;&gt;Node1 -->
<g id="edge3" class="edge"><title>Node2&#45;&gt;Node1</title>
<path fill="none" stroke="midnightblue" d="M68.2343,-56.083C61.9552,-48.3768 52.7124,-37.0333 45.0692,-27.6531"/>
<polygon fill="midnightblue" stroke="midnightblue" points="47.6606,-25.2926 38.6305,-19.7511 42.2339,-29.7143 47.6606,-25.2926"/>
</g>
</g>
</svg>
